#VRML V2.0 utf8
# Infineon_PG-VF2BGA-40-1 - generated by tools/gen_3d_models.py
Shape { appearance Appearance { material Material { diffuseColor 0.080 0.080 0.090 specularColor 0.2 0.2 0.2 shininess 0.3 } }
  geometry IndexedFaceSet { solid TRUE coord Coordinate { point [ -1.34646 -0.91732 0.00000, 1.21260 -0.91732 0.00000, 1.21260 1.05118 0.00000, -1.34646 1.05118 0.00000, -1.34646 -0.91732 0.35433, 1.21260 -0.91732 0.35433, 1.21260 1.05118 0.35433, -1.34646 1.05118 0.35433 ] } coordIndex [ 0 3 2 1 -1, 4 5 6 7 -1, 0 1 5 4 -1, 1 2 6 5 -1, 2 3 7 6 -1, 3 0 4 7 -1 ] } }
Shape { appearance Appearance { material Material { diffuseColor 0.850 0.680 0.250 specularColor 0.2 0.2 0.2 shininess 0.3 } }
  geometry IndexedFaceSet { solid TRUE coord Coordinate { point [ -1.02362 0.35433 0.35433, -0.55118 0.35433 0.35433, -0.55118 0.82677 0.35433, -1.02362 0.82677 0.35433, -1.02362 0.35433 0.36220, -0.55118 0.35433 0.36220, -0.55118 0.82677 0.36220, -1.02362 0.82677 0.36220 ] } coordIndex [ 0 3 2 1 -1, 4 5 6 7 -1, 0 1 5 4 -1, 1 2 6 5 -1, 2 3 7 6 -1, 3 0 4 7 -1 ] } }
Shape { appearance Appearance { material Material { diffuseColor 0.850 0.680 0.250 specularColor 0.2 0.2 0.2 shininess 0.3 } }
  geometry IndexedFaceSet { solid TRUE coord Coordinate { point [ 0.15748 0.35433 0.35433, 0.55118 0.35433 0.35433, 0.55118 0.74803 0.35433, 0.15748 0.74803 0.35433, 0.15748 0.35433 0.36220, 0.55118 0.35433 0.36220, 0.55118 0.74803 0.36220, 0.15748 0.74803 0.36220 ] } coordIndex [ 0 3 2 1 -1, 4 5 6 7 -1, 0 1 5 4 -1, 1 2 6 5 -1, 2 3 7 6 -1, 3 0 4 7 -1 ] } }
Shape { appearance Appearance { material Material { diffuseColor 0.850 0.680 0.250 specularColor 0.2 0.2 0.2 shininess 0.3 } }
  geometry IndexedFaceSet { solid TRUE coord Coordinate { point [ 0.64961 0.35433 0.35433, 1.04331 0.35433 0.35433, 1.04331 0.74803 0.35433, 0.64961 0.74803 0.35433, 0.64961 0.35433 0.36220, 1.04331 0.35433 0.36220, 1.04331 0.74803 0.36220, 0.64961 0.74803 0.36220 ] } coordIndex [ 0 3 2 1 -1, 4 5 6 7 -1, 0 1 5 4 -1, 1 2 6 5 -1, 2 3 7 6 -1, 3 0 4 7 -1 ] } }
Shape { appearance Appearance { material Material { diffuseColor 0.850 0.680 0.250 specularColor 0.2 0.2 0.2 shininess 0.3 } }
  geometry IndexedFaceSet { solid TRUE coord Coordinate { point [ 0.15748 -0.62992 0.35433, 0.55118 -0.62992 0.35433, 0.55118 -0.23622 0.35433, 0.15748 -0.23622 0.35433, 0.15748 -0.62992 0.36220, 0.55118 -0.62992 0.36220, 0.55118 -0.23622 0.36220, 0.15748 -0.23622 0.36220 ] } coordIndex [ 0 3 2 1 -1, 4 5 6 7 -1, 0 1 5 4 -1, 1 2 6 5 -1, 2 3 7 6 -1, 3 0 4 7 -1 ] } }
