#VRML V2.0 utf8
# LED_RGB_1615_SZYY1615RGB-B - generated by tools/gen_3d_models.py
Shape { appearance Appearance { material Material { diffuseColor 0.930 0.930 0.900 specularColor 0.2 0.2 0.2 shininess 0.3 } }
  geometry IndexedFaceSet { solid TRUE coord Coordinate { point [ -0.29528 -0.31496 0.00000, 0.29528 -0.31496 0.00000, 0.29528 0.31496 0.00000, -0.29528 0.31496 0.00000, -0.29528 -0.31496 0.11811, 0.29528 -0.31496 0.11811, 0.29528 0.31496 0.11811, -0.29528 0.31496 0.11811 ] } coordIndex [ 0 3 2 1 -1, 4 5 6 7 -1, 0 1 5 4 -1, 1 2 6 5 -1, 2 3 7 6 -1, 3 0 4 7 -1 ] } }
Shape { appearance Appearance { material Material { diffuseColor 0.850 0.880 0.950 specularColor 0.2 0.2 0.2 shininess 0.3 } }
  geometry IndexedFaceSet { solid TRUE coord Coordinate { point [ -0.23622 -0.25591 0.11811, 0.23622 -0.25591 0.11811, 0.23622 0.25591 0.11811, -0.23622 0.25591 0.11811, -0.23622 -0.25591 0.21654, 0.23622 -0.25591 0.21654, 0.23622 0.25591 0.21654, -0.23622 0.25591 0.21654 ] } coordIndex [ 0 3 2 1 -1, 4 5 6 7 -1, 0 1 5 4 -1, 1 2 6 5 -1, 2 3 7 6 -1, 3 0 4 7 -1 ] } }
