#VRML V2.0 utf8
# SiliconLabs_MGM260P - generated by tools/gen_3d_models.py
Shape { appearance Appearance { material Material { diffuseColor 0.130 0.330 0.200 specularColor 0.2 0.2 0.2 shininess 0.3 } }
  geometry IndexedFaceSet { solid TRUE coord Coordinate { point [ -2.53937 -2.95276 0.00000, 2.53937 -2.95276 0.00000, 2.53937 2.95276 0.00000, -2.53937 2.95276 0.00000, -2.53937 -2.95276 0.31496, 2.53937 -2.95276 0.31496, 2.53937 2.95276 0.31496, -2.53937 2.95276 0.31496 ] } coordIndex [ 0 3 2 1 -1, 4 5 6 7 -1, 0 1 5 4 -1, 1 2 6 5 -1, 2 3 7 6 -1, 3 0 4 7 -1 ] } }
Shape { appearance Appearance { material Material { diffuseColor 0.780 0.780 0.800 specularColor 0.2 0.2 0.2 shininess 0.3 } }
  geometry IndexedFaceSet { solid TRUE coord Coordinate { point [ -2.32283 -2.75984 0.31496, 2.32283 -2.75984 0.31496, 2.32283 0.54724 0.31496, -2.32283 0.54724 0.31496, -2.32283 -2.75984 0.84646, 2.32283 -2.75984 0.84646, 2.32283 0.54724 0.84646, -2.32283 0.54724 0.84646 ] } coordIndex [ 0 3 2 1 -1, 4 5 6 7 -1, 0 1 5 4 -1, 1 2 6 5 -1, 2 3 7 6 -1, 3 0 4 7 -1 ] } }
Shape { appearance Appearance { material Material { diffuseColor 0.850 0.680 0.250 specularColor 0.2 0.2 0.2 shininess 0.3 } }
  geometry IndexedFaceSet { solid TRUE coord Coordinate { point [ -1.65354 2.20472 0.31496, 1.65354 2.20472 0.31496, 1.65354 2.36220 0.31496, -1.65354 2.36220 0.31496, -1.65354 2.20472 0.32677, 1.65354 2.20472 0.32677, 1.65354 2.36220 0.32677, -1.65354 2.36220 0.32677 ] } coordIndex [ 0 3 2 1 -1, 4 5 6 7 -1, 0 1 5 4 -1, 1 2 6 5 -1, 2 3 7 6 -1, 3 0 4 7 -1 ] } }
Shape { appearance Appearance { material Material { diffuseColor 0.850 0.680 0.250 specularColor 0.2 0.2 0.2 shininess 0.3 } }
  geometry IndexedFaceSet { solid TRUE coord Coordinate { point [ -1.65354 1.33858 0.31496, -1.49606 1.33858 0.31496, -1.49606 2.36220 0.31496, -1.65354 2.36220 0.31496, -1.65354 1.33858 0.32677, -1.49606 1.33858 0.32677, -1.49606 2.36220 0.32677, -1.65354 2.36220 0.32677 ] } coordIndex [ 0 3 2 1 -1, 4 5 6 7 -1, 0 1 5 4 -1, 1 2 6 5 -1, 2 3 7 6 -1, 3 0 4 7 -1 ] } }
