%TF.GenerationSoftware,KiCad,Pcbnew,10.0.6-10.0.6~ubuntu24.04.1*%
%TF.CreationDate,2026-10-06T00:25:10+00:00*%
%TF.ProjectId,radar60,72616461-7236-4302-9e6b-696361645f70,rev?*%
%TF.SameCoordinates,Original*%
%TF.FileFunction,Soldermask,Top*%
%TF.FilePolarity,Negative*%
%FSLAX46Y46*%
G04 Gerber Fmt 4.6, Leading zero omitted, Abs format (unit mm)*
G04 Created by KiCad (PCBNEW 10.0.6-10.0.6~ubuntu24.04.1) date 2026-10-06 00:25:10*
%MOMM*%
%LPD*%
G01*
G04 APERTURE LIST*
G04 Aperture macros list*
%AMRoundRect*
0 Rectangle with rounded corners*
0 $1 Rounding radius*
0 $2 $3 $4 $5 $6 $7 $8 $9 X,Y pos of 4 corners*
0 Add a 4 corners polygon primitive as box body*
4,1,4,$2,$3,$4,$5,$6,$7,$8,$9,$2,$3,0*
0 Add four circle primitives for the rounded corners*
1,1,$1+$1,$2,$3*
1,1,$1+$1,$4,$5*
1,1,$1+$1,$6,$7*
1,1,$1+$1,$8,$9*
0 Add four rect primitives between the rounded corners*
20,1,$1+$1,$2,$3,$4,$5,0*
20,1,$1+$1,$4,$5,$6,$7,0*
20,1,$1+$1,$6,$7,$8,$9,0*
20,1,$1+$1,$8,$9,$2,$3,0*%
G04 Aperture macros list end*
%ADD10RoundRect,0.300000X-0.250000X-0.475000X0.250000X-0.475000X0.250000X0.475000X-0.250000X0.475000X0*%
%ADD11RoundRect,0.300000X0.475000X-0.250000X0.475000X0.250000X-0.475000X0.250000X-0.475000X-0.250000X0*%
%ADD12RoundRect,0.200000X0.150000X-0.512500X0.150000X0.512500X-0.150000X0.512500X-0.150000X-0.512500X0*%
%ADD13RoundRect,0.185000X-0.135000X-0.185000X0.135000X-0.185000X0.135000X0.185000X-0.135000X0.185000X0*%
%ADD14C,1.100000*%
%ADD15RoundRect,0.200000X-0.512500X-0.150000X0.512500X-0.150000X0.512500X0.150000X-0.512500X0.150000X0*%
%ADD16C,1.090600*%
%ADD17C,0.887400*%
%ADD18RoundRect,0.050000X-0.850000X-0.500000X0.850000X-0.500000X0.850000X0.500000X-0.850000X0.500000X0*%
%ADD19RoundRect,0.190000X0.170000X-0.140000X0.170000X0.140000X-0.170000X0.140000X-0.170000X-0.140000X0*%
%ADD20RoundRect,0.190000X-0.140000X-0.170000X0.140000X-0.170000X0.140000X0.170000X-0.140000X0.170000X0*%
%ADD21RoundRect,0.185000X0.135000X0.185000X-0.135000X0.185000X-0.135000X-0.185000X0.135000X-0.185000X0*%
%ADD22RoundRect,0.185000X0.185000X-0.135000X0.185000X0.135000X-0.185000X0.135000X-0.185000X-0.135000X0*%
%ADD23C,0.760000*%
%ADD24O,1.100000X0.680000*%
%ADD25RoundRect,0.125000X-0.075000X-0.425000X0.075000X-0.425000X0.075000X0.425000X-0.075000X0.425000X0*%
%ADD26C,1.200000*%
%ADD27RoundRect,0.268750X-0.218750X-0.256250X0.218750X-0.256250X0.218750X0.256250X-0.218750X0.256250X0*%
%ADD28RoundRect,0.150000X-0.637500X-0.100000X0.637500X-0.100000X0.637500X0.100000X-0.637500X0.100000X0*%
%ADD29RoundRect,0.050000X-1.200000X-0.300000X1.200000X-0.300000X1.200000X0.300000X-1.200000X0.300000X0*%
%ADD30RoundRect,0.050000X-0.300000X-1.200000X0.300000X-1.200000X0.300000X1.200000X-0.300000X1.200000X0*%
%ADD31RoundRect,0.112500X-0.350000X-0.062500X0.350000X-0.062500X0.350000X0.062500X-0.350000X0.062500X0*%
%ADD32RoundRect,0.112500X-0.062500X-0.350000X0.062500X-0.350000X0.062500X0.350000X-0.062500X0.350000X0*%
%ADD33RoundRect,0.050000X-1.300000X-1.300000X1.300000X-1.300000X1.300000X1.300000X-1.300000X1.300000X0*%
%ADD34RoundRect,0.300000X0.625000X-0.375000X0.625000X0.375000X-0.625000X0.375000X-0.625000X-0.375000X0*%
G04 APERTURE END LIST*
D10*
%TO.C,C22*%
X95250000Y-88300000D03*
X97150000Y-88300000D03*
%TD*%
D11*
%TO.C,C4*%
X91700000Y-97950000D03*
X91700000Y-96050000D03*
%TD*%
D12*
%TO.C,U6*%
X92050000Y-116637500D03*
X93000000Y-116637500D03*
X93950000Y-116637500D03*
X93950000Y-114362500D03*
X93000000Y-114362500D03*
X92050000Y-114362500D03*
%TD*%
D13*
%TO.C,R10*%
X96990000Y-126000000D03*
X98010000Y-126000000D03*
%TD*%
D14*
%TO.C,TP12*%
X90000000Y-89000000D03*
%TD*%
D15*
%TO.C,U3*%
X86862500Y-105050000D03*
X86862500Y-106000000D03*
X86862500Y-106950000D03*
X89137500Y-106950000D03*
X89137500Y-105050000D03*
%TD*%
D16*
%TO.C,J2*%
X77460000Y-113000000D03*
X82540000Y-111984000D03*
X82540000Y-114016000D03*
D17*
X78730000Y-113635000D03*
X78730000Y-112365000D03*
X80000000Y-113635000D03*
X80000000Y-112365000D03*
X81270000Y-113635000D03*
X81270000Y-112365000D03*
%TD*%
D18*
%TO.C,SW2*%
X114350000Y-85600000D03*
X120650000Y-85600000D03*
X114350000Y-89400000D03*
X120650000Y-89400000D03*
%TD*%
D13*
%TO.C,R9*%
X114990000Y-100000000D03*
X116010000Y-100000000D03*
%TD*%
D19*
%TO.C,C21*%
X108500000Y-99980000D03*
X108500000Y-99020000D03*
%TD*%
D20*
%TO.C,C26*%
X115020000Y-109500000D03*
X115980000Y-109500000D03*
%TD*%
D14*
%TO.C,TP6*%
X112300000Y-91700000D03*
%TD*%
%TO.C,TP7*%
X110500000Y-97500000D03*
%TD*%
D19*
%TO.C,C19*%
X108500000Y-91480000D03*
X108500000Y-90520000D03*
%TD*%
%TO.C,C25*%
X121300000Y-104480000D03*
X121300000Y-103520000D03*
%TD*%
D21*
%TO.C,R5*%
X110110000Y-94000000D03*
X109090000Y-94000000D03*
%TD*%
D22*
%TO.C,R1*%
X95500000Y-121510000D03*
X95500000Y-120490000D03*
%TD*%
%TO.C,R8*%
X122000000Y-99010000D03*
X122000000Y-97990000D03*
%TD*%
D14*
%TO.C,TP5*%
X110500000Y-89500000D03*
%TD*%
%TO.C,TP3*%
X79500000Y-97000000D03*
%TD*%
D23*
%TO.C,J1*%
X96250000Y-116000000D03*
D24*
X103750000Y-116000000D03*
D25*
X97220000Y-115240000D03*
X98010000Y-115240000D03*
X98800000Y-115240000D03*
X99590000Y-115240000D03*
X100380000Y-115240000D03*
X101170000Y-115240000D03*
X101960000Y-115240000D03*
X102750000Y-115240000D03*
X102750000Y-116760000D03*
X101960000Y-116760000D03*
X101170000Y-116760000D03*
X100380000Y-116760000D03*
X99590000Y-116760000D03*
X98800000Y-116760000D03*
X98010000Y-116760000D03*
X97220000Y-116760000D03*
D26*
X97600000Y-113850000D03*
X97600000Y-118150000D03*
X102400000Y-113850000D03*
X102400000Y-118150000D03*
%TD*%
D19*
%TO.C,C24*%
X119800000Y-104480000D03*
X119800000Y-103520000D03*
%TD*%
D14*
%TO.C,TP4*%
X124500000Y-109000000D03*
%TD*%
D20*
%TO.C,C23*%
X98620000Y-87700000D03*
X99580000Y-87700000D03*
%TD*%
D22*
%TO.C,R2*%
X104500000Y-121510000D03*
X104500000Y-120490000D03*
%TD*%
D19*
%TO.C,C3*%
X84800000Y-97480000D03*
X84800000Y-96520000D03*
%TD*%
D13*
%TO.C,R3*%
X87490000Y-93600000D03*
X88510000Y-93600000D03*
%TD*%
D21*
%TO.C,R6*%
X110110000Y-95100000D03*
X109090000Y-95100000D03*
%TD*%
D18*
%TO.C,SW1*%
X79350000Y-85600000D03*
X85650000Y-85600000D03*
X79350000Y-89400000D03*
X85650000Y-89400000D03*
%TD*%
D11*
%TO.C,C1*%
X84300000Y-106950000D03*
X84300000Y-105050000D03*
%TD*%
D14*
%TO.C,TP1*%
X111500000Y-120500000D03*
%TD*%
D15*
%TO.C,U4*%
X86862500Y-96050000D03*
X86862500Y-97000000D03*
X86862500Y-97950000D03*
X89137500Y-97950000D03*
X89137500Y-96050000D03*
%TD*%
D14*
%TO.C,TP9*%
X110500000Y-103000000D03*
%TD*%
%TO.C,TP11*%
X90000000Y-86500000D03*
%TD*%
%TO.C,TP10*%
X89500000Y-83500000D03*
%TD*%
D19*
%TO.C,C20*%
X99500000Y-99980000D03*
X99500000Y-99020000D03*
%TD*%
D14*
%TO.C,TP8*%
X112500000Y-94000000D03*
%TD*%
D22*
%TO.C,R7*%
X120500000Y-99010000D03*
X120500000Y-97990000D03*
%TD*%
D27*
%TO.C,FB4*%
X83712500Y-101500000D03*
X85287500Y-101500000D03*
%TD*%
D28*
%TO.C,U8*%
X101137500Y-99225000D03*
X101137500Y-99875000D03*
X101137500Y-100525000D03*
X101137500Y-101175000D03*
X101137500Y-101825000D03*
X101137500Y-102475000D03*
X101137500Y-103125000D03*
X101137500Y-103775000D03*
X106862500Y-103775000D03*
X106862500Y-103125000D03*
X106862500Y-102475000D03*
X106862500Y-101825000D03*
X106862500Y-101175000D03*
X106862500Y-100525000D03*
X106862500Y-99875000D03*
X106862500Y-99225000D03*
%TD*%
D13*
%TO.C,R11*%
X99490000Y-127000000D03*
X100510000Y-127000000D03*
%TD*%
D29*
%TO.C,U2*%
X94350000Y-71700000D03*
X94350000Y-72700000D03*
X94350000Y-73700000D03*
X94350000Y-74700000D03*
X94350000Y-75700000D03*
X94350000Y-76700000D03*
X94350000Y-77700000D03*
X94350000Y-78700000D03*
X94350000Y-79700000D03*
X94350000Y-80700000D03*
X94350000Y-81700000D03*
X94350000Y-82700000D03*
X94350000Y-83700000D03*
X94350000Y-84700000D03*
D30*
X96500000Y-85200000D03*
X97500000Y-85200000D03*
X98500000Y-85200000D03*
X99500000Y-85200000D03*
X100500000Y-85200000D03*
X101500000Y-85200000D03*
X102500000Y-85200000D03*
X103500000Y-85200000D03*
D29*
X105650000Y-84700000D03*
X105650000Y-83700000D03*
X105650000Y-82700000D03*
X105650000Y-81700000D03*
X105650000Y-80700000D03*
X105650000Y-79700000D03*
X105650000Y-78700000D03*
X105650000Y-77700000D03*
X105650000Y-76700000D03*
X105650000Y-75700000D03*
X105650000Y-74700000D03*
X105650000Y-73700000D03*
X105650000Y-72700000D03*
X105650000Y-71700000D03*
%TD*%
D31*
%TO.C,U5*%
X113562500Y-103750000D03*
X113562500Y-104250000D03*
X113562500Y-104750000D03*
X113562500Y-105250000D03*
X113562500Y-105750000D03*
X113562500Y-106250000D03*
D32*
X114250000Y-106937500D03*
X114750000Y-106937500D03*
X115250000Y-106937500D03*
X115750000Y-106937500D03*
X116250000Y-106937500D03*
X116750000Y-106937500D03*
D31*
X117437500Y-106250000D03*
X117437500Y-105750000D03*
X117437500Y-105250000D03*
X117437500Y-104750000D03*
X117437500Y-104250000D03*
X117437500Y-103750000D03*
D32*
X116750000Y-103062500D03*
X116250000Y-103062500D03*
X115750000Y-103062500D03*
X115250000Y-103062500D03*
X114750000Y-103062500D03*
X114250000Y-103062500D03*
D33*
X115500000Y-105000000D03*
%TD*%
D34*
%TO.C,F1*%
X108000000Y-116900000D03*
X108000000Y-114100000D03*
%TD*%
D28*
%TO.C,U7*%
X101137500Y-90725000D03*
X101137500Y-91375000D03*
X101137500Y-92025000D03*
X101137500Y-92675000D03*
X101137500Y-93325000D03*
X101137500Y-93975000D03*
X101137500Y-94625000D03*
X101137500Y-95275000D03*
X106862500Y-95275000D03*
X106862500Y-94625000D03*
X106862500Y-93975000D03*
X106862500Y-93325000D03*
X106862500Y-92675000D03*
X106862500Y-92025000D03*
X106862500Y-91375000D03*
X106862500Y-90725000D03*
%TD*%
D19*
%TO.C,C18*%
X99500000Y-91480000D03*
X99500000Y-90520000D03*
%TD*%
D11*
%TO.C,C2*%
X91700000Y-106950000D03*
X91700000Y-105050000D03*
%TD*%
D13*
%TO.C,R12*%
X101990000Y-126000000D03*
X103010000Y-126000000D03*
%TD*%
D14*
%TO.C,TP2*%
X79500000Y-105000000D03*
%TD*%
M02*
