%TF.GenerationSoftware,KiCad,Pcbnew,10.0.6-10.0.6~ubuntu24.04.1*%
%TF.CreationDate,2026-10-06T00:25:10+00:00*%
%TF.ProjectId,radar60,72616461-7236-4302-9e6b-696361645f70,rev?*%
%TF.SameCoordinates,Original*%
%TF.FileFunction,Copper,L2,Inr*%
%TF.FilePolarity,Positive*%
%FSLAX46Y46*%
G04 Gerber Fmt 4.6, Leading zero omitted, Abs format (unit mm)*
G04 Created by KiCad (PCBNEW 10.0.6-10.0.6~ubuntu24.04.1) date 2026-10-06 00:25:10*
%MOMM*%
%LPD*%
G01*
G04 APERTURE LIST*
%TA.AperFunction,ComponentPad*%
%ADD10C,1.100000*%
%TD*%
%TA.AperFunction,ViaPad*%
%ADD11C,0.600000*%
%TD*%
%TA.AperFunction,ViaPad*%
%ADD12C,0.500000*%
%TD*%
%TA.AperFunction,ViaPad*%
%ADD13C,0.450000*%
%TD*%
G04 APERTURE END LIST*
D10*
%TO.N,/GND*%
%TO.C,J1*%
X97600000Y-113850000D03*
X97600000Y-118150000D03*
X102400000Y-113850000D03*
X102400000Y-118150000D03*
%TD*%
D11*
%TO.N,/+3V3*%
X100539000Y-124503200D03*
D12*
%TO.N,/GND*%
X105339849Y-109439849D03*
D13*
X99600000Y-101200000D03*
D12*
X96270000Y-120490001D03*
X82400000Y-108313600D03*
X81600000Y-118012800D03*
X86399999Y-109699200D03*
X96640794Y-117339205D03*
X76800000Y-98614400D03*
X80800000Y-80601599D03*
X107200000Y-87529600D03*
X112800000Y-83372800D03*
X127200000Y-97228800D03*
X100310000Y-87700000D03*
X73600000Y-90300800D03*
X84300000Y-106000000D03*
X110399999Y-79216000D03*
X87200000Y-94457600D03*
X109600000Y-75059200D03*
X119200000Y-80601599D03*
X112800000Y-80601599D03*
X72800000Y-105542400D03*
X84000000Y-113856000D03*
X87200000Y-83372800D03*
X74400000Y-97228800D03*
X80800000Y-116627200D03*
X82400000Y-91686399D03*
X123200000Y-106928000D03*
X107300000Y-71700000D03*
X78399999Y-109699200D03*
X123200000Y-87529600D03*
X88800000Y-124940800D03*
X87200000Y-91686399D03*
X73600000Y-106928000D03*
D13*
X104650000Y-109750000D03*
X94400000Y-102600000D03*
D12*
X106400000Y-124940800D03*
X125600000Y-97228800D03*
X82400000Y-97228800D03*
X77600000Y-102771200D03*
X110399999Y-81987200D03*
X72800000Y-108313600D03*
X80000000Y-93072000D03*
X124800000Y-98614400D03*
X92000000Y-86144000D03*
X100000000Y-107610000D03*
X123200000Y-95843200D03*
X88000000Y-87529600D03*
X88800000Y-75059200D03*
X125450000Y-109000000D03*
X123200000Y-115241600D03*
X124800000Y-90300800D03*
X76000000Y-91686399D03*
X112000000Y-76444800D03*
X116800000Y-81987200D03*
X120800000Y-94457600D03*
X81600000Y-98614400D03*
X97220000Y-116190000D03*
X108800000Y-123555200D03*
X120800000Y-91686399D03*
X81600000Y-106928000D03*
X88000000Y-79216000D03*
X81600000Y-101385600D03*
X88000000Y-115241600D03*
D13*
X93000000Y-116640000D03*
D12*
X87200000Y-77830400D03*
X88000000Y-84758400D03*
X110399999Y-84758400D03*
X110399999Y-123555200D03*
X119200000Y-94457600D03*
X124800000Y-112470400D03*
X76000000Y-100000000D03*
X82400000Y-80601599D03*
X74400000Y-88915200D03*
X110399999Y-76444800D03*
X101000000Y-107610000D03*
X85600000Y-77830400D03*
X123200000Y-104156800D03*
X108000000Y-75059200D03*
X74400000Y-94457600D03*
X77600000Y-91686399D03*
X89229998Y-93600000D03*
X95220000Y-103360000D03*
X121600000Y-93072000D03*
X84000000Y-122169600D03*
X95286662Y-85636663D03*
D13*
X98700000Y-101800000D03*
D12*
X80800000Y-94457600D03*
X79200000Y-80601599D03*
X120800000Y-83372800D03*
X82400000Y-105542400D03*
X89600000Y-112470400D03*
X90400000Y-91686399D03*
X96000000Y-93072000D03*
X78399999Y-98614400D03*
D13*
X99000000Y-107000000D03*
D12*
X124800000Y-106928000D03*
X87200000Y-111084800D03*
X105880000Y-102360000D03*
X125600000Y-100000000D03*
X75200000Y-109699200D03*
X91700000Y-97000000D03*
X117600000Y-91686399D03*
X85600000Y-108313600D03*
X107300000Y-73700000D03*
X121600000Y-81987200D03*
X77600000Y-83372800D03*
X98740000Y-99020000D03*
X123200000Y-101385600D03*
X84800000Y-93072000D03*
X124800000Y-93072000D03*
D13*
X99600000Y-98300000D03*
D12*
X100800000Y-87529600D03*
X87200000Y-108313600D03*
X84272935Y-95992935D03*
X88800000Y-111084800D03*
X120000000Y-93072000D03*
X121950000Y-89400000D03*
X115649999Y-89400000D03*
X89600000Y-79216000D03*
X84800000Y-79216000D03*
X76800000Y-90300800D03*
X125600000Y-105542400D03*
X92699998Y-71700000D03*
X75200000Y-112470400D03*
X85600000Y-111084800D03*
X113600000Y-95843200D03*
X76000000Y-113856000D03*
X73600000Y-95843200D03*
X95200000Y-91686399D03*
X74400000Y-102771200D03*
X75200000Y-106928000D03*
X75200000Y-104156800D03*
X74400000Y-105542400D03*
X87200000Y-119398400D03*
X78399999Y-93072000D03*
X84000000Y-77830400D03*
X105270000Y-120490001D03*
X85600000Y-100000000D03*
X85600000Y-122169600D03*
X74400000Y-91686399D03*
X99527064Y-106907064D03*
X117600000Y-77830400D03*
X127200000Y-108313600D03*
X107300000Y-72700000D03*
X75200000Y-95843200D03*
X84800000Y-76444800D03*
X119200000Y-83372800D03*
X111200000Y-77830400D03*
X87200000Y-124940800D03*
X105600000Y-123555200D03*
X109600000Y-77830400D03*
X114400000Y-91686399D03*
X76800000Y-104156800D03*
X91200000Y-123555200D03*
X108000000Y-77830400D03*
X113600000Y-123555200D03*
X115980000Y-108740000D03*
X77600000Y-86144000D03*
X97908545Y-89058545D03*
X125600000Y-88915200D03*
X108000000Y-124940800D03*
D13*
X108300000Y-109250000D03*
D12*
X101137500Y-99875000D03*
X128000000Y-101385600D03*
X72800000Y-100000000D03*
X86950000Y-89400000D03*
X116000000Y-83372800D03*
X97600000Y-93072000D03*
X127200000Y-105542400D03*
X97600000Y-90300800D03*
X86399999Y-115241600D03*
X88800000Y-102771200D03*
X72000000Y-98614400D03*
X127200000Y-100000000D03*
X80000000Y-106928000D03*
X85600000Y-91686399D03*
X80800000Y-102771200D03*
X72800000Y-94457600D03*
X122400000Y-94457600D03*
X109260000Y-90520000D03*
X106610000Y-102600000D03*
X79200000Y-119398400D03*
X127200000Y-102771200D03*
X81600000Y-79216000D03*
X76800000Y-87529600D03*
X107562766Y-95975266D03*
X102325000Y-95275000D03*
X72800000Y-91686399D03*
X77600000Y-97228800D03*
X122400000Y-88915200D03*
X77600000Y-100000000D03*
X98400000Y-91686399D03*
X81600000Y-104156800D03*
X128000000Y-95843200D03*
X112800000Y-75059200D03*
X80800000Y-91686399D03*
X108800000Y-87529600D03*
X76000000Y-97228800D03*
X108500000Y-98289999D03*
X72000000Y-101385600D03*
X75200000Y-93072000D03*
D13*
X94400000Y-99250000D03*
D12*
X72800000Y-97228800D03*
X76800000Y-101385600D03*
X89600000Y-76444800D03*
X106862500Y-100525000D03*
X72800000Y-102771200D03*
X82400000Y-122169600D03*
X76000000Y-86144000D03*
X76000000Y-94457600D03*
X108000000Y-86144000D03*
X118399999Y-93072000D03*
X124000000Y-91686399D03*
X126399999Y-98614400D03*
X81600000Y-109699200D03*
X86399999Y-123555200D03*
X117600000Y-80601599D03*
X87200000Y-100000000D03*
X87200000Y-113856000D03*
X116000000Y-77830400D03*
X119272935Y-102992935D03*
X112000000Y-79216000D03*
X126399999Y-104156800D03*
X124800000Y-87529600D03*
X112800000Y-86144000D03*
X122400000Y-91686399D03*
X81600000Y-81987200D03*
X110399999Y-87529600D03*
X89600000Y-93072000D03*
X116800000Y-79216000D03*
X98400000Y-94457600D03*
X112000000Y-81987200D03*
X112000000Y-123555200D03*
X88000000Y-76444800D03*
X104000000Y-123555200D03*
X126399999Y-109699200D03*
D13*
X100900000Y-98300000D03*
D12*
X73600000Y-101385600D03*
X73600000Y-98614400D03*
X88800000Y-122169600D03*
X89600000Y-118012800D03*
X101600000Y-88915200D03*
X76000000Y-105542400D03*
X77600000Y-116627200D03*
X114400000Y-80601599D03*
X113600000Y-81987200D03*
X94399999Y-95843200D03*
X72000000Y-95843200D03*
X118399999Y-81987200D03*
X124000000Y-88915200D03*
X108050000Y-103775000D03*
X84800000Y-118012800D03*
X95200000Y-94457600D03*
X80000000Y-98614400D03*
X112800000Y-77830400D03*
X106162233Y-103175266D03*
D13*
X100000000Y-107000000D03*
D12*
X80800000Y-119398400D03*
X126399999Y-101385600D03*
X81600000Y-93072000D03*
X113600000Y-76444800D03*
X75200000Y-101385600D03*
X79200000Y-83372800D03*
D13*
X98700000Y-100000000D03*
D12*
X114675000Y-104250000D03*
X115200000Y-81987200D03*
X123200000Y-84758400D03*
X76000000Y-88915200D03*
X90400000Y-77830400D03*
D13*
X94400000Y-100750000D03*
D12*
X116800000Y-95843200D03*
X82400000Y-100000000D03*
X124800000Y-104156800D03*
X107300000Y-75700000D03*
X77600000Y-88915200D03*
X114400000Y-77830400D03*
X126399999Y-106928000D03*
X84800000Y-123555200D03*
X124000000Y-105542400D03*
X89600000Y-115241600D03*
X86399999Y-118012800D03*
D13*
X103600000Y-106400000D03*
D12*
X121600000Y-95843200D03*
X83200000Y-120783999D03*
X115200000Y-79216000D03*
X113600000Y-79216000D03*
X98400000Y-88915200D03*
X109060000Y-108480000D03*
X85600000Y-113856000D03*
X76000000Y-108313600D03*
X120800000Y-80601599D03*
X124000000Y-97228800D03*
X82400000Y-119398400D03*
X124800000Y-95843200D03*
X76800000Y-95843200D03*
X88800000Y-113856000D03*
X77600000Y-94457600D03*
X83200000Y-81987200D03*
X85600000Y-116627200D03*
X126399999Y-93072000D03*
X124000000Y-100000000D03*
X87200000Y-116627200D03*
X109600000Y-124940800D03*
X111200000Y-124940800D03*
X90400000Y-75059200D03*
X116000000Y-80601599D03*
X105675000Y-92025000D03*
X80649999Y-89400000D03*
X84000000Y-116627200D03*
X103329205Y-117339205D03*
X86399999Y-93072000D03*
X91700000Y-106000000D03*
X73600000Y-104156800D03*
X88800000Y-91686399D03*
X112800000Y-124940800D03*
X87200000Y-88915200D03*
X85600000Y-94457600D03*
X123200000Y-112470400D03*
X80000000Y-109699200D03*
X127200000Y-91686399D03*
X120000000Y-81987200D03*
X74400000Y-108313600D03*
X125600000Y-94457600D03*
X124800000Y-101385600D03*
X115200000Y-76444800D03*
X108800000Y-81987200D03*
X108800000Y-76444800D03*
X124000000Y-111084800D03*
X114400000Y-83372800D03*
X80000000Y-81987200D03*
X122400000Y-86144000D03*
X79200000Y-116627200D03*
X76000000Y-102771200D03*
X78399999Y-101385600D03*
X95220000Y-100010000D03*
X122400000Y-83372800D03*
X128000000Y-104156800D03*
X85600000Y-80601599D03*
X74400000Y-100000000D03*
X123200000Y-98614400D03*
X76000000Y-111084800D03*
X80800000Y-108313600D03*
X126399999Y-95843200D03*
X80000000Y-101385600D03*
X111200000Y-80601599D03*
X128000000Y-98614400D03*
X124000000Y-94457600D03*
X82400000Y-77830400D03*
X89600000Y-120783999D03*
X82400000Y-94457600D03*
X84000000Y-111084800D03*
X80800000Y-83372800D03*
X125600000Y-111084800D03*
X109600000Y-83372800D03*
X74400000Y-111084800D03*
X88800000Y-119398400D03*
X87975000Y-106000000D03*
X92000000Y-88915200D03*
X76800000Y-93072000D03*
X105600000Y-87529600D03*
X84800000Y-98614400D03*
X85600000Y-119398400D03*
X123200000Y-90300800D03*
X78399999Y-81987200D03*
X75200000Y-98614400D03*
X118399999Y-79216000D03*
X80000000Y-118012800D03*
X124000000Y-86144000D03*
X87200000Y-75059200D03*
X120000000Y-95843200D03*
X104800000Y-124940800D03*
X116800000Y-93072000D03*
X115200000Y-123555200D03*
X78399999Y-106928000D03*
X106400000Y-88915200D03*
X117600000Y-94457600D03*
X89600000Y-123555200D03*
X101137500Y-100525000D03*
X127200000Y-94457600D03*
X88800000Y-100000000D03*
X75200000Y-90300800D03*
X125600000Y-102771200D03*
X88000000Y-120783999D03*
X107200000Y-123555200D03*
X107300000Y-84700000D03*
X84000000Y-80601599D03*
X123200000Y-93072000D03*
X88800000Y-77830400D03*
X88000000Y-90300800D03*
X126399999Y-90300800D03*
X122770000Y-97990001D03*
X125600000Y-91686399D03*
X80800000Y-100000000D03*
X95220000Y-101510000D03*
X72000000Y-104156800D03*
X88800000Y-116627200D03*
X111200000Y-75059200D03*
X83200000Y-79216000D03*
X121300000Y-102789999D03*
X73600000Y-93072000D03*
X88000000Y-118012800D03*
X84800000Y-120783999D03*
X124000000Y-113856000D03*
X108800000Y-79216000D03*
X114400000Y-94457600D03*
X88000000Y-112470400D03*
X124000000Y-102771200D03*
X98490000Y-90520000D03*
X117600000Y-83372800D03*
X86399999Y-112470400D03*
X96000000Y-90300800D03*
X73600000Y-109699200D03*
X77600000Y-105542400D03*
X94399999Y-123555200D03*
X88000000Y-109699200D03*
X119200000Y-91686399D03*
X78399999Y-118012800D03*
X109600000Y-80601599D03*
X82400000Y-83372800D03*
X118399999Y-95843200D03*
X76800000Y-84758400D03*
X81600000Y-120783999D03*
X106862500Y-92025000D03*
X75200000Y-87529600D03*
D13*
X101000000Y-107000000D03*
D11*
%TO.N,/+1V8_RAD*%
X93916100Y-104159100D03*
X103942800Y-104727800D03*
D13*
%TO.N,/USB_DP*%
X112300000Y-104550000D03*
X97000000Y-119000000D03*
D12*
%TO.N,/USB_DN*%
X96644800Y-114778700D03*
X99220200Y-119000000D03*
X112517500Y-105250000D03*
X100941200Y-113095700D03*
D11*
%TO.N,/VBUS*%
X118885000Y-99010000D03*
X109913400Y-118361600D03*
D12*
%TO.N,/LED_R*%
X92747800Y-76700000D03*
X95373400Y-126000000D03*
%TO.N,/LED_RK*%
X97273300Y-126738500D03*
%TO.N,/VCOM_RX*%
X115371700Y-102243900D03*
X102046600Y-83328700D03*
%TO.N,/SWDIO*%
X78920500Y-111561700D03*
X87144000Y-80174800D03*
%TO.N,/NRST*%
X85026000Y-114974000D03*
X95956400Y-76700000D03*
%TO.N,/SWCLK*%
X90362500Y-79174800D03*
X82925800Y-109947900D03*
%TO.N,/SWO*%
X92262500Y-81174800D03*
X83592000Y-110424600D03*
%TO.N,/+1V8_D*%
X109215100Y-99787800D03*
D13*
X106550000Y-106300000D03*
D12*
%TO.N,/RAD_DI*%
X108210000Y-93325000D03*
D13*
%TO.N,/RAD_DO*%
X104000000Y-99250000D03*
D12*
X104594600Y-97804600D03*
D13*
%TO.N,/RAD_CS_N*%
X104000000Y-100250000D03*
D12*
X108094400Y-94153900D03*
%TO.N,/CC1*%
X96237900Y-121559200D03*
X99185200Y-113097000D03*
%TO.N,/RAD_CLK*%
X108422500Y-92546500D03*
%TO.N,/RADAR_PWR_EN*%
X103276900Y-78679600D03*
X88187500Y-94604700D03*
X93884000Y-94604700D03*
X87689700Y-98590000D03*
D13*
%TO.N,/RAD_DIO3*%
X103200000Y-99750000D03*
D12*
%TO.N,/RAD_IRQ*%
X110184700Y-102078400D03*
D13*
X104000000Y-98250000D03*
D12*
%TO.N,/VCOM_TX*%
X103053600Y-81635600D03*
X116250000Y-102236200D03*
%TO.N,/TP_FRAME*%
X88592200Y-83478100D03*
X92491400Y-72700000D03*
D13*
%TO.N,/+3V3_LF*%
X101000000Y-104950000D03*
D12*
%TO.N,/SPI_MISO*%
X103568400Y-82700000D03*
X99132700Y-95996000D03*
%TO.N,/RAD_IRQ_3V3*%
X96800000Y-95977700D03*
X103371700Y-79584200D03*
%TO.N,/LED_G*%
X99337800Y-126265600D03*
X92736900Y-75589900D03*
%TO.N,/LED_GK*%
X100510000Y-126262200D03*
%TO.N,/LED_B*%
X92740700Y-74680700D03*
X100004700Y-125404000D03*
%TO.N,/SPI_SCLK*%
X102440400Y-86928300D03*
X102343400Y-92450600D03*
%TO.N,/SPI_MOSI*%
X104028500Y-93004600D03*
X104348900Y-85937500D03*
%TO.N,/SPI_CS*%
X104047700Y-81700000D03*
X102705700Y-93750600D03*
%TO.N,/RAD_RST_3V3*%
X104047200Y-80700000D03*
X104853400Y-93678400D03*
%TO.N,/LED_BK*%
X103010000Y-125261000D03*
D13*
%TO.N,/+1V8_RF*%
X100000000Y-104400000D03*
X103000000Y-104400000D03*
%TO.N,/+1V8_A*%
X109000000Y-100700000D03*
X103750000Y-101250000D03*
%TD*%
%TA.AperFunction,Conductor*%
%TO.N,/GND*%
G36*
X104485830Y-70746080D02*
G01*
X105254190Y-70870590D01*
X105256768Y-70871055D01*
X106290562Y-71076689D01*
X106293055Y-71077231D01*
X107318912Y-71319647D01*
X107321405Y-71320284D01*
X108337879Y-71599141D01*
X108340390Y-71599878D01*
X109346274Y-71914840D01*
X109348710Y-71915650D01*
X110342734Y-72266322D01*
X110345172Y-72267232D01*
X111326025Y-72653150D01*
X111328447Y-72654154D01*
X112294903Y-73074837D01*
X112297258Y-73075913D01*
X113248063Y-73530813D01*
X113250371Y-73531967D01*
X114184390Y-74020545D01*
X114186658Y-74021783D01*
X115102618Y-74543370D01*
X115104832Y-74544683D01*
X116001601Y-75098638D01*
X116003770Y-75100032D01*
X116880186Y-75685635D01*
X116882329Y-75687123D01*
X117737255Y-76303612D01*
X117739344Y-76305175D01*
X117891517Y-76423387D01*
X118571714Y-76951781D01*
X118573771Y-76953438D01*
X119382543Y-77629349D01*
X119384539Y-77631079D01*
X120168637Y-78335396D01*
X120170571Y-78337196D01*
X120902081Y-79043047D01*
X120929056Y-79069075D01*
X120930914Y-79070933D01*
X121368948Y-79524891D01*
X121662803Y-79829428D01*
X121664603Y-79831362D01*
X122368920Y-80615460D01*
X122370650Y-80617456D01*
X123046561Y-81426228D01*
X123048218Y-81428285D01*
X123694814Y-82260642D01*
X123696394Y-82262753D01*
X124312866Y-83117656D01*
X124314372Y-83119825D01*
X124834264Y-83897898D01*
X124899950Y-83996203D01*
X124901378Y-83998425D01*
X125455298Y-84895138D01*
X125456639Y-84897398D01*
X125949901Y-85763617D01*
X125978202Y-85813316D01*
X125979465Y-85815628D01*
X126416801Y-86651690D01*
X126468018Y-86749601D01*
X126469197Y-86751959D01*
X126525189Y-86868989D01*
X126924075Y-87702717D01*
X126925173Y-87705120D01*
X127345841Y-88671543D01*
X127346852Y-88673983D01*
X127732760Y-89654808D01*
X127733683Y-89657283D01*
X128084337Y-90651254D01*
X128085171Y-90653761D01*
X128400117Y-91659597D01*
X128400861Y-91662131D01*
X128679706Y-92678561D01*
X128680360Y-92681121D01*
X128922758Y-93706900D01*
X128923319Y-93709481D01*
X129128942Y-94743220D01*
X129129411Y-94745820D01*
X129298008Y-95786247D01*
X129298384Y-95788862D01*
X129429740Y-96834656D01*
X129430022Y-96837282D01*
X129523964Y-97887065D01*
X129524153Y-97889700D01*
X129580569Y-98942213D01*
X129580663Y-98944853D01*
X129599476Y-99998679D01*
X129599476Y-100001321D01*
X129580663Y-101055146D01*
X129580569Y-101057786D01*
X129524153Y-102110299D01*
X129523964Y-102112934D01*
X129430022Y-103162717D01*
X129429740Y-103165343D01*
X129298384Y-104211137D01*
X129298008Y-104213752D01*
X129129410Y-105254179D01*
X129128941Y-105256779D01*
X128923318Y-106290518D01*
X128922757Y-106293099D01*
X128680359Y-107318878D01*
X128679705Y-107321438D01*
X128400861Y-108337868D01*
X128400117Y-108340402D01*
X128085170Y-109346238D01*
X128084336Y-109348745D01*
X127733683Y-110342716D01*
X127732760Y-110345191D01*
X127346852Y-111326016D01*
X127345841Y-111328456D01*
X126925173Y-112294878D01*
X126924075Y-112297281D01*
X126469193Y-113248045D01*
X126468011Y-113250407D01*
X125979474Y-114184353D01*
X125978208Y-114186672D01*
X125456645Y-115102589D01*
X125455297Y-115104861D01*
X124901377Y-116001574D01*
X124899949Y-116003796D01*
X124314373Y-116880173D01*
X124312866Y-116882343D01*
X123696396Y-117737242D01*
X123694813Y-117739357D01*
X123048218Y-118571713D01*
X123046561Y-118573770D01*
X122370649Y-119382543D01*
X122368919Y-119384539D01*
X121664602Y-120168637D01*
X121662802Y-120170571D01*
X120930924Y-120929056D01*
X120929056Y-120930924D01*
X120170571Y-121662802D01*
X120168637Y-121664602D01*
X119384539Y-122368919D01*
X119382543Y-122370649D01*
X118573770Y-123046561D01*
X118571713Y-123048218D01*
X117739357Y-123694813D01*
X117737242Y-123696396D01*
X116882343Y-124312866D01*
X116880173Y-124314373D01*
X116003796Y-124899949D01*
X116001574Y-124901377D01*
X115104861Y-125455297D01*
X115102589Y-125456645D01*
X114186672Y-125978208D01*
X114184353Y-125979474D01*
X113250407Y-126468011D01*
X113248045Y-126469193D01*
X112297281Y-126924075D01*
X112294878Y-126925173D01*
X111328456Y-127345841D01*
X111326016Y-127346852D01*
X110345191Y-127732760D01*
X110342716Y-127733683D01*
X109348745Y-128084336D01*
X109346238Y-128085170D01*
X108340402Y-128400117D01*
X108337868Y-128400861D01*
X107321438Y-128679705D01*
X107318878Y-128680359D01*
X106293099Y-128922757D01*
X106290518Y-128923318D01*
X105256779Y-129128941D01*
X105254179Y-129129410D01*
X104213752Y-129298008D01*
X104211137Y-129298384D01*
X103165343Y-129429740D01*
X103162717Y-129430022D01*
X102112934Y-129523964D01*
X102110299Y-129524153D01*
X101057786Y-129580569D01*
X101055146Y-129580663D01*
X100001321Y-129599476D01*
X99998679Y-129599476D01*
X98944853Y-129580663D01*
X98942213Y-129580569D01*
X97889700Y-129524153D01*
X97887065Y-129523964D01*
X96837282Y-129430022D01*
X96834656Y-129429740D01*
X95788862Y-129298384D01*
X95786247Y-129298008D01*
X94745820Y-129129411D01*
X94743220Y-129128942D01*
X93709481Y-128923319D01*
X93706900Y-128922758D01*
X92681121Y-128680360D01*
X92678561Y-128679706D01*
X91662131Y-128400861D01*
X91659597Y-128400117D01*
X90653761Y-128085171D01*
X90651254Y-128084337D01*
X89657283Y-127733683D01*
X89654808Y-127732760D01*
X88673983Y-127346852D01*
X88671543Y-127345841D01*
X87705120Y-126925173D01*
X87702717Y-126924075D01*
X87320261Y-126741094D01*
X87190869Y-126679188D01*
X96822800Y-126679188D01*
X96822800Y-126797811D01*
X96853499Y-126912382D01*
X96853501Y-126912387D01*
X96912808Y-127015109D01*
X96912809Y-127015110D01*
X96912811Y-127015113D01*
X96996687Y-127098989D01*
X97099414Y-127158299D01*
X97099415Y-127158299D01*
X97099417Y-127158300D01*
X97156702Y-127173649D01*
X97213988Y-127188999D01*
X97213989Y-127189000D01*
X97213991Y-127189000D01*
X97332611Y-127189000D01*
X97332611Y-127188999D01*
X97447186Y-127158299D01*
X97549913Y-127098989D01*
X97633789Y-127015113D01*
X97693099Y-126912386D01*
X97723799Y-126797811D01*
X97723800Y-126797811D01*
X97723800Y-126679189D01*
X97723799Y-126679188D01*
X97693100Y-126564617D01*
X97693098Y-126564612D01*
X97633791Y-126461890D01*
X97633790Y-126461889D01*
X97633789Y-126461887D01*
X97549913Y-126378011D01*
X97549910Y-126378009D01*
X97549909Y-126378008D01*
X97447187Y-126318701D01*
X97447182Y-126318699D01*
X97332611Y-126288000D01*
X97332609Y-126288000D01*
X97213991Y-126288000D01*
X97213989Y-126288000D01*
X97099417Y-126318699D01*
X97099412Y-126318701D01*
X96996690Y-126378008D01*
X96912808Y-126461890D01*
X96853501Y-126564612D01*
X96853499Y-126564617D01*
X96822800Y-126679188D01*
X87190869Y-126679188D01*
X86751964Y-126469200D01*
X86749601Y-126468018D01*
X86737880Y-126461887D01*
X86187307Y-126173887D01*
X85857585Y-126001412D01*
X85857585Y-126001411D01*
X85815635Y-125979468D01*
X85813316Y-125978202D01*
X85747443Y-125940691D01*
X85747438Y-125940688D01*
X94922900Y-125940688D01*
X94922900Y-126059311D01*
X94953599Y-126173882D01*
X94953601Y-126173887D01*
X95012908Y-126276609D01*
X95012909Y-126276610D01*
X95012911Y-126276613D01*
X95096787Y-126360489D01*
X95096789Y-126360490D01*
X95096790Y-126360491D01*
X95199512Y-126419798D01*
X95199514Y-126419799D01*
X95199515Y-126419799D01*
X95199517Y-126419800D01*
X95256802Y-126435149D01*
X95314088Y-126450499D01*
X95314089Y-126450500D01*
X95314091Y-126450500D01*
X95432711Y-126450500D01*
X95432711Y-126450499D01*
X95547286Y-126419799D01*
X95650013Y-126360489D01*
X95733889Y-126276613D01*
X95774492Y-126206288D01*
X98887300Y-126206288D01*
X98887300Y-126324911D01*
X98917999Y-126439482D01*
X98918001Y-126439487D01*
X98977308Y-126542209D01*
X98977309Y-126542210D01*
X98977311Y-126542213D01*
X99061187Y-126626089D01*
X99061189Y-126626090D01*
X99061190Y-126626091D01*
X99158023Y-126681998D01*
X99163914Y-126685399D01*
X99163915Y-126685399D01*
X99163917Y-126685400D01*
X99221202Y-126700749D01*
X99278488Y-126716099D01*
X99278489Y-126716100D01*
X99278491Y-126716100D01*
X99397111Y-126716100D01*
X99397111Y-126716099D01*
X99511686Y-126685399D01*
X99614413Y-126626089D01*
X99698289Y-126542213D01*
X99757599Y-126439486D01*
X99788299Y-126324911D01*
X99788300Y-126324911D01*
X99788300Y-126206289D01*
X99788299Y-126206288D01*
X99757600Y-126091717D01*
X99757598Y-126091712D01*
X99698291Y-125988990D01*
X99698290Y-125988989D01*
X99698289Y-125988987D01*
X99614413Y-125905111D01*
X99614410Y-125905109D01*
X99614409Y-125905108D01*
X99511687Y-125845801D01*
X99511682Y-125845799D01*
X99397111Y-125815100D01*
X99397109Y-125815100D01*
X99278491Y-125815100D01*
X99278489Y-125815100D01*
X99163917Y-125845799D01*
X99163912Y-125845801D01*
X99061190Y-125905108D01*
X98977308Y-125988990D01*
X98918001Y-126091712D01*
X98917999Y-126091717D01*
X98887300Y-126206288D01*
X95774492Y-126206288D01*
X95793199Y-126173886D01*
X95823899Y-126059311D01*
X95823900Y-126059311D01*
X95823900Y-125940689D01*
X95823899Y-125940688D01*
X95814365Y-125905108D01*
X95793199Y-125826114D01*
X95791863Y-125823800D01*
X95733891Y-125723390D01*
X95733890Y-125723389D01*
X95733889Y-125723387D01*
X95650013Y-125639511D01*
X95650010Y-125639509D01*
X95650009Y-125639508D01*
X95547287Y-125580201D01*
X95547282Y-125580199D01*
X95432711Y-125549500D01*
X95432709Y-125549500D01*
X95314091Y-125549500D01*
X95314089Y-125549500D01*
X95199517Y-125580199D01*
X95199512Y-125580201D01*
X95096790Y-125639508D01*
X95012908Y-125723390D01*
X94953601Y-125826112D01*
X94953599Y-125826117D01*
X94922900Y-125940688D01*
X85747438Y-125940688D01*
X84897398Y-125456639D01*
X84895151Y-125455305D01*
X84716079Y-125344688D01*
X99554200Y-125344688D01*
X99554200Y-125463311D01*
X99584899Y-125577882D01*
X99584901Y-125577887D01*
X99644208Y-125680609D01*
X99644209Y-125680610D01*
X99644211Y-125680613D01*
X99728087Y-125764489D01*
X99830814Y-125823799D01*
X99830815Y-125823799D01*
X99830817Y-125823800D01*
X99888102Y-125839149D01*
X99945388Y-125854499D01*
X99945389Y-125854500D01*
X99945391Y-125854500D01*
X100064009Y-125854500D01*
X100093114Y-125846701D01*
X100149265Y-125854092D01*
X100183745Y-125899024D01*
X100176354Y-125955177D01*
X100164594Y-125970503D01*
X100149511Y-125985586D01*
X100149509Y-125985589D01*
X100090201Y-126088312D01*
X100090199Y-126088317D01*
X100059500Y-126202888D01*
X100059500Y-126321511D01*
X100090199Y-126436082D01*
X100090201Y-126436087D01*
X100149508Y-126538809D01*
X100149509Y-126538810D01*
X100149511Y-126538813D01*
X100233387Y-126622689D01*
X100233389Y-126622690D01*
X100233390Y-126622691D01*
X100239279Y-126626091D01*
X100336114Y-126681999D01*
X100336115Y-126681999D01*
X100336117Y-126682000D01*
X100393402Y-126697349D01*
X100450688Y-126712699D01*
X100450689Y-126712700D01*
X100450691Y-126712700D01*
X100569311Y-126712700D01*
X100569311Y-126712699D01*
X100683886Y-126681999D01*
X100786613Y-126622689D01*
X100870489Y-126538813D01*
X100929799Y-126436086D01*
X100960499Y-126321511D01*
X100960500Y-126321511D01*
X100960500Y-126202889D01*
X100960499Y-126202888D01*
X100929800Y-126088317D01*
X100929798Y-126088312D01*
X100870491Y-125985590D01*
X100870490Y-125985589D01*
X100870489Y-125985587D01*
X100786613Y-125901711D01*
X100786610Y-125901709D01*
X100786609Y-125901708D01*
X100683887Y-125842401D01*
X100683882Y-125842399D01*
X100569311Y-125811700D01*
X100569309Y-125811700D01*
X100450691Y-125811700D01*
X100421584Y-125819499D01*
X100365432Y-125812106D01*
X100330953Y-125767172D01*
X100338346Y-125711020D01*
X100350104Y-125695697D01*
X100365189Y-125680613D01*
X100424499Y-125577886D01*
X100455199Y-125463311D01*
X100455200Y-125463311D01*
X100455200Y-125344689D01*
X100455199Y-125344688D01*
X100424500Y-125230117D01*
X100424499Y-125230116D01*
X100424499Y-125230114D01*
X100408087Y-125201688D01*
X102559500Y-125201688D01*
X102559500Y-125320311D01*
X102590199Y-125434882D01*
X102590201Y-125434887D01*
X102649508Y-125537609D01*
X102649509Y-125537610D01*
X102649511Y-125537613D01*
X102733387Y-125621489D01*
X102733389Y-125621490D01*
X102733390Y-125621491D01*
X102835790Y-125680612D01*
X102836114Y-125680799D01*
X102836115Y-125680799D01*
X102836117Y-125680800D01*
X102891699Y-125695693D01*
X102950688Y-125711499D01*
X102950689Y-125711500D01*
X102950691Y-125711500D01*
X103069311Y-125711500D01*
X103069311Y-125711499D01*
X103183886Y-125680799D01*
X103286613Y-125621489D01*
X103370489Y-125537613D01*
X103429799Y-125434886D01*
X103460499Y-125320311D01*
X103460500Y-125320311D01*
X103460500Y-125201689D01*
X103460499Y-125201688D01*
X103429800Y-125087117D01*
X103429798Y-125087112D01*
X103370491Y-124984390D01*
X103370490Y-124984389D01*
X103370489Y-124984387D01*
X103286613Y-124900511D01*
X103286610Y-124900509D01*
X103286609Y-124900508D01*
X103183887Y-124841201D01*
X103183882Y-124841199D01*
X103069311Y-124810500D01*
X103069309Y-124810500D01*
X102950691Y-124810500D01*
X102950689Y-124810500D01*
X102836117Y-124841199D01*
X102836112Y-124841201D01*
X102733390Y-124900508D01*
X102649508Y-124984390D01*
X102590201Y-125087112D01*
X102590199Y-125087117D01*
X102559500Y-125201688D01*
X100408087Y-125201688D01*
X100365189Y-125127387D01*
X100352009Y-125114207D01*
X100330336Y-125061883D01*
X100352010Y-125009557D01*
X100404336Y-124987883D01*
X100423489Y-124990405D01*
X100451017Y-124997781D01*
X100473105Y-125003699D01*
X100473106Y-125003700D01*
X100473108Y-125003700D01*
X100604894Y-125003700D01*
X100604894Y-125003699D01*
X100732186Y-124969592D01*
X100846314Y-124903700D01*
X100939500Y-124810514D01*
X101005392Y-124696386D01*
X101039499Y-124569094D01*
X101039500Y-124569094D01*
X101039500Y-124437306D01*
X101039499Y-124437305D01*
X101005393Y-124310018D01*
X101005392Y-124310014D01*
X100939500Y-124195886D01*
X100846314Y-124102700D01*
X100732190Y-124036810D01*
X100732181Y-124036806D01*
X100604894Y-124002700D01*
X100604892Y-124002700D01*
X100473108Y-124002700D01*
X100473106Y-124002700D01*
X100345818Y-124036806D01*
X100345809Y-124036810D01*
X100231685Y-124102700D01*
X100138500Y-124195885D01*
X100072610Y-124310009D01*
X100072606Y-124310018D01*
X100038500Y-124437305D01*
X100038500Y-124569094D01*
X100072606Y-124696381D01*
X100072610Y-124696390D01*
X100138500Y-124810514D01*
X100165804Y-124837818D01*
X100187478Y-124890144D01*
X100165804Y-124942470D01*
X100113478Y-124964144D01*
X100094326Y-124961623D01*
X100064009Y-124953500D01*
X99945391Y-124953500D01*
X99945389Y-124953500D01*
X99830817Y-124984199D01*
X99830812Y-124984201D01*
X99728090Y-125043508D01*
X99644208Y-125127390D01*
X99584901Y-125230112D01*
X99584899Y-125230117D01*
X99554200Y-125344688D01*
X84716079Y-125344688D01*
X83998413Y-124901370D01*
X83996203Y-124899950D01*
X83981527Y-124890144D01*
X83119825Y-124314372D01*
X83117656Y-124312866D01*
X82262753Y-123696394D01*
X82260642Y-123694814D01*
X81428285Y-123048218D01*
X81426228Y-123046561D01*
X80617456Y-122370650D01*
X80615460Y-122368920D01*
X79831362Y-121664603D01*
X79829428Y-121662803D01*
X79710755Y-121548293D01*
X79660590Y-121499888D01*
X95787400Y-121499888D01*
X95787400Y-121618511D01*
X95818099Y-121733082D01*
X95818101Y-121733087D01*
X95877408Y-121835809D01*
X95877409Y-121835810D01*
X95877411Y-121835813D01*
X95961287Y-121919689D01*
X96064014Y-121978999D01*
X96064015Y-121978999D01*
X96064017Y-121979000D01*
X96121302Y-121994349D01*
X96178588Y-122009699D01*
X96178589Y-122009700D01*
X96178591Y-122009700D01*
X96297211Y-122009700D01*
X96297211Y-122009699D01*
X96411786Y-121978999D01*
X96514513Y-121919689D01*
X96598389Y-121835813D01*
X96657699Y-121733086D01*
X96688399Y-121618511D01*
X96688400Y-121618511D01*
X96688400Y-121499889D01*
X96688399Y-121499888D01*
X96657700Y-121385317D01*
X96657698Y-121385312D01*
X96598391Y-121282590D01*
X96598390Y-121282589D01*
X96598389Y-121282587D01*
X96514513Y-121198711D01*
X96514510Y-121198709D01*
X96514509Y-121198708D01*
X96411787Y-121139401D01*
X96411782Y-121139399D01*
X96297211Y-121108700D01*
X96297209Y-121108700D01*
X96178591Y-121108700D01*
X96178589Y-121108700D01*
X96064017Y-121139399D01*
X96064012Y-121139401D01*
X95961290Y-121198708D01*
X95877408Y-121282590D01*
X95818101Y-121385312D01*
X95818099Y-121385317D01*
X95787400Y-121499888D01*
X79660590Y-121499888D01*
X79070933Y-120930914D01*
X79069075Y-120929056D01*
X78337196Y-120170571D01*
X78335396Y-120168637D01*
X77631079Y-119384539D01*
X77629349Y-119382543D01*
X77298438Y-118986586D01*
X77262830Y-118943979D01*
X96574500Y-118943979D01*
X96574500Y-119056020D01*
X96603495Y-119164232D01*
X96603499Y-119164241D01*
X96609068Y-119173886D01*
X96659515Y-119261263D01*
X96738737Y-119340485D01*
X96835763Y-119396503D01*
X96943979Y-119425499D01*
X96943980Y-119425500D01*
X96943982Y-119425500D01*
X97056020Y-119425500D01*
X97056020Y-119425499D01*
X97164237Y-119396503D01*
X97261263Y-119340485D01*
X97340485Y-119261263D01*
X97396503Y-119164237D01*
X97425499Y-119056020D01*
X97425500Y-119056020D01*
X97425500Y-118943980D01*
X97425499Y-118943978D01*
X97424617Y-118940688D01*
X98769700Y-118940688D01*
X98769700Y-119059311D01*
X98800399Y-119173882D01*
X98800401Y-119173887D01*
X98859708Y-119276609D01*
X98859709Y-119276610D01*
X98859711Y-119276613D01*
X98943587Y-119360489D01*
X98943589Y-119360490D01*
X98943590Y-119360491D01*
X99005966Y-119396504D01*
X99046314Y-119419799D01*
X99046315Y-119419799D01*
X99046317Y-119419800D01*
X99067590Y-119425500D01*
X99160888Y-119450499D01*
X99160889Y-119450500D01*
X99160891Y-119450500D01*
X99279511Y-119450500D01*
X99279511Y-119450499D01*
X99394086Y-119419799D01*
X99496813Y-119360489D01*
X99580689Y-119276613D01*
X99639999Y-119173886D01*
X99670699Y-119059311D01*
X99670700Y-119059311D01*
X99670700Y-118940689D01*
X99670699Y-118940688D01*
X99640000Y-118826117D01*
X99639998Y-118826112D01*
X99580691Y-118723390D01*
X99580690Y-118723389D01*
X99580689Y-118723387D01*
X99496813Y-118639511D01*
X99496810Y-118639509D01*
X99496809Y-118639508D01*
X99394087Y-118580201D01*
X99394082Y-118580199D01*
X99279511Y-118549500D01*
X99279509Y-118549500D01*
X99160891Y-118549500D01*
X99160889Y-118549500D01*
X99046317Y-118580199D01*
X99046312Y-118580201D01*
X98943590Y-118639508D01*
X98859708Y-118723390D01*
X98800401Y-118826112D01*
X98800399Y-118826117D01*
X98769700Y-118940688D01*
X97424617Y-118940688D01*
X97396504Y-118835767D01*
X97396503Y-118835763D01*
X97340485Y-118738737D01*
X97261263Y-118659515D01*
X97226610Y-118639508D01*
X97164241Y-118603499D01*
X97164232Y-118603495D01*
X97056020Y-118574500D01*
X97056018Y-118574500D01*
X96943982Y-118574500D01*
X96943980Y-118574500D01*
X96835767Y-118603495D01*
X96835758Y-118603499D01*
X96738736Y-118659515D01*
X96659515Y-118738736D01*
X96603499Y-118835758D01*
X96603495Y-118835767D01*
X96574500Y-118943979D01*
X77262830Y-118943979D01*
X76953438Y-118573771D01*
X76951781Y-118571714D01*
X76768870Y-118336255D01*
X76737370Y-118295705D01*
X109412900Y-118295705D01*
X109412900Y-118427494D01*
X109447006Y-118554781D01*
X109447010Y-118554790D01*
X109495922Y-118639508D01*
X109512900Y-118668914D01*
X109606086Y-118762100D01*
X109720214Y-118827992D01*
X109847505Y-118862099D01*
X109847506Y-118862100D01*
X109847508Y-118862100D01*
X109979294Y-118862100D01*
X109979294Y-118862099D01*
X110106586Y-118827992D01*
X110220714Y-118762100D01*
X110313900Y-118668914D01*
X110379792Y-118554786D01*
X110413899Y-118427494D01*
X110413900Y-118427494D01*
X110413900Y-118295706D01*
X110413899Y-118295705D01*
X110379793Y-118168418D01*
X110379792Y-118168414D01*
X110313900Y-118054286D01*
X110220714Y-117961100D01*
X110106590Y-117895210D01*
X110106581Y-117895206D01*
X109979294Y-117861100D01*
X109979292Y-117861100D01*
X109847508Y-117861100D01*
X109847506Y-117861100D01*
X109720218Y-117895206D01*
X109720209Y-117895210D01*
X109606085Y-117961100D01*
X109512900Y-118054285D01*
X109447010Y-118168409D01*
X109447006Y-118168418D01*
X109412900Y-118295705D01*
X76737370Y-118295705D01*
X76549829Y-118054285D01*
X76305175Y-117739344D01*
X76303602Y-117737242D01*
X75687133Y-116882343D01*
X75685626Y-116880173D01*
X75100032Y-116003770D01*
X75098638Y-116001601D01*
X75054506Y-115930158D01*
X95719500Y-115930158D01*
X95719500Y-116069842D01*
X95755652Y-116204765D01*
X95825494Y-116325735D01*
X95924265Y-116424506D01*
X96045235Y-116494348D01*
X96180158Y-116530500D01*
X96180160Y-116530500D01*
X96319840Y-116530500D01*
X96319842Y-116530500D01*
X96454765Y-116494348D01*
X96575735Y-116424506D01*
X96674506Y-116325735D01*
X96744348Y-116204765D01*
X96780500Y-116069842D01*
X96780500Y-115931992D01*
X102849500Y-115931992D01*
X102849500Y-116068008D01*
X102849865Y-116069842D01*
X102876034Y-116201405D01*
X102876037Y-116201415D01*
X102928084Y-116327069D01*
X102928086Y-116327072D01*
X102928087Y-116327074D01*
X103003654Y-116440168D01*
X103099832Y-116536346D01*
X103212926Y-116611913D01*
X103212931Y-116611915D01*
X103212930Y-116611915D01*
X103338584Y-116663962D01*
X103338589Y-116663964D01*
X103471992Y-116690500D01*
X103471994Y-116690500D01*
X104028006Y-116690500D01*
X104028008Y-116690500D01*
X104161411Y-116663964D01*
X104287074Y-116611913D01*
X104400168Y-116536346D01*
X104496346Y-116440168D01*
X104571913Y-116327074D01*
X104623964Y-116201411D01*
X104650500Y-116068008D01*
X104650500Y-115931992D01*
X104623964Y-115798589D01*
X104622575Y-115795235D01*
X104571915Y-115672930D01*
X104571914Y-115672928D01*
X104571913Y-115672926D01*
X104496346Y-115559832D01*
X104400168Y-115463654D01*
X104287074Y-115388087D01*
X104287070Y-115388085D01*
X104287068Y-115388084D01*
X104287069Y-115388084D01*
X104161415Y-115336037D01*
X104161405Y-115336034D01*
X104072072Y-115318265D01*
X104028008Y-115309500D01*
X103471992Y-115309500D01*
X103434174Y-115317022D01*
X103338594Y-115336034D01*
X103338584Y-115336037D01*
X103212930Y-115388084D01*
X103099832Y-115463653D01*
X103099831Y-115463655D01*
X103003655Y-115559831D01*
X103003653Y-115559832D01*
X102928084Y-115672930D01*
X102876037Y-115798584D01*
X102876034Y-115798594D01*
X102853882Y-115909959D01*
X102849500Y-115931992D01*
X96780500Y-115931992D01*
X96780500Y-115930158D01*
X96744348Y-115795235D01*
X96674506Y-115674265D01*
X96575735Y-115575494D01*
X96548606Y-115559831D01*
X96454769Y-115505654D01*
X96454767Y-115505653D01*
X96454766Y-115505652D01*
X96454765Y-115505652D01*
X96319842Y-115469500D01*
X96180158Y-115469500D01*
X96045235Y-115505652D01*
X96045234Y-115505652D01*
X96045232Y-115505653D01*
X96045230Y-115505654D01*
X95924264Y-115575494D01*
X95825494Y-115674264D01*
X95755654Y-115795230D01*
X95755653Y-115795232D01*
X95755652Y-115795234D01*
X95755652Y-115795235D01*
X95719500Y-115930158D01*
X75054506Y-115930158D01*
X74544683Y-115104832D01*
X74543370Y-115102618D01*
X74436355Y-114914688D01*
X84575500Y-114914688D01*
X84575500Y-115033311D01*
X84606199Y-115147882D01*
X84606201Y-115147887D01*
X84665508Y-115250609D01*
X84665509Y-115250610D01*
X84665511Y-115250613D01*
X84749387Y-115334489D01*
X84749389Y-115334490D01*
X84749390Y-115334491D01*
X84852112Y-115393798D01*
X84852114Y-115393799D01*
X84852115Y-115393799D01*
X84852117Y-115393800D01*
X84909402Y-115409149D01*
X84966688Y-115424499D01*
X84966689Y-115424500D01*
X84966691Y-115424500D01*
X85085311Y-115424500D01*
X85085311Y-115424499D01*
X85199886Y-115393799D01*
X85302613Y-115334489D01*
X85386489Y-115250613D01*
X85445799Y-115147886D01*
X85476499Y-115033311D01*
X85476500Y-115033311D01*
X85476500Y-114914689D01*
X85476499Y-114914688D01*
X85445800Y-114800117D01*
X85445798Y-114800112D01*
X85417755Y-114751541D01*
X85399192Y-114719388D01*
X96194300Y-114719388D01*
X96194300Y-114838011D01*
X96224999Y-114952582D01*
X96225001Y-114952587D01*
X96284308Y-115055309D01*
X96284309Y-115055310D01*
X96284311Y-115055313D01*
X96368187Y-115139189D01*
X96368189Y-115139190D01*
X96368190Y-115139191D01*
X96383252Y-115147887D01*
X96470914Y-115198499D01*
X96470915Y-115198499D01*
X96470917Y-115198500D01*
X96528202Y-115213849D01*
X96585488Y-115229199D01*
X96585489Y-115229200D01*
X96585491Y-115229200D01*
X96704111Y-115229200D01*
X96704111Y-115229199D01*
X96818686Y-115198499D01*
X96921413Y-115139189D01*
X97005289Y-115055313D01*
X97064599Y-114952586D01*
X97095299Y-114838011D01*
X97095300Y-114838011D01*
X97095300Y-114719389D01*
X97095299Y-114719388D01*
X97086101Y-114685062D01*
X97079949Y-114662102D01*
X97064600Y-114604817D01*
X97064598Y-114604812D01*
X97005291Y-114502090D01*
X97005290Y-114502089D01*
X97005289Y-114502087D01*
X96921413Y-114418211D01*
X96921410Y-114418209D01*
X96921409Y-114418208D01*
X96818687Y-114358901D01*
X96818682Y-114358899D01*
X96704111Y-114328200D01*
X96704109Y-114328200D01*
X96585491Y-114328200D01*
X96585489Y-114328200D01*
X96470917Y-114358899D01*
X96470912Y-114358901D01*
X96368190Y-114418208D01*
X96284308Y-114502090D01*
X96225001Y-114604812D01*
X96224999Y-114604817D01*
X96194300Y-114719388D01*
X85399192Y-114719388D01*
X85386491Y-114697390D01*
X85386490Y-114697389D01*
X85386489Y-114697387D01*
X85302613Y-114613511D01*
X85302610Y-114613509D01*
X85302609Y-114613508D01*
X85199887Y-114554201D01*
X85199882Y-114554199D01*
X85085311Y-114523500D01*
X85085309Y-114523500D01*
X84966691Y-114523500D01*
X84966689Y-114523500D01*
X84852117Y-114554199D01*
X84852112Y-114554201D01*
X84749390Y-114613508D01*
X84665508Y-114697390D01*
X84606201Y-114800112D01*
X84606199Y-114800117D01*
X84575500Y-114914688D01*
X74436355Y-114914688D01*
X74021783Y-114186658D01*
X74020545Y-114184390D01*
X73896614Y-113947470D01*
X81844200Y-113947470D01*
X81844200Y-114084529D01*
X81870937Y-114218950D01*
X81870940Y-114218961D01*
X81923387Y-114345580D01*
X81923389Y-114345583D01*
X81923390Y-114345585D01*
X81999537Y-114459547D01*
X82096453Y-114556463D01*
X82210415Y-114632610D01*
X82210420Y-114632612D01*
X82210419Y-114632612D01*
X82337038Y-114685059D01*
X82337043Y-114685061D01*
X82471470Y-114711800D01*
X82471471Y-114711800D01*
X82608529Y-114711800D01*
X82608530Y-114711800D01*
X82742957Y-114685061D01*
X82869585Y-114632610D01*
X82983547Y-114556463D01*
X83080463Y-114459547D01*
X83156610Y-114345585D01*
X83209061Y-114218957D01*
X83235800Y-114084530D01*
X83235800Y-113947470D01*
X83209061Y-113813043D01*
X83209059Y-113813038D01*
X83156612Y-113686419D01*
X83156611Y-113686417D01*
X83156610Y-113686415D01*
X83080463Y-113572453D01*
X82983547Y-113475537D01*
X82869585Y-113399390D01*
X82869581Y-113399388D01*
X82869579Y-113399387D01*
X82869580Y-113399387D01*
X82742961Y-113346940D01*
X82742950Y-113346937D01*
X82641680Y-113326793D01*
X82608530Y-113320200D01*
X82471470Y-113320200D01*
X82444877Y-113325489D01*
X82337049Y-113346937D01*
X82337038Y-113346940D01*
X82210419Y-113399387D01*
X82096453Y-113475536D01*
X82096452Y-113475538D01*
X81999538Y-113572452D01*
X81999536Y-113572453D01*
X81923387Y-113686419D01*
X81870940Y-113813038D01*
X81870937Y-113813049D01*
X81844200Y-113947470D01*
X73896614Y-113947470D01*
X73531967Y-113250371D01*
X73530804Y-113248045D01*
X73379343Y-112931470D01*
X76764200Y-112931470D01*
X76764200Y-113068529D01*
X76790937Y-113202950D01*
X76790940Y-113202961D01*
X76843387Y-113329580D01*
X76843389Y-113329583D01*
X76843390Y-113329585D01*
X76919537Y-113443547D01*
X77016453Y-113540463D01*
X77130415Y-113616610D01*
X77130420Y-113616612D01*
X77130419Y-113616612D01*
X77257038Y-113669059D01*
X77257043Y-113669061D01*
X77391470Y-113695800D01*
X77391471Y-113695800D01*
X77528529Y-113695800D01*
X77528530Y-113695800D01*
X77662957Y-113669061D01*
X77789585Y-113616610D01*
X77903547Y-113540463D01*
X78000463Y-113443547D01*
X78076610Y-113329585D01*
X78129061Y-113202957D01*
X78155800Y-113068530D01*
X78155800Y-113037688D01*
X98734700Y-113037688D01*
X98734700Y-113156311D01*
X98765399Y-113270882D01*
X98765401Y-113270887D01*
X98824708Y-113373609D01*
X98824709Y-113373610D01*
X98824711Y-113373613D01*
X98908587Y-113457489D01*
X98908589Y-113457490D01*
X98908590Y-113457491D01*
X99009062Y-113515499D01*
X99011314Y-113516799D01*
X99011315Y-113516799D01*
X99011317Y-113516800D01*
X99068602Y-113532149D01*
X99125888Y-113547499D01*
X99125889Y-113547500D01*
X99125891Y-113547500D01*
X99244511Y-113547500D01*
X99244511Y-113547499D01*
X99359086Y-113516799D01*
X99461813Y-113457489D01*
X99545689Y-113373613D01*
X99604999Y-113270886D01*
X99635699Y-113156311D01*
X99635700Y-113156311D01*
X99635700Y-113037689D01*
X99635699Y-113037687D01*
X99635351Y-113036388D01*
X100490700Y-113036388D01*
X100490700Y-113155011D01*
X100521399Y-113269582D01*
X100521401Y-113269587D01*
X100580708Y-113372309D01*
X100580709Y-113372310D01*
X100580711Y-113372313D01*
X100664587Y-113456189D01*
X100664589Y-113456190D01*
X100664590Y-113456191D01*
X100698098Y-113475537D01*
X100767314Y-113515499D01*
X100767315Y-113515499D01*
X100767317Y-113515500D01*
X100772169Y-113516800D01*
X100881888Y-113546199D01*
X100881889Y-113546200D01*
X100881891Y-113546200D01*
X101000511Y-113546200D01*
X101000511Y-113546199D01*
X101115086Y-113515499D01*
X101217813Y-113456189D01*
X101301689Y-113372313D01*
X101360999Y-113269586D01*
X101391699Y-113155011D01*
X101391700Y-113155011D01*
X101391700Y-113036389D01*
X101391699Y-113036388D01*
X101361000Y-112921817D01*
X101360998Y-112921812D01*
X101301691Y-112819090D01*
X101301690Y-112819089D01*
X101301689Y-112819087D01*
X101217813Y-112735211D01*
X101217810Y-112735209D01*
X101217809Y-112735208D01*
X101115087Y-112675901D01*
X101115082Y-112675899D01*
X101000511Y-112645200D01*
X101000509Y-112645200D01*
X100881891Y-112645200D01*
X100881889Y-112645200D01*
X100767317Y-112675899D01*
X100767312Y-112675901D01*
X100664590Y-112735208D01*
X100580708Y-112819090D01*
X100521401Y-112921812D01*
X100521399Y-112921817D01*
X100490700Y-113036388D01*
X99635351Y-113036388D01*
X99605000Y-112923117D01*
X99604998Y-112923112D01*
X99545691Y-112820390D01*
X99545690Y-112820389D01*
X99545689Y-112820387D01*
X99461813Y-112736511D01*
X99461810Y-112736509D01*
X99461809Y-112736508D01*
X99359087Y-112677201D01*
X99359082Y-112677199D01*
X99244511Y-112646500D01*
X99244509Y-112646500D01*
X99125891Y-112646500D01*
X99125889Y-112646500D01*
X99011317Y-112677199D01*
X99011312Y-112677201D01*
X98908590Y-112736508D01*
X98824708Y-112820390D01*
X98765401Y-112923112D01*
X98765399Y-112923117D01*
X98734700Y-113037688D01*
X78155800Y-113037688D01*
X78155800Y-112931470D01*
X78129061Y-112797043D01*
X78103987Y-112736508D01*
X78076612Y-112670419D01*
X78076611Y-112670417D01*
X78076610Y-112670415D01*
X78000463Y-112556453D01*
X77903547Y-112459537D01*
X77789585Y-112383390D01*
X77789581Y-112383388D01*
X77789579Y-112383387D01*
X77789580Y-112383387D01*
X77662961Y-112330940D01*
X77662950Y-112330937D01*
X77561680Y-112310793D01*
X77528530Y-112304200D01*
X77391470Y-112304200D01*
X77364877Y-112309489D01*
X77257049Y-112330937D01*
X77257038Y-112330940D01*
X77130419Y-112383387D01*
X77016453Y-112459536D01*
X77016452Y-112459538D01*
X76919538Y-112556452D01*
X76919536Y-112556453D01*
X76843387Y-112670419D01*
X76790940Y-112797038D01*
X76790937Y-112797049D01*
X76764200Y-112931470D01*
X73379343Y-112931470D01*
X73075913Y-112297258D01*
X73074837Y-112294903D01*
X72729868Y-111502389D01*
X72729868Y-111502388D01*
X78470000Y-111502388D01*
X78470000Y-111621011D01*
X78500699Y-111735582D01*
X78500701Y-111735587D01*
X78560008Y-111838309D01*
X78560009Y-111838310D01*
X78560011Y-111838313D01*
X78643887Y-111922189D01*
X78746614Y-111981499D01*
X78746615Y-111981499D01*
X78746617Y-111981500D01*
X78803902Y-111996849D01*
X78861188Y-112012199D01*
X78861189Y-112012200D01*
X78861191Y-112012200D01*
X78979811Y-112012200D01*
X78979811Y-112012199D01*
X79094386Y-111981499D01*
X79197113Y-111922189D01*
X79203832Y-111915470D01*
X81844200Y-111915470D01*
X81844200Y-112052529D01*
X81870937Y-112186950D01*
X81870940Y-112186961D01*
X81923387Y-112313580D01*
X81923389Y-112313583D01*
X81923390Y-112313585D01*
X81999537Y-112427547D01*
X82096453Y-112524463D01*
X82210415Y-112600610D01*
X82210420Y-112600612D01*
X82210419Y-112600612D01*
X82318065Y-112645200D01*
X82337043Y-112653061D01*
X82471470Y-112679800D01*
X82471471Y-112679800D01*
X82608529Y-112679800D01*
X82608530Y-112679800D01*
X82742957Y-112653061D01*
X82869585Y-112600610D01*
X82983547Y-112524463D01*
X83080463Y-112427547D01*
X83156610Y-112313585D01*
X83209061Y-112186957D01*
X83235800Y-112052530D01*
X83235800Y-111915470D01*
X83209061Y-111781043D01*
X83190232Y-111735586D01*
X83156612Y-111654419D01*
X83156611Y-111654417D01*
X83156610Y-111654415D01*
X83080463Y-111540453D01*
X82983547Y-111443537D01*
X82869585Y-111367390D01*
X82869581Y-111367388D01*
X82869579Y-111367387D01*
X82869580Y-111367387D01*
X82742961Y-111314940D01*
X82742950Y-111314937D01*
X82641680Y-111294793D01*
X82608530Y-111288200D01*
X82471470Y-111288200D01*
X82444877Y-111293489D01*
X82337049Y-111314937D01*
X82337038Y-111314940D01*
X82210419Y-111367387D01*
X82096453Y-111443536D01*
X82096452Y-111443538D01*
X81999538Y-111540452D01*
X81999536Y-111540453D01*
X81923387Y-111654419D01*
X81870940Y-111781038D01*
X81870937Y-111781049D01*
X81844200Y-111915470D01*
X79203832Y-111915470D01*
X79280989Y-111838313D01*
X79340299Y-111735586D01*
X79370999Y-111621011D01*
X79371000Y-111621011D01*
X79371000Y-111502389D01*
X79370999Y-111502388D01*
X79340300Y-111387817D01*
X79340298Y-111387812D01*
X79280991Y-111285090D01*
X79280990Y-111285089D01*
X79280989Y-111285087D01*
X79197113Y-111201211D01*
X79197110Y-111201209D01*
X79197109Y-111201208D01*
X79094387Y-111141901D01*
X79094382Y-111141899D01*
X78979811Y-111111200D01*
X78979809Y-111111200D01*
X78861191Y-111111200D01*
X78861189Y-111111200D01*
X78746617Y-111141899D01*
X78746612Y-111141901D01*
X78643890Y-111201208D01*
X78560008Y-111285090D01*
X78500701Y-111387812D01*
X78500699Y-111387817D01*
X78470000Y-111502388D01*
X72729868Y-111502388D01*
X72679995Y-111387812D01*
X72654154Y-111328447D01*
X72653147Y-111326016D01*
X72637045Y-111285090D01*
X72267232Y-110345172D01*
X72266316Y-110342716D01*
X72106108Y-109888588D01*
X82475300Y-109888588D01*
X82475300Y-110007211D01*
X82505999Y-110121782D01*
X82506001Y-110121787D01*
X82565308Y-110224509D01*
X82565309Y-110224510D01*
X82565311Y-110224513D01*
X82649187Y-110308389D01*
X82649189Y-110308390D01*
X82649190Y-110308391D01*
X82710806Y-110343965D01*
X82751914Y-110367699D01*
X82751915Y-110367699D01*
X82751917Y-110367700D01*
X82803252Y-110381455D01*
X82866488Y-110398399D01*
X82866489Y-110398400D01*
X82866491Y-110398400D01*
X82985110Y-110398400D01*
X83004754Y-110393136D01*
X83048347Y-110381455D01*
X83104499Y-110388847D01*
X83138978Y-110433779D01*
X83141500Y-110452933D01*
X83141500Y-110483911D01*
X83172199Y-110598482D01*
X83172201Y-110598487D01*
X83231508Y-110701209D01*
X83231509Y-110701210D01*
X83231511Y-110701213D01*
X83315387Y-110785089D01*
X83418114Y-110844399D01*
X83418115Y-110844399D01*
X83418117Y-110844400D01*
X83475402Y-110859749D01*
X83532688Y-110875099D01*
X83532689Y-110875100D01*
X83532691Y-110875100D01*
X83651311Y-110875100D01*
X83651311Y-110875099D01*
X83765886Y-110844399D01*
X83868613Y-110785089D01*
X83952489Y-110701213D01*
X84011799Y-110598486D01*
X84042499Y-110483911D01*
X84042500Y-110483911D01*
X84042500Y-110365289D01*
X84042499Y-110365288D01*
X84011800Y-110250717D01*
X84011798Y-110250712D01*
X83952491Y-110147990D01*
X83952490Y-110147989D01*
X83952489Y-110147987D01*
X83868613Y-110064111D01*
X83868610Y-110064109D01*
X83868609Y-110064108D01*
X83765887Y-110004801D01*
X83765882Y-110004799D01*
X83651311Y-109974100D01*
X83651309Y-109974100D01*
X83532691Y-109974100D01*
X83532689Y-109974100D01*
X83469453Y-109991044D01*
X83413300Y-109983652D01*
X83378822Y-109938719D01*
X83376300Y-109919566D01*
X83376300Y-109888589D01*
X83376299Y-109888588D01*
X83345600Y-109774017D01*
X83345598Y-109774012D01*
X83286291Y-109671290D01*
X83286290Y-109671289D01*
X83286289Y-109671287D01*
X83202413Y-109587411D01*
X83202410Y-109587409D01*
X83202409Y-109587408D01*
X83099687Y-109528101D01*
X83099682Y-109528099D01*
X82985111Y-109497400D01*
X82985109Y-109497400D01*
X82866491Y-109497400D01*
X82866489Y-109497400D01*
X82751917Y-109528099D01*
X82751912Y-109528101D01*
X82649190Y-109587408D01*
X82565308Y-109671290D01*
X82506001Y-109774012D01*
X82505999Y-109774017D01*
X82475300Y-109888588D01*
X72106108Y-109888588D01*
X71915650Y-109348710D01*
X71914840Y-109346274D01*
X71599878Y-108340390D01*
X71599138Y-108337868D01*
X71320284Y-107321405D01*
X71319647Y-107318912D01*
X71077231Y-106293055D01*
X71076689Y-106290562D01*
X71067423Y-106243979D01*
X106124500Y-106243979D01*
X106124500Y-106356020D01*
X106153495Y-106464232D01*
X106153496Y-106464235D01*
X106153497Y-106464237D01*
X106209515Y-106561263D01*
X106288737Y-106640485D01*
X106385763Y-106696503D01*
X106493979Y-106725499D01*
X106493980Y-106725500D01*
X106493982Y-106725500D01*
X106606020Y-106725500D01*
X106606020Y-106725499D01*
X106714237Y-106696503D01*
X106811263Y-106640485D01*
X106890485Y-106561263D01*
X106946503Y-106464237D01*
X106975499Y-106356020D01*
X106975500Y-106356020D01*
X106975500Y-106243980D01*
X106975499Y-106243979D01*
X106946504Y-106135767D01*
X106946503Y-106135763D01*
X106890485Y-106038737D01*
X106811263Y-105959515D01*
X106714241Y-105903499D01*
X106714232Y-105903495D01*
X106606020Y-105874500D01*
X106606018Y-105874500D01*
X106493982Y-105874500D01*
X106493980Y-105874500D01*
X106385767Y-105903495D01*
X106385758Y-105903499D01*
X106288736Y-105959515D01*
X106209515Y-106038736D01*
X106153499Y-106135758D01*
X106153495Y-106135767D01*
X106124500Y-106243979D01*
X71067423Y-106243979D01*
X70871055Y-105256768D01*
X70870588Y-105254179D01*
X70812219Y-104893979D01*
X100574500Y-104893979D01*
X100574500Y-105006020D01*
X100603495Y-105114232D01*
X100603499Y-105114241D01*
X100611616Y-105128300D01*
X100659515Y-105211263D01*
X100738737Y-105290485D01*
X100835763Y-105346503D01*
X100943979Y-105375499D01*
X100943980Y-105375500D01*
X100943982Y-105375500D01*
X101056020Y-105375500D01*
X101056020Y-105375499D01*
X101164237Y-105346503D01*
X101261263Y-105290485D01*
X101340485Y-105211263D01*
X101396503Y-105114237D01*
X101425499Y-105006020D01*
X101425500Y-105006020D01*
X101425500Y-104893980D01*
X101425499Y-104893979D01*
X101417365Y-104863624D01*
X101396503Y-104785763D01*
X101340485Y-104688737D01*
X101261263Y-104609515D01*
X101164241Y-104553499D01*
X101164232Y-104553495D01*
X101056020Y-104524500D01*
X101056018Y-104524500D01*
X100943982Y-104524500D01*
X100943980Y-104524500D01*
X100835767Y-104553495D01*
X100835758Y-104553499D01*
X100738736Y-104609515D01*
X100659515Y-104688736D01*
X100603499Y-104785758D01*
X100603495Y-104785767D01*
X100574500Y-104893979D01*
X70812219Y-104893979D01*
X70701988Y-104213735D01*
X70701615Y-104211137D01*
X70701411Y-104209515D01*
X70686802Y-104093205D01*
X93415600Y-104093205D01*
X93415600Y-104224994D01*
X93449706Y-104352281D01*
X93449710Y-104352290D01*
X93489083Y-104420485D01*
X93515600Y-104466414D01*
X93608786Y-104559600D01*
X93722914Y-104625492D01*
X93850205Y-104659599D01*
X93850206Y-104659600D01*
X93850208Y-104659600D01*
X93981994Y-104659600D01*
X93981994Y-104659599D01*
X94109286Y-104625492D01*
X94223414Y-104559600D01*
X94316600Y-104466414D01*
X94382492Y-104352286D01*
X94384718Y-104343979D01*
X99574500Y-104343979D01*
X99574500Y-104456020D01*
X99603495Y-104564232D01*
X99603499Y-104564241D01*
X99638863Y-104625493D01*
X99659515Y-104661263D01*
X99738737Y-104740485D01*
X99835763Y-104796503D01*
X99943979Y-104825499D01*
X99943980Y-104825500D01*
X99943982Y-104825500D01*
X100056020Y-104825500D01*
X100056020Y-104825499D01*
X100069139Y-104821984D01*
X100085302Y-104817654D01*
X100134812Y-104804387D01*
X100164237Y-104796503D01*
X100261263Y-104740485D01*
X100340485Y-104661263D01*
X100396503Y-104564237D01*
X100425499Y-104456020D01*
X100425500Y-104456020D01*
X100425500Y-104343980D01*
X100425499Y-104343979D01*
X102574500Y-104343979D01*
X102574500Y-104456020D01*
X102603495Y-104564232D01*
X102603499Y-104564241D01*
X102638863Y-104625493D01*
X102659515Y-104661263D01*
X102738737Y-104740485D01*
X102835763Y-104796503D01*
X102943979Y-104825499D01*
X102943980Y-104825500D01*
X102943982Y-104825500D01*
X103056020Y-104825500D01*
X103056020Y-104825499D01*
X103164237Y-104796503D01*
X103261263Y-104740485D01*
X103315974Y-104685774D01*
X103368300Y-104664100D01*
X103420626Y-104685774D01*
X103442300Y-104738100D01*
X103442300Y-104793694D01*
X103476406Y-104920981D01*
X103476410Y-104920990D01*
X103537332Y-105026510D01*
X103542300Y-105035114D01*
X103635486Y-105128300D01*
X103749614Y-105194192D01*
X103876905Y-105228299D01*
X103876906Y-105228300D01*
X103876908Y-105228300D01*
X104008694Y-105228300D01*
X104008694Y-105228299D01*
X104135986Y-105194192D01*
X104250114Y-105128300D01*
X104343300Y-105035114D01*
X104409192Y-104920986D01*
X104443299Y-104793694D01*
X104443300Y-104793694D01*
X104443300Y-104661906D01*
X104443299Y-104661905D01*
X104442681Y-104659600D01*
X104409192Y-104534614D01*
X104385731Y-104493979D01*
X111874500Y-104493979D01*
X111874500Y-104606020D01*
X111903495Y-104714232D01*
X111903499Y-104714241D01*
X111950409Y-104795491D01*
X111959515Y-104811263D01*
X112038737Y-104890485D01*
X112099254Y-104925424D01*
X112133732Y-104970357D01*
X112126340Y-105026510D01*
X112097701Y-105076112D01*
X112097699Y-105076117D01*
X112067000Y-105190688D01*
X112067000Y-105309311D01*
X112097699Y-105423882D01*
X112097701Y-105423887D01*
X112157008Y-105526609D01*
X112157009Y-105526610D01*
X112157011Y-105526613D01*
X112240887Y-105610489D01*
X112343614Y-105669799D01*
X112343615Y-105669799D01*
X112343617Y-105669800D01*
X112400902Y-105685149D01*
X112458188Y-105700499D01*
X112458189Y-105700500D01*
X112458191Y-105700500D01*
X112576811Y-105700500D01*
X112576811Y-105700499D01*
X112691386Y-105669799D01*
X112794113Y-105610489D01*
X112877989Y-105526613D01*
X112937299Y-105423886D01*
X112967999Y-105309311D01*
X112968000Y-105309311D01*
X112968000Y-105190689D01*
X112967999Y-105190688D01*
X112937300Y-105076117D01*
X112937298Y-105076112D01*
X112877991Y-104973390D01*
X112877990Y-104973389D01*
X112877989Y-104973387D01*
X112794113Y-104889511D01*
X112794110Y-104889509D01*
X112794109Y-104889508D01*
X112709095Y-104840425D01*
X112674616Y-104795491D01*
X112682008Y-104739342D01*
X112688520Y-104728062D01*
X112696499Y-104714245D01*
X112696500Y-104714241D01*
X112696503Y-104714237D01*
X112725499Y-104606020D01*
X112725500Y-104606020D01*
X112725500Y-104493980D01*
X112725499Y-104493979D01*
X112715327Y-104456018D01*
X112696503Y-104385763D01*
X112640485Y-104288737D01*
X112561263Y-104209515D01*
X112464241Y-104153499D01*
X112464232Y-104153495D01*
X112356020Y-104124500D01*
X112356018Y-104124500D01*
X112243982Y-104124500D01*
X112243980Y-104124500D01*
X112135767Y-104153495D01*
X112135758Y-104153499D01*
X112038736Y-104209515D01*
X111959515Y-104288736D01*
X111903499Y-104385758D01*
X111903495Y-104385767D01*
X111874500Y-104493979D01*
X104385731Y-104493979D01*
X104343300Y-104420486D01*
X104250114Y-104327300D01*
X104183321Y-104288737D01*
X104135990Y-104261410D01*
X104135981Y-104261406D01*
X104008694Y-104227300D01*
X104008692Y-104227300D01*
X103876908Y-104227300D01*
X103876906Y-104227300D01*
X103749618Y-104261406D01*
X103749609Y-104261410D01*
X103635485Y-104327300D01*
X103551826Y-104410960D01*
X103499500Y-104432634D01*
X103447174Y-104410960D01*
X103425500Y-104358634D01*
X103425500Y-104343980D01*
X103425499Y-104343979D01*
X103403374Y-104261408D01*
X103396503Y-104235763D01*
X103340485Y-104138737D01*
X103261263Y-104059515D01*
X103164241Y-104003499D01*
X103164232Y-104003495D01*
X103056020Y-103974500D01*
X103056018Y-103974500D01*
X102943982Y-103974500D01*
X102943980Y-103974500D01*
X102835767Y-104003495D01*
X102835758Y-104003499D01*
X102738736Y-104059515D01*
X102659515Y-104138736D01*
X102603499Y-104235758D01*
X102603495Y-104235767D01*
X102574500Y-104343979D01*
X100425499Y-104343979D01*
X100403374Y-104261408D01*
X100396503Y-104235763D01*
X100340485Y-104138737D01*
X100261263Y-104059515D01*
X100164241Y-104003499D01*
X100164232Y-104003495D01*
X100056020Y-103974500D01*
X100056018Y-103974500D01*
X99943982Y-103974500D01*
X99943980Y-103974500D01*
X99835767Y-104003495D01*
X99835758Y-104003499D01*
X99738736Y-104059515D01*
X99659515Y-104138736D01*
X99603499Y-104235758D01*
X99603495Y-104235767D01*
X99574500Y-104343979D01*
X94384718Y-104343979D01*
X94416600Y-104224992D01*
X94416600Y-104093208D01*
X94416600Y-104093206D01*
X94416599Y-104093205D01*
X94382493Y-103965918D01*
X94382492Y-103965914D01*
X94316600Y-103851786D01*
X94223414Y-103758600D01*
X94109290Y-103692710D01*
X94109281Y-103692706D01*
X93981994Y-103658600D01*
X93981992Y-103658600D01*
X93850208Y-103658600D01*
X93850206Y-103658600D01*
X93722918Y-103692706D01*
X93722909Y-103692710D01*
X93608785Y-103758600D01*
X93515600Y-103851785D01*
X93449710Y-103965909D01*
X93449706Y-103965918D01*
X93415600Y-104093205D01*
X70686802Y-104093205D01*
X70570256Y-103165320D01*
X70569977Y-103162717D01*
X70525321Y-102663700D01*
X70476034Y-102112932D01*
X70475846Y-102110298D01*
X70470958Y-102019088D01*
X109734200Y-102019088D01*
X109734200Y-102137711D01*
X109764899Y-102252282D01*
X109764901Y-102252287D01*
X109824208Y-102355009D01*
X109824209Y-102355010D01*
X109824211Y-102355013D01*
X109908087Y-102438889D01*
X109908089Y-102438890D01*
X109908090Y-102438891D01*
X110010812Y-102498198D01*
X110010814Y-102498199D01*
X110010815Y-102498199D01*
X110010817Y-102498200D01*
X110065331Y-102512807D01*
X110125388Y-102528899D01*
X110125389Y-102528900D01*
X110125391Y-102528900D01*
X110244011Y-102528900D01*
X110244011Y-102528899D01*
X110358586Y-102498199D01*
X110461313Y-102438889D01*
X110545189Y-102355013D01*
X110604499Y-102252286D01*
X110622639Y-102184588D01*
X114921200Y-102184588D01*
X114921200Y-102303211D01*
X114951899Y-102417782D01*
X114951901Y-102417787D01*
X115011208Y-102520509D01*
X115011209Y-102520510D01*
X115011211Y-102520513D01*
X115095087Y-102604389D01*
X115095089Y-102604390D01*
X115095090Y-102604391D01*
X115184477Y-102655999D01*
X115197814Y-102663699D01*
X115197815Y-102663699D01*
X115197817Y-102663700D01*
X115255102Y-102679049D01*
X115312388Y-102694399D01*
X115312389Y-102694400D01*
X115312391Y-102694400D01*
X115431011Y-102694400D01*
X115431011Y-102694399D01*
X115545586Y-102663699D01*
X115648313Y-102604389D01*
X115732189Y-102520513D01*
X115748986Y-102491418D01*
X115793918Y-102456941D01*
X115850071Y-102464332D01*
X115877157Y-102491418D01*
X115889507Y-102512807D01*
X115889507Y-102512808D01*
X115889509Y-102512810D01*
X115889511Y-102512813D01*
X115973387Y-102596689D01*
X115973389Y-102596690D01*
X115973390Y-102596691D01*
X115986727Y-102604391D01*
X116076114Y-102655999D01*
X116076115Y-102655999D01*
X116076117Y-102656000D01*
X116104854Y-102663700D01*
X116190688Y-102686699D01*
X116190689Y-102686700D01*
X116190691Y-102686700D01*
X116309311Y-102686700D01*
X116309311Y-102686699D01*
X116423886Y-102655999D01*
X116526613Y-102596689D01*
X116610489Y-102512813D01*
X116669799Y-102410086D01*
X116700499Y-102295511D01*
X116700500Y-102295511D01*
X116700500Y-102176889D01*
X116700499Y-102176888D01*
X116696131Y-102160588D01*
X116669799Y-102062314D01*
X116627287Y-101988681D01*
X116610491Y-101959590D01*
X116610490Y-101959589D01*
X116610489Y-101959587D01*
X116526613Y-101875711D01*
X116526610Y-101875709D01*
X116526609Y-101875708D01*
X116423887Y-101816401D01*
X116423882Y-101816399D01*
X116309311Y-101785700D01*
X116309309Y-101785700D01*
X116190691Y-101785700D01*
X116190689Y-101785700D01*
X116076117Y-101816399D01*
X116076112Y-101816401D01*
X115973390Y-101875708D01*
X115889507Y-101959591D01*
X115872712Y-101988681D01*
X115827778Y-102023159D01*
X115771626Y-102015765D01*
X115744541Y-101988681D01*
X115732190Y-101967289D01*
X115732189Y-101967287D01*
X115648313Y-101883411D01*
X115648310Y-101883409D01*
X115648309Y-101883408D01*
X115545587Y-101824101D01*
X115545582Y-101824099D01*
X115431011Y-101793400D01*
X115431009Y-101793400D01*
X115312391Y-101793400D01*
X115312389Y-101793400D01*
X115197817Y-101824099D01*
X115197812Y-101824101D01*
X115095090Y-101883408D01*
X115011208Y-101967290D01*
X114951901Y-102070012D01*
X114951899Y-102070017D01*
X114921200Y-102184588D01*
X110622639Y-102184588D01*
X110629070Y-102160588D01*
X110632075Y-102149369D01*
X110635199Y-102137711D01*
X110635200Y-102137711D01*
X110635200Y-102019089D01*
X110635199Y-102019088D01*
X110634961Y-102018201D01*
X110604499Y-101904514D01*
X110592315Y-101883411D01*
X110545191Y-101801790D01*
X110545190Y-101801789D01*
X110545189Y-101801787D01*
X110461313Y-101717911D01*
X110461310Y-101717909D01*
X110461309Y-101717908D01*
X110358587Y-101658601D01*
X110358582Y-101658599D01*
X110244011Y-101627900D01*
X110244009Y-101627900D01*
X110125391Y-101627900D01*
X110125389Y-101627900D01*
X110010817Y-101658599D01*
X110010812Y-101658601D01*
X109908090Y-101717908D01*
X109824208Y-101801790D01*
X109764901Y-101904512D01*
X109764899Y-101904517D01*
X109734200Y-102019088D01*
X70470958Y-102019088D01*
X70470910Y-102018201D01*
X70426730Y-101193979D01*
X103324500Y-101193979D01*
X103324500Y-101306020D01*
X103353495Y-101414232D01*
X103353496Y-101414235D01*
X103353497Y-101414237D01*
X103409515Y-101511263D01*
X103488737Y-101590485D01*
X103585763Y-101646503D01*
X103693979Y-101675499D01*
X103693980Y-101675500D01*
X103693982Y-101675500D01*
X103806020Y-101675500D01*
X103806020Y-101675499D01*
X103914237Y-101646503D01*
X104011263Y-101590485D01*
X104090485Y-101511263D01*
X104146503Y-101414237D01*
X104175499Y-101306020D01*
X104175500Y-101306020D01*
X104175500Y-101193980D01*
X104175499Y-101193979D01*
X104146504Y-101085767D01*
X104146503Y-101085763D01*
X104090485Y-100988737D01*
X104011263Y-100909515D01*
X103914241Y-100853499D01*
X103914232Y-100853495D01*
X103806020Y-100824500D01*
X103806018Y-100824500D01*
X103693982Y-100824500D01*
X103693980Y-100824500D01*
X103585767Y-100853495D01*
X103585758Y-100853499D01*
X103488736Y-100909515D01*
X103409515Y-100988736D01*
X103353499Y-101085758D01*
X103353495Y-101085767D01*
X103324500Y-101193979D01*
X70426730Y-101193979D01*
X70426683Y-101193093D01*
X70423060Y-101125499D01*
X70419429Y-101057770D01*
X70419336Y-101055146D01*
X70400523Y-100001288D01*
X70400523Y-99998711D01*
X70405963Y-99693979D01*
X102774500Y-99693979D01*
X102774500Y-99806020D01*
X102803495Y-99914232D01*
X102803499Y-99914241D01*
X102819767Y-99942417D01*
X102859515Y-100011263D01*
X102938737Y-100090485D01*
X103035763Y-100146503D01*
X103143979Y-100175499D01*
X103143980Y-100175500D01*
X103143982Y-100175500D01*
X103256020Y-100175500D01*
X103256020Y-100175499D01*
X103364237Y-100146503D01*
X103461263Y-100090485D01*
X103461265Y-100090483D01*
X103465112Y-100087532D01*
X103466837Y-100089781D01*
X103510820Y-100071527D01*
X103563161Y-100093164D01*
X103584872Y-100145475D01*
X103582351Y-100164678D01*
X103574500Y-100193980D01*
X103574500Y-100306020D01*
X103603495Y-100414232D01*
X103603499Y-100414241D01*
X103617642Y-100438737D01*
X103659515Y-100511263D01*
X103738737Y-100590485D01*
X103835763Y-100646503D01*
X103943979Y-100675499D01*
X103943980Y-100675500D01*
X103943982Y-100675500D01*
X104056020Y-100675500D01*
X104056020Y-100675499D01*
X104164237Y-100646503D01*
X104168609Y-100643979D01*
X108574500Y-100643979D01*
X108574500Y-100756020D01*
X108603495Y-100864232D01*
X108603496Y-100864235D01*
X108603497Y-100864237D01*
X108659515Y-100961263D01*
X108738737Y-101040485D01*
X108835763Y-101096503D01*
X108943979Y-101125499D01*
X108943980Y-101125500D01*
X108943982Y-101125500D01*
X109056020Y-101125500D01*
X109056020Y-101125499D01*
X109164237Y-101096503D01*
X109261263Y-101040485D01*
X109340485Y-100961263D01*
X109396503Y-100864237D01*
X109425499Y-100756020D01*
X109425500Y-100756020D01*
X109425500Y-100643980D01*
X109425499Y-100643979D01*
X109411165Y-100590485D01*
X109396503Y-100535763D01*
X109340485Y-100438737D01*
X109261263Y-100359515D01*
X109259073Y-100357325D01*
X109237399Y-100304999D01*
X109259073Y-100252673D01*
X109292246Y-100233521D01*
X109388982Y-100207600D01*
X109388981Y-100207600D01*
X109388986Y-100207599D01*
X109491713Y-100148289D01*
X109575589Y-100064413D01*
X109634899Y-99961686D01*
X109665599Y-99847111D01*
X109665600Y-99847111D01*
X109665600Y-99728489D01*
X109665599Y-99728488D01*
X109634900Y-99613917D01*
X109634898Y-99613912D01*
X109575591Y-99511190D01*
X109575590Y-99511189D01*
X109575589Y-99511187D01*
X109491713Y-99427311D01*
X109491710Y-99427309D01*
X109491709Y-99427308D01*
X109388987Y-99368001D01*
X109388982Y-99367999D01*
X109274411Y-99337300D01*
X109274409Y-99337300D01*
X109155791Y-99337300D01*
X109155789Y-99337300D01*
X109041217Y-99367999D01*
X109041212Y-99368001D01*
X108938490Y-99427308D01*
X108854608Y-99511190D01*
X108795301Y-99613912D01*
X108795299Y-99613917D01*
X108764600Y-99728488D01*
X108764600Y-99847111D01*
X108795299Y-99961682D01*
X108795301Y-99961687D01*
X108854608Y-100064409D01*
X108854609Y-100064410D01*
X108854611Y-100064413D01*
X108938487Y-100148289D01*
X108938489Y-100148290D01*
X108938491Y-100148292D01*
X108942341Y-100151247D01*
X108940522Y-100153616D01*
X108969290Y-100191075D01*
X108961922Y-100247231D01*
X108917003Y-100281728D01*
X108916973Y-100281736D01*
X108835767Y-100303495D01*
X108835758Y-100303499D01*
X108738736Y-100359515D01*
X108659515Y-100438736D01*
X108603499Y-100535758D01*
X108603495Y-100535767D01*
X108574500Y-100643979D01*
X104168609Y-100643979D01*
X104261263Y-100590485D01*
X104340485Y-100511263D01*
X104396503Y-100414237D01*
X104425499Y-100306020D01*
X104425500Y-100306020D01*
X104425500Y-100193980D01*
X104425499Y-100193979D01*
X104420547Y-100175499D01*
X104396503Y-100085763D01*
X104340485Y-99988737D01*
X104261263Y-99909515D01*
X104165836Y-99854420D01*
X104164241Y-99853499D01*
X104164232Y-99853495D01*
X104056020Y-99824500D01*
X104056018Y-99824500D01*
X103943982Y-99824500D01*
X103943980Y-99824500D01*
X103835767Y-99853495D01*
X103835758Y-99853499D01*
X103738734Y-99909516D01*
X103734888Y-99912468D01*
X103733178Y-99910240D01*
X103689075Y-99928472D01*
X103636764Y-99906761D01*
X103615127Y-99854420D01*
X103617649Y-99835318D01*
X103625500Y-99806019D01*
X103625500Y-99693980D01*
X103625499Y-99693979D01*
X103617649Y-99664680D01*
X103625041Y-99608527D01*
X103669974Y-99574049D01*
X103726127Y-99581441D01*
X103734583Y-99587929D01*
X103734888Y-99587532D01*
X103738734Y-99590483D01*
X103738736Y-99590484D01*
X103738737Y-99590485D01*
X103835763Y-99646503D01*
X103943979Y-99675499D01*
X103943980Y-99675500D01*
X103943982Y-99675500D01*
X104056020Y-99675500D01*
X104056020Y-99675499D01*
X104164237Y-99646503D01*
X104261263Y-99590485D01*
X104340485Y-99511263D01*
X104396503Y-99414237D01*
X104425499Y-99306020D01*
X104425500Y-99306020D01*
X104425500Y-99193980D01*
X104425499Y-99193979D01*
X104396504Y-99085767D01*
X104396503Y-99085763D01*
X104340485Y-98988737D01*
X104295853Y-98944105D01*
X118384500Y-98944105D01*
X118384500Y-99075894D01*
X118418606Y-99203181D01*
X118418607Y-99203184D01*
X118418608Y-99203186D01*
X118484500Y-99317314D01*
X118577686Y-99410500D01*
X118691814Y-99476392D01*
X118819105Y-99510499D01*
X118819106Y-99510500D01*
X118819108Y-99510500D01*
X118950894Y-99510500D01*
X118950894Y-99510499D01*
X119078186Y-99476392D01*
X119192314Y-99410500D01*
X119285500Y-99317314D01*
X119351392Y-99203186D01*
X119385499Y-99075894D01*
X119385500Y-99075894D01*
X119385500Y-98944106D01*
X119385499Y-98944105D01*
X119361220Y-98853495D01*
X119351392Y-98816814D01*
X119285500Y-98702686D01*
X119192314Y-98609500D01*
X119159379Y-98590485D01*
X119078190Y-98543610D01*
X119078181Y-98543606D01*
X118950894Y-98509500D01*
X118950892Y-98509500D01*
X118819108Y-98509500D01*
X118819106Y-98509500D01*
X118691818Y-98543606D01*
X118691809Y-98543610D01*
X118577685Y-98609500D01*
X118484500Y-98702685D01*
X118418610Y-98816809D01*
X118418606Y-98816818D01*
X118384500Y-98944105D01*
X104295853Y-98944105D01*
X104261263Y-98909515D01*
X104186948Y-98866609D01*
X104164241Y-98853499D01*
X104164232Y-98853495D01*
X104056020Y-98824500D01*
X104056018Y-98824500D01*
X103943982Y-98824500D01*
X103943980Y-98824500D01*
X103835767Y-98853495D01*
X103835758Y-98853499D01*
X103738736Y-98909515D01*
X103659515Y-98988736D01*
X103603499Y-99085758D01*
X103603495Y-99085767D01*
X103574500Y-99193979D01*
X103574500Y-99306017D01*
X103582351Y-99335320D01*
X103574957Y-99391473D01*
X103530024Y-99425951D01*
X103473871Y-99418557D01*
X103465417Y-99412070D01*
X103465112Y-99412468D01*
X103461265Y-99409516D01*
X103364241Y-99353499D01*
X103364232Y-99353495D01*
X103256020Y-99324500D01*
X103256018Y-99324500D01*
X103143982Y-99324500D01*
X103143980Y-99324500D01*
X103035767Y-99353495D01*
X103035758Y-99353499D01*
X102938736Y-99409515D01*
X102859515Y-99488736D01*
X102803499Y-99585758D01*
X102803495Y-99585767D01*
X102774500Y-99693979D01*
X70405963Y-99693979D01*
X70419336Y-98944836D01*
X70419430Y-98942213D01*
X70421183Y-98909515D01*
X70441488Y-98530688D01*
X87239200Y-98530688D01*
X87239200Y-98649311D01*
X87269899Y-98763882D01*
X87269901Y-98763887D01*
X87329208Y-98866609D01*
X87329209Y-98866610D01*
X87329211Y-98866613D01*
X87413087Y-98950489D01*
X87515814Y-99009799D01*
X87515815Y-99009799D01*
X87515817Y-99009800D01*
X87573102Y-99025149D01*
X87630388Y-99040499D01*
X87630389Y-99040500D01*
X87630391Y-99040500D01*
X87749011Y-99040500D01*
X87749011Y-99040499D01*
X87863586Y-99009799D01*
X87966313Y-98950489D01*
X88050189Y-98866613D01*
X88109499Y-98763886D01*
X88140199Y-98649311D01*
X88140200Y-98649311D01*
X88140200Y-98530689D01*
X88140199Y-98530688D01*
X88109500Y-98416117D01*
X88109498Y-98416112D01*
X88050191Y-98313390D01*
X88050190Y-98313389D01*
X88050189Y-98313387D01*
X87966313Y-98229511D01*
X87966310Y-98229509D01*
X87966309Y-98229508D01*
X87904771Y-98193979D01*
X103574500Y-98193979D01*
X103574500Y-98306020D01*
X103603495Y-98414232D01*
X103603499Y-98414241D01*
X103604582Y-98416117D01*
X103659515Y-98511263D01*
X103738737Y-98590485D01*
X103835763Y-98646503D01*
X103943979Y-98675499D01*
X103943980Y-98675500D01*
X103943982Y-98675500D01*
X104056020Y-98675500D01*
X104056020Y-98675499D01*
X104164237Y-98646503D01*
X104261263Y-98590485D01*
X104340485Y-98511263D01*
X104396503Y-98414237D01*
X104423525Y-98313390D01*
X104426432Y-98302541D01*
X104460910Y-98257608D01*
X104517063Y-98250216D01*
X104517064Y-98250216D01*
X104535290Y-98255100D01*
X104535291Y-98255100D01*
X104653911Y-98255100D01*
X104653911Y-98255099D01*
X104768486Y-98224399D01*
X104871213Y-98165089D01*
X104955089Y-98081213D01*
X105014399Y-97978486D01*
X105045099Y-97863911D01*
X105045100Y-97863911D01*
X105045100Y-97745289D01*
X105045099Y-97745288D01*
X105014400Y-97630717D01*
X105014398Y-97630712D01*
X104955091Y-97527990D01*
X104955090Y-97527989D01*
X104955089Y-97527987D01*
X104871213Y-97444111D01*
X104871210Y-97444109D01*
X104871209Y-97444108D01*
X104768487Y-97384801D01*
X104768482Y-97384799D01*
X104653911Y-97354100D01*
X104653909Y-97354100D01*
X104535291Y-97354100D01*
X104535289Y-97354100D01*
X104420717Y-97384799D01*
X104420712Y-97384801D01*
X104317990Y-97444108D01*
X104234108Y-97527990D01*
X104174801Y-97630712D01*
X104174799Y-97630717D01*
X104144100Y-97745288D01*
X104144100Y-97751715D01*
X104122426Y-97804041D01*
X104070100Y-97825715D01*
X104060444Y-97825082D01*
X104056022Y-97824500D01*
X104056018Y-97824500D01*
X103943982Y-97824500D01*
X103943980Y-97824500D01*
X103835767Y-97853495D01*
X103835758Y-97853499D01*
X103738736Y-97909515D01*
X103659515Y-97988736D01*
X103603499Y-98085758D01*
X103603495Y-98085767D01*
X103574500Y-98193979D01*
X87904771Y-98193979D01*
X87863587Y-98170201D01*
X87863582Y-98170199D01*
X87749011Y-98139500D01*
X87749009Y-98139500D01*
X87630391Y-98139500D01*
X87630389Y-98139500D01*
X87515817Y-98170199D01*
X87515812Y-98170201D01*
X87413090Y-98229508D01*
X87329208Y-98313390D01*
X87269901Y-98416112D01*
X87269899Y-98416117D01*
X87239200Y-98530688D01*
X70441488Y-98530688D01*
X70475846Y-97889694D01*
X70476035Y-97887065D01*
X70520981Y-97384801D01*
X70569980Y-96837253D01*
X70570255Y-96834685D01*
X70685346Y-95918388D01*
X96349500Y-95918388D01*
X96349500Y-96037011D01*
X96380199Y-96151582D01*
X96380201Y-96151587D01*
X96439508Y-96254309D01*
X96439509Y-96254310D01*
X96439511Y-96254313D01*
X96523387Y-96338189D01*
X96523389Y-96338190D01*
X96523390Y-96338191D01*
X96626112Y-96397498D01*
X96626114Y-96397499D01*
X96626115Y-96397499D01*
X96626117Y-96397500D01*
X96683402Y-96412849D01*
X96740688Y-96428199D01*
X96740689Y-96428200D01*
X96740691Y-96428200D01*
X96859311Y-96428200D01*
X96859311Y-96428199D01*
X96973886Y-96397499D01*
X97076613Y-96338189D01*
X97160489Y-96254313D01*
X97219799Y-96151586D01*
X97250499Y-96037011D01*
X97250500Y-96037011D01*
X97250500Y-95936688D01*
X98682200Y-95936688D01*
X98682200Y-96055311D01*
X98712899Y-96169882D01*
X98712901Y-96169887D01*
X98772208Y-96272609D01*
X98772209Y-96272610D01*
X98772211Y-96272613D01*
X98856087Y-96356489D01*
X98856089Y-96356490D01*
X98856090Y-96356491D01*
X98927119Y-96397500D01*
X98958814Y-96415799D01*
X98958815Y-96415799D01*
X98958817Y-96415800D01*
X99005091Y-96428199D01*
X99073388Y-96446499D01*
X99073389Y-96446500D01*
X99073391Y-96446500D01*
X99192011Y-96446500D01*
X99192011Y-96446499D01*
X99306586Y-96415799D01*
X99409313Y-96356489D01*
X99493189Y-96272613D01*
X99552499Y-96169886D01*
X99583199Y-96055311D01*
X99583200Y-96055311D01*
X99583200Y-95936689D01*
X99583199Y-95936688D01*
X99578296Y-95918391D01*
X99552499Y-95822114D01*
X99541935Y-95803817D01*
X99493191Y-95719390D01*
X99493190Y-95719389D01*
X99493189Y-95719387D01*
X99409313Y-95635511D01*
X99409310Y-95635509D01*
X99409309Y-95635508D01*
X99306587Y-95576201D01*
X99306582Y-95576199D01*
X99192011Y-95545500D01*
X99192009Y-95545500D01*
X99073391Y-95545500D01*
X99073389Y-95545500D01*
X98958817Y-95576199D01*
X98958812Y-95576201D01*
X98856090Y-95635508D01*
X98772208Y-95719390D01*
X98712901Y-95822112D01*
X98712899Y-95822117D01*
X98682200Y-95936688D01*
X97250500Y-95936688D01*
X97250500Y-95918389D01*
X97250499Y-95918388D01*
X97219800Y-95803817D01*
X97219798Y-95803812D01*
X97160491Y-95701090D01*
X97160490Y-95701089D01*
X97160489Y-95701087D01*
X97076613Y-95617211D01*
X97076610Y-95617209D01*
X97076609Y-95617208D01*
X96973887Y-95557901D01*
X96973882Y-95557899D01*
X96859311Y-95527200D01*
X96859309Y-95527200D01*
X96740691Y-95527200D01*
X96740689Y-95527200D01*
X96626117Y-95557899D01*
X96626112Y-95557901D01*
X96523390Y-95617208D01*
X96439508Y-95701090D01*
X96380201Y-95803812D01*
X96380199Y-95803817D01*
X96349500Y-95918388D01*
X70685346Y-95918388D01*
X70701618Y-95788836D01*
X70701991Y-95786247D01*
X70712826Y-95719387D01*
X70870591Y-94745799D01*
X70871057Y-94743220D01*
X70898670Y-94604400D01*
X70910408Y-94545388D01*
X87737000Y-94545388D01*
X87737000Y-94664011D01*
X87767699Y-94778582D01*
X87767701Y-94778587D01*
X87827008Y-94881309D01*
X87827009Y-94881310D01*
X87827011Y-94881313D01*
X87910887Y-94965189D01*
X88013614Y-95024499D01*
X88013615Y-95024499D01*
X88013617Y-95024500D01*
X88070902Y-95039849D01*
X88128188Y-95055199D01*
X88128189Y-95055200D01*
X88128191Y-95055200D01*
X88246811Y-95055200D01*
X88246811Y-95055199D01*
X88361386Y-95024499D01*
X88464113Y-94965189D01*
X88547989Y-94881313D01*
X88607299Y-94778586D01*
X88637999Y-94664011D01*
X88638000Y-94664011D01*
X88638000Y-94545389D01*
X88637999Y-94545388D01*
X93433500Y-94545388D01*
X93433500Y-94664011D01*
X93464199Y-94778582D01*
X93464201Y-94778587D01*
X93523508Y-94881309D01*
X93523509Y-94881310D01*
X93523511Y-94881313D01*
X93607387Y-94965189D01*
X93710114Y-95024499D01*
X93710115Y-95024499D01*
X93710117Y-95024500D01*
X93767402Y-95039849D01*
X93824688Y-95055199D01*
X93824689Y-95055200D01*
X93824691Y-95055200D01*
X93943311Y-95055200D01*
X93943311Y-95055199D01*
X94057886Y-95024499D01*
X94160613Y-94965189D01*
X94244489Y-94881313D01*
X94303799Y-94778586D01*
X94334499Y-94664011D01*
X94334500Y-94664011D01*
X94334500Y-94545389D01*
X94334499Y-94545388D01*
X94326193Y-94514391D01*
X94303799Y-94430814D01*
X94244489Y-94328087D01*
X94160613Y-94244211D01*
X94160610Y-94244209D01*
X94160609Y-94244208D01*
X94057887Y-94184901D01*
X94057882Y-94184899D01*
X93943311Y-94154200D01*
X93943309Y-94154200D01*
X93824691Y-94154200D01*
X93824689Y-94154200D01*
X93710117Y-94184899D01*
X93710112Y-94184901D01*
X93607390Y-94244208D01*
X93523508Y-94328090D01*
X93464201Y-94430812D01*
X93464199Y-94430817D01*
X93433500Y-94545388D01*
X88637999Y-94545388D01*
X88629693Y-94514391D01*
X88607299Y-94430814D01*
X88547989Y-94328087D01*
X88464113Y-94244211D01*
X88464110Y-94244209D01*
X88464109Y-94244208D01*
X88361387Y-94184901D01*
X88361382Y-94184899D01*
X88246811Y-94154200D01*
X88246809Y-94154200D01*
X88128191Y-94154200D01*
X88128189Y-94154200D01*
X88013617Y-94184899D01*
X88013612Y-94184901D01*
X87910890Y-94244208D01*
X87827008Y-94328090D01*
X87767701Y-94430812D01*
X87767699Y-94430817D01*
X87737000Y-94545388D01*
X70910408Y-94545388D01*
X71076692Y-93709425D01*
X71077228Y-93706955D01*
X71080930Y-93691288D01*
X102255200Y-93691288D01*
X102255200Y-93809911D01*
X102285899Y-93924482D01*
X102285901Y-93924487D01*
X102345208Y-94027209D01*
X102345209Y-94027210D01*
X102345211Y-94027213D01*
X102429087Y-94111089D01*
X102429089Y-94111090D01*
X102429090Y-94111091D01*
X102531812Y-94170398D01*
X102531814Y-94170399D01*
X102531815Y-94170399D01*
X102531817Y-94170400D01*
X102585928Y-94184899D01*
X102646388Y-94201099D01*
X102646389Y-94201100D01*
X102646391Y-94201100D01*
X102765011Y-94201100D01*
X102765011Y-94201099D01*
X102879586Y-94170399D01*
X102982313Y-94111089D01*
X103066189Y-94027213D01*
X103125499Y-93924486D01*
X103156199Y-93809911D01*
X103156200Y-93809911D01*
X103156200Y-93691289D01*
X103156199Y-93691288D01*
X103140687Y-93633394D01*
X103136854Y-93619088D01*
X104402900Y-93619088D01*
X104402900Y-93737711D01*
X104433599Y-93852282D01*
X104433601Y-93852287D01*
X104492908Y-93955009D01*
X104492909Y-93955010D01*
X104492911Y-93955013D01*
X104576787Y-94038889D01*
X104576789Y-94038890D01*
X104576790Y-94038891D01*
X104673261Y-94094589D01*
X104679514Y-94098199D01*
X104679515Y-94098199D01*
X104679517Y-94098200D01*
X104727620Y-94111089D01*
X104794088Y-94128899D01*
X104794089Y-94128900D01*
X104794091Y-94128900D01*
X104912711Y-94128900D01*
X104912711Y-94128899D01*
X105027286Y-94098199D01*
X105033540Y-94094588D01*
X107643900Y-94094588D01*
X107643900Y-94213211D01*
X107674599Y-94327782D01*
X107674601Y-94327787D01*
X107733908Y-94430509D01*
X107733909Y-94430510D01*
X107733911Y-94430513D01*
X107817787Y-94514389D01*
X107817789Y-94514390D01*
X107817790Y-94514391D01*
X107920512Y-94573698D01*
X107920514Y-94573699D01*
X107920515Y-94573699D01*
X107920517Y-94573700D01*
X107977802Y-94589049D01*
X108035088Y-94604399D01*
X108035089Y-94604400D01*
X108035091Y-94604400D01*
X108153711Y-94604400D01*
X108153711Y-94604399D01*
X108268286Y-94573699D01*
X108371013Y-94514389D01*
X108454889Y-94430513D01*
X108514199Y-94327786D01*
X108544899Y-94213211D01*
X108544900Y-94213211D01*
X108544900Y-94094589D01*
X108544899Y-94094588D01*
X108514200Y-93980017D01*
X108514198Y-93980012D01*
X108454891Y-93877290D01*
X108454890Y-93877289D01*
X108454889Y-93877287D01*
X108413097Y-93835495D01*
X108391424Y-93783171D01*
X108413098Y-93730845D01*
X108428424Y-93719085D01*
X108468875Y-93695730D01*
X108486613Y-93685489D01*
X108570489Y-93601613D01*
X108629799Y-93498886D01*
X108660499Y-93384311D01*
X108660500Y-93384311D01*
X108660500Y-93265689D01*
X108660499Y-93265688D01*
X108629800Y-93151117D01*
X108629798Y-93151112D01*
X108578418Y-93062120D01*
X108571025Y-93005968D01*
X108605503Y-92961035D01*
X108699113Y-92906989D01*
X108782989Y-92823113D01*
X108842299Y-92720386D01*
X108872999Y-92605811D01*
X108873000Y-92605811D01*
X108873000Y-92487189D01*
X108872999Y-92487188D01*
X108842300Y-92372617D01*
X108842298Y-92372612D01*
X108782991Y-92269890D01*
X108782990Y-92269889D01*
X108782989Y-92269887D01*
X108699113Y-92186011D01*
X108699110Y-92186009D01*
X108699109Y-92186008D01*
X108596387Y-92126701D01*
X108596382Y-92126699D01*
X108481811Y-92096000D01*
X108481809Y-92096000D01*
X108363191Y-92096000D01*
X108363189Y-92096000D01*
X108248617Y-92126699D01*
X108248612Y-92126701D01*
X108145890Y-92186008D01*
X108062008Y-92269890D01*
X108002701Y-92372612D01*
X108002699Y-92372617D01*
X107972000Y-92487188D01*
X107972000Y-92605811D01*
X108002699Y-92720382D01*
X108002701Y-92720387D01*
X108054081Y-92809379D01*
X108061474Y-92865532D01*
X108026995Y-92910465D01*
X107933390Y-92964508D01*
X107849508Y-93048390D01*
X107790201Y-93151112D01*
X107790199Y-93151117D01*
X107759500Y-93265688D01*
X107759500Y-93384311D01*
X107790199Y-93498882D01*
X107790201Y-93498887D01*
X107849509Y-93601610D01*
X107849511Y-93601613D01*
X107891301Y-93643404D01*
X107912975Y-93695730D01*
X107891300Y-93748055D01*
X107875976Y-93759815D01*
X107817789Y-93793409D01*
X107733908Y-93877290D01*
X107674601Y-93980012D01*
X107674599Y-93980017D01*
X107643900Y-94094588D01*
X105033540Y-94094588D01*
X105130013Y-94038889D01*
X105213889Y-93955013D01*
X105273199Y-93852286D01*
X105303899Y-93737711D01*
X105303900Y-93737711D01*
X105303900Y-93619089D01*
X105303899Y-93619088D01*
X105292544Y-93576712D01*
X105273199Y-93504514D01*
X105213889Y-93401787D01*
X105130013Y-93317911D01*
X105130010Y-93317909D01*
X105130009Y-93317908D01*
X105027287Y-93258601D01*
X105027282Y-93258599D01*
X104912711Y-93227900D01*
X104912709Y-93227900D01*
X104794091Y-93227900D01*
X104794089Y-93227900D01*
X104679517Y-93258599D01*
X104679512Y-93258601D01*
X104576790Y-93317908D01*
X104492908Y-93401790D01*
X104433601Y-93504512D01*
X104433599Y-93504517D01*
X104402900Y-93619088D01*
X103136854Y-93619088D01*
X103125500Y-93576717D01*
X103125498Y-93576712D01*
X103066191Y-93473990D01*
X103066190Y-93473989D01*
X103066189Y-93473987D01*
X102982313Y-93390111D01*
X102982310Y-93390109D01*
X102982309Y-93390108D01*
X102879587Y-93330801D01*
X102879582Y-93330799D01*
X102765011Y-93300100D01*
X102765009Y-93300100D01*
X102646391Y-93300100D01*
X102646389Y-93300100D01*
X102531817Y-93330799D01*
X102531812Y-93330801D01*
X102429090Y-93390108D01*
X102345208Y-93473990D01*
X102285901Y-93576712D01*
X102285899Y-93576717D01*
X102255200Y-93691288D01*
X71080930Y-93691288D01*
X71257215Y-92945288D01*
X103578000Y-92945288D01*
X103578000Y-93063911D01*
X103608699Y-93178482D01*
X103608701Y-93178487D01*
X103668008Y-93281209D01*
X103668009Y-93281210D01*
X103668011Y-93281213D01*
X103751887Y-93365089D01*
X103751889Y-93365090D01*
X103751890Y-93365091D01*
X103795226Y-93390111D01*
X103854614Y-93424399D01*
X103854615Y-93424399D01*
X103854617Y-93424400D01*
X103911902Y-93439749D01*
X103969188Y-93455099D01*
X103969189Y-93455100D01*
X103969191Y-93455100D01*
X104087811Y-93455100D01*
X104087811Y-93455099D01*
X104202386Y-93424399D01*
X104305113Y-93365089D01*
X104388989Y-93281213D01*
X104448299Y-93178486D01*
X104478999Y-93063911D01*
X104479000Y-93063911D01*
X104479000Y-92945289D01*
X104478999Y-92945288D01*
X104448300Y-92830717D01*
X104448298Y-92830712D01*
X104388991Y-92727990D01*
X104388990Y-92727989D01*
X104388989Y-92727987D01*
X104305113Y-92644111D01*
X104305110Y-92644109D01*
X104305109Y-92644108D01*
X104202387Y-92584801D01*
X104202382Y-92584799D01*
X104087811Y-92554100D01*
X104087809Y-92554100D01*
X103969191Y-92554100D01*
X103969189Y-92554100D01*
X103854617Y-92584799D01*
X103854612Y-92584801D01*
X103751890Y-92644108D01*
X103668008Y-92727990D01*
X103608701Y-92830712D01*
X103608699Y-92830717D01*
X103578000Y-92945288D01*
X71257215Y-92945288D01*
X71319650Y-92681074D01*
X71320280Y-92678608D01*
X71399102Y-92391288D01*
X101892900Y-92391288D01*
X101892900Y-92509911D01*
X101923599Y-92624482D01*
X101923601Y-92624487D01*
X101982908Y-92727209D01*
X101982909Y-92727210D01*
X101982911Y-92727213D01*
X102066787Y-92811089D01*
X102066789Y-92811090D01*
X102066790Y-92811091D01*
X102100778Y-92830714D01*
X102169514Y-92870399D01*
X102169515Y-92870399D01*
X102169517Y-92870400D01*
X102214227Y-92882380D01*
X102284088Y-92901099D01*
X102284089Y-92901100D01*
X102284091Y-92901100D01*
X102402711Y-92901100D01*
X102402711Y-92901099D01*
X102517286Y-92870399D01*
X102620013Y-92811089D01*
X102703889Y-92727213D01*
X102763199Y-92624486D01*
X102793899Y-92509911D01*
X102793900Y-92509911D01*
X102793900Y-92391289D01*
X102793899Y-92391288D01*
X102763200Y-92276717D01*
X102763198Y-92276712D01*
X102703891Y-92173990D01*
X102703890Y-92173989D01*
X102703889Y-92173987D01*
X102620013Y-92090111D01*
X102620010Y-92090109D01*
X102620009Y-92090108D01*
X102517287Y-92030801D01*
X102517282Y-92030799D01*
X102402711Y-92000100D01*
X102402709Y-92000100D01*
X102284091Y-92000100D01*
X102284089Y-92000100D01*
X102169517Y-92030799D01*
X102169512Y-92030801D01*
X102066790Y-92090108D01*
X101982908Y-92173990D01*
X101923601Y-92276712D01*
X101923599Y-92276717D01*
X101892900Y-92391288D01*
X71399102Y-92391288D01*
X71599144Y-91662105D01*
X71599873Y-91659624D01*
X71914845Y-90653708D01*
X71915644Y-90651305D01*
X72266328Y-89657246D01*
X72267224Y-89654845D01*
X72653157Y-88673953D01*
X72654157Y-88671543D01*
X73074845Y-87705075D01*
X73075901Y-87702763D01*
X73474811Y-86868988D01*
X101989900Y-86868988D01*
X101989900Y-86987611D01*
X102020599Y-87102182D01*
X102020601Y-87102187D01*
X102079908Y-87204909D01*
X102079909Y-87204910D01*
X102079911Y-87204913D01*
X102163787Y-87288789D01*
X102266514Y-87348099D01*
X102266515Y-87348099D01*
X102266517Y-87348100D01*
X102323802Y-87363449D01*
X102381088Y-87378799D01*
X102381089Y-87378800D01*
X102381091Y-87378800D01*
X102499711Y-87378800D01*
X102499711Y-87378799D01*
X102614286Y-87348099D01*
X102717013Y-87288789D01*
X102800889Y-87204913D01*
X102860199Y-87102186D01*
X102890899Y-86987611D01*
X102890900Y-86987611D01*
X102890900Y-86868989D01*
X102890899Y-86868988D01*
X102860200Y-86754417D01*
X102860198Y-86754412D01*
X102800891Y-86651690D01*
X102800890Y-86651689D01*
X102800889Y-86651687D01*
X102717013Y-86567811D01*
X102717010Y-86567809D01*
X102717009Y-86567808D01*
X102614287Y-86508501D01*
X102614282Y-86508499D01*
X102499711Y-86477800D01*
X102499709Y-86477800D01*
X102381091Y-86477800D01*
X102381089Y-86477800D01*
X102266517Y-86508499D01*
X102266512Y-86508501D01*
X102163790Y-86567808D01*
X102079908Y-86651690D01*
X102020601Y-86754412D01*
X102020599Y-86754417D01*
X101989900Y-86868988D01*
X73474811Y-86868988D01*
X73530813Y-86751936D01*
X73531987Y-86749591D01*
X73583198Y-86651690D01*
X73987809Y-85878188D01*
X103898400Y-85878188D01*
X103898400Y-85996811D01*
X103929099Y-86111382D01*
X103929101Y-86111387D01*
X103988408Y-86214109D01*
X103988409Y-86214110D01*
X103988411Y-86214113D01*
X104072287Y-86297989D01*
X104175014Y-86357299D01*
X104175015Y-86357299D01*
X104175017Y-86357300D01*
X104232302Y-86372649D01*
X104289588Y-86387999D01*
X104289589Y-86388000D01*
X104289591Y-86388000D01*
X104408211Y-86388000D01*
X104408211Y-86387999D01*
X104522786Y-86357299D01*
X104625513Y-86297989D01*
X104709389Y-86214113D01*
X104768699Y-86111386D01*
X104799399Y-85996811D01*
X104799400Y-85996811D01*
X104799400Y-85878189D01*
X104799399Y-85878188D01*
X104768700Y-85763617D01*
X104768698Y-85763612D01*
X104709391Y-85660890D01*
X104709390Y-85660889D01*
X104709389Y-85660887D01*
X104625513Y-85577011D01*
X104625510Y-85577009D01*
X104625509Y-85577008D01*
X104522787Y-85517701D01*
X104522782Y-85517699D01*
X104408211Y-85487000D01*
X104408209Y-85487000D01*
X104289591Y-85487000D01*
X104289589Y-85487000D01*
X104175017Y-85517699D01*
X104175012Y-85517701D01*
X104072290Y-85577008D01*
X103988408Y-85660890D01*
X103929101Y-85763612D01*
X103929099Y-85763617D01*
X103898400Y-85878188D01*
X73987809Y-85878188D01*
X74020556Y-85815584D01*
X74021769Y-85813363D01*
X74543384Y-84897356D01*
X74544668Y-84895192D01*
X75098653Y-83998372D01*
X75100014Y-83996255D01*
X75485865Y-83418788D01*
X88141700Y-83418788D01*
X88141700Y-83537411D01*
X88172399Y-83651982D01*
X88172401Y-83651987D01*
X88231708Y-83754709D01*
X88231709Y-83754710D01*
X88231711Y-83754713D01*
X88315587Y-83838589D01*
X88418314Y-83897899D01*
X88418315Y-83897899D01*
X88418317Y-83897900D01*
X88475602Y-83913249D01*
X88532888Y-83928599D01*
X88532889Y-83928600D01*
X88532891Y-83928600D01*
X88651511Y-83928600D01*
X88651511Y-83928599D01*
X88766086Y-83897899D01*
X88868813Y-83838589D01*
X88952689Y-83754713D01*
X89011999Y-83651986D01*
X89042699Y-83537411D01*
X89042700Y-83537411D01*
X89042700Y-83418789D01*
X89042699Y-83418788D01*
X89012000Y-83304217D01*
X89011996Y-83304208D01*
X89010458Y-83301544D01*
X89010456Y-83301541D01*
X88991892Y-83269388D01*
X101596100Y-83269388D01*
X101596100Y-83388011D01*
X101626799Y-83502582D01*
X101626801Y-83502587D01*
X101686108Y-83605309D01*
X101686109Y-83605310D01*
X101686111Y-83605313D01*
X101769987Y-83689189D01*
X101872714Y-83748499D01*
X101872715Y-83748499D01*
X101872717Y-83748500D01*
X101930002Y-83763849D01*
X101987288Y-83779199D01*
X101987289Y-83779200D01*
X101987291Y-83779200D01*
X102105911Y-83779200D01*
X102105911Y-83779199D01*
X102220486Y-83748499D01*
X102323213Y-83689189D01*
X102407089Y-83605313D01*
X102466399Y-83502586D01*
X102497099Y-83388011D01*
X102497100Y-83388011D01*
X102497100Y-83269389D01*
X102497099Y-83269388D01*
X102466400Y-83154817D01*
X102466398Y-83154812D01*
X102407091Y-83052090D01*
X102407090Y-83052089D01*
X102407089Y-83052087D01*
X102323213Y-82968211D01*
X102323210Y-82968209D01*
X102323209Y-82968208D01*
X102220487Y-82908901D01*
X102220482Y-82908899D01*
X102105911Y-82878200D01*
X102105909Y-82878200D01*
X101987291Y-82878200D01*
X101987289Y-82878200D01*
X101872717Y-82908899D01*
X101872712Y-82908901D01*
X101769990Y-82968208D01*
X101686108Y-83052090D01*
X101626801Y-83154812D01*
X101626799Y-83154817D01*
X101596100Y-83269388D01*
X88991892Y-83269388D01*
X88952691Y-83201490D01*
X88952690Y-83201489D01*
X88952689Y-83201487D01*
X88868813Y-83117611D01*
X88868810Y-83117609D01*
X88868809Y-83117608D01*
X88766087Y-83058301D01*
X88766082Y-83058299D01*
X88651511Y-83027600D01*
X88651509Y-83027600D01*
X88532891Y-83027600D01*
X88532889Y-83027600D01*
X88418317Y-83058299D01*
X88418312Y-83058301D01*
X88315590Y-83117608D01*
X88231708Y-83201490D01*
X88172401Y-83304212D01*
X88172399Y-83304217D01*
X88141700Y-83418788D01*
X75485865Y-83418788D01*
X75685651Y-83119787D01*
X75687104Y-83117696D01*
X76031075Y-82640688D01*
X103117900Y-82640688D01*
X103117900Y-82759311D01*
X103148599Y-82873882D01*
X103148601Y-82873887D01*
X103207908Y-82976609D01*
X103207909Y-82976610D01*
X103207911Y-82976613D01*
X103291787Y-83060489D01*
X103394514Y-83119799D01*
X103394515Y-83119799D01*
X103394517Y-83119800D01*
X103451802Y-83135149D01*
X103509088Y-83150499D01*
X103509089Y-83150500D01*
X103509091Y-83150500D01*
X103627711Y-83150500D01*
X103627711Y-83150499D01*
X103742286Y-83119799D01*
X103845013Y-83060489D01*
X103928889Y-82976613D01*
X103988199Y-82873886D01*
X104018899Y-82759311D01*
X104018900Y-82759311D01*
X104018900Y-82640689D01*
X104018899Y-82640688D01*
X103988200Y-82526117D01*
X103988198Y-82526112D01*
X103928891Y-82423390D01*
X103928890Y-82423389D01*
X103928889Y-82423387D01*
X103845013Y-82339511D01*
X103845010Y-82339509D01*
X103845009Y-82339508D01*
X103742287Y-82280201D01*
X103742282Y-82280199D01*
X103627711Y-82249500D01*
X103627709Y-82249500D01*
X103509091Y-82249500D01*
X103509089Y-82249500D01*
X103394517Y-82280199D01*
X103394512Y-82280201D01*
X103291790Y-82339508D01*
X103207908Y-82423390D01*
X103148601Y-82526112D01*
X103148599Y-82526117D01*
X103117900Y-82640688D01*
X76031075Y-82640688D01*
X76303631Y-82262716D01*
X76305155Y-82260680D01*
X76951786Y-81428277D01*
X76953438Y-81426228D01*
X77213131Y-81115488D01*
X91812000Y-81115488D01*
X91812000Y-81234111D01*
X91842699Y-81348682D01*
X91842701Y-81348687D01*
X91902008Y-81451409D01*
X91902009Y-81451410D01*
X91902011Y-81451413D01*
X91985887Y-81535289D01*
X91985889Y-81535290D01*
X91985890Y-81535291D01*
X92056904Y-81576291D01*
X92088614Y-81594599D01*
X92088615Y-81594599D01*
X92088617Y-81594600D01*
X92145902Y-81609949D01*
X92203188Y-81625299D01*
X92203189Y-81625300D01*
X92203191Y-81625300D01*
X92321811Y-81625300D01*
X92321811Y-81625299D01*
X92436386Y-81594599D01*
X92468101Y-81576288D01*
X102603100Y-81576288D01*
X102603100Y-81694911D01*
X102633799Y-81809482D01*
X102633801Y-81809487D01*
X102693108Y-81912209D01*
X102693109Y-81912210D01*
X102693111Y-81912213D01*
X102776987Y-81996089D01*
X102879714Y-82055399D01*
X102879715Y-82055399D01*
X102879717Y-82055400D01*
X102898710Y-82060489D01*
X102994288Y-82086099D01*
X102994289Y-82086100D01*
X102994291Y-82086100D01*
X103112911Y-82086100D01*
X103112911Y-82086099D01*
X103227486Y-82055399D01*
X103330213Y-81996089D01*
X103414089Y-81912213D01*
X103467986Y-81818861D01*
X103475824Y-81805286D01*
X103477031Y-81805983D01*
X103513344Y-81769654D01*
X103569981Y-81769642D01*
X103610039Y-81809681D01*
X103613156Y-81818861D01*
X103627900Y-81873883D01*
X103627901Y-81873887D01*
X103687208Y-81976609D01*
X103687209Y-81976610D01*
X103687211Y-81976613D01*
X103771087Y-82060489D01*
X103873814Y-82119799D01*
X103873815Y-82119799D01*
X103873817Y-82119800D01*
X103931102Y-82135149D01*
X103988388Y-82150499D01*
X103988389Y-82150500D01*
X103988391Y-82150500D01*
X104107011Y-82150500D01*
X104107011Y-82150499D01*
X104221586Y-82119799D01*
X104324313Y-82060489D01*
X104408189Y-81976613D01*
X104467499Y-81873886D01*
X104498199Y-81759311D01*
X104498200Y-81759311D01*
X104498200Y-81640689D01*
X104498199Y-81640688D01*
X104467500Y-81526117D01*
X104467498Y-81526112D01*
X104408191Y-81423390D01*
X104408190Y-81423389D01*
X104408189Y-81423387D01*
X104324313Y-81339511D01*
X104324310Y-81339509D01*
X104324309Y-81339508D01*
X104221587Y-81280201D01*
X104221582Y-81280199D01*
X104188783Y-81271411D01*
X104143850Y-81236933D01*
X104136458Y-81180780D01*
X104170936Y-81135847D01*
X104188783Y-81128455D01*
X104221082Y-81119800D01*
X104221081Y-81119800D01*
X104221086Y-81119799D01*
X104323813Y-81060489D01*
X104407689Y-80976613D01*
X104466999Y-80873886D01*
X104497699Y-80759311D01*
X104497700Y-80759311D01*
X104497700Y-80640689D01*
X104497699Y-80640688D01*
X104491204Y-80616450D01*
X104469458Y-80535291D01*
X104467000Y-80526117D01*
X104466998Y-80526112D01*
X104407691Y-80423390D01*
X104407690Y-80423389D01*
X104407689Y-80423387D01*
X104323813Y-80339511D01*
X104323810Y-80339509D01*
X104323809Y-80339508D01*
X104221087Y-80280201D01*
X104221082Y-80280199D01*
X104106511Y-80249500D01*
X104106509Y-80249500D01*
X103987891Y-80249500D01*
X103987889Y-80249500D01*
X103873317Y-80280199D01*
X103873312Y-80280201D01*
X103770590Y-80339508D01*
X103686708Y-80423390D01*
X103627401Y-80526112D01*
X103627399Y-80526117D01*
X103596700Y-80640688D01*
X103596700Y-80759311D01*
X103627399Y-80873882D01*
X103627401Y-80873887D01*
X103686708Y-80976609D01*
X103686709Y-80976610D01*
X103686711Y-80976613D01*
X103770587Y-81060489D01*
X103873314Y-81119799D01*
X103906117Y-81128588D01*
X103951048Y-81163065D01*
X103958442Y-81219218D01*
X103923964Y-81264151D01*
X103906118Y-81271544D01*
X103873815Y-81280200D01*
X103873812Y-81280201D01*
X103771090Y-81339508D01*
X103687208Y-81423390D01*
X103625476Y-81530314D01*
X103624273Y-81529619D01*
X103587935Y-81565953D01*
X103531298Y-81565949D01*
X103491252Y-81525898D01*
X103488143Y-81516737D01*
X103473400Y-81461717D01*
X103473398Y-81461712D01*
X103414091Y-81358990D01*
X103414090Y-81358989D01*
X103414089Y-81358987D01*
X103330213Y-81275111D01*
X103330210Y-81275109D01*
X103330209Y-81275108D01*
X103227487Y-81215801D01*
X103227482Y-81215799D01*
X103112911Y-81185100D01*
X103112909Y-81185100D01*
X102994291Y-81185100D01*
X102994289Y-81185100D01*
X102879717Y-81215799D01*
X102879712Y-81215801D01*
X102776990Y-81275108D01*
X102693108Y-81358990D01*
X102633801Y-81461712D01*
X102633799Y-81461717D01*
X102603100Y-81576288D01*
X92468101Y-81576288D01*
X92539113Y-81535289D01*
X92622989Y-81451413D01*
X92682299Y-81348686D01*
X92712999Y-81234111D01*
X92713000Y-81234111D01*
X92713000Y-81115489D01*
X92712999Y-81115488D01*
X92682300Y-81000917D01*
X92682298Y-81000912D01*
X92622991Y-80898190D01*
X92622990Y-80898189D01*
X92622989Y-80898187D01*
X92539113Y-80814311D01*
X92539110Y-80814309D01*
X92539109Y-80814308D01*
X92436387Y-80755001D01*
X92436382Y-80754999D01*
X92321811Y-80724300D01*
X92321809Y-80724300D01*
X92203191Y-80724300D01*
X92203189Y-80724300D01*
X92088617Y-80754999D01*
X92088612Y-80755001D01*
X91985890Y-80814308D01*
X91902008Y-80898190D01*
X91842701Y-81000912D01*
X91842699Y-81000917D01*
X91812000Y-81115488D01*
X77213131Y-81115488D01*
X77256839Y-81063189D01*
X77256840Y-81063187D01*
X77510798Y-80759309D01*
X77629356Y-80617446D01*
X77631079Y-80615459D01*
X77649817Y-80594599D01*
X78080179Y-80115488D01*
X86693500Y-80115488D01*
X86693500Y-80234111D01*
X86724199Y-80348682D01*
X86724201Y-80348687D01*
X86783508Y-80451409D01*
X86783509Y-80451410D01*
X86783511Y-80451413D01*
X86867387Y-80535289D01*
X86970114Y-80594599D01*
X86970115Y-80594599D01*
X86970117Y-80594600D01*
X87027402Y-80609949D01*
X87084688Y-80625299D01*
X87084689Y-80625300D01*
X87084691Y-80625300D01*
X87203311Y-80625300D01*
X87203311Y-80625299D01*
X87317886Y-80594599D01*
X87420613Y-80535289D01*
X87504489Y-80451413D01*
X87563799Y-80348686D01*
X87594499Y-80234111D01*
X87594500Y-80234111D01*
X87594500Y-80115489D01*
X87594499Y-80115488D01*
X87563800Y-80000917D01*
X87563798Y-80000912D01*
X87504491Y-79898190D01*
X87504490Y-79898189D01*
X87504489Y-79898187D01*
X87420613Y-79814311D01*
X87420610Y-79814309D01*
X87420609Y-79814308D01*
X87317887Y-79755001D01*
X87317882Y-79754999D01*
X87203311Y-79724300D01*
X87203309Y-79724300D01*
X87084691Y-79724300D01*
X87084689Y-79724300D01*
X86970117Y-79754999D01*
X86970112Y-79755001D01*
X86867390Y-79814308D01*
X86783508Y-79898190D01*
X86724201Y-80000912D01*
X86724199Y-80000917D01*
X86693500Y-80115488D01*
X78080179Y-80115488D01*
X78335422Y-79831332D01*
X78337169Y-79829454D01*
X79026091Y-79115488D01*
X89912000Y-79115488D01*
X89912000Y-79234111D01*
X89942699Y-79348682D01*
X89942701Y-79348687D01*
X90002008Y-79451409D01*
X90002009Y-79451410D01*
X90002011Y-79451413D01*
X90085887Y-79535289D01*
X90188614Y-79594599D01*
X90188615Y-79594599D01*
X90188617Y-79594600D01*
X90245902Y-79609949D01*
X90303188Y-79625299D01*
X90303189Y-79625300D01*
X90303191Y-79625300D01*
X90421811Y-79625300D01*
X90421811Y-79625299D01*
X90536386Y-79594599D01*
X90639113Y-79535289D01*
X90722989Y-79451413D01*
X90782299Y-79348686D01*
X90812999Y-79234111D01*
X90813000Y-79234111D01*
X90813000Y-79115489D01*
X90812999Y-79115488D01*
X90800808Y-79069992D01*
X90782299Y-79000914D01*
X90756491Y-78956213D01*
X90722991Y-78898190D01*
X90722990Y-78898189D01*
X90722989Y-78898187D01*
X90639113Y-78814311D01*
X90639110Y-78814309D01*
X90639109Y-78814308D01*
X90536387Y-78755001D01*
X90536382Y-78754999D01*
X90421811Y-78724300D01*
X90421809Y-78724300D01*
X90303191Y-78724300D01*
X90303189Y-78724300D01*
X90188617Y-78754999D01*
X90188612Y-78755001D01*
X90085890Y-78814308D01*
X90002008Y-78898190D01*
X89942701Y-79000912D01*
X89942699Y-79000917D01*
X89912000Y-79115488D01*
X79026091Y-79115488D01*
X79069111Y-79070904D01*
X79070943Y-79069074D01*
X79072540Y-79067533D01*
X79536043Y-78620288D01*
X102826400Y-78620288D01*
X102826400Y-78738911D01*
X102857099Y-78853482D01*
X102857101Y-78853487D01*
X102916408Y-78956209D01*
X102916409Y-78956210D01*
X102916411Y-78956213D01*
X103000287Y-79040089D01*
X103000289Y-79040090D01*
X103000290Y-79040091D01*
X103030251Y-79057389D01*
X103053725Y-79070942D01*
X103095707Y-79095180D01*
X103130185Y-79140113D01*
X103122793Y-79196266D01*
X103098666Y-79220394D01*
X103098941Y-79220753D01*
X103096218Y-79222842D01*
X103095713Y-79223348D01*
X103095094Y-79223704D01*
X103011208Y-79307590D01*
X102951901Y-79410312D01*
X102951899Y-79410317D01*
X102921200Y-79524888D01*
X102921200Y-79643511D01*
X102951899Y-79758082D01*
X102951901Y-79758087D01*
X103011208Y-79860809D01*
X103011209Y-79860810D01*
X103011211Y-79860813D01*
X103095087Y-79944689D01*
X103095089Y-79944690D01*
X103095090Y-79944691D01*
X103192476Y-80000917D01*
X103197814Y-80003999D01*
X103197815Y-80003999D01*
X103197817Y-80004000D01*
X103255102Y-80019349D01*
X103312388Y-80034699D01*
X103312389Y-80034700D01*
X103312391Y-80034700D01*
X103431011Y-80034700D01*
X103431011Y-80034699D01*
X103545586Y-80003999D01*
X103648313Y-79944689D01*
X103732189Y-79860813D01*
X103791499Y-79758086D01*
X103822199Y-79643511D01*
X103822200Y-79643511D01*
X103822200Y-79524889D01*
X103822199Y-79524888D01*
X103791500Y-79410317D01*
X103791498Y-79410312D01*
X103732191Y-79307590D01*
X103732190Y-79307589D01*
X103732189Y-79307587D01*
X103648313Y-79223711D01*
X103648310Y-79223709D01*
X103648309Y-79223708D01*
X103552892Y-79168619D01*
X103518413Y-79123685D01*
X103525806Y-79067533D01*
X103549935Y-79043407D01*
X103549659Y-79043047D01*
X103552398Y-79040944D01*
X103552900Y-79040442D01*
X103553513Y-79040089D01*
X103637389Y-78956213D01*
X103696699Y-78853486D01*
X103727399Y-78738911D01*
X103727400Y-78738911D01*
X103727400Y-78620289D01*
X103727399Y-78620288D01*
X103696700Y-78505717D01*
X103696698Y-78505712D01*
X103637391Y-78402990D01*
X103637390Y-78402989D01*
X103637389Y-78402987D01*
X103553513Y-78319111D01*
X103553510Y-78319109D01*
X103553509Y-78319108D01*
X103450787Y-78259801D01*
X103450782Y-78259799D01*
X103336211Y-78229100D01*
X103336209Y-78229100D01*
X103217591Y-78229100D01*
X103217589Y-78229100D01*
X103103017Y-78259799D01*
X103103012Y-78259801D01*
X103000290Y-78319108D01*
X102916408Y-78402990D01*
X102857101Y-78505712D01*
X102857099Y-78505717D01*
X102826400Y-78620288D01*
X79536043Y-78620288D01*
X79829454Y-78337169D01*
X79831332Y-78335422D01*
X80615467Y-77631071D01*
X80617455Y-77629349D01*
X81190431Y-77150499D01*
X81426235Y-76953430D01*
X81428285Y-76951780D01*
X81528556Y-76873887D01*
X81828751Y-76640688D01*
X92297300Y-76640688D01*
X92297300Y-76759311D01*
X92327999Y-76873882D01*
X92328001Y-76873887D01*
X92387308Y-76976609D01*
X92387309Y-76976610D01*
X92387311Y-76976613D01*
X92471187Y-77060489D01*
X92573914Y-77119799D01*
X92573915Y-77119799D01*
X92573917Y-77119800D01*
X92631202Y-77135149D01*
X92688488Y-77150499D01*
X92688489Y-77150500D01*
X92688491Y-77150500D01*
X92807111Y-77150500D01*
X92807111Y-77150499D01*
X92921686Y-77119799D01*
X93024413Y-77060489D01*
X93108289Y-76976613D01*
X93167599Y-76873886D01*
X93198299Y-76759311D01*
X93198300Y-76759311D01*
X93198300Y-76640689D01*
X93198299Y-76640688D01*
X95505900Y-76640688D01*
X95505900Y-76759311D01*
X95536599Y-76873882D01*
X95536601Y-76873887D01*
X95595908Y-76976609D01*
X95595909Y-76976610D01*
X95595911Y-76976613D01*
X95679787Y-77060489D01*
X95782514Y-77119799D01*
X95782515Y-77119799D01*
X95782517Y-77119800D01*
X95839802Y-77135149D01*
X95897088Y-77150499D01*
X95897089Y-77150500D01*
X95897091Y-77150500D01*
X96015711Y-77150500D01*
X96015711Y-77150499D01*
X96130286Y-77119799D01*
X96233013Y-77060489D01*
X96316889Y-76976613D01*
X96376199Y-76873886D01*
X96406899Y-76759311D01*
X96406900Y-76759311D01*
X96406900Y-76640689D01*
X96406899Y-76640688D01*
X96376200Y-76526117D01*
X96376198Y-76526112D01*
X96316891Y-76423390D01*
X96316890Y-76423389D01*
X96316889Y-76423387D01*
X96233013Y-76339511D01*
X96233010Y-76339509D01*
X96233009Y-76339508D01*
X96130287Y-76280201D01*
X96130282Y-76280199D01*
X96015711Y-76249500D01*
X96015709Y-76249500D01*
X95897091Y-76249500D01*
X95897089Y-76249500D01*
X95782517Y-76280199D01*
X95782512Y-76280201D01*
X95679790Y-76339508D01*
X95595908Y-76423390D01*
X95536601Y-76526112D01*
X95536599Y-76526117D01*
X95505900Y-76640688D01*
X93198299Y-76640688D01*
X93167600Y-76526117D01*
X93167598Y-76526112D01*
X93108291Y-76423390D01*
X93108290Y-76423389D01*
X93108289Y-76423387D01*
X93024413Y-76339511D01*
X93024410Y-76339509D01*
X93024409Y-76339508D01*
X92921687Y-76280201D01*
X92921682Y-76280199D01*
X92807111Y-76249500D01*
X92807109Y-76249500D01*
X92688491Y-76249500D01*
X92688489Y-76249500D01*
X92573917Y-76280199D01*
X92573912Y-76280201D01*
X92471190Y-76339508D01*
X92387308Y-76423390D01*
X92328001Y-76526112D01*
X92327999Y-76526117D01*
X92297300Y-76640688D01*
X81828751Y-76640688D01*
X82260680Y-76305155D01*
X82262716Y-76303631D01*
X83117696Y-75687104D01*
X83119787Y-75685651D01*
X83351855Y-75530588D01*
X92286400Y-75530588D01*
X92286400Y-75649211D01*
X92317099Y-75763782D01*
X92317101Y-75763787D01*
X92376408Y-75866509D01*
X92376409Y-75866510D01*
X92376411Y-75866513D01*
X92460287Y-75950389D01*
X92460289Y-75950390D01*
X92460290Y-75950391D01*
X92563012Y-76009698D01*
X92563014Y-76009699D01*
X92563015Y-76009699D01*
X92563017Y-76009700D01*
X92620302Y-76025049D01*
X92677588Y-76040399D01*
X92677589Y-76040400D01*
X92677591Y-76040400D01*
X92796211Y-76040400D01*
X92796211Y-76040399D01*
X92910786Y-76009699D01*
X93013513Y-75950389D01*
X93097389Y-75866513D01*
X93156699Y-75763786D01*
X93187399Y-75649211D01*
X93187400Y-75649211D01*
X93187400Y-75530589D01*
X93187399Y-75530588D01*
X93156700Y-75416017D01*
X93156698Y-75416012D01*
X93097391Y-75313290D01*
X93097390Y-75313289D01*
X93097389Y-75313287D01*
X93013513Y-75229411D01*
X93013510Y-75229409D01*
X93013508Y-75229407D01*
X92963408Y-75200481D01*
X92928930Y-75155548D01*
X92936324Y-75099395D01*
X92963410Y-75072310D01*
X92967209Y-75070117D01*
X93017313Y-75041189D01*
X93101189Y-74957313D01*
X93160499Y-74854586D01*
X93191199Y-74740011D01*
X93191200Y-74740011D01*
X93191200Y-74621389D01*
X93191199Y-74621388D01*
X93160500Y-74506817D01*
X93160498Y-74506812D01*
X93101191Y-74404090D01*
X93101190Y-74404089D01*
X93101189Y-74404087D01*
X93017313Y-74320211D01*
X93017310Y-74320209D01*
X93017309Y-74320208D01*
X92914587Y-74260901D01*
X92914582Y-74260899D01*
X92800011Y-74230200D01*
X92800009Y-74230200D01*
X92681391Y-74230200D01*
X92681389Y-74230200D01*
X92566817Y-74260899D01*
X92566812Y-74260901D01*
X92464090Y-74320208D01*
X92380208Y-74404090D01*
X92320901Y-74506812D01*
X92320899Y-74506817D01*
X92290200Y-74621388D01*
X92290200Y-74740011D01*
X92320899Y-74854582D01*
X92320901Y-74854587D01*
X92380208Y-74957309D01*
X92380209Y-74957310D01*
X92380211Y-74957313D01*
X92464087Y-75041189D01*
X92464089Y-75041190D01*
X92514191Y-75070117D01*
X92548669Y-75115051D01*
X92541276Y-75171204D01*
X92514191Y-75198289D01*
X92460289Y-75229409D01*
X92376408Y-75313290D01*
X92317101Y-75416012D01*
X92317099Y-75416017D01*
X92286400Y-75530588D01*
X83351855Y-75530588D01*
X83996255Y-75100014D01*
X83998372Y-75098653D01*
X84895192Y-74544668D01*
X84897356Y-74543384D01*
X85813363Y-74021769D01*
X85815607Y-74020544D01*
X86749606Y-73531979D01*
X86751936Y-73530813D01*
X87702763Y-73075901D01*
X87705075Y-73074845D01*
X88671571Y-72654144D01*
X88673953Y-72653157D01*
X88705644Y-72640688D01*
X92040900Y-72640688D01*
X92040900Y-72759311D01*
X92071599Y-72873882D01*
X92071601Y-72873887D01*
X92130908Y-72976609D01*
X92130909Y-72976610D01*
X92130911Y-72976613D01*
X92214787Y-73060489D01*
X92214789Y-73060490D01*
X92214790Y-73060491D01*
X92240523Y-73075348D01*
X92317514Y-73119799D01*
X92317515Y-73119799D01*
X92317517Y-73119800D01*
X92374802Y-73135149D01*
X92432088Y-73150499D01*
X92432089Y-73150500D01*
X92432091Y-73150500D01*
X92550711Y-73150500D01*
X92550711Y-73150499D01*
X92665286Y-73119799D01*
X92768013Y-73060489D01*
X92851889Y-72976613D01*
X92911199Y-72873886D01*
X92941899Y-72759311D01*
X92941900Y-72759311D01*
X92941900Y-72640689D01*
X92941899Y-72640688D01*
X92911200Y-72526117D01*
X92911198Y-72526112D01*
X92851891Y-72423390D01*
X92851890Y-72423389D01*
X92851889Y-72423387D01*
X92768013Y-72339511D01*
X92768010Y-72339509D01*
X92768009Y-72339508D01*
X92665287Y-72280201D01*
X92665282Y-72280199D01*
X92550711Y-72249500D01*
X92550709Y-72249500D01*
X92432091Y-72249500D01*
X92432089Y-72249500D01*
X92317517Y-72280199D01*
X92317512Y-72280201D01*
X92214790Y-72339508D01*
X92130908Y-72423390D01*
X92071601Y-72526112D01*
X92071599Y-72526117D01*
X92040900Y-72640688D01*
X88705644Y-72640688D01*
X89654845Y-72267224D01*
X89657246Y-72266328D01*
X90651305Y-71915644D01*
X90653708Y-71914845D01*
X91659624Y-71599873D01*
X91662105Y-71599144D01*
X92678608Y-71320280D01*
X92681074Y-71319650D01*
X93706955Y-71077228D01*
X93709425Y-71076692D01*
X94743241Y-70871053D01*
X94745799Y-70870591D01*
X95514164Y-70746081D01*
X95569282Y-70759106D01*
X95599047Y-70807291D01*
X95600000Y-70819128D01*
X95600000Y-75800000D01*
X104400000Y-75800000D01*
X104400000Y-70819128D01*
X104421674Y-70766802D01*
X104474000Y-70745128D01*
X104485830Y-70746080D01*
G37*
%TD.AperFunction*%
%TD*%
M02*
