M48
; DRILL file KiCad 10.0.6-10.0.6~ubuntu24.04.1 date 2026-10-06T00:25:10
; FORMAT={-:-/ absolute / metric / decimal}
; #@! TF.CreationDate,2026-10-06T00:25:10+00:00
; #@! TF.GenerationSoftware,Kicad,Pcbnew,10.0.6-10.0.6~ubuntu24.04.1
; #@! TF.FileFunction,Plated,1,4,PTH
FMAT,2
METRIC
; #@! TA.AperFunction,Plated,PTH,ViaDrill
T1C0.200
; #@! TA.AperFunction,Plated,PTH,ViaDrill
T2C0.250
; #@! TA.AperFunction,Plated,PTH,ViaDrill
T3C0.300
; #@! TA.AperFunction,Plated,PTH,ComponentDrill
T4C0.700
%
G90
G05
T1
X93.0Y-116.64
X94.4Y-99.25
X94.4Y-100.75
X94.4Y-102.6
X97.0Y-119.0
X98.7Y-100.0
X98.7Y-101.8
X99.0Y-107.0
X99.6Y-98.3
X99.6Y-101.2
X100.0Y-104.4
X100.0Y-107.0
X100.9Y-98.3
X101.0Y-104.95
X101.0Y-107.0
X103.0Y-104.4
X103.2Y-99.75
X103.6Y-106.4
X103.75Y-101.25
X104.0Y-98.25
X104.0Y-99.25
X104.0Y-100.25
X104.65Y-109.75
X106.55Y-106.3
X108.3Y-109.25
X109.0Y-100.7
X112.3Y-104.55
T2
X72.0Y-95.843
X72.0Y-98.614
X72.0Y-101.386
X72.0Y-104.157
X72.8Y-91.686
X72.8Y-94.458
X72.8Y-97.229
X72.8Y-100.0
X72.8Y-102.771
X72.8Y-105.542
X72.8Y-108.314
X73.6Y-90.301
X73.6Y-93.072
X73.6Y-95.843
X73.6Y-98.614
X73.6Y-101.386
X73.6Y-104.157
X73.6Y-106.928
X73.6Y-109.699
X74.4Y-88.915
X74.4Y-91.686
X74.4Y-94.458
X74.4Y-97.229
X74.4Y-100.0
X74.4Y-102.771
X74.4Y-105.542
X74.4Y-108.314
X74.4Y-111.085
X75.2Y-87.53
X75.2Y-90.301
X75.2Y-93.072
X75.2Y-95.843
X75.2Y-98.614
X75.2Y-101.386
X75.2Y-104.157
X75.2Y-106.928
X75.2Y-109.699
X75.2Y-112.47
X76.0Y-86.144
X76.0Y-88.915
X76.0Y-91.686
X76.0Y-94.458
X76.0Y-97.229
X76.0Y-100.0
X76.0Y-102.771
X76.0Y-105.542
X76.0Y-108.314
X76.0Y-111.085
X76.0Y-113.856
X76.8Y-84.758
X76.8Y-87.53
X76.8Y-90.301
X76.8Y-93.072
X76.8Y-95.843
X76.8Y-98.614
X76.8Y-101.386
X76.8Y-104.157
X77.6Y-83.373
X77.6Y-86.144
X77.6Y-88.915
X77.6Y-91.686
X77.6Y-94.458
X77.6Y-97.229
X77.6Y-100.0
X77.6Y-102.771
X77.6Y-105.542
X77.6Y-116.627
X78.4Y-81.987
X78.4Y-93.072
X78.4Y-98.614
X78.4Y-101.386
X78.4Y-106.928
X78.4Y-109.699
X78.4Y-118.013
X78.92Y-111.562
X79.2Y-80.602
X79.2Y-83.373
X79.2Y-116.627
X79.2Y-119.398
X80.0Y-81.987
X80.0Y-93.072
X80.0Y-98.614
X80.0Y-101.386
X80.0Y-106.928
X80.0Y-109.699
X80.0Y-118.013
X80.65Y-89.4
X80.8Y-80.602
X80.8Y-83.373
X80.8Y-91.686
X80.8Y-94.458
X80.8Y-100.0
X80.8Y-102.771
X80.8Y-108.314
X80.8Y-116.627
X80.8Y-119.398
X81.6Y-79.216
X81.6Y-81.987
X81.6Y-93.072
X81.6Y-98.614
X81.6Y-101.386
X81.6Y-104.157
X81.6Y-106.928
X81.6Y-109.699
X81.6Y-118.013
X81.6Y-120.784
X82.4Y-77.83
X82.4Y-80.602
X82.4Y-83.373
X82.4Y-91.686
X82.4Y-94.458
X82.4Y-97.229
X82.4Y-100.0
X82.4Y-105.542
X82.4Y-108.314
X82.4Y-119.398
X82.4Y-122.17
X82.926Y-109.948
X83.2Y-79.216
X83.2Y-81.987
X83.2Y-120.784
X83.592Y-110.425
X84.0Y-77.83
X84.0Y-80.602
X84.0Y-111.085
X84.0Y-113.856
X84.0Y-116.627
X84.0Y-122.17
X84.273Y-95.993
X84.3Y-106.0
X84.8Y-76.445
X84.8Y-79.216
X84.8Y-93.072
X84.8Y-98.614
X84.8Y-118.013
X84.8Y-120.784
X84.8Y-123.555
X85.026Y-114.974
X85.6Y-77.83
X85.6Y-80.602
X85.6Y-91.686
X85.6Y-94.458
X85.6Y-100.0
X85.6Y-108.314
X85.6Y-111.085
X85.6Y-113.856
X85.6Y-116.627
X85.6Y-119.398
X85.6Y-122.17
X86.4Y-93.072
X86.4Y-109.699
X86.4Y-112.47
X86.4Y-115.242
X86.4Y-118.013
X86.4Y-123.555
X86.95Y-89.4
X87.144Y-80.175
X87.2Y-75.059
X87.2Y-77.83
X87.2Y-83.373
X87.2Y-88.915
X87.2Y-91.686
X87.2Y-94.458
X87.2Y-100.0
X87.2Y-108.314
X87.2Y-111.085
X87.2Y-113.856
X87.2Y-116.627
X87.2Y-119.398
X87.2Y-124.941
X87.69Y-98.59
X87.975Y-106.0
X88.0Y-76.445
X88.0Y-79.216
X88.0Y-84.758
X88.0Y-87.53
X88.0Y-90.301
X88.0Y-109.699
X88.0Y-112.47
X88.0Y-115.242
X88.0Y-118.013
X88.0Y-120.784
X88.188Y-94.605
X88.592Y-83.478
X88.8Y-75.059
X88.8Y-77.83
X88.8Y-91.686
X88.8Y-100.0
X88.8Y-102.771
X88.8Y-111.085
X88.8Y-113.856
X88.8Y-116.627
X88.8Y-119.398
X88.8Y-122.17
X88.8Y-124.941
X89.23Y-93.6
X89.6Y-76.445
X89.6Y-79.216
X89.6Y-93.072
X89.6Y-112.47
X89.6Y-115.242
X89.6Y-118.013
X89.6Y-120.784
X89.6Y-123.555
X90.362Y-79.175
X90.4Y-75.059
X90.4Y-77.83
X90.4Y-91.686
X91.2Y-123.555
X91.7Y-97.0
X91.7Y-106.0
X92.0Y-86.144
X92.0Y-88.915
X92.263Y-81.175
X92.491Y-72.7
X92.7Y-71.7
X92.737Y-75.59
X92.741Y-74.681
X92.748Y-76.7
X93.884Y-94.605
X94.4Y-95.843
X94.4Y-123.555
X95.2Y-91.686
X95.2Y-94.458
X95.22Y-100.01
X95.22Y-101.51
X95.22Y-103.36
X95.287Y-85.637
X95.373Y-126.0
X95.956Y-76.7
X96.0Y-90.301
X96.0Y-93.072
X96.238Y-121.559
X96.27Y-120.49
X96.641Y-117.339
X96.645Y-114.779
X96.8Y-95.978
X97.22Y-116.19
X97.273Y-126.738
X97.6Y-90.301
X97.6Y-93.072
X97.909Y-89.059
X98.4Y-88.915
X98.4Y-91.686
X98.4Y-94.458
X98.49Y-90.52
X98.74Y-99.02
X99.133Y-95.996
X99.185Y-113.097
X99.22Y-119.0
X99.338Y-126.266
X99.527Y-106.907
X100.0Y-107.61
X100.005Y-125.404
X100.31Y-87.7
X100.51Y-126.262
X100.8Y-87.53
X100.941Y-113.096
X101.0Y-107.61
X101.137Y-99.875
X101.137Y-100.525
X101.6Y-88.915
X102.047Y-83.329
X102.325Y-95.275
X102.343Y-92.451
X102.44Y-86.928
X102.706Y-93.751
X103.01Y-125.261
X103.054Y-81.636
X103.277Y-78.68
X103.329Y-117.339
X103.372Y-79.584
X103.568Y-82.7
X104.0Y-123.555
X104.028Y-93.005
X104.047Y-80.7
X104.048Y-81.7
X104.349Y-85.938
X104.595Y-97.805
X104.8Y-124.941
X104.853Y-93.678
X105.27Y-120.49
X105.34Y-109.44
X105.6Y-87.53
X105.6Y-123.555
X105.675Y-92.025
X105.88Y-102.36
X106.162Y-103.175
X106.4Y-88.915
X106.4Y-124.941
X106.61Y-102.6
X106.862Y-92.025
X106.862Y-100.525
X107.2Y-87.53
X107.2Y-123.555
X107.3Y-71.7
X107.3Y-72.7
X107.3Y-73.7
X107.3Y-75.7
X107.3Y-84.7
X107.563Y-95.975
X108.0Y-75.059
X108.0Y-77.83
X108.0Y-86.144
X108.0Y-124.941
X108.05Y-103.775
X108.094Y-94.154
X108.21Y-93.325
X108.422Y-92.546
X108.5Y-98.29
X108.8Y-76.445
X108.8Y-79.216
X108.8Y-81.987
X108.8Y-87.53
X108.8Y-123.555
X109.06Y-108.48
X109.215Y-99.788
X109.26Y-90.52
X109.6Y-75.059
X109.6Y-77.83
X109.6Y-80.602
X109.6Y-83.373
X109.6Y-124.941
X110.185Y-102.078
X110.4Y-76.445
X110.4Y-79.216
X110.4Y-81.987
X110.4Y-84.758
X110.4Y-87.53
X110.4Y-123.555
X111.2Y-75.059
X111.2Y-77.83
X111.2Y-80.602
X111.2Y-124.941
X112.0Y-76.445
X112.0Y-79.216
X112.0Y-81.987
X112.0Y-123.555
X112.517Y-105.25
X112.8Y-75.059
X112.8Y-77.83
X112.8Y-80.602
X112.8Y-83.373
X112.8Y-86.144
X112.8Y-124.941
X113.6Y-76.445
X113.6Y-79.216
X113.6Y-81.987
X113.6Y-95.843
X113.6Y-123.555
X114.4Y-77.83
X114.4Y-80.602
X114.4Y-83.373
X114.4Y-91.686
X114.4Y-94.458
X114.675Y-104.25
X115.2Y-76.445
X115.2Y-79.216
X115.2Y-81.987
X115.2Y-123.555
X115.372Y-102.244
X115.65Y-89.4
X115.98Y-108.74
X116.0Y-77.83
X116.0Y-80.602
X116.0Y-83.373
X116.25Y-102.236
X116.8Y-79.216
X116.8Y-81.987
X116.8Y-93.072
X116.8Y-95.843
X117.6Y-77.83
X117.6Y-80.602
X117.6Y-83.373
X117.6Y-91.686
X117.6Y-94.458
X118.4Y-79.216
X118.4Y-81.987
X118.4Y-93.072
X118.4Y-95.843
X119.2Y-80.602
X119.2Y-83.373
X119.2Y-91.686
X119.2Y-94.458
X119.273Y-102.993
X120.0Y-81.987
X120.0Y-93.072
X120.0Y-95.843
X120.8Y-80.602
X120.8Y-83.373
X120.8Y-91.686
X120.8Y-94.458
X121.3Y-102.79
X121.6Y-81.987
X121.6Y-93.072
X121.6Y-95.843
X121.95Y-89.4
X122.4Y-83.373
X122.4Y-86.144
X122.4Y-88.915
X122.4Y-91.686
X122.4Y-94.458
X122.77Y-97.99
X123.2Y-84.758
X123.2Y-87.53
X123.2Y-90.301
X123.2Y-93.072
X123.2Y-95.843
X123.2Y-98.614
X123.2Y-101.386
X123.2Y-104.157
X123.2Y-106.928
X123.2Y-112.47
X123.2Y-115.242
X124.0Y-86.144
X124.0Y-88.915
X124.0Y-91.686
X124.0Y-94.458
X124.0Y-97.229
X124.0Y-100.0
X124.0Y-102.771
X124.0Y-105.542
X124.0Y-111.085
X124.0Y-113.856
X124.8Y-87.53
X124.8Y-90.301
X124.8Y-93.072
X124.8Y-95.843
X124.8Y-98.614
X124.8Y-101.386
X124.8Y-104.157
X124.8Y-106.928
X124.8Y-112.47
X125.45Y-109.0
X125.6Y-88.915
X125.6Y-91.686
X125.6Y-94.458
X125.6Y-97.229
X125.6Y-100.0
X125.6Y-102.771
X125.6Y-105.542
X125.6Y-111.085
X126.4Y-90.301
X126.4Y-93.072
X126.4Y-95.843
X126.4Y-98.614
X126.4Y-101.386
X126.4Y-104.157
X126.4Y-106.928
X126.4Y-109.699
X127.2Y-91.686
X127.2Y-94.458
X127.2Y-97.229
X127.2Y-100.0
X127.2Y-102.771
X127.2Y-105.542
X127.2Y-108.314
X128.0Y-95.843
X128.0Y-98.614
X128.0Y-101.386
X128.0Y-104.157
T3
X93.916Y-104.159
X100.539Y-124.503
X103.943Y-104.728
X109.913Y-118.362
X118.885Y-99.01
T4
X97.6Y-113.85
X97.6Y-118.15
X102.4Y-113.85
X102.4Y-118.15
M30
