%TF.GenerationSoftware,KiCad,Pcbnew,10.0.6-10.0.6~ubuntu24.04.1*%
%TF.CreationDate,2026-10-06T00:25:10+00:00*%
%TF.ProjectId,radar60,72616461-7236-4302-9e6b-696361645f70,rev?*%
%TF.SameCoordinates,Original*%
%TF.FileFunction,Legend,Bot*%
%TF.FilePolarity,Positive*%
%FSLAX46Y46*%
G04 Gerber Fmt 4.6, Leading zero omitted, Abs format (unit mm)*
G04 Created by KiCad (PCBNEW 10.0.6-10.0.6~ubuntu24.04.1) date 2026-10-06 00:25:10*
%MOMM*%
%LPD*%
G01*
G04 APERTURE LIST*
G04 Aperture macros list*
%AMRoundRect*
0 Rectangle with rounded corners*
0 $1 Rounding radius*
0 $2 $3 $4 $5 $6 $7 $8 $9 X,Y pos of 4 corners*
0 Add a 4 corners polygon primitive as box body*
4,1,4,$2,$3,$4,$5,$6,$7,$8,$9,$2,$3,0*
0 Add four circle primitives for the rounded corners*
1,1,$1+$1,$2,$3*
1,1,$1+$1,$4,$5*
1,1,$1+$1,$6,$7*
1,1,$1+$1,$8,$9*
0 Add four rect primitives between the rounded corners*
20,1,$1+$1,$2,$3,$4,$5,0*
20,1,$1+$1,$4,$5,$6,$7,0*
20,1,$1+$1,$6,$7,$8,$9,0*
20,1,$1+$1,$8,$9,$2,$3,0*%
G04 Aperture macros list end*
%ADD10C,0.120000*%
%ADD11C,0.150000*%
%ADD12C,0.200000*%
%ADD13C,1.090600*%
%ADD14C,0.760000*%
%ADD15O,1.100000X0.680000*%
%ADD16C,1.200000*%
%ADD17RoundRect,0.268750X-0.256250X0.218750X-0.256250X-0.218750X0.256250X-0.218750X0.256250X0.218750X0*%
%ADD18RoundRect,0.268750X-0.218750X-0.256250X0.218750X-0.256250X0.218750X0.256250X-0.218750X0.256250X0*%
%ADD19RoundRect,0.190000X-0.170000X0.140000X-0.170000X-0.140000X0.170000X-0.140000X0.170000X0.140000X0*%
%ADD20RoundRect,0.050000X0.750000X0.500000X-0.750000X0.500000X-0.750000X-0.500000X0.750000X-0.500000X0*%
%ADD21RoundRect,0.300000X0.300000X0.250000X-0.300000X0.250000X-0.300000X-0.250000X0.300000X-0.250000X0*%
%ADD22RoundRect,0.190000X0.140000X0.170000X-0.140000X0.170000X-0.140000X-0.170000X0.140000X-0.170000X0*%
%ADD23RoundRect,0.190000X-0.140000X-0.170000X0.140000X-0.170000X0.140000X0.170000X-0.140000X0.170000X0*%
%ADD24RoundRect,0.268750X0.256250X-0.218750X0.256250X0.218750X-0.256250X0.218750X-0.256250X-0.218750X0*%
%ADD25RoundRect,0.190000X0.170000X-0.140000X0.170000X0.140000X-0.170000X0.140000X-0.170000X-0.140000X0*%
%ADD26C,0.350000*%
%ADD27RoundRect,0.185000X0.185000X-0.135000X0.185000X0.135000X-0.185000X0.135000X-0.185000X-0.135000X0*%
G04 APERTURE END LIST*
D10*
X108266666Y-96469807D02*
X108533332Y-96469807D01*
X108533332Y-96888855D02*
X108533332Y-96088855D01*
X108533332Y-96088855D02*
X108152380Y-96088855D01*
X107580952Y-96469807D02*
X107466666Y-96507902D01*
X107466666Y-96507902D02*
X107428571Y-96545998D01*
X107428571Y-96545998D02*
X107390475Y-96622188D01*
X107390475Y-96622188D02*
X107390475Y-96736474D01*
X107390475Y-96736474D02*
X107428571Y-96812664D01*
X107428571Y-96812664D02*
X107466666Y-96850760D01*
X107466666Y-96850760D02*
X107542856Y-96888855D01*
X107542856Y-96888855D02*
X107847618Y-96888855D01*
X107847618Y-96888855D02*
X107847618Y-96088855D01*
X107847618Y-96088855D02*
X107580952Y-96088855D01*
X107580952Y-96088855D02*
X107504761Y-96126950D01*
X107504761Y-96126950D02*
X107466666Y-96165045D01*
X107466666Y-96165045D02*
X107428571Y-96241236D01*
X107428571Y-96241236D02*
X107428571Y-96317426D01*
X107428571Y-96317426D02*
X107466666Y-96393617D01*
X107466666Y-96393617D02*
X107504761Y-96431712D01*
X107504761Y-96431712D02*
X107580952Y-96469807D01*
X107580952Y-96469807D02*
X107847618Y-96469807D01*
X107123809Y-96088855D02*
X106628571Y-96088855D01*
X106628571Y-96088855D02*
X106895237Y-96393617D01*
X106895237Y-96393617D02*
X106780952Y-96393617D01*
X106780952Y-96393617D02*
X106704761Y-96431712D01*
X106704761Y-96431712D02*
X106666666Y-96469807D01*
X106666666Y-96469807D02*
X106628571Y-96545998D01*
X106628571Y-96545998D02*
X106628571Y-96736474D01*
X106628571Y-96736474D02*
X106666666Y-96812664D01*
X106666666Y-96812664D02*
X106704761Y-96850760D01*
X106704761Y-96850760D02*
X106780952Y-96888855D01*
X106780952Y-96888855D02*
X107009523Y-96888855D01*
X107009523Y-96888855D02*
X107085714Y-96850760D01*
X107085714Y-96850760D02*
X107123809Y-96812664D01*
X95966666Y-103619807D02*
X96233332Y-103619807D01*
X96233332Y-104038855D02*
X96233332Y-103238855D01*
X96233332Y-103238855D02*
X95852380Y-103238855D01*
X95280952Y-103619807D02*
X95166666Y-103657902D01*
X95166666Y-103657902D02*
X95128571Y-103695998D01*
X95128571Y-103695998D02*
X95090475Y-103772188D01*
X95090475Y-103772188D02*
X95090475Y-103886474D01*
X95090475Y-103886474D02*
X95128571Y-103962664D01*
X95128571Y-103962664D02*
X95166666Y-104000760D01*
X95166666Y-104000760D02*
X95242856Y-104038855D01*
X95242856Y-104038855D02*
X95547618Y-104038855D01*
X95547618Y-104038855D02*
X95547618Y-103238855D01*
X95547618Y-103238855D02*
X95280952Y-103238855D01*
X95280952Y-103238855D02*
X95204761Y-103276950D01*
X95204761Y-103276950D02*
X95166666Y-103315045D01*
X95166666Y-103315045D02*
X95128571Y-103391236D01*
X95128571Y-103391236D02*
X95128571Y-103467426D01*
X95128571Y-103467426D02*
X95166666Y-103543617D01*
X95166666Y-103543617D02*
X95204761Y-103581712D01*
X95204761Y-103581712D02*
X95280952Y-103619807D01*
X95280952Y-103619807D02*
X95547618Y-103619807D01*
X94328571Y-104038855D02*
X94785714Y-104038855D01*
X94557142Y-104038855D02*
X94557142Y-103238855D01*
X94557142Y-103238855D02*
X94633333Y-103353140D01*
X94633333Y-103353140D02*
X94709523Y-103429331D01*
X94709523Y-103429331D02*
X94785714Y-103467426D01*
X110389285Y-108287664D02*
X110427381Y-108325760D01*
X110427381Y-108325760D02*
X110541666Y-108363855D01*
X110541666Y-108363855D02*
X110617857Y-108363855D01*
X110617857Y-108363855D02*
X110732143Y-108325760D01*
X110732143Y-108325760D02*
X110808333Y-108249569D01*
X110808333Y-108249569D02*
X110846428Y-108173379D01*
X110846428Y-108173379D02*
X110884524Y-108020998D01*
X110884524Y-108020998D02*
X110884524Y-107906712D01*
X110884524Y-107906712D02*
X110846428Y-107754331D01*
X110846428Y-107754331D02*
X110808333Y-107678140D01*
X110808333Y-107678140D02*
X110732143Y-107601950D01*
X110732143Y-107601950D02*
X110617857Y-107563855D01*
X110617857Y-107563855D02*
X110541666Y-107563855D01*
X110541666Y-107563855D02*
X110427381Y-107601950D01*
X110427381Y-107601950D02*
X110389285Y-107640045D01*
X109627381Y-108363855D02*
X110084524Y-108363855D01*
X109855952Y-108363855D02*
X109855952Y-107563855D01*
X109855952Y-107563855D02*
X109932143Y-107678140D01*
X109932143Y-107678140D02*
X110008333Y-107754331D01*
X110008333Y-107754331D02*
X110084524Y-107792426D01*
X109360714Y-107563855D02*
X108827380Y-107563855D01*
X108827380Y-107563855D02*
X109170238Y-108363855D01*
X100540474Y-122118855D02*
X100540474Y-121318855D01*
X100540474Y-121318855D02*
X100349998Y-121318855D01*
X100349998Y-121318855D02*
X100235712Y-121356950D01*
X100235712Y-121356950D02*
X100159522Y-121433140D01*
X100159522Y-121433140D02*
X100121427Y-121509331D01*
X100121427Y-121509331D02*
X100083331Y-121661712D01*
X100083331Y-121661712D02*
X100083331Y-121775998D01*
X100083331Y-121775998D02*
X100121427Y-121928379D01*
X100121427Y-121928379D02*
X100159522Y-122004569D01*
X100159522Y-122004569D02*
X100235712Y-122080760D01*
X100235712Y-122080760D02*
X100349998Y-122118855D01*
X100349998Y-122118855D02*
X100540474Y-122118855D01*
X99321427Y-122118855D02*
X99778570Y-122118855D01*
X99549998Y-122118855D02*
X99549998Y-121318855D01*
X99549998Y-121318855D02*
X99626189Y-121433140D01*
X99626189Y-121433140D02*
X99702379Y-121509331D01*
X99702379Y-121509331D02*
X99778570Y-121547426D01*
X105980951Y-105887902D02*
X105980951Y-106268855D01*
X106247618Y-105468855D02*
X105980951Y-105887902D01*
X105980951Y-105887902D02*
X105714285Y-105468855D01*
X105028571Y-106268855D02*
X105485714Y-106268855D01*
X105257142Y-106268855D02*
X105257142Y-105468855D01*
X105257142Y-105468855D02*
X105333333Y-105583140D01*
X105333333Y-105583140D02*
X105409523Y-105659331D01*
X105409523Y-105659331D02*
X105485714Y-105697426D01*
X95833332Y-98482664D02*
X95871428Y-98520760D01*
X95871428Y-98520760D02*
X95985713Y-98558855D01*
X95985713Y-98558855D02*
X96061904Y-98558855D01*
X96061904Y-98558855D02*
X96176190Y-98520760D01*
X96176190Y-98520760D02*
X96252380Y-98444569D01*
X96252380Y-98444569D02*
X96290475Y-98368379D01*
X96290475Y-98368379D02*
X96328571Y-98215998D01*
X96328571Y-98215998D02*
X96328571Y-98101712D01*
X96328571Y-98101712D02*
X96290475Y-97949331D01*
X96290475Y-97949331D02*
X96252380Y-97873140D01*
X96252380Y-97873140D02*
X96176190Y-97796950D01*
X96176190Y-97796950D02*
X96061904Y-97758855D01*
X96061904Y-97758855D02*
X95985713Y-97758855D01*
X95985713Y-97758855D02*
X95871428Y-97796950D01*
X95871428Y-97796950D02*
X95833332Y-97835045D01*
X95452380Y-98558855D02*
X95299999Y-98558855D01*
X95299999Y-98558855D02*
X95223809Y-98520760D01*
X95223809Y-98520760D02*
X95185713Y-98482664D01*
X95185713Y-98482664D02*
X95109523Y-98368379D01*
X95109523Y-98368379D02*
X95071428Y-98215998D01*
X95071428Y-98215998D02*
X95071428Y-97911236D01*
X95071428Y-97911236D02*
X95109523Y-97835045D01*
X95109523Y-97835045D02*
X95147618Y-97796950D01*
X95147618Y-97796950D02*
X95223809Y-97758855D01*
X95223809Y-97758855D02*
X95376190Y-97758855D01*
X95376190Y-97758855D02*
X95452380Y-97796950D01*
X95452380Y-97796950D02*
X95490475Y-97835045D01*
X95490475Y-97835045D02*
X95528571Y-97911236D01*
X95528571Y-97911236D02*
X95528571Y-98101712D01*
X95528571Y-98101712D02*
X95490475Y-98177902D01*
X95490475Y-98177902D02*
X95452380Y-98215998D01*
X95452380Y-98215998D02*
X95376190Y-98254093D01*
X95376190Y-98254093D02*
X95223809Y-98254093D01*
X95223809Y-98254093D02*
X95147618Y-98215998D01*
X95147618Y-98215998D02*
X95109523Y-98177902D01*
X95109523Y-98177902D02*
X95071428Y-98101712D01*
X105914285Y-103942664D02*
X105952381Y-103980760D01*
X105952381Y-103980760D02*
X106066666Y-104018855D01*
X106066666Y-104018855D02*
X106142857Y-104018855D01*
X106142857Y-104018855D02*
X106257143Y-103980760D01*
X106257143Y-103980760D02*
X106333333Y-103904569D01*
X106333333Y-103904569D02*
X106371428Y-103828379D01*
X106371428Y-103828379D02*
X106409524Y-103675998D01*
X106409524Y-103675998D02*
X106409524Y-103561712D01*
X106409524Y-103561712D02*
X106371428Y-103409331D01*
X106371428Y-103409331D02*
X106333333Y-103333140D01*
X106333333Y-103333140D02*
X106257143Y-103256950D01*
X106257143Y-103256950D02*
X106142857Y-103218855D01*
X106142857Y-103218855D02*
X106066666Y-103218855D01*
X106066666Y-103218855D02*
X105952381Y-103256950D01*
X105952381Y-103256950D02*
X105914285Y-103295045D01*
X105152381Y-104018855D02*
X105609524Y-104018855D01*
X105380952Y-104018855D02*
X105380952Y-103218855D01*
X105380952Y-103218855D02*
X105457143Y-103333140D01*
X105457143Y-103333140D02*
X105533333Y-103409331D01*
X105533333Y-103409331D02*
X105609524Y-103447426D01*
X104466666Y-103218855D02*
X104619047Y-103218855D01*
X104619047Y-103218855D02*
X104695238Y-103256950D01*
X104695238Y-103256950D02*
X104733333Y-103295045D01*
X104733333Y-103295045D02*
X104809523Y-103409331D01*
X104809523Y-103409331D02*
X104847619Y-103561712D01*
X104847619Y-103561712D02*
X104847619Y-103866474D01*
X104847619Y-103866474D02*
X104809523Y-103942664D01*
X104809523Y-103942664D02*
X104771428Y-103980760D01*
X104771428Y-103980760D02*
X104695238Y-104018855D01*
X104695238Y-104018855D02*
X104542857Y-104018855D01*
X104542857Y-104018855D02*
X104466666Y-103980760D01*
X104466666Y-103980760D02*
X104428571Y-103942664D01*
X104428571Y-103942664D02*
X104390476Y-103866474D01*
X104390476Y-103866474D02*
X104390476Y-103675998D01*
X104390476Y-103675998D02*
X104428571Y-103599807D01*
X104428571Y-103599807D02*
X104466666Y-103561712D01*
X104466666Y-103561712D02*
X104542857Y-103523617D01*
X104542857Y-103523617D02*
X104695238Y-103523617D01*
X104695238Y-103523617D02*
X104771428Y-103561712D01*
X104771428Y-103561712D02*
X104809523Y-103599807D01*
X104809523Y-103599807D02*
X104847619Y-103675998D01*
X94048332Y-102887664D02*
X94086428Y-102925760D01*
X94086428Y-102925760D02*
X94200713Y-102963855D01*
X94200713Y-102963855D02*
X94276904Y-102963855D01*
X94276904Y-102963855D02*
X94391190Y-102925760D01*
X94391190Y-102925760D02*
X94467380Y-102849569D01*
X94467380Y-102849569D02*
X94505475Y-102773379D01*
X94505475Y-102773379D02*
X94543571Y-102620998D01*
X94543571Y-102620998D02*
X94543571Y-102506712D01*
X94543571Y-102506712D02*
X94505475Y-102354331D01*
X94505475Y-102354331D02*
X94467380Y-102278140D01*
X94467380Y-102278140D02*
X94391190Y-102201950D01*
X94391190Y-102201950D02*
X94276904Y-102163855D01*
X94276904Y-102163855D02*
X94200713Y-102163855D01*
X94200713Y-102163855D02*
X94086428Y-102201950D01*
X94086428Y-102201950D02*
X94048332Y-102240045D01*
X93591190Y-102506712D02*
X93667380Y-102468617D01*
X93667380Y-102468617D02*
X93705475Y-102430521D01*
X93705475Y-102430521D02*
X93743571Y-102354331D01*
X93743571Y-102354331D02*
X93743571Y-102316236D01*
X93743571Y-102316236D02*
X93705475Y-102240045D01*
X93705475Y-102240045D02*
X93667380Y-102201950D01*
X93667380Y-102201950D02*
X93591190Y-102163855D01*
X93591190Y-102163855D02*
X93438809Y-102163855D01*
X93438809Y-102163855D02*
X93362618Y-102201950D01*
X93362618Y-102201950D02*
X93324523Y-102240045D01*
X93324523Y-102240045D02*
X93286428Y-102316236D01*
X93286428Y-102316236D02*
X93286428Y-102354331D01*
X93286428Y-102354331D02*
X93324523Y-102430521D01*
X93324523Y-102430521D02*
X93362618Y-102468617D01*
X93362618Y-102468617D02*
X93438809Y-102506712D01*
X93438809Y-102506712D02*
X93591190Y-102506712D01*
X93591190Y-102506712D02*
X93667380Y-102544807D01*
X93667380Y-102544807D02*
X93705475Y-102582902D01*
X93705475Y-102582902D02*
X93743571Y-102659093D01*
X93743571Y-102659093D02*
X93743571Y-102811474D01*
X93743571Y-102811474D02*
X93705475Y-102887664D01*
X93705475Y-102887664D02*
X93667380Y-102925760D01*
X93667380Y-102925760D02*
X93591190Y-102963855D01*
X93591190Y-102963855D02*
X93438809Y-102963855D01*
X93438809Y-102963855D02*
X93362618Y-102925760D01*
X93362618Y-102925760D02*
X93324523Y-102887664D01*
X93324523Y-102887664D02*
X93286428Y-102811474D01*
X93286428Y-102811474D02*
X93286428Y-102659093D01*
X93286428Y-102659093D02*
X93324523Y-102582902D01*
X93324523Y-102582902D02*
X93362618Y-102544807D01*
X93362618Y-102544807D02*
X93438809Y-102506712D01*
X94189285Y-101037664D02*
X94227381Y-101075760D01*
X94227381Y-101075760D02*
X94341666Y-101113855D01*
X94341666Y-101113855D02*
X94417857Y-101113855D01*
X94417857Y-101113855D02*
X94532143Y-101075760D01*
X94532143Y-101075760D02*
X94608333Y-100999569D01*
X94608333Y-100999569D02*
X94646428Y-100923379D01*
X94646428Y-100923379D02*
X94684524Y-100770998D01*
X94684524Y-100770998D02*
X94684524Y-100656712D01*
X94684524Y-100656712D02*
X94646428Y-100504331D01*
X94646428Y-100504331D02*
X94608333Y-100428140D01*
X94608333Y-100428140D02*
X94532143Y-100351950D01*
X94532143Y-100351950D02*
X94417857Y-100313855D01*
X94417857Y-100313855D02*
X94341666Y-100313855D01*
X94341666Y-100313855D02*
X94227381Y-100351950D01*
X94227381Y-100351950D02*
X94189285Y-100390045D01*
X93427381Y-101113855D02*
X93884524Y-101113855D01*
X93655952Y-101113855D02*
X93655952Y-100313855D01*
X93655952Y-100313855D02*
X93732143Y-100428140D01*
X93732143Y-100428140D02*
X93808333Y-100504331D01*
X93808333Y-100504331D02*
X93884524Y-100542426D01*
X92932142Y-100313855D02*
X92855952Y-100313855D01*
X92855952Y-100313855D02*
X92779761Y-100351950D01*
X92779761Y-100351950D02*
X92741666Y-100390045D01*
X92741666Y-100390045D02*
X92703571Y-100466236D01*
X92703571Y-100466236D02*
X92665476Y-100618617D01*
X92665476Y-100618617D02*
X92665476Y-100809093D01*
X92665476Y-100809093D02*
X92703571Y-100961474D01*
X92703571Y-100961474D02*
X92741666Y-101037664D01*
X92741666Y-101037664D02*
X92779761Y-101075760D01*
X92779761Y-101075760D02*
X92855952Y-101113855D01*
X92855952Y-101113855D02*
X92932142Y-101113855D01*
X92932142Y-101113855D02*
X93008333Y-101075760D01*
X93008333Y-101075760D02*
X93046428Y-101037664D01*
X93046428Y-101037664D02*
X93084523Y-100961474D01*
X93084523Y-100961474D02*
X93122619Y-100809093D01*
X93122619Y-100809093D02*
X93122619Y-100618617D01*
X93122619Y-100618617D02*
X93084523Y-100466236D01*
X93084523Y-100466236D02*
X93046428Y-100390045D01*
X93046428Y-100390045D02*
X93008333Y-100351950D01*
X93008333Y-100351950D02*
X92932142Y-100313855D01*
X109414285Y-100392664D02*
X109452381Y-100430760D01*
X109452381Y-100430760D02*
X109566666Y-100468855D01*
X109566666Y-100468855D02*
X109642857Y-100468855D01*
X109642857Y-100468855D02*
X109757143Y-100430760D01*
X109757143Y-100430760D02*
X109833333Y-100354569D01*
X109833333Y-100354569D02*
X109871428Y-100278379D01*
X109871428Y-100278379D02*
X109909524Y-100125998D01*
X109909524Y-100125998D02*
X109909524Y-100011712D01*
X109909524Y-100011712D02*
X109871428Y-99859331D01*
X109871428Y-99859331D02*
X109833333Y-99783140D01*
X109833333Y-99783140D02*
X109757143Y-99706950D01*
X109757143Y-99706950D02*
X109642857Y-99668855D01*
X109642857Y-99668855D02*
X109566666Y-99668855D01*
X109566666Y-99668855D02*
X109452381Y-99706950D01*
X109452381Y-99706950D02*
X109414285Y-99745045D01*
X108652381Y-100468855D02*
X109109524Y-100468855D01*
X108880952Y-100468855D02*
X108880952Y-99668855D01*
X108880952Y-99668855D02*
X108957143Y-99783140D01*
X108957143Y-99783140D02*
X109033333Y-99859331D01*
X109033333Y-99859331D02*
X109109524Y-99897426D01*
X107966666Y-99935521D02*
X107966666Y-100468855D01*
X108157142Y-99630760D02*
X108347619Y-100202188D01*
X108347619Y-100202188D02*
X107852380Y-100202188D01*
X100609523Y-95093855D02*
X100609523Y-95741474D01*
X100609523Y-95741474D02*
X100571428Y-95817664D01*
X100571428Y-95817664D02*
X100533333Y-95855760D01*
X100533333Y-95855760D02*
X100457142Y-95893855D01*
X100457142Y-95893855D02*
X100304761Y-95893855D01*
X100304761Y-95893855D02*
X100228571Y-95855760D01*
X100228571Y-95855760D02*
X100190476Y-95817664D01*
X100190476Y-95817664D02*
X100152380Y-95741474D01*
X100152380Y-95741474D02*
X100152380Y-95093855D01*
X99352381Y-95893855D02*
X99809524Y-95893855D01*
X99580952Y-95893855D02*
X99580952Y-95093855D01*
X99580952Y-95093855D02*
X99657143Y-95208140D01*
X99657143Y-95208140D02*
X99733333Y-95284331D01*
X99733333Y-95284331D02*
X99809524Y-95322426D01*
X105914285Y-99832664D02*
X105952381Y-99870760D01*
X105952381Y-99870760D02*
X106066666Y-99908855D01*
X106066666Y-99908855D02*
X106142857Y-99908855D01*
X106142857Y-99908855D02*
X106257143Y-99870760D01*
X106257143Y-99870760D02*
X106333333Y-99794569D01*
X106333333Y-99794569D02*
X106371428Y-99718379D01*
X106371428Y-99718379D02*
X106409524Y-99565998D01*
X106409524Y-99565998D02*
X106409524Y-99451712D01*
X106409524Y-99451712D02*
X106371428Y-99299331D01*
X106371428Y-99299331D02*
X106333333Y-99223140D01*
X106333333Y-99223140D02*
X106257143Y-99146950D01*
X106257143Y-99146950D02*
X106142857Y-99108855D01*
X106142857Y-99108855D02*
X106066666Y-99108855D01*
X106066666Y-99108855D02*
X105952381Y-99146950D01*
X105952381Y-99146950D02*
X105914285Y-99185045D01*
X105152381Y-99908855D02*
X105609524Y-99908855D01*
X105380952Y-99908855D02*
X105380952Y-99108855D01*
X105380952Y-99108855D02*
X105457143Y-99223140D01*
X105457143Y-99223140D02*
X105533333Y-99299331D01*
X105533333Y-99299331D02*
X105609524Y-99337426D01*
X104885714Y-99108855D02*
X104390476Y-99108855D01*
X104390476Y-99108855D02*
X104657142Y-99413617D01*
X104657142Y-99413617D02*
X104542857Y-99413617D01*
X104542857Y-99413617D02*
X104466666Y-99451712D01*
X104466666Y-99451712D02*
X104428571Y-99489807D01*
X104428571Y-99489807D02*
X104390476Y-99565998D01*
X104390476Y-99565998D02*
X104390476Y-99756474D01*
X104390476Y-99756474D02*
X104428571Y-99832664D01*
X104428571Y-99832664D02*
X104466666Y-99870760D01*
X104466666Y-99870760D02*
X104542857Y-99908855D01*
X104542857Y-99908855D02*
X104771428Y-99908855D01*
X104771428Y-99908855D02*
X104847619Y-99870760D01*
X104847619Y-99870760D02*
X104885714Y-99832664D01*
%TO.C,FB3*%
X107090000Y-98437221D02*
X107090000Y-98762779D01*
X108110000Y-98437221D02*
X108110000Y-98762779D01*
%TO.C,FB1*%
X95137221Y-104490000D02*
X95462779Y-104490000D01*
X95137221Y-105510000D02*
X95462779Y-105510000D01*
%TO.C,C17*%
X107940000Y-107892164D02*
X107940000Y-108107836D01*
X108660000Y-107892164D02*
X108660000Y-108107836D01*
%TO.C,C7*%
X98640000Y-105792164D02*
X98640000Y-106007836D01*
X99360000Y-105792164D02*
X99360000Y-106007836D01*
%TO.C,C6*%
X99640000Y-105792164D02*
X99640000Y-106007836D01*
X100360000Y-105792164D02*
X100360000Y-106007836D01*
%TO.C,D1*%
D11*
X97200000Y-124500000D02*
X97200000Y-125500000D01*
X102700000Y-122500000D02*
X97300000Y-122500000D01*
X102700000Y-125500000D02*
X97200000Y-125500000D01*
%TO.C,Y1*%
D10*
X107360000Y-106490000D02*
X107360000Y-109510000D01*
X107360000Y-109510000D02*
X103840000Y-109510000D01*
%TO.C,C9*%
X95807836Y-98890000D02*
X95592164Y-98890000D01*
X95807836Y-99610000D02*
X95592164Y-99610000D01*
%TO.C,C16*%
X105292164Y-102240000D02*
X105507836Y-102240000D01*
X105292164Y-102960000D02*
X105507836Y-102960000D01*
%TO.C,FB2*%
X107090000Y-102162779D02*
X107090000Y-101837221D01*
X108110000Y-102162779D02*
X108110000Y-101837221D01*
%TO.C,C8*%
X95807836Y-102240000D02*
X95592164Y-102240000D01*
X95807836Y-102960000D02*
X95592164Y-102960000D01*
%TO.C,C15*%
X100640000Y-105792164D02*
X100640000Y-106007836D01*
X101360000Y-105792164D02*
X101360000Y-106007836D01*
%TO.C,C10*%
X95807836Y-100390000D02*
X95592164Y-100390000D01*
X95807836Y-101110000D02*
X95592164Y-101110000D01*
%TO.C,C5*%
X102640000Y-105792164D02*
X102640000Y-106007836D01*
X103360000Y-105792164D02*
X103360000Y-106007836D01*
%TO.C,C14*%
X108540000Y-98707836D02*
X108540000Y-98492164D01*
X109260000Y-98707836D02*
X109260000Y-98492164D01*
%TO.C,U1*%
X97725000Y-96975000D02*
X102275000Y-96975000D01*
X102275000Y-103025000D01*
X97725000Y-103025000D01*
X97725000Y-96975000D01*
D12*
X102100000Y-96575000D02*
G75*
G02*
X101900000Y-96575000I-100000J0D01*
G01*
X101900000Y-96575000D02*
G75*
G02*
X102100000Y-96575000I100000J0D01*
G01*
%TO.C,R4*%
D10*
X101620000Y-106053641D02*
X101620000Y-105746359D01*
X102380000Y-106053641D02*
X102380000Y-105746359D01*
%TO.C,C12*%
X108540000Y-101892164D02*
X108540000Y-102107836D01*
X109260000Y-101892164D02*
X109260000Y-102107836D01*
%TO.C,C13*%
X105292164Y-100240000D02*
X105507836Y-100240000D01*
X105292164Y-100960000D02*
X105507836Y-100960000D01*
%TO.C,C11*%
X105292164Y-101240000D02*
X105507836Y-101240000D01*
X105292164Y-101960000D02*
X105507836Y-101960000D01*
%TD*%
%LPC*%
D13*
%TO.C,J2*%
X77460000Y-113000000D03*
X82540000Y-111984000D03*
X82540000Y-114016000D03*
%TD*%
D14*
%TO.C,J1*%
X96250000Y-116000000D03*
D15*
X103750000Y-116000000D03*
D16*
X97600000Y-113850000D03*
X97600000Y-118150000D03*
X102400000Y-113850000D03*
X102400000Y-118150000D03*
%TD*%
D17*
%TO.C,FB3*%
X107600000Y-97812500D03*
X107600000Y-99387500D03*
%TD*%
D18*
%TO.C,FB1*%
X94512500Y-105000000D03*
X96087500Y-105000000D03*
%TD*%
D19*
%TO.C,C17*%
X108300000Y-107520000D03*
X108300000Y-108480000D03*
%TD*%
%TO.C,C7*%
X99000000Y-105420000D03*
X99000000Y-106380000D03*
%TD*%
%TO.C,C6*%
X100000000Y-105420000D03*
X100000000Y-106380000D03*
%TD*%
D20*
%TO.C,D1*%
X98250000Y-124700000D03*
X98250000Y-123300000D03*
X101750000Y-123300000D03*
X101750000Y-124700000D03*
%TD*%
D21*
%TO.C,Y1*%
X106550000Y-108750000D03*
X104650000Y-108750000D03*
X104650000Y-107250000D03*
X106550000Y-107250000D03*
%TD*%
D22*
%TO.C,C9*%
X96180000Y-99250000D03*
X95220000Y-99250000D03*
%TD*%
D23*
%TO.C,C16*%
X104920000Y-102600000D03*
X105880000Y-102600000D03*
%TD*%
D24*
%TO.C,FB2*%
X107600000Y-102787500D03*
X107600000Y-101212500D03*
%TD*%
D22*
%TO.C,C8*%
X96180000Y-102600000D03*
X95220000Y-102600000D03*
%TD*%
D19*
%TO.C,C15*%
X101000000Y-105420000D03*
X101000000Y-106380000D03*
%TD*%
D22*
%TO.C,C10*%
X96180000Y-100750000D03*
X95220000Y-100750000D03*
%TD*%
D19*
%TO.C,C5*%
X103000000Y-105420000D03*
X103000000Y-106380000D03*
%TD*%
D25*
%TO.C,C14*%
X108900000Y-99080000D03*
X108900000Y-98120000D03*
%TD*%
D26*
%TO.C,U1*%
X102000000Y-97250000D03*
X101500000Y-97250000D03*
X101000000Y-97250000D03*
X100500000Y-97250000D03*
X100000000Y-97250000D03*
X99500000Y-97250000D03*
X99000000Y-97250000D03*
X98500000Y-97250000D03*
X98000000Y-97250000D03*
X102000000Y-97750000D03*
X101000000Y-97750000D03*
X100500000Y-97750000D03*
X98500000Y-97750000D03*
X98000000Y-97750000D03*
X102000000Y-98250000D03*
X98000000Y-98250000D03*
X102000000Y-98750000D03*
X98000000Y-98750000D03*
X102000000Y-99250000D03*
X98000000Y-99250000D03*
X102000000Y-99750000D03*
X98000000Y-99750000D03*
X102000000Y-100250000D03*
X98000000Y-100250000D03*
X102000000Y-100750000D03*
X98000000Y-100750000D03*
X102000000Y-101250000D03*
X98000000Y-101250000D03*
X102000000Y-101750000D03*
X98000000Y-101750000D03*
X102000000Y-102250000D03*
X98000000Y-102250000D03*
X102000000Y-102750000D03*
X101500000Y-102750000D03*
X101000000Y-102750000D03*
X100500000Y-102750000D03*
X100000000Y-102750000D03*
X99500000Y-102750000D03*
X99000000Y-102750000D03*
X98000000Y-102750000D03*
%TD*%
D27*
%TO.C,R4*%
X102000000Y-106410000D03*
X102000000Y-105390000D03*
%TD*%
D19*
%TO.C,C12*%
X108900000Y-101520000D03*
X108900000Y-102480000D03*
%TD*%
D23*
%TO.C,C13*%
X104920000Y-100600000D03*
X105880000Y-100600000D03*
%TD*%
%TO.C,C11*%
X104920000Y-101600000D03*
X105880000Y-101600000D03*
%TD*%
%LPD*%
M02*
