%TF.GenerationSoftware,KiCad,Pcbnew,10.0.6-10.0.6~ubuntu24.04.1*%
%TF.CreationDate,2026-10-06T00:25:11+00:00*%
%TF.ProjectId,radar60,72616461-7236-4302-9e6b-696361645f70,rev?*%
%TF.SameCoordinates,Original*%
%TF.FileFunction,Drillmap*%
%TF.FilePolarity,Positive*%
%FSLAX45Y45*%
G04 Gerber Fmt 4.5, Leading zero omitted, Abs format (unit mm)*
G04 Created by KiCad (PCBNEW 10.0.6-10.0.6~ubuntu24.04.1) date 2026-10-06 00:25:11*
%MOMM*%
%LPD*%
G01*
G04 APERTURE LIST*
%ADD10C,0.050000*%
%ADD11C,0.200000*%
%ADD12C,0.100000*%
G04 APERTURE END LIST*
D10*
X7000000Y-10000000D02*
G75*
G02*
X10000000Y-7000000I3000000J0D01*
G01*
X10000000Y-7000000D02*
G75*
G02*
X13000000Y-10000000I0J-3000000D01*
G01*
X10000000Y-13000000D02*
G75*
G02*
X7000000Y-10000000I0J3000000D01*
G01*
X13000000Y-10000000D02*
G75*
G02*
X10000000Y-13000000I-3000000J0D01*
G01*
D11*
D12*
X10346000Y-11571000D02*
X10404000Y-11629000D01*
X10404000Y-11571000D02*
X10346000Y-11629000D01*
X10354000Y-11629000D02*
X10396000Y-11629000D01*
X10396000Y-11571000D02*
G75*
G02*
X10396000Y-11629000I0J-29000D01*
G01*
X10396000Y-11571000D02*
X10354000Y-11571000D01*
X10354000Y-11571000D02*
G75*
G03*
X10354000Y-11629000I0J-29000D01*
G01*
X9658000Y-11600000D02*
G75*
G02*
X9592000Y-11600000I-33000J0D01*
G01*
X9592000Y-11600000D02*
G75*
G02*
X9658000Y-11600000I33000J0D01*
G01*
X7746000Y-11250470D02*
X7746000Y-11349530D01*
X7696470Y-11300000D02*
X7795530Y-11300000D01*
X8254000Y-11148870D02*
X8254000Y-11247930D01*
X8204470Y-11198400D02*
X8303530Y-11198400D01*
X8254000Y-11352070D02*
X8254000Y-11451130D01*
X8204470Y-11401600D02*
X8303530Y-11401600D01*
D11*
X7258277Y-13313984D02*
X7258277Y-13113984D01*
X7258277Y-13113984D02*
X7305896Y-13113984D01*
X7305896Y-13113984D02*
X7334467Y-13123508D01*
X7334467Y-13123508D02*
X7353515Y-13142555D01*
X7353515Y-13142555D02*
X7363039Y-13161603D01*
X7363039Y-13161603D02*
X7372562Y-13199698D01*
X7372562Y-13199698D02*
X7372562Y-13228269D01*
X7372562Y-13228269D02*
X7363039Y-13266365D01*
X7363039Y-13266365D02*
X7353515Y-13285412D01*
X7353515Y-13285412D02*
X7334467Y-13304460D01*
X7334467Y-13304460D02*
X7305896Y-13313984D01*
X7305896Y-13313984D02*
X7258277Y-13313984D01*
X7458277Y-13313984D02*
X7458277Y-13180650D01*
X7458277Y-13218746D02*
X7467801Y-13199698D01*
X7467801Y-13199698D02*
X7477324Y-13190174D01*
X7477324Y-13190174D02*
X7496372Y-13180650D01*
X7496372Y-13180650D02*
X7515420Y-13180650D01*
X7582086Y-13313984D02*
X7582086Y-13180650D01*
X7582086Y-13113984D02*
X7572562Y-13123508D01*
X7572562Y-13123508D02*
X7582086Y-13133031D01*
X7582086Y-13133031D02*
X7591610Y-13123508D01*
X7591610Y-13123508D02*
X7582086Y-13113984D01*
X7582086Y-13113984D02*
X7582086Y-13133031D01*
X7705896Y-13313984D02*
X7686848Y-13304460D01*
X7686848Y-13304460D02*
X7677324Y-13285412D01*
X7677324Y-13285412D02*
X7677324Y-13113984D01*
X7810658Y-13313984D02*
X7791610Y-13304460D01*
X7791610Y-13304460D02*
X7782086Y-13285412D01*
X7782086Y-13285412D02*
X7782086Y-13113984D01*
X8039229Y-13313984D02*
X8039229Y-13113984D01*
X8039229Y-13113984D02*
X8105896Y-13256841D01*
X8105896Y-13256841D02*
X8172562Y-13113984D01*
X8172562Y-13113984D02*
X8172562Y-13313984D01*
X8353515Y-13313984D02*
X8353515Y-13209222D01*
X8353515Y-13209222D02*
X8343991Y-13190174D01*
X8343991Y-13190174D02*
X8324943Y-13180650D01*
X8324943Y-13180650D02*
X8286848Y-13180650D01*
X8286848Y-13180650D02*
X8267801Y-13190174D01*
X8353515Y-13304460D02*
X8334467Y-13313984D01*
X8334467Y-13313984D02*
X8286848Y-13313984D01*
X8286848Y-13313984D02*
X8267801Y-13304460D01*
X8267801Y-13304460D02*
X8258277Y-13285412D01*
X8258277Y-13285412D02*
X8258277Y-13266365D01*
X8258277Y-13266365D02*
X8267801Y-13247317D01*
X8267801Y-13247317D02*
X8286848Y-13237793D01*
X8286848Y-13237793D02*
X8334467Y-13237793D01*
X8334467Y-13237793D02*
X8353515Y-13228269D01*
X8448753Y-13180650D02*
X8448753Y-13380650D01*
X8448753Y-13190174D02*
X8467801Y-13180650D01*
X8467801Y-13180650D02*
X8505896Y-13180650D01*
X8505896Y-13180650D02*
X8524944Y-13190174D01*
X8524944Y-13190174D02*
X8534467Y-13199698D01*
X8534467Y-13199698D02*
X8543991Y-13218746D01*
X8543991Y-13218746D02*
X8543991Y-13275888D01*
X8543991Y-13275888D02*
X8534467Y-13294936D01*
X8534467Y-13294936D02*
X8524944Y-13304460D01*
X8524944Y-13304460D02*
X8505896Y-13313984D01*
X8505896Y-13313984D02*
X8467801Y-13313984D01*
X8467801Y-13313984D02*
X8448753Y-13304460D01*
X8629705Y-13294936D02*
X8639229Y-13304460D01*
X8639229Y-13304460D02*
X8629705Y-13313984D01*
X8629705Y-13313984D02*
X8620182Y-13304460D01*
X8620182Y-13304460D02*
X8629705Y-13294936D01*
X8629705Y-13294936D02*
X8629705Y-13313984D01*
X8629705Y-13190174D02*
X8639229Y-13199698D01*
X8639229Y-13199698D02*
X8629705Y-13209222D01*
X8629705Y-13209222D02*
X8620182Y-13199698D01*
X8620182Y-13199698D02*
X8629705Y-13190174D01*
X8629705Y-13190174D02*
X8629705Y-13209222D01*
D12*
X6939500Y-13613500D02*
X6997500Y-13671500D01*
X6997500Y-13613500D02*
X6939500Y-13671500D01*
D11*
X7296372Y-13533984D02*
X7315420Y-13533984D01*
X7315420Y-13533984D02*
X7334467Y-13543508D01*
X7334467Y-13543508D02*
X7343991Y-13553031D01*
X7343991Y-13553031D02*
X7353515Y-13572079D01*
X7353515Y-13572079D02*
X7363039Y-13610174D01*
X7363039Y-13610174D02*
X7363039Y-13657793D01*
X7363039Y-13657793D02*
X7353515Y-13695888D01*
X7353515Y-13695888D02*
X7343991Y-13714936D01*
X7343991Y-13714936D02*
X7334467Y-13724460D01*
X7334467Y-13724460D02*
X7315420Y-13733984D01*
X7315420Y-13733984D02*
X7296372Y-13733984D01*
X7296372Y-13733984D02*
X7277324Y-13724460D01*
X7277324Y-13724460D02*
X7267801Y-13714936D01*
X7267801Y-13714936D02*
X7258277Y-13695888D01*
X7258277Y-13695888D02*
X7248753Y-13657793D01*
X7248753Y-13657793D02*
X7248753Y-13610174D01*
X7248753Y-13610174D02*
X7258277Y-13572079D01*
X7258277Y-13572079D02*
X7267801Y-13553031D01*
X7267801Y-13553031D02*
X7277324Y-13543508D01*
X7277324Y-13543508D02*
X7296372Y-13533984D01*
X7448753Y-13714936D02*
X7458277Y-13724460D01*
X7458277Y-13724460D02*
X7448753Y-13733984D01*
X7448753Y-13733984D02*
X7439229Y-13724460D01*
X7439229Y-13724460D02*
X7448753Y-13714936D01*
X7448753Y-13714936D02*
X7448753Y-13733984D01*
X7639229Y-13533984D02*
X7543991Y-13533984D01*
X7543991Y-13533984D02*
X7534467Y-13629222D01*
X7534467Y-13629222D02*
X7543991Y-13619698D01*
X7543991Y-13619698D02*
X7563039Y-13610174D01*
X7563039Y-13610174D02*
X7610658Y-13610174D01*
X7610658Y-13610174D02*
X7629705Y-13619698D01*
X7629705Y-13619698D02*
X7639229Y-13629222D01*
X7639229Y-13629222D02*
X7648753Y-13648269D01*
X7648753Y-13648269D02*
X7648753Y-13695888D01*
X7648753Y-13695888D02*
X7639229Y-13714936D01*
X7639229Y-13714936D02*
X7629705Y-13724460D01*
X7629705Y-13724460D02*
X7610658Y-13733984D01*
X7610658Y-13733984D02*
X7563039Y-13733984D01*
X7563039Y-13733984D02*
X7543991Y-13724460D01*
X7543991Y-13724460D02*
X7534467Y-13714936D01*
X7763039Y-13619698D02*
X7743991Y-13610174D01*
X7743991Y-13610174D02*
X7734467Y-13600650D01*
X7734467Y-13600650D02*
X7724943Y-13581603D01*
X7724943Y-13581603D02*
X7724943Y-13572079D01*
X7724943Y-13572079D02*
X7734467Y-13553031D01*
X7734467Y-13553031D02*
X7743991Y-13543508D01*
X7743991Y-13543508D02*
X7763039Y-13533984D01*
X7763039Y-13533984D02*
X7801134Y-13533984D01*
X7801134Y-13533984D02*
X7820182Y-13543508D01*
X7820182Y-13543508D02*
X7829705Y-13553031D01*
X7829705Y-13553031D02*
X7839229Y-13572079D01*
X7839229Y-13572079D02*
X7839229Y-13581603D01*
X7839229Y-13581603D02*
X7829705Y-13600650D01*
X7829705Y-13600650D02*
X7820182Y-13610174D01*
X7820182Y-13610174D02*
X7801134Y-13619698D01*
X7801134Y-13619698D02*
X7763039Y-13619698D01*
X7763039Y-13619698D02*
X7743991Y-13629222D01*
X7743991Y-13629222D02*
X7734467Y-13638746D01*
X7734467Y-13638746D02*
X7724943Y-13657793D01*
X7724943Y-13657793D02*
X7724943Y-13695888D01*
X7724943Y-13695888D02*
X7734467Y-13714936D01*
X7734467Y-13714936D02*
X7743991Y-13724460D01*
X7743991Y-13724460D02*
X7763039Y-13733984D01*
X7763039Y-13733984D02*
X7801134Y-13733984D01*
X7801134Y-13733984D02*
X7820182Y-13724460D01*
X7820182Y-13724460D02*
X7829705Y-13714936D01*
X7829705Y-13714936D02*
X7839229Y-13695888D01*
X7839229Y-13695888D02*
X7839229Y-13657793D01*
X7839229Y-13657793D02*
X7829705Y-13638746D01*
X7829705Y-13638746D02*
X7820182Y-13629222D01*
X7820182Y-13629222D02*
X7801134Y-13619698D01*
X7963039Y-13533984D02*
X7982086Y-13533984D01*
X7982086Y-13533984D02*
X8001134Y-13543508D01*
X8001134Y-13543508D02*
X8010658Y-13553031D01*
X8010658Y-13553031D02*
X8020182Y-13572079D01*
X8020182Y-13572079D02*
X8029705Y-13610174D01*
X8029705Y-13610174D02*
X8029705Y-13657793D01*
X8029705Y-13657793D02*
X8020182Y-13695888D01*
X8020182Y-13695888D02*
X8010658Y-13714936D01*
X8010658Y-13714936D02*
X8001134Y-13724460D01*
X8001134Y-13724460D02*
X7982086Y-13733984D01*
X7982086Y-13733984D02*
X7963039Y-13733984D01*
X7963039Y-13733984D02*
X7943991Y-13724460D01*
X7943991Y-13724460D02*
X7934467Y-13714936D01*
X7934467Y-13714936D02*
X7924943Y-13695888D01*
X7924943Y-13695888D02*
X7915420Y-13657793D01*
X7915420Y-13657793D02*
X7915420Y-13610174D01*
X7915420Y-13610174D02*
X7924943Y-13572079D01*
X7924943Y-13572079D02*
X7934467Y-13553031D01*
X7934467Y-13553031D02*
X7943991Y-13543508D01*
X7943991Y-13543508D02*
X7963039Y-13533984D01*
X8115420Y-13733984D02*
X8115420Y-13600650D01*
X8115420Y-13619698D02*
X8124943Y-13610174D01*
X8124943Y-13610174D02*
X8143991Y-13600650D01*
X8143991Y-13600650D02*
X8172563Y-13600650D01*
X8172563Y-13600650D02*
X8191610Y-13610174D01*
X8191610Y-13610174D02*
X8201134Y-13629222D01*
X8201134Y-13629222D02*
X8201134Y-13733984D01*
X8201134Y-13629222D02*
X8210658Y-13610174D01*
X8210658Y-13610174D02*
X8229705Y-13600650D01*
X8229705Y-13600650D02*
X8258277Y-13600650D01*
X8258277Y-13600650D02*
X8277324Y-13610174D01*
X8277324Y-13610174D02*
X8286848Y-13629222D01*
X8286848Y-13629222D02*
X8286848Y-13733984D01*
X8382086Y-13733984D02*
X8382086Y-13600650D01*
X8382086Y-13619698D02*
X8391610Y-13610174D01*
X8391610Y-13610174D02*
X8410658Y-13600650D01*
X8410658Y-13600650D02*
X8439229Y-13600650D01*
X8439229Y-13600650D02*
X8458277Y-13610174D01*
X8458277Y-13610174D02*
X8467801Y-13629222D01*
X8467801Y-13629222D02*
X8467801Y-13733984D01*
X8467801Y-13629222D02*
X8477325Y-13610174D01*
X8477325Y-13610174D02*
X8496372Y-13600650D01*
X8496372Y-13600650D02*
X8524944Y-13600650D01*
X8524944Y-13600650D02*
X8543991Y-13610174D01*
X8543991Y-13610174D02*
X8553515Y-13629222D01*
X8553515Y-13629222D02*
X8553515Y-13733984D01*
X8943991Y-13524460D02*
X8772563Y-13781603D01*
X9201134Y-13533984D02*
X9220182Y-13533984D01*
X9220182Y-13533984D02*
X9239229Y-13543508D01*
X9239229Y-13543508D02*
X9248753Y-13553031D01*
X9248753Y-13553031D02*
X9258277Y-13572079D01*
X9258277Y-13572079D02*
X9267801Y-13610174D01*
X9267801Y-13610174D02*
X9267801Y-13657793D01*
X9267801Y-13657793D02*
X9258277Y-13695888D01*
X9258277Y-13695888D02*
X9248753Y-13714936D01*
X9248753Y-13714936D02*
X9239229Y-13724460D01*
X9239229Y-13724460D02*
X9220182Y-13733984D01*
X9220182Y-13733984D02*
X9201134Y-13733984D01*
X9201134Y-13733984D02*
X9182087Y-13724460D01*
X9182087Y-13724460D02*
X9172563Y-13714936D01*
X9172563Y-13714936D02*
X9163039Y-13695888D01*
X9163039Y-13695888D02*
X9153515Y-13657793D01*
X9153515Y-13657793D02*
X9153515Y-13610174D01*
X9153515Y-13610174D02*
X9163039Y-13572079D01*
X9163039Y-13572079D02*
X9172563Y-13553031D01*
X9172563Y-13553031D02*
X9182087Y-13543508D01*
X9182087Y-13543508D02*
X9201134Y-13533984D01*
X9353515Y-13714936D02*
X9363039Y-13724460D01*
X9363039Y-13724460D02*
X9353515Y-13733984D01*
X9353515Y-13733984D02*
X9343991Y-13724460D01*
X9343991Y-13724460D02*
X9353515Y-13714936D01*
X9353515Y-13714936D02*
X9353515Y-13733984D01*
X9486848Y-13533984D02*
X9505896Y-13533984D01*
X9505896Y-13533984D02*
X9524944Y-13543508D01*
X9524944Y-13543508D02*
X9534468Y-13553031D01*
X9534468Y-13553031D02*
X9543991Y-13572079D01*
X9543991Y-13572079D02*
X9553515Y-13610174D01*
X9553515Y-13610174D02*
X9553515Y-13657793D01*
X9553515Y-13657793D02*
X9543991Y-13695888D01*
X9543991Y-13695888D02*
X9534468Y-13714936D01*
X9534468Y-13714936D02*
X9524944Y-13724460D01*
X9524944Y-13724460D02*
X9505896Y-13733984D01*
X9505896Y-13733984D02*
X9486848Y-13733984D01*
X9486848Y-13733984D02*
X9467801Y-13724460D01*
X9467801Y-13724460D02*
X9458277Y-13714936D01*
X9458277Y-13714936D02*
X9448753Y-13695888D01*
X9448753Y-13695888D02*
X9439229Y-13657793D01*
X9439229Y-13657793D02*
X9439229Y-13610174D01*
X9439229Y-13610174D02*
X9448753Y-13572079D01*
X9448753Y-13572079D02*
X9458277Y-13553031D01*
X9458277Y-13553031D02*
X9467801Y-13543508D01*
X9467801Y-13543508D02*
X9486848Y-13533984D01*
X9629706Y-13553031D02*
X9639229Y-13543508D01*
X9639229Y-13543508D02*
X9658277Y-13533984D01*
X9658277Y-13533984D02*
X9705896Y-13533984D01*
X9705896Y-13533984D02*
X9724944Y-13543508D01*
X9724944Y-13543508D02*
X9734468Y-13553031D01*
X9734468Y-13553031D02*
X9743991Y-13572079D01*
X9743991Y-13572079D02*
X9743991Y-13591127D01*
X9743991Y-13591127D02*
X9734468Y-13619698D01*
X9734468Y-13619698D02*
X9620182Y-13733984D01*
X9620182Y-13733984D02*
X9743991Y-13733984D01*
X9820182Y-13553031D02*
X9829706Y-13543508D01*
X9829706Y-13543508D02*
X9848753Y-13533984D01*
X9848753Y-13533984D02*
X9896372Y-13533984D01*
X9896372Y-13533984D02*
X9915420Y-13543508D01*
X9915420Y-13543508D02*
X9924944Y-13553031D01*
X9924944Y-13553031D02*
X9934468Y-13572079D01*
X9934468Y-13572079D02*
X9934468Y-13591127D01*
X9934468Y-13591127D02*
X9924944Y-13619698D01*
X9924944Y-13619698D02*
X9810658Y-13733984D01*
X9810658Y-13733984D02*
X9934468Y-13733984D01*
X10048753Y-13619698D02*
X10029706Y-13610174D01*
X10029706Y-13610174D02*
X10020182Y-13600650D01*
X10020182Y-13600650D02*
X10010658Y-13581603D01*
X10010658Y-13581603D02*
X10010658Y-13572079D01*
X10010658Y-13572079D02*
X10020182Y-13553031D01*
X10020182Y-13553031D02*
X10029706Y-13543508D01*
X10029706Y-13543508D02*
X10048753Y-13533984D01*
X10048753Y-13533984D02*
X10086849Y-13533984D01*
X10086849Y-13533984D02*
X10105896Y-13543508D01*
X10105896Y-13543508D02*
X10115420Y-13553031D01*
X10115420Y-13553031D02*
X10124944Y-13572079D01*
X10124944Y-13572079D02*
X10124944Y-13581603D01*
X10124944Y-13581603D02*
X10115420Y-13600650D01*
X10115420Y-13600650D02*
X10105896Y-13610174D01*
X10105896Y-13610174D02*
X10086849Y-13619698D01*
X10086849Y-13619698D02*
X10048753Y-13619698D01*
X10048753Y-13619698D02*
X10029706Y-13629222D01*
X10029706Y-13629222D02*
X10020182Y-13638746D01*
X10020182Y-13638746D02*
X10010658Y-13657793D01*
X10010658Y-13657793D02*
X10010658Y-13695888D01*
X10010658Y-13695888D02*
X10020182Y-13714936D01*
X10020182Y-13714936D02*
X10029706Y-13724460D01*
X10029706Y-13724460D02*
X10048753Y-13733984D01*
X10048753Y-13733984D02*
X10086849Y-13733984D01*
X10086849Y-13733984D02*
X10105896Y-13724460D01*
X10105896Y-13724460D02*
X10115420Y-13714936D01*
X10115420Y-13714936D02*
X10124944Y-13695888D01*
X10124944Y-13695888D02*
X10124944Y-13657793D01*
X10124944Y-13657793D02*
X10115420Y-13638746D01*
X10115420Y-13638746D02*
X10105896Y-13629222D01*
X10105896Y-13629222D02*
X10086849Y-13619698D01*
X10201134Y-13533984D02*
X10201134Y-13572079D01*
X10277325Y-13533984D02*
X10277325Y-13572079D01*
X10572563Y-13810174D02*
X10563039Y-13800650D01*
X10563039Y-13800650D02*
X10543991Y-13772079D01*
X10543991Y-13772079D02*
X10534468Y-13753031D01*
X10534468Y-13753031D02*
X10524944Y-13724460D01*
X10524944Y-13724460D02*
X10515420Y-13676841D01*
X10515420Y-13676841D02*
X10515420Y-13638746D01*
X10515420Y-13638746D02*
X10524944Y-13591127D01*
X10524944Y-13591127D02*
X10534468Y-13562555D01*
X10534468Y-13562555D02*
X10543991Y-13543508D01*
X10543991Y-13543508D02*
X10563039Y-13514936D01*
X10563039Y-13514936D02*
X10572563Y-13505412D01*
X10753515Y-13733984D02*
X10639230Y-13733984D01*
X10696372Y-13733984D02*
X10696372Y-13533984D01*
X10696372Y-13533984D02*
X10677325Y-13562555D01*
X10677325Y-13562555D02*
X10658277Y-13581603D01*
X10658277Y-13581603D02*
X10639230Y-13591127D01*
X10982087Y-13724460D02*
X11001134Y-13733984D01*
X11001134Y-13733984D02*
X11039230Y-13733984D01*
X11039230Y-13733984D02*
X11058277Y-13724460D01*
X11058277Y-13724460D02*
X11067801Y-13705412D01*
X11067801Y-13705412D02*
X11067801Y-13695888D01*
X11067801Y-13695888D02*
X11058277Y-13676841D01*
X11058277Y-13676841D02*
X11039230Y-13667317D01*
X11039230Y-13667317D02*
X11010658Y-13667317D01*
X11010658Y-13667317D02*
X10991611Y-13657793D01*
X10991611Y-13657793D02*
X10982087Y-13638746D01*
X10982087Y-13638746D02*
X10982087Y-13629222D01*
X10982087Y-13629222D02*
X10991611Y-13610174D01*
X10991611Y-13610174D02*
X11010658Y-13600650D01*
X11010658Y-13600650D02*
X11039230Y-13600650D01*
X11039230Y-13600650D02*
X11058277Y-13610174D01*
X11182087Y-13733984D02*
X11163039Y-13724460D01*
X11163039Y-13724460D02*
X11153515Y-13705412D01*
X11153515Y-13705412D02*
X11153515Y-13533984D01*
X11286849Y-13733984D02*
X11267801Y-13724460D01*
X11267801Y-13724460D02*
X11258277Y-13714936D01*
X11258277Y-13714936D02*
X11248753Y-13695888D01*
X11248753Y-13695888D02*
X11248753Y-13638746D01*
X11248753Y-13638746D02*
X11258277Y-13619698D01*
X11258277Y-13619698D02*
X11267801Y-13610174D01*
X11267801Y-13610174D02*
X11286849Y-13600650D01*
X11286849Y-13600650D02*
X11315420Y-13600650D01*
X11315420Y-13600650D02*
X11334468Y-13610174D01*
X11334468Y-13610174D02*
X11343991Y-13619698D01*
X11343991Y-13619698D02*
X11353515Y-13638746D01*
X11353515Y-13638746D02*
X11353515Y-13695888D01*
X11353515Y-13695888D02*
X11343991Y-13714936D01*
X11343991Y-13714936D02*
X11334468Y-13724460D01*
X11334468Y-13724460D02*
X11315420Y-13733984D01*
X11315420Y-13733984D02*
X11286849Y-13733984D01*
X11410658Y-13600650D02*
X11486849Y-13600650D01*
X11439230Y-13533984D02*
X11439230Y-13705412D01*
X11439230Y-13705412D02*
X11448753Y-13724460D01*
X11448753Y-13724460D02*
X11467801Y-13733984D01*
X11467801Y-13733984D02*
X11486849Y-13733984D01*
X11534468Y-13810174D02*
X11543991Y-13800650D01*
X11543991Y-13800650D02*
X11563039Y-13772079D01*
X11563039Y-13772079D02*
X11572563Y-13753031D01*
X11572563Y-13753031D02*
X11582087Y-13724460D01*
X11582087Y-13724460D02*
X11591610Y-13676841D01*
X11591610Y-13676841D02*
X11591610Y-13638746D01*
X11591610Y-13638746D02*
X11582087Y-13591127D01*
X11582087Y-13591127D02*
X11572563Y-13562555D01*
X11572563Y-13562555D02*
X11563039Y-13543508D01*
X11563039Y-13543508D02*
X11543991Y-13514936D01*
X11543991Y-13514936D02*
X11534468Y-13505412D01*
X11896372Y-13810174D02*
X11886849Y-13800650D01*
X11886849Y-13800650D02*
X11867801Y-13772079D01*
X11867801Y-13772079D02*
X11858277Y-13753031D01*
X11858277Y-13753031D02*
X11848753Y-13724460D01*
X11848753Y-13724460D02*
X11839230Y-13676841D01*
X11839230Y-13676841D02*
X11839230Y-13638746D01*
X11839230Y-13638746D02*
X11848753Y-13591127D01*
X11848753Y-13591127D02*
X11858277Y-13562555D01*
X11858277Y-13562555D02*
X11867801Y-13543508D01*
X11867801Y-13543508D02*
X11886849Y-13514936D01*
X11886849Y-13514936D02*
X11896372Y-13505412D01*
X11972563Y-13600650D02*
X11972563Y-13733984D01*
X11972563Y-13619698D02*
X11982087Y-13610174D01*
X11982087Y-13610174D02*
X12001134Y-13600650D01*
X12001134Y-13600650D02*
X12029706Y-13600650D01*
X12029706Y-13600650D02*
X12048753Y-13610174D01*
X12048753Y-13610174D02*
X12058277Y-13629222D01*
X12058277Y-13629222D02*
X12058277Y-13733984D01*
X12182087Y-13733984D02*
X12163039Y-13724460D01*
X12163039Y-13724460D02*
X12153515Y-13714936D01*
X12153515Y-13714936D02*
X12143991Y-13695888D01*
X12143991Y-13695888D02*
X12143991Y-13638746D01*
X12143991Y-13638746D02*
X12153515Y-13619698D01*
X12153515Y-13619698D02*
X12163039Y-13610174D01*
X12163039Y-13610174D02*
X12182087Y-13600650D01*
X12182087Y-13600650D02*
X12210658Y-13600650D01*
X12210658Y-13600650D02*
X12229706Y-13610174D01*
X12229706Y-13610174D02*
X12239230Y-13619698D01*
X12239230Y-13619698D02*
X12248753Y-13638746D01*
X12248753Y-13638746D02*
X12248753Y-13695888D01*
X12248753Y-13695888D02*
X12239230Y-13714936D01*
X12239230Y-13714936D02*
X12229706Y-13724460D01*
X12229706Y-13724460D02*
X12210658Y-13733984D01*
X12210658Y-13733984D02*
X12182087Y-13733984D01*
X12305896Y-13600650D02*
X12382087Y-13600650D01*
X12334468Y-13533984D02*
X12334468Y-13705412D01*
X12334468Y-13705412D02*
X12343991Y-13724460D01*
X12343991Y-13724460D02*
X12363039Y-13733984D01*
X12363039Y-13733984D02*
X12382087Y-13733984D01*
X12601134Y-13600650D02*
X12601134Y-13800650D01*
X12601134Y-13610174D02*
X12620182Y-13600650D01*
X12620182Y-13600650D02*
X12658277Y-13600650D01*
X12658277Y-13600650D02*
X12677325Y-13610174D01*
X12677325Y-13610174D02*
X12686849Y-13619698D01*
X12686849Y-13619698D02*
X12696372Y-13638746D01*
X12696372Y-13638746D02*
X12696372Y-13695888D01*
X12696372Y-13695888D02*
X12686849Y-13714936D01*
X12686849Y-13714936D02*
X12677325Y-13724460D01*
X12677325Y-13724460D02*
X12658277Y-13733984D01*
X12658277Y-13733984D02*
X12620182Y-13733984D01*
X12620182Y-13733984D02*
X12601134Y-13724460D01*
X12810658Y-13733984D02*
X12791611Y-13724460D01*
X12791611Y-13724460D02*
X12782087Y-13705412D01*
X12782087Y-13705412D02*
X12782087Y-13533984D01*
X12972563Y-13733984D02*
X12972563Y-13629222D01*
X12972563Y-13629222D02*
X12963039Y-13610174D01*
X12963039Y-13610174D02*
X12943992Y-13600650D01*
X12943992Y-13600650D02*
X12905896Y-13600650D01*
X12905896Y-13600650D02*
X12886849Y-13610174D01*
X12972563Y-13724460D02*
X12953515Y-13733984D01*
X12953515Y-13733984D02*
X12905896Y-13733984D01*
X12905896Y-13733984D02*
X12886849Y-13724460D01*
X12886849Y-13724460D02*
X12877325Y-13705412D01*
X12877325Y-13705412D02*
X12877325Y-13686365D01*
X12877325Y-13686365D02*
X12886849Y-13667317D01*
X12886849Y-13667317D02*
X12905896Y-13657793D01*
X12905896Y-13657793D02*
X12953515Y-13657793D01*
X12953515Y-13657793D02*
X12972563Y-13648269D01*
X13039230Y-13600650D02*
X13115420Y-13600650D01*
X13067801Y-13533984D02*
X13067801Y-13705412D01*
X13067801Y-13705412D02*
X13077325Y-13724460D01*
X13077325Y-13724460D02*
X13096372Y-13733984D01*
X13096372Y-13733984D02*
X13115420Y-13733984D01*
X13258277Y-13724460D02*
X13239230Y-13733984D01*
X13239230Y-13733984D02*
X13201134Y-13733984D01*
X13201134Y-13733984D02*
X13182087Y-13724460D01*
X13182087Y-13724460D02*
X13172563Y-13705412D01*
X13172563Y-13705412D02*
X13172563Y-13629222D01*
X13172563Y-13629222D02*
X13182087Y-13610174D01*
X13182087Y-13610174D02*
X13201134Y-13600650D01*
X13201134Y-13600650D02*
X13239230Y-13600650D01*
X13239230Y-13600650D02*
X13258277Y-13610174D01*
X13258277Y-13610174D02*
X13267801Y-13629222D01*
X13267801Y-13629222D02*
X13267801Y-13648269D01*
X13267801Y-13648269D02*
X13172563Y-13667317D01*
X13439230Y-13733984D02*
X13439230Y-13533984D01*
X13439230Y-13724460D02*
X13420182Y-13733984D01*
X13420182Y-13733984D02*
X13382087Y-13733984D01*
X13382087Y-13733984D02*
X13363039Y-13724460D01*
X13363039Y-13724460D02*
X13353515Y-13714936D01*
X13353515Y-13714936D02*
X13343992Y-13695888D01*
X13343992Y-13695888D02*
X13343992Y-13638746D01*
X13343992Y-13638746D02*
X13353515Y-13619698D01*
X13353515Y-13619698D02*
X13363039Y-13610174D01*
X13363039Y-13610174D02*
X13382087Y-13600650D01*
X13382087Y-13600650D02*
X13420182Y-13600650D01*
X13420182Y-13600650D02*
X13439230Y-13610174D01*
X13515420Y-13810174D02*
X13524944Y-13800650D01*
X13524944Y-13800650D02*
X13543992Y-13772079D01*
X13543992Y-13772079D02*
X13553515Y-13753031D01*
X13553515Y-13753031D02*
X13563039Y-13724460D01*
X13563039Y-13724460D02*
X13572563Y-13676841D01*
X13572563Y-13676841D02*
X13572563Y-13638746D01*
X13572563Y-13638746D02*
X13563039Y-13591127D01*
X13563039Y-13591127D02*
X13553515Y-13562555D01*
X13553515Y-13562555D02*
X13543992Y-13543508D01*
X13543992Y-13543508D02*
X13524944Y-13514936D01*
X13524944Y-13514936D02*
X13515420Y-13505412D01*
D12*
X6997500Y-13906500D02*
G75*
G02*
X6931500Y-13906500I-33000J0D01*
G01*
X6931500Y-13906500D02*
G75*
G02*
X6997500Y-13906500I33000J0D01*
G01*
D11*
X7296372Y-13797984D02*
X7315420Y-13797984D01*
X7315420Y-13797984D02*
X7334467Y-13807508D01*
X7334467Y-13807508D02*
X7343991Y-13817031D01*
X7343991Y-13817031D02*
X7353515Y-13836079D01*
X7353515Y-13836079D02*
X7363039Y-13874174D01*
X7363039Y-13874174D02*
X7363039Y-13921793D01*
X7363039Y-13921793D02*
X7353515Y-13959888D01*
X7353515Y-13959888D02*
X7343991Y-13978936D01*
X7343991Y-13978936D02*
X7334467Y-13988460D01*
X7334467Y-13988460D02*
X7315420Y-13997984D01*
X7315420Y-13997984D02*
X7296372Y-13997984D01*
X7296372Y-13997984D02*
X7277324Y-13988460D01*
X7277324Y-13988460D02*
X7267801Y-13978936D01*
X7267801Y-13978936D02*
X7258277Y-13959888D01*
X7258277Y-13959888D02*
X7248753Y-13921793D01*
X7248753Y-13921793D02*
X7248753Y-13874174D01*
X7248753Y-13874174D02*
X7258277Y-13836079D01*
X7258277Y-13836079D02*
X7267801Y-13817031D01*
X7267801Y-13817031D02*
X7277324Y-13807508D01*
X7277324Y-13807508D02*
X7296372Y-13797984D01*
X7448753Y-13978936D02*
X7458277Y-13988460D01*
X7458277Y-13988460D02*
X7448753Y-13997984D01*
X7448753Y-13997984D02*
X7439229Y-13988460D01*
X7439229Y-13988460D02*
X7448753Y-13978936D01*
X7448753Y-13978936D02*
X7448753Y-13997984D01*
X7629705Y-13797984D02*
X7591610Y-13797984D01*
X7591610Y-13797984D02*
X7572562Y-13807508D01*
X7572562Y-13807508D02*
X7563039Y-13817031D01*
X7563039Y-13817031D02*
X7543991Y-13845603D01*
X7543991Y-13845603D02*
X7534467Y-13883698D01*
X7534467Y-13883698D02*
X7534467Y-13959888D01*
X7534467Y-13959888D02*
X7543991Y-13978936D01*
X7543991Y-13978936D02*
X7553515Y-13988460D01*
X7553515Y-13988460D02*
X7572562Y-13997984D01*
X7572562Y-13997984D02*
X7610658Y-13997984D01*
X7610658Y-13997984D02*
X7629705Y-13988460D01*
X7629705Y-13988460D02*
X7639229Y-13978936D01*
X7639229Y-13978936D02*
X7648753Y-13959888D01*
X7648753Y-13959888D02*
X7648753Y-13912269D01*
X7648753Y-13912269D02*
X7639229Y-13893222D01*
X7639229Y-13893222D02*
X7629705Y-13883698D01*
X7629705Y-13883698D02*
X7610658Y-13874174D01*
X7610658Y-13874174D02*
X7572562Y-13874174D01*
X7572562Y-13874174D02*
X7553515Y-13883698D01*
X7553515Y-13883698D02*
X7543991Y-13893222D01*
X7543991Y-13893222D02*
X7534467Y-13912269D01*
X7820182Y-13797984D02*
X7782086Y-13797984D01*
X7782086Y-13797984D02*
X7763039Y-13807508D01*
X7763039Y-13807508D02*
X7753515Y-13817031D01*
X7753515Y-13817031D02*
X7734467Y-13845603D01*
X7734467Y-13845603D02*
X7724943Y-13883698D01*
X7724943Y-13883698D02*
X7724943Y-13959888D01*
X7724943Y-13959888D02*
X7734467Y-13978936D01*
X7734467Y-13978936D02*
X7743991Y-13988460D01*
X7743991Y-13988460D02*
X7763039Y-13997984D01*
X7763039Y-13997984D02*
X7801134Y-13997984D01*
X7801134Y-13997984D02*
X7820182Y-13988460D01*
X7820182Y-13988460D02*
X7829705Y-13978936D01*
X7829705Y-13978936D02*
X7839229Y-13959888D01*
X7839229Y-13959888D02*
X7839229Y-13912269D01*
X7839229Y-13912269D02*
X7829705Y-13893222D01*
X7829705Y-13893222D02*
X7820182Y-13883698D01*
X7820182Y-13883698D02*
X7801134Y-13874174D01*
X7801134Y-13874174D02*
X7763039Y-13874174D01*
X7763039Y-13874174D02*
X7743991Y-13883698D01*
X7743991Y-13883698D02*
X7734467Y-13893222D01*
X7734467Y-13893222D02*
X7724943Y-13912269D01*
X7963039Y-13797984D02*
X7982086Y-13797984D01*
X7982086Y-13797984D02*
X8001134Y-13807508D01*
X8001134Y-13807508D02*
X8010658Y-13817031D01*
X8010658Y-13817031D02*
X8020182Y-13836079D01*
X8020182Y-13836079D02*
X8029705Y-13874174D01*
X8029705Y-13874174D02*
X8029705Y-13921793D01*
X8029705Y-13921793D02*
X8020182Y-13959888D01*
X8020182Y-13959888D02*
X8010658Y-13978936D01*
X8010658Y-13978936D02*
X8001134Y-13988460D01*
X8001134Y-13988460D02*
X7982086Y-13997984D01*
X7982086Y-13997984D02*
X7963039Y-13997984D01*
X7963039Y-13997984D02*
X7943991Y-13988460D01*
X7943991Y-13988460D02*
X7934467Y-13978936D01*
X7934467Y-13978936D02*
X7924943Y-13959888D01*
X7924943Y-13959888D02*
X7915420Y-13921793D01*
X7915420Y-13921793D02*
X7915420Y-13874174D01*
X7915420Y-13874174D02*
X7924943Y-13836079D01*
X7924943Y-13836079D02*
X7934467Y-13817031D01*
X7934467Y-13817031D02*
X7943991Y-13807508D01*
X7943991Y-13807508D02*
X7963039Y-13797984D01*
X8115420Y-13997984D02*
X8115420Y-13864650D01*
X8115420Y-13883698D02*
X8124943Y-13874174D01*
X8124943Y-13874174D02*
X8143991Y-13864650D01*
X8143991Y-13864650D02*
X8172563Y-13864650D01*
X8172563Y-13864650D02*
X8191610Y-13874174D01*
X8191610Y-13874174D02*
X8201134Y-13893222D01*
X8201134Y-13893222D02*
X8201134Y-13997984D01*
X8201134Y-13893222D02*
X8210658Y-13874174D01*
X8210658Y-13874174D02*
X8229705Y-13864650D01*
X8229705Y-13864650D02*
X8258277Y-13864650D01*
X8258277Y-13864650D02*
X8277324Y-13874174D01*
X8277324Y-13874174D02*
X8286848Y-13893222D01*
X8286848Y-13893222D02*
X8286848Y-13997984D01*
X8382086Y-13997984D02*
X8382086Y-13864650D01*
X8382086Y-13883698D02*
X8391610Y-13874174D01*
X8391610Y-13874174D02*
X8410658Y-13864650D01*
X8410658Y-13864650D02*
X8439229Y-13864650D01*
X8439229Y-13864650D02*
X8458277Y-13874174D01*
X8458277Y-13874174D02*
X8467801Y-13893222D01*
X8467801Y-13893222D02*
X8467801Y-13997984D01*
X8467801Y-13893222D02*
X8477325Y-13874174D01*
X8477325Y-13874174D02*
X8496372Y-13864650D01*
X8496372Y-13864650D02*
X8524944Y-13864650D01*
X8524944Y-13864650D02*
X8543991Y-13874174D01*
X8543991Y-13874174D02*
X8553515Y-13893222D01*
X8553515Y-13893222D02*
X8553515Y-13997984D01*
X8943991Y-13788460D02*
X8772563Y-14045603D01*
X9201134Y-13797984D02*
X9220182Y-13797984D01*
X9220182Y-13797984D02*
X9239229Y-13807508D01*
X9239229Y-13807508D02*
X9248753Y-13817031D01*
X9248753Y-13817031D02*
X9258277Y-13836079D01*
X9258277Y-13836079D02*
X9267801Y-13874174D01*
X9267801Y-13874174D02*
X9267801Y-13921793D01*
X9267801Y-13921793D02*
X9258277Y-13959888D01*
X9258277Y-13959888D02*
X9248753Y-13978936D01*
X9248753Y-13978936D02*
X9239229Y-13988460D01*
X9239229Y-13988460D02*
X9220182Y-13997984D01*
X9220182Y-13997984D02*
X9201134Y-13997984D01*
X9201134Y-13997984D02*
X9182087Y-13988460D01*
X9182087Y-13988460D02*
X9172563Y-13978936D01*
X9172563Y-13978936D02*
X9163039Y-13959888D01*
X9163039Y-13959888D02*
X9153515Y-13921793D01*
X9153515Y-13921793D02*
X9153515Y-13874174D01*
X9153515Y-13874174D02*
X9163039Y-13836079D01*
X9163039Y-13836079D02*
X9172563Y-13817031D01*
X9172563Y-13817031D02*
X9182087Y-13807508D01*
X9182087Y-13807508D02*
X9201134Y-13797984D01*
X9353515Y-13978936D02*
X9363039Y-13988460D01*
X9363039Y-13988460D02*
X9353515Y-13997984D01*
X9353515Y-13997984D02*
X9343991Y-13988460D01*
X9343991Y-13988460D02*
X9353515Y-13978936D01*
X9353515Y-13978936D02*
X9353515Y-13997984D01*
X9486848Y-13797984D02*
X9505896Y-13797984D01*
X9505896Y-13797984D02*
X9524944Y-13807508D01*
X9524944Y-13807508D02*
X9534468Y-13817031D01*
X9534468Y-13817031D02*
X9543991Y-13836079D01*
X9543991Y-13836079D02*
X9553515Y-13874174D01*
X9553515Y-13874174D02*
X9553515Y-13921793D01*
X9553515Y-13921793D02*
X9543991Y-13959888D01*
X9543991Y-13959888D02*
X9534468Y-13978936D01*
X9534468Y-13978936D02*
X9524944Y-13988460D01*
X9524944Y-13988460D02*
X9505896Y-13997984D01*
X9505896Y-13997984D02*
X9486848Y-13997984D01*
X9486848Y-13997984D02*
X9467801Y-13988460D01*
X9467801Y-13988460D02*
X9458277Y-13978936D01*
X9458277Y-13978936D02*
X9448753Y-13959888D01*
X9448753Y-13959888D02*
X9439229Y-13921793D01*
X9439229Y-13921793D02*
X9439229Y-13874174D01*
X9439229Y-13874174D02*
X9448753Y-13836079D01*
X9448753Y-13836079D02*
X9458277Y-13817031D01*
X9458277Y-13817031D02*
X9467801Y-13807508D01*
X9467801Y-13807508D02*
X9486848Y-13797984D01*
X9629706Y-13817031D02*
X9639229Y-13807508D01*
X9639229Y-13807508D02*
X9658277Y-13797984D01*
X9658277Y-13797984D02*
X9705896Y-13797984D01*
X9705896Y-13797984D02*
X9724944Y-13807508D01*
X9724944Y-13807508D02*
X9734468Y-13817031D01*
X9734468Y-13817031D02*
X9743991Y-13836079D01*
X9743991Y-13836079D02*
X9743991Y-13855127D01*
X9743991Y-13855127D02*
X9734468Y-13883698D01*
X9734468Y-13883698D02*
X9620182Y-13997984D01*
X9620182Y-13997984D02*
X9743991Y-13997984D01*
X9915420Y-13797984D02*
X9877325Y-13797984D01*
X9877325Y-13797984D02*
X9858277Y-13807508D01*
X9858277Y-13807508D02*
X9848753Y-13817031D01*
X9848753Y-13817031D02*
X9829706Y-13845603D01*
X9829706Y-13845603D02*
X9820182Y-13883698D01*
X9820182Y-13883698D02*
X9820182Y-13959888D01*
X9820182Y-13959888D02*
X9829706Y-13978936D01*
X9829706Y-13978936D02*
X9839229Y-13988460D01*
X9839229Y-13988460D02*
X9858277Y-13997984D01*
X9858277Y-13997984D02*
X9896372Y-13997984D01*
X9896372Y-13997984D02*
X9915420Y-13988460D01*
X9915420Y-13988460D02*
X9924944Y-13978936D01*
X9924944Y-13978936D02*
X9934468Y-13959888D01*
X9934468Y-13959888D02*
X9934468Y-13912269D01*
X9934468Y-13912269D02*
X9924944Y-13893222D01*
X9924944Y-13893222D02*
X9915420Y-13883698D01*
X9915420Y-13883698D02*
X9896372Y-13874174D01*
X9896372Y-13874174D02*
X9858277Y-13874174D01*
X9858277Y-13874174D02*
X9839229Y-13883698D01*
X9839229Y-13883698D02*
X9829706Y-13893222D01*
X9829706Y-13893222D02*
X9820182Y-13912269D01*
X10058277Y-13797984D02*
X10077325Y-13797984D01*
X10077325Y-13797984D02*
X10096372Y-13807508D01*
X10096372Y-13807508D02*
X10105896Y-13817031D01*
X10105896Y-13817031D02*
X10115420Y-13836079D01*
X10115420Y-13836079D02*
X10124944Y-13874174D01*
X10124944Y-13874174D02*
X10124944Y-13921793D01*
X10124944Y-13921793D02*
X10115420Y-13959888D01*
X10115420Y-13959888D02*
X10105896Y-13978936D01*
X10105896Y-13978936D02*
X10096372Y-13988460D01*
X10096372Y-13988460D02*
X10077325Y-13997984D01*
X10077325Y-13997984D02*
X10058277Y-13997984D01*
X10058277Y-13997984D02*
X10039229Y-13988460D01*
X10039229Y-13988460D02*
X10029706Y-13978936D01*
X10029706Y-13978936D02*
X10020182Y-13959888D01*
X10020182Y-13959888D02*
X10010658Y-13921793D01*
X10010658Y-13921793D02*
X10010658Y-13874174D01*
X10010658Y-13874174D02*
X10020182Y-13836079D01*
X10020182Y-13836079D02*
X10029706Y-13817031D01*
X10029706Y-13817031D02*
X10039229Y-13807508D01*
X10039229Y-13807508D02*
X10058277Y-13797984D01*
X10201134Y-13797984D02*
X10201134Y-13836079D01*
X10277325Y-13797984D02*
X10277325Y-13836079D01*
X10572563Y-14074174D02*
X10563039Y-14064650D01*
X10563039Y-14064650D02*
X10543991Y-14036079D01*
X10543991Y-14036079D02*
X10534468Y-14017031D01*
X10534468Y-14017031D02*
X10524944Y-13988460D01*
X10524944Y-13988460D02*
X10515420Y-13940841D01*
X10515420Y-13940841D02*
X10515420Y-13902746D01*
X10515420Y-13902746D02*
X10524944Y-13855127D01*
X10524944Y-13855127D02*
X10534468Y-13826555D01*
X10534468Y-13826555D02*
X10543991Y-13807508D01*
X10543991Y-13807508D02*
X10563039Y-13778936D01*
X10563039Y-13778936D02*
X10572563Y-13769412D01*
X10753515Y-13997984D02*
X10639230Y-13997984D01*
X10696372Y-13997984D02*
X10696372Y-13797984D01*
X10696372Y-13797984D02*
X10677325Y-13826555D01*
X10677325Y-13826555D02*
X10658277Y-13845603D01*
X10658277Y-13845603D02*
X10639230Y-13855127D01*
X10991611Y-13997984D02*
X10991611Y-13797984D01*
X11077325Y-13997984D02*
X11077325Y-13893222D01*
X11077325Y-13893222D02*
X11067801Y-13874174D01*
X11067801Y-13874174D02*
X11048753Y-13864650D01*
X11048753Y-13864650D02*
X11020182Y-13864650D01*
X11020182Y-13864650D02*
X11001134Y-13874174D01*
X11001134Y-13874174D02*
X10991611Y-13883698D01*
X11201134Y-13997984D02*
X11182087Y-13988460D01*
X11182087Y-13988460D02*
X11172563Y-13978936D01*
X11172563Y-13978936D02*
X11163039Y-13959888D01*
X11163039Y-13959888D02*
X11163039Y-13902746D01*
X11163039Y-13902746D02*
X11172563Y-13883698D01*
X11172563Y-13883698D02*
X11182087Y-13874174D01*
X11182087Y-13874174D02*
X11201134Y-13864650D01*
X11201134Y-13864650D02*
X11229706Y-13864650D01*
X11229706Y-13864650D02*
X11248753Y-13874174D01*
X11248753Y-13874174D02*
X11258277Y-13883698D01*
X11258277Y-13883698D02*
X11267801Y-13902746D01*
X11267801Y-13902746D02*
X11267801Y-13959888D01*
X11267801Y-13959888D02*
X11258277Y-13978936D01*
X11258277Y-13978936D02*
X11248753Y-13988460D01*
X11248753Y-13988460D02*
X11229706Y-13997984D01*
X11229706Y-13997984D02*
X11201134Y-13997984D01*
X11382087Y-13997984D02*
X11363039Y-13988460D01*
X11363039Y-13988460D02*
X11353515Y-13969412D01*
X11353515Y-13969412D02*
X11353515Y-13797984D01*
X11534468Y-13988460D02*
X11515420Y-13997984D01*
X11515420Y-13997984D02*
X11477325Y-13997984D01*
X11477325Y-13997984D02*
X11458277Y-13988460D01*
X11458277Y-13988460D02*
X11448753Y-13969412D01*
X11448753Y-13969412D02*
X11448753Y-13893222D01*
X11448753Y-13893222D02*
X11458277Y-13874174D01*
X11458277Y-13874174D02*
X11477325Y-13864650D01*
X11477325Y-13864650D02*
X11515420Y-13864650D01*
X11515420Y-13864650D02*
X11534468Y-13874174D01*
X11534468Y-13874174D02*
X11543991Y-13893222D01*
X11543991Y-13893222D02*
X11543991Y-13912269D01*
X11543991Y-13912269D02*
X11448753Y-13931317D01*
X11610658Y-14074174D02*
X11620182Y-14064650D01*
X11620182Y-14064650D02*
X11639230Y-14036079D01*
X11639230Y-14036079D02*
X11648753Y-14017031D01*
X11648753Y-14017031D02*
X11658277Y-13988460D01*
X11658277Y-13988460D02*
X11667801Y-13940841D01*
X11667801Y-13940841D02*
X11667801Y-13902746D01*
X11667801Y-13902746D02*
X11658277Y-13855127D01*
X11658277Y-13855127D02*
X11648753Y-13826555D01*
X11648753Y-13826555D02*
X11639230Y-13807508D01*
X11639230Y-13807508D02*
X11620182Y-13778936D01*
X11620182Y-13778936D02*
X11610658Y-13769412D01*
X11972563Y-14074174D02*
X11963039Y-14064650D01*
X11963039Y-14064650D02*
X11943991Y-14036079D01*
X11943991Y-14036079D02*
X11934468Y-14017031D01*
X11934468Y-14017031D02*
X11924944Y-13988460D01*
X11924944Y-13988460D02*
X11915420Y-13940841D01*
X11915420Y-13940841D02*
X11915420Y-13902746D01*
X11915420Y-13902746D02*
X11924944Y-13855127D01*
X11924944Y-13855127D02*
X11934468Y-13826555D01*
X11934468Y-13826555D02*
X11943991Y-13807508D01*
X11943991Y-13807508D02*
X11963039Y-13778936D01*
X11963039Y-13778936D02*
X11972563Y-13769412D01*
X12048753Y-13864650D02*
X12048753Y-13997984D01*
X12048753Y-13883698D02*
X12058277Y-13874174D01*
X12058277Y-13874174D02*
X12077325Y-13864650D01*
X12077325Y-13864650D02*
X12105896Y-13864650D01*
X12105896Y-13864650D02*
X12124944Y-13874174D01*
X12124944Y-13874174D02*
X12134468Y-13893222D01*
X12134468Y-13893222D02*
X12134468Y-13997984D01*
X12258277Y-13997984D02*
X12239230Y-13988460D01*
X12239230Y-13988460D02*
X12229706Y-13978936D01*
X12229706Y-13978936D02*
X12220182Y-13959888D01*
X12220182Y-13959888D02*
X12220182Y-13902746D01*
X12220182Y-13902746D02*
X12229706Y-13883698D01*
X12229706Y-13883698D02*
X12239230Y-13874174D01*
X12239230Y-13874174D02*
X12258277Y-13864650D01*
X12258277Y-13864650D02*
X12286849Y-13864650D01*
X12286849Y-13864650D02*
X12305896Y-13874174D01*
X12305896Y-13874174D02*
X12315420Y-13883698D01*
X12315420Y-13883698D02*
X12324944Y-13902746D01*
X12324944Y-13902746D02*
X12324944Y-13959888D01*
X12324944Y-13959888D02*
X12315420Y-13978936D01*
X12315420Y-13978936D02*
X12305896Y-13988460D01*
X12305896Y-13988460D02*
X12286849Y-13997984D01*
X12286849Y-13997984D02*
X12258277Y-13997984D01*
X12382087Y-13864650D02*
X12458277Y-13864650D01*
X12410658Y-13797984D02*
X12410658Y-13969412D01*
X12410658Y-13969412D02*
X12420182Y-13988460D01*
X12420182Y-13988460D02*
X12439230Y-13997984D01*
X12439230Y-13997984D02*
X12458277Y-13997984D01*
X12677325Y-13864650D02*
X12677325Y-14064650D01*
X12677325Y-13874174D02*
X12696372Y-13864650D01*
X12696372Y-13864650D02*
X12734468Y-13864650D01*
X12734468Y-13864650D02*
X12753515Y-13874174D01*
X12753515Y-13874174D02*
X12763039Y-13883698D01*
X12763039Y-13883698D02*
X12772563Y-13902746D01*
X12772563Y-13902746D02*
X12772563Y-13959888D01*
X12772563Y-13959888D02*
X12763039Y-13978936D01*
X12763039Y-13978936D02*
X12753515Y-13988460D01*
X12753515Y-13988460D02*
X12734468Y-13997984D01*
X12734468Y-13997984D02*
X12696372Y-13997984D01*
X12696372Y-13997984D02*
X12677325Y-13988460D01*
X12886849Y-13997984D02*
X12867801Y-13988460D01*
X12867801Y-13988460D02*
X12858277Y-13969412D01*
X12858277Y-13969412D02*
X12858277Y-13797984D01*
X13048753Y-13997984D02*
X13048753Y-13893222D01*
X13048753Y-13893222D02*
X13039230Y-13874174D01*
X13039230Y-13874174D02*
X13020182Y-13864650D01*
X13020182Y-13864650D02*
X12982087Y-13864650D01*
X12982087Y-13864650D02*
X12963039Y-13874174D01*
X13048753Y-13988460D02*
X13029706Y-13997984D01*
X13029706Y-13997984D02*
X12982087Y-13997984D01*
X12982087Y-13997984D02*
X12963039Y-13988460D01*
X12963039Y-13988460D02*
X12953515Y-13969412D01*
X12953515Y-13969412D02*
X12953515Y-13950365D01*
X12953515Y-13950365D02*
X12963039Y-13931317D01*
X12963039Y-13931317D02*
X12982087Y-13921793D01*
X12982087Y-13921793D02*
X13029706Y-13921793D01*
X13029706Y-13921793D02*
X13048753Y-13912269D01*
X13115420Y-13864650D02*
X13191611Y-13864650D01*
X13143992Y-13797984D02*
X13143992Y-13969412D01*
X13143992Y-13969412D02*
X13153515Y-13988460D01*
X13153515Y-13988460D02*
X13172563Y-13997984D01*
X13172563Y-13997984D02*
X13191611Y-13997984D01*
X13334468Y-13988460D02*
X13315420Y-13997984D01*
X13315420Y-13997984D02*
X13277325Y-13997984D01*
X13277325Y-13997984D02*
X13258277Y-13988460D01*
X13258277Y-13988460D02*
X13248753Y-13969412D01*
X13248753Y-13969412D02*
X13248753Y-13893222D01*
X13248753Y-13893222D02*
X13258277Y-13874174D01*
X13258277Y-13874174D02*
X13277325Y-13864650D01*
X13277325Y-13864650D02*
X13315420Y-13864650D01*
X13315420Y-13864650D02*
X13334468Y-13874174D01*
X13334468Y-13874174D02*
X13343992Y-13893222D01*
X13343992Y-13893222D02*
X13343992Y-13912269D01*
X13343992Y-13912269D02*
X13248753Y-13931317D01*
X13515420Y-13997984D02*
X13515420Y-13797984D01*
X13515420Y-13988460D02*
X13496373Y-13997984D01*
X13496373Y-13997984D02*
X13458277Y-13997984D01*
X13458277Y-13997984D02*
X13439230Y-13988460D01*
X13439230Y-13988460D02*
X13429706Y-13978936D01*
X13429706Y-13978936D02*
X13420182Y-13959888D01*
X13420182Y-13959888D02*
X13420182Y-13902746D01*
X13420182Y-13902746D02*
X13429706Y-13883698D01*
X13429706Y-13883698D02*
X13439230Y-13874174D01*
X13439230Y-13874174D02*
X13458277Y-13864650D01*
X13458277Y-13864650D02*
X13496373Y-13864650D01*
X13496373Y-13864650D02*
X13515420Y-13874174D01*
X13591611Y-14074174D02*
X13601134Y-14064650D01*
X13601134Y-14064650D02*
X13620182Y-14036079D01*
X13620182Y-14036079D02*
X13629706Y-14017031D01*
X13629706Y-14017031D02*
X13639230Y-13988460D01*
X13639230Y-13988460D02*
X13648753Y-13940841D01*
X13648753Y-13940841D02*
X13648753Y-13902746D01*
X13648753Y-13902746D02*
X13639230Y-13855127D01*
X13639230Y-13855127D02*
X13629706Y-13826555D01*
X13629706Y-13826555D02*
X13620182Y-13807508D01*
X13620182Y-13807508D02*
X13601134Y-13778936D01*
X13601134Y-13778936D02*
X13591611Y-13769412D01*
D12*
X6947970Y-14120970D02*
X6947970Y-14220030D01*
X6898440Y-14170500D02*
X6997500Y-14170500D01*
D11*
X7296372Y-14061984D02*
X7315420Y-14061984D01*
X7315420Y-14061984D02*
X7334467Y-14071508D01*
X7334467Y-14071508D02*
X7343991Y-14081031D01*
X7343991Y-14081031D02*
X7353515Y-14100079D01*
X7353515Y-14100079D02*
X7363039Y-14138174D01*
X7363039Y-14138174D02*
X7363039Y-14185793D01*
X7363039Y-14185793D02*
X7353515Y-14223888D01*
X7353515Y-14223888D02*
X7343991Y-14242936D01*
X7343991Y-14242936D02*
X7334467Y-14252460D01*
X7334467Y-14252460D02*
X7315420Y-14261984D01*
X7315420Y-14261984D02*
X7296372Y-14261984D01*
X7296372Y-14261984D02*
X7277324Y-14252460D01*
X7277324Y-14252460D02*
X7267801Y-14242936D01*
X7267801Y-14242936D02*
X7258277Y-14223888D01*
X7258277Y-14223888D02*
X7248753Y-14185793D01*
X7248753Y-14185793D02*
X7248753Y-14138174D01*
X7248753Y-14138174D02*
X7258277Y-14100079D01*
X7258277Y-14100079D02*
X7267801Y-14081031D01*
X7267801Y-14081031D02*
X7277324Y-14071508D01*
X7277324Y-14071508D02*
X7296372Y-14061984D01*
X7448753Y-14242936D02*
X7458277Y-14252460D01*
X7458277Y-14252460D02*
X7448753Y-14261984D01*
X7448753Y-14261984D02*
X7439229Y-14252460D01*
X7439229Y-14252460D02*
X7448753Y-14242936D01*
X7448753Y-14242936D02*
X7448753Y-14261984D01*
X7553515Y-14261984D02*
X7591610Y-14261984D01*
X7591610Y-14261984D02*
X7610658Y-14252460D01*
X7610658Y-14252460D02*
X7620182Y-14242936D01*
X7620182Y-14242936D02*
X7639229Y-14214365D01*
X7639229Y-14214365D02*
X7648753Y-14176269D01*
X7648753Y-14176269D02*
X7648753Y-14100079D01*
X7648753Y-14100079D02*
X7639229Y-14081031D01*
X7639229Y-14081031D02*
X7629705Y-14071508D01*
X7629705Y-14071508D02*
X7610658Y-14061984D01*
X7610658Y-14061984D02*
X7572562Y-14061984D01*
X7572562Y-14061984D02*
X7553515Y-14071508D01*
X7553515Y-14071508D02*
X7543991Y-14081031D01*
X7543991Y-14081031D02*
X7534467Y-14100079D01*
X7534467Y-14100079D02*
X7534467Y-14147698D01*
X7534467Y-14147698D02*
X7543991Y-14166746D01*
X7543991Y-14166746D02*
X7553515Y-14176269D01*
X7553515Y-14176269D02*
X7572562Y-14185793D01*
X7572562Y-14185793D02*
X7610658Y-14185793D01*
X7610658Y-14185793D02*
X7629705Y-14176269D01*
X7629705Y-14176269D02*
X7639229Y-14166746D01*
X7639229Y-14166746D02*
X7648753Y-14147698D01*
X7743991Y-14261984D02*
X7782086Y-14261984D01*
X7782086Y-14261984D02*
X7801134Y-14252460D01*
X7801134Y-14252460D02*
X7810658Y-14242936D01*
X7810658Y-14242936D02*
X7829705Y-14214365D01*
X7829705Y-14214365D02*
X7839229Y-14176269D01*
X7839229Y-14176269D02*
X7839229Y-14100079D01*
X7839229Y-14100079D02*
X7829705Y-14081031D01*
X7829705Y-14081031D02*
X7820182Y-14071508D01*
X7820182Y-14071508D02*
X7801134Y-14061984D01*
X7801134Y-14061984D02*
X7763039Y-14061984D01*
X7763039Y-14061984D02*
X7743991Y-14071508D01*
X7743991Y-14071508D02*
X7734467Y-14081031D01*
X7734467Y-14081031D02*
X7724943Y-14100079D01*
X7724943Y-14100079D02*
X7724943Y-14147698D01*
X7724943Y-14147698D02*
X7734467Y-14166746D01*
X7734467Y-14166746D02*
X7743991Y-14176269D01*
X7743991Y-14176269D02*
X7763039Y-14185793D01*
X7763039Y-14185793D02*
X7801134Y-14185793D01*
X7801134Y-14185793D02*
X7820182Y-14176269D01*
X7820182Y-14176269D02*
X7829705Y-14166746D01*
X7829705Y-14166746D02*
X7839229Y-14147698D01*
X8029705Y-14261984D02*
X7915420Y-14261984D01*
X7972562Y-14261984D02*
X7972562Y-14061984D01*
X7972562Y-14061984D02*
X7953515Y-14090555D01*
X7953515Y-14090555D02*
X7934467Y-14109603D01*
X7934467Y-14109603D02*
X7915420Y-14119127D01*
X8115420Y-14261984D02*
X8115420Y-14128650D01*
X8115420Y-14147698D02*
X8124943Y-14138174D01*
X8124943Y-14138174D02*
X8143991Y-14128650D01*
X8143991Y-14128650D02*
X8172563Y-14128650D01*
X8172563Y-14128650D02*
X8191610Y-14138174D01*
X8191610Y-14138174D02*
X8201134Y-14157222D01*
X8201134Y-14157222D02*
X8201134Y-14261984D01*
X8201134Y-14157222D02*
X8210658Y-14138174D01*
X8210658Y-14138174D02*
X8229705Y-14128650D01*
X8229705Y-14128650D02*
X8258277Y-14128650D01*
X8258277Y-14128650D02*
X8277324Y-14138174D01*
X8277324Y-14138174D02*
X8286848Y-14157222D01*
X8286848Y-14157222D02*
X8286848Y-14261984D01*
X8382086Y-14261984D02*
X8382086Y-14128650D01*
X8382086Y-14147698D02*
X8391610Y-14138174D01*
X8391610Y-14138174D02*
X8410658Y-14128650D01*
X8410658Y-14128650D02*
X8439229Y-14128650D01*
X8439229Y-14128650D02*
X8458277Y-14138174D01*
X8458277Y-14138174D02*
X8467801Y-14157222D01*
X8467801Y-14157222D02*
X8467801Y-14261984D01*
X8467801Y-14157222D02*
X8477325Y-14138174D01*
X8477325Y-14138174D02*
X8496372Y-14128650D01*
X8496372Y-14128650D02*
X8524944Y-14128650D01*
X8524944Y-14128650D02*
X8543991Y-14138174D01*
X8543991Y-14138174D02*
X8553515Y-14157222D01*
X8553515Y-14157222D02*
X8553515Y-14261984D01*
X8943991Y-14052460D02*
X8772563Y-14309603D01*
X9201134Y-14061984D02*
X9220182Y-14061984D01*
X9220182Y-14061984D02*
X9239229Y-14071508D01*
X9239229Y-14071508D02*
X9248753Y-14081031D01*
X9248753Y-14081031D02*
X9258277Y-14100079D01*
X9258277Y-14100079D02*
X9267801Y-14138174D01*
X9267801Y-14138174D02*
X9267801Y-14185793D01*
X9267801Y-14185793D02*
X9258277Y-14223888D01*
X9258277Y-14223888D02*
X9248753Y-14242936D01*
X9248753Y-14242936D02*
X9239229Y-14252460D01*
X9239229Y-14252460D02*
X9220182Y-14261984D01*
X9220182Y-14261984D02*
X9201134Y-14261984D01*
X9201134Y-14261984D02*
X9182087Y-14252460D01*
X9182087Y-14252460D02*
X9172563Y-14242936D01*
X9172563Y-14242936D02*
X9163039Y-14223888D01*
X9163039Y-14223888D02*
X9153515Y-14185793D01*
X9153515Y-14185793D02*
X9153515Y-14138174D01*
X9153515Y-14138174D02*
X9163039Y-14100079D01*
X9163039Y-14100079D02*
X9172563Y-14081031D01*
X9172563Y-14081031D02*
X9182087Y-14071508D01*
X9182087Y-14071508D02*
X9201134Y-14061984D01*
X9353515Y-14242936D02*
X9363039Y-14252460D01*
X9363039Y-14252460D02*
X9353515Y-14261984D01*
X9353515Y-14261984D02*
X9343991Y-14252460D01*
X9343991Y-14252460D02*
X9353515Y-14242936D01*
X9353515Y-14242936D02*
X9353515Y-14261984D01*
X9486848Y-14061984D02*
X9505896Y-14061984D01*
X9505896Y-14061984D02*
X9524944Y-14071508D01*
X9524944Y-14071508D02*
X9534468Y-14081031D01*
X9534468Y-14081031D02*
X9543991Y-14100079D01*
X9543991Y-14100079D02*
X9553515Y-14138174D01*
X9553515Y-14138174D02*
X9553515Y-14185793D01*
X9553515Y-14185793D02*
X9543991Y-14223888D01*
X9543991Y-14223888D02*
X9534468Y-14242936D01*
X9534468Y-14242936D02*
X9524944Y-14252460D01*
X9524944Y-14252460D02*
X9505896Y-14261984D01*
X9505896Y-14261984D02*
X9486848Y-14261984D01*
X9486848Y-14261984D02*
X9467801Y-14252460D01*
X9467801Y-14252460D02*
X9458277Y-14242936D01*
X9458277Y-14242936D02*
X9448753Y-14223888D01*
X9448753Y-14223888D02*
X9439229Y-14185793D01*
X9439229Y-14185793D02*
X9439229Y-14138174D01*
X9439229Y-14138174D02*
X9448753Y-14100079D01*
X9448753Y-14100079D02*
X9458277Y-14081031D01*
X9458277Y-14081031D02*
X9467801Y-14071508D01*
X9467801Y-14071508D02*
X9486848Y-14061984D01*
X9620182Y-14061984D02*
X9743991Y-14061984D01*
X9743991Y-14061984D02*
X9677325Y-14138174D01*
X9677325Y-14138174D02*
X9705896Y-14138174D01*
X9705896Y-14138174D02*
X9724944Y-14147698D01*
X9724944Y-14147698D02*
X9734468Y-14157222D01*
X9734468Y-14157222D02*
X9743991Y-14176269D01*
X9743991Y-14176269D02*
X9743991Y-14223888D01*
X9743991Y-14223888D02*
X9734468Y-14242936D01*
X9734468Y-14242936D02*
X9724944Y-14252460D01*
X9724944Y-14252460D02*
X9705896Y-14261984D01*
X9705896Y-14261984D02*
X9648753Y-14261984D01*
X9648753Y-14261984D02*
X9629706Y-14252460D01*
X9629706Y-14252460D02*
X9620182Y-14242936D01*
X9839229Y-14261984D02*
X9877325Y-14261984D01*
X9877325Y-14261984D02*
X9896372Y-14252460D01*
X9896372Y-14252460D02*
X9905896Y-14242936D01*
X9905896Y-14242936D02*
X9924944Y-14214365D01*
X9924944Y-14214365D02*
X9934468Y-14176269D01*
X9934468Y-14176269D02*
X9934468Y-14100079D01*
X9934468Y-14100079D02*
X9924944Y-14081031D01*
X9924944Y-14081031D02*
X9915420Y-14071508D01*
X9915420Y-14071508D02*
X9896372Y-14061984D01*
X9896372Y-14061984D02*
X9858277Y-14061984D01*
X9858277Y-14061984D02*
X9839229Y-14071508D01*
X9839229Y-14071508D02*
X9829706Y-14081031D01*
X9829706Y-14081031D02*
X9820182Y-14100079D01*
X9820182Y-14100079D02*
X9820182Y-14147698D01*
X9820182Y-14147698D02*
X9829706Y-14166746D01*
X9829706Y-14166746D02*
X9839229Y-14176269D01*
X9839229Y-14176269D02*
X9858277Y-14185793D01*
X9858277Y-14185793D02*
X9896372Y-14185793D01*
X9896372Y-14185793D02*
X9915420Y-14176269D01*
X9915420Y-14176269D02*
X9924944Y-14166746D01*
X9924944Y-14166746D02*
X9934468Y-14147698D01*
X10058277Y-14061984D02*
X10077325Y-14061984D01*
X10077325Y-14061984D02*
X10096372Y-14071508D01*
X10096372Y-14071508D02*
X10105896Y-14081031D01*
X10105896Y-14081031D02*
X10115420Y-14100079D01*
X10115420Y-14100079D02*
X10124944Y-14138174D01*
X10124944Y-14138174D02*
X10124944Y-14185793D01*
X10124944Y-14185793D02*
X10115420Y-14223888D01*
X10115420Y-14223888D02*
X10105896Y-14242936D01*
X10105896Y-14242936D02*
X10096372Y-14252460D01*
X10096372Y-14252460D02*
X10077325Y-14261984D01*
X10077325Y-14261984D02*
X10058277Y-14261984D01*
X10058277Y-14261984D02*
X10039229Y-14252460D01*
X10039229Y-14252460D02*
X10029706Y-14242936D01*
X10029706Y-14242936D02*
X10020182Y-14223888D01*
X10020182Y-14223888D02*
X10010658Y-14185793D01*
X10010658Y-14185793D02*
X10010658Y-14138174D01*
X10010658Y-14138174D02*
X10020182Y-14100079D01*
X10020182Y-14100079D02*
X10029706Y-14081031D01*
X10029706Y-14081031D02*
X10039229Y-14071508D01*
X10039229Y-14071508D02*
X10058277Y-14061984D01*
X10201134Y-14061984D02*
X10201134Y-14100079D01*
X10277325Y-14061984D02*
X10277325Y-14100079D01*
X10572563Y-14338174D02*
X10563039Y-14328650D01*
X10563039Y-14328650D02*
X10543991Y-14300079D01*
X10543991Y-14300079D02*
X10534468Y-14281031D01*
X10534468Y-14281031D02*
X10524944Y-14252460D01*
X10524944Y-14252460D02*
X10515420Y-14204841D01*
X10515420Y-14204841D02*
X10515420Y-14166746D01*
X10515420Y-14166746D02*
X10524944Y-14119127D01*
X10524944Y-14119127D02*
X10534468Y-14090555D01*
X10534468Y-14090555D02*
X10543991Y-14071508D01*
X10543991Y-14071508D02*
X10563039Y-14042936D01*
X10563039Y-14042936D02*
X10572563Y-14033412D01*
X10629706Y-14061984D02*
X10753515Y-14061984D01*
X10753515Y-14061984D02*
X10686849Y-14138174D01*
X10686849Y-14138174D02*
X10715420Y-14138174D01*
X10715420Y-14138174D02*
X10734468Y-14147698D01*
X10734468Y-14147698D02*
X10743991Y-14157222D01*
X10743991Y-14157222D02*
X10753515Y-14176269D01*
X10753515Y-14176269D02*
X10753515Y-14223888D01*
X10753515Y-14223888D02*
X10743991Y-14242936D01*
X10743991Y-14242936D02*
X10734468Y-14252460D01*
X10734468Y-14252460D02*
X10715420Y-14261984D01*
X10715420Y-14261984D02*
X10658277Y-14261984D01*
X10658277Y-14261984D02*
X10639230Y-14252460D01*
X10639230Y-14252460D02*
X10629706Y-14242936D01*
X10991611Y-14261984D02*
X10991611Y-14061984D01*
X11077325Y-14261984D02*
X11077325Y-14157222D01*
X11077325Y-14157222D02*
X11067801Y-14138174D01*
X11067801Y-14138174D02*
X11048753Y-14128650D01*
X11048753Y-14128650D02*
X11020182Y-14128650D01*
X11020182Y-14128650D02*
X11001134Y-14138174D01*
X11001134Y-14138174D02*
X10991611Y-14147698D01*
X11201134Y-14261984D02*
X11182087Y-14252460D01*
X11182087Y-14252460D02*
X11172563Y-14242936D01*
X11172563Y-14242936D02*
X11163039Y-14223888D01*
X11163039Y-14223888D02*
X11163039Y-14166746D01*
X11163039Y-14166746D02*
X11172563Y-14147698D01*
X11172563Y-14147698D02*
X11182087Y-14138174D01*
X11182087Y-14138174D02*
X11201134Y-14128650D01*
X11201134Y-14128650D02*
X11229706Y-14128650D01*
X11229706Y-14128650D02*
X11248753Y-14138174D01*
X11248753Y-14138174D02*
X11258277Y-14147698D01*
X11258277Y-14147698D02*
X11267801Y-14166746D01*
X11267801Y-14166746D02*
X11267801Y-14223888D01*
X11267801Y-14223888D02*
X11258277Y-14242936D01*
X11258277Y-14242936D02*
X11248753Y-14252460D01*
X11248753Y-14252460D02*
X11229706Y-14261984D01*
X11229706Y-14261984D02*
X11201134Y-14261984D01*
X11382087Y-14261984D02*
X11363039Y-14252460D01*
X11363039Y-14252460D02*
X11353515Y-14233412D01*
X11353515Y-14233412D02*
X11353515Y-14061984D01*
X11534468Y-14252460D02*
X11515420Y-14261984D01*
X11515420Y-14261984D02*
X11477325Y-14261984D01*
X11477325Y-14261984D02*
X11458277Y-14252460D01*
X11458277Y-14252460D02*
X11448753Y-14233412D01*
X11448753Y-14233412D02*
X11448753Y-14157222D01*
X11448753Y-14157222D02*
X11458277Y-14138174D01*
X11458277Y-14138174D02*
X11477325Y-14128650D01*
X11477325Y-14128650D02*
X11515420Y-14128650D01*
X11515420Y-14128650D02*
X11534468Y-14138174D01*
X11534468Y-14138174D02*
X11543991Y-14157222D01*
X11543991Y-14157222D02*
X11543991Y-14176269D01*
X11543991Y-14176269D02*
X11448753Y-14195317D01*
X11620182Y-14252460D02*
X11639230Y-14261984D01*
X11639230Y-14261984D02*
X11677325Y-14261984D01*
X11677325Y-14261984D02*
X11696372Y-14252460D01*
X11696372Y-14252460D02*
X11705896Y-14233412D01*
X11705896Y-14233412D02*
X11705896Y-14223888D01*
X11705896Y-14223888D02*
X11696372Y-14204841D01*
X11696372Y-14204841D02*
X11677325Y-14195317D01*
X11677325Y-14195317D02*
X11648753Y-14195317D01*
X11648753Y-14195317D02*
X11629706Y-14185793D01*
X11629706Y-14185793D02*
X11620182Y-14166746D01*
X11620182Y-14166746D02*
X11620182Y-14157222D01*
X11620182Y-14157222D02*
X11629706Y-14138174D01*
X11629706Y-14138174D02*
X11648753Y-14128650D01*
X11648753Y-14128650D02*
X11677325Y-14128650D01*
X11677325Y-14128650D02*
X11696372Y-14138174D01*
X11772563Y-14338174D02*
X11782087Y-14328650D01*
X11782087Y-14328650D02*
X11801134Y-14300079D01*
X11801134Y-14300079D02*
X11810658Y-14281031D01*
X11810658Y-14281031D02*
X11820182Y-14252460D01*
X11820182Y-14252460D02*
X11829706Y-14204841D01*
X11829706Y-14204841D02*
X11829706Y-14166746D01*
X11829706Y-14166746D02*
X11820182Y-14119127D01*
X11820182Y-14119127D02*
X11810658Y-14090555D01*
X11810658Y-14090555D02*
X11801134Y-14071508D01*
X11801134Y-14071508D02*
X11782087Y-14042936D01*
X11782087Y-14042936D02*
X11772563Y-14033412D01*
X12134468Y-14338174D02*
X12124944Y-14328650D01*
X12124944Y-14328650D02*
X12105896Y-14300079D01*
X12105896Y-14300079D02*
X12096372Y-14281031D01*
X12096372Y-14281031D02*
X12086849Y-14252460D01*
X12086849Y-14252460D02*
X12077325Y-14204841D01*
X12077325Y-14204841D02*
X12077325Y-14166746D01*
X12077325Y-14166746D02*
X12086849Y-14119127D01*
X12086849Y-14119127D02*
X12096372Y-14090555D01*
X12096372Y-14090555D02*
X12105896Y-14071508D01*
X12105896Y-14071508D02*
X12124944Y-14042936D01*
X12124944Y-14042936D02*
X12134468Y-14033412D01*
X12210658Y-14128650D02*
X12210658Y-14261984D01*
X12210658Y-14147698D02*
X12220182Y-14138174D01*
X12220182Y-14138174D02*
X12239230Y-14128650D01*
X12239230Y-14128650D02*
X12267801Y-14128650D01*
X12267801Y-14128650D02*
X12286849Y-14138174D01*
X12286849Y-14138174D02*
X12296372Y-14157222D01*
X12296372Y-14157222D02*
X12296372Y-14261984D01*
X12420182Y-14261984D02*
X12401134Y-14252460D01*
X12401134Y-14252460D02*
X12391611Y-14242936D01*
X12391611Y-14242936D02*
X12382087Y-14223888D01*
X12382087Y-14223888D02*
X12382087Y-14166746D01*
X12382087Y-14166746D02*
X12391611Y-14147698D01*
X12391611Y-14147698D02*
X12401134Y-14138174D01*
X12401134Y-14138174D02*
X12420182Y-14128650D01*
X12420182Y-14128650D02*
X12448753Y-14128650D01*
X12448753Y-14128650D02*
X12467801Y-14138174D01*
X12467801Y-14138174D02*
X12477325Y-14147698D01*
X12477325Y-14147698D02*
X12486849Y-14166746D01*
X12486849Y-14166746D02*
X12486849Y-14223888D01*
X12486849Y-14223888D02*
X12477325Y-14242936D01*
X12477325Y-14242936D02*
X12467801Y-14252460D01*
X12467801Y-14252460D02*
X12448753Y-14261984D01*
X12448753Y-14261984D02*
X12420182Y-14261984D01*
X12543992Y-14128650D02*
X12620182Y-14128650D01*
X12572563Y-14061984D02*
X12572563Y-14233412D01*
X12572563Y-14233412D02*
X12582087Y-14252460D01*
X12582087Y-14252460D02*
X12601134Y-14261984D01*
X12601134Y-14261984D02*
X12620182Y-14261984D01*
X12839230Y-14128650D02*
X12839230Y-14328650D01*
X12839230Y-14138174D02*
X12858277Y-14128650D01*
X12858277Y-14128650D02*
X12896373Y-14128650D01*
X12896373Y-14128650D02*
X12915420Y-14138174D01*
X12915420Y-14138174D02*
X12924944Y-14147698D01*
X12924944Y-14147698D02*
X12934468Y-14166746D01*
X12934468Y-14166746D02*
X12934468Y-14223888D01*
X12934468Y-14223888D02*
X12924944Y-14242936D01*
X12924944Y-14242936D02*
X12915420Y-14252460D01*
X12915420Y-14252460D02*
X12896373Y-14261984D01*
X12896373Y-14261984D02*
X12858277Y-14261984D01*
X12858277Y-14261984D02*
X12839230Y-14252460D01*
X13048753Y-14261984D02*
X13029706Y-14252460D01*
X13029706Y-14252460D02*
X13020182Y-14233412D01*
X13020182Y-14233412D02*
X13020182Y-14061984D01*
X13210658Y-14261984D02*
X13210658Y-14157222D01*
X13210658Y-14157222D02*
X13201134Y-14138174D01*
X13201134Y-14138174D02*
X13182087Y-14128650D01*
X13182087Y-14128650D02*
X13143992Y-14128650D01*
X13143992Y-14128650D02*
X13124944Y-14138174D01*
X13210658Y-14252460D02*
X13191611Y-14261984D01*
X13191611Y-14261984D02*
X13143992Y-14261984D01*
X13143992Y-14261984D02*
X13124944Y-14252460D01*
X13124944Y-14252460D02*
X13115420Y-14233412D01*
X13115420Y-14233412D02*
X13115420Y-14214365D01*
X13115420Y-14214365D02*
X13124944Y-14195317D01*
X13124944Y-14195317D02*
X13143992Y-14185793D01*
X13143992Y-14185793D02*
X13191611Y-14185793D01*
X13191611Y-14185793D02*
X13210658Y-14176269D01*
X13277325Y-14128650D02*
X13353515Y-14128650D01*
X13305896Y-14061984D02*
X13305896Y-14233412D01*
X13305896Y-14233412D02*
X13315420Y-14252460D01*
X13315420Y-14252460D02*
X13334468Y-14261984D01*
X13334468Y-14261984D02*
X13353515Y-14261984D01*
X13496373Y-14252460D02*
X13477325Y-14261984D01*
X13477325Y-14261984D02*
X13439230Y-14261984D01*
X13439230Y-14261984D02*
X13420182Y-14252460D01*
X13420182Y-14252460D02*
X13410658Y-14233412D01*
X13410658Y-14233412D02*
X13410658Y-14157222D01*
X13410658Y-14157222D02*
X13420182Y-14138174D01*
X13420182Y-14138174D02*
X13439230Y-14128650D01*
X13439230Y-14128650D02*
X13477325Y-14128650D01*
X13477325Y-14128650D02*
X13496373Y-14138174D01*
X13496373Y-14138174D02*
X13505896Y-14157222D01*
X13505896Y-14157222D02*
X13505896Y-14176269D01*
X13505896Y-14176269D02*
X13410658Y-14195317D01*
X13677325Y-14261984D02*
X13677325Y-14061984D01*
X13677325Y-14252460D02*
X13658277Y-14261984D01*
X13658277Y-14261984D02*
X13620182Y-14261984D01*
X13620182Y-14261984D02*
X13601134Y-14252460D01*
X13601134Y-14252460D02*
X13591611Y-14242936D01*
X13591611Y-14242936D02*
X13582087Y-14223888D01*
X13582087Y-14223888D02*
X13582087Y-14166746D01*
X13582087Y-14166746D02*
X13591611Y-14147698D01*
X13591611Y-14147698D02*
X13601134Y-14138174D01*
X13601134Y-14138174D02*
X13620182Y-14128650D01*
X13620182Y-14128650D02*
X13658277Y-14128650D01*
X13658277Y-14128650D02*
X13677325Y-14138174D01*
X13753515Y-14338174D02*
X13763039Y-14328650D01*
X13763039Y-14328650D02*
X13782087Y-14300079D01*
X13782087Y-14300079D02*
X13791611Y-14281031D01*
X13791611Y-14281031D02*
X13801134Y-14252460D01*
X13801134Y-14252460D02*
X13810658Y-14204841D01*
X13810658Y-14204841D02*
X13810658Y-14166746D01*
X13810658Y-14166746D02*
X13801134Y-14119127D01*
X13801134Y-14119127D02*
X13791611Y-14090555D01*
X13791611Y-14090555D02*
X13782087Y-14071508D01*
X13782087Y-14071508D02*
X13763039Y-14042936D01*
X13763039Y-14042936D02*
X13753515Y-14033412D01*
M02*
