%TF.GenerationSoftware,KiCad,Pcbnew,10.0.6-10.0.6~ubuntu24.04.1*%
%TF.CreationDate,2026-10-06T01:35:56+00:00*%
%TF.ProjectId,radar60,72616461-7236-4302-9e6b-696361645f70,rev?*%
%TF.SameCoordinates,Original*%
%TF.FileFunction,Legend,Top*%
%TF.FilePolarity,Positive*%
%FSLAX46Y46*%
G04 Gerber Fmt 4.6, Leading zero omitted, Abs format (unit mm)*
G04 Created by KiCad (PCBNEW 10.0.6-10.0.6~ubuntu24.04.1) date 2026-10-06 01:35:56*
%MOMM*%
%LPD*%
G01*
G04 APERTURE LIST*
G04 Aperture macros list*
%AMRoundRect*
0 Rectangle with rounded corners*
0 $1 Rounding radius*
0 $2 $3 $4 $5 $6 $7 $8 $9 X,Y pos of 4 corners*
0 Add a 4 corners polygon primitive as box body*
4,1,4,$2,$3,$4,$5,$6,$7,$8,$9,$2,$3,0*
0 Add four circle primitives for the rounded corners*
1,1,$1+$1,$2,$3*
1,1,$1+$1,$4,$5*
1,1,$1+$1,$6,$7*
1,1,$1+$1,$8,$9*
0 Add four rect primitives between the rounded corners*
20,1,$1+$1,$2,$3,$4,$5,0*
20,1,$1+$1,$4,$5,$6,$7,0*
20,1,$1+$1,$6,$7,$8,$9,0*
20,1,$1+$1,$8,$9,$2,$3,0*%
G04 Aperture macros list end*
%ADD10C,0.120000*%
%ADD11C,0.200000*%
%ADD12RoundRect,0.112500X-0.350000X-0.062500X0.350000X-0.062500X0.350000X0.062500X-0.350000X0.062500X0*%
%ADD13RoundRect,0.112500X-0.062500X-0.350000X0.062500X-0.350000X0.062500X0.350000X-0.062500X0.350000X0*%
%ADD14RoundRect,0.050000X-1.300000X-1.300000X1.300000X-1.300000X1.300000X1.300000X-1.300000X1.300000X0*%
%ADD15C,1.100000*%
%ADD16RoundRect,0.185000X-0.135000X-0.185000X0.135000X-0.185000X0.135000X0.185000X-0.135000X0.185000X0*%
%ADD17RoundRect,0.185000X0.135000X0.185000X-0.135000X0.185000X-0.135000X-0.185000X0.135000X-0.185000X0*%
%ADD18RoundRect,0.185000X0.185000X-0.135000X0.185000X0.135000X-0.185000X0.135000X-0.185000X-0.135000X0*%
%ADD19RoundRect,0.190000X-0.140000X-0.170000X0.140000X-0.170000X0.140000X0.170000X-0.140000X0.170000X0*%
%ADD20RoundRect,0.190000X0.170000X-0.140000X0.170000X0.140000X-0.170000X0.140000X-0.170000X-0.140000X0*%
%ADD21RoundRect,0.200000X-0.512500X-0.150000X0.512500X-0.150000X0.512500X0.150000X-0.512500X0.150000X0*%
%ADD22RoundRect,0.300000X0.475000X-0.250000X0.475000X0.250000X-0.475000X0.250000X-0.475000X-0.250000X0*%
%ADD23RoundRect,0.050000X-0.850000X-0.500000X0.850000X-0.500000X0.850000X0.500000X-0.850000X0.500000X0*%
%ADD24RoundRect,0.150000X-0.637500X-0.100000X0.637500X-0.100000X0.637500X0.100000X-0.637500X0.100000X0*%
%ADD25C,0.760000*%
%ADD26O,1.100000X0.680000*%
%ADD27RoundRect,0.125000X-0.075000X-0.425000X0.075000X-0.425000X0.075000X0.425000X-0.075000X0.425000X0*%
%ADD28C,1.200000*%
%ADD29RoundRect,0.250000X-0.200000X-0.275000X0.200000X-0.275000X0.200000X0.275000X-0.200000X0.275000X0*%
%ADD30RoundRect,0.050000X-1.200000X-0.300000X1.200000X-0.300000X1.200000X0.300000X-1.200000X0.300000X0*%
%ADD31RoundRect,0.050000X-0.300000X-1.200000X0.300000X-1.200000X0.300000X1.200000X-0.300000X1.200000X0*%
%ADD32C,1.090600*%
%ADD33C,0.887400*%
%ADD34RoundRect,0.300000X-0.250000X-0.475000X0.250000X-0.475000X0.250000X0.475000X-0.250000X0.475000X0*%
%ADD35RoundRect,0.300000X0.625000X-0.375000X0.625000X0.375000X-0.625000X0.375000X-0.625000X-0.375000X0*%
%ADD36RoundRect,0.200000X0.150000X-0.512500X0.150000X0.512500X-0.150000X0.512500X-0.150000X-0.512500X0*%
G04 APERTURE END LIST*
D10*
X114890476Y-101368855D02*
X114890476Y-102016474D01*
X114890476Y-102016474D02*
X114928571Y-102092664D01*
X114928571Y-102092664D02*
X114966666Y-102130760D01*
X114966666Y-102130760D02*
X115042857Y-102168855D01*
X115042857Y-102168855D02*
X115195238Y-102168855D01*
X115195238Y-102168855D02*
X115271428Y-102130760D01*
X115271428Y-102130760D02*
X115309523Y-102092664D01*
X115309523Y-102092664D02*
X115347619Y-102016474D01*
X115347619Y-102016474D02*
X115347619Y-101368855D01*
X116109523Y-101368855D02*
X115728571Y-101368855D01*
X115728571Y-101368855D02*
X115690475Y-101749807D01*
X115690475Y-101749807D02*
X115728571Y-101711712D01*
X115728571Y-101711712D02*
X115804761Y-101673617D01*
X115804761Y-101673617D02*
X115995237Y-101673617D01*
X115995237Y-101673617D02*
X116071428Y-101711712D01*
X116071428Y-101711712D02*
X116109523Y-101749807D01*
X116109523Y-101749807D02*
X116147618Y-101825998D01*
X116147618Y-101825998D02*
X116147618Y-102016474D01*
X116147618Y-102016474D02*
X116109523Y-102092664D01*
X116109523Y-102092664D02*
X116071428Y-102130760D01*
X116071428Y-102130760D02*
X115995237Y-102168855D01*
X115995237Y-102168855D02*
X115804761Y-102168855D01*
X115804761Y-102168855D02*
X115728571Y-102130760D01*
X115728571Y-102130760D02*
X115690475Y-102092664D01*
X78489198Y-102967582D02*
X78946341Y-102967582D01*
X78717769Y-103767582D02*
X78717769Y-102967582D01*
X79213008Y-103767582D02*
X79213008Y-102967582D01*
X79213008Y-102967582D02*
X79517770Y-102967582D01*
X79517770Y-102967582D02*
X79593960Y-103005677D01*
X79593960Y-103005677D02*
X79632055Y-103043772D01*
X79632055Y-103043772D02*
X79670151Y-103119963D01*
X79670151Y-103119963D02*
X79670151Y-103234248D01*
X79670151Y-103234248D02*
X79632055Y-103310439D01*
X79632055Y-103310439D02*
X79593960Y-103348534D01*
X79593960Y-103348534D02*
X79517770Y-103386629D01*
X79517770Y-103386629D02*
X79213008Y-103386629D01*
X79974912Y-103043772D02*
X80013008Y-103005677D01*
X80013008Y-103005677D02*
X80089198Y-102967582D01*
X80089198Y-102967582D02*
X80279674Y-102967582D01*
X80279674Y-102967582D02*
X80355865Y-103005677D01*
X80355865Y-103005677D02*
X80393960Y-103043772D01*
X80393960Y-103043772D02*
X80432055Y-103119963D01*
X80432055Y-103119963D02*
X80432055Y-103196153D01*
X80432055Y-103196153D02*
X80393960Y-103310439D01*
X80393960Y-103310439D02*
X79936817Y-103767582D01*
X79936817Y-103767582D02*
X80432055Y-103767582D01*
X101985714Y-125298855D02*
X101719047Y-124917902D01*
X101528571Y-125298855D02*
X101528571Y-124498855D01*
X101528571Y-124498855D02*
X101833333Y-124498855D01*
X101833333Y-124498855D02*
X101909523Y-124536950D01*
X101909523Y-124536950D02*
X101947618Y-124575045D01*
X101947618Y-124575045D02*
X101985714Y-124651236D01*
X101985714Y-124651236D02*
X101985714Y-124765521D01*
X101985714Y-124765521D02*
X101947618Y-124841712D01*
X101947618Y-124841712D02*
X101909523Y-124879807D01*
X101909523Y-124879807D02*
X101833333Y-124917902D01*
X101833333Y-124917902D02*
X101528571Y-124917902D01*
X102747618Y-125298855D02*
X102290475Y-125298855D01*
X102519047Y-125298855D02*
X102519047Y-124498855D01*
X102519047Y-124498855D02*
X102442856Y-124613140D01*
X102442856Y-124613140D02*
X102366666Y-124689331D01*
X102366666Y-124689331D02*
X102290475Y-124727426D01*
X103052380Y-124575045D02*
X103090476Y-124536950D01*
X103090476Y-124536950D02*
X103166666Y-124498855D01*
X103166666Y-124498855D02*
X103357142Y-124498855D01*
X103357142Y-124498855D02*
X103433333Y-124536950D01*
X103433333Y-124536950D02*
X103471428Y-124575045D01*
X103471428Y-124575045D02*
X103509523Y-124651236D01*
X103509523Y-124651236D02*
X103509523Y-124727426D01*
X103509523Y-124727426D02*
X103471428Y-124841712D01*
X103471428Y-124841712D02*
X103014285Y-125298855D01*
X103014285Y-125298855D02*
X103509523Y-125298855D01*
X78489198Y-94967582D02*
X78946341Y-94967582D01*
X78717769Y-95767582D02*
X78717769Y-94967582D01*
X79213008Y-95767582D02*
X79213008Y-94967582D01*
X79213008Y-94967582D02*
X79517770Y-94967582D01*
X79517770Y-94967582D02*
X79593960Y-95005677D01*
X79593960Y-95005677D02*
X79632055Y-95043772D01*
X79632055Y-95043772D02*
X79670151Y-95119963D01*
X79670151Y-95119963D02*
X79670151Y-95234248D01*
X79670151Y-95234248D02*
X79632055Y-95310439D01*
X79632055Y-95310439D02*
X79593960Y-95348534D01*
X79593960Y-95348534D02*
X79517770Y-95386629D01*
X79517770Y-95386629D02*
X79213008Y-95386629D01*
X79936817Y-94967582D02*
X80432055Y-94967582D01*
X80432055Y-94967582D02*
X80165389Y-95272344D01*
X80165389Y-95272344D02*
X80279674Y-95272344D01*
X80279674Y-95272344D02*
X80355865Y-95310439D01*
X80355865Y-95310439D02*
X80393960Y-95348534D01*
X80393960Y-95348534D02*
X80432055Y-95424725D01*
X80432055Y-95424725D02*
X80432055Y-95615201D01*
X80432055Y-95615201D02*
X80393960Y-95691391D01*
X80393960Y-95691391D02*
X80355865Y-95729487D01*
X80355865Y-95729487D02*
X80279674Y-95767582D01*
X80279674Y-95767582D02*
X80051103Y-95767582D01*
X80051103Y-95767582D02*
X79974912Y-95729487D01*
X79974912Y-95729487D02*
X79936817Y-95691391D01*
X109466667Y-93298855D02*
X109200000Y-92917902D01*
X109009524Y-93298855D02*
X109009524Y-92498855D01*
X109009524Y-92498855D02*
X109314286Y-92498855D01*
X109314286Y-92498855D02*
X109390476Y-92536950D01*
X109390476Y-92536950D02*
X109428571Y-92575045D01*
X109428571Y-92575045D02*
X109466667Y-92651236D01*
X109466667Y-92651236D02*
X109466667Y-92765521D01*
X109466667Y-92765521D02*
X109428571Y-92841712D01*
X109428571Y-92841712D02*
X109390476Y-92879807D01*
X109390476Y-92879807D02*
X109314286Y-92917902D01*
X109314286Y-92917902D02*
X109009524Y-92917902D01*
X110190476Y-92498855D02*
X109809524Y-92498855D01*
X109809524Y-92498855D02*
X109771428Y-92879807D01*
X109771428Y-92879807D02*
X109809524Y-92841712D01*
X109809524Y-92841712D02*
X109885714Y-92803617D01*
X109885714Y-92803617D02*
X110076190Y-92803617D01*
X110076190Y-92803617D02*
X110152381Y-92841712D01*
X110152381Y-92841712D02*
X110190476Y-92879807D01*
X110190476Y-92879807D02*
X110228571Y-92955998D01*
X110228571Y-92955998D02*
X110228571Y-93146474D01*
X110228571Y-93146474D02*
X110190476Y-93222664D01*
X110190476Y-93222664D02*
X110152381Y-93260760D01*
X110152381Y-93260760D02*
X110076190Y-93298855D01*
X110076190Y-93298855D02*
X109885714Y-93298855D01*
X109885714Y-93298855D02*
X109809524Y-93260760D01*
X109809524Y-93260760D02*
X109771428Y-93222664D01*
X121866667Y-97338855D02*
X121600000Y-96957902D01*
X121409524Y-97338855D02*
X121409524Y-96538855D01*
X121409524Y-96538855D02*
X121714286Y-96538855D01*
X121714286Y-96538855D02*
X121790476Y-96576950D01*
X121790476Y-96576950D02*
X121828571Y-96615045D01*
X121828571Y-96615045D02*
X121866667Y-96691236D01*
X121866667Y-96691236D02*
X121866667Y-96805521D01*
X121866667Y-96805521D02*
X121828571Y-96881712D01*
X121828571Y-96881712D02*
X121790476Y-96919807D01*
X121790476Y-96919807D02*
X121714286Y-96957902D01*
X121714286Y-96957902D02*
X121409524Y-96957902D01*
X122323809Y-96881712D02*
X122247619Y-96843617D01*
X122247619Y-96843617D02*
X122209524Y-96805521D01*
X122209524Y-96805521D02*
X122171428Y-96729331D01*
X122171428Y-96729331D02*
X122171428Y-96691236D01*
X122171428Y-96691236D02*
X122209524Y-96615045D01*
X122209524Y-96615045D02*
X122247619Y-96576950D01*
X122247619Y-96576950D02*
X122323809Y-96538855D01*
X122323809Y-96538855D02*
X122476190Y-96538855D01*
X122476190Y-96538855D02*
X122552381Y-96576950D01*
X122552381Y-96576950D02*
X122590476Y-96615045D01*
X122590476Y-96615045D02*
X122628571Y-96691236D01*
X122628571Y-96691236D02*
X122628571Y-96729331D01*
X122628571Y-96729331D02*
X122590476Y-96805521D01*
X122590476Y-96805521D02*
X122552381Y-96843617D01*
X122552381Y-96843617D02*
X122476190Y-96881712D01*
X122476190Y-96881712D02*
X122323809Y-96881712D01*
X122323809Y-96881712D02*
X122247619Y-96919807D01*
X122247619Y-96919807D02*
X122209524Y-96957902D01*
X122209524Y-96957902D02*
X122171428Y-97034093D01*
X122171428Y-97034093D02*
X122171428Y-97186474D01*
X122171428Y-97186474D02*
X122209524Y-97262664D01*
X122209524Y-97262664D02*
X122247619Y-97300760D01*
X122247619Y-97300760D02*
X122323809Y-97338855D01*
X122323809Y-97338855D02*
X122476190Y-97338855D01*
X122476190Y-97338855D02*
X122552381Y-97300760D01*
X122552381Y-97300760D02*
X122590476Y-97262664D01*
X122590476Y-97262664D02*
X122628571Y-97186474D01*
X122628571Y-97186474D02*
X122628571Y-97034093D01*
X122628571Y-97034093D02*
X122590476Y-96957902D01*
X122590476Y-96957902D02*
X122552381Y-96919807D01*
X122552381Y-96919807D02*
X122476190Y-96881712D01*
X123489198Y-106967582D02*
X123946341Y-106967582D01*
X123717769Y-107767582D02*
X123717769Y-106967582D01*
X124213008Y-107767582D02*
X124213008Y-106967582D01*
X124213008Y-106967582D02*
X124517770Y-106967582D01*
X124517770Y-106967582D02*
X124593960Y-107005677D01*
X124593960Y-107005677D02*
X124632055Y-107043772D01*
X124632055Y-107043772D02*
X124670151Y-107119963D01*
X124670151Y-107119963D02*
X124670151Y-107234248D01*
X124670151Y-107234248D02*
X124632055Y-107310439D01*
X124632055Y-107310439D02*
X124593960Y-107348534D01*
X124593960Y-107348534D02*
X124517770Y-107386629D01*
X124517770Y-107386629D02*
X124213008Y-107386629D01*
X125355865Y-107234248D02*
X125355865Y-107767582D01*
X125165389Y-106929487D02*
X124974912Y-107500915D01*
X124974912Y-107500915D02*
X125470151Y-107500915D01*
X98585714Y-89042664D02*
X98547618Y-89080760D01*
X98547618Y-89080760D02*
X98433333Y-89118855D01*
X98433333Y-89118855D02*
X98357142Y-89118855D01*
X98357142Y-89118855D02*
X98242856Y-89080760D01*
X98242856Y-89080760D02*
X98166666Y-89004569D01*
X98166666Y-89004569D02*
X98128571Y-88928379D01*
X98128571Y-88928379D02*
X98090475Y-88775998D01*
X98090475Y-88775998D02*
X98090475Y-88661712D01*
X98090475Y-88661712D02*
X98128571Y-88509331D01*
X98128571Y-88509331D02*
X98166666Y-88433140D01*
X98166666Y-88433140D02*
X98242856Y-88356950D01*
X98242856Y-88356950D02*
X98357142Y-88318855D01*
X98357142Y-88318855D02*
X98433333Y-88318855D01*
X98433333Y-88318855D02*
X98547618Y-88356950D01*
X98547618Y-88356950D02*
X98585714Y-88395045D01*
X98890475Y-88395045D02*
X98928571Y-88356950D01*
X98928571Y-88356950D02*
X99004761Y-88318855D01*
X99004761Y-88318855D02*
X99195237Y-88318855D01*
X99195237Y-88318855D02*
X99271428Y-88356950D01*
X99271428Y-88356950D02*
X99309523Y-88395045D01*
X99309523Y-88395045D02*
X99347618Y-88471236D01*
X99347618Y-88471236D02*
X99347618Y-88547426D01*
X99347618Y-88547426D02*
X99309523Y-88661712D01*
X99309523Y-88661712D02*
X98852380Y-89118855D01*
X98852380Y-89118855D02*
X99347618Y-89118855D01*
X99614285Y-88318855D02*
X100109523Y-88318855D01*
X100109523Y-88318855D02*
X99842857Y-88623617D01*
X99842857Y-88623617D02*
X99957142Y-88623617D01*
X99957142Y-88623617D02*
X100033333Y-88661712D01*
X100033333Y-88661712D02*
X100071428Y-88699807D01*
X100071428Y-88699807D02*
X100109523Y-88775998D01*
X100109523Y-88775998D02*
X100109523Y-88966474D01*
X100109523Y-88966474D02*
X100071428Y-89042664D01*
X100071428Y-89042664D02*
X100033333Y-89080760D01*
X100033333Y-89080760D02*
X99957142Y-89118855D01*
X99957142Y-89118855D02*
X99728571Y-89118855D01*
X99728571Y-89118855D02*
X99652380Y-89080760D01*
X99652380Y-89080760D02*
X99614285Y-89042664D01*
X107985714Y-89782664D02*
X107947618Y-89820760D01*
X107947618Y-89820760D02*
X107833333Y-89858855D01*
X107833333Y-89858855D02*
X107757142Y-89858855D01*
X107757142Y-89858855D02*
X107642856Y-89820760D01*
X107642856Y-89820760D02*
X107566666Y-89744569D01*
X107566666Y-89744569D02*
X107528571Y-89668379D01*
X107528571Y-89668379D02*
X107490475Y-89515998D01*
X107490475Y-89515998D02*
X107490475Y-89401712D01*
X107490475Y-89401712D02*
X107528571Y-89249331D01*
X107528571Y-89249331D02*
X107566666Y-89173140D01*
X107566666Y-89173140D02*
X107642856Y-89096950D01*
X107642856Y-89096950D02*
X107757142Y-89058855D01*
X107757142Y-89058855D02*
X107833333Y-89058855D01*
X107833333Y-89058855D02*
X107947618Y-89096950D01*
X107947618Y-89096950D02*
X107985714Y-89135045D01*
X108747618Y-89858855D02*
X108290475Y-89858855D01*
X108519047Y-89858855D02*
X108519047Y-89058855D01*
X108519047Y-89058855D02*
X108442856Y-89173140D01*
X108442856Y-89173140D02*
X108366666Y-89249331D01*
X108366666Y-89249331D02*
X108290475Y-89287426D01*
X109128571Y-89858855D02*
X109280952Y-89858855D01*
X109280952Y-89858855D02*
X109357142Y-89820760D01*
X109357142Y-89820760D02*
X109395238Y-89782664D01*
X109395238Y-89782664D02*
X109471428Y-89668379D01*
X109471428Y-89668379D02*
X109509523Y-89515998D01*
X109509523Y-89515998D02*
X109509523Y-89211236D01*
X109509523Y-89211236D02*
X109471428Y-89135045D01*
X109471428Y-89135045D02*
X109433333Y-89096950D01*
X109433333Y-89096950D02*
X109357142Y-89058855D01*
X109357142Y-89058855D02*
X109204761Y-89058855D01*
X109204761Y-89058855D02*
X109128571Y-89096950D01*
X109128571Y-89096950D02*
X109090476Y-89135045D01*
X109090476Y-89135045D02*
X109052380Y-89211236D01*
X109052380Y-89211236D02*
X109052380Y-89401712D01*
X109052380Y-89401712D02*
X109090476Y-89477902D01*
X109090476Y-89477902D02*
X109128571Y-89515998D01*
X109128571Y-89515998D02*
X109204761Y-89554093D01*
X109204761Y-89554093D02*
X109357142Y-89554093D01*
X109357142Y-89554093D02*
X109433333Y-89515998D01*
X109433333Y-89515998D02*
X109471428Y-89477902D01*
X109471428Y-89477902D02*
X109509523Y-89401712D01*
X114985714Y-108732664D02*
X114947618Y-108770760D01*
X114947618Y-108770760D02*
X114833333Y-108808855D01*
X114833333Y-108808855D02*
X114757142Y-108808855D01*
X114757142Y-108808855D02*
X114642856Y-108770760D01*
X114642856Y-108770760D02*
X114566666Y-108694569D01*
X114566666Y-108694569D02*
X114528571Y-108618379D01*
X114528571Y-108618379D02*
X114490475Y-108465998D01*
X114490475Y-108465998D02*
X114490475Y-108351712D01*
X114490475Y-108351712D02*
X114528571Y-108199331D01*
X114528571Y-108199331D02*
X114566666Y-108123140D01*
X114566666Y-108123140D02*
X114642856Y-108046950D01*
X114642856Y-108046950D02*
X114757142Y-108008855D01*
X114757142Y-108008855D02*
X114833333Y-108008855D01*
X114833333Y-108008855D02*
X114947618Y-108046950D01*
X114947618Y-108046950D02*
X114985714Y-108085045D01*
X115290475Y-108085045D02*
X115328571Y-108046950D01*
X115328571Y-108046950D02*
X115404761Y-108008855D01*
X115404761Y-108008855D02*
X115595237Y-108008855D01*
X115595237Y-108008855D02*
X115671428Y-108046950D01*
X115671428Y-108046950D02*
X115709523Y-108085045D01*
X115709523Y-108085045D02*
X115747618Y-108161236D01*
X115747618Y-108161236D02*
X115747618Y-108237426D01*
X115747618Y-108237426D02*
X115709523Y-108351712D01*
X115709523Y-108351712D02*
X115252380Y-108808855D01*
X115252380Y-108808855D02*
X115747618Y-108808855D01*
X116433333Y-108008855D02*
X116280952Y-108008855D01*
X116280952Y-108008855D02*
X116204761Y-108046950D01*
X116204761Y-108046950D02*
X116166666Y-108085045D01*
X116166666Y-108085045D02*
X116090476Y-108199331D01*
X116090476Y-108199331D02*
X116052380Y-108351712D01*
X116052380Y-108351712D02*
X116052380Y-108656474D01*
X116052380Y-108656474D02*
X116090476Y-108732664D01*
X116090476Y-108732664D02*
X116128571Y-108770760D01*
X116128571Y-108770760D02*
X116204761Y-108808855D01*
X116204761Y-108808855D02*
X116357142Y-108808855D01*
X116357142Y-108808855D02*
X116433333Y-108770760D01*
X116433333Y-108770760D02*
X116471428Y-108732664D01*
X116471428Y-108732664D02*
X116509523Y-108656474D01*
X116509523Y-108656474D02*
X116509523Y-108465998D01*
X116509523Y-108465998D02*
X116471428Y-108389807D01*
X116471428Y-108389807D02*
X116433333Y-108351712D01*
X116433333Y-108351712D02*
X116357142Y-108313617D01*
X116357142Y-108313617D02*
X116204761Y-108313617D01*
X116204761Y-108313617D02*
X116128571Y-108351712D01*
X116128571Y-108351712D02*
X116090476Y-108389807D01*
X116090476Y-108389807D02*
X116052380Y-108465998D01*
X88608245Y-84467582D02*
X89065388Y-84467582D01*
X88836816Y-85267582D02*
X88836816Y-84467582D01*
X89332055Y-85267582D02*
X89332055Y-84467582D01*
X89332055Y-84467582D02*
X89636817Y-84467582D01*
X89636817Y-84467582D02*
X89713007Y-84505677D01*
X89713007Y-84505677D02*
X89751102Y-84543772D01*
X89751102Y-84543772D02*
X89789198Y-84619963D01*
X89789198Y-84619963D02*
X89789198Y-84734248D01*
X89789198Y-84734248D02*
X89751102Y-84810439D01*
X89751102Y-84810439D02*
X89713007Y-84848534D01*
X89713007Y-84848534D02*
X89636817Y-84886629D01*
X89636817Y-84886629D02*
X89332055Y-84886629D01*
X90551102Y-85267582D02*
X90093959Y-85267582D01*
X90322531Y-85267582D02*
X90322531Y-84467582D01*
X90322531Y-84467582D02*
X90246340Y-84581867D01*
X90246340Y-84581867D02*
X90170150Y-84658058D01*
X90170150Y-84658058D02*
X90093959Y-84696153D01*
X91313007Y-85267582D02*
X90855864Y-85267582D01*
X91084436Y-85267582D02*
X91084436Y-84467582D01*
X91084436Y-84467582D02*
X91008245Y-84581867D01*
X91008245Y-84581867D02*
X90932055Y-84658058D01*
X90932055Y-84658058D02*
X90855864Y-84696153D01*
X84666667Y-95782664D02*
X84628571Y-95820760D01*
X84628571Y-95820760D02*
X84514286Y-95858855D01*
X84514286Y-95858855D02*
X84438095Y-95858855D01*
X84438095Y-95858855D02*
X84323809Y-95820760D01*
X84323809Y-95820760D02*
X84247619Y-95744569D01*
X84247619Y-95744569D02*
X84209524Y-95668379D01*
X84209524Y-95668379D02*
X84171428Y-95515998D01*
X84171428Y-95515998D02*
X84171428Y-95401712D01*
X84171428Y-95401712D02*
X84209524Y-95249331D01*
X84209524Y-95249331D02*
X84247619Y-95173140D01*
X84247619Y-95173140D02*
X84323809Y-95096950D01*
X84323809Y-95096950D02*
X84438095Y-95058855D01*
X84438095Y-95058855D02*
X84514286Y-95058855D01*
X84514286Y-95058855D02*
X84628571Y-95096950D01*
X84628571Y-95096950D02*
X84666667Y-95135045D01*
X84933333Y-95058855D02*
X85428571Y-95058855D01*
X85428571Y-95058855D02*
X85161905Y-95363617D01*
X85161905Y-95363617D02*
X85276190Y-95363617D01*
X85276190Y-95363617D02*
X85352381Y-95401712D01*
X85352381Y-95401712D02*
X85390476Y-95439807D01*
X85390476Y-95439807D02*
X85428571Y-95515998D01*
X85428571Y-95515998D02*
X85428571Y-95706474D01*
X85428571Y-95706474D02*
X85390476Y-95782664D01*
X85390476Y-95782664D02*
X85352381Y-95820760D01*
X85352381Y-95820760D02*
X85276190Y-95858855D01*
X85276190Y-95858855D02*
X85047619Y-95858855D01*
X85047619Y-95858855D02*
X84971428Y-95820760D01*
X84971428Y-95820760D02*
X84933333Y-95782664D01*
X87390476Y-103268855D02*
X87390476Y-103916474D01*
X87390476Y-103916474D02*
X87428571Y-103992664D01*
X87428571Y-103992664D02*
X87466666Y-104030760D01*
X87466666Y-104030760D02*
X87542857Y-104068855D01*
X87542857Y-104068855D02*
X87695238Y-104068855D01*
X87695238Y-104068855D02*
X87771428Y-104030760D01*
X87771428Y-104030760D02*
X87809523Y-103992664D01*
X87809523Y-103992664D02*
X87847619Y-103916474D01*
X87847619Y-103916474D02*
X87847619Y-103268855D01*
X88152380Y-103268855D02*
X88647618Y-103268855D01*
X88647618Y-103268855D02*
X88380952Y-103573617D01*
X88380952Y-103573617D02*
X88495237Y-103573617D01*
X88495237Y-103573617D02*
X88571428Y-103611712D01*
X88571428Y-103611712D02*
X88609523Y-103649807D01*
X88609523Y-103649807D02*
X88647618Y-103725998D01*
X88647618Y-103725998D02*
X88647618Y-103916474D01*
X88647618Y-103916474D02*
X88609523Y-103992664D01*
X88609523Y-103992664D02*
X88571428Y-104030760D01*
X88571428Y-104030760D02*
X88495237Y-104068855D01*
X88495237Y-104068855D02*
X88266666Y-104068855D01*
X88266666Y-104068855D02*
X88190475Y-104030760D01*
X88190475Y-104030760D02*
X88152380Y-103992664D01*
X109489198Y-87467582D02*
X109946341Y-87467582D01*
X109717769Y-88267582D02*
X109717769Y-87467582D01*
X110213008Y-88267582D02*
X110213008Y-87467582D01*
X110213008Y-87467582D02*
X110517770Y-87467582D01*
X110517770Y-87467582D02*
X110593960Y-87505677D01*
X110593960Y-87505677D02*
X110632055Y-87543772D01*
X110632055Y-87543772D02*
X110670151Y-87619963D01*
X110670151Y-87619963D02*
X110670151Y-87734248D01*
X110670151Y-87734248D02*
X110632055Y-87810439D01*
X110632055Y-87810439D02*
X110593960Y-87848534D01*
X110593960Y-87848534D02*
X110517770Y-87886629D01*
X110517770Y-87886629D02*
X110213008Y-87886629D01*
X111393960Y-87467582D02*
X111013008Y-87467582D01*
X111013008Y-87467582D02*
X110974912Y-87848534D01*
X110974912Y-87848534D02*
X111013008Y-87810439D01*
X111013008Y-87810439D02*
X111089198Y-87772344D01*
X111089198Y-87772344D02*
X111279674Y-87772344D01*
X111279674Y-87772344D02*
X111355865Y-87810439D01*
X111355865Y-87810439D02*
X111393960Y-87848534D01*
X111393960Y-87848534D02*
X111432055Y-87924725D01*
X111432055Y-87924725D02*
X111432055Y-88115201D01*
X111432055Y-88115201D02*
X111393960Y-88191391D01*
X111393960Y-88191391D02*
X111355865Y-88229487D01*
X111355865Y-88229487D02*
X111279674Y-88267582D01*
X111279674Y-88267582D02*
X111089198Y-88267582D01*
X111089198Y-88267582D02*
X111013008Y-88229487D01*
X111013008Y-88229487D02*
X110974912Y-88191391D01*
X97410714Y-99787664D02*
X97372618Y-99825760D01*
X97372618Y-99825760D02*
X97258333Y-99863855D01*
X97258333Y-99863855D02*
X97182142Y-99863855D01*
X97182142Y-99863855D02*
X97067856Y-99825760D01*
X97067856Y-99825760D02*
X96991666Y-99749569D01*
X96991666Y-99749569D02*
X96953571Y-99673379D01*
X96953571Y-99673379D02*
X96915475Y-99520998D01*
X96915475Y-99520998D02*
X96915475Y-99406712D01*
X96915475Y-99406712D02*
X96953571Y-99254331D01*
X96953571Y-99254331D02*
X96991666Y-99178140D01*
X96991666Y-99178140D02*
X97067856Y-99101950D01*
X97067856Y-99101950D02*
X97182142Y-99063855D01*
X97182142Y-99063855D02*
X97258333Y-99063855D01*
X97258333Y-99063855D02*
X97372618Y-99101950D01*
X97372618Y-99101950D02*
X97410714Y-99140045D01*
X97715475Y-99140045D02*
X97753571Y-99101950D01*
X97753571Y-99101950D02*
X97829761Y-99063855D01*
X97829761Y-99063855D02*
X98020237Y-99063855D01*
X98020237Y-99063855D02*
X98096428Y-99101950D01*
X98096428Y-99101950D02*
X98134523Y-99140045D01*
X98134523Y-99140045D02*
X98172618Y-99216236D01*
X98172618Y-99216236D02*
X98172618Y-99292426D01*
X98172618Y-99292426D02*
X98134523Y-99406712D01*
X98134523Y-99406712D02*
X97677380Y-99863855D01*
X97677380Y-99863855D02*
X98172618Y-99863855D01*
X98667857Y-99063855D02*
X98744047Y-99063855D01*
X98744047Y-99063855D02*
X98820238Y-99101950D01*
X98820238Y-99101950D02*
X98858333Y-99140045D01*
X98858333Y-99140045D02*
X98896428Y-99216236D01*
X98896428Y-99216236D02*
X98934523Y-99368617D01*
X98934523Y-99368617D02*
X98934523Y-99559093D01*
X98934523Y-99559093D02*
X98896428Y-99711474D01*
X98896428Y-99711474D02*
X98858333Y-99787664D01*
X98858333Y-99787664D02*
X98820238Y-99825760D01*
X98820238Y-99825760D02*
X98744047Y-99863855D01*
X98744047Y-99863855D02*
X98667857Y-99863855D01*
X98667857Y-99863855D02*
X98591666Y-99825760D01*
X98591666Y-99825760D02*
X98553571Y-99787664D01*
X98553571Y-99787664D02*
X98515476Y-99711474D01*
X98515476Y-99711474D02*
X98477380Y-99559093D01*
X98477380Y-99559093D02*
X98477380Y-99368617D01*
X98477380Y-99368617D02*
X98515476Y-99216236D01*
X98515476Y-99216236D02*
X98553571Y-99140045D01*
X98553571Y-99140045D02*
X98591666Y-99101950D01*
X98591666Y-99101950D02*
X98667857Y-99063855D01*
X109489198Y-100967582D02*
X109946341Y-100967582D01*
X109717769Y-101767582D02*
X109717769Y-100967582D01*
X110213008Y-101767582D02*
X110213008Y-100967582D01*
X110213008Y-100967582D02*
X110517770Y-100967582D01*
X110517770Y-100967582D02*
X110593960Y-101005677D01*
X110593960Y-101005677D02*
X110632055Y-101043772D01*
X110632055Y-101043772D02*
X110670151Y-101119963D01*
X110670151Y-101119963D02*
X110670151Y-101234248D01*
X110670151Y-101234248D02*
X110632055Y-101310439D01*
X110632055Y-101310439D02*
X110593960Y-101348534D01*
X110593960Y-101348534D02*
X110517770Y-101386629D01*
X110517770Y-101386629D02*
X110213008Y-101386629D01*
X111051103Y-101767582D02*
X111203484Y-101767582D01*
X111203484Y-101767582D02*
X111279674Y-101729487D01*
X111279674Y-101729487D02*
X111317770Y-101691391D01*
X111317770Y-101691391D02*
X111393960Y-101577106D01*
X111393960Y-101577106D02*
X111432055Y-101424725D01*
X111432055Y-101424725D02*
X111432055Y-101119963D01*
X111432055Y-101119963D02*
X111393960Y-101043772D01*
X111393960Y-101043772D02*
X111355865Y-101005677D01*
X111355865Y-101005677D02*
X111279674Y-100967582D01*
X111279674Y-100967582D02*
X111127293Y-100967582D01*
X111127293Y-100967582D02*
X111051103Y-101005677D01*
X111051103Y-101005677D02*
X111013008Y-101043772D01*
X111013008Y-101043772D02*
X110974912Y-101119963D01*
X110974912Y-101119963D02*
X110974912Y-101310439D01*
X110974912Y-101310439D02*
X111013008Y-101386629D01*
X111013008Y-101386629D02*
X111051103Y-101424725D01*
X111051103Y-101424725D02*
X111127293Y-101462820D01*
X111127293Y-101462820D02*
X111279674Y-101462820D01*
X111279674Y-101462820D02*
X111355865Y-101424725D01*
X111355865Y-101424725D02*
X111393960Y-101386629D01*
X111393960Y-101386629D02*
X111432055Y-101310439D01*
X95366667Y-119838855D02*
X95100000Y-119457902D01*
X94909524Y-119838855D02*
X94909524Y-119038855D01*
X94909524Y-119038855D02*
X95214286Y-119038855D01*
X95214286Y-119038855D02*
X95290476Y-119076950D01*
X95290476Y-119076950D02*
X95328571Y-119115045D01*
X95328571Y-119115045D02*
X95366667Y-119191236D01*
X95366667Y-119191236D02*
X95366667Y-119305521D01*
X95366667Y-119305521D02*
X95328571Y-119381712D01*
X95328571Y-119381712D02*
X95290476Y-119419807D01*
X95290476Y-119419807D02*
X95214286Y-119457902D01*
X95214286Y-119457902D02*
X94909524Y-119457902D01*
X96128571Y-119838855D02*
X95671428Y-119838855D01*
X95900000Y-119838855D02*
X95900000Y-119038855D01*
X95900000Y-119038855D02*
X95823809Y-119153140D01*
X95823809Y-119153140D02*
X95747619Y-119229331D01*
X95747619Y-119229331D02*
X95671428Y-119267426D01*
X110489198Y-118467582D02*
X110946341Y-118467582D01*
X110717769Y-119267582D02*
X110717769Y-118467582D01*
X111213008Y-119267582D02*
X111213008Y-118467582D01*
X111213008Y-118467582D02*
X111517770Y-118467582D01*
X111517770Y-118467582D02*
X111593960Y-118505677D01*
X111593960Y-118505677D02*
X111632055Y-118543772D01*
X111632055Y-118543772D02*
X111670151Y-118619963D01*
X111670151Y-118619963D02*
X111670151Y-118734248D01*
X111670151Y-118734248D02*
X111632055Y-118810439D01*
X111632055Y-118810439D02*
X111593960Y-118848534D01*
X111593960Y-118848534D02*
X111517770Y-118886629D01*
X111517770Y-118886629D02*
X111213008Y-118886629D01*
X112432055Y-119267582D02*
X111974912Y-119267582D01*
X112203484Y-119267582D02*
X112203484Y-118467582D01*
X112203484Y-118467582D02*
X112127293Y-118581867D01*
X112127293Y-118581867D02*
X112051103Y-118658058D01*
X112051103Y-118658058D02*
X111974912Y-118696153D01*
X109466667Y-96528854D02*
X109200000Y-96147901D01*
X109009524Y-96528854D02*
X109009524Y-95728854D01*
X109009524Y-95728854D02*
X109314286Y-95728854D01*
X109314286Y-95728854D02*
X109390476Y-95766949D01*
X109390476Y-95766949D02*
X109428571Y-95805044D01*
X109428571Y-95805044D02*
X109466667Y-95881235D01*
X109466667Y-95881235D02*
X109466667Y-95995520D01*
X109466667Y-95995520D02*
X109428571Y-96071711D01*
X109428571Y-96071711D02*
X109390476Y-96109806D01*
X109390476Y-96109806D02*
X109314286Y-96147901D01*
X109314286Y-96147901D02*
X109009524Y-96147901D01*
X110152381Y-95728854D02*
X110000000Y-95728854D01*
X110000000Y-95728854D02*
X109923809Y-95766949D01*
X109923809Y-95766949D02*
X109885714Y-95805044D01*
X109885714Y-95805044D02*
X109809524Y-95919330D01*
X109809524Y-95919330D02*
X109771428Y-96071711D01*
X109771428Y-96071711D02*
X109771428Y-96376473D01*
X109771428Y-96376473D02*
X109809524Y-96452663D01*
X109809524Y-96452663D02*
X109847619Y-96490759D01*
X109847619Y-96490759D02*
X109923809Y-96528854D01*
X109923809Y-96528854D02*
X110076190Y-96528854D01*
X110076190Y-96528854D02*
X110152381Y-96490759D01*
X110152381Y-96490759D02*
X110190476Y-96452663D01*
X110190476Y-96452663D02*
X110228571Y-96376473D01*
X110228571Y-96376473D02*
X110228571Y-96185997D01*
X110228571Y-96185997D02*
X110190476Y-96109806D01*
X110190476Y-96109806D02*
X110152381Y-96071711D01*
X110152381Y-96071711D02*
X110076190Y-96033616D01*
X110076190Y-96033616D02*
X109923809Y-96033616D01*
X109923809Y-96033616D02*
X109847619Y-96071711D01*
X109847619Y-96071711D02*
X109809524Y-96109806D01*
X109809524Y-96109806D02*
X109771428Y-96185997D01*
X84166667Y-103992664D02*
X84128571Y-104030760D01*
X84128571Y-104030760D02*
X84014286Y-104068855D01*
X84014286Y-104068855D02*
X83938095Y-104068855D01*
X83938095Y-104068855D02*
X83823809Y-104030760D01*
X83823809Y-104030760D02*
X83747619Y-103954569D01*
X83747619Y-103954569D02*
X83709524Y-103878379D01*
X83709524Y-103878379D02*
X83671428Y-103725998D01*
X83671428Y-103725998D02*
X83671428Y-103611712D01*
X83671428Y-103611712D02*
X83709524Y-103459331D01*
X83709524Y-103459331D02*
X83747619Y-103383140D01*
X83747619Y-103383140D02*
X83823809Y-103306950D01*
X83823809Y-103306950D02*
X83938095Y-103268855D01*
X83938095Y-103268855D02*
X84014286Y-103268855D01*
X84014286Y-103268855D02*
X84128571Y-103306950D01*
X84128571Y-103306950D02*
X84166667Y-103345045D01*
X84928571Y-104068855D02*
X84471428Y-104068855D01*
X84700000Y-104068855D02*
X84700000Y-103268855D01*
X84700000Y-103268855D02*
X84623809Y-103383140D01*
X84623809Y-103383140D02*
X84547619Y-103459331D01*
X84547619Y-103459331D02*
X84471428Y-103497426D01*
X81433332Y-84230760D02*
X81547618Y-84268855D01*
X81547618Y-84268855D02*
X81738094Y-84268855D01*
X81738094Y-84268855D02*
X81814285Y-84230760D01*
X81814285Y-84230760D02*
X81852380Y-84192664D01*
X81852380Y-84192664D02*
X81890475Y-84116474D01*
X81890475Y-84116474D02*
X81890475Y-84040283D01*
X81890475Y-84040283D02*
X81852380Y-83964093D01*
X81852380Y-83964093D02*
X81814285Y-83925998D01*
X81814285Y-83925998D02*
X81738094Y-83887902D01*
X81738094Y-83887902D02*
X81585713Y-83849807D01*
X81585713Y-83849807D02*
X81509523Y-83811712D01*
X81509523Y-83811712D02*
X81471428Y-83773617D01*
X81471428Y-83773617D02*
X81433332Y-83697426D01*
X81433332Y-83697426D02*
X81433332Y-83621236D01*
X81433332Y-83621236D02*
X81471428Y-83545045D01*
X81471428Y-83545045D02*
X81509523Y-83506950D01*
X81509523Y-83506950D02*
X81585713Y-83468855D01*
X81585713Y-83468855D02*
X81776190Y-83468855D01*
X81776190Y-83468855D02*
X81890475Y-83506950D01*
X82157142Y-83468855D02*
X82347618Y-84268855D01*
X82347618Y-84268855D02*
X82499999Y-83697426D01*
X82499999Y-83697426D02*
X82652380Y-84268855D01*
X82652380Y-84268855D02*
X82842857Y-83468855D01*
X83566666Y-84268855D02*
X83109523Y-84268855D01*
X83338095Y-84268855D02*
X83338095Y-83468855D01*
X83338095Y-83468855D02*
X83261904Y-83583140D01*
X83261904Y-83583140D02*
X83185714Y-83659331D01*
X83185714Y-83659331D02*
X83109523Y-83697426D01*
X109489198Y-98660127D02*
X109946341Y-98660127D01*
X109717769Y-99460127D02*
X109717769Y-98660127D01*
X110213008Y-99460127D02*
X110213008Y-98660127D01*
X110213008Y-98660127D02*
X110517770Y-98660127D01*
X110517770Y-98660127D02*
X110593960Y-98698222D01*
X110593960Y-98698222D02*
X110632055Y-98736317D01*
X110632055Y-98736317D02*
X110670151Y-98812508D01*
X110670151Y-98812508D02*
X110670151Y-98926793D01*
X110670151Y-98926793D02*
X110632055Y-99002984D01*
X110632055Y-99002984D02*
X110593960Y-99041079D01*
X110593960Y-99041079D02*
X110517770Y-99079174D01*
X110517770Y-99079174D02*
X110213008Y-99079174D01*
X110936817Y-98660127D02*
X111470151Y-98660127D01*
X111470151Y-98660127D02*
X111127293Y-99460127D01*
X103390476Y-89218855D02*
X103390476Y-89866474D01*
X103390476Y-89866474D02*
X103428571Y-89942664D01*
X103428571Y-89942664D02*
X103466666Y-89980760D01*
X103466666Y-89980760D02*
X103542857Y-90018855D01*
X103542857Y-90018855D02*
X103695238Y-90018855D01*
X103695238Y-90018855D02*
X103771428Y-89980760D01*
X103771428Y-89980760D02*
X103809523Y-89942664D01*
X103809523Y-89942664D02*
X103847619Y-89866474D01*
X103847619Y-89866474D02*
X103847619Y-89218855D01*
X104152380Y-89218855D02*
X104685714Y-89218855D01*
X104685714Y-89218855D02*
X104342856Y-90018855D01*
X99485714Y-126298855D02*
X99219047Y-125917902D01*
X99028571Y-126298855D02*
X99028571Y-125498855D01*
X99028571Y-125498855D02*
X99333333Y-125498855D01*
X99333333Y-125498855D02*
X99409523Y-125536950D01*
X99409523Y-125536950D02*
X99447618Y-125575045D01*
X99447618Y-125575045D02*
X99485714Y-125651236D01*
X99485714Y-125651236D02*
X99485714Y-125765521D01*
X99485714Y-125765521D02*
X99447618Y-125841712D01*
X99447618Y-125841712D02*
X99409523Y-125879807D01*
X99409523Y-125879807D02*
X99333333Y-125917902D01*
X99333333Y-125917902D02*
X99028571Y-125917902D01*
X100247618Y-126298855D02*
X99790475Y-126298855D01*
X100019047Y-126298855D02*
X100019047Y-125498855D01*
X100019047Y-125498855D02*
X99942856Y-125613140D01*
X99942856Y-125613140D02*
X99866666Y-125689331D01*
X99866666Y-125689331D02*
X99790475Y-125727426D01*
X101009523Y-126298855D02*
X100552380Y-126298855D01*
X100780952Y-126298855D02*
X100780952Y-125498855D01*
X100780952Y-125498855D02*
X100704761Y-125613140D01*
X100704761Y-125613140D02*
X100628571Y-125689331D01*
X100628571Y-125689331D02*
X100552380Y-125727426D01*
X88608245Y-90160127D02*
X89065388Y-90160127D01*
X88836816Y-90960127D02*
X88836816Y-90160127D01*
X89332055Y-90960127D02*
X89332055Y-90160127D01*
X89332055Y-90160127D02*
X89636817Y-90160127D01*
X89636817Y-90160127D02*
X89713007Y-90198222D01*
X89713007Y-90198222D02*
X89751102Y-90236317D01*
X89751102Y-90236317D02*
X89789198Y-90312508D01*
X89789198Y-90312508D02*
X89789198Y-90426793D01*
X89789198Y-90426793D02*
X89751102Y-90502984D01*
X89751102Y-90502984D02*
X89713007Y-90541079D01*
X89713007Y-90541079D02*
X89636817Y-90579174D01*
X89636817Y-90579174D02*
X89332055Y-90579174D01*
X90551102Y-90960127D02*
X90093959Y-90960127D01*
X90322531Y-90960127D02*
X90322531Y-90160127D01*
X90322531Y-90160127D02*
X90246340Y-90274412D01*
X90246340Y-90274412D02*
X90170150Y-90350603D01*
X90170150Y-90350603D02*
X90093959Y-90388698D01*
X90855864Y-90236317D02*
X90893960Y-90198222D01*
X90893960Y-90198222D02*
X90970150Y-90160127D01*
X90970150Y-90160127D02*
X91160626Y-90160127D01*
X91160626Y-90160127D02*
X91236817Y-90198222D01*
X91236817Y-90198222D02*
X91274912Y-90236317D01*
X91274912Y-90236317D02*
X91313007Y-90312508D01*
X91313007Y-90312508D02*
X91313007Y-90388698D01*
X91313007Y-90388698D02*
X91274912Y-90502984D01*
X91274912Y-90502984D02*
X90817769Y-90960127D01*
X90817769Y-90960127D02*
X91313007Y-90960127D01*
X99733333Y-111768855D02*
X99733333Y-112340283D01*
X99733333Y-112340283D02*
X99695238Y-112454569D01*
X99695238Y-112454569D02*
X99619047Y-112530760D01*
X99619047Y-112530760D02*
X99504762Y-112568855D01*
X99504762Y-112568855D02*
X99428571Y-112568855D01*
X100533333Y-112568855D02*
X100076190Y-112568855D01*
X100304762Y-112568855D02*
X100304762Y-111768855D01*
X100304762Y-111768855D02*
X100228571Y-111883140D01*
X100228571Y-111883140D02*
X100152381Y-111959331D01*
X100152381Y-111959331D02*
X100076190Y-111997426D01*
X115366667Y-99298855D02*
X115100000Y-98917902D01*
X114909524Y-99298855D02*
X114909524Y-98498855D01*
X114909524Y-98498855D02*
X115214286Y-98498855D01*
X115214286Y-98498855D02*
X115290476Y-98536950D01*
X115290476Y-98536950D02*
X115328571Y-98575045D01*
X115328571Y-98575045D02*
X115366667Y-98651236D01*
X115366667Y-98651236D02*
X115366667Y-98765521D01*
X115366667Y-98765521D02*
X115328571Y-98841712D01*
X115328571Y-98841712D02*
X115290476Y-98879807D01*
X115290476Y-98879807D02*
X115214286Y-98917902D01*
X115214286Y-98917902D02*
X114909524Y-98917902D01*
X115747619Y-99298855D02*
X115900000Y-99298855D01*
X115900000Y-99298855D02*
X115976190Y-99260760D01*
X115976190Y-99260760D02*
X116014286Y-99222664D01*
X116014286Y-99222664D02*
X116090476Y-99108379D01*
X116090476Y-99108379D02*
X116128571Y-98955998D01*
X116128571Y-98955998D02*
X116128571Y-98651236D01*
X116128571Y-98651236D02*
X116090476Y-98575045D01*
X116090476Y-98575045D02*
X116052381Y-98536950D01*
X116052381Y-98536950D02*
X115976190Y-98498855D01*
X115976190Y-98498855D02*
X115823809Y-98498855D01*
X115823809Y-98498855D02*
X115747619Y-98536950D01*
X115747619Y-98536950D02*
X115709524Y-98575045D01*
X115709524Y-98575045D02*
X115671428Y-98651236D01*
X115671428Y-98651236D02*
X115671428Y-98841712D01*
X115671428Y-98841712D02*
X115709524Y-98917902D01*
X115709524Y-98917902D02*
X115747619Y-98955998D01*
X115747619Y-98955998D02*
X115823809Y-98994093D01*
X115823809Y-98994093D02*
X115976190Y-98994093D01*
X115976190Y-98994093D02*
X116052381Y-98955998D01*
X116052381Y-98955998D02*
X116090476Y-98917902D01*
X116090476Y-98917902D02*
X116128571Y-98841712D01*
X83985714Y-100538855D02*
X83719047Y-100157902D01*
X83528571Y-100538855D02*
X83528571Y-99738855D01*
X83528571Y-99738855D02*
X83833333Y-99738855D01*
X83833333Y-99738855D02*
X83909523Y-99776950D01*
X83909523Y-99776950D02*
X83947618Y-99815045D01*
X83947618Y-99815045D02*
X83985714Y-99891236D01*
X83985714Y-99891236D02*
X83985714Y-100005521D01*
X83985714Y-100005521D02*
X83947618Y-100081712D01*
X83947618Y-100081712D02*
X83909523Y-100119807D01*
X83909523Y-100119807D02*
X83833333Y-100157902D01*
X83833333Y-100157902D02*
X83528571Y-100157902D01*
X84747618Y-100538855D02*
X84290475Y-100538855D01*
X84519047Y-100538855D02*
X84519047Y-99738855D01*
X84519047Y-99738855D02*
X84442856Y-99853140D01*
X84442856Y-99853140D02*
X84366666Y-99929331D01*
X84366666Y-99929331D02*
X84290475Y-99967426D01*
X85014285Y-99738855D02*
X85509523Y-99738855D01*
X85509523Y-99738855D02*
X85242857Y-100043617D01*
X85242857Y-100043617D02*
X85357142Y-100043617D01*
X85357142Y-100043617D02*
X85433333Y-100081712D01*
X85433333Y-100081712D02*
X85471428Y-100119807D01*
X85471428Y-100119807D02*
X85509523Y-100195998D01*
X85509523Y-100195998D02*
X85509523Y-100386474D01*
X85509523Y-100386474D02*
X85471428Y-100462664D01*
X85471428Y-100462664D02*
X85433333Y-100500760D01*
X85433333Y-100500760D02*
X85357142Y-100538855D01*
X85357142Y-100538855D02*
X85128571Y-100538855D01*
X85128571Y-100538855D02*
X85052380Y-100500760D01*
X85052380Y-100500760D02*
X85014285Y-100462664D01*
X99390476Y-70118855D02*
X99390476Y-70766474D01*
X99390476Y-70766474D02*
X99428571Y-70842664D01*
X99428571Y-70842664D02*
X99466666Y-70880760D01*
X99466666Y-70880760D02*
X99542857Y-70918855D01*
X99542857Y-70918855D02*
X99695238Y-70918855D01*
X99695238Y-70918855D02*
X99771428Y-70880760D01*
X99771428Y-70880760D02*
X99809523Y-70842664D01*
X99809523Y-70842664D02*
X99847619Y-70766474D01*
X99847619Y-70766474D02*
X99847619Y-70118855D01*
X100190475Y-70195045D02*
X100228571Y-70156950D01*
X100228571Y-70156950D02*
X100304761Y-70118855D01*
X100304761Y-70118855D02*
X100495237Y-70118855D01*
X100495237Y-70118855D02*
X100571428Y-70156950D01*
X100571428Y-70156950D02*
X100609523Y-70195045D01*
X100609523Y-70195045D02*
X100647618Y-70271236D01*
X100647618Y-70271236D02*
X100647618Y-70347426D01*
X100647618Y-70347426D02*
X100609523Y-70461712D01*
X100609523Y-70461712D02*
X100152380Y-70918855D01*
X100152380Y-70918855D02*
X100647618Y-70918855D01*
X79733333Y-109968855D02*
X79733333Y-110540283D01*
X79733333Y-110540283D02*
X79695238Y-110654569D01*
X79695238Y-110654569D02*
X79619047Y-110730760D01*
X79619047Y-110730760D02*
X79504762Y-110768855D01*
X79504762Y-110768855D02*
X79428571Y-110768855D01*
X80076190Y-110045045D02*
X80114286Y-110006950D01*
X80114286Y-110006950D02*
X80190476Y-109968855D01*
X80190476Y-109968855D02*
X80380952Y-109968855D01*
X80380952Y-109968855D02*
X80457143Y-110006950D01*
X80457143Y-110006950D02*
X80495238Y-110045045D01*
X80495238Y-110045045D02*
X80533333Y-110121236D01*
X80533333Y-110121236D02*
X80533333Y-110197426D01*
X80533333Y-110197426D02*
X80495238Y-110311712D01*
X80495238Y-110311712D02*
X80038095Y-110768855D01*
X80038095Y-110768855D02*
X80533333Y-110768855D01*
X87390476Y-94268855D02*
X87390476Y-94916474D01*
X87390476Y-94916474D02*
X87428571Y-94992664D01*
X87428571Y-94992664D02*
X87466666Y-95030760D01*
X87466666Y-95030760D02*
X87542857Y-95068855D01*
X87542857Y-95068855D02*
X87695238Y-95068855D01*
X87695238Y-95068855D02*
X87771428Y-95030760D01*
X87771428Y-95030760D02*
X87809523Y-94992664D01*
X87809523Y-94992664D02*
X87847619Y-94916474D01*
X87847619Y-94916474D02*
X87847619Y-94268855D01*
X88571428Y-94535521D02*
X88571428Y-95068855D01*
X88380952Y-94230760D02*
X88190475Y-94802188D01*
X88190475Y-94802188D02*
X88685714Y-94802188D01*
X91566666Y-103992664D02*
X91528570Y-104030760D01*
X91528570Y-104030760D02*
X91414285Y-104068855D01*
X91414285Y-104068855D02*
X91338094Y-104068855D01*
X91338094Y-104068855D02*
X91223808Y-104030760D01*
X91223808Y-104030760D02*
X91147618Y-103954569D01*
X91147618Y-103954569D02*
X91109523Y-103878379D01*
X91109523Y-103878379D02*
X91071427Y-103725998D01*
X91071427Y-103725998D02*
X91071427Y-103611712D01*
X91071427Y-103611712D02*
X91109523Y-103459331D01*
X91109523Y-103459331D02*
X91147618Y-103383140D01*
X91147618Y-103383140D02*
X91223808Y-103306950D01*
X91223808Y-103306950D02*
X91338094Y-103268855D01*
X91338094Y-103268855D02*
X91414285Y-103268855D01*
X91414285Y-103268855D02*
X91528570Y-103306950D01*
X91528570Y-103306950D02*
X91566666Y-103345045D01*
X91871427Y-103345045D02*
X91909523Y-103306950D01*
X91909523Y-103306950D02*
X91985713Y-103268855D01*
X91985713Y-103268855D02*
X92176189Y-103268855D01*
X92176189Y-103268855D02*
X92252380Y-103306950D01*
X92252380Y-103306950D02*
X92290475Y-103345045D01*
X92290475Y-103345045D02*
X92328570Y-103421236D01*
X92328570Y-103421236D02*
X92328570Y-103497426D01*
X92328570Y-103497426D02*
X92290475Y-103611712D01*
X92290475Y-103611712D02*
X91833332Y-104068855D01*
X91833332Y-104068855D02*
X92328570Y-104068855D01*
X107985714Y-98282664D02*
X107947618Y-98320760D01*
X107947618Y-98320760D02*
X107833333Y-98358855D01*
X107833333Y-98358855D02*
X107757142Y-98358855D01*
X107757142Y-98358855D02*
X107642856Y-98320760D01*
X107642856Y-98320760D02*
X107566666Y-98244569D01*
X107566666Y-98244569D02*
X107528571Y-98168379D01*
X107528571Y-98168379D02*
X107490475Y-98015998D01*
X107490475Y-98015998D02*
X107490475Y-97901712D01*
X107490475Y-97901712D02*
X107528571Y-97749331D01*
X107528571Y-97749331D02*
X107566666Y-97673140D01*
X107566666Y-97673140D02*
X107642856Y-97596950D01*
X107642856Y-97596950D02*
X107757142Y-97558855D01*
X107757142Y-97558855D02*
X107833333Y-97558855D01*
X107833333Y-97558855D02*
X107947618Y-97596950D01*
X107947618Y-97596950D02*
X107985714Y-97635045D01*
X108290475Y-97635045D02*
X108328571Y-97596950D01*
X108328571Y-97596950D02*
X108404761Y-97558855D01*
X108404761Y-97558855D02*
X108595237Y-97558855D01*
X108595237Y-97558855D02*
X108671428Y-97596950D01*
X108671428Y-97596950D02*
X108709523Y-97635045D01*
X108709523Y-97635045D02*
X108747618Y-97711236D01*
X108747618Y-97711236D02*
X108747618Y-97787426D01*
X108747618Y-97787426D02*
X108709523Y-97901712D01*
X108709523Y-97901712D02*
X108252380Y-98358855D01*
X108252380Y-98358855D02*
X108747618Y-98358855D01*
X109509523Y-98358855D02*
X109052380Y-98358855D01*
X109280952Y-98358855D02*
X109280952Y-97558855D01*
X109280952Y-97558855D02*
X109204761Y-97673140D01*
X109204761Y-97673140D02*
X109128571Y-97749331D01*
X109128571Y-97749331D02*
X109052380Y-97787426D01*
X88108245Y-81467582D02*
X88565388Y-81467582D01*
X88336816Y-82267582D02*
X88336816Y-81467582D01*
X88832055Y-82267582D02*
X88832055Y-81467582D01*
X88832055Y-81467582D02*
X89136817Y-81467582D01*
X89136817Y-81467582D02*
X89213007Y-81505677D01*
X89213007Y-81505677D02*
X89251102Y-81543772D01*
X89251102Y-81543772D02*
X89289198Y-81619963D01*
X89289198Y-81619963D02*
X89289198Y-81734248D01*
X89289198Y-81734248D02*
X89251102Y-81810439D01*
X89251102Y-81810439D02*
X89213007Y-81848534D01*
X89213007Y-81848534D02*
X89136817Y-81886629D01*
X89136817Y-81886629D02*
X88832055Y-81886629D01*
X90051102Y-82267582D02*
X89593959Y-82267582D01*
X89822531Y-82267582D02*
X89822531Y-81467582D01*
X89822531Y-81467582D02*
X89746340Y-81581867D01*
X89746340Y-81581867D02*
X89670150Y-81658058D01*
X89670150Y-81658058D02*
X89593959Y-81696153D01*
X90546341Y-81467582D02*
X90622531Y-81467582D01*
X90622531Y-81467582D02*
X90698722Y-81505677D01*
X90698722Y-81505677D02*
X90736817Y-81543772D01*
X90736817Y-81543772D02*
X90774912Y-81619963D01*
X90774912Y-81619963D02*
X90813007Y-81772344D01*
X90813007Y-81772344D02*
X90813007Y-81962820D01*
X90813007Y-81962820D02*
X90774912Y-82115201D01*
X90774912Y-82115201D02*
X90736817Y-82191391D01*
X90736817Y-82191391D02*
X90698722Y-82229487D01*
X90698722Y-82229487D02*
X90622531Y-82267582D01*
X90622531Y-82267582D02*
X90546341Y-82267582D01*
X90546341Y-82267582D02*
X90470150Y-82229487D01*
X90470150Y-82229487D02*
X90432055Y-82191391D01*
X90432055Y-82191391D02*
X90393960Y-82115201D01*
X90393960Y-82115201D02*
X90355864Y-81962820D01*
X90355864Y-81962820D02*
X90355864Y-81772344D01*
X90355864Y-81772344D02*
X90393960Y-81619963D01*
X90393960Y-81619963D02*
X90432055Y-81543772D01*
X90432055Y-81543772D02*
X90470150Y-81505677D01*
X90470150Y-81505677D02*
X90546341Y-81467582D01*
X95685713Y-90162664D02*
X95647617Y-90200760D01*
X95647617Y-90200760D02*
X95533332Y-90238855D01*
X95533332Y-90238855D02*
X95457141Y-90238855D01*
X95457141Y-90238855D02*
X95342855Y-90200760D01*
X95342855Y-90200760D02*
X95266665Y-90124569D01*
X95266665Y-90124569D02*
X95228570Y-90048379D01*
X95228570Y-90048379D02*
X95190474Y-89895998D01*
X95190474Y-89895998D02*
X95190474Y-89781712D01*
X95190474Y-89781712D02*
X95228570Y-89629331D01*
X95228570Y-89629331D02*
X95266665Y-89553140D01*
X95266665Y-89553140D02*
X95342855Y-89476950D01*
X95342855Y-89476950D02*
X95457141Y-89438855D01*
X95457141Y-89438855D02*
X95533332Y-89438855D01*
X95533332Y-89438855D02*
X95647617Y-89476950D01*
X95647617Y-89476950D02*
X95685713Y-89515045D01*
X95990474Y-89515045D02*
X96028570Y-89476950D01*
X96028570Y-89476950D02*
X96104760Y-89438855D01*
X96104760Y-89438855D02*
X96295236Y-89438855D01*
X96295236Y-89438855D02*
X96371427Y-89476950D01*
X96371427Y-89476950D02*
X96409522Y-89515045D01*
X96409522Y-89515045D02*
X96447617Y-89591236D01*
X96447617Y-89591236D02*
X96447617Y-89667426D01*
X96447617Y-89667426D02*
X96409522Y-89781712D01*
X96409522Y-89781712D02*
X95952379Y-90238855D01*
X95952379Y-90238855D02*
X96447617Y-90238855D01*
X96752379Y-89515045D02*
X96790475Y-89476950D01*
X96790475Y-89476950D02*
X96866665Y-89438855D01*
X96866665Y-89438855D02*
X97057141Y-89438855D01*
X97057141Y-89438855D02*
X97133332Y-89476950D01*
X97133332Y-89476950D02*
X97171427Y-89515045D01*
X97171427Y-89515045D02*
X97209522Y-89591236D01*
X97209522Y-89591236D02*
X97209522Y-89667426D01*
X97209522Y-89667426D02*
X97171427Y-89781712D01*
X97171427Y-89781712D02*
X96714284Y-90238855D01*
X96714284Y-90238855D02*
X97209522Y-90238855D01*
X120366667Y-97338855D02*
X120100000Y-96957902D01*
X119909524Y-97338855D02*
X119909524Y-96538855D01*
X119909524Y-96538855D02*
X120214286Y-96538855D01*
X120214286Y-96538855D02*
X120290476Y-96576950D01*
X120290476Y-96576950D02*
X120328571Y-96615045D01*
X120328571Y-96615045D02*
X120366667Y-96691236D01*
X120366667Y-96691236D02*
X120366667Y-96805521D01*
X120366667Y-96805521D02*
X120328571Y-96881712D01*
X120328571Y-96881712D02*
X120290476Y-96919807D01*
X120290476Y-96919807D02*
X120214286Y-96957902D01*
X120214286Y-96957902D02*
X119909524Y-96957902D01*
X120633333Y-96538855D02*
X121166667Y-96538855D01*
X121166667Y-96538855D02*
X120823809Y-97338855D01*
X111289198Y-89667582D02*
X111746341Y-89667582D01*
X111517769Y-90467582D02*
X111517769Y-89667582D01*
X112013008Y-90467582D02*
X112013008Y-89667582D01*
X112013008Y-89667582D02*
X112317770Y-89667582D01*
X112317770Y-89667582D02*
X112393960Y-89705677D01*
X112393960Y-89705677D02*
X112432055Y-89743772D01*
X112432055Y-89743772D02*
X112470151Y-89819963D01*
X112470151Y-89819963D02*
X112470151Y-89934248D01*
X112470151Y-89934248D02*
X112432055Y-90010439D01*
X112432055Y-90010439D02*
X112393960Y-90048534D01*
X112393960Y-90048534D02*
X112317770Y-90086629D01*
X112317770Y-90086629D02*
X112013008Y-90086629D01*
X113155865Y-89667582D02*
X113003484Y-89667582D01*
X113003484Y-89667582D02*
X112927293Y-89705677D01*
X112927293Y-89705677D02*
X112889198Y-89743772D01*
X112889198Y-89743772D02*
X112813008Y-89858058D01*
X112813008Y-89858058D02*
X112774912Y-90010439D01*
X112774912Y-90010439D02*
X112774912Y-90315201D01*
X112774912Y-90315201D02*
X112813008Y-90391391D01*
X112813008Y-90391391D02*
X112851103Y-90429487D01*
X112851103Y-90429487D02*
X112927293Y-90467582D01*
X112927293Y-90467582D02*
X113079674Y-90467582D01*
X113079674Y-90467582D02*
X113155865Y-90429487D01*
X113155865Y-90429487D02*
X113193960Y-90391391D01*
X113193960Y-90391391D02*
X113232055Y-90315201D01*
X113232055Y-90315201D02*
X113232055Y-90124725D01*
X113232055Y-90124725D02*
X113193960Y-90048534D01*
X113193960Y-90048534D02*
X113155865Y-90010439D01*
X113155865Y-90010439D02*
X113079674Y-89972344D01*
X113079674Y-89972344D02*
X112927293Y-89972344D01*
X112927293Y-89972344D02*
X112851103Y-90010439D01*
X112851103Y-90010439D02*
X112813008Y-90048534D01*
X112813008Y-90048534D02*
X112774912Y-90124725D01*
X87866667Y-92898855D02*
X87600000Y-92517902D01*
X87409524Y-92898855D02*
X87409524Y-92098855D01*
X87409524Y-92098855D02*
X87714286Y-92098855D01*
X87714286Y-92098855D02*
X87790476Y-92136950D01*
X87790476Y-92136950D02*
X87828571Y-92175045D01*
X87828571Y-92175045D02*
X87866667Y-92251236D01*
X87866667Y-92251236D02*
X87866667Y-92365521D01*
X87866667Y-92365521D02*
X87828571Y-92441712D01*
X87828571Y-92441712D02*
X87790476Y-92479807D01*
X87790476Y-92479807D02*
X87714286Y-92517902D01*
X87714286Y-92517902D02*
X87409524Y-92517902D01*
X88133333Y-92098855D02*
X88628571Y-92098855D01*
X88628571Y-92098855D02*
X88361905Y-92403617D01*
X88361905Y-92403617D02*
X88476190Y-92403617D01*
X88476190Y-92403617D02*
X88552381Y-92441712D01*
X88552381Y-92441712D02*
X88590476Y-92479807D01*
X88590476Y-92479807D02*
X88628571Y-92555998D01*
X88628571Y-92555998D02*
X88628571Y-92746474D01*
X88628571Y-92746474D02*
X88590476Y-92822664D01*
X88590476Y-92822664D02*
X88552381Y-92860760D01*
X88552381Y-92860760D02*
X88476190Y-92898855D01*
X88476190Y-92898855D02*
X88247619Y-92898855D01*
X88247619Y-92898855D02*
X88171428Y-92860760D01*
X88171428Y-92860760D02*
X88133333Y-92822664D01*
X97410714Y-91287664D02*
X97372618Y-91325760D01*
X97372618Y-91325760D02*
X97258333Y-91363855D01*
X97258333Y-91363855D02*
X97182142Y-91363855D01*
X97182142Y-91363855D02*
X97067856Y-91325760D01*
X97067856Y-91325760D02*
X96991666Y-91249569D01*
X96991666Y-91249569D02*
X96953571Y-91173379D01*
X96953571Y-91173379D02*
X96915475Y-91020998D01*
X96915475Y-91020998D02*
X96915475Y-90906712D01*
X96915475Y-90906712D02*
X96953571Y-90754331D01*
X96953571Y-90754331D02*
X96991666Y-90678140D01*
X96991666Y-90678140D02*
X97067856Y-90601950D01*
X97067856Y-90601950D02*
X97182142Y-90563855D01*
X97182142Y-90563855D02*
X97258333Y-90563855D01*
X97258333Y-90563855D02*
X97372618Y-90601950D01*
X97372618Y-90601950D02*
X97410714Y-90640045D01*
X98172618Y-91363855D02*
X97715475Y-91363855D01*
X97944047Y-91363855D02*
X97944047Y-90563855D01*
X97944047Y-90563855D02*
X97867856Y-90678140D01*
X97867856Y-90678140D02*
X97791666Y-90754331D01*
X97791666Y-90754331D02*
X97715475Y-90792426D01*
X98629761Y-90906712D02*
X98553571Y-90868617D01*
X98553571Y-90868617D02*
X98515476Y-90830521D01*
X98515476Y-90830521D02*
X98477380Y-90754331D01*
X98477380Y-90754331D02*
X98477380Y-90716236D01*
X98477380Y-90716236D02*
X98515476Y-90640045D01*
X98515476Y-90640045D02*
X98553571Y-90601950D01*
X98553571Y-90601950D02*
X98629761Y-90563855D01*
X98629761Y-90563855D02*
X98782142Y-90563855D01*
X98782142Y-90563855D02*
X98858333Y-90601950D01*
X98858333Y-90601950D02*
X98896428Y-90640045D01*
X98896428Y-90640045D02*
X98934523Y-90716236D01*
X98934523Y-90716236D02*
X98934523Y-90754331D01*
X98934523Y-90754331D02*
X98896428Y-90830521D01*
X98896428Y-90830521D02*
X98858333Y-90868617D01*
X98858333Y-90868617D02*
X98782142Y-90906712D01*
X98782142Y-90906712D02*
X98629761Y-90906712D01*
X98629761Y-90906712D02*
X98553571Y-90944807D01*
X98553571Y-90944807D02*
X98515476Y-90982902D01*
X98515476Y-90982902D02*
X98477380Y-91059093D01*
X98477380Y-91059093D02*
X98477380Y-91211474D01*
X98477380Y-91211474D02*
X98515476Y-91287664D01*
X98515476Y-91287664D02*
X98553571Y-91325760D01*
X98553571Y-91325760D02*
X98629761Y-91363855D01*
X98629761Y-91363855D02*
X98782142Y-91363855D01*
X98782142Y-91363855D02*
X98858333Y-91325760D01*
X98858333Y-91325760D02*
X98896428Y-91287664D01*
X98896428Y-91287664D02*
X98934523Y-91211474D01*
X98934523Y-91211474D02*
X98934523Y-91059093D01*
X98934523Y-91059093D02*
X98896428Y-90982902D01*
X98896428Y-90982902D02*
X98858333Y-90944807D01*
X98858333Y-90944807D02*
X98782142Y-90906712D01*
X103390476Y-97718855D02*
X103390476Y-98366474D01*
X103390476Y-98366474D02*
X103428571Y-98442664D01*
X103428571Y-98442664D02*
X103466666Y-98480760D01*
X103466666Y-98480760D02*
X103542857Y-98518855D01*
X103542857Y-98518855D02*
X103695238Y-98518855D01*
X103695238Y-98518855D02*
X103771428Y-98480760D01*
X103771428Y-98480760D02*
X103809523Y-98442664D01*
X103809523Y-98442664D02*
X103847619Y-98366474D01*
X103847619Y-98366474D02*
X103847619Y-97718855D01*
X104342856Y-98061712D02*
X104266666Y-98023617D01*
X104266666Y-98023617D02*
X104228571Y-97985521D01*
X104228571Y-97985521D02*
X104190475Y-97909331D01*
X104190475Y-97909331D02*
X104190475Y-97871236D01*
X104190475Y-97871236D02*
X104228571Y-97795045D01*
X104228571Y-97795045D02*
X104266666Y-97756950D01*
X104266666Y-97756950D02*
X104342856Y-97718855D01*
X104342856Y-97718855D02*
X104495237Y-97718855D01*
X104495237Y-97718855D02*
X104571428Y-97756950D01*
X104571428Y-97756950D02*
X104609523Y-97795045D01*
X104609523Y-97795045D02*
X104647618Y-97871236D01*
X104647618Y-97871236D02*
X104647618Y-97909331D01*
X104647618Y-97909331D02*
X104609523Y-97985521D01*
X104609523Y-97985521D02*
X104571428Y-98023617D01*
X104571428Y-98023617D02*
X104495237Y-98061712D01*
X104495237Y-98061712D02*
X104342856Y-98061712D01*
X104342856Y-98061712D02*
X104266666Y-98099807D01*
X104266666Y-98099807D02*
X104228571Y-98137902D01*
X104228571Y-98137902D02*
X104190475Y-98214093D01*
X104190475Y-98214093D02*
X104190475Y-98366474D01*
X104190475Y-98366474D02*
X104228571Y-98442664D01*
X104228571Y-98442664D02*
X104266666Y-98480760D01*
X104266666Y-98480760D02*
X104342856Y-98518855D01*
X104342856Y-98518855D02*
X104495237Y-98518855D01*
X104495237Y-98518855D02*
X104571428Y-98480760D01*
X104571428Y-98480760D02*
X104609523Y-98442664D01*
X104609523Y-98442664D02*
X104647618Y-98366474D01*
X104647618Y-98366474D02*
X104647618Y-98214093D01*
X104647618Y-98214093D02*
X104609523Y-98137902D01*
X104609523Y-98137902D02*
X104571428Y-98099807D01*
X104571428Y-98099807D02*
X104495237Y-98061712D01*
X111489198Y-95160127D02*
X111946341Y-95160127D01*
X111717769Y-95960127D02*
X111717769Y-95160127D01*
X112213008Y-95960127D02*
X112213008Y-95160127D01*
X112213008Y-95160127D02*
X112517770Y-95160127D01*
X112517770Y-95160127D02*
X112593960Y-95198222D01*
X112593960Y-95198222D02*
X112632055Y-95236317D01*
X112632055Y-95236317D02*
X112670151Y-95312508D01*
X112670151Y-95312508D02*
X112670151Y-95426793D01*
X112670151Y-95426793D02*
X112632055Y-95502984D01*
X112632055Y-95502984D02*
X112593960Y-95541079D01*
X112593960Y-95541079D02*
X112517770Y-95579174D01*
X112517770Y-95579174D02*
X112213008Y-95579174D01*
X113127293Y-95502984D02*
X113051103Y-95464889D01*
X113051103Y-95464889D02*
X113013008Y-95426793D01*
X113013008Y-95426793D02*
X112974912Y-95350603D01*
X112974912Y-95350603D02*
X112974912Y-95312508D01*
X112974912Y-95312508D02*
X113013008Y-95236317D01*
X113013008Y-95236317D02*
X113051103Y-95198222D01*
X113051103Y-95198222D02*
X113127293Y-95160127D01*
X113127293Y-95160127D02*
X113279674Y-95160127D01*
X113279674Y-95160127D02*
X113355865Y-95198222D01*
X113355865Y-95198222D02*
X113393960Y-95236317D01*
X113393960Y-95236317D02*
X113432055Y-95312508D01*
X113432055Y-95312508D02*
X113432055Y-95350603D01*
X113432055Y-95350603D02*
X113393960Y-95426793D01*
X113393960Y-95426793D02*
X113355865Y-95464889D01*
X113355865Y-95464889D02*
X113279674Y-95502984D01*
X113279674Y-95502984D02*
X113127293Y-95502984D01*
X113127293Y-95502984D02*
X113051103Y-95541079D01*
X113051103Y-95541079D02*
X113013008Y-95579174D01*
X113013008Y-95579174D02*
X112974912Y-95655365D01*
X112974912Y-95655365D02*
X112974912Y-95807746D01*
X112974912Y-95807746D02*
X113013008Y-95883936D01*
X113013008Y-95883936D02*
X113051103Y-95922032D01*
X113051103Y-95922032D02*
X113127293Y-95960127D01*
X113127293Y-95960127D02*
X113279674Y-95960127D01*
X113279674Y-95960127D02*
X113355865Y-95922032D01*
X113355865Y-95922032D02*
X113393960Y-95883936D01*
X113393960Y-95883936D02*
X113432055Y-95807746D01*
X113432055Y-95807746D02*
X113432055Y-95655365D01*
X113432055Y-95655365D02*
X113393960Y-95579174D01*
X113393960Y-95579174D02*
X113355865Y-95541079D01*
X113355865Y-95541079D02*
X113279674Y-95502984D01*
X116433332Y-84230760D02*
X116547618Y-84268855D01*
X116547618Y-84268855D02*
X116738094Y-84268855D01*
X116738094Y-84268855D02*
X116814285Y-84230760D01*
X116814285Y-84230760D02*
X116852380Y-84192664D01*
X116852380Y-84192664D02*
X116890475Y-84116474D01*
X116890475Y-84116474D02*
X116890475Y-84040283D01*
X116890475Y-84040283D02*
X116852380Y-83964093D01*
X116852380Y-83964093D02*
X116814285Y-83925998D01*
X116814285Y-83925998D02*
X116738094Y-83887902D01*
X116738094Y-83887902D02*
X116585713Y-83849807D01*
X116585713Y-83849807D02*
X116509523Y-83811712D01*
X116509523Y-83811712D02*
X116471428Y-83773617D01*
X116471428Y-83773617D02*
X116433332Y-83697426D01*
X116433332Y-83697426D02*
X116433332Y-83621236D01*
X116433332Y-83621236D02*
X116471428Y-83545045D01*
X116471428Y-83545045D02*
X116509523Y-83506950D01*
X116509523Y-83506950D02*
X116585713Y-83468855D01*
X116585713Y-83468855D02*
X116776190Y-83468855D01*
X116776190Y-83468855D02*
X116890475Y-83506950D01*
X117157142Y-83468855D02*
X117347618Y-84268855D01*
X117347618Y-84268855D02*
X117499999Y-83697426D01*
X117499999Y-83697426D02*
X117652380Y-84268855D01*
X117652380Y-84268855D02*
X117842857Y-83468855D01*
X118109523Y-83545045D02*
X118147619Y-83506950D01*
X118147619Y-83506950D02*
X118223809Y-83468855D01*
X118223809Y-83468855D02*
X118414285Y-83468855D01*
X118414285Y-83468855D02*
X118490476Y-83506950D01*
X118490476Y-83506950D02*
X118528571Y-83545045D01*
X118528571Y-83545045D02*
X118566666Y-83621236D01*
X118566666Y-83621236D02*
X118566666Y-83697426D01*
X118566666Y-83697426D02*
X118528571Y-83811712D01*
X118528571Y-83811712D02*
X118071428Y-84268855D01*
X118071428Y-84268855D02*
X118566666Y-84268855D01*
X91566666Y-94992664D02*
X91528570Y-95030760D01*
X91528570Y-95030760D02*
X91414285Y-95068855D01*
X91414285Y-95068855D02*
X91338094Y-95068855D01*
X91338094Y-95068855D02*
X91223808Y-95030760D01*
X91223808Y-95030760D02*
X91147618Y-94954569D01*
X91147618Y-94954569D02*
X91109523Y-94878379D01*
X91109523Y-94878379D02*
X91071427Y-94725998D01*
X91071427Y-94725998D02*
X91071427Y-94611712D01*
X91071427Y-94611712D02*
X91109523Y-94459331D01*
X91109523Y-94459331D02*
X91147618Y-94383140D01*
X91147618Y-94383140D02*
X91223808Y-94306950D01*
X91223808Y-94306950D02*
X91338094Y-94268855D01*
X91338094Y-94268855D02*
X91414285Y-94268855D01*
X91414285Y-94268855D02*
X91528570Y-94306950D01*
X91528570Y-94306950D02*
X91566666Y-94345045D01*
X92252380Y-94535521D02*
X92252380Y-95068855D01*
X92061904Y-94230760D02*
X91871427Y-94802188D01*
X91871427Y-94802188D02*
X92366666Y-94802188D01*
X107733333Y-112569807D02*
X107466667Y-112569807D01*
X107466667Y-112988855D02*
X107466667Y-112188855D01*
X107466667Y-112188855D02*
X107847619Y-112188855D01*
X108571428Y-112988855D02*
X108114285Y-112988855D01*
X108342857Y-112988855D02*
X108342857Y-112188855D01*
X108342857Y-112188855D02*
X108266666Y-112303140D01*
X108266666Y-112303140D02*
X108190476Y-112379331D01*
X108190476Y-112379331D02*
X108114285Y-112417426D01*
X92390476Y-112418855D02*
X92390476Y-113066474D01*
X92390476Y-113066474D02*
X92428571Y-113142664D01*
X92428571Y-113142664D02*
X92466666Y-113180760D01*
X92466666Y-113180760D02*
X92542857Y-113218855D01*
X92542857Y-113218855D02*
X92695238Y-113218855D01*
X92695238Y-113218855D02*
X92771428Y-113180760D01*
X92771428Y-113180760D02*
X92809523Y-113142664D01*
X92809523Y-113142664D02*
X92847619Y-113066474D01*
X92847619Y-113066474D02*
X92847619Y-112418855D01*
X93571428Y-112418855D02*
X93419047Y-112418855D01*
X93419047Y-112418855D02*
X93342856Y-112456950D01*
X93342856Y-112456950D02*
X93304761Y-112495045D01*
X93304761Y-112495045D02*
X93228571Y-112609331D01*
X93228571Y-112609331D02*
X93190475Y-112761712D01*
X93190475Y-112761712D02*
X93190475Y-113066474D01*
X93190475Y-113066474D02*
X93228571Y-113142664D01*
X93228571Y-113142664D02*
X93266666Y-113180760D01*
X93266666Y-113180760D02*
X93342856Y-113218855D01*
X93342856Y-113218855D02*
X93495237Y-113218855D01*
X93495237Y-113218855D02*
X93571428Y-113180760D01*
X93571428Y-113180760D02*
X93609523Y-113142664D01*
X93609523Y-113142664D02*
X93647618Y-113066474D01*
X93647618Y-113066474D02*
X93647618Y-112875998D01*
X93647618Y-112875998D02*
X93609523Y-112799807D01*
X93609523Y-112799807D02*
X93571428Y-112761712D01*
X93571428Y-112761712D02*
X93495237Y-112723617D01*
X93495237Y-112723617D02*
X93342856Y-112723617D01*
X93342856Y-112723617D02*
X93266666Y-112761712D01*
X93266666Y-112761712D02*
X93228571Y-112799807D01*
X93228571Y-112799807D02*
X93190475Y-112875998D01*
X104366667Y-119838855D02*
X104100000Y-119457902D01*
X103909524Y-119838855D02*
X103909524Y-119038855D01*
X103909524Y-119038855D02*
X104214286Y-119038855D01*
X104214286Y-119038855D02*
X104290476Y-119076950D01*
X104290476Y-119076950D02*
X104328571Y-119115045D01*
X104328571Y-119115045D02*
X104366667Y-119191236D01*
X104366667Y-119191236D02*
X104366667Y-119305521D01*
X104366667Y-119305521D02*
X104328571Y-119381712D01*
X104328571Y-119381712D02*
X104290476Y-119419807D01*
X104290476Y-119419807D02*
X104214286Y-119457902D01*
X104214286Y-119457902D02*
X103909524Y-119457902D01*
X104671428Y-119115045D02*
X104709524Y-119076950D01*
X104709524Y-119076950D02*
X104785714Y-119038855D01*
X104785714Y-119038855D02*
X104976190Y-119038855D01*
X104976190Y-119038855D02*
X105052381Y-119076950D01*
X105052381Y-119076950D02*
X105090476Y-119115045D01*
X105090476Y-119115045D02*
X105128571Y-119191236D01*
X105128571Y-119191236D02*
X105128571Y-119267426D01*
X105128571Y-119267426D02*
X105090476Y-119381712D01*
X105090476Y-119381712D02*
X104633333Y-119838855D01*
X104633333Y-119838855D02*
X105128571Y-119838855D01*
X96985714Y-125298855D02*
X96719047Y-124917902D01*
X96528571Y-125298855D02*
X96528571Y-124498855D01*
X96528571Y-124498855D02*
X96833333Y-124498855D01*
X96833333Y-124498855D02*
X96909523Y-124536950D01*
X96909523Y-124536950D02*
X96947618Y-124575045D01*
X96947618Y-124575045D02*
X96985714Y-124651236D01*
X96985714Y-124651236D02*
X96985714Y-124765521D01*
X96985714Y-124765521D02*
X96947618Y-124841712D01*
X96947618Y-124841712D02*
X96909523Y-124879807D01*
X96909523Y-124879807D02*
X96833333Y-124917902D01*
X96833333Y-124917902D02*
X96528571Y-124917902D01*
X97747618Y-125298855D02*
X97290475Y-125298855D01*
X97519047Y-125298855D02*
X97519047Y-124498855D01*
X97519047Y-124498855D02*
X97442856Y-124613140D01*
X97442856Y-124613140D02*
X97366666Y-124689331D01*
X97366666Y-124689331D02*
X97290475Y-124727426D01*
X98242857Y-124498855D02*
X98319047Y-124498855D01*
X98319047Y-124498855D02*
X98395238Y-124536950D01*
X98395238Y-124536950D02*
X98433333Y-124575045D01*
X98433333Y-124575045D02*
X98471428Y-124651236D01*
X98471428Y-124651236D02*
X98509523Y-124803617D01*
X98509523Y-124803617D02*
X98509523Y-124994093D01*
X98509523Y-124994093D02*
X98471428Y-125146474D01*
X98471428Y-125146474D02*
X98433333Y-125222664D01*
X98433333Y-125222664D02*
X98395238Y-125260760D01*
X98395238Y-125260760D02*
X98319047Y-125298855D01*
X98319047Y-125298855D02*
X98242857Y-125298855D01*
X98242857Y-125298855D02*
X98166666Y-125260760D01*
X98166666Y-125260760D02*
X98128571Y-125222664D01*
X98128571Y-125222664D02*
X98090476Y-125146474D01*
X98090476Y-125146474D02*
X98052380Y-124994093D01*
X98052380Y-124994093D02*
X98052380Y-124803617D01*
X98052380Y-124803617D02*
X98090476Y-124651236D01*
X98090476Y-124651236D02*
X98128571Y-124575045D01*
X98128571Y-124575045D02*
X98166666Y-124536950D01*
X98166666Y-124536950D02*
X98242857Y-124498855D01*
%TO.C,U5*%
X113390000Y-102890000D02*
X113865000Y-102890000D01*
X113390000Y-103365000D02*
X113390000Y-102890000D01*
X113390000Y-107110000D02*
X113390000Y-106635000D01*
X113865000Y-107110000D02*
X113390000Y-107110000D01*
X117135000Y-102890000D02*
X117610000Y-102890000D01*
X117610000Y-102890000D02*
X117610000Y-103365000D01*
X117610000Y-106635000D02*
X117610000Y-107110000D01*
X117610000Y-107110000D02*
X117135000Y-107110000D01*
X112890000Y-103750000D02*
X112560000Y-103990000D01*
X112560000Y-103510000D01*
X112890000Y-103750000D01*
G36*
X112890000Y-103750000D02*
G01*
X112560000Y-103990000D01*
X112560000Y-103510000D01*
X112890000Y-103750000D01*
G37*
%TO.C,TP2*%
X80200000Y-105000000D02*
G75*
G02*
X78800000Y-105000000I-700000J0D01*
G01*
X78800000Y-105000000D02*
G75*
G02*
X80200000Y-105000000I700000J0D01*
G01*
%TO.C,R12*%
X102346359Y-125620000D02*
X102653641Y-125620000D01*
X102346359Y-126380000D02*
X102653641Y-126380000D01*
%TO.C,TP3*%
X80200000Y-97000000D02*
G75*
G02*
X78800000Y-97000000I-700000J0D01*
G01*
X78800000Y-97000000D02*
G75*
G02*
X80200000Y-97000000I700000J0D01*
G01*
%TO.C,R5*%
X109753641Y-93620000D02*
X109446359Y-93620000D01*
X109753641Y-94380000D02*
X109446359Y-94380000D01*
%TO.C,R8*%
X121620000Y-98653641D02*
X121620000Y-98346359D01*
X122380000Y-98653641D02*
X122380000Y-98346359D01*
%TO.C,TP4*%
X125200000Y-109000000D02*
G75*
G02*
X123800000Y-109000000I-700000J0D01*
G01*
X123800000Y-109000000D02*
G75*
G02*
X125200000Y-109000000I700000J0D01*
G01*
%TO.C,C23*%
X98992164Y-87340000D02*
X99207836Y-87340000D01*
X98992164Y-88060000D02*
X99207836Y-88060000D01*
%TO.C,C19*%
X108140000Y-91107836D02*
X108140000Y-90892164D01*
X108860000Y-91107836D02*
X108860000Y-90892164D01*
%TO.C,C26*%
X115392164Y-109140000D02*
X115607836Y-109140000D01*
X115392164Y-109860000D02*
X115607836Y-109860000D01*
%TO.C,TP11*%
X90700000Y-86500000D02*
G75*
G02*
X89300000Y-86500000I-700000J0D01*
G01*
X89300000Y-86500000D02*
G75*
G02*
X90700000Y-86500000I700000J0D01*
G01*
%TO.C,C3*%
X84440000Y-97107836D02*
X84440000Y-96892164D01*
X85160000Y-97107836D02*
X85160000Y-96892164D01*
%TO.C,U3*%
X87090000Y-104440000D02*
X88910000Y-104440000D01*
X87090000Y-104490000D02*
X87090000Y-104440000D01*
X87090000Y-107560000D02*
X87090000Y-107510000D01*
X88910000Y-104440000D02*
X88910000Y-104490000D01*
X88910000Y-105610000D02*
X88910000Y-106390000D01*
X88910000Y-107510000D02*
X88910000Y-107560000D01*
X88910000Y-107560000D02*
X87090000Y-107560000D01*
X86550000Y-104490000D02*
X86310000Y-104160000D01*
X86790000Y-104160000D01*
X86550000Y-104490000D01*
G36*
X86550000Y-104490000D02*
G01*
X86310000Y-104160000D01*
X86790000Y-104160000D01*
X86550000Y-104490000D01*
G37*
%TO.C,TP5*%
X111200000Y-89500000D02*
G75*
G02*
X109800000Y-89500000I-700000J0D01*
G01*
X109800000Y-89500000D02*
G75*
G02*
X111200000Y-89500000I700000J0D01*
G01*
%TO.C,C20*%
X99140000Y-99607836D02*
X99140000Y-99392164D01*
X99860000Y-99607836D02*
X99860000Y-99392164D01*
%TO.C,TP9*%
X111200000Y-103000000D02*
G75*
G02*
X109800000Y-103000000I-700000J0D01*
G01*
X109800000Y-103000000D02*
G75*
G02*
X111200000Y-103000000I700000J0D01*
G01*
%TO.C,R1*%
X95120000Y-121153641D02*
X95120000Y-120846359D01*
X95880000Y-121153641D02*
X95880000Y-120846359D01*
%TO.C,TP1*%
X112200000Y-120500000D02*
G75*
G02*
X110800000Y-120500000I-700000J0D01*
G01*
X110800000Y-120500000D02*
G75*
G02*
X112200000Y-120500000I700000J0D01*
G01*
%TO.C,R6*%
X109753641Y-94720000D02*
X109446359Y-94720000D01*
X109753641Y-95480000D02*
X109446359Y-95480000D01*
%TO.C,C25*%
X120940000Y-104107836D02*
X120940000Y-103892164D01*
X121660000Y-104107836D02*
X121660000Y-103892164D01*
%TO.C,C1*%
X83565000Y-106261252D02*
X83565000Y-105738748D01*
X85035000Y-106261252D02*
X85035000Y-105738748D01*
%TO.C,SW1*%
X79750000Y-86500000D02*
X79750000Y-88500000D01*
X80800000Y-85200000D02*
X81250000Y-84750000D01*
X80800000Y-89800000D02*
X81250000Y-90250000D01*
X81250000Y-84750000D02*
X83750000Y-84750000D01*
X81250000Y-90250000D02*
X83750000Y-90250000D01*
X84200000Y-85200000D02*
X83750000Y-84750000D01*
X84200000Y-89800000D02*
X83750000Y-90250000D01*
X85250000Y-86500000D02*
X85250000Y-88500000D01*
%TO.C,TP7*%
X111200000Y-97500000D02*
G75*
G02*
X109800000Y-97500000I-700000J0D01*
G01*
X109800000Y-97500000D02*
G75*
G02*
X111200000Y-97500000I700000J0D01*
G01*
%TO.C,U7*%
X101690000Y-90265000D02*
X106310000Y-90265000D01*
X106310000Y-95735000D02*
X101690000Y-95735000D01*
X101040000Y-88980000D02*
X100710000Y-89220000D01*
X100710000Y-88740000D01*
X101040000Y-88980000D01*
G36*
X101040000Y-88980000D02*
G01*
X100710000Y-89220000D01*
X100710000Y-88740000D01*
X101040000Y-88980000D01*
G37*
%TO.C,R11*%
X99846359Y-126620000D02*
X100153641Y-126620000D01*
X99846359Y-127380000D02*
X100153641Y-127380000D01*
%TO.C,TP12*%
X90700000Y-89000000D02*
G75*
G02*
X89300000Y-89000000I-700000J0D01*
G01*
X89300000Y-89000000D02*
G75*
G02*
X90700000Y-89000000I700000J0D01*
G01*
%TO.C,J1*%
X95580000Y-113830000D02*
X95580000Y-114330000D01*
X95580000Y-113830000D02*
X96080000Y-113830000D01*
X95730000Y-113980000D02*
X95730000Y-114880000D01*
X95730000Y-113980000D02*
X96530000Y-113980000D01*
X95730000Y-118020000D02*
X95730000Y-117120000D01*
X95730000Y-118020000D02*
X96530000Y-118020000D01*
X104270000Y-113980000D02*
X103470000Y-113980000D01*
X104270000Y-113980000D02*
X104270000Y-114880000D01*
X104270000Y-118020000D02*
X103470000Y-118020000D01*
X104270000Y-118020000D02*
X104270000Y-117120000D01*
%TO.C,R9*%
X115346359Y-99620000D02*
X115653641Y-99620000D01*
X115346359Y-100380000D02*
X115653641Y-100380000D01*
%TO.C,R13*%
X84262742Y-100977500D02*
X84737258Y-100977500D01*
X84262742Y-102022500D02*
X84737258Y-102022500D01*
%TO.C,U2*%
X93000000Y-71250000D02*
X107000000Y-71250000D01*
X107000000Y-86550000D01*
X93000000Y-86550000D01*
X93000000Y-71250000D01*
D11*
X94450000Y-70850000D02*
G75*
G02*
X94250000Y-70850000I-100000J0D01*
G01*
X94250000Y-70850000D02*
G75*
G02*
X94450000Y-70850000I100000J0D01*
G01*
%TO.C,J2*%
D10*
X78095000Y-114270000D02*
X78095000Y-113635000D01*
X78730000Y-114270000D02*
X78095000Y-114270000D01*
%TO.C,C24*%
X119440000Y-104107836D02*
X119440000Y-103892164D01*
X120160000Y-104107836D02*
X120160000Y-103892164D01*
%TO.C,U4*%
X87090000Y-95440000D02*
X88910000Y-95440000D01*
X87090000Y-95490000D02*
X87090000Y-95440000D01*
X87090000Y-98560000D02*
X87090000Y-98510000D01*
X88910000Y-95440000D02*
X88910000Y-95490000D01*
X88910000Y-96610000D02*
X88910000Y-97390000D01*
X88910000Y-98510000D02*
X88910000Y-98560000D01*
X88910000Y-98560000D02*
X87090000Y-98560000D01*
X86550000Y-95490000D02*
X86310000Y-95160000D01*
X86790000Y-95160000D01*
X86550000Y-95490000D01*
G36*
X86550000Y-95490000D02*
G01*
X86310000Y-95160000D01*
X86790000Y-95160000D01*
X86550000Y-95490000D01*
G37*
%TO.C,C2*%
X90965000Y-106261252D02*
X90965000Y-105738748D01*
X92435000Y-106261252D02*
X92435000Y-105738748D01*
%TO.C,C21*%
X108140000Y-99607836D02*
X108140000Y-99392164D01*
X108860000Y-99607836D02*
X108860000Y-99392164D01*
%TO.C,TP10*%
X90200000Y-83500000D02*
G75*
G02*
X88800000Y-83500000I-700000J0D01*
G01*
X88800000Y-83500000D02*
G75*
G02*
X90200000Y-83500000I700000J0D01*
G01*
%TO.C,C22*%
X95938748Y-87565000D02*
X96461252Y-87565000D01*
X95938748Y-89035000D02*
X96461252Y-89035000D01*
%TO.C,R7*%
X120120000Y-98653641D02*
X120120000Y-98346359D01*
X120880000Y-98653641D02*
X120880000Y-98346359D01*
%TO.C,TP6*%
X113000000Y-91700000D02*
G75*
G02*
X111600000Y-91700000I-700000J0D01*
G01*
X111600000Y-91700000D02*
G75*
G02*
X113000000Y-91700000I700000J0D01*
G01*
%TO.C,R3*%
X87846359Y-93220000D02*
X88153641Y-93220000D01*
X87846359Y-93980000D02*
X88153641Y-93980000D01*
%TO.C,C18*%
X99140000Y-91107836D02*
X99140000Y-90892164D01*
X99860000Y-91107836D02*
X99860000Y-90892164D01*
%TO.C,U8*%
X101690000Y-98765000D02*
X106310000Y-98765000D01*
X106310000Y-104235000D02*
X101690000Y-104235000D01*
X101040000Y-97480000D02*
X100710000Y-97720000D01*
X100710000Y-97240000D01*
X101040000Y-97480000D01*
G36*
X101040000Y-97480000D02*
G01*
X100710000Y-97720000D01*
X100710000Y-97240000D01*
X101040000Y-97480000D01*
G37*
%TO.C,TP8*%
X113200000Y-94000000D02*
G75*
G02*
X111800000Y-94000000I-700000J0D01*
G01*
X111800000Y-94000000D02*
G75*
G02*
X113200000Y-94000000I700000J0D01*
G01*
%TO.C,SW2*%
X114750000Y-86500000D02*
X114750000Y-88500000D01*
X115800000Y-85200000D02*
X116250000Y-84750000D01*
X115800000Y-89800000D02*
X116250000Y-90250000D01*
X116250000Y-84750000D02*
X118750000Y-84750000D01*
X116250000Y-90250000D02*
X118750000Y-90250000D01*
X119200000Y-85200000D02*
X118750000Y-84750000D01*
X119200000Y-89800000D02*
X118750000Y-90250000D01*
X120250000Y-86500000D02*
X120250000Y-88500000D01*
%TO.C,C4*%
X90965000Y-97261252D02*
X90965000Y-96738748D01*
X92435000Y-97261252D02*
X92435000Y-96738748D01*
%TO.C,F1*%
X107090000Y-116102064D02*
X107090000Y-114897936D01*
X108910000Y-116102064D02*
X108910000Y-114897936D01*
%TO.C,U6*%
X91440000Y-114590000D02*
X91490000Y-114590000D01*
X91440000Y-116410000D02*
X91440000Y-114590000D01*
X91490000Y-116410000D02*
X91440000Y-116410000D01*
X94510000Y-114590000D02*
X94560000Y-114590000D01*
X94560000Y-114590000D02*
X94560000Y-116410000D01*
X94560000Y-116410000D02*
X94510000Y-116410000D01*
X91490000Y-116950000D02*
X91160000Y-117190000D01*
X91160000Y-116710000D01*
X91490000Y-116950000D01*
G36*
X91490000Y-116950000D02*
G01*
X91160000Y-117190000D01*
X91160000Y-116710000D01*
X91490000Y-116950000D01*
G37*
%TO.C,R2*%
X104120000Y-121153641D02*
X104120000Y-120846359D01*
X104880000Y-121153641D02*
X104880000Y-120846359D01*
%TO.C,R10*%
X97346359Y-125620000D02*
X97653641Y-125620000D01*
X97346359Y-126380000D02*
X97653641Y-126380000D01*
%TD*%
%LPC*%
D12*
%TO.C,U5*%
X113562500Y-103750000D03*
X113562500Y-104250000D03*
X113562500Y-104750000D03*
X113562500Y-105250000D03*
X113562500Y-105750000D03*
X113562500Y-106250000D03*
D13*
X114250000Y-106937500D03*
X114750000Y-106937500D03*
X115250000Y-106937500D03*
X115750000Y-106937500D03*
X116250000Y-106937500D03*
X116750000Y-106937500D03*
D12*
X117437500Y-106250000D03*
X117437500Y-105750000D03*
X117437500Y-105250000D03*
X117437500Y-104750000D03*
X117437500Y-104250000D03*
X117437500Y-103750000D03*
D13*
X116750000Y-103062500D03*
X116250000Y-103062500D03*
X115750000Y-103062500D03*
X115250000Y-103062500D03*
X114750000Y-103062500D03*
X114250000Y-103062500D03*
D14*
X115500000Y-105000000D03*
%TD*%
D15*
%TO.C,TP2*%
X79500000Y-105000000D03*
%TD*%
D16*
%TO.C,R12*%
X101990000Y-126000000D03*
X103010000Y-126000000D03*
%TD*%
D15*
%TO.C,TP3*%
X79500000Y-97000000D03*
%TD*%
D17*
%TO.C,R5*%
X110110000Y-94000000D03*
X109090000Y-94000000D03*
%TD*%
D18*
%TO.C,R8*%
X122000000Y-99010000D03*
X122000000Y-97990000D03*
%TD*%
D15*
%TO.C,TP4*%
X124500000Y-109000000D03*
%TD*%
D19*
%TO.C,C23*%
X98620000Y-87700000D03*
X99580000Y-87700000D03*
%TD*%
D20*
%TO.C,C19*%
X108500000Y-91480000D03*
X108500000Y-90520000D03*
%TD*%
D19*
%TO.C,C26*%
X115020000Y-109500000D03*
X115980000Y-109500000D03*
%TD*%
D15*
%TO.C,TP11*%
X90000000Y-86500000D03*
%TD*%
D20*
%TO.C,C3*%
X84800000Y-97480000D03*
X84800000Y-96520000D03*
%TD*%
D21*
%TO.C,U3*%
X86862500Y-105050000D03*
X86862500Y-106000000D03*
X86862500Y-106950000D03*
X89137500Y-106950000D03*
X89137500Y-105050000D03*
%TD*%
D15*
%TO.C,TP5*%
X110500000Y-89500000D03*
%TD*%
D20*
%TO.C,C20*%
X99500000Y-99980000D03*
X99500000Y-99020000D03*
%TD*%
D15*
%TO.C,TP9*%
X110500000Y-103000000D03*
%TD*%
D18*
%TO.C,R1*%
X95500000Y-121510000D03*
X95500000Y-120490000D03*
%TD*%
D15*
%TO.C,TP1*%
X111500000Y-120500000D03*
%TD*%
D17*
%TO.C,R6*%
X110110000Y-95100000D03*
X109090000Y-95100000D03*
%TD*%
D20*
%TO.C,C25*%
X121300000Y-104480000D03*
X121300000Y-103520000D03*
%TD*%
D22*
%TO.C,C1*%
X84300000Y-106950000D03*
X84300000Y-105050000D03*
%TD*%
D23*
%TO.C,SW1*%
X79350000Y-85600000D03*
X85650000Y-85600000D03*
X79350000Y-89400000D03*
X85650000Y-89400000D03*
%TD*%
D15*
%TO.C,TP7*%
X110500000Y-97500000D03*
%TD*%
D24*
%TO.C,U7*%
X101137500Y-90725000D03*
X101137500Y-91375000D03*
X101137500Y-92025000D03*
X101137500Y-92675000D03*
X101137500Y-93325000D03*
X101137500Y-93975000D03*
X101137500Y-94625000D03*
X101137500Y-95275000D03*
X106862500Y-95275000D03*
X106862500Y-94625000D03*
X106862500Y-93975000D03*
X106862500Y-93325000D03*
X106862500Y-92675000D03*
X106862500Y-92025000D03*
X106862500Y-91375000D03*
X106862500Y-90725000D03*
%TD*%
D16*
%TO.C,R11*%
X99490000Y-127000000D03*
X100510000Y-127000000D03*
%TD*%
D15*
%TO.C,TP12*%
X90000000Y-89000000D03*
%TD*%
D25*
%TO.C,J1*%
X96250000Y-116000000D03*
D26*
X103750000Y-116000000D03*
D27*
X97220000Y-115240000D03*
X98010000Y-115240000D03*
X98800000Y-115240000D03*
X99590000Y-115240000D03*
X100380000Y-115240000D03*
X101170000Y-115240000D03*
X101960000Y-115240000D03*
X102750000Y-115240000D03*
X102750000Y-116760000D03*
X101960000Y-116760000D03*
X101170000Y-116760000D03*
X100380000Y-116760000D03*
X99590000Y-116760000D03*
X98800000Y-116760000D03*
X98010000Y-116760000D03*
X97220000Y-116760000D03*
D28*
X97600000Y-113850000D03*
X97600000Y-118150000D03*
X102400000Y-113850000D03*
X102400000Y-118150000D03*
%TD*%
D16*
%TO.C,R9*%
X114990000Y-100000000D03*
X116010000Y-100000000D03*
%TD*%
D29*
%TO.C,R13*%
X83675000Y-101500000D03*
X85325000Y-101500000D03*
%TD*%
D30*
%TO.C,U2*%
X94350000Y-71700000D03*
X94350000Y-72700000D03*
X94350000Y-73700000D03*
X94350000Y-74700000D03*
X94350000Y-75700000D03*
X94350000Y-76700000D03*
X94350000Y-77700000D03*
X94350000Y-78700000D03*
X94350000Y-79700000D03*
X94350000Y-80700000D03*
X94350000Y-81700000D03*
X94350000Y-82700000D03*
X94350000Y-83700000D03*
X94350000Y-84700000D03*
D31*
X96500000Y-85200000D03*
X97500000Y-85200000D03*
X98500000Y-85200000D03*
X99500000Y-85200000D03*
X100500000Y-85200000D03*
X101500000Y-85200000D03*
X102500000Y-85200000D03*
X103500000Y-85200000D03*
D30*
X105650000Y-84700000D03*
X105650000Y-83700000D03*
X105650000Y-82700000D03*
X105650000Y-81700000D03*
X105650000Y-80700000D03*
X105650000Y-79700000D03*
X105650000Y-78700000D03*
X105650000Y-77700000D03*
X105650000Y-76700000D03*
X105650000Y-75700000D03*
X105650000Y-74700000D03*
X105650000Y-73700000D03*
X105650000Y-72700000D03*
X105650000Y-71700000D03*
%TD*%
D32*
%TO.C,J2*%
X77460000Y-113000000D03*
X82540000Y-111984000D03*
X82540000Y-114016000D03*
D33*
X78730000Y-113635000D03*
X78730000Y-112365000D03*
X80000000Y-113635000D03*
X80000000Y-112365000D03*
X81270000Y-113635000D03*
X81270000Y-112365000D03*
%TD*%
D20*
%TO.C,C24*%
X119800000Y-104480000D03*
X119800000Y-103520000D03*
%TD*%
D21*
%TO.C,U4*%
X86862500Y-96050000D03*
X86862500Y-97000000D03*
X86862500Y-97950000D03*
X89137500Y-97950000D03*
X89137500Y-96050000D03*
%TD*%
D22*
%TO.C,C2*%
X91700000Y-106950000D03*
X91700000Y-105050000D03*
%TD*%
D20*
%TO.C,C21*%
X108500000Y-99980000D03*
X108500000Y-99020000D03*
%TD*%
D15*
%TO.C,TP10*%
X89500000Y-83500000D03*
%TD*%
D34*
%TO.C,C22*%
X95250000Y-88300000D03*
X97150000Y-88300000D03*
%TD*%
D18*
%TO.C,R7*%
X120500000Y-99010000D03*
X120500000Y-97990000D03*
%TD*%
D15*
%TO.C,TP6*%
X112300000Y-91700000D03*
%TD*%
D16*
%TO.C,R3*%
X87490000Y-93600000D03*
X88510000Y-93600000D03*
%TD*%
D20*
%TO.C,C18*%
X99500000Y-91480000D03*
X99500000Y-90520000D03*
%TD*%
D24*
%TO.C,U8*%
X101137500Y-99225000D03*
X101137500Y-99875000D03*
X101137500Y-100525000D03*
X101137500Y-101175000D03*
X101137500Y-101825000D03*
X101137500Y-102475000D03*
X101137500Y-103125000D03*
X101137500Y-103775000D03*
X106862500Y-103775000D03*
X106862500Y-103125000D03*
X106862500Y-102475000D03*
X106862500Y-101825000D03*
X106862500Y-101175000D03*
X106862500Y-100525000D03*
X106862500Y-99875000D03*
X106862500Y-99225000D03*
%TD*%
D15*
%TO.C,TP8*%
X112500000Y-94000000D03*
%TD*%
D23*
%TO.C,SW2*%
X114350000Y-85600000D03*
X120650000Y-85600000D03*
X114350000Y-89400000D03*
X120650000Y-89400000D03*
%TD*%
D22*
%TO.C,C4*%
X91700000Y-97950000D03*
X91700000Y-96050000D03*
%TD*%
D35*
%TO.C,F1*%
X108000000Y-116900000D03*
X108000000Y-114100000D03*
%TD*%
D36*
%TO.C,U6*%
X92050000Y-116637500D03*
X93000000Y-116637500D03*
X93950000Y-116637500D03*
X93950000Y-114362500D03*
X93000000Y-114362500D03*
X92050000Y-114362500D03*
%TD*%
D18*
%TO.C,R2*%
X104500000Y-121510000D03*
X104500000Y-120490000D03*
%TD*%
D16*
%TO.C,R10*%
X96990000Y-126000000D03*
X98010000Y-126000000D03*
%TD*%
%LPD*%
M02*
