%TF.GenerationSoftware,KiCad,Pcbnew,10.0.5*%
%TF.CreationDate,2026-10-08T22:24:26-04:00*%
%TF.ProjectId,radar60,72616461-7236-4302-9e6b-696361645f70,A*%
%TF.SameCoordinates,Original*%
%TF.FileFunction,Soldermask,Bot*%
%TF.FilePolarity,Negative*%
%FSLAX46Y46*%
G04 Gerber Fmt 4.6, Leading zero omitted, Abs format (unit mm)*
G04 Created by KiCad (PCBNEW 10.0.5) date 2026-10-08 22:24:26*
%MOMM*%
%LPD*%
G01*
G04 APERTURE LIST*
G04 Aperture macros list*
%AMRoundRect*
0 Rectangle with rounded corners*
0 $1 Rounding radius*
0 $2 $3 $4 $5 $6 $7 $8 $9 X,Y pos of 4 corners*
0 Add a 4 corners polygon primitive as box body*
4,1,4,$2,$3,$4,$5,$6,$7,$8,$9,$2,$3,0*
0 Add four circle primitives for the rounded corners*
1,1,$1+$1,$2,$3*
1,1,$1+$1,$4,$5*
1,1,$1+$1,$6,$7*
1,1,$1+$1,$8,$9*
0 Add four rect primitives between the rounded corners*
20,1,$1+$1,$2,$3,$4,$5,0*
20,1,$1+$1,$4,$5,$6,$7,0*
20,1,$1+$1,$6,$7,$8,$9,0*
20,1,$1+$1,$8,$9,$2,$3,0*%
G04 Aperture macros list end*
%ADD10C,1.090600*%
%ADD11C,0.760000*%
%ADD12O,1.100000X0.680000*%
%ADD13C,1.200000*%
%ADD14RoundRect,0.190000X-0.140000X-0.170000X0.140000X-0.170000X0.140000X0.170000X-0.140000X0.170000X0*%
%ADD15C,1.100000*%
%ADD16RoundRect,0.150000X0.637500X0.100000X-0.637500X0.100000X-0.637500X-0.100000X0.637500X-0.100000X0*%
%ADD17RoundRect,0.190000X0.170000X-0.140000X0.170000X0.140000X-0.170000X0.140000X-0.170000X-0.140000X0*%
%ADD18C,2.000000*%
%ADD19RoundRect,0.185000X0.135000X0.185000X-0.135000X0.185000X-0.135000X-0.185000X0.135000X-0.185000X0*%
%ADD20C,0.375000*%
%ADD21RoundRect,0.050000X-0.325000X-0.325000X0.325000X-0.325000X0.325000X0.325000X-0.325000X0.325000X0*%
%ADD22RoundRect,0.250000X0.250000X0.200000X-0.250000X0.200000X-0.250000X-0.200000X0.250000X-0.200000X0*%
%ADD23RoundRect,0.185000X-0.135000X-0.185000X0.135000X-0.185000X0.135000X0.185000X-0.135000X0.185000X0*%
%ADD24RoundRect,0.268750X-0.218750X-0.256250X0.218750X-0.256250X0.218750X0.256250X-0.218750X0.256250X0*%
G04 APERTURE END LIST*
D10*
%TO.C,J2*%
X84400000Y-83540000D03*
X83384000Y-78460000D03*
X85416000Y-78460000D03*
%TD*%
D11*
%TO.C,J1*%
X96250000Y-119000000D03*
D12*
X103750000Y-119000000D03*
D13*
X97600000Y-116850000D03*
X97600000Y-121150000D03*
X102400000Y-116850000D03*
X102400000Y-121150000D03*
%TD*%
D14*
%TO.C,C20*%
X114120000Y-92600000D03*
X115080000Y-92600000D03*
%TD*%
D15*
%TO.C,TP5*%
X95000000Y-90000000D03*
%TD*%
D16*
%TO.C,U8*%
X113662500Y-94575000D03*
X113662500Y-95225000D03*
X113662500Y-95875000D03*
X113662500Y-96525000D03*
X113662500Y-97175000D03*
X113662500Y-97825000D03*
X113662500Y-98475000D03*
X113662500Y-99125000D03*
X107937500Y-99125000D03*
X107937500Y-98475000D03*
X107937500Y-97825000D03*
X107937500Y-97175000D03*
X107937500Y-96525000D03*
X107937500Y-95875000D03*
X107937500Y-95225000D03*
X107937500Y-94575000D03*
%TD*%
D17*
%TO.C,C17*%
X109900000Y-102130000D03*
X109900000Y-101170000D03*
%TD*%
D18*
%TO.C,FID6*%
X92000000Y-126500000D03*
%TD*%
D15*
%TO.C,TP6*%
X97400000Y-90000000D03*
%TD*%
%TO.C,TP4*%
X88000000Y-112000000D03*
%TD*%
D19*
%TO.C,R4*%
X105810000Y-101000000D03*
X104790000Y-101000000D03*
%TD*%
D15*
%TO.C,TP8*%
X102200000Y-90000000D03*
%TD*%
D18*
%TO.C,FID5*%
X122000000Y-108000000D03*
%TD*%
D20*
%TO.C,U1*%
X97250000Y-100500000D03*
X97250000Y-101000000D03*
X97250000Y-101500000D03*
X97250000Y-102000000D03*
X97250000Y-102500000D03*
X97250000Y-103000000D03*
X97250000Y-103500000D03*
X97250000Y-104000000D03*
X97250000Y-104500000D03*
X97750000Y-100500000D03*
X97750000Y-101500000D03*
X97750000Y-102000000D03*
X97750000Y-104000000D03*
X97750000Y-104500000D03*
X98250000Y-100500000D03*
X98250000Y-104500000D03*
X98750000Y-100500000D03*
X98750000Y-104500000D03*
X99250000Y-100500000D03*
X99250000Y-104500000D03*
X99750000Y-100500000D03*
X99750000Y-104500000D03*
X100250000Y-100500000D03*
X100250000Y-104500000D03*
X100750000Y-100500000D03*
X100750000Y-104500000D03*
X101250000Y-100500000D03*
X101250000Y-104500000D03*
X101750000Y-100500000D03*
X101750000Y-104500000D03*
X102250000Y-100500000D03*
X102250000Y-104500000D03*
X102750000Y-100500000D03*
X102750000Y-101000000D03*
X102750000Y-101500000D03*
X102750000Y-102000000D03*
X102750000Y-102500000D03*
X102750000Y-103000000D03*
X102750000Y-103500000D03*
X102750000Y-104500000D03*
%TD*%
D21*
%TO.C,D1*%
X90825000Y-79625000D03*
X90825000Y-78375000D03*
X89975000Y-78375000D03*
X89975000Y-79625000D03*
%TD*%
D17*
%TO.C,C16*%
X102300000Y-99380000D03*
X102300000Y-98420000D03*
%TD*%
D18*
%TO.C,FID4*%
X78000000Y-92000000D03*
%TD*%
D15*
%TO.C,TP7*%
X99800000Y-90000000D03*
%TD*%
D14*
%TO.C,C21*%
X107520000Y-92600000D03*
X108480000Y-92600000D03*
%TD*%
D22*
%TO.C,Y1*%
X108600000Y-102200000D03*
X107200000Y-102200000D03*
X107200000Y-101100000D03*
X108600000Y-101100000D03*
%TD*%
D17*
%TO.C,C36*%
X111000000Y-102130000D03*
X111000000Y-101170000D03*
%TD*%
D23*
%TO.C,R16*%
X114490000Y-101200000D03*
X115510000Y-101200000D03*
%TD*%
D15*
%TO.C,TP9*%
X117200000Y-98200000D03*
%TD*%
D24*
%TO.C,FB7*%
X110412500Y-104100000D03*
X111987500Y-104100000D03*
%TD*%
M02*
