%TF.GenerationSoftware,KiCad,Pcbnew,10.0.5*%
%TF.CreationDate,2026-10-08T22:24:26-04:00*%
%TF.ProjectId,radar60,72616461-7236-4302-9e6b-696361645f70,A*%
%TF.SameCoordinates,Original*%
%TF.FileFunction,Copper,L4,Bot*%
%TF.FilePolarity,Positive*%
%FSLAX46Y46*%
G04 Gerber Fmt 4.6, Leading zero omitted, Abs format (unit mm)*
G04 Created by KiCad (PCBNEW 10.0.5) date 2026-10-08 22:24:26*
%MOMM*%
%LPD*%
G01*
G04 APERTURE LIST*
G04 Aperture macros list*
%AMRoundRect*
0 Rectangle with rounded corners*
0 $1 Rounding radius*
0 $2 $3 $4 $5 $6 $7 $8 $9 X,Y pos of 4 corners*
0 Add a 4 corners polygon primitive as box body*
4,1,4,$2,$3,$4,$5,$6,$7,$8,$9,$2,$3,0*
0 Add four circle primitives for the rounded corners*
1,1,$1+$1,$2,$3*
1,1,$1+$1,$4,$5*
1,1,$1+$1,$6,$7*
1,1,$1+$1,$8,$9*
0 Add four rect primitives between the rounded corners*
20,1,$1+$1,$2,$3,$4,$5,0*
20,1,$1+$1,$4,$5,$6,$7,0*
20,1,$1+$1,$6,$7,$8,$9,0*
20,1,$1+$1,$8,$9,$2,$3,0*%
G04 Aperture macros list end*
%TA.AperFunction,ComponentPad*%
%ADD10C,1.100000*%
%TD*%
%TA.AperFunction,SMDPad,CuDef*%
%ADD11RoundRect,0.140000X-0.140000X-0.170000X0.140000X-0.170000X0.140000X0.170000X-0.140000X0.170000X0*%
%TD*%
%TA.AperFunction,SMDPad,CuDef*%
%ADD12C,1.000000*%
%TD*%
%TA.AperFunction,SMDPad,CuDef*%
%ADD13RoundRect,0.100000X0.637500X0.100000X-0.637500X0.100000X-0.637500X-0.100000X0.637500X-0.100000X0*%
%TD*%
%TA.AperFunction,SMDPad,CuDef*%
%ADD14RoundRect,0.140000X0.170000X-0.140000X0.170000X0.140000X-0.170000X0.140000X-0.170000X-0.140000X0*%
%TD*%
%TA.AperFunction,SMDPad,CuDef*%
%ADD15RoundRect,0.135000X0.135000X0.185000X-0.135000X0.185000X-0.135000X-0.185000X0.135000X-0.185000X0*%
%TD*%
%TA.AperFunction,SMDPad,CuDef*%
%ADD16C,0.275000*%
%TD*%
%TA.AperFunction,SMDPad,CuDef*%
%ADD17R,0.650000X0.650000*%
%TD*%
%TA.AperFunction,SMDPad,CuDef*%
%ADD18RoundRect,0.200000X0.250000X0.200000X-0.250000X0.200000X-0.250000X-0.200000X0.250000X-0.200000X0*%
%TD*%
%TA.AperFunction,SMDPad,CuDef*%
%ADD19RoundRect,0.135000X-0.135000X-0.185000X0.135000X-0.185000X0.135000X0.185000X-0.135000X0.185000X0*%
%TD*%
%TA.AperFunction,SMDPad,CuDef*%
%ADD20RoundRect,0.218750X-0.218750X-0.256250X0.218750X-0.256250X0.218750X0.256250X-0.218750X0.256250X0*%
%TD*%
%TA.AperFunction,ViaPad*%
%ADD21C,0.600000*%
%TD*%
%TA.AperFunction,ViaPad*%
%ADD22C,0.550000*%
%TD*%
%TA.AperFunction,Conductor*%
%ADD23C,0.150000*%
%TD*%
%TA.AperFunction,Conductor*%
%ADD24C,0.400000*%
%TD*%
%TA.AperFunction,Conductor*%
%ADD25C,0.300000*%
%TD*%
%TA.AperFunction,Conductor*%
%ADD26C,0.250000*%
%TD*%
%TA.AperFunction,Conductor*%
%ADD27C,0.200000*%
%TD*%
G04 APERTURE END LIST*
D10*
%TO.P,J1,SH*%
%TO.N,/GND*%
X97600000Y-116850000D03*
X97600000Y-121150000D03*
X102400000Y-116850000D03*
X102400000Y-121150000D03*
%TD*%
D11*
%TO.P,C20,1*%
%TO.N,/+3V3*%
X114120000Y-92600000D03*
%TO.P,C20,2*%
%TO.N,/GND*%
X115080000Y-92600000D03*
%TD*%
D12*
%TO.P,TP5,1*%
%TO.N,/SPI_SCLK*%
X95000000Y-90000000D03*
%TD*%
D13*
%TO.P,U8,1*%
%TO.N,/+3V3*%
X113662500Y-94575000D03*
%TO.P,U8,2*%
%TO.N,/GND*%
X113662500Y-95225000D03*
%TO.P,U8,3*%
X113662500Y-95875000D03*
%TO.P,U8,4*%
%TO.N,/RAD_IRQ_3V3*%
X113662500Y-96525000D03*
%TO.P,U8,5*%
%TO.N,/SPI_MISO*%
X113662500Y-97175000D03*
%TO.P,U8,6*%
%TO.N,unconnected-(U8-2A1-Pad6)*%
X113662500Y-97825000D03*
%TO.P,U8,7*%
%TO.N,unconnected-(U8-2A2-Pad7)*%
X113662500Y-98475000D03*
%TO.P,U8,8*%
%TO.N,/GND*%
X113662500Y-99125000D03*
%TO.P,U8,9*%
X107937500Y-99125000D03*
%TO.P,U8,10*%
X107937500Y-98475000D03*
%TO.P,U8,11*%
X107937500Y-97825000D03*
%TO.P,U8,12*%
%TO.N,/RAD_DO*%
X107937500Y-97175000D03*
%TO.P,U8,13*%
%TO.N,/RAD_IRQ*%
X107937500Y-96525000D03*
%TO.P,U8,14*%
%TO.N,/RAD_OE_N*%
X107937500Y-95875000D03*
%TO.P,U8,15*%
X107937500Y-95225000D03*
%TO.P,U8,16*%
%TO.N,/+1V8_IO*%
X107937500Y-94575000D03*
%TD*%
D14*
%TO.P,C17,1*%
%TO.N,/+1V8_OSC*%
X109900000Y-102130000D03*
%TO.P,C17,2*%
%TO.N,/GND*%
X109900000Y-101170000D03*
%TD*%
D12*
%TO.P,FID6,*%
%TO.N,*%
X92000000Y-126500000D03*
%TD*%
%TO.P,TP6,1*%
%TO.N,/SPI_MOSI*%
X97400000Y-90000000D03*
%TD*%
%TO.P,TP4,1*%
%TO.N,/GND*%
X88000000Y-112000000D03*
%TD*%
D15*
%TO.P,R4,1*%
%TO.N,/OSC_OUT*%
X105810000Y-101000000D03*
%TO.P,R4,2*%
%TO.N,/RAD_OSC*%
X104790000Y-101000000D03*
%TD*%
D12*
%TO.P,TP8,1*%
%TO.N,/SPI_CS*%
X102200000Y-90000000D03*
%TD*%
%TO.P,FID5,*%
%TO.N,*%
X122000000Y-108000000D03*
%TD*%
D16*
%TO.P,U1,A1*%
%TO.N,/GND*%
X97250000Y-100500000D03*
%TO.P,U1,A2*%
X97250000Y-101000000D03*
%TO.P,U1,A3*%
X97250000Y-101500000D03*
%TO.P,U1,A4*%
X97250000Y-102000000D03*
%TO.P,U1,A5*%
X97250000Y-102500000D03*
%TO.P,U1,A6*%
X97250000Y-103000000D03*
%TO.P,U1,A7*%
X97250000Y-103500000D03*
%TO.P,U1,A8*%
X97250000Y-104000000D03*
%TO.P,U1,A9*%
X97250000Y-104500000D03*
%TO.P,U1,B1*%
%TO.N,/RAD_CLK*%
X97750000Y-100500000D03*
%TO.P,U1,B3*%
%TO.N,/GND*%
X97750000Y-101500000D03*
%TO.P,U1,B4*%
X97750000Y-102000000D03*
%TO.P,U1,B8*%
X97750000Y-104000000D03*
%TO.P,U1,B9*%
X97750000Y-104500000D03*
%TO.P,U1,C1*%
%TO.N,/RAD_IRQ*%
X98250000Y-100500000D03*
%TO.P,U1,C9*%
%TO.N,/GND*%
X98250000Y-104500000D03*
%TO.P,U1,D1*%
%TO.N,/RAD_DI*%
X98750000Y-100500000D03*
%TO.P,U1,D9*%
%TO.N,/GND*%
X98750000Y-104500000D03*
%TO.P,U1,E1*%
%TO.N,/RAD_DO*%
X99250000Y-100500000D03*
%TO.P,U1,E9*%
%TO.N,/GND*%
X99250000Y-104500000D03*
%TO.P,U1,F1*%
%TO.N,/RAD_DIO3*%
X99750000Y-100500000D03*
%TO.P,U1,F9*%
%TO.N,/+1V8_RF*%
X99750000Y-104500000D03*
%TO.P,U1,G1*%
%TO.N,/RAD_CS_N*%
X100250000Y-100500000D03*
%TO.P,U1,G9*%
%TO.N,/+1V8_RF*%
X100250000Y-104500000D03*
%TO.P,U1,H1*%
%TO.N,/+1V8_D*%
X100750000Y-100500000D03*
%TO.P,U1,H9*%
%TO.N,/GND*%
X100750000Y-104500000D03*
%TO.P,U1,J1*%
%TO.N,/+1V8_A*%
X101250000Y-100500000D03*
%TO.P,U1,J9*%
%TO.N,/GND*%
X101250000Y-104500000D03*
%TO.P,U1,K1*%
X101750000Y-100500000D03*
%TO.P,U1,K9*%
X101750000Y-104500000D03*
%TO.P,U1,L1*%
%TO.N,/VAREF*%
X102250000Y-100500000D03*
%TO.P,U1,L9*%
%TO.N,/GND*%
X102250000Y-104500000D03*
%TO.P,U1,M1*%
%TO.N,/+1V8_RF*%
X102750000Y-100500000D03*
%TO.P,U1,M2*%
%TO.N,/RAD_OSC*%
X102750000Y-101000000D03*
%TO.P,U1,M3*%
%TO.N,/+3V3_LF*%
X102750000Y-101500000D03*
%TO.P,U1,M4*%
%TO.N,/+1V8_PLL*%
X102750000Y-102000000D03*
%TO.P,U1,M5*%
%TO.N,unconnected-(U1A-DIV_TEST-PadM5)*%
X102750000Y-102500000D03*
%TO.P,U1,M6*%
%TO.N,/+1V8_VCO*%
X102750000Y-103000000D03*
%TO.P,U1,M7*%
%TO.N,/GND*%
X102750000Y-103500000D03*
%TO.P,U1,M9*%
X102750000Y-104500000D03*
%TD*%
D17*
%TO.P,D1,1*%
%TO.N,/LED_RK*%
X90825000Y-79625000D03*
%TO.P,D1,2*%
%TO.N,/LED_GK*%
X90825000Y-78375000D03*
%TO.P,D1,3*%
%TO.N,/LED_BK*%
X89975000Y-78375000D03*
%TO.P,D1,4*%
%TO.N,/+3V3*%
X89975000Y-79625000D03*
%TD*%
D14*
%TO.P,C16,1*%
%TO.N,/VAREF*%
X102300000Y-99380000D03*
%TO.P,C16,2*%
%TO.N,/GND*%
X102300000Y-98420000D03*
%TD*%
D12*
%TO.P,FID4,*%
%TO.N,*%
X78000000Y-92000000D03*
%TD*%
%TO.P,TP7,1*%
%TO.N,/SPI_MISO*%
X99800000Y-90000000D03*
%TD*%
D11*
%TO.P,C21,1*%
%TO.N,/+1V8_IO*%
X107520000Y-92600000D03*
%TO.P,C21,2*%
%TO.N,/GND*%
X108480000Y-92600000D03*
%TD*%
D18*
%TO.P,Y1,1*%
%TO.N,/+1V8_OSC*%
X108600000Y-102200000D03*
%TO.P,Y1,2*%
%TO.N,/GND*%
X107200000Y-102200000D03*
%TO.P,Y1,3*%
%TO.N,/OSC_OUT*%
X107200000Y-101100000D03*
%TO.P,Y1,4*%
%TO.N,/+1V8_OSC*%
X108600000Y-101100000D03*
%TD*%
D14*
%TO.P,C36,1*%
%TO.N,/+1V8_OSC*%
X111000000Y-102130000D03*
%TO.P,C36,2*%
%TO.N,/GND*%
X111000000Y-101170000D03*
%TD*%
D19*
%TO.P,R16,1*%
%TO.N,/RAD_IRQ_3V3*%
X114490000Y-101200000D03*
%TO.P,R16,2*%
%TO.N,/GND*%
X115510000Y-101200000D03*
%TD*%
D12*
%TO.P,TP9,1*%
%TO.N,/RAD_IRQ_3V3*%
X117200000Y-98200000D03*
%TD*%
D20*
%TO.P,FB7,1*%
%TO.N,/+1V8_RAD*%
X110412500Y-104100000D03*
%TO.P,FB7,2*%
%TO.N,/+1V8_OSC*%
X111987500Y-104100000D03*
%TD*%
D21*
%TO.N,/LED_GK*%
X91592200Y-78080700D03*
D22*
%TO.N,/VBUS*%
X98550000Y-121000000D03*
X92400000Y-115412500D03*
D21*
X90258700Y-105365400D03*
D22*
X101449999Y-117000000D03*
%TO.N,/+3V3*%
X89220000Y-111060000D03*
X87541928Y-108460656D03*
X93197185Y-87220657D03*
X91979232Y-105312326D03*
X114564206Y-93858360D03*
X102491639Y-87635793D03*
X89700000Y-108410000D03*
X112932077Y-118724902D03*
X95734851Y-86664712D03*
X117400000Y-121700000D03*
X89300000Y-88000000D03*
X85472466Y-83144932D03*
X88606801Y-108586801D03*
X113261948Y-102274448D03*
X104876801Y-87686801D03*
X120550000Y-116200000D03*
X87785651Y-109916791D03*
X89468076Y-80370475D03*
X102390000Y-88300000D03*
X100397832Y-87341141D03*
X113355657Y-92283399D03*
X85200000Y-104070000D03*
X101273773Y-87340174D03*
X88414839Y-110169706D03*
X91000000Y-107210000D03*
%TO.N,/GND*%
X109400000Y-111550000D03*
X107700000Y-106790000D03*
X95210000Y-88000000D03*
X104693198Y-88913198D03*
X79020285Y-95641732D03*
X87000000Y-112000000D03*
X106100000Y-103190000D03*
X90910000Y-110300000D03*
X98250000Y-105800000D03*
X120979714Y-88641732D03*
X96700000Y-99200000D03*
X103451474Y-118046138D03*
X106200000Y-94890000D03*
X108300000Y-99750000D03*
X112220285Y-88641732D03*
X92740534Y-72198908D03*
X96508360Y-87635793D03*
X86000000Y-113000000D03*
X122350000Y-100000000D03*
X88150000Y-106170000D03*
X101690000Y-107000000D03*
X107253121Y-73183756D03*
X93353118Y-85793923D03*
X86000000Y-111000000D03*
X114928273Y-121075365D03*
X114400000Y-121500000D03*
X85000000Y-112000000D03*
X101400000Y-124630000D03*
X96244342Y-99883399D03*
X79550000Y-100000000D03*
X96519174Y-119951592D03*
X93080698Y-88930698D03*
X107035793Y-99841639D03*
X115050561Y-118229404D03*
X100400000Y-101800000D03*
X91000000Y-104789999D03*
X91750000Y-107000000D03*
X112700000Y-119800000D03*
X102850000Y-110900000D03*
X105000000Y-94890000D03*
X100400000Y-103200000D03*
X96050000Y-100750000D03*
X108469301Y-107930698D03*
X107700000Y-110390000D03*
X101690000Y-108200000D03*
X112932077Y-120875097D03*
X106600000Y-98590000D03*
X108069301Y-104330698D03*
X111000000Y-100440000D03*
X106500000Y-110390000D03*
X91949629Y-118050209D03*
X117400000Y-117899999D03*
X96519174Y-118048407D03*
X88818198Y-112818198D03*
X107003319Y-103839007D03*
X109133858Y-97902167D03*
X105400000Y-98590000D03*
X106500000Y-106790000D03*
X98600000Y-113370000D03*
X101600000Y-103200000D03*
X101690000Y-109400000D03*
X96050000Y-102500000D03*
X85934347Y-79430217D03*
X97400000Y-105100000D03*
X106688651Y-95601757D03*
X113749438Y-118229404D03*
X90502814Y-108420657D03*
X116167766Y-121567766D03*
X96050000Y-104250000D03*
X106646881Y-85793923D03*
X89700000Y-105990000D03*
X107313694Y-75587692D03*
X114858858Y-95952167D03*
X101600000Y-101800000D03*
X103451474Y-119953861D03*
X92400000Y-120587500D03*
X106200000Y-116190000D03*
X86000000Y-112000000D03*
X99000000Y-101800000D03*
X87779714Y-95641732D03*
X116500000Y-119800000D03*
X111600000Y-117899999D03*
X96508360Y-95164206D03*
X109244342Y-92283399D03*
X107975837Y-72420972D03*
X99000000Y-103200000D03*
X107369024Y-71961429D03*
X107300000Y-103190000D03*
X115810000Y-92600000D03*
X109900000Y-100440000D03*
X106511202Y-99284688D03*
X92369118Y-108691421D03*
X101750000Y-105800000D03*
X103839999Y-100210000D03*
X116230000Y-101200000D03*
X114859825Y-95076226D03*
X103202814Y-95120657D03*
X114564206Y-99841639D03*
D21*
%TO.N,/+1V8_RAD*%
X112900000Y-106900000D03*
D22*
%TO.N,/+1V8_VCO*%
X103950000Y-103100000D03*
D21*
%TO.N,/RADAR_PWR_EN*%
X93969200Y-107950000D03*
X98197500Y-81700000D03*
D22*
%TO.N,/USB_DP*%
X100380000Y-121260000D03*
X99590000Y-117039999D03*
D21*
%TO.N,/VCOM_TX*%
X90391300Y-82700000D03*
X90391300Y-99159400D03*
%TO.N,/VCOM_RX*%
X92427000Y-83700000D03*
X92425400Y-100045200D03*
%TO.N,/+1V8_IO*%
X103315400Y-94262500D03*
X97497500Y-97066200D03*
D22*
%TO.N,/+1V8_PLL*%
X104950000Y-102300000D03*
D21*
%TO.N,/SPI_CS*%
X101259100Y-89795200D03*
%TO.N,/SPI_MOSI*%
X98333000Y-89847400D03*
%TO.N,/SPI_SCLK*%
X96082400Y-88236900D03*
D22*
%TO.N,/RAD_CLK*%
X97750000Y-99250000D03*
%TO.N,/RAD_DI*%
X98750000Y-99250000D03*
%TO.N,/RAD_DIO3*%
X99750000Y-99250000D03*
%TO.N,/RAD_CS_N*%
X100250000Y-98450000D03*
D21*
%TO.N,/RAD_OE_N*%
X108000000Y-91534600D03*
D22*
%TO.N,/+1V8_RF*%
X100000000Y-105800000D03*
X103100000Y-99250000D03*
%TO.N,/+3V3_LF*%
X103950000Y-101500000D03*
%TO.N,/+1V8_A*%
X101450000Y-98450000D03*
D21*
%TO.N,/SWDIO*%
X92277500Y-79700000D03*
X92277500Y-81830300D03*
%TO.N,/SWO*%
X85880900Y-81333600D03*
X83180500Y-80314500D03*
%TO.N,/BTN*%
X87645800Y-73700000D03*
X87645800Y-90223100D03*
%TO.N,/SPI_MISO*%
X111433800Y-86596700D03*
%TO.N,/RAD_IRQ_3V3*%
X112648400Y-89668100D03*
D22*
%TO.N,/+1V8_D*%
X100750000Y-99250000D03*
D21*
%TO.N,/LED_RK*%
X92427000Y-77584000D03*
%TO.N,/LED_BK*%
X89389400Y-74700000D03*
%TD*%
%TO.N,/LED_GK*%
D23*
X91346700Y-78326200D02*
X91592200Y-78080700D01*
X91346700Y-78375000D02*
X91346700Y-78326200D01*
X90825000Y-78375000D02*
X91346700Y-78375000D01*
%TO.N,/VBUS*%
D24*
X91661600Y-108723300D02*
X91661600Y-114673600D01*
X92400000Y-115412000D02*
X94728500Y-115412000D01*
X100826500Y-116376500D02*
X101450000Y-117000000D01*
X97092000Y-117775500D02*
X98470200Y-117775500D01*
X91661600Y-114673600D02*
X92400000Y-115412000D01*
X90345300Y-107407000D02*
X91661600Y-108723300D01*
X90345300Y-105452000D02*
X90345300Y-107407000D01*
X98550000Y-117855300D02*
X98470200Y-117775500D01*
X98470200Y-117775500D02*
X98470200Y-117268500D01*
X98550000Y-121000000D02*
X98550000Y-117855300D01*
X98470200Y-117268500D02*
X99362200Y-116376500D01*
X90258700Y-105365400D02*
X90345300Y-105452000D01*
X94728500Y-115412000D02*
X97092000Y-117775500D01*
X99362200Y-116376500D02*
X100826500Y-116376500D01*
%TO.N,/+3V3*%
D25*
X114120000Y-92600000D02*
X113355657Y-92283399D01*
X113662500Y-94575000D02*
X114564206Y-93858360D01*
X89975000Y-79625000D02*
X89468076Y-80370475D01*
%TO.N,/GND*%
X107937500Y-98475000D02*
X106511202Y-99284688D01*
X109900000Y-101170000D02*
X109900000Y-100440000D01*
X115510000Y-101200000D02*
X116230000Y-101200000D01*
X113662500Y-95225000D02*
X114859825Y-95076226D01*
D26*
X102300000Y-98420000D02*
X105400000Y-98420000D01*
D25*
X88000000Y-112000000D02*
X88818198Y-112818198D01*
D26*
X105400000Y-98420000D02*
X105400000Y-98590000D01*
D25*
X107937500Y-97825000D02*
X109133858Y-97902167D01*
X111000000Y-101170000D02*
X111000000Y-100440000D01*
X115080000Y-92600000D02*
X115810000Y-92600000D01*
X113662500Y-99125000D02*
X114564206Y-99841639D01*
X107937500Y-99125000D02*
X107035793Y-99841639D01*
X107200000Y-102200000D02*
X107003319Y-103839007D01*
X113662500Y-95875000D02*
X114858858Y-95952167D01*
X108480000Y-92600000D02*
X109244342Y-92283399D01*
%TO.N,/+1V8_RAD*%
D24*
X110412500Y-106900000D02*
X110412500Y-104100000D01*
X110412500Y-104100000D02*
X110412000Y-104100000D01*
X112900000Y-106900000D02*
X110412500Y-106900000D01*
%TO.N,/+1V8_VCO*%
D26*
X102750000Y-103000000D02*
X103950000Y-103100000D01*
%TO.N,/RADAR_PWR_EN*%
D23*
X93969200Y-107950000D02*
X93969200Y-85928300D01*
X93969200Y-85928300D02*
X98197500Y-81700000D01*
%TO.N,/USB_DP*%
D27*
X99590000Y-117039999D02*
X99590000Y-120460000D01*
X99590000Y-120460000D02*
X100380000Y-121260000D01*
%TO.N,/VCOM_TX*%
D23*
X90391300Y-99159400D02*
X90391300Y-82700000D01*
%TO.N,/VCOM_RX*%
X92427000Y-83700000D02*
X92427000Y-100043600D01*
X92427000Y-100043600D02*
X92425400Y-100045200D01*
%TO.N,/+1V8_IO*%
D25*
X97497500Y-96709000D02*
X97497500Y-97066200D01*
X107520000Y-94157500D02*
X107520000Y-92600000D01*
X103420400Y-94157500D02*
X103315400Y-94262500D01*
X107937500Y-94575000D02*
X107520000Y-94157500D01*
X99944000Y-94262500D02*
X97497500Y-96709000D01*
X103315400Y-94262500D02*
X99944000Y-94262500D01*
X107520000Y-94157500D02*
X103420400Y-94157500D01*
%TO.N,/+1V8_PLL*%
D26*
X102750000Y-102000000D02*
X103300000Y-102000000D01*
X103600000Y-102300000D02*
X104950000Y-102300000D01*
X103300000Y-102000000D02*
X103600000Y-102300000D01*
%TO.N,/SPI_CS*%
D23*
X101995200Y-89795200D02*
X102200000Y-90000000D01*
X101259100Y-89795200D02*
X101995200Y-89795200D01*
%TO.N,/SPI_MOSI*%
X97552600Y-89847400D02*
X97400000Y-90000000D01*
X98333000Y-89847400D02*
X97552600Y-89847400D01*
%TO.N,/SPI_SCLK*%
X96082400Y-88236900D02*
X96082400Y-88917600D01*
X96082400Y-88917600D02*
X95000000Y-90000000D01*
%TO.N,/RAD_CLK*%
X97750000Y-100500000D02*
X97750000Y-99250000D01*
%TO.N,/RAD_DI*%
X98750000Y-100500000D02*
X98750000Y-99250000D01*
%TO.N,/RAD_DIO3*%
X99750000Y-100500000D02*
X99750000Y-99250000D01*
%TO.N,/RAD_CS_N*%
X100250000Y-100500000D02*
X100250000Y-98450000D01*
%TO.N,/RAD_OE_N*%
X107937500Y-95225000D02*
X107937500Y-95875000D01*
X107937500Y-95225000D02*
X108488400Y-95225000D01*
X108882600Y-94830800D02*
X108882600Y-94271300D01*
X108488400Y-95225000D02*
X108882600Y-94830800D01*
X108000000Y-93388700D02*
X108000000Y-91534600D01*
X108882600Y-94271300D02*
X108000000Y-93388700D01*
%TO.N,/+1V8_RF*%
D26*
X100000000Y-104500000D02*
X100000000Y-105800000D01*
X99750000Y-104500000D02*
X100250000Y-104500000D01*
X102750000Y-100500000D02*
X102750000Y-99900000D01*
X102750000Y-99900000D02*
X103100000Y-99250000D01*
%TO.N,/+3V3_LF*%
X102750000Y-101500000D02*
X103950000Y-101500000D01*
%TO.N,/+1V8_A*%
X101450000Y-99550000D02*
X101450000Y-98450000D01*
X101250000Y-99750000D02*
X101450000Y-99550000D01*
X101250000Y-100500000D02*
X101250000Y-99750000D01*
%TO.N,/SWDIO*%
D23*
X92277500Y-81830300D02*
X92277500Y-79700000D01*
%TO.N,/SWO*%
X84861800Y-80314500D02*
X83180500Y-80314500D01*
X85880900Y-81333600D02*
X84861800Y-80314500D01*
%TO.N,/BTN*%
X87645800Y-73700000D02*
X87645800Y-90223100D01*
%TO.N,/SPI_MISO*%
X113662500Y-97175000D02*
X113118700Y-97175000D01*
X111433800Y-95490100D02*
X111433800Y-90704700D01*
X111433800Y-90704700D02*
X111433800Y-86596700D01*
X113118700Y-97175000D02*
X111433800Y-95490100D01*
X111433800Y-90704700D02*
X100504700Y-90704700D01*
X100504700Y-90704700D02*
X99800000Y-90000000D01*
%TO.N,/RAD_IRQ_3V3*%
X115895700Y-98231500D02*
X115895700Y-99175000D01*
X115895700Y-99175000D02*
X115895800Y-99175000D01*
X116060400Y-99629600D02*
X114490000Y-101200000D01*
X116060400Y-99339600D02*
X116060400Y-99629600D01*
X112648400Y-89668100D02*
X112648400Y-96059600D01*
X115895800Y-99175000D02*
X116060400Y-99339600D01*
X113113800Y-96525000D02*
X113662500Y-96525000D01*
X112648400Y-96059600D02*
X113113800Y-96525000D01*
X114189200Y-96525000D02*
X115895700Y-98231500D01*
X116060400Y-99339600D02*
X117200000Y-98200000D01*
X113662500Y-96525000D02*
X114189200Y-96525000D01*
%TO.N,/+1V8_D*%
D26*
X100750000Y-100500000D02*
X100750000Y-99250000D01*
%TO.N,/LED_RK*%
D23*
X91291400Y-79103300D02*
X92427000Y-77967700D01*
X92427000Y-77967700D02*
X92427000Y-77584000D01*
X90825000Y-79625000D02*
X90825000Y-79103300D01*
X90825000Y-79103300D02*
X91291400Y-79103300D01*
%TO.N,/LED_BK*%
X89975000Y-75285600D02*
X89389400Y-74700000D01*
X89975000Y-78375000D02*
X89975000Y-75285600D01*
%TO.N,/RAD_DO*%
X99250000Y-100500000D02*
X99250000Y-97175000D01*
X99250000Y-97175000D02*
X107937500Y-97175000D01*
%TO.N,/RAD_IRQ*%
X98250000Y-96525000D02*
X107937500Y-96525000D01*
X98250000Y-100500000D02*
X98250000Y-96525000D01*
%TO.N,/+1V8_OSC*%
D25*
X111987500Y-104100000D02*
X111987500Y-103117500D01*
X108600000Y-101100000D02*
X108600000Y-102130000D01*
X111000000Y-102130000D02*
X109900000Y-102130000D01*
X108600000Y-102130000D02*
X109900000Y-102130000D01*
X111987500Y-103117500D02*
X111000000Y-102130000D01*
X108600000Y-102130000D02*
X108600000Y-102200000D01*
%TO.N,/OSC_OUT*%
D23*
X105810000Y-101000000D02*
X107200000Y-101100000D01*
%TO.N,/RAD_OSC*%
X102750000Y-101000000D02*
X104790000Y-101000000D01*
%TO.N,/VAREF*%
X102250000Y-100500000D02*
X102300000Y-99380000D01*
%TD*%
%TA.AperFunction,Conductor*%
%TO.N,/GND*%
G36*
X97474500Y-100274651D02*
G01*
X97461237Y-100324149D01*
X97435036Y-100369532D01*
X97435034Y-100369535D01*
X97435034Y-100369537D01*
X97412000Y-100455501D01*
X97412000Y-100544499D01*
X97435034Y-100630463D01*
X97479532Y-100707537D01*
X97542463Y-100770468D01*
X97619537Y-100814966D01*
X97705501Y-100838000D01*
X97705503Y-100838000D01*
X97794497Y-100838000D01*
X97794499Y-100838000D01*
X97880463Y-100814966D01*
X97950502Y-100774529D01*
X98010348Y-100761808D01*
X98049497Y-100774529D01*
X98119537Y-100814966D01*
X98205501Y-100838000D01*
X98205503Y-100838000D01*
X98294497Y-100838000D01*
X98294499Y-100838000D01*
X98380463Y-100814966D01*
X98450502Y-100774529D01*
X98510348Y-100761808D01*
X98549497Y-100774529D01*
X98619537Y-100814966D01*
X98705501Y-100838000D01*
X98705503Y-100838000D01*
X98794497Y-100838000D01*
X98794499Y-100838000D01*
X98880463Y-100814966D01*
X98950502Y-100774529D01*
X99010348Y-100761808D01*
X99049497Y-100774529D01*
X99119537Y-100814966D01*
X99205501Y-100838000D01*
X99205503Y-100838000D01*
X99294497Y-100838000D01*
X99294499Y-100838000D01*
X99380463Y-100814966D01*
X99450502Y-100774529D01*
X99510348Y-100761808D01*
X99549497Y-100774529D01*
X99619537Y-100814966D01*
X99705501Y-100838000D01*
X99705503Y-100838000D01*
X99794497Y-100838000D01*
X99794499Y-100838000D01*
X99880463Y-100814966D01*
X99950502Y-100774529D01*
X100010348Y-100761808D01*
X100049497Y-100774529D01*
X100119537Y-100814966D01*
X100205501Y-100838000D01*
X100205503Y-100838000D01*
X100294497Y-100838000D01*
X100294499Y-100838000D01*
X100380463Y-100814966D01*
X100450502Y-100774529D01*
X100510348Y-100761808D01*
X100549497Y-100774529D01*
X100619537Y-100814966D01*
X100705501Y-100838000D01*
X100705503Y-100838000D01*
X100794497Y-100838000D01*
X100794499Y-100838000D01*
X100880463Y-100814966D01*
X100950502Y-100774529D01*
X101010348Y-100761808D01*
X101049497Y-100774529D01*
X101119537Y-100814966D01*
X101205501Y-100838000D01*
X101205503Y-100838000D01*
X101294497Y-100838000D01*
X101294499Y-100838000D01*
X101380463Y-100814966D01*
X101457537Y-100770468D01*
X101520468Y-100707537D01*
X101564966Y-100630463D01*
X101588000Y-100544499D01*
X101588000Y-100455501D01*
X101578873Y-100421437D01*
X101575500Y-100395815D01*
X101575500Y-99925834D01*
X101583894Y-99900000D01*
X102000166Y-99900000D01*
X102000875Y-99903019D01*
X101984899Y-100260882D01*
X101971736Y-100305965D01*
X101935034Y-100369536D01*
X101935034Y-100369537D01*
X101912000Y-100455501D01*
X101912000Y-100544499D01*
X101935034Y-100630463D01*
X101979532Y-100707537D01*
X102042463Y-100770468D01*
X102119537Y-100814966D01*
X102205501Y-100838000D01*
X102205503Y-100838000D01*
X102294498Y-100838000D01*
X102294499Y-100838000D01*
X102294499Y-100837999D01*
X102300931Y-100837153D01*
X102301306Y-100840006D01*
X102350430Y-100842554D01*
X102398000Y-100881034D01*
X102413868Y-100940126D01*
X102412464Y-100949018D01*
X102412847Y-100949069D01*
X102412000Y-100955500D01*
X102412000Y-100955501D01*
X102412000Y-101044499D01*
X102427356Y-101101808D01*
X102435034Y-101130464D01*
X102475470Y-101200501D01*
X102488191Y-101260349D01*
X102475470Y-101299499D01*
X102435034Y-101369535D01*
X102419678Y-101426846D01*
X102412000Y-101455501D01*
X102412000Y-101544499D01*
X102427356Y-101601808D01*
X102435034Y-101630464D01*
X102475470Y-101700501D01*
X102488191Y-101760349D01*
X102475470Y-101799499D01*
X102435034Y-101869535D01*
X102419678Y-101926846D01*
X102412000Y-101955501D01*
X102412000Y-102044499D01*
X102426908Y-102100138D01*
X102435034Y-102130464D01*
X102475470Y-102200501D01*
X102488191Y-102260349D01*
X102475470Y-102299499D01*
X102435034Y-102369535D01*
X102420002Y-102425638D01*
X102412000Y-102455501D01*
X102412000Y-102544499D01*
X102416278Y-102560465D01*
X102435034Y-102630464D01*
X102475470Y-102700501D01*
X102488191Y-102760349D01*
X102475470Y-102799499D01*
X102435034Y-102869535D01*
X102422460Y-102916464D01*
X102412000Y-102955501D01*
X102412000Y-103044499D01*
X102435034Y-103130463D01*
X102479532Y-103207537D01*
X102542463Y-103270468D01*
X102619537Y-103314966D01*
X102705501Y-103338000D01*
X102705503Y-103338000D01*
X102794499Y-103338000D01*
X102799653Y-103336618D01*
X102833500Y-103333586D01*
X103300000Y-103372460D01*
X103300000Y-105100000D01*
X100325500Y-105100000D01*
X100325500Y-104903856D01*
X100344407Y-104845665D01*
X100375001Y-104818119D01*
X100380461Y-104814966D01*
X100380463Y-104814966D01*
X100457537Y-104770468D01*
X100520468Y-104707537D01*
X100564966Y-104630463D01*
X100588000Y-104544499D01*
X100588000Y-104455501D01*
X100564966Y-104369537D01*
X100520468Y-104292463D01*
X100457537Y-104229532D01*
X100380463Y-104185034D01*
X100294499Y-104162000D01*
X100205501Y-104162000D01*
X100179416Y-104168989D01*
X100171438Y-104171127D01*
X100145816Y-104174500D01*
X99854184Y-104174500D01*
X99828562Y-104171127D01*
X99820583Y-104168989D01*
X99794499Y-104162000D01*
X99705501Y-104162000D01*
X99619537Y-104185034D01*
X99542463Y-104229532D01*
X99479532Y-104292463D01*
X99435034Y-104369537D01*
X99412000Y-104455501D01*
X99412000Y-104544499D01*
X99435034Y-104630463D01*
X99479532Y-104707537D01*
X99542463Y-104770468D01*
X99619537Y-104814966D01*
X99619538Y-104814966D01*
X99624999Y-104818119D01*
X99665941Y-104863588D01*
X99674500Y-104903856D01*
X99674500Y-105100000D01*
X96700000Y-105100000D01*
X96700000Y-99900000D01*
X97474500Y-99900000D01*
X97474500Y-100274651D01*
G37*
%TD.AperFunction*%
%TA.AperFunction,Conductor*%
G36*
X103300000Y-100724500D02*
G01*
X103168788Y-100724500D01*
X103110597Y-100705593D01*
X103074633Y-100656093D01*
X103073161Y-100599877D01*
X103088000Y-100544499D01*
X103088000Y-100455501D01*
X103078873Y-100421437D01*
X103075500Y-100395815D01*
X103075500Y-100007024D01*
X103087333Y-99960088D01*
X103105778Y-99925834D01*
X103119688Y-99900000D01*
X103300000Y-99900000D01*
X103300000Y-100724500D01*
G37*
%TD.AperFunction*%
%TD*%
%TA.AperFunction,Conductor*%
%TO.N,/GND*%
G36*
X101863132Y-99734672D02*
G01*
X101931684Y-99803224D01*
X101943812Y-99808879D01*
X101988561Y-99850607D01*
X102000165Y-99900000D01*
X101583894Y-99900000D01*
X101575500Y-99925834D01*
X101594407Y-99867643D01*
X101604496Y-99855830D01*
X101649860Y-99810466D01*
X101649862Y-99810465D01*
X101710465Y-99749862D01*
X101710467Y-99749857D01*
X101710470Y-99749855D01*
X101714414Y-99744716D01*
X101716930Y-99746646D01*
X101752654Y-99714331D01*
X101813489Y-99707794D01*
X101863132Y-99734672D01*
G37*
%TD.AperFunction*%
%TA.AperFunction,Conductor*%
G36*
X106958691Y-94526907D02*
G01*
X106994655Y-94576407D01*
X106999500Y-94606999D01*
X106999500Y-94719861D01*
X106999501Y-94719864D01*
X107002414Y-94744990D01*
X107051500Y-94856157D01*
X107049126Y-94857205D01*
X107062537Y-94902757D01*
X107049477Y-94942949D01*
X107051500Y-94943843D01*
X107047794Y-94952234D01*
X107047794Y-94952235D01*
X107032507Y-94986858D01*
X107002414Y-95055011D01*
X106999500Y-95080130D01*
X106999500Y-95369859D01*
X106999501Y-95369864D01*
X107002414Y-95394990D01*
X107051500Y-95506157D01*
X107049126Y-95507205D01*
X107062537Y-95552757D01*
X107049477Y-95592949D01*
X107051500Y-95593843D01*
X107047794Y-95602234D01*
X107047794Y-95602235D01*
X107028401Y-95646157D01*
X107002414Y-95705011D01*
X106999500Y-95730130D01*
X106999500Y-96019859D01*
X106999501Y-96019864D01*
X107002414Y-96044990D01*
X107002415Y-96044992D01*
X107031345Y-96110511D01*
X107037554Y-96171381D01*
X107006798Y-96224275D01*
X106950826Y-96248989D01*
X106940781Y-96249500D01*
X98691690Y-96249500D01*
X98633499Y-96230593D01*
X98597535Y-96181093D01*
X98597535Y-96119907D01*
X98621686Y-96080496D01*
X100060186Y-94641996D01*
X100114703Y-94614219D01*
X100130190Y-94613000D01*
X102917079Y-94613000D01*
X102975270Y-94631907D01*
X102987076Y-94641990D01*
X103008086Y-94663000D01*
X103008088Y-94663001D01*
X103008090Y-94663003D01*
X103122210Y-94728890D01*
X103122208Y-94728890D01*
X103122212Y-94728891D01*
X103122214Y-94728892D01*
X103249508Y-94763000D01*
X103249510Y-94763000D01*
X103381290Y-94763000D01*
X103381292Y-94763000D01*
X103508586Y-94728892D01*
X103508588Y-94728890D01*
X103508590Y-94728890D01*
X103622709Y-94663003D01*
X103622709Y-94663002D01*
X103622714Y-94663000D01*
X103715900Y-94569814D01*
X103723010Y-94557498D01*
X103768481Y-94516558D01*
X103808746Y-94508000D01*
X106900500Y-94508000D01*
X106958691Y-94526907D01*
G37*
%TD.AperFunction*%
%TA.AperFunction,Conductor*%
G36*
X105634863Y-70844373D02*
G01*
X105637994Y-70844943D01*
X105948386Y-70906684D01*
X105951399Y-70907334D01*
X107566567Y-71283938D01*
X107570204Y-71284861D01*
X107740656Y-71331622D01*
X107853897Y-71362689D01*
X107856389Y-71363408D01*
X109477536Y-71855178D01*
X109481684Y-71856538D01*
X109686451Y-71928776D01*
X109688293Y-71929447D01*
X111333551Y-72548678D01*
X111334880Y-72549190D01*
X111363863Y-72560593D01*
X111367128Y-72561946D01*
X111395645Y-72574359D01*
X111396977Y-72574950D01*
X112998202Y-73300455D01*
X113000032Y-73301308D01*
X113195884Y-73395011D01*
X113199759Y-73396972D01*
X114693864Y-74195588D01*
X114696068Y-74196805D01*
X114876404Y-74299496D01*
X114951679Y-74342361D01*
X114954969Y-74344319D01*
X116363276Y-75220061D01*
X116365998Y-75221816D01*
X116377492Y-75229496D01*
X116629105Y-75397618D01*
X116631682Y-75399402D01*
X117979746Y-76365411D01*
X117982774Y-76367670D01*
X118215084Y-76548134D01*
X118217089Y-76549735D01*
X119519687Y-77618750D01*
X119526646Y-77624461D01*
X119529998Y-77627339D01*
X119691449Y-77772364D01*
X119692968Y-77773757D01*
X120976028Y-78975473D01*
X120977093Y-78976487D01*
X120999444Y-78998053D01*
X121001928Y-79000536D01*
X121015198Y-79014288D01*
X121023510Y-79022903D01*
X121024523Y-79023968D01*
X121317576Y-79336857D01*
X122190933Y-80269331D01*
X122226265Y-80307054D01*
X122227658Y-80308574D01*
X122372647Y-80469988D01*
X122375525Y-80473339D01*
X123450240Y-81782881D01*
X123451886Y-81784943D01*
X123494562Y-81839879D01*
X123632310Y-82017200D01*
X123634594Y-82020261D01*
X124578186Y-83337043D01*
X124600570Y-83368279D01*
X124602402Y-83370926D01*
X124629583Y-83411605D01*
X124778176Y-83633991D01*
X124779931Y-83636713D01*
X125655671Y-85045017D01*
X125657630Y-85048307D01*
X125803169Y-85303888D01*
X125804449Y-85306209D01*
X126603013Y-86800215D01*
X126605008Y-86804156D01*
X126698671Y-86999925D01*
X126699542Y-87001794D01*
X127425048Y-88603022D01*
X127425645Y-88604367D01*
X127438060Y-88632888D01*
X127439413Y-88636154D01*
X127450776Y-88665034D01*
X127451305Y-88666408D01*
X128070543Y-90311685D01*
X128071249Y-90313622D01*
X128143447Y-90518276D01*
X128144823Y-90522474D01*
X128636590Y-92143613D01*
X128637325Y-92146159D01*
X128715124Y-92429745D01*
X128716066Y-92433457D01*
X129092649Y-94048540D01*
X129093333Y-94051706D01*
X129155045Y-94361952D01*
X129155625Y-94365139D01*
X129425779Y-96001434D01*
X129426329Y-96005223D01*
X129462973Y-96296961D01*
X129463268Y-96299595D01*
X129629319Y-97985531D01*
X129629654Y-97989937D01*
X129641269Y-98206652D01*
X129641358Y-98208711D01*
X129698877Y-99965751D01*
X129698914Y-99967222D01*
X129699468Y-99998231D01*
X129699468Y-100001767D01*
X129698914Y-100032775D01*
X129698877Y-100034246D01*
X129641358Y-101791289D01*
X129641269Y-101793348D01*
X129629654Y-102010059D01*
X129629319Y-102014465D01*
X129463268Y-103700404D01*
X129462973Y-103703038D01*
X129426329Y-103994773D01*
X129425779Y-103998562D01*
X129155628Y-105634845D01*
X129155048Y-105638032D01*
X129093334Y-105948288D01*
X129092650Y-105951455D01*
X128716069Y-107566525D01*
X128715128Y-107570236D01*
X128637314Y-107853881D01*
X128636578Y-107856427D01*
X128144821Y-109477530D01*
X128143445Y-109481728D01*
X128071255Y-109686360D01*
X128070549Y-109688297D01*
X127451305Y-111333590D01*
X127450776Y-111334964D01*
X127439413Y-111363844D01*
X127438060Y-111367110D01*
X127425645Y-111395631D01*
X127425048Y-111396976D01*
X126699539Y-112998210D01*
X126698668Y-113000079D01*
X126605011Y-113195834D01*
X126603016Y-113199775D01*
X125804448Y-114693790D01*
X125803168Y-114696111D01*
X125657628Y-114951694D01*
X125655669Y-114954984D01*
X124779922Y-116363298D01*
X124778167Y-116366020D01*
X124602424Y-116629040D01*
X124600580Y-116631704D01*
X123634602Y-117979726D01*
X123632312Y-117982795D01*
X123451892Y-118215047D01*
X123450238Y-118217118D01*
X122375525Y-119526658D01*
X122372647Y-119530009D01*
X122227663Y-119691417D01*
X122226270Y-119692937D01*
X121024555Y-120975995D01*
X121023543Y-120977059D01*
X121001947Y-120999442D01*
X120999442Y-121001947D01*
X120977059Y-121023543D01*
X120975995Y-121024555D01*
X119692937Y-122226270D01*
X119691417Y-122227663D01*
X119530009Y-122372647D01*
X119526658Y-122375525D01*
X118217118Y-123450238D01*
X118215047Y-123451892D01*
X117982795Y-123632312D01*
X117979726Y-123634602D01*
X116631704Y-124600580D01*
X116629040Y-124602424D01*
X116366020Y-124778167D01*
X116363298Y-124779922D01*
X114954984Y-125655669D01*
X114951694Y-125657628D01*
X114696111Y-125803168D01*
X114693790Y-125804448D01*
X113199775Y-126603016D01*
X113195834Y-126605011D01*
X113000079Y-126698668D01*
X112998210Y-126699539D01*
X111396976Y-127425048D01*
X111395631Y-127425645D01*
X111367110Y-127438060D01*
X111363844Y-127439413D01*
X111334964Y-127450776D01*
X111333590Y-127451305D01*
X109688297Y-128070549D01*
X109686360Y-128071255D01*
X109481728Y-128143445D01*
X109477530Y-128144821D01*
X107856427Y-128636578D01*
X107853881Y-128637314D01*
X107570236Y-128715128D01*
X107566525Y-128716069D01*
X105951455Y-129092650D01*
X105948288Y-129093334D01*
X105638032Y-129155048D01*
X105634845Y-129155628D01*
X103998562Y-129425779D01*
X103994773Y-129426329D01*
X103703038Y-129462973D01*
X103700404Y-129463268D01*
X102014465Y-129629319D01*
X102010059Y-129629654D01*
X101793348Y-129641269D01*
X101791289Y-129641358D01*
X100034246Y-129698877D01*
X100032775Y-129698914D01*
X100001767Y-129699468D01*
X99998231Y-129699468D01*
X99967222Y-129698914D01*
X99965751Y-129698877D01*
X98208711Y-129641358D01*
X98206652Y-129641269D01*
X97989937Y-129629654D01*
X97985531Y-129629319D01*
X96299595Y-129463268D01*
X96296961Y-129462973D01*
X96005223Y-129426329D01*
X96001434Y-129425779D01*
X94365139Y-129155625D01*
X94361952Y-129155045D01*
X94051706Y-129093333D01*
X94048540Y-129092649D01*
X92433457Y-128716066D01*
X92429745Y-128715124D01*
X92146159Y-128637325D01*
X92143613Y-128636590D01*
X90522474Y-128144823D01*
X90518276Y-128143447D01*
X90313622Y-128071249D01*
X90311685Y-128070543D01*
X88666408Y-127451305D01*
X88665034Y-127450776D01*
X88636154Y-127439413D01*
X88632888Y-127438060D01*
X88604367Y-127425645D01*
X88603022Y-127425048D01*
X87001794Y-126699542D01*
X86999925Y-126698671D01*
X86804157Y-126605008D01*
X86800216Y-126603013D01*
X86601523Y-126496809D01*
X86445448Y-126413385D01*
X90899500Y-126413385D01*
X90899500Y-126586614D01*
X90926597Y-126757702D01*
X90926598Y-126757706D01*
X90980123Y-126922438D01*
X90980125Y-126922441D01*
X91027599Y-127015616D01*
X91058768Y-127076788D01*
X91160586Y-127216928D01*
X91283072Y-127339414D01*
X91423212Y-127441232D01*
X91577555Y-127519873D01*
X91577557Y-127519873D01*
X91577558Y-127519874D01*
X91577561Y-127519876D01*
X91742293Y-127573401D01*
X91742297Y-127573402D01*
X91913386Y-127600500D01*
X91913389Y-127600500D01*
X92086614Y-127600500D01*
X92257702Y-127573402D01*
X92257706Y-127573401D01*
X92422438Y-127519876D01*
X92422440Y-127519874D01*
X92422445Y-127519873D01*
X92576788Y-127441232D01*
X92716928Y-127339414D01*
X92839414Y-127216928D01*
X92941232Y-127076788D01*
X93019873Y-126922445D01*
X93019874Y-126922440D01*
X93019876Y-126922438D01*
X93073401Y-126757706D01*
X93073402Y-126757702D01*
X93100500Y-126586614D01*
X93100500Y-126413385D01*
X93073402Y-126242297D01*
X93073401Y-126242293D01*
X93019876Y-126077561D01*
X93019874Y-126077558D01*
X93019873Y-126077557D01*
X93019873Y-126077555D01*
X92941232Y-125923212D01*
X92839414Y-125783072D01*
X92716928Y-125660586D01*
X92576788Y-125558768D01*
X92576787Y-125558767D01*
X92576785Y-125558766D01*
X92422441Y-125480125D01*
X92422438Y-125480123D01*
X92257706Y-125426598D01*
X92257702Y-125426597D01*
X92086614Y-125399500D01*
X92086611Y-125399500D01*
X91913389Y-125399500D01*
X91913386Y-125399500D01*
X91742297Y-125426597D01*
X91742293Y-125426598D01*
X91577561Y-125480123D01*
X91577558Y-125480125D01*
X91423214Y-125558766D01*
X91283073Y-125660585D01*
X91160585Y-125783073D01*
X91058766Y-125923214D01*
X90980125Y-126077558D01*
X90980123Y-126077561D01*
X90926598Y-126242293D01*
X90926597Y-126242297D01*
X90899500Y-126413385D01*
X86445448Y-126413385D01*
X85306195Y-125804441D01*
X85303874Y-125803161D01*
X85048318Y-125657637D01*
X85045028Y-125655678D01*
X83636712Y-124779930D01*
X83633990Y-124778175D01*
X83442231Y-124650047D01*
X83370926Y-124602402D01*
X83368297Y-124600582D01*
X82020261Y-123634594D01*
X82017200Y-123632310D01*
X81784952Y-123451894D01*
X81784949Y-123451892D01*
X81784943Y-123451886D01*
X81782881Y-123450240D01*
X80473339Y-122375525D01*
X80469988Y-122372647D01*
X80308574Y-122227658D01*
X80307076Y-122226285D01*
X79596658Y-121560906D01*
X79023968Y-121024523D01*
X79022903Y-121023510D01*
X79014288Y-121015198D01*
X79000536Y-121001928D01*
X78998053Y-120999444D01*
X78976487Y-120977093D01*
X78975473Y-120976028D01*
X77773757Y-119692968D01*
X77772364Y-119691449D01*
X77627339Y-119529998D01*
X77624461Y-119526646D01*
X77540638Y-119424507D01*
X77134936Y-118930158D01*
X95719500Y-118930158D01*
X95719500Y-119069842D01*
X95754483Y-119200402D01*
X95755653Y-119204767D01*
X95755653Y-119204768D01*
X95825492Y-119325732D01*
X95825494Y-119325735D01*
X95924265Y-119424506D01*
X96045235Y-119494348D01*
X96180158Y-119530500D01*
X96180160Y-119530500D01*
X96319840Y-119530500D01*
X96319842Y-119530500D01*
X96454765Y-119494348D01*
X96575735Y-119424506D01*
X96674506Y-119325735D01*
X96744348Y-119204765D01*
X96780500Y-119069842D01*
X96780500Y-118930158D01*
X96744348Y-118795235D01*
X96674506Y-118674265D01*
X96575735Y-118575494D01*
X96492577Y-118527483D01*
X96454767Y-118505653D01*
X96454766Y-118505652D01*
X96454765Y-118505652D01*
X96319842Y-118469500D01*
X96180158Y-118469500D01*
X96045235Y-118505652D01*
X96045234Y-118505652D01*
X96045232Y-118505653D01*
X96045231Y-118505653D01*
X95924267Y-118575492D01*
X95825492Y-118674267D01*
X95755653Y-118795231D01*
X95755653Y-118795232D01*
X95755652Y-118795234D01*
X95755652Y-118795235D01*
X95719500Y-118930158D01*
X77134936Y-118930158D01*
X76549735Y-118217089D01*
X76548134Y-118215084D01*
X76367670Y-117982773D01*
X76365396Y-117979726D01*
X75399402Y-116631682D01*
X75397618Y-116629105D01*
X75221816Y-116365998D01*
X75220061Y-116363276D01*
X74344319Y-114954969D01*
X74342361Y-114951679D01*
X74272042Y-114828192D01*
X74196805Y-114696068D01*
X74195588Y-114693864D01*
X73396972Y-113199759D01*
X73395011Y-113195884D01*
X73301308Y-113000033D01*
X73300447Y-112998182D01*
X73133468Y-112629652D01*
X73133467Y-112629651D01*
X73131670Y-112625686D01*
X87586443Y-112625686D01*
X87644742Y-112664641D01*
X87781229Y-112721176D01*
X87781235Y-112721178D01*
X87926128Y-112749999D01*
X87926132Y-112750000D01*
X88073868Y-112750000D01*
X88073871Y-112749999D01*
X88218764Y-112721178D01*
X88218770Y-112721176D01*
X88355255Y-112664642D01*
X88413554Y-112625687D01*
X87999999Y-112212132D01*
X87586443Y-112625686D01*
X73131670Y-112625686D01*
X72814705Y-111926128D01*
X87250000Y-111926128D01*
X87250000Y-112073871D01*
X87278821Y-112218764D01*
X87278823Y-112218770D01*
X87335358Y-112355256D01*
X87374311Y-112413554D01*
X87787867Y-112000000D01*
X87787866Y-111999999D01*
X88212132Y-111999999D01*
X88625687Y-112413554D01*
X88664642Y-112355255D01*
X88721176Y-112218770D01*
X88721178Y-112218764D01*
X88749999Y-112073871D01*
X88750000Y-112073867D01*
X88750000Y-111926132D01*
X88749999Y-111926128D01*
X88721178Y-111781235D01*
X88721176Y-111781229D01*
X88664641Y-111644742D01*
X88625686Y-111586443D01*
X88212132Y-111999999D01*
X87787866Y-111999999D01*
X87374311Y-111586444D01*
X87335358Y-111644742D01*
X87278823Y-111781229D01*
X87278821Y-111781235D01*
X87250000Y-111926128D01*
X72814705Y-111926128D01*
X72749055Y-111781235D01*
X72599911Y-111452066D01*
X72599909Y-111452064D01*
X72574956Y-111396991D01*
X72574359Y-111395645D01*
X72565073Y-111374311D01*
X87586444Y-111374311D01*
X88000000Y-111787867D01*
X88413555Y-111374312D01*
X88355256Y-111335358D01*
X88218770Y-111278823D01*
X88218764Y-111278821D01*
X88073871Y-111250000D01*
X87926128Y-111250000D01*
X87781235Y-111278821D01*
X87781229Y-111278823D01*
X87644742Y-111335358D01*
X87586444Y-111374311D01*
X72565073Y-111374311D01*
X72561946Y-111367128D01*
X72560593Y-111363863D01*
X72549199Y-111334904D01*
X72548670Y-111333530D01*
X72528079Y-111278821D01*
X72422159Y-110997399D01*
X88744500Y-110997399D01*
X88744500Y-111122601D01*
X88776905Y-111243536D01*
X88839505Y-111351964D01*
X88928036Y-111440495D01*
X89036464Y-111503095D01*
X89157399Y-111535500D01*
X89157401Y-111535500D01*
X89282599Y-111535500D01*
X89282601Y-111535500D01*
X89403536Y-111503095D01*
X89511964Y-111440495D01*
X89600495Y-111351964D01*
X89663095Y-111243536D01*
X89695500Y-111122601D01*
X89695500Y-110997399D01*
X89663095Y-110876464D01*
X89600495Y-110768036D01*
X89511964Y-110679505D01*
X89403536Y-110616905D01*
X89282601Y-110584500D01*
X89157399Y-110584500D01*
X89076775Y-110606103D01*
X89036463Y-110616905D01*
X88928036Y-110679505D01*
X88839505Y-110768036D01*
X88776905Y-110876463D01*
X88776905Y-110876464D01*
X88744500Y-110997399D01*
X72422159Y-110997399D01*
X71991886Y-109854190D01*
X87310151Y-109854190D01*
X87310151Y-109979392D01*
X87342556Y-110100327D01*
X87405156Y-110208755D01*
X87493687Y-110297286D01*
X87602115Y-110359886D01*
X87723050Y-110392291D01*
X87723052Y-110392291D01*
X87848252Y-110392291D01*
X87901346Y-110378064D01*
X87962446Y-110381265D01*
X88009996Y-110419769D01*
X88012691Y-110424166D01*
X88034344Y-110461670D01*
X88122875Y-110550201D01*
X88231303Y-110612801D01*
X88352238Y-110645206D01*
X88352240Y-110645206D01*
X88477438Y-110645206D01*
X88477440Y-110645206D01*
X88598375Y-110612801D01*
X88706803Y-110550201D01*
X88795334Y-110461670D01*
X88857934Y-110353242D01*
X88890339Y-110232307D01*
X88890339Y-110107105D01*
X88857934Y-109986170D01*
X88795334Y-109877742D01*
X88706803Y-109789211D01*
X88598375Y-109726611D01*
X88477440Y-109694206D01*
X88352238Y-109694206D01*
X88352237Y-109694206D01*
X88299142Y-109708432D01*
X88238040Y-109705229D01*
X88190491Y-109666723D01*
X88187792Y-109662319D01*
X88166146Y-109624827D01*
X88077615Y-109536296D01*
X87969187Y-109473696D01*
X87848252Y-109441291D01*
X87723050Y-109441291D01*
X87642426Y-109462894D01*
X87602114Y-109473696D01*
X87493687Y-109536296D01*
X87405156Y-109624827D01*
X87342556Y-109733254D01*
X87342556Y-109733255D01*
X87310151Y-109854190D01*
X71991886Y-109854190D01*
X71929447Y-109688293D01*
X71928776Y-109686451D01*
X71856538Y-109481684D01*
X71855177Y-109477530D01*
X71527721Y-108398055D01*
X87066428Y-108398055D01*
X87066428Y-108523257D01*
X87098833Y-108644192D01*
X87161433Y-108752620D01*
X87249964Y-108841151D01*
X87358392Y-108903751D01*
X87479327Y-108936156D01*
X87479329Y-108936156D01*
X87604527Y-108936156D01*
X87604529Y-108936156D01*
X87725464Y-108903751D01*
X87833892Y-108841151D01*
X87922423Y-108752620D01*
X87964477Y-108679779D01*
X88009944Y-108638840D01*
X88070794Y-108632443D01*
X88123782Y-108663035D01*
X88145838Y-108703656D01*
X88163704Y-108770333D01*
X88163705Y-108770334D01*
X88163706Y-108770337D01*
X88226306Y-108878765D01*
X88314837Y-108967296D01*
X88423265Y-109029896D01*
X88544200Y-109062301D01*
X88544202Y-109062301D01*
X88669400Y-109062301D01*
X88669402Y-109062301D01*
X88790337Y-109029896D01*
X88898765Y-108967296D01*
X88987296Y-108878765D01*
X89049896Y-108770337D01*
X89082301Y-108649402D01*
X89082301Y-108649393D01*
X89082643Y-108646799D01*
X89083453Y-108645100D01*
X89083980Y-108643134D01*
X89084344Y-108643231D01*
X89108980Y-108591572D01*
X89162749Y-108562373D01*
X89223411Y-108570355D01*
X89266533Y-108610213D01*
X89319505Y-108701964D01*
X89408036Y-108790495D01*
X89516464Y-108853095D01*
X89637399Y-108885500D01*
X89637401Y-108885500D01*
X89762599Y-108885500D01*
X89762601Y-108885500D01*
X89883536Y-108853095D01*
X89991964Y-108790495D01*
X90080495Y-108701964D01*
X90143095Y-108593536D01*
X90175500Y-108472601D01*
X90175500Y-108347399D01*
X90143095Y-108226464D01*
X90080495Y-108118036D01*
X89991964Y-108029505D01*
X89883536Y-107966905D01*
X89762601Y-107934500D01*
X89637399Y-107934500D01*
X89556775Y-107956103D01*
X89516463Y-107966905D01*
X89408036Y-108029505D01*
X89319505Y-108118036D01*
X89256905Y-108226463D01*
X89224498Y-108347408D01*
X89224155Y-108350013D01*
X89223345Y-108351710D01*
X89222821Y-108353667D01*
X89222458Y-108353569D01*
X89197812Y-108405237D01*
X89144039Y-108434429D01*
X89083378Y-108426440D01*
X89040267Y-108386587D01*
X88987296Y-108294837D01*
X88898765Y-108206306D01*
X88790337Y-108143706D01*
X88669402Y-108111301D01*
X88544200Y-108111301D01*
X88463576Y-108132904D01*
X88423264Y-108143706D01*
X88314837Y-108206306D01*
X88226304Y-108294839D01*
X88184252Y-108367676D01*
X88138783Y-108408617D01*
X88077933Y-108415013D01*
X88024945Y-108384420D01*
X88002890Y-108343802D01*
X87985023Y-108277120D01*
X87922423Y-108168692D01*
X87833892Y-108080161D01*
X87725464Y-108017561D01*
X87604529Y-107985156D01*
X87479327Y-107985156D01*
X87398703Y-108006759D01*
X87358391Y-108017561D01*
X87249964Y-108080161D01*
X87161433Y-108168692D01*
X87098833Y-108277119D01*
X87098833Y-108277120D01*
X87066428Y-108398055D01*
X71527721Y-108398055D01*
X71363408Y-107856389D01*
X71362689Y-107853897D01*
X71284865Y-107570217D01*
X71283938Y-107566567D01*
X70907334Y-105951399D01*
X70906684Y-105948386D01*
X70844943Y-105637994D01*
X70844370Y-105634845D01*
X70789006Y-105299508D01*
X89758200Y-105299508D01*
X89758200Y-105431292D01*
X89778763Y-105508036D01*
X89792309Y-105558590D01*
X89858196Y-105672709D01*
X89858198Y-105672711D01*
X89858200Y-105672714D01*
X89915805Y-105730319D01*
X89943581Y-105784834D01*
X89944800Y-105800321D01*
X89944800Y-107354273D01*
X89944800Y-107459727D01*
X89953492Y-107492166D01*
X89972094Y-107561592D01*
X90024816Y-107652908D01*
X90024818Y-107652910D01*
X90024820Y-107652913D01*
X91232105Y-108860198D01*
X91259881Y-108914713D01*
X91261100Y-108930200D01*
X91261100Y-114620873D01*
X91261100Y-114726327D01*
X91285170Y-114816159D01*
X91288394Y-114828192D01*
X91341116Y-114919508D01*
X91341117Y-114919509D01*
X91341118Y-114919510D01*
X91341120Y-114919513D01*
X91915916Y-115494309D01*
X91941538Y-115538689D01*
X91956903Y-115596032D01*
X91956904Y-115596033D01*
X91956905Y-115596036D01*
X92019505Y-115704464D01*
X92108036Y-115792995D01*
X92216464Y-115855595D01*
X92337399Y-115888000D01*
X92337401Y-115888000D01*
X92462599Y-115888000D01*
X92462601Y-115888000D01*
X92583536Y-115855595D01*
X92635208Y-115825762D01*
X92684706Y-115812500D01*
X94521599Y-115812500D01*
X94579790Y-115831407D01*
X94591603Y-115841496D01*
X96771518Y-118021410D01*
X96771520Y-118021413D01*
X96846087Y-118095980D01*
X96891750Y-118122343D01*
X96937412Y-118148707D01*
X97039273Y-118176001D01*
X97039275Y-118176001D01*
X97150790Y-118176001D01*
X97150806Y-118176000D01*
X98050500Y-118176000D01*
X98108691Y-118194907D01*
X98144655Y-118244407D01*
X98149500Y-118275000D01*
X98149500Y-120716159D01*
X98136237Y-120765658D01*
X98106906Y-120816461D01*
X98106905Y-120816463D01*
X98106905Y-120816464D01*
X98074500Y-120937399D01*
X98074500Y-121062601D01*
X98106905Y-121183536D01*
X98169505Y-121291964D01*
X98258036Y-121380495D01*
X98366464Y-121443095D01*
X98487399Y-121475500D01*
X98487401Y-121475500D01*
X98612599Y-121475500D01*
X98612601Y-121475500D01*
X98733536Y-121443095D01*
X98841964Y-121380495D01*
X98930495Y-121291964D01*
X98993095Y-121183536D01*
X99025500Y-121062601D01*
X99025500Y-120937399D01*
X98993095Y-120816464D01*
X98963763Y-120765658D01*
X98960496Y-120750290D01*
X98952650Y-120736679D01*
X98950500Y-120716159D01*
X98950500Y-117802574D01*
X98950500Y-117802573D01*
X98923207Y-117700713D01*
X98923207Y-117700712D01*
X98923207Y-117700711D01*
X98883964Y-117632741D01*
X98870700Y-117583241D01*
X98870700Y-117475399D01*
X98889607Y-117417208D01*
X98899684Y-117405407D01*
X99031757Y-117273334D01*
X99086272Y-117245559D01*
X99146704Y-117255130D01*
X99187495Y-117293840D01*
X99209505Y-117331963D01*
X99260505Y-117382963D01*
X99288281Y-117437478D01*
X99289500Y-117452965D01*
X99289500Y-120458757D01*
X99289498Y-120459380D01*
X99289256Y-120497714D01*
X99289335Y-120498310D01*
X99289412Y-120498912D01*
X99289487Y-120499514D01*
X99299416Y-120536569D01*
X99299574Y-120537169D01*
X99309264Y-120574261D01*
X99309507Y-120574848D01*
X99309736Y-120575406D01*
X99309958Y-120575953D01*
X99329134Y-120609167D01*
X99329444Y-120609708D01*
X99348406Y-120643036D01*
X99348726Y-120643452D01*
X99349120Y-120643968D01*
X99349503Y-120644474D01*
X99376701Y-120671672D01*
X99377139Y-120672114D01*
X99875942Y-121177231D01*
X99903377Y-121231920D01*
X99904500Y-121246792D01*
X99904500Y-121322601D01*
X99936905Y-121443536D01*
X99999505Y-121551964D01*
X100088036Y-121640495D01*
X100196464Y-121703095D01*
X100317399Y-121735500D01*
X100317401Y-121735500D01*
X100442599Y-121735500D01*
X100442601Y-121735500D01*
X100563536Y-121703095D01*
X100671964Y-121640495D01*
X100675060Y-121637399D01*
X116924500Y-121637399D01*
X116924500Y-121762601D01*
X116956905Y-121883536D01*
X117019505Y-121991964D01*
X117108036Y-122080495D01*
X117216464Y-122143095D01*
X117337399Y-122175500D01*
X117337401Y-122175500D01*
X117462599Y-122175500D01*
X117462601Y-122175500D01*
X117583536Y-122143095D01*
X117691964Y-122080495D01*
X117780495Y-121991964D01*
X117843095Y-121883536D01*
X117875500Y-121762601D01*
X117875500Y-121637399D01*
X117843095Y-121516464D01*
X117780495Y-121408036D01*
X117691964Y-121319505D01*
X117583536Y-121256905D01*
X117462601Y-121224500D01*
X117337399Y-121224500D01*
X117256775Y-121246103D01*
X117216463Y-121256905D01*
X117108036Y-121319505D01*
X117019505Y-121408036D01*
X116956905Y-121516463D01*
X116956905Y-121516464D01*
X116924500Y-121637399D01*
X100675060Y-121637399D01*
X100760495Y-121551964D01*
X100823095Y-121443536D01*
X100855500Y-121322601D01*
X100855500Y-121197399D01*
X100823095Y-121076464D01*
X100760495Y-120968036D01*
X100671964Y-120879505D01*
X100563536Y-120816905D01*
X100442601Y-120784500D01*
X100442599Y-120784500D01*
X100374140Y-120784500D01*
X100315949Y-120765593D01*
X100303697Y-120755062D01*
X99919057Y-120365552D01*
X99891623Y-120310862D01*
X99890500Y-120295990D01*
X99890500Y-118922259D01*
X102949500Y-118922259D01*
X102949500Y-119077741D01*
X102989742Y-119227924D01*
X102989743Y-119227926D01*
X102989744Y-119227929D01*
X103067479Y-119362570D01*
X103067481Y-119362572D01*
X103067483Y-119362575D01*
X103177425Y-119472517D01*
X103177427Y-119472518D01*
X103177429Y-119472520D01*
X103312070Y-119550255D01*
X103312071Y-119550255D01*
X103312076Y-119550258D01*
X103462259Y-119590500D01*
X103462261Y-119590500D01*
X104037739Y-119590500D01*
X104037741Y-119590500D01*
X104187924Y-119550258D01*
X104322575Y-119472517D01*
X104432517Y-119362575D01*
X104510258Y-119227924D01*
X104550500Y-119077741D01*
X104550500Y-118922259D01*
X104510258Y-118772076D01*
X104446879Y-118662301D01*
X112456577Y-118662301D01*
X112456577Y-118787503D01*
X112488982Y-118908438D01*
X112551582Y-119016866D01*
X112640113Y-119105397D01*
X112748541Y-119167997D01*
X112869476Y-119200402D01*
X112869478Y-119200402D01*
X112994676Y-119200402D01*
X112994678Y-119200402D01*
X113115613Y-119167997D01*
X113224041Y-119105397D01*
X113312572Y-119016866D01*
X113375172Y-118908438D01*
X113407577Y-118787503D01*
X113407577Y-118662301D01*
X113375172Y-118541366D01*
X113312572Y-118432938D01*
X113224041Y-118344407D01*
X113115613Y-118281807D01*
X112994678Y-118249402D01*
X112869476Y-118249402D01*
X112788852Y-118271005D01*
X112748540Y-118281807D01*
X112640113Y-118344407D01*
X112551582Y-118432938D01*
X112488982Y-118541365D01*
X112488982Y-118541366D01*
X112456577Y-118662301D01*
X104446879Y-118662301D01*
X104432517Y-118637425D01*
X104322575Y-118527483D01*
X104322572Y-118527481D01*
X104322570Y-118527479D01*
X104187929Y-118449744D01*
X104187926Y-118449743D01*
X104187924Y-118449742D01*
X104037741Y-118409500D01*
X103462259Y-118409500D01*
X103312076Y-118449742D01*
X103312074Y-118449742D01*
X103312070Y-118449744D01*
X103177429Y-118527479D01*
X103067479Y-118637429D01*
X102989744Y-118772070D01*
X102989742Y-118772074D01*
X102989742Y-118772076D01*
X102949500Y-118922259D01*
X99890500Y-118922259D01*
X99890500Y-117452965D01*
X99909407Y-117394774D01*
X99919490Y-117382967D01*
X99970495Y-117331963D01*
X100033095Y-117223535D01*
X100065500Y-117102600D01*
X100065500Y-116977398D01*
X100045196Y-116901623D01*
X100048397Y-116840523D01*
X100086902Y-116792972D01*
X100140822Y-116777000D01*
X100619599Y-116777000D01*
X100677790Y-116795907D01*
X100689603Y-116805996D01*
X100966098Y-117082491D01*
X100991720Y-117126871D01*
X101006902Y-117183532D01*
X101006903Y-117183533D01*
X101006904Y-117183536D01*
X101069504Y-117291964D01*
X101158035Y-117380495D01*
X101266463Y-117443095D01*
X101387398Y-117475500D01*
X101387400Y-117475500D01*
X101512598Y-117475500D01*
X101512600Y-117475500D01*
X101633535Y-117443095D01*
X101741963Y-117380495D01*
X101830494Y-117291964D01*
X101893094Y-117183536D01*
X101925499Y-117062601D01*
X101925499Y-116937399D01*
X101893094Y-116816464D01*
X101830494Y-116708036D01*
X101741963Y-116619505D01*
X101633535Y-116556905D01*
X101633532Y-116556904D01*
X101633531Y-116556903D01*
X101576871Y-116541721D01*
X101532493Y-116516100D01*
X101153792Y-116137399D01*
X120074500Y-116137399D01*
X120074500Y-116262601D01*
X120106905Y-116383536D01*
X120169505Y-116491964D01*
X120258036Y-116580495D01*
X120366464Y-116643095D01*
X120487399Y-116675500D01*
X120487401Y-116675500D01*
X120612599Y-116675500D01*
X120612601Y-116675500D01*
X120733536Y-116643095D01*
X120841964Y-116580495D01*
X120930495Y-116491964D01*
X120993095Y-116383536D01*
X121025500Y-116262601D01*
X121025500Y-116137399D01*
X120993095Y-116016464D01*
X120930495Y-115908036D01*
X120841964Y-115819505D01*
X120733536Y-115756905D01*
X120612601Y-115724500D01*
X120487399Y-115724500D01*
X120406775Y-115746103D01*
X120366463Y-115756905D01*
X120258036Y-115819505D01*
X120169505Y-115908036D01*
X120106905Y-116016463D01*
X120106905Y-116016464D01*
X120074500Y-116137399D01*
X101153792Y-116137399D01*
X101072413Y-116056020D01*
X101072410Y-116056018D01*
X101072408Y-116056016D01*
X100981091Y-116003294D01*
X100981093Y-116003294D01*
X100941570Y-115992704D01*
X100879227Y-115976000D01*
X99309473Y-115976000D01*
X99207613Y-116003293D01*
X99207612Y-116003293D01*
X99207610Y-116003294D01*
X99207609Y-116003294D01*
X99116289Y-116056018D01*
X98149716Y-117022591D01*
X98096994Y-117113908D01*
X98096992Y-117113912D01*
X98086093Y-117154586D01*
X98086094Y-117154587D01*
X98069700Y-117215773D01*
X98069700Y-117276000D01*
X98050793Y-117334191D01*
X98001293Y-117370155D01*
X97970700Y-117375000D01*
X97298900Y-117375000D01*
X97240709Y-117356093D01*
X97228896Y-117346004D01*
X96145490Y-116262598D01*
X94974413Y-115091520D01*
X94974410Y-115091518D01*
X94974408Y-115091516D01*
X94883091Y-115038794D01*
X94883093Y-115038794D01*
X94843570Y-115028204D01*
X94781227Y-115011500D01*
X94781225Y-115011500D01*
X92682974Y-115011500D01*
X92633476Y-114998237D01*
X92583536Y-114969405D01*
X92583533Y-114969404D01*
X92583532Y-114969403D01*
X92527555Y-114954404D01*
X92483175Y-114928782D01*
X92091096Y-114536703D01*
X92063319Y-114482186D01*
X92062100Y-114466699D01*
X92062100Y-108670574D01*
X92056427Y-108649401D01*
X92034807Y-108568713D01*
X92009107Y-108524200D01*
X91982080Y-108477387D01*
X91907513Y-108402819D01*
X91907513Y-108402820D01*
X91258443Y-107753750D01*
X91230666Y-107699233D01*
X91240237Y-107638801D01*
X91278946Y-107598010D01*
X91291964Y-107590495D01*
X91380495Y-107501964D01*
X91443095Y-107393536D01*
X91475500Y-107272601D01*
X91475500Y-107147399D01*
X91443095Y-107026464D01*
X91380495Y-106918036D01*
X91291964Y-106829505D01*
X91183536Y-106766905D01*
X91062601Y-106734500D01*
X90937399Y-106734500D01*
X90913331Y-106740949D01*
X90870423Y-106752446D01*
X90809321Y-106749243D01*
X90761771Y-106710738D01*
X90745800Y-106656819D01*
X90745800Y-105494335D01*
X90749173Y-105468712D01*
X90759200Y-105431291D01*
X90759200Y-105299509D01*
X90759200Y-105299508D01*
X90745861Y-105249725D01*
X91503732Y-105249725D01*
X91503732Y-105374927D01*
X91536137Y-105495862D01*
X91598737Y-105604290D01*
X91687268Y-105692821D01*
X91795696Y-105755421D01*
X91916631Y-105787826D01*
X91916633Y-105787826D01*
X92041831Y-105787826D01*
X92041833Y-105787826D01*
X92162768Y-105755421D01*
X92271196Y-105692821D01*
X92359727Y-105604290D01*
X92422327Y-105495862D01*
X92454732Y-105374927D01*
X92454732Y-105249725D01*
X92422327Y-105128790D01*
X92359727Y-105020362D01*
X92271196Y-104931831D01*
X92162768Y-104869231D01*
X92041833Y-104836826D01*
X91916631Y-104836826D01*
X91836007Y-104858429D01*
X91795695Y-104869231D01*
X91687268Y-104931831D01*
X91598737Y-105020362D01*
X91536137Y-105128789D01*
X91536137Y-105128790D01*
X91503732Y-105249725D01*
X90745861Y-105249725D01*
X90725092Y-105172214D01*
X90725090Y-105172211D01*
X90725090Y-105172209D01*
X90659203Y-105058090D01*
X90659201Y-105058088D01*
X90659200Y-105058086D01*
X90566014Y-104964900D01*
X90566011Y-104964898D01*
X90566009Y-104964896D01*
X90451889Y-104899009D01*
X90451891Y-104899009D01*
X90402499Y-104885775D01*
X90324592Y-104864900D01*
X90192808Y-104864900D01*
X90114900Y-104885775D01*
X90065509Y-104899009D01*
X89951390Y-104964896D01*
X89858196Y-105058090D01*
X89792309Y-105172209D01*
X89792308Y-105172214D01*
X89758200Y-105299508D01*
X70789006Y-105299508D01*
X70575677Y-104007399D01*
X84724500Y-104007399D01*
X84724500Y-104132601D01*
X84756905Y-104253536D01*
X84819505Y-104361964D01*
X84908036Y-104450495D01*
X85016464Y-104513095D01*
X85137399Y-104545500D01*
X85137401Y-104545500D01*
X85262599Y-104545500D01*
X85262601Y-104545500D01*
X85383536Y-104513095D01*
X85491964Y-104450495D01*
X85580495Y-104361964D01*
X85643095Y-104253536D01*
X85675500Y-104132601D01*
X85675500Y-104007399D01*
X85643095Y-103886464D01*
X85580495Y-103778036D01*
X85491964Y-103689505D01*
X85383536Y-103626905D01*
X85262601Y-103594500D01*
X85137399Y-103594500D01*
X85056775Y-103616103D01*
X85016463Y-103626905D01*
X84908036Y-103689505D01*
X84819505Y-103778036D01*
X84756905Y-103886463D01*
X84756905Y-103886464D01*
X84724500Y-104007399D01*
X70575677Y-104007399D01*
X70574214Y-103998537D01*
X70573681Y-103994868D01*
X70537010Y-103702910D01*
X70536736Y-103700464D01*
X70370678Y-102014448D01*
X70370349Y-102010123D01*
X70358720Y-101793177D01*
X70358642Y-101791363D01*
X70301120Y-100034231D01*
X70301097Y-100032875D01*
X70301086Y-100032842D01*
X70300531Y-100001736D01*
X70300531Y-99998263D01*
X70300869Y-99979308D01*
X91924900Y-99979308D01*
X91924900Y-100111092D01*
X91954979Y-100223351D01*
X91959009Y-100238390D01*
X92024896Y-100352509D01*
X92024898Y-100352511D01*
X92024900Y-100352514D01*
X92118086Y-100445700D01*
X92118088Y-100445701D01*
X92118090Y-100445703D01*
X92232210Y-100511590D01*
X92232208Y-100511590D01*
X92232212Y-100511591D01*
X92232214Y-100511592D01*
X92359508Y-100545700D01*
X92359510Y-100545700D01*
X92491290Y-100545700D01*
X92491292Y-100545700D01*
X92618586Y-100511592D01*
X92618588Y-100511590D01*
X92618590Y-100511590D01*
X92732709Y-100445703D01*
X92732709Y-100445702D01*
X92732714Y-100445700D01*
X92825900Y-100352514D01*
X92862963Y-100288319D01*
X92891790Y-100238390D01*
X92891790Y-100238388D01*
X92891792Y-100238386D01*
X92925900Y-100111092D01*
X92925900Y-99979308D01*
X92891792Y-99852014D01*
X92891790Y-99852011D01*
X92891790Y-99852009D01*
X92825903Y-99737890D01*
X92825901Y-99737888D01*
X92825900Y-99737886D01*
X92732714Y-99644700D01*
X92732711Y-99644698D01*
X92731496Y-99643483D01*
X92703719Y-99588966D01*
X92702500Y-99573479D01*
X92702500Y-87637438D01*
X92721407Y-87579247D01*
X92770907Y-87543283D01*
X92832093Y-87543283D01*
X92871501Y-87567432D01*
X92905221Y-87601152D01*
X93013649Y-87663752D01*
X93134584Y-87696157D01*
X93134586Y-87696157D01*
X93259784Y-87696157D01*
X93259786Y-87696157D01*
X93380721Y-87663752D01*
X93489149Y-87601152D01*
X93524698Y-87565602D01*
X93579213Y-87537827D01*
X93639645Y-87547398D01*
X93682910Y-87590663D01*
X93693700Y-87635608D01*
X93693700Y-107476679D01*
X93674793Y-107534870D01*
X93664704Y-107546683D01*
X93661888Y-107549498D01*
X93661886Y-107549500D01*
X93613378Y-107598008D01*
X93568697Y-107642689D01*
X93568696Y-107642690D01*
X93502809Y-107756809D01*
X93502808Y-107756814D01*
X93468700Y-107884108D01*
X93468700Y-108015892D01*
X93472348Y-108029505D01*
X93502809Y-108143190D01*
X93568696Y-108257309D01*
X93568698Y-108257311D01*
X93568700Y-108257314D01*
X93661886Y-108350500D01*
X93661888Y-108350501D01*
X93661890Y-108350503D01*
X93776010Y-108416390D01*
X93776008Y-108416390D01*
X93776012Y-108416391D01*
X93776014Y-108416392D01*
X93903308Y-108450500D01*
X93903310Y-108450500D01*
X94035090Y-108450500D01*
X94035092Y-108450500D01*
X94162386Y-108416392D01*
X94162388Y-108416390D01*
X94162390Y-108416390D01*
X94276509Y-108350503D01*
X94276509Y-108350502D01*
X94276514Y-108350500D01*
X94369700Y-108257314D01*
X94435592Y-108143186D01*
X94469700Y-108015892D01*
X94469700Y-107913385D01*
X120899500Y-107913385D01*
X120899500Y-108086614D01*
X120926597Y-108257702D01*
X120926598Y-108257706D01*
X120980123Y-108422438D01*
X120980125Y-108422441D01*
X121054653Y-108568713D01*
X121058768Y-108576788D01*
X121160586Y-108716928D01*
X121283072Y-108839414D01*
X121423212Y-108941232D01*
X121577555Y-109019873D01*
X121577557Y-109019873D01*
X121577558Y-109019874D01*
X121577561Y-109019876D01*
X121742293Y-109073401D01*
X121742297Y-109073402D01*
X121913386Y-109100500D01*
X121913389Y-109100500D01*
X122086614Y-109100500D01*
X122257702Y-109073402D01*
X122257706Y-109073401D01*
X122422438Y-109019876D01*
X122422440Y-109019874D01*
X122422445Y-109019873D01*
X122576788Y-108941232D01*
X122716928Y-108839414D01*
X122839414Y-108716928D01*
X122941232Y-108576788D01*
X123019873Y-108422445D01*
X123019874Y-108422440D01*
X123019876Y-108422438D01*
X123073401Y-108257706D01*
X123073402Y-108257702D01*
X123100500Y-108086614D01*
X123100500Y-107913385D01*
X123073402Y-107742297D01*
X123073401Y-107742293D01*
X123019876Y-107577561D01*
X123019874Y-107577558D01*
X123019873Y-107577557D01*
X123019873Y-107577555D01*
X122941232Y-107423212D01*
X122839414Y-107283072D01*
X122716928Y-107160586D01*
X122576788Y-107058768D01*
X122576787Y-107058767D01*
X122576785Y-107058766D01*
X122422441Y-106980125D01*
X122422438Y-106980123D01*
X122257706Y-106926598D01*
X122257702Y-106926597D01*
X122086614Y-106899500D01*
X122086611Y-106899500D01*
X121913389Y-106899500D01*
X121913386Y-106899500D01*
X121742297Y-106926597D01*
X121742293Y-106926598D01*
X121577561Y-106980123D01*
X121577558Y-106980125D01*
X121423214Y-107058766D01*
X121283073Y-107160585D01*
X121160585Y-107283073D01*
X121058766Y-107423214D01*
X120980125Y-107577558D01*
X120980123Y-107577561D01*
X120926598Y-107742293D01*
X120926597Y-107742297D01*
X120899500Y-107913385D01*
X94469700Y-107913385D01*
X94469700Y-107884108D01*
X94435592Y-107756814D01*
X94435590Y-107756811D01*
X94435590Y-107756809D01*
X94369703Y-107642690D01*
X94369701Y-107642688D01*
X94369700Y-107642686D01*
X94276514Y-107549500D01*
X94276511Y-107549498D01*
X94273696Y-107546683D01*
X94245919Y-107492166D01*
X94244700Y-107476679D01*
X94244700Y-99900000D01*
X96700000Y-99900000D01*
X96700000Y-105100000D01*
X99674500Y-105100000D01*
X99674500Y-105412033D01*
X99655593Y-105470224D01*
X99645505Y-105482035D01*
X99619507Y-105508033D01*
X99556905Y-105616463D01*
X99556905Y-105616464D01*
X99524500Y-105737399D01*
X99524500Y-105862601D01*
X99556905Y-105983536D01*
X99619505Y-106091964D01*
X99708036Y-106180495D01*
X99816464Y-106243095D01*
X99937399Y-106275500D01*
X99937401Y-106275500D01*
X100062599Y-106275500D01*
X100062601Y-106275500D01*
X100183536Y-106243095D01*
X100291964Y-106180495D01*
X100380495Y-106091964D01*
X100443095Y-105983536D01*
X100475500Y-105862601D01*
X100475500Y-105737399D01*
X100443095Y-105616464D01*
X100380495Y-105508036D01*
X100368321Y-105495862D01*
X100354495Y-105482035D01*
X100326719Y-105427518D01*
X100325500Y-105412033D01*
X100325500Y-105100000D01*
X103300000Y-105100000D01*
X103300000Y-103810751D01*
X109774500Y-103810751D01*
X109774500Y-104389248D01*
X109790049Y-104487419D01*
X109790050Y-104487423D01*
X109803131Y-104513095D01*
X109850342Y-104605751D01*
X109944249Y-104699658D01*
X109957945Y-104706636D01*
X110001209Y-104749898D01*
X110012000Y-104794845D01*
X110012000Y-106847273D01*
X110012000Y-106952727D01*
X110031758Y-107026464D01*
X110039294Y-107054589D01*
X110039294Y-107054590D01*
X110061578Y-107093186D01*
X110092020Y-107145913D01*
X110166587Y-107220480D01*
X110257913Y-107273207D01*
X110359773Y-107300500D01*
X112566160Y-107300500D01*
X112615658Y-107313763D01*
X112706814Y-107366392D01*
X112834108Y-107400500D01*
X112834110Y-107400500D01*
X112965890Y-107400500D01*
X112965892Y-107400500D01*
X113093186Y-107366392D01*
X113093188Y-107366390D01*
X113093190Y-107366390D01*
X113207309Y-107300503D01*
X113207309Y-107300502D01*
X113207314Y-107300500D01*
X113300500Y-107207314D01*
X113300503Y-107207309D01*
X113366390Y-107093190D01*
X113366390Y-107093188D01*
X113366392Y-107093186D01*
X113400500Y-106965892D01*
X113400500Y-106834108D01*
X113366392Y-106706814D01*
X113366390Y-106706811D01*
X113366390Y-106706809D01*
X113300503Y-106592690D01*
X113300501Y-106592688D01*
X113300500Y-106592686D01*
X113207314Y-106499500D01*
X113207311Y-106499498D01*
X113207309Y-106499496D01*
X113093189Y-106433609D01*
X113093191Y-106433609D01*
X113043799Y-106420375D01*
X112965892Y-106399500D01*
X112834108Y-106399500D01*
X112706814Y-106433608D01*
X112706813Y-106433608D01*
X112706811Y-106433609D01*
X112658750Y-106461357D01*
X112615658Y-106486236D01*
X112566160Y-106499500D01*
X110912000Y-106499500D01*
X110853809Y-106480593D01*
X110817845Y-106431093D01*
X110813000Y-106400500D01*
X110813000Y-104794845D01*
X110831907Y-104736654D01*
X110867052Y-104706637D01*
X110880751Y-104699658D01*
X110974658Y-104605751D01*
X111034951Y-104487420D01*
X111050500Y-104389246D01*
X111050500Y-103810754D01*
X111034951Y-103712580D01*
X110974658Y-103594249D01*
X110880751Y-103500342D01*
X110876631Y-103498243D01*
X110762423Y-103440050D01*
X110762420Y-103440049D01*
X110737876Y-103436161D01*
X110664249Y-103424500D01*
X110664246Y-103424500D01*
X110160754Y-103424500D01*
X110160751Y-103424500D01*
X110062580Y-103440049D01*
X110062576Y-103440050D01*
X109944250Y-103500341D01*
X109850341Y-103594250D01*
X109790050Y-103712576D01*
X109790049Y-103712580D01*
X109774500Y-103810751D01*
X103300000Y-103810751D01*
X103300000Y-103372460D01*
X103536588Y-103392176D01*
X103593008Y-103415850D01*
X103598370Y-103420830D01*
X103645427Y-103467886D01*
X103658036Y-103480495D01*
X103766464Y-103543095D01*
X103887399Y-103575500D01*
X103887401Y-103575500D01*
X104012599Y-103575500D01*
X104012601Y-103575500D01*
X104133536Y-103543095D01*
X104241964Y-103480495D01*
X104330495Y-103391964D01*
X104393095Y-103283536D01*
X104425500Y-103162601D01*
X104425500Y-103037399D01*
X104393095Y-102916464D01*
X104330495Y-102808036D01*
X104316960Y-102794501D01*
X104289185Y-102739987D01*
X104298756Y-102679555D01*
X104342021Y-102636290D01*
X104386966Y-102625500D01*
X104562033Y-102625500D01*
X104620224Y-102644407D01*
X104632035Y-102654495D01*
X104657096Y-102679555D01*
X104658036Y-102680495D01*
X104766464Y-102743095D01*
X104887399Y-102775500D01*
X104887401Y-102775500D01*
X105012599Y-102775500D01*
X105012601Y-102775500D01*
X105133536Y-102743095D01*
X105241964Y-102680495D01*
X105330495Y-102591964D01*
X105393095Y-102483536D01*
X105425500Y-102362601D01*
X105425500Y-102350001D01*
X106500001Y-102350001D01*
X106500001Y-102454203D01*
X106502850Y-102484600D01*
X106502850Y-102484602D01*
X106547654Y-102612647D01*
X106628207Y-102721790D01*
X106628209Y-102721792D01*
X106737352Y-102802345D01*
X106865398Y-102847149D01*
X106895789Y-102849999D01*
X107050000Y-102849999D01*
X107050000Y-102350001D01*
X107049999Y-102350000D01*
X106500002Y-102350000D01*
X106500001Y-102350001D01*
X105425500Y-102350001D01*
X105425500Y-102237399D01*
X105393095Y-102116464D01*
X105330495Y-102008036D01*
X105241964Y-101919505D01*
X105133536Y-101856905D01*
X105012601Y-101824500D01*
X104887399Y-101824500D01*
X104811240Y-101844907D01*
X104766463Y-101856905D01*
X104658033Y-101919507D01*
X104632035Y-101945505D01*
X104577518Y-101973281D01*
X104562033Y-101974500D01*
X104386966Y-101974500D01*
X104328775Y-101955593D01*
X104292811Y-101906093D01*
X104292811Y-101844907D01*
X104316960Y-101805498D01*
X104330495Y-101791964D01*
X104393095Y-101683536D01*
X104422221Y-101574836D01*
X104455544Y-101523524D01*
X104512666Y-101501598D01*
X104559684Y-101510737D01*
X104566827Y-101514068D01*
X104615684Y-101520500D01*
X104615685Y-101520500D01*
X104964314Y-101520500D01*
X104964316Y-101520500D01*
X105013173Y-101514068D01*
X105120404Y-101464065D01*
X105204065Y-101380404D01*
X105210275Y-101367085D01*
X105252003Y-101322337D01*
X105312064Y-101310662D01*
X105367517Y-101336519D01*
X105389724Y-101367084D01*
X105395935Y-101380404D01*
X105479596Y-101464065D01*
X105479597Y-101464065D01*
X105479598Y-101464066D01*
X105586824Y-101514067D01*
X105586825Y-101514067D01*
X105586827Y-101514068D01*
X105635684Y-101520500D01*
X105635685Y-101520500D01*
X105984314Y-101520500D01*
X105984316Y-101520500D01*
X106033173Y-101514068D01*
X106140404Y-101464065D01*
X106224065Y-101380404D01*
X106228815Y-101370216D01*
X106270539Y-101325468D01*
X106325641Y-101313308D01*
X106470780Y-101323749D01*
X106527462Y-101346783D01*
X106559781Y-101398736D01*
X106561455Y-101407006D01*
X106564352Y-101425300D01*
X106564354Y-101425304D01*
X106621950Y-101538342D01*
X106621951Y-101538343D01*
X106621953Y-101538345D01*
X106625012Y-101541405D01*
X106652786Y-101595923D01*
X106643211Y-101656354D01*
X106632000Y-101671787D01*
X106632613Y-101672240D01*
X106547654Y-101787352D01*
X106502850Y-101915398D01*
X106500000Y-101945788D01*
X106500000Y-102049999D01*
X106500001Y-102050000D01*
X107101000Y-102050000D01*
X107159191Y-102068907D01*
X107195155Y-102118407D01*
X107200000Y-102149000D01*
X107200000Y-102199999D01*
X107200001Y-102200000D01*
X107251000Y-102200000D01*
X107309191Y-102218907D01*
X107345155Y-102268407D01*
X107350000Y-102299000D01*
X107350000Y-102849998D01*
X107350001Y-102849999D01*
X107504203Y-102849999D01*
X107534600Y-102847149D01*
X107534602Y-102847149D01*
X107662647Y-102802345D01*
X107771790Y-102721792D01*
X107771795Y-102721787D01*
X107849802Y-102616092D01*
X107899569Y-102580499D01*
X107960753Y-102580957D01*
X108009983Y-102617290D01*
X108017665Y-102629932D01*
X108021950Y-102638342D01*
X108111658Y-102728050D01*
X108224696Y-102785646D01*
X108318481Y-102800500D01*
X108881518Y-102800499D01*
X108881520Y-102800499D01*
X108881521Y-102800498D01*
X108932260Y-102792463D01*
X108975299Y-102785647D01*
X108975299Y-102785646D01*
X108975304Y-102785646D01*
X109088342Y-102728050D01*
X109178050Y-102638342D01*
X109230933Y-102534554D01*
X109274197Y-102491290D01*
X109319142Y-102480500D01*
X109417952Y-102480500D01*
X109476143Y-102499407D01*
X109487955Y-102509496D01*
X109513014Y-102534554D01*
X109531684Y-102553224D01*
X109640513Y-102603972D01*
X109690099Y-102610500D01*
X110109900Y-102610499D01*
X110159487Y-102603972D01*
X110159488Y-102603972D01*
X110240034Y-102566412D01*
X110268316Y-102553224D01*
X110296236Y-102525304D01*
X110312045Y-102509496D01*
X110366562Y-102481719D01*
X110382048Y-102480500D01*
X110517952Y-102480500D01*
X110576143Y-102499407D01*
X110587955Y-102509496D01*
X110613014Y-102534554D01*
X110631684Y-102553224D01*
X110740513Y-102603972D01*
X110790099Y-102610500D01*
X110943808Y-102610499D01*
X111001999Y-102629406D01*
X111013813Y-102639495D01*
X111608004Y-103233686D01*
X111635781Y-103288203D01*
X111637000Y-103303690D01*
X111637000Y-103379677D01*
X111618093Y-103437868D01*
X111582946Y-103467886D01*
X111519251Y-103500340D01*
X111425341Y-103594250D01*
X111365050Y-103712576D01*
X111365049Y-103712580D01*
X111349500Y-103810751D01*
X111349500Y-104389248D01*
X111365049Y-104487419D01*
X111365050Y-104487423D01*
X111378131Y-104513095D01*
X111425342Y-104605751D01*
X111519249Y-104699658D01*
X111637580Y-104759951D01*
X111703983Y-104770468D01*
X111735751Y-104775500D01*
X111735754Y-104775500D01*
X112239249Y-104775500D01*
X112271017Y-104770468D01*
X112337420Y-104759951D01*
X112455751Y-104699658D01*
X112549658Y-104605751D01*
X112609951Y-104487420D01*
X112625500Y-104389246D01*
X112625500Y-103810754D01*
X112609951Y-103712580D01*
X112549658Y-103594249D01*
X112455751Y-103500342D01*
X112455748Y-103500340D01*
X112455749Y-103500340D01*
X112392054Y-103467886D01*
X112348790Y-103424621D01*
X112338000Y-103379677D01*
X112338000Y-103071357D01*
X112338000Y-103071356D01*
X112314114Y-102982212D01*
X112298692Y-102955501D01*
X112267970Y-102902288D01*
X111577529Y-102211847D01*
X112786448Y-102211847D01*
X112786448Y-102337049D01*
X112818853Y-102457984D01*
X112881453Y-102566412D01*
X112969984Y-102654943D01*
X113078412Y-102717543D01*
X113199347Y-102749948D01*
X113199349Y-102749948D01*
X113324547Y-102749948D01*
X113324549Y-102749948D01*
X113445484Y-102717543D01*
X113553912Y-102654943D01*
X113642443Y-102566412D01*
X113705043Y-102457984D01*
X113737448Y-102337049D01*
X113737448Y-102211847D01*
X113705043Y-102090912D01*
X113642443Y-101982484D01*
X113553912Y-101893953D01*
X113445484Y-101831353D01*
X113324549Y-101798948D01*
X113199347Y-101798948D01*
X113118723Y-101820551D01*
X113078411Y-101831353D01*
X112969984Y-101893953D01*
X112881453Y-101982484D01*
X112818853Y-102090911D01*
X112812006Y-102116464D01*
X112786448Y-102211847D01*
X111577529Y-102211847D01*
X111539495Y-102173813D01*
X111511718Y-102119296D01*
X111510499Y-102103809D01*
X111510499Y-101950103D01*
X111510498Y-101950092D01*
X111503972Y-101900513D01*
X111503972Y-101900511D01*
X111453225Y-101791686D01*
X111453224Y-101791685D01*
X111453224Y-101791684D01*
X111416542Y-101755002D01*
X111388767Y-101700488D01*
X111398338Y-101640056D01*
X111416544Y-101614997D01*
X111489450Y-101542090D01*
X111489451Y-101542088D01*
X111545533Y-101432022D01*
X111545534Y-101432021D01*
X111560000Y-101340692D01*
X111560000Y-101320001D01*
X111559999Y-101320000D01*
X109999000Y-101320000D01*
X109940809Y-101301093D01*
X109904845Y-101251593D01*
X109900000Y-101221000D01*
X109900000Y-101170001D01*
X109899999Y-101170000D01*
X109849000Y-101170000D01*
X109790809Y-101151093D01*
X109754845Y-101101593D01*
X109750000Y-101071000D01*
X109750000Y-100640001D01*
X110050000Y-100640001D01*
X110050000Y-101019999D01*
X110050001Y-101020000D01*
X110849999Y-101020000D01*
X110850000Y-101019999D01*
X110850000Y-100640001D01*
X111150000Y-100640001D01*
X111150000Y-101019999D01*
X111150001Y-101020000D01*
X111559998Y-101020000D01*
X111559999Y-101019999D01*
X111559999Y-100999306D01*
X111545536Y-100907984D01*
X111545534Y-100907977D01*
X111489451Y-100797911D01*
X111489450Y-100797909D01*
X111402090Y-100710549D01*
X111402088Y-100710548D01*
X111292022Y-100654466D01*
X111292021Y-100654465D01*
X111200693Y-100640000D01*
X111150001Y-100640000D01*
X111150000Y-100640001D01*
X110850000Y-100640001D01*
X110850000Y-100639999D01*
X110799307Y-100640000D01*
X110799305Y-100640001D01*
X110707984Y-100654463D01*
X110707977Y-100654465D01*
X110597911Y-100710548D01*
X110597909Y-100710549D01*
X110520004Y-100788455D01*
X110465487Y-100816232D01*
X110405055Y-100806661D01*
X110379996Y-100788455D01*
X110302090Y-100710549D01*
X110302088Y-100710548D01*
X110192022Y-100654466D01*
X110192021Y-100654465D01*
X110100693Y-100640000D01*
X110050001Y-100640000D01*
X110050000Y-100640001D01*
X109750000Y-100640001D01*
X109750000Y-100639999D01*
X109699307Y-100640000D01*
X109699305Y-100640001D01*
X109607984Y-100654463D01*
X109607977Y-100654465D01*
X109497911Y-100710548D01*
X109497909Y-100710549D01*
X109410547Y-100797911D01*
X109409110Y-100799890D01*
X109407132Y-100801326D01*
X109405042Y-100803417D01*
X109404710Y-100803085D01*
X109359609Y-100835852D01*
X109298424Y-100835851D01*
X109248925Y-100799886D01*
X109239536Y-100781459D01*
X109239184Y-100781639D01*
X109202961Y-100710548D01*
X109178050Y-100661658D01*
X109088342Y-100571950D01*
X108975304Y-100514354D01*
X108975305Y-100514354D01*
X108881522Y-100499500D01*
X108318479Y-100499500D01*
X108318476Y-100499501D01*
X108224700Y-100514352D01*
X108224695Y-100514354D01*
X108111659Y-100571949D01*
X108021949Y-100661659D01*
X107988209Y-100727878D01*
X107944944Y-100771142D01*
X107884512Y-100780713D01*
X107829996Y-100752935D01*
X107811791Y-100727878D01*
X107778977Y-100663478D01*
X107778050Y-100661658D01*
X107688342Y-100571950D01*
X107575304Y-100514354D01*
X107575305Y-100514354D01*
X107481522Y-100499500D01*
X106918479Y-100499500D01*
X106918476Y-100499501D01*
X106824700Y-100514352D01*
X106824695Y-100514354D01*
X106711659Y-100571949D01*
X106621949Y-100661659D01*
X106592515Y-100719427D01*
X106549250Y-100762691D01*
X106497202Y-100773226D01*
X106346742Y-100762402D01*
X106290058Y-100739368D01*
X106264122Y-100705497D01*
X106224066Y-100619598D01*
X106224065Y-100619597D01*
X106224065Y-100619596D01*
X106140404Y-100535935D01*
X106140402Y-100535934D01*
X106140401Y-100535933D01*
X106033175Y-100485932D01*
X106000601Y-100481644D01*
X105984316Y-100479500D01*
X105635684Y-100479500D01*
X105619398Y-100481644D01*
X105586825Y-100485932D01*
X105586824Y-100485932D01*
X105479598Y-100535933D01*
X105395933Y-100619598D01*
X105389724Y-100632915D01*
X105347995Y-100677663D01*
X105287934Y-100689337D01*
X105232482Y-100663478D01*
X105210276Y-100632915D01*
X105204066Y-100619598D01*
X105204065Y-100619597D01*
X105204065Y-100619596D01*
X105120404Y-100535935D01*
X105120402Y-100535934D01*
X105120401Y-100535933D01*
X105013175Y-100485932D01*
X104980601Y-100481644D01*
X104964316Y-100479500D01*
X104615684Y-100479500D01*
X104599398Y-100481644D01*
X104566825Y-100485932D01*
X104566824Y-100485932D01*
X104459598Y-100535933D01*
X104375933Y-100619598D01*
X104353671Y-100667340D01*
X104311942Y-100712088D01*
X104263947Y-100724500D01*
X103300000Y-100724500D01*
X103300000Y-99900000D01*
X103119688Y-99900000D01*
X103105778Y-99925834D01*
X103091470Y-99952405D01*
X103201995Y-99747142D01*
X103246230Y-99704873D01*
X103263540Y-99698453D01*
X103283530Y-99693097D01*
X103283532Y-99693096D01*
X103283531Y-99693096D01*
X103283536Y-99693095D01*
X103391964Y-99630495D01*
X103480495Y-99541964D01*
X103543095Y-99433536D01*
X103575500Y-99312601D01*
X103575500Y-99275000D01*
X106952446Y-99275000D01*
X106959912Y-99326250D01*
X107011214Y-99431188D01*
X107093812Y-99513786D01*
X107198751Y-99565087D01*
X107266784Y-99574999D01*
X107787498Y-99574999D01*
X107787500Y-99574998D01*
X107787500Y-99275001D01*
X108087500Y-99275001D01*
X108087500Y-99574998D01*
X108087501Y-99574999D01*
X108608213Y-99574999D01*
X108608216Y-99574998D01*
X108676250Y-99565087D01*
X108781188Y-99513785D01*
X108863786Y-99431187D01*
X108915087Y-99326248D01*
X108922554Y-99275000D01*
X112677446Y-99275000D01*
X112684912Y-99326250D01*
X112736214Y-99431188D01*
X112818812Y-99513786D01*
X112923751Y-99565087D01*
X112991784Y-99574999D01*
X113512498Y-99574999D01*
X113512500Y-99574998D01*
X113512500Y-99275001D01*
X113812500Y-99275001D01*
X113812500Y-99574998D01*
X113812501Y-99574999D01*
X114333213Y-99574999D01*
X114333216Y-99574998D01*
X114401250Y-99565087D01*
X114506188Y-99513785D01*
X114588786Y-99431187D01*
X114640087Y-99326248D01*
X114647554Y-99275000D01*
X113812501Y-99275000D01*
X113812500Y-99275001D01*
X113512500Y-99275001D01*
X113512499Y-99275000D01*
X112677446Y-99275000D01*
X108922554Y-99275000D01*
X108087501Y-99275000D01*
X108087500Y-99275001D01*
X107787500Y-99275001D01*
X107787499Y-99275000D01*
X106952446Y-99275000D01*
X103575500Y-99275000D01*
X103575500Y-99187399D01*
X103543095Y-99066464D01*
X103490289Y-98975000D01*
X106952446Y-98975000D01*
X107787499Y-98975000D01*
X107787500Y-98974999D01*
X107787500Y-98625001D01*
X108087500Y-98625001D01*
X108087500Y-98974999D01*
X108087501Y-98975000D01*
X108922553Y-98975000D01*
X108915086Y-98923746D01*
X108875846Y-98843480D01*
X108867274Y-98782898D01*
X108875846Y-98756518D01*
X108915087Y-98676249D01*
X108922554Y-98625000D01*
X108087501Y-98625000D01*
X108087500Y-98625001D01*
X107787500Y-98625001D01*
X107787499Y-98625000D01*
X106952446Y-98625000D01*
X106959912Y-98676250D01*
X106999154Y-98756519D01*
X107007725Y-98817101D01*
X106999154Y-98843480D01*
X106959912Y-98923751D01*
X106952446Y-98975000D01*
X103490289Y-98975000D01*
X103480495Y-98958036D01*
X103391964Y-98869505D01*
X103283536Y-98806905D01*
X103162601Y-98774500D01*
X103037399Y-98774500D01*
X103014351Y-98780675D01*
X102968986Y-98792831D01*
X102907884Y-98789628D01*
X102860334Y-98751123D01*
X102844499Y-98692022D01*
X102845582Y-98681716D01*
X102860000Y-98590692D01*
X102860000Y-98570001D01*
X102859999Y-98570000D01*
X102399000Y-98570000D01*
X102340809Y-98551093D01*
X102304845Y-98501593D01*
X102300000Y-98471000D01*
X102300000Y-98420001D01*
X102299999Y-98420000D01*
X102249000Y-98420000D01*
X102190809Y-98401093D01*
X102154845Y-98351593D01*
X102150633Y-98325000D01*
X106952446Y-98325000D01*
X107787499Y-98325000D01*
X107787500Y-98324999D01*
X107787500Y-97975001D01*
X108087500Y-97975001D01*
X108087500Y-98324999D01*
X108087501Y-98325000D01*
X108922553Y-98325000D01*
X108915086Y-98273746D01*
X108875846Y-98193480D01*
X108867274Y-98132898D01*
X108875846Y-98106518D01*
X108915087Y-98026249D01*
X108922554Y-97975000D01*
X108087501Y-97975000D01*
X108087500Y-97975001D01*
X107787500Y-97975001D01*
X107787499Y-97975000D01*
X106952446Y-97975000D01*
X106959912Y-98026250D01*
X106999154Y-98106519D01*
X107007725Y-98167101D01*
X106999154Y-98193480D01*
X106959912Y-98273751D01*
X106952446Y-98325000D01*
X102150633Y-98325000D01*
X102150000Y-98321000D01*
X102150000Y-97890001D01*
X102450000Y-97890001D01*
X102450000Y-98269999D01*
X102450001Y-98270000D01*
X102859998Y-98270000D01*
X102859999Y-98269999D01*
X102859999Y-98249306D01*
X102845536Y-98157984D01*
X102845534Y-98157977D01*
X102789451Y-98047911D01*
X102789450Y-98047909D01*
X102702090Y-97960549D01*
X102702088Y-97960548D01*
X102592022Y-97904466D01*
X102592021Y-97904465D01*
X102500693Y-97890000D01*
X102450001Y-97890000D01*
X102450000Y-97890001D01*
X102150000Y-97890001D01*
X102150000Y-97889999D01*
X102099307Y-97890000D01*
X102099305Y-97890001D01*
X102007984Y-97904463D01*
X102007977Y-97904465D01*
X101897911Y-97960548D01*
X101897905Y-97960552D01*
X101825468Y-98032989D01*
X101770951Y-98060766D01*
X101710519Y-98051194D01*
X101705966Y-98048722D01*
X101704561Y-98047911D01*
X101633536Y-98006905D01*
X101512601Y-97974500D01*
X101387399Y-97974500D01*
X101310938Y-97994988D01*
X101266463Y-98006905D01*
X101158036Y-98069505D01*
X101069505Y-98158036D01*
X101006905Y-98266463D01*
X101004954Y-98273746D01*
X100974500Y-98387399D01*
X100974500Y-98512601D01*
X101006905Y-98633536D01*
X101006906Y-98633538D01*
X101019242Y-98654905D01*
X101031963Y-98714754D01*
X101007075Y-98770649D01*
X100954087Y-98801241D01*
X100907882Y-98800031D01*
X100812601Y-98774500D01*
X100782870Y-98774500D01*
X100724679Y-98755593D01*
X100688715Y-98706093D01*
X100688715Y-98644907D01*
X100691405Y-98637617D01*
X100693092Y-98633542D01*
X100693092Y-98633540D01*
X100693095Y-98633536D01*
X100725500Y-98512601D01*
X100725500Y-98387399D01*
X100693095Y-98266464D01*
X100630495Y-98158036D01*
X100541964Y-98069505D01*
X100433536Y-98006905D01*
X100312601Y-97974500D01*
X100187399Y-97974500D01*
X100110938Y-97994988D01*
X100066463Y-98006905D01*
X99958036Y-98069505D01*
X99869505Y-98158036D01*
X99806905Y-98266463D01*
X99804954Y-98273746D01*
X99774500Y-98387399D01*
X99774500Y-98512601D01*
X99803242Y-98619864D01*
X99806907Y-98633542D01*
X99808595Y-98637617D01*
X99813394Y-98698614D01*
X99781423Y-98750782D01*
X99724894Y-98774195D01*
X99717130Y-98774500D01*
X99687399Y-98774500D01*
X99650122Y-98784488D01*
X99589021Y-98781285D01*
X99541471Y-98742780D01*
X99525500Y-98688861D01*
X99525500Y-97549500D01*
X99544407Y-97491309D01*
X99593907Y-97455345D01*
X99624500Y-97450500D01*
X106886014Y-97450500D01*
X106944205Y-97469407D01*
X106980169Y-97518907D01*
X106980169Y-97580093D01*
X106974955Y-97592979D01*
X106959912Y-97623749D01*
X106952446Y-97675000D01*
X108922553Y-97675000D01*
X108915087Y-97623749D01*
X108863785Y-97518810D01*
X108859019Y-97512135D01*
X108860313Y-97511211D01*
X108836824Y-97465110D01*
X108844040Y-97409638D01*
X108872585Y-97344991D01*
X108875500Y-97319865D01*
X108875499Y-97030136D01*
X108872585Y-97005009D01*
X108827206Y-96902235D01*
X108827205Y-96902234D01*
X108823500Y-96893843D01*
X108825875Y-96892794D01*
X108812462Y-96847261D01*
X108825526Y-96807051D01*
X108823500Y-96806157D01*
X108827204Y-96797766D01*
X108827206Y-96797765D01*
X108872585Y-96694991D01*
X108875500Y-96669865D01*
X108875499Y-96380136D01*
X108872585Y-96355009D01*
X108827206Y-96252235D01*
X108827205Y-96252234D01*
X108823500Y-96243843D01*
X108825875Y-96242794D01*
X108812462Y-96197261D01*
X108825526Y-96157051D01*
X108823500Y-96156157D01*
X108827204Y-96147766D01*
X108827206Y-96147765D01*
X108872585Y-96044991D01*
X108875500Y-96019865D01*
X108875499Y-95730136D01*
X108872585Y-95705009D01*
X108827206Y-95602235D01*
X108827205Y-95602234D01*
X108823500Y-95593843D01*
X108825875Y-95592794D01*
X108812462Y-95547261D01*
X108825526Y-95507051D01*
X108823500Y-95506157D01*
X108827204Y-95497766D01*
X108827206Y-95497765D01*
X108872585Y-95394991D01*
X108875500Y-95369865D01*
X108875499Y-95268521D01*
X108894406Y-95210331D01*
X108904489Y-95198524D01*
X109116157Y-94986858D01*
X109122069Y-94972585D01*
X109158100Y-94885600D01*
X109158100Y-94216500D01*
X109116157Y-94115242D01*
X109088639Y-94087724D01*
X109038658Y-94037742D01*
X109038658Y-94037743D01*
X108315461Y-93314546D01*
X108287684Y-93260029D01*
X108297255Y-93199597D01*
X108315460Y-93174540D01*
X108330000Y-93159999D01*
X108330000Y-92750001D01*
X108630000Y-92750001D01*
X108630000Y-93159998D01*
X108630001Y-93159999D01*
X108650693Y-93159999D01*
X108742015Y-93145536D01*
X108742022Y-93145534D01*
X108852088Y-93089451D01*
X108852090Y-93089450D01*
X108939450Y-93002090D01*
X108939451Y-93002088D01*
X108995533Y-92892022D01*
X108995534Y-92892021D01*
X109010000Y-92800692D01*
X109010000Y-92750001D01*
X109009999Y-92750000D01*
X108630001Y-92750000D01*
X108630000Y-92750001D01*
X108330000Y-92750001D01*
X108330000Y-92040001D01*
X108630000Y-92040001D01*
X108630000Y-92449999D01*
X108630001Y-92450000D01*
X109009998Y-92450000D01*
X109009999Y-92449999D01*
X109009999Y-92399306D01*
X108995536Y-92307984D01*
X108995534Y-92307977D01*
X108939451Y-92197911D01*
X108939450Y-92197909D01*
X108852090Y-92110549D01*
X108852088Y-92110548D01*
X108742022Y-92054466D01*
X108742021Y-92054465D01*
X108650693Y-92040000D01*
X108630001Y-92040000D01*
X108630000Y-92040001D01*
X108330000Y-92040001D01*
X108330000Y-92034020D01*
X108308433Y-91991695D01*
X108318003Y-91931263D01*
X108336208Y-91906205D01*
X108400500Y-91841914D01*
X108458014Y-91742297D01*
X108466390Y-91727790D01*
X108466390Y-91727788D01*
X108466392Y-91727786D01*
X108500500Y-91600492D01*
X108500500Y-91468708D01*
X108466392Y-91341414D01*
X108466390Y-91341411D01*
X108466390Y-91341409D01*
X108400503Y-91227290D01*
X108400501Y-91227288D01*
X108400500Y-91227286D01*
X108322415Y-91149201D01*
X108294640Y-91094687D01*
X108304211Y-91034255D01*
X108347476Y-90990990D01*
X108392421Y-90980200D01*
X111059300Y-90980200D01*
X111117491Y-90999107D01*
X111153455Y-91048607D01*
X111158300Y-91079200D01*
X111158300Y-95544900D01*
X111182050Y-95602235D01*
X111190479Y-95622585D01*
X111190479Y-95622586D01*
X111200242Y-95646157D01*
X112695504Y-97141420D01*
X112723281Y-97195937D01*
X112724500Y-97211423D01*
X112724500Y-97319861D01*
X112724501Y-97319864D01*
X112727414Y-97344990D01*
X112740007Y-97373509D01*
X112768588Y-97438240D01*
X112776500Y-97456157D01*
X112774126Y-97457205D01*
X112787537Y-97502757D01*
X112774477Y-97542949D01*
X112776500Y-97543843D01*
X112772794Y-97552234D01*
X112772794Y-97552235D01*
X112760494Y-97580093D01*
X112727414Y-97655011D01*
X112724500Y-97680130D01*
X112724500Y-97969859D01*
X112724501Y-97969864D01*
X112727414Y-97994990D01*
X112750781Y-98047911D01*
X112756457Y-98060766D01*
X112776500Y-98106157D01*
X112774126Y-98107205D01*
X112787537Y-98152757D01*
X112774477Y-98192949D01*
X112776500Y-98193843D01*
X112772794Y-98202234D01*
X112772794Y-98202235D01*
X112743318Y-98268993D01*
X112727414Y-98305011D01*
X112724500Y-98330130D01*
X112724500Y-98619859D01*
X112724501Y-98619864D01*
X112727414Y-98644990D01*
X112727415Y-98644992D01*
X112755958Y-98709637D01*
X112762166Y-98770506D01*
X112739902Y-98811365D01*
X112740981Y-98812135D01*
X112736213Y-98818812D01*
X112684912Y-98923751D01*
X112677446Y-98975000D01*
X114647553Y-98975000D01*
X114640087Y-98923749D01*
X114588785Y-98818810D01*
X114584019Y-98812135D01*
X114585313Y-98811211D01*
X114561824Y-98765110D01*
X114569041Y-98709637D01*
X114597585Y-98644991D01*
X114600500Y-98619865D01*
X114600499Y-98330136D01*
X114597585Y-98305009D01*
X114552206Y-98202235D01*
X114552205Y-98202234D01*
X114548500Y-98193843D01*
X114550875Y-98192794D01*
X114537462Y-98147261D01*
X114550526Y-98107051D01*
X114548500Y-98106157D01*
X114552204Y-98097766D01*
X114552206Y-98097765D01*
X114597585Y-97994991D01*
X114600500Y-97969865D01*
X114600499Y-97680136D01*
X114597585Y-97655009D01*
X114583782Y-97623749D01*
X114549001Y-97544976D01*
X114542792Y-97484107D01*
X114573548Y-97431213D01*
X114629520Y-97406499D01*
X114689329Y-97419404D01*
X114709569Y-97434984D01*
X115591204Y-98316619D01*
X115618981Y-98371136D01*
X115620200Y-98386623D01*
X115620200Y-99120200D01*
X115620200Y-99229800D01*
X115662143Y-99331058D01*
X115739642Y-99408557D01*
X115739643Y-99408557D01*
X115745731Y-99414645D01*
X115773508Y-99469162D01*
X115763937Y-99529594D01*
X115745731Y-99554653D01*
X114649881Y-100650504D01*
X114595364Y-100678281D01*
X114579877Y-100679500D01*
X114315684Y-100679500D01*
X114299398Y-100681644D01*
X114266825Y-100685932D01*
X114266824Y-100685932D01*
X114159598Y-100735933D01*
X114075933Y-100819598D01*
X114025932Y-100926824D01*
X114025932Y-100926825D01*
X114023004Y-100949069D01*
X114019500Y-100975684D01*
X114019500Y-101424316D01*
X114023606Y-101455502D01*
X114025932Y-101473174D01*
X114025932Y-101473175D01*
X114075933Y-101580401D01*
X114075934Y-101580402D01*
X114075935Y-101580404D01*
X114159596Y-101664065D01*
X114159597Y-101664065D01*
X114159598Y-101664066D01*
X114266824Y-101714067D01*
X114266825Y-101714067D01*
X114266827Y-101714068D01*
X114315684Y-101720500D01*
X114315685Y-101720500D01*
X114664314Y-101720500D01*
X114664316Y-101720500D01*
X114713173Y-101714068D01*
X114820404Y-101664065D01*
X114898652Y-101585816D01*
X114953166Y-101558040D01*
X115013599Y-101567611D01*
X115051722Y-101605734D01*
X115052568Y-101605131D01*
X115056185Y-101610197D01*
X115056863Y-101610875D01*
X115057314Y-101611779D01*
X115057333Y-101611805D01*
X115148192Y-101702664D01*
X115263625Y-101759096D01*
X115338462Y-101769999D01*
X115360000Y-101769998D01*
X115360000Y-101350001D01*
X115660000Y-101350001D01*
X115660000Y-101769998D01*
X115660001Y-101769999D01*
X115681535Y-101769999D01*
X115681538Y-101769998D01*
X115756375Y-101759096D01*
X115871807Y-101702664D01*
X115962664Y-101611807D01*
X116019096Y-101496374D01*
X116030000Y-101421537D01*
X116030000Y-101350001D01*
X116029999Y-101350000D01*
X115660001Y-101350000D01*
X115660000Y-101350001D01*
X115360000Y-101350001D01*
X115360000Y-101299000D01*
X115378907Y-101240809D01*
X115428407Y-101204845D01*
X115459000Y-101200000D01*
X115509999Y-101200000D01*
X115510000Y-101199999D01*
X115510000Y-101149000D01*
X115528907Y-101090809D01*
X115578407Y-101054845D01*
X115609000Y-101050000D01*
X116029998Y-101050000D01*
X116029999Y-101049999D01*
X116029999Y-100978464D01*
X116029998Y-100978461D01*
X116019096Y-100903624D01*
X115962664Y-100788192D01*
X115871807Y-100697335D01*
X115756374Y-100640903D01*
X115681528Y-100629998D01*
X115681216Y-100629976D01*
X115681128Y-100629940D01*
X115677996Y-100629484D01*
X115678108Y-100628710D01*
X115624547Y-100606905D01*
X115592262Y-100554930D01*
X115596693Y-100493905D01*
X115618377Y-100461237D01*
X116293957Y-99785658D01*
X116308784Y-99749862D01*
X116335900Y-99684400D01*
X116335900Y-99494723D01*
X116354807Y-99436532D01*
X116364896Y-99424719D01*
X116602216Y-99187399D01*
X116892614Y-98897000D01*
X116947129Y-98869225D01*
X116991367Y-98872273D01*
X116995666Y-98873577D01*
X116995672Y-98873580D01*
X117131007Y-98900500D01*
X117131008Y-98900500D01*
X117268992Y-98900500D01*
X117268993Y-98900500D01*
X117404328Y-98873580D01*
X117531811Y-98820775D01*
X117646542Y-98744114D01*
X117744114Y-98646542D01*
X117820775Y-98531811D01*
X117873580Y-98404328D01*
X117900500Y-98268993D01*
X117900500Y-98131007D01*
X117873580Y-97995672D01*
X117855978Y-97953177D01*
X117820777Y-97868193D01*
X117820771Y-97868182D01*
X117744114Y-97753458D01*
X117646541Y-97655885D01*
X117531817Y-97579228D01*
X117531806Y-97579222D01*
X117404328Y-97526420D01*
X117268995Y-97499500D01*
X117268993Y-97499500D01*
X117131007Y-97499500D01*
X117131004Y-97499500D01*
X116995672Y-97526420D01*
X116995670Y-97526420D01*
X116868193Y-97579222D01*
X116868182Y-97579228D01*
X116753458Y-97655885D01*
X116655885Y-97753458D01*
X116579228Y-97868182D01*
X116579222Y-97868193D01*
X116526420Y-97995670D01*
X116526420Y-97995672D01*
X116499500Y-98131004D01*
X116499500Y-98268995D01*
X116526421Y-98404333D01*
X116527731Y-98408652D01*
X116526526Y-98469825D01*
X116502997Y-98507385D01*
X116355479Y-98654905D01*
X116340204Y-98670180D01*
X116285687Y-98697957D01*
X116225255Y-98688386D01*
X116181990Y-98645121D01*
X116171200Y-98600176D01*
X116171200Y-98176700D01*
X116138504Y-98097764D01*
X116129258Y-98075443D01*
X116129257Y-98075442D01*
X116129257Y-98075441D01*
X114629494Y-96575679D01*
X114601718Y-96521163D01*
X114600499Y-96505676D01*
X114600499Y-96380139D01*
X114600499Y-96380136D01*
X114597585Y-96355009D01*
X114569040Y-96290362D01*
X114562833Y-96229493D01*
X114585100Y-96188636D01*
X114584019Y-96187865D01*
X114588786Y-96181187D01*
X114640087Y-96076248D01*
X114647554Y-96025000D01*
X113761500Y-96025000D01*
X113703309Y-96006093D01*
X113667345Y-95956593D01*
X113662500Y-95926000D01*
X113662500Y-95875001D01*
X113662499Y-95875000D01*
X113611500Y-95875000D01*
X113553309Y-95856093D01*
X113517345Y-95806593D01*
X113512500Y-95776000D01*
X113512500Y-95375001D01*
X113812500Y-95375001D01*
X113812500Y-95724999D01*
X113812501Y-95725000D01*
X114647553Y-95725000D01*
X114640086Y-95673746D01*
X114600846Y-95593480D01*
X114592274Y-95532898D01*
X114600846Y-95506518D01*
X114640087Y-95426249D01*
X114647554Y-95375000D01*
X113812501Y-95375000D01*
X113812500Y-95375001D01*
X113512500Y-95375001D01*
X113512500Y-95324000D01*
X113531407Y-95265809D01*
X113580907Y-95229845D01*
X113611500Y-95225000D01*
X113662499Y-95225000D01*
X113662500Y-95224999D01*
X113662500Y-95174000D01*
X113681407Y-95115809D01*
X113730907Y-95079845D01*
X113761500Y-95075000D01*
X114647553Y-95075000D01*
X114640087Y-95023749D01*
X114588785Y-94918810D01*
X114584019Y-94912135D01*
X114585313Y-94911211D01*
X114561824Y-94865110D01*
X114569040Y-94809638D01*
X114597585Y-94744991D01*
X114600500Y-94719865D01*
X114600499Y-94430136D01*
X114600311Y-94428517D01*
X114600384Y-94428155D01*
X114600334Y-94427287D01*
X114600499Y-94427277D01*
X114600507Y-94427277D01*
X114600561Y-94427273D01*
X114612380Y-94368536D01*
X114657402Y-94327103D01*
X114673014Y-94321478D01*
X114747742Y-94301455D01*
X114856170Y-94238855D01*
X114944701Y-94150324D01*
X115007301Y-94041896D01*
X115039706Y-93920961D01*
X115039706Y-93795759D01*
X115007301Y-93674824D01*
X114944701Y-93566396D01*
X114856170Y-93477865D01*
X114747742Y-93415265D01*
X114626807Y-93382860D01*
X114501605Y-93382860D01*
X114420981Y-93404463D01*
X114380669Y-93415265D01*
X114272242Y-93477865D01*
X114183711Y-93566396D01*
X114121109Y-93674827D01*
X114099613Y-93755049D01*
X114066288Y-93806362D01*
X114065584Y-93806928D01*
X113630139Y-94153004D01*
X113572820Y-94174408D01*
X113568542Y-94174500D01*
X113022900Y-94174500D01*
X112964709Y-94155593D01*
X112928745Y-94106093D01*
X112923900Y-94075500D01*
X112923900Y-92754657D01*
X112942807Y-92696466D01*
X112992307Y-92660502D01*
X113053493Y-92660502D01*
X113072393Y-92668916D01*
X113172121Y-92726494D01*
X113293056Y-92758899D01*
X113293058Y-92758899D01*
X113418257Y-92758899D01*
X113418258Y-92758899D01*
X113488692Y-92740025D01*
X113549790Y-92743226D01*
X113552202Y-92744188D01*
X113582580Y-92756772D01*
X113629105Y-92796510D01*
X113642845Y-92835313D01*
X113646027Y-92859487D01*
X113646027Y-92859488D01*
X113696774Y-92968313D01*
X113696775Y-92968314D01*
X113696776Y-92968316D01*
X113781684Y-93053224D01*
X113890513Y-93103972D01*
X113940099Y-93110500D01*
X114299900Y-93110499D01*
X114349487Y-93103972D01*
X114349488Y-93103972D01*
X114429717Y-93066560D01*
X114458316Y-93053224D01*
X114494997Y-93016542D01*
X114549512Y-92988767D01*
X114609944Y-92998338D01*
X114635003Y-93016544D01*
X114707909Y-93089450D01*
X114707911Y-93089451D01*
X114817977Y-93145533D01*
X114817979Y-93145534D01*
X114909305Y-93159999D01*
X114930000Y-93159998D01*
X114930000Y-92750001D01*
X115230000Y-92750001D01*
X115230000Y-93159998D01*
X115230001Y-93159999D01*
X115250693Y-93159999D01*
X115342015Y-93145536D01*
X115342022Y-93145534D01*
X115452088Y-93089451D01*
X115452090Y-93089450D01*
X115539450Y-93002090D01*
X115539451Y-93002088D01*
X115595533Y-92892022D01*
X115595534Y-92892021D01*
X115610000Y-92800692D01*
X115610000Y-92750001D01*
X115609999Y-92750000D01*
X115230001Y-92750000D01*
X115230000Y-92750001D01*
X114930000Y-92750001D01*
X114930000Y-92040001D01*
X115230000Y-92040001D01*
X115230000Y-92449999D01*
X115230001Y-92450000D01*
X115609998Y-92450000D01*
X115609999Y-92449999D01*
X115609999Y-92399306D01*
X115595536Y-92307984D01*
X115595534Y-92307977D01*
X115539451Y-92197911D01*
X115539450Y-92197909D01*
X115452090Y-92110549D01*
X115452088Y-92110548D01*
X115342022Y-92054466D01*
X115342021Y-92054465D01*
X115250693Y-92040000D01*
X115230001Y-92040000D01*
X115230000Y-92040001D01*
X114930000Y-92040001D01*
X114930000Y-92039999D01*
X114909307Y-92040000D01*
X114909303Y-92040001D01*
X114817984Y-92054463D01*
X114817977Y-92054465D01*
X114707911Y-92110548D01*
X114707909Y-92110549D01*
X114635003Y-92183456D01*
X114580486Y-92211233D01*
X114520054Y-92201662D01*
X114494998Y-92183458D01*
X114458316Y-92146776D01*
X114458314Y-92146775D01*
X114458313Y-92146774D01*
X114349489Y-92096029D01*
X114349488Y-92096028D01*
X114332958Y-92093852D01*
X114299901Y-92089500D01*
X114299899Y-92089500D01*
X113940104Y-92089500D01*
X113940092Y-92089501D01*
X113890516Y-92096027D01*
X113884663Y-92097733D01*
X113823506Y-92095862D01*
X113775129Y-92058402D01*
X113771226Y-92052186D01*
X113736154Y-91991438D01*
X113736153Y-91991437D01*
X113736152Y-91991435D01*
X113647621Y-91902904D01*
X113539193Y-91840304D01*
X113418258Y-91807899D01*
X113293056Y-91807899D01*
X113172121Y-91840304D01*
X113172120Y-91840304D01*
X113172118Y-91840305D01*
X113072399Y-91897877D01*
X113012551Y-91910598D01*
X112956655Y-91885711D01*
X112926063Y-91832722D01*
X112923900Y-91812140D01*
X112923900Y-90141421D01*
X112942807Y-90083230D01*
X112952896Y-90071417D01*
X112955711Y-90068601D01*
X112955714Y-90068600D01*
X113048900Y-89975414D01*
X113074538Y-89931008D01*
X113114790Y-89861290D01*
X113114790Y-89861288D01*
X113114792Y-89861286D01*
X113148900Y-89733992D01*
X113148900Y-89602208D01*
X113114792Y-89474914D01*
X113114790Y-89474911D01*
X113114790Y-89474909D01*
X113048903Y-89360790D01*
X113048901Y-89360788D01*
X113048900Y-89360786D01*
X112955714Y-89267600D01*
X112955711Y-89267598D01*
X112955709Y-89267596D01*
X112841589Y-89201709D01*
X112841591Y-89201709D01*
X112792199Y-89188475D01*
X112714292Y-89167600D01*
X112582508Y-89167600D01*
X112504600Y-89188475D01*
X112455209Y-89201709D01*
X112341090Y-89267596D01*
X112247896Y-89360790D01*
X112182009Y-89474909D01*
X112182008Y-89474914D01*
X112147900Y-89602208D01*
X112147900Y-89733992D01*
X112171642Y-89822600D01*
X112182009Y-89861290D01*
X112247896Y-89975409D01*
X112247898Y-89975411D01*
X112247900Y-89975414D01*
X112341086Y-90068600D01*
X112341088Y-90068601D01*
X112343904Y-90071417D01*
X112371681Y-90125934D01*
X112372900Y-90141421D01*
X112372900Y-95800576D01*
X112353993Y-95858767D01*
X112304493Y-95894731D01*
X112243307Y-95894731D01*
X112203896Y-95870580D01*
X111738296Y-95404980D01*
X111710519Y-95350463D01*
X111709300Y-95334976D01*
X111709300Y-87070021D01*
X111728207Y-87011830D01*
X111738296Y-87000017D01*
X111741111Y-86997201D01*
X111741114Y-86997200D01*
X111834300Y-86904014D01*
X111841187Y-86892086D01*
X111900190Y-86789890D01*
X111900190Y-86789888D01*
X111900192Y-86789886D01*
X111934300Y-86662592D01*
X111934300Y-86530808D01*
X111900192Y-86403514D01*
X111900190Y-86403511D01*
X111900190Y-86403509D01*
X111834303Y-86289390D01*
X111834301Y-86289388D01*
X111834300Y-86289386D01*
X111741114Y-86196200D01*
X111741111Y-86196198D01*
X111741109Y-86196196D01*
X111626989Y-86130309D01*
X111626991Y-86130309D01*
X111577599Y-86117075D01*
X111499692Y-86096200D01*
X111367908Y-86096200D01*
X111290000Y-86117075D01*
X111240609Y-86130309D01*
X111126490Y-86196196D01*
X111033296Y-86289390D01*
X110967409Y-86403509D01*
X110967408Y-86403514D01*
X110933300Y-86530808D01*
X110933300Y-86662592D01*
X110944929Y-86705992D01*
X110967409Y-86789890D01*
X111033296Y-86904009D01*
X111033298Y-86904011D01*
X111033300Y-86904014D01*
X111126486Y-86997200D01*
X111126488Y-86997201D01*
X111129304Y-87000017D01*
X111157081Y-87054534D01*
X111158300Y-87070021D01*
X111158300Y-90330200D01*
X111139393Y-90388391D01*
X111089893Y-90424355D01*
X111059300Y-90429200D01*
X102928599Y-90429200D01*
X102870408Y-90410293D01*
X102834444Y-90360793D01*
X102834444Y-90299607D01*
X102837135Y-90292315D01*
X102856955Y-90244464D01*
X102873580Y-90204328D01*
X102900500Y-90068993D01*
X102900500Y-89931007D01*
X102873580Y-89795672D01*
X102846091Y-89729308D01*
X102820777Y-89668193D01*
X102820771Y-89668182D01*
X102744114Y-89553458D01*
X102646541Y-89455885D01*
X102531817Y-89379228D01*
X102531806Y-89379222D01*
X102404328Y-89326420D01*
X102268995Y-89299500D01*
X102268993Y-89299500D01*
X102131007Y-89299500D01*
X102131004Y-89299500D01*
X101995672Y-89326420D01*
X101995670Y-89326420D01*
X101868193Y-89379222D01*
X101868182Y-89379228D01*
X101778616Y-89439075D01*
X101753458Y-89455886D01*
X101753456Y-89455887D01*
X101749415Y-89458588D01*
X101748770Y-89457623D01*
X101696703Y-89477995D01*
X101637502Y-89462539D01*
X101620888Y-89449174D01*
X101566414Y-89394700D01*
X101566411Y-89394698D01*
X101566409Y-89394696D01*
X101452289Y-89328809D01*
X101452291Y-89328809D01*
X101402899Y-89315575D01*
X101324992Y-89294700D01*
X101193208Y-89294700D01*
X101115300Y-89315575D01*
X101065909Y-89328809D01*
X100951790Y-89394696D01*
X100858596Y-89487890D01*
X100792709Y-89602009D01*
X100774977Y-89668189D01*
X100758600Y-89729308D01*
X100758600Y-89861092D01*
X100777334Y-89931008D01*
X100792709Y-89988390D01*
X100858596Y-90102509D01*
X100858598Y-90102511D01*
X100858600Y-90102514D01*
X100951786Y-90195700D01*
X100951788Y-90195701D01*
X100951790Y-90195703D01*
X101036246Y-90244464D01*
X101077187Y-90289933D01*
X101083583Y-90350783D01*
X101052990Y-90403771D01*
X100997094Y-90428658D01*
X100986746Y-90429200D01*
X100659824Y-90429200D01*
X100601633Y-90410293D01*
X100589820Y-90400204D01*
X100497003Y-90307387D01*
X100469226Y-90252870D01*
X100472272Y-90208638D01*
X100473575Y-90204339D01*
X100473580Y-90204328D01*
X100500500Y-90068993D01*
X100500500Y-89931007D01*
X100473580Y-89795672D01*
X100446091Y-89729308D01*
X100420777Y-89668193D01*
X100420771Y-89668182D01*
X100344114Y-89553458D01*
X100246541Y-89455885D01*
X100131817Y-89379228D01*
X100131806Y-89379222D01*
X100004328Y-89326420D01*
X99868995Y-89299500D01*
X99868993Y-89299500D01*
X99731007Y-89299500D01*
X99731004Y-89299500D01*
X99595672Y-89326420D01*
X99595670Y-89326420D01*
X99468193Y-89379222D01*
X99468182Y-89379228D01*
X99353458Y-89455885D01*
X99255885Y-89553458D01*
X99179228Y-89668182D01*
X99179222Y-89668193D01*
X99126420Y-89795670D01*
X99126420Y-89795672D01*
X99099500Y-89931004D01*
X99099500Y-89931007D01*
X99099500Y-90068993D01*
X99124704Y-90195703D01*
X99126420Y-90204327D01*
X99126420Y-90204329D01*
X99179222Y-90331806D01*
X99179228Y-90331817D01*
X99255885Y-90446541D01*
X99353458Y-90544114D01*
X99468182Y-90620771D01*
X99468193Y-90620777D01*
X99475016Y-90623603D01*
X99595672Y-90673580D01*
X99731007Y-90700500D01*
X99731008Y-90700500D01*
X99868992Y-90700500D01*
X99868993Y-90700500D01*
X100004328Y-90673580D01*
X100004339Y-90673575D01*
X100008638Y-90672272D01*
X100069812Y-90673469D01*
X100107387Y-90697003D01*
X100348641Y-90938257D01*
X100360027Y-90942973D01*
X100363358Y-90944353D01*
X100363361Y-90944354D01*
X100363363Y-90944355D01*
X100363362Y-90944355D01*
X100395328Y-90957595D01*
X100449900Y-90980200D01*
X107607579Y-90980200D01*
X107665770Y-90999107D01*
X107701734Y-91048607D01*
X107701734Y-91109793D01*
X107677584Y-91149201D01*
X107599500Y-91227286D01*
X107599497Y-91227289D01*
X107599496Y-91227290D01*
X107533609Y-91341409D01*
X107533608Y-91341414D01*
X107499500Y-91468708D01*
X107499500Y-91600492D01*
X107508126Y-91632684D01*
X107533609Y-91727790D01*
X107599496Y-91841909D01*
X107599498Y-91841911D01*
X107599500Y-91841914D01*
X107678084Y-91920498D01*
X107705860Y-91975013D01*
X107696289Y-92035445D01*
X107653024Y-92078710D01*
X107608079Y-92089500D01*
X107340104Y-92089500D01*
X107340092Y-92089501D01*
X107290513Y-92096027D01*
X107290511Y-92096027D01*
X107181686Y-92146774D01*
X107096774Y-92231686D01*
X107046029Y-92340510D01*
X107046028Y-92340511D01*
X107039500Y-92390100D01*
X107039500Y-92809896D01*
X107039501Y-92809907D01*
X107046027Y-92859486D01*
X107046027Y-92859488D01*
X107096774Y-92968313D01*
X107096775Y-92968314D01*
X107096776Y-92968316D01*
X107140505Y-93012045D01*
X107168281Y-93066560D01*
X107169500Y-93082047D01*
X107169500Y-93708000D01*
X107150593Y-93766191D01*
X107101093Y-93802155D01*
X107070500Y-93807000D01*
X103553979Y-93807000D01*
X103515385Y-93796658D01*
X103514584Y-93798592D01*
X103508591Y-93796109D01*
X103459199Y-93782875D01*
X103381292Y-93762000D01*
X103249508Y-93762000D01*
X103171600Y-93782875D01*
X103122209Y-93796109D01*
X103008090Y-93861996D01*
X103008089Y-93861997D01*
X103008086Y-93861999D01*
X103008086Y-93862000D01*
X102987080Y-93883005D01*
X102932566Y-93910781D01*
X102917079Y-93912000D01*
X99897856Y-93912000D01*
X99843297Y-93926618D01*
X99808707Y-93935887D01*
X99728791Y-93982027D01*
X97217028Y-96493790D01*
X97175511Y-96565698D01*
X97175512Y-96565699D01*
X97170888Y-96573706D01*
X97170886Y-96573713D01*
X97147000Y-96662857D01*
X97147000Y-96667878D01*
X97128093Y-96726069D01*
X97118005Y-96737880D01*
X97097001Y-96758884D01*
X97096996Y-96758890D01*
X97031109Y-96873009D01*
X97031108Y-96873014D01*
X96997000Y-97000308D01*
X96997000Y-97132092D01*
X97020500Y-97219796D01*
X97031109Y-97259390D01*
X97096996Y-97373509D01*
X97096998Y-97373511D01*
X97097000Y-97373514D01*
X97190186Y-97466700D01*
X97190188Y-97466701D01*
X97190190Y-97466703D01*
X97304310Y-97532590D01*
X97304308Y-97532590D01*
X97304312Y-97532591D01*
X97304314Y-97532592D01*
X97431608Y-97566700D01*
X97431610Y-97566700D01*
X97563390Y-97566700D01*
X97563392Y-97566700D01*
X97690686Y-97532592D01*
X97690688Y-97532590D01*
X97690690Y-97532590D01*
X97804809Y-97466703D01*
X97804809Y-97466702D01*
X97804814Y-97466700D01*
X97805498Y-97466015D01*
X97806114Y-97465701D01*
X97809960Y-97462751D01*
X97810507Y-97463463D01*
X97860013Y-97438240D01*
X97920445Y-97447811D01*
X97963710Y-97491076D01*
X97974500Y-97536021D01*
X97974500Y-98688861D01*
X97955593Y-98747052D01*
X97906093Y-98783016D01*
X97849878Y-98784488D01*
X97812601Y-98774500D01*
X97687399Y-98774500D01*
X97630942Y-98789628D01*
X97566463Y-98806905D01*
X97458036Y-98869505D01*
X97369505Y-98958036D01*
X97306905Y-99066463D01*
X97306905Y-99066464D01*
X97274500Y-99187399D01*
X97274500Y-99312601D01*
X97306905Y-99433536D01*
X97369505Y-99541964D01*
X97445505Y-99617964D01*
X97473281Y-99672479D01*
X97474500Y-99687966D01*
X97474500Y-99900000D01*
X96700000Y-99900000D01*
X94244700Y-99900000D01*
X94244700Y-90456839D01*
X94263607Y-90398648D01*
X94313107Y-90362684D01*
X94374293Y-90362684D01*
X94423793Y-90398648D01*
X94426014Y-90401836D01*
X94455886Y-90446542D01*
X94455889Y-90446545D01*
X94553458Y-90544114D01*
X94668182Y-90620771D01*
X94668193Y-90620777D01*
X94675016Y-90623603D01*
X94795672Y-90673580D01*
X94931007Y-90700500D01*
X94931008Y-90700500D01*
X95068992Y-90700500D01*
X95068993Y-90700500D01*
X95204328Y-90673580D01*
X95331811Y-90620775D01*
X95446542Y-90544114D01*
X95544114Y-90446542D01*
X95620775Y-90331811D01*
X95673580Y-90204328D01*
X95700500Y-90068993D01*
X95700500Y-89931007D01*
X95700499Y-89931004D01*
X96699500Y-89931004D01*
X96699500Y-89931007D01*
X96699500Y-90068993D01*
X96724704Y-90195703D01*
X96726420Y-90204327D01*
X96726420Y-90204329D01*
X96779222Y-90331806D01*
X96779228Y-90331817D01*
X96855885Y-90446541D01*
X96953458Y-90544114D01*
X97068182Y-90620771D01*
X97068193Y-90620777D01*
X97075016Y-90623603D01*
X97195672Y-90673580D01*
X97331007Y-90700500D01*
X97331008Y-90700500D01*
X97468992Y-90700500D01*
X97468993Y-90700500D01*
X97604328Y-90673580D01*
X97731811Y-90620775D01*
X97846542Y-90544114D01*
X97944114Y-90446542D01*
X98011087Y-90346309D01*
X98059136Y-90308430D01*
X98120275Y-90306028D01*
X98133666Y-90311678D01*
X98133820Y-90311309D01*
X98139809Y-90313789D01*
X98139814Y-90313792D01*
X98267108Y-90347900D01*
X98267110Y-90347900D01*
X98398890Y-90347900D01*
X98398892Y-90347900D01*
X98526186Y-90313792D01*
X98526188Y-90313790D01*
X98526190Y-90313790D01*
X98640309Y-90247903D01*
X98640309Y-90247902D01*
X98640314Y-90247900D01*
X98733500Y-90154714D01*
X98772614Y-90086967D01*
X98799390Y-90040590D01*
X98799390Y-90040588D01*
X98799392Y-90040586D01*
X98833500Y-89913292D01*
X98833500Y-89781508D01*
X98799392Y-89654214D01*
X98799390Y-89654211D01*
X98799390Y-89654209D01*
X98733503Y-89540090D01*
X98733501Y-89540088D01*
X98733500Y-89540086D01*
X98640314Y-89446900D01*
X98640311Y-89446898D01*
X98640309Y-89446896D01*
X98526189Y-89381009D01*
X98526191Y-89381009D01*
X98476799Y-89367775D01*
X98398892Y-89346900D01*
X98267108Y-89346900D01*
X98189200Y-89367775D01*
X98139809Y-89381009D01*
X98025690Y-89446896D01*
X98025684Y-89446901D01*
X98001623Y-89470962D01*
X97947106Y-89498738D01*
X97886674Y-89489166D01*
X97861617Y-89470961D01*
X97846541Y-89455885D01*
X97731817Y-89379228D01*
X97731806Y-89379222D01*
X97604328Y-89326420D01*
X97468995Y-89299500D01*
X97468993Y-89299500D01*
X97331007Y-89299500D01*
X97331004Y-89299500D01*
X97195672Y-89326420D01*
X97195670Y-89326420D01*
X97068193Y-89379222D01*
X97068182Y-89379228D01*
X96953458Y-89455885D01*
X96855885Y-89553458D01*
X96779228Y-89668182D01*
X96779222Y-89668193D01*
X96726420Y-89795670D01*
X96726420Y-89795672D01*
X96699500Y-89931004D01*
X95700499Y-89931004D01*
X95673580Y-89795672D01*
X95671770Y-89791302D01*
X95669904Y-89781911D01*
X95672960Y-89756135D01*
X95673466Y-89730194D01*
X95676635Y-89725132D01*
X95677108Y-89721151D01*
X95683369Y-89714379D01*
X95697000Y-89692614D01*
X96315958Y-89073658D01*
X96357900Y-88972400D01*
X96357900Y-88862800D01*
X96357900Y-88710221D01*
X96376807Y-88652030D01*
X96386896Y-88640217D01*
X96389711Y-88637401D01*
X96389714Y-88637400D01*
X96482900Y-88544214D01*
X96522572Y-88475500D01*
X96548790Y-88430090D01*
X96548790Y-88430088D01*
X96548792Y-88430086D01*
X96582900Y-88302792D01*
X96582900Y-88237399D01*
X101914500Y-88237399D01*
X101914500Y-88362601D01*
X101946905Y-88483536D01*
X102009505Y-88591964D01*
X102098036Y-88680495D01*
X102206464Y-88743095D01*
X102327399Y-88775500D01*
X102327401Y-88775500D01*
X102452599Y-88775500D01*
X102452601Y-88775500D01*
X102573536Y-88743095D01*
X102681964Y-88680495D01*
X102770495Y-88591964D01*
X102833095Y-88483536D01*
X102865500Y-88362601D01*
X102865500Y-88237399D01*
X102833095Y-88116464D01*
X102816294Y-88087363D01*
X102803575Y-88027515D01*
X102828462Y-87971619D01*
X102832010Y-87967880D01*
X102872134Y-87927757D01*
X102934734Y-87819329D01*
X102967139Y-87698394D01*
X102967139Y-87624200D01*
X104401301Y-87624200D01*
X104401301Y-87749402D01*
X104433706Y-87870337D01*
X104496306Y-87978765D01*
X104584837Y-88067296D01*
X104693265Y-88129896D01*
X104814200Y-88162301D01*
X104814202Y-88162301D01*
X104939400Y-88162301D01*
X104939402Y-88162301D01*
X105060337Y-88129896D01*
X105168765Y-88067296D01*
X105257296Y-87978765D01*
X105319896Y-87870337D01*
X105352301Y-87749402D01*
X105352301Y-87624200D01*
X105319896Y-87503265D01*
X105257296Y-87394837D01*
X105168765Y-87306306D01*
X105060337Y-87243706D01*
X104939402Y-87211301D01*
X104814200Y-87211301D01*
X104733576Y-87232904D01*
X104693264Y-87243706D01*
X104584837Y-87306306D01*
X104496306Y-87394837D01*
X104433706Y-87503264D01*
X104425720Y-87533069D01*
X104401301Y-87624200D01*
X102967139Y-87624200D01*
X102967139Y-87573192D01*
X102934734Y-87452257D01*
X102872134Y-87343829D01*
X102783603Y-87255298D01*
X102675175Y-87192698D01*
X102554240Y-87160293D01*
X102429038Y-87160293D01*
X102348414Y-87181896D01*
X102308102Y-87192698D01*
X102199675Y-87255298D01*
X102111144Y-87343829D01*
X102048544Y-87452256D01*
X102048544Y-87452257D01*
X102016139Y-87573192D01*
X102016139Y-87698394D01*
X102047824Y-87816641D01*
X102048545Y-87819332D01*
X102065344Y-87848430D01*
X102078063Y-87908278D01*
X102053175Y-87964173D01*
X102049610Y-87967930D01*
X102009507Y-88008033D01*
X102009505Y-88008035D01*
X102009505Y-88008036D01*
X101998259Y-88027515D01*
X101946905Y-88116463D01*
X101946905Y-88116464D01*
X101914500Y-88237399D01*
X96582900Y-88237399D01*
X96582900Y-88171008D01*
X96548792Y-88043714D01*
X96548790Y-88043711D01*
X96548790Y-88043709D01*
X96482903Y-87929590D01*
X96482901Y-87929588D01*
X96482900Y-87929586D01*
X96389714Y-87836400D01*
X96389711Y-87836398D01*
X96389709Y-87836396D01*
X96275589Y-87770509D01*
X96275591Y-87770509D01*
X96226199Y-87757275D01*
X96148292Y-87736400D01*
X96016508Y-87736400D01*
X95938600Y-87757275D01*
X95889209Y-87770509D01*
X95775090Y-87836396D01*
X95681896Y-87929590D01*
X95616009Y-88043709D01*
X95609689Y-88067296D01*
X95581900Y-88171008D01*
X95581900Y-88302792D01*
X95597925Y-88362598D01*
X95616009Y-88430090D01*
X95681896Y-88544209D01*
X95681898Y-88544211D01*
X95681900Y-88544214D01*
X95775086Y-88637400D01*
X95775088Y-88637401D01*
X95777904Y-88640217D01*
X95805681Y-88694734D01*
X95806900Y-88710221D01*
X95806900Y-88762475D01*
X95787993Y-88820666D01*
X95777903Y-88832479D01*
X95307386Y-89302995D01*
X95252870Y-89330772D01*
X95208658Y-89327732D01*
X95204337Y-89326422D01*
X95204328Y-89326420D01*
X95157610Y-89317127D01*
X95068995Y-89299500D01*
X95068993Y-89299500D01*
X94931007Y-89299500D01*
X94931004Y-89299500D01*
X94795672Y-89326420D01*
X94795670Y-89326420D01*
X94668193Y-89379222D01*
X94668182Y-89379228D01*
X94553458Y-89455885D01*
X94455889Y-89553454D01*
X94455883Y-89553461D01*
X94426014Y-89598163D01*
X94377964Y-89636042D01*
X94316826Y-89638443D01*
X94265952Y-89604449D01*
X94244776Y-89547045D01*
X94244700Y-89543160D01*
X94244700Y-87278540D01*
X99922332Y-87278540D01*
X99922332Y-87403742D01*
X99954737Y-87524677D01*
X100017337Y-87633105D01*
X100105868Y-87721636D01*
X100214296Y-87784236D01*
X100335231Y-87816641D01*
X100335233Y-87816641D01*
X100460431Y-87816641D01*
X100460433Y-87816641D01*
X100581368Y-87784236D01*
X100689796Y-87721636D01*
X100766284Y-87645147D01*
X100820799Y-87617372D01*
X100881231Y-87626943D01*
X100906286Y-87645146D01*
X100981809Y-87720669D01*
X101090237Y-87783269D01*
X101211172Y-87815674D01*
X101211174Y-87815674D01*
X101336372Y-87815674D01*
X101336374Y-87815674D01*
X101457309Y-87783269D01*
X101565737Y-87720669D01*
X101654268Y-87632138D01*
X101716868Y-87523710D01*
X101749273Y-87402775D01*
X101749273Y-87277573D01*
X101716868Y-87156638D01*
X101654268Y-87048210D01*
X101565737Y-86959679D01*
X101457309Y-86897079D01*
X101336374Y-86864674D01*
X101211172Y-86864674D01*
X101130548Y-86886277D01*
X101090236Y-86897079D01*
X101035479Y-86928693D01*
X100981809Y-86959679D01*
X100905320Y-87036167D01*
X100850806Y-87063943D01*
X100790374Y-87054372D01*
X100765318Y-87036168D01*
X100689796Y-86960646D01*
X100581368Y-86898046D01*
X100460433Y-86865641D01*
X100335231Y-86865641D01*
X100254607Y-86887244D01*
X100214295Y-86898046D01*
X100105868Y-86960646D01*
X100017337Y-87049177D01*
X99954737Y-87157604D01*
X99945334Y-87192698D01*
X99922332Y-87278540D01*
X94244700Y-87278540D01*
X94244700Y-86602111D01*
X95259351Y-86602111D01*
X95259351Y-86727313D01*
X95291756Y-86848248D01*
X95354356Y-86956676D01*
X95442887Y-87045207D01*
X95551315Y-87107807D01*
X95672250Y-87140212D01*
X95672252Y-87140212D01*
X95797450Y-87140212D01*
X95797452Y-87140212D01*
X95918387Y-87107807D01*
X96026815Y-87045207D01*
X96115346Y-86956676D01*
X96177946Y-86848248D01*
X96210351Y-86727313D01*
X96210351Y-86602111D01*
X96177946Y-86481176D01*
X96115346Y-86372748D01*
X96026815Y-86284217D01*
X95918387Y-86221617D01*
X95797452Y-86189212D01*
X95672250Y-86189212D01*
X95591626Y-86210815D01*
X95551314Y-86221617D01*
X95442887Y-86284217D01*
X95354356Y-86372748D01*
X95291756Y-86481175D01*
X95291756Y-86481176D01*
X95259351Y-86602111D01*
X94244700Y-86602111D01*
X94244700Y-86083423D01*
X94263607Y-86025232D01*
X94273696Y-86013419D01*
X98057619Y-82229496D01*
X98112136Y-82201719D01*
X98127623Y-82200500D01*
X98263390Y-82200500D01*
X98263392Y-82200500D01*
X98390686Y-82166392D01*
X98390688Y-82166390D01*
X98390690Y-82166390D01*
X98504809Y-82100503D01*
X98504809Y-82100502D01*
X98504814Y-82100500D01*
X98598000Y-82007314D01*
X98598003Y-82007309D01*
X98663890Y-81893190D01*
X98663890Y-81893188D01*
X98663892Y-81893186D01*
X98698000Y-81765892D01*
X98698000Y-81634108D01*
X98663892Y-81506814D01*
X98663890Y-81506811D01*
X98663890Y-81506809D01*
X98598003Y-81392690D01*
X98598001Y-81392688D01*
X98598000Y-81392686D01*
X98504814Y-81299500D01*
X98504811Y-81299498D01*
X98504809Y-81299496D01*
X98390689Y-81233609D01*
X98390691Y-81233609D01*
X98341299Y-81220375D01*
X98263392Y-81199500D01*
X98131608Y-81199500D01*
X98053700Y-81220375D01*
X98004309Y-81233609D01*
X97890190Y-81299496D01*
X97796996Y-81392690D01*
X97731109Y-81506809D01*
X97697000Y-81634109D01*
X97697000Y-81769875D01*
X97678093Y-81828066D01*
X97668004Y-81839879D01*
X93813142Y-85694743D01*
X93813141Y-85694742D01*
X93735646Y-85772238D01*
X93735644Y-85772240D01*
X93735643Y-85772242D01*
X93735643Y-85772243D01*
X93693700Y-85873500D01*
X93693700Y-86805706D01*
X93674793Y-86863897D01*
X93625293Y-86899861D01*
X93564107Y-86899861D01*
X93524698Y-86875711D01*
X93489149Y-86840162D01*
X93380721Y-86777562D01*
X93259786Y-86745157D01*
X93134584Y-86745157D01*
X93053960Y-86766760D01*
X93013648Y-86777562D01*
X92964901Y-86805706D01*
X92905221Y-86840162D01*
X92871501Y-86873881D01*
X92816987Y-86901657D01*
X92756555Y-86892086D01*
X92713290Y-86848821D01*
X92702500Y-86803876D01*
X92702500Y-84173321D01*
X92721407Y-84115130D01*
X92731496Y-84103317D01*
X92734311Y-84100501D01*
X92734314Y-84100500D01*
X92827500Y-84007314D01*
X92841222Y-83983547D01*
X92893390Y-83893190D01*
X92893390Y-83893188D01*
X92893392Y-83893186D01*
X92927500Y-83765892D01*
X92927500Y-83634108D01*
X92893392Y-83506814D01*
X92893390Y-83506811D01*
X92893390Y-83506809D01*
X92827503Y-83392690D01*
X92827501Y-83392688D01*
X92827500Y-83392686D01*
X92734314Y-83299500D01*
X92734311Y-83299498D01*
X92734309Y-83299496D01*
X92620189Y-83233609D01*
X92620191Y-83233609D01*
X92570799Y-83220375D01*
X92492892Y-83199500D01*
X92361108Y-83199500D01*
X92283200Y-83220375D01*
X92233809Y-83233609D01*
X92119690Y-83299496D01*
X92026496Y-83392690D01*
X91960609Y-83506809D01*
X91949942Y-83546621D01*
X91926500Y-83634108D01*
X91926500Y-83765892D01*
X91954283Y-83869580D01*
X91960609Y-83893190D01*
X92026496Y-84007309D01*
X92026498Y-84007311D01*
X92026500Y-84007314D01*
X92119686Y-84100500D01*
X92119688Y-84100501D01*
X92122504Y-84103317D01*
X92150281Y-84157834D01*
X92151500Y-84173321D01*
X92151500Y-99570279D01*
X92132593Y-99628470D01*
X92122504Y-99640283D01*
X92118088Y-99644698D01*
X92118086Y-99644700D01*
X92069691Y-99693095D01*
X92024897Y-99737889D01*
X92024896Y-99737890D01*
X91959009Y-99852009D01*
X91954820Y-99867643D01*
X91924900Y-99979308D01*
X70300869Y-99979308D01*
X70301089Y-99967005D01*
X70301117Y-99965853D01*
X70358642Y-98208635D01*
X70358720Y-98206825D01*
X70370349Y-97989862D01*
X70370677Y-97985561D01*
X70536734Y-96299559D01*
X70537012Y-96297071D01*
X70573680Y-96005138D01*
X70574213Y-96001469D01*
X70844385Y-94365059D01*
X70844929Y-94362072D01*
X70906685Y-94051602D01*
X70907326Y-94048636D01*
X71283948Y-92433387D01*
X71284858Y-92429805D01*
X71362697Y-92146070D01*
X71363407Y-92143613D01*
X71433246Y-91913385D01*
X76899500Y-91913385D01*
X76899500Y-92086614D01*
X76926597Y-92257702D01*
X76926598Y-92257706D01*
X76980123Y-92422438D01*
X76980125Y-92422441D01*
X77058041Y-92575363D01*
X77058768Y-92576788D01*
X77160586Y-92716928D01*
X77283072Y-92839414D01*
X77423212Y-92941232D01*
X77577555Y-93019873D01*
X77577557Y-93019873D01*
X77577558Y-93019874D01*
X77577561Y-93019876D01*
X77742293Y-93073401D01*
X77742297Y-93073402D01*
X77913386Y-93100500D01*
X77913389Y-93100500D01*
X78086614Y-93100500D01*
X78257702Y-93073402D01*
X78257706Y-93073401D01*
X78422438Y-93019876D01*
X78422440Y-93019874D01*
X78422445Y-93019873D01*
X78576788Y-92941232D01*
X78716928Y-92839414D01*
X78839414Y-92716928D01*
X78941232Y-92576788D01*
X79019873Y-92422445D01*
X79019874Y-92422440D01*
X79019876Y-92422438D01*
X79073401Y-92257706D01*
X79073402Y-92257702D01*
X79100500Y-92086614D01*
X79100500Y-91913385D01*
X79073402Y-91742297D01*
X79073401Y-91742293D01*
X79019876Y-91577561D01*
X79019874Y-91577558D01*
X79019873Y-91577557D01*
X79019873Y-91577555D01*
X78941232Y-91423212D01*
X78839414Y-91283072D01*
X78716928Y-91160586D01*
X78576788Y-91058768D01*
X78576787Y-91058767D01*
X78576785Y-91058766D01*
X78422441Y-90980125D01*
X78422438Y-90980123D01*
X78257706Y-90926598D01*
X78257702Y-90926597D01*
X78086614Y-90899500D01*
X78086611Y-90899500D01*
X77913389Y-90899500D01*
X77913386Y-90899500D01*
X77742297Y-90926597D01*
X77742293Y-90926598D01*
X77577561Y-90980123D01*
X77577558Y-90980125D01*
X77423214Y-91058766D01*
X77283073Y-91160585D01*
X77160585Y-91283073D01*
X77058766Y-91423214D01*
X76980125Y-91577558D01*
X76980123Y-91577561D01*
X76926598Y-91742293D01*
X76926597Y-91742297D01*
X76899500Y-91913385D01*
X71433246Y-91913385D01*
X71855194Y-90522411D01*
X71856529Y-90518337D01*
X71928785Y-90313517D01*
X71929413Y-90311795D01*
X72548765Y-88666216D01*
X72549130Y-88665268D01*
X72560615Y-88636078D01*
X72561919Y-88632930D01*
X72574411Y-88604231D01*
X72574877Y-88603181D01*
X73300524Y-87001643D01*
X73301254Y-87000078D01*
X73395010Y-86804114D01*
X73396955Y-86800272D01*
X74195630Y-85306056D01*
X74196797Y-85303942D01*
X74342372Y-85048298D01*
X74344281Y-85045091D01*
X75220098Y-83636663D01*
X75221795Y-83634030D01*
X75330416Y-83471467D01*
X83704200Y-83471467D01*
X83704200Y-83608532D01*
X83730939Y-83742956D01*
X83730939Y-83742958D01*
X83783387Y-83869580D01*
X83783393Y-83869591D01*
X83799162Y-83893190D01*
X83859537Y-83983547D01*
X83956453Y-84080463D01*
X84008336Y-84115130D01*
X84070408Y-84156606D01*
X84070419Y-84156612D01*
X84110759Y-84173321D01*
X84197043Y-84209061D01*
X84331470Y-84235800D01*
X84331471Y-84235800D01*
X84468529Y-84235800D01*
X84468530Y-84235800D01*
X84602957Y-84209061D01*
X84729585Y-84156610D01*
X84843547Y-84080463D01*
X84940463Y-83983547D01*
X85016610Y-83869585D01*
X85069061Y-83742957D01*
X85092400Y-83625619D01*
X85122297Y-83572237D01*
X85177861Y-83546621D01*
X85237871Y-83558558D01*
X85238998Y-83559199D01*
X85288926Y-83588025D01*
X85288930Y-83588027D01*
X85409865Y-83620432D01*
X85409867Y-83620432D01*
X85535065Y-83620432D01*
X85535067Y-83620432D01*
X85656002Y-83588027D01*
X85764430Y-83525427D01*
X85852961Y-83436896D01*
X85915561Y-83328468D01*
X85947966Y-83207533D01*
X85947966Y-83082331D01*
X85915561Y-82961396D01*
X85852961Y-82852968D01*
X85764430Y-82764437D01*
X85656002Y-82701837D01*
X85535067Y-82669432D01*
X85409865Y-82669432D01*
X85329241Y-82691035D01*
X85288929Y-82701837D01*
X85180502Y-82764437D01*
X85091971Y-82852968D01*
X85051314Y-82923390D01*
X85029370Y-82961398D01*
X85029369Y-82961400D01*
X85026420Y-82972405D01*
X84993094Y-83023718D01*
X84935971Y-83045642D01*
X84876871Y-83029803D01*
X84860791Y-83016781D01*
X84843550Y-82999540D01*
X84843547Y-82999537D01*
X84786465Y-82961396D01*
X84729591Y-82923393D01*
X84729580Y-82923387D01*
X84602957Y-82870939D01*
X84468532Y-82844200D01*
X84468530Y-82844200D01*
X84331470Y-82844200D01*
X84331467Y-82844200D01*
X84197043Y-82870939D01*
X84197041Y-82870939D01*
X84070419Y-82923387D01*
X84070408Y-82923393D01*
X83956453Y-82999537D01*
X83956449Y-82999540D01*
X83859540Y-83096449D01*
X83859537Y-83096453D01*
X83783393Y-83210408D01*
X83783387Y-83210419D01*
X83730939Y-83337041D01*
X83730939Y-83337043D01*
X83704200Y-83471467D01*
X75330416Y-83471467D01*
X75397633Y-83370869D01*
X75399364Y-83368369D01*
X76365465Y-82020176D01*
X76367613Y-82017297D01*
X76548174Y-81784862D01*
X76549690Y-81782964D01*
X77624490Y-80473317D01*
X77627330Y-80470010D01*
X77772426Y-80308478D01*
X77773643Y-80307151D01*
X77828474Y-80248608D01*
X82680000Y-80248608D01*
X82680000Y-80380392D01*
X82694116Y-80433073D01*
X82714109Y-80507690D01*
X82779996Y-80621809D01*
X82779998Y-80621811D01*
X82780000Y-80621814D01*
X82873186Y-80715000D01*
X82873188Y-80715001D01*
X82873190Y-80715003D01*
X82987310Y-80780890D01*
X82987308Y-80780890D01*
X82987312Y-80780891D01*
X82987314Y-80780892D01*
X83114608Y-80815000D01*
X83114610Y-80815000D01*
X83246390Y-80815000D01*
X83246392Y-80815000D01*
X83373686Y-80780892D01*
X83373688Y-80780890D01*
X83373690Y-80780890D01*
X83487809Y-80715003D01*
X83487809Y-80715002D01*
X83487814Y-80715000D01*
X83581000Y-80621814D01*
X83581001Y-80621811D01*
X83583817Y-80618996D01*
X83638334Y-80591219D01*
X83653821Y-80590000D01*
X84706677Y-80590000D01*
X84764868Y-80608907D01*
X84776681Y-80618996D01*
X85351404Y-81193719D01*
X85379181Y-81248236D01*
X85380400Y-81263723D01*
X85380400Y-81267708D01*
X85380400Y-81399492D01*
X85388521Y-81429800D01*
X85414509Y-81526790D01*
X85480396Y-81640909D01*
X85480398Y-81640911D01*
X85480400Y-81640914D01*
X85573586Y-81734100D01*
X85573588Y-81734101D01*
X85573590Y-81734103D01*
X85687710Y-81799990D01*
X85687708Y-81799990D01*
X85687712Y-81799991D01*
X85687714Y-81799992D01*
X85815008Y-81834100D01*
X85815010Y-81834100D01*
X85946790Y-81834100D01*
X85946792Y-81834100D01*
X86074086Y-81799992D01*
X86074088Y-81799990D01*
X86074090Y-81799990D01*
X86188209Y-81734103D01*
X86188209Y-81734102D01*
X86188214Y-81734100D01*
X86281400Y-81640914D01*
X86285329Y-81634109D01*
X86347290Y-81526790D01*
X86347290Y-81526788D01*
X86347292Y-81526786D01*
X86381400Y-81399492D01*
X86381400Y-81267708D01*
X86347292Y-81140414D01*
X86347290Y-81140411D01*
X86347290Y-81140409D01*
X86281403Y-81026290D01*
X86281401Y-81026288D01*
X86281400Y-81026286D01*
X86188214Y-80933100D01*
X86188211Y-80933098D01*
X86188209Y-80933096D01*
X86074089Y-80867209D01*
X86074091Y-80867209D01*
X86024699Y-80853975D01*
X85946792Y-80833100D01*
X85815008Y-80833100D01*
X85811023Y-80833100D01*
X85752832Y-80814193D01*
X85741019Y-80804104D01*
X85406903Y-80469988D01*
X85017858Y-80080943D01*
X85017856Y-80080942D01*
X85017855Y-80080941D01*
X85011986Y-80078510D01*
X85011986Y-80078509D01*
X84916600Y-80039000D01*
X83653821Y-80039000D01*
X83595630Y-80020093D01*
X83583817Y-80010004D01*
X83581001Y-80007188D01*
X83581000Y-80007186D01*
X83487814Y-79914000D01*
X83487811Y-79913998D01*
X83487809Y-79913996D01*
X83373689Y-79848109D01*
X83373691Y-79848109D01*
X83324299Y-79834875D01*
X83246392Y-79814000D01*
X83114608Y-79814000D01*
X83036700Y-79834875D01*
X82987309Y-79848109D01*
X82873190Y-79913996D01*
X82779996Y-80007190D01*
X82714109Y-80121309D01*
X82700173Y-80173321D01*
X82680000Y-80248608D01*
X77828474Y-80248608D01*
X78975601Y-79023833D01*
X78976273Y-79023127D01*
X78998099Y-79000507D01*
X79000507Y-78998099D01*
X79023127Y-78976273D01*
X79023833Y-78975601D01*
X79647507Y-78391467D01*
X82688200Y-78391467D01*
X82688200Y-78528532D01*
X82714939Y-78662956D01*
X82714939Y-78662958D01*
X82767387Y-78789580D01*
X82767393Y-78789591D01*
X82804115Y-78844548D01*
X82843537Y-78903547D01*
X82940453Y-79000463D01*
X82975429Y-79023833D01*
X83054408Y-79076606D01*
X83054419Y-79076612D01*
X83101193Y-79095986D01*
X83181043Y-79129061D01*
X83315470Y-79155800D01*
X83315471Y-79155800D01*
X83452529Y-79155800D01*
X83452530Y-79155800D01*
X83586957Y-79129061D01*
X83713585Y-79076610D01*
X83827547Y-79000463D01*
X83924463Y-78903547D01*
X84000610Y-78789585D01*
X84053061Y-78662957D01*
X84079800Y-78528530D01*
X84079800Y-78391470D01*
X84079799Y-78391467D01*
X84720200Y-78391467D01*
X84720200Y-78528532D01*
X84746939Y-78662956D01*
X84746939Y-78662958D01*
X84799387Y-78789580D01*
X84799393Y-78789591D01*
X84836115Y-78844548D01*
X84875537Y-78903547D01*
X84972453Y-79000463D01*
X85007429Y-79023833D01*
X85086408Y-79076606D01*
X85086419Y-79076612D01*
X85133193Y-79095986D01*
X85213043Y-79129061D01*
X85347470Y-79155800D01*
X85347471Y-79155800D01*
X85484529Y-79155800D01*
X85484530Y-79155800D01*
X85618957Y-79129061D01*
X85745585Y-79076610D01*
X85859547Y-79000463D01*
X85956463Y-78903547D01*
X86032610Y-78789585D01*
X86085061Y-78662957D01*
X86111800Y-78528530D01*
X86111800Y-78391470D01*
X86085061Y-78257043D01*
X86032610Y-78130415D01*
X86032609Y-78130413D01*
X86032606Y-78130408D01*
X86001860Y-78084394D01*
X85956463Y-78016453D01*
X85859547Y-77919537D01*
X85814148Y-77889202D01*
X85745591Y-77843393D01*
X85745580Y-77843387D01*
X85618957Y-77790939D01*
X85484532Y-77764200D01*
X85484530Y-77764200D01*
X85347470Y-77764200D01*
X85347467Y-77764200D01*
X85213043Y-77790939D01*
X85213041Y-77790939D01*
X85086419Y-77843387D01*
X85086408Y-77843393D01*
X84972453Y-77919537D01*
X84972449Y-77919540D01*
X84875540Y-78016449D01*
X84875537Y-78016453D01*
X84799393Y-78130408D01*
X84799387Y-78130419D01*
X84746939Y-78257041D01*
X84746939Y-78257043D01*
X84720200Y-78391467D01*
X84079799Y-78391467D01*
X84053061Y-78257043D01*
X84000610Y-78130415D01*
X84000609Y-78130413D01*
X84000606Y-78130408D01*
X83969860Y-78084394D01*
X83924463Y-78016453D01*
X83827547Y-77919537D01*
X83782148Y-77889202D01*
X83713591Y-77843393D01*
X83713580Y-77843387D01*
X83586957Y-77790939D01*
X83452532Y-77764200D01*
X83452530Y-77764200D01*
X83315470Y-77764200D01*
X83315467Y-77764200D01*
X83181043Y-77790939D01*
X83181041Y-77790939D01*
X83054419Y-77843387D01*
X83054408Y-77843393D01*
X82940453Y-77919537D01*
X82940449Y-77919540D01*
X82843540Y-78016449D01*
X82843537Y-78016453D01*
X82767393Y-78130408D01*
X82767387Y-78130419D01*
X82714939Y-78257041D01*
X82714939Y-78257043D01*
X82688200Y-78391467D01*
X79647507Y-78391467D01*
X80307151Y-77773643D01*
X80308478Y-77772426D01*
X80470010Y-77627330D01*
X80473317Y-77624490D01*
X81782964Y-76549690D01*
X81784862Y-76548174D01*
X82017297Y-76367613D01*
X82020176Y-76365465D01*
X83368335Y-75399389D01*
X83370938Y-75397588D01*
X83634053Y-75221780D01*
X83636627Y-75220120D01*
X85045089Y-74344281D01*
X85048277Y-74342384D01*
X85303956Y-74196789D01*
X85306069Y-74195623D01*
X86800271Y-73396955D01*
X86804113Y-73395010D01*
X87000067Y-73301259D01*
X87001717Y-73300491D01*
X87123572Y-73245279D01*
X87184376Y-73238486D01*
X87237563Y-73268731D01*
X87262815Y-73324462D01*
X87250486Y-73384393D01*
X87247408Y-73389031D01*
X87179409Y-73506809D01*
X87179408Y-73506814D01*
X87145300Y-73634108D01*
X87145300Y-73765892D01*
X87175379Y-73878151D01*
X87179409Y-73893190D01*
X87245296Y-74007309D01*
X87245298Y-74007311D01*
X87245300Y-74007314D01*
X87338486Y-74100500D01*
X87338488Y-74100501D01*
X87341304Y-74103317D01*
X87369081Y-74157834D01*
X87370300Y-74173321D01*
X87370300Y-89749779D01*
X87351393Y-89807970D01*
X87341304Y-89819783D01*
X87338488Y-89822598D01*
X87338486Y-89822600D01*
X87247796Y-89913290D01*
X87245297Y-89915789D01*
X87245296Y-89915790D01*
X87179409Y-90029909D01*
X87179408Y-90029914D01*
X87145300Y-90157208D01*
X87145300Y-90288992D01*
X87156775Y-90331817D01*
X87179409Y-90416290D01*
X87245296Y-90530409D01*
X87245298Y-90530411D01*
X87245300Y-90530414D01*
X87338486Y-90623600D01*
X87338488Y-90623601D01*
X87338490Y-90623603D01*
X87452610Y-90689490D01*
X87452608Y-90689490D01*
X87452612Y-90689491D01*
X87452614Y-90689492D01*
X87579908Y-90723600D01*
X87579910Y-90723600D01*
X87711690Y-90723600D01*
X87711692Y-90723600D01*
X87838986Y-90689492D01*
X87838988Y-90689490D01*
X87838990Y-90689490D01*
X87953109Y-90623603D01*
X87953109Y-90623602D01*
X87953114Y-90623600D01*
X88046300Y-90530414D01*
X88053308Y-90518276D01*
X88112190Y-90416290D01*
X88112190Y-90416288D01*
X88112192Y-90416286D01*
X88146300Y-90288992D01*
X88146300Y-90157208D01*
X88112192Y-90029914D01*
X88112190Y-90029911D01*
X88112190Y-90029909D01*
X88046303Y-89915790D01*
X88046301Y-89915788D01*
X88046300Y-89915786D01*
X87953114Y-89822600D01*
X87953111Y-89822598D01*
X87950296Y-89819783D01*
X87922519Y-89765266D01*
X87921300Y-89749779D01*
X87921300Y-87937399D01*
X88824500Y-87937399D01*
X88824500Y-88062601D01*
X88856905Y-88183536D01*
X88919505Y-88291964D01*
X89008036Y-88380495D01*
X89116464Y-88443095D01*
X89237399Y-88475500D01*
X89237401Y-88475500D01*
X89362599Y-88475500D01*
X89362601Y-88475500D01*
X89483536Y-88443095D01*
X89591964Y-88380495D01*
X89680495Y-88291964D01*
X89743095Y-88183536D01*
X89775500Y-88062601D01*
X89775500Y-87937399D01*
X89743095Y-87816464D01*
X89680495Y-87708036D01*
X89591964Y-87619505D01*
X89483536Y-87556905D01*
X89362601Y-87524500D01*
X89237399Y-87524500D01*
X89167301Y-87543283D01*
X89116463Y-87556905D01*
X89008036Y-87619505D01*
X88919505Y-87708036D01*
X88856905Y-87816463D01*
X88851564Y-87836396D01*
X88824500Y-87937399D01*
X87921300Y-87937399D01*
X87921300Y-82634108D01*
X89890800Y-82634108D01*
X89890800Y-82765892D01*
X89914132Y-82852968D01*
X89924909Y-82893190D01*
X89990796Y-83007309D01*
X89990798Y-83007311D01*
X89990800Y-83007314D01*
X90083986Y-83100500D01*
X90083988Y-83100501D01*
X90086804Y-83103317D01*
X90114581Y-83157834D01*
X90115800Y-83173321D01*
X90115800Y-98686079D01*
X90096893Y-98744270D01*
X90086804Y-98756083D01*
X90083988Y-98758898D01*
X90083986Y-98758900D01*
X90035981Y-98806905D01*
X89990797Y-98852089D01*
X89990796Y-98852090D01*
X89924909Y-98966209D01*
X89924908Y-98966214D01*
X89890800Y-99093508D01*
X89890800Y-99225292D01*
X89914193Y-99312598D01*
X89924909Y-99352590D01*
X89990796Y-99466709D01*
X89990798Y-99466711D01*
X89990800Y-99466714D01*
X90083986Y-99559900D01*
X90083988Y-99559901D01*
X90083990Y-99559903D01*
X90198110Y-99625790D01*
X90198108Y-99625790D01*
X90198112Y-99625791D01*
X90198114Y-99625792D01*
X90325408Y-99659900D01*
X90325410Y-99659900D01*
X90457190Y-99659900D01*
X90457192Y-99659900D01*
X90584486Y-99625792D01*
X90584488Y-99625790D01*
X90584490Y-99625790D01*
X90698609Y-99559903D01*
X90698609Y-99559902D01*
X90698614Y-99559900D01*
X90791800Y-99466714D01*
X90809226Y-99436532D01*
X90857690Y-99352590D01*
X90857690Y-99352588D01*
X90857692Y-99352586D01*
X90891800Y-99225292D01*
X90891800Y-99093508D01*
X90857692Y-98966214D01*
X90857690Y-98966211D01*
X90857690Y-98966209D01*
X90791803Y-98852090D01*
X90791801Y-98852088D01*
X90791800Y-98852086D01*
X90698614Y-98758900D01*
X90698611Y-98758898D01*
X90695796Y-98756083D01*
X90668019Y-98701566D01*
X90666800Y-98686079D01*
X90666800Y-83173321D01*
X90685707Y-83115130D01*
X90695796Y-83103317D01*
X90698611Y-83100501D01*
X90698614Y-83100500D01*
X90791800Y-83007314D01*
X90818311Y-82961396D01*
X90857690Y-82893190D01*
X90857690Y-82893188D01*
X90857692Y-82893186D01*
X90891800Y-82765892D01*
X90891800Y-82634108D01*
X90857692Y-82506814D01*
X90857690Y-82506811D01*
X90857690Y-82506809D01*
X90791803Y-82392690D01*
X90791801Y-82392688D01*
X90791800Y-82392686D01*
X90698614Y-82299500D01*
X90698611Y-82299498D01*
X90698609Y-82299496D01*
X90584489Y-82233609D01*
X90584491Y-82233609D01*
X90535099Y-82220375D01*
X90457192Y-82199500D01*
X90325408Y-82199500D01*
X90247500Y-82220375D01*
X90198109Y-82233609D01*
X90083990Y-82299496D01*
X89990796Y-82392690D01*
X89924909Y-82506809D01*
X89924908Y-82506814D01*
X89890800Y-82634108D01*
X87921300Y-82634108D01*
X87921300Y-74634108D01*
X88888900Y-74634108D01*
X88888900Y-74765892D01*
X88898408Y-74801376D01*
X88923009Y-74893190D01*
X88988896Y-75007309D01*
X88988898Y-75007311D01*
X88988900Y-75007314D01*
X89082086Y-75100500D01*
X89082088Y-75100501D01*
X89082090Y-75100503D01*
X89196210Y-75166390D01*
X89196208Y-75166390D01*
X89196212Y-75166391D01*
X89196214Y-75166392D01*
X89323508Y-75200500D01*
X89323510Y-75200500D01*
X89459277Y-75200500D01*
X89517468Y-75219407D01*
X89529280Y-75229496D01*
X89670503Y-75370718D01*
X89698281Y-75425235D01*
X89699500Y-75440722D01*
X89699500Y-77754478D01*
X89680593Y-77812669D01*
X89631093Y-77848633D01*
X89619816Y-77851575D01*
X89571772Y-77861132D01*
X89571766Y-77861134D01*
X89505451Y-77905445D01*
X89505445Y-77905451D01*
X89461134Y-77971766D01*
X89461132Y-77971772D01*
X89449501Y-78030241D01*
X89449500Y-78030253D01*
X89449500Y-78719746D01*
X89449501Y-78719758D01*
X89461132Y-78778227D01*
X89461134Y-78778233D01*
X89505445Y-78844548D01*
X89505448Y-78844552D01*
X89571769Y-78888867D01*
X89616231Y-78897711D01*
X89630241Y-78900498D01*
X89630246Y-78900498D01*
X89630252Y-78900500D01*
X89630253Y-78900500D01*
X90319747Y-78900500D01*
X90319748Y-78900500D01*
X90324418Y-78899570D01*
X90380685Y-78888379D01*
X90419314Y-78888378D01*
X90421767Y-78888866D01*
X90421769Y-78888867D01*
X90480252Y-78900500D01*
X90480255Y-78900500D01*
X90482552Y-78900957D01*
X90535936Y-78930854D01*
X90561552Y-78986419D01*
X90554698Y-79035951D01*
X90552942Y-79040189D01*
X90513200Y-79086710D01*
X90480797Y-79099391D01*
X90419315Y-79111621D01*
X90380686Y-79111621D01*
X90319751Y-79099500D01*
X90319748Y-79099500D01*
X89630252Y-79099500D01*
X89630251Y-79099500D01*
X89630241Y-79099501D01*
X89571772Y-79111132D01*
X89571766Y-79111134D01*
X89505451Y-79155445D01*
X89505445Y-79155451D01*
X89461134Y-79221766D01*
X89461132Y-79221772D01*
X89449501Y-79280241D01*
X89449500Y-79280253D01*
X89449500Y-79743998D01*
X89432365Y-79799667D01*
X89379801Y-79876966D01*
X89331445Y-79914454D01*
X89323561Y-79916923D01*
X89284543Y-79927378D01*
X89176112Y-79989980D01*
X89087581Y-80078511D01*
X89024981Y-80186938D01*
X89014179Y-80227250D01*
X88992576Y-80307874D01*
X88992576Y-80433076D01*
X89024981Y-80554011D01*
X89087581Y-80662439D01*
X89176112Y-80750970D01*
X89284540Y-80813570D01*
X89405475Y-80845975D01*
X89405477Y-80845975D01*
X89530675Y-80845975D01*
X89530677Y-80845975D01*
X89651612Y-80813570D01*
X89760040Y-80750970D01*
X89848571Y-80662439D01*
X89911171Y-80554011D01*
X89943576Y-80433076D01*
X89943576Y-80325001D01*
X89960709Y-80269334D01*
X90012055Y-80193828D01*
X90060410Y-80156343D01*
X90093918Y-80150500D01*
X90319747Y-80150500D01*
X90319748Y-80150500D01*
X90324418Y-80149570D01*
X90380685Y-80138379D01*
X90419315Y-80138379D01*
X90480241Y-80150498D01*
X90480246Y-80150498D01*
X90480252Y-80150500D01*
X90480253Y-80150500D01*
X91169747Y-80150500D01*
X91169748Y-80150500D01*
X91228231Y-80138867D01*
X91294552Y-80094552D01*
X91338867Y-80028231D01*
X91350500Y-79969748D01*
X91350500Y-79634108D01*
X91777000Y-79634108D01*
X91777000Y-79765892D01*
X91799030Y-79848108D01*
X91811109Y-79893190D01*
X91876996Y-80007309D01*
X91876998Y-80007311D01*
X91877000Y-80007314D01*
X91970186Y-80100500D01*
X91970188Y-80100501D01*
X91973004Y-80103317D01*
X92000781Y-80157834D01*
X92002000Y-80173321D01*
X92002000Y-81356979D01*
X91983093Y-81415170D01*
X91973004Y-81426983D01*
X91970188Y-81429798D01*
X91970186Y-81429800D01*
X91893177Y-81506809D01*
X91876997Y-81522989D01*
X91876996Y-81522990D01*
X91811109Y-81637109D01*
X91792039Y-81708278D01*
X91777000Y-81764408D01*
X91777000Y-81896192D01*
X91806773Y-82007309D01*
X91811109Y-82023490D01*
X91876996Y-82137609D01*
X91876998Y-82137611D01*
X91877000Y-82137614D01*
X91970186Y-82230800D01*
X91970188Y-82230801D01*
X91970190Y-82230803D01*
X92084310Y-82296690D01*
X92084308Y-82296690D01*
X92084312Y-82296691D01*
X92084314Y-82296692D01*
X92211608Y-82330800D01*
X92211610Y-82330800D01*
X92343390Y-82330800D01*
X92343392Y-82330800D01*
X92470686Y-82296692D01*
X92470688Y-82296690D01*
X92470690Y-82296690D01*
X92584809Y-82230803D01*
X92584809Y-82230802D01*
X92584814Y-82230800D01*
X92678000Y-82137614D01*
X92743892Y-82023486D01*
X92778000Y-81896192D01*
X92778000Y-81764408D01*
X92743892Y-81637114D01*
X92743890Y-81637111D01*
X92743890Y-81637109D01*
X92678003Y-81522990D01*
X92678001Y-81522988D01*
X92678000Y-81522986D01*
X92584814Y-81429800D01*
X92584811Y-81429798D01*
X92581996Y-81426983D01*
X92554219Y-81372466D01*
X92553000Y-81356979D01*
X92553000Y-80173321D01*
X92571907Y-80115130D01*
X92581996Y-80103317D01*
X92584811Y-80100501D01*
X92584814Y-80100500D01*
X92678000Y-80007314D01*
X92724151Y-79927378D01*
X92743890Y-79893190D01*
X92743890Y-79893188D01*
X92743892Y-79893186D01*
X92778000Y-79765892D01*
X92778000Y-79634108D01*
X92743892Y-79506814D01*
X92743890Y-79506811D01*
X92743890Y-79506809D01*
X92678003Y-79392690D01*
X92678001Y-79392688D01*
X92678000Y-79392686D01*
X92584814Y-79299500D01*
X92584811Y-79299498D01*
X92584809Y-79299496D01*
X92470689Y-79233609D01*
X92470691Y-79233609D01*
X92421299Y-79220375D01*
X92343392Y-79199500D01*
X92211608Y-79199500D01*
X92133700Y-79220375D01*
X92084309Y-79233609D01*
X91970190Y-79299496D01*
X91876996Y-79392690D01*
X91811109Y-79506809D01*
X91811108Y-79506814D01*
X91777000Y-79634108D01*
X91350500Y-79634108D01*
X91350500Y-79443167D01*
X91369407Y-79384976D01*
X91411615Y-79351703D01*
X91447458Y-79336857D01*
X91524957Y-79259358D01*
X92660557Y-78123758D01*
X92676818Y-78084500D01*
X92676817Y-78084500D01*
X92676819Y-78084499D01*
X92689281Y-78054412D01*
X92700600Y-78027086D01*
X92729744Y-77989107D01*
X92729725Y-77989088D01*
X92729874Y-77988938D01*
X92731804Y-77986424D01*
X92734301Y-77984507D01*
X92734314Y-77984500D01*
X92827500Y-77891314D01*
X92827503Y-77891309D01*
X92893390Y-77777190D01*
X92893390Y-77777188D01*
X92893392Y-77777186D01*
X92927500Y-77649892D01*
X92927500Y-77518108D01*
X92893392Y-77390814D01*
X92893390Y-77390811D01*
X92893390Y-77390809D01*
X92827503Y-77276690D01*
X92827501Y-77276688D01*
X92827500Y-77276686D01*
X92734314Y-77183500D01*
X92734311Y-77183498D01*
X92734309Y-77183496D01*
X92620189Y-77117609D01*
X92620191Y-77117609D01*
X92570799Y-77104375D01*
X92492892Y-77083500D01*
X92361108Y-77083500D01*
X92283200Y-77104375D01*
X92233809Y-77117609D01*
X92119690Y-77183496D01*
X92026496Y-77276690D01*
X91960609Y-77390809D01*
X91926500Y-77518109D01*
X91926500Y-77524595D01*
X91907593Y-77582786D01*
X91858093Y-77618750D01*
X91796907Y-77618750D01*
X91789618Y-77616061D01*
X91785387Y-77614308D01*
X91742954Y-77602938D01*
X91658092Y-77580200D01*
X91526308Y-77580200D01*
X91448400Y-77601075D01*
X91399009Y-77614309D01*
X91284890Y-77680196D01*
X91191698Y-77773388D01*
X91176335Y-77799999D01*
X91130866Y-77840941D01*
X91090598Y-77849500D01*
X90480248Y-77849500D01*
X90419314Y-77861621D01*
X90380686Y-77861621D01*
X90330186Y-77851576D01*
X90276802Y-77821679D01*
X90251186Y-77766114D01*
X90250500Y-77754478D01*
X90250500Y-75230800D01*
X90208557Y-75129542D01*
X90208557Y-75129541D01*
X90208556Y-75129540D01*
X89918896Y-74839879D01*
X89891119Y-74785363D01*
X89889900Y-74769876D01*
X89889900Y-74634109D01*
X89889900Y-74634108D01*
X89855792Y-74506814D01*
X89855790Y-74506811D01*
X89855790Y-74506809D01*
X89789903Y-74392690D01*
X89789901Y-74392688D01*
X89789900Y-74392686D01*
X89696714Y-74299500D01*
X89696711Y-74299498D01*
X89696709Y-74299496D01*
X89582589Y-74233609D01*
X89582591Y-74233609D01*
X89521178Y-74217154D01*
X89455292Y-74199500D01*
X89323508Y-74199500D01*
X89257622Y-74217154D01*
X89196209Y-74233609D01*
X89082090Y-74299496D01*
X88988896Y-74392690D01*
X88923009Y-74506809D01*
X88923008Y-74506814D01*
X88888900Y-74634108D01*
X87921300Y-74634108D01*
X87921300Y-74173321D01*
X87940207Y-74115130D01*
X87950296Y-74103317D01*
X87953111Y-74100501D01*
X87953114Y-74100500D01*
X88046300Y-74007314D01*
X88112192Y-73893186D01*
X88146300Y-73765892D01*
X88146300Y-73634108D01*
X88112192Y-73506814D01*
X88112190Y-73506811D01*
X88112190Y-73506809D01*
X88046303Y-73392690D01*
X88046301Y-73392688D01*
X88046300Y-73392686D01*
X87953114Y-73299500D01*
X87953111Y-73299498D01*
X87953109Y-73299496D01*
X87838989Y-73233609D01*
X87838991Y-73233609D01*
X87789599Y-73220375D01*
X87711692Y-73199500D01*
X87682986Y-73199500D01*
X87624795Y-73180593D01*
X87588831Y-73131093D01*
X87588831Y-73069907D01*
X87624795Y-73020407D01*
X87642119Y-73010329D01*
X88603181Y-72574877D01*
X88604231Y-72574411D01*
X88632930Y-72561919D01*
X88636078Y-72560615D01*
X88665268Y-72549130D01*
X88666216Y-72548765D01*
X90311795Y-71929413D01*
X90313517Y-71928785D01*
X90518337Y-71856529D01*
X90522411Y-71855194D01*
X92143678Y-71363387D01*
X92146067Y-71362697D01*
X92429805Y-71284858D01*
X92433387Y-71283948D01*
X94048636Y-70907326D01*
X94051602Y-70906685D01*
X94362072Y-70844929D01*
X94365059Y-70844385D01*
X95484875Y-70659503D01*
X95545367Y-70668679D01*
X95588914Y-70711660D01*
X95600000Y-70757181D01*
X95600000Y-75800000D01*
X95600001Y-75800000D01*
X104399999Y-75800000D01*
X104400000Y-75800000D01*
X104400000Y-70757181D01*
X104418907Y-70698990D01*
X104468407Y-70663026D01*
X104515123Y-70659503D01*
X105634863Y-70844373D01*
G37*
%TD.AperFunction*%
%TD*%
M02*
