%TF.GenerationSoftware,KiCad,Pcbnew,10.0.5*%
%TF.CreationDate,2026-10-08T22:24:26-04:00*%
%TF.ProjectId,radar60,72616461-7236-4302-9e6b-696361645f70,A*%
%TF.SameCoordinates,Original*%
%TF.FileFunction,Paste,Top*%
%TF.FilePolarity,Positive*%
%FSLAX46Y46*%
G04 Gerber Fmt 4.6, Leading zero omitted, Abs format (unit mm)*
G04 Created by KiCad (PCBNEW 10.0.5) date 2026-10-08 22:24:26*
%MOMM*%
%LPD*%
G01*
G04 APERTURE LIST*
G04 Aperture macros list*
%AMRoundRect*
0 Rectangle with rounded corners*
0 $1 Rounding radius*
0 $2 $3 $4 $5 $6 $7 $8 $9 X,Y pos of 4 corners*
0 Add a 4 corners polygon primitive as box body*
4,1,4,$2,$3,$4,$5,$6,$7,$8,$9,$2,$3,0*
0 Add four circle primitives for the rounded corners*
1,1,$1+$1,$2,$3*
1,1,$1+$1,$4,$5*
1,1,$1+$1,$6,$7*
1,1,$1+$1,$8,$9*
0 Add four rect primitives between the rounded corners*
20,1,$1+$1,$2,$3,$4,$5,0*
20,1,$1+$1,$4,$5,$6,$7,0*
20,1,$1+$1,$6,$7,$8,$9,0*
20,1,$1+$1,$8,$9,$2,$3,0*%
G04 Aperture macros list end*
%ADD10RoundRect,0.135000X0.135000X0.185000X-0.135000X0.185000X-0.135000X-0.185000X0.135000X-0.185000X0*%
%ADD11RoundRect,0.250000X0.625000X-0.375000X0.625000X0.375000X-0.625000X0.375000X-0.625000X-0.375000X0*%
%ADD12RoundRect,0.140000X-0.140000X-0.170000X0.140000X-0.170000X0.140000X0.170000X-0.140000X0.170000X0*%
%ADD13RoundRect,0.250000X0.475000X-0.250000X0.475000X0.250000X-0.475000X0.250000X-0.475000X-0.250000X0*%
%ADD14RoundRect,0.218750X0.218750X0.256250X-0.218750X0.256250X-0.218750X-0.256250X0.218750X-0.256250X0*%
%ADD15RoundRect,0.150000X-0.512500X-0.150000X0.512500X-0.150000X0.512500X0.150000X-0.512500X0.150000X0*%
%ADD16RoundRect,0.250000X0.275000X0.275000X-0.275000X0.275000X-0.275000X-0.275000X0.275000X-0.275000X0*%
%ADD17RoundRect,0.062500X0.350000X0.062500X-0.350000X0.062500X-0.350000X-0.062500X0.350000X-0.062500X0*%
%ADD18RoundRect,0.062500X0.062500X0.350000X-0.062500X0.350000X-0.062500X-0.350000X0.062500X-0.350000X0*%
%ADD19R,1.700000X1.000000*%
%ADD20RoundRect,0.250000X-0.475000X0.250000X-0.475000X-0.250000X0.475000X-0.250000X0.475000X0.250000X0*%
%ADD21RoundRect,0.100000X-0.100000X0.637500X-0.100000X-0.637500X0.100000X-0.637500X0.100000X0.637500X0*%
%ADD22RoundRect,0.218750X0.256250X-0.218750X0.256250X0.218750X-0.256250X0.218750X-0.256250X-0.218750X0*%
%ADD23RoundRect,0.140000X0.170000X-0.140000X0.170000X0.140000X-0.170000X0.140000X-0.170000X-0.140000X0*%
%ADD24RoundRect,0.135000X0.185000X-0.135000X0.185000X0.135000X-0.185000X0.135000X-0.185000X-0.135000X0*%
%ADD25RoundRect,0.140000X-0.170000X0.140000X-0.170000X-0.140000X0.170000X-0.140000X0.170000X0.140000X0*%
%ADD26RoundRect,0.160000X-0.245000X-0.160000X0.245000X-0.160000X0.245000X0.160000X-0.245000X0.160000X0*%
%ADD27RoundRect,0.093750X-0.093750X-0.106250X0.093750X-0.106250X0.093750X0.106250X-0.093750X0.106250X0*%
%ADD28RoundRect,0.135000X-0.185000X0.135000X-0.185000X-0.135000X0.185000X-0.135000X0.185000X0.135000X0*%
%ADD29RoundRect,0.250000X-0.250000X-0.475000X0.250000X-0.475000X0.250000X0.475000X-0.250000X0.475000X0*%
%ADD30RoundRect,0.150000X0.150000X-0.512500X0.150000X0.512500X-0.150000X0.512500X-0.150000X-0.512500X0*%
%ADD31RoundRect,0.218750X-0.218750X-0.256250X0.218750X-0.256250X0.218750X0.256250X-0.218750X0.256250X0*%
%ADD32R,2.400000X0.600000*%
%ADD33R,0.600000X2.400000*%
%ADD34RoundRect,0.135000X-0.135000X-0.185000X0.135000X-0.185000X0.135000X0.185000X-0.135000X0.185000X0*%
%ADD35RoundRect,0.075000X-0.075000X-0.425000X0.075000X-0.425000X0.075000X0.425000X-0.075000X0.425000X0*%
%ADD36C,1.100000*%
G04 APERTURE END LIST*
D10*
%TO.C,R11*%
X91110000Y-75700000D03*
X90090000Y-75700000D03*
%TD*%
D11*
%TO.C,F1*%
X108600000Y-123200000D03*
X108600000Y-120400000D03*
%TD*%
D12*
%TO.C,C18*%
X103120000Y-88300000D03*
X104080000Y-88300000D03*
%TD*%
D13*
%TO.C,C2*%
X117400000Y-120750000D03*
X117400000Y-118850000D03*
%TD*%
D14*
%TO.C,FB6*%
X112887500Y-108700000D03*
X111312500Y-108700000D03*
%TD*%
D15*
%TO.C,U4*%
X92862500Y-106050000D03*
X92862500Y-107000000D03*
X92862500Y-107950000D03*
X95137500Y-107950000D03*
X95137500Y-106050000D03*
%TD*%
D12*
%TO.C,C25*%
X89220000Y-109200000D03*
X90180000Y-109200000D03*
%TD*%
D16*
%TO.C,U5*%
X86650000Y-112650000D03*
X86650000Y-111350000D03*
X85350000Y-112650000D03*
X85350000Y-111350000D03*
D17*
X87937500Y-113250000D03*
X87937500Y-112750000D03*
X87937500Y-112250000D03*
X87937500Y-111750000D03*
X87937500Y-111250000D03*
X87937500Y-110750000D03*
D18*
X87250000Y-110062500D03*
X86750000Y-110062500D03*
X86250000Y-110062500D03*
X85750000Y-110062500D03*
X85250000Y-110062500D03*
X84750000Y-110062500D03*
D17*
X84062500Y-110750000D03*
X84062500Y-111250000D03*
X84062500Y-111750000D03*
X84062500Y-112250000D03*
X84062500Y-112750000D03*
X84062500Y-113250000D03*
D18*
X84750000Y-113937500D03*
X85250000Y-113937500D03*
X85750000Y-113937500D03*
X86250000Y-113937500D03*
X86750000Y-113937500D03*
X87250000Y-113937500D03*
%TD*%
D12*
%TO.C,C38*%
X94520000Y-100200000D03*
X95480000Y-100200000D03*
%TD*%
D19*
%TO.C,SW2*%
X113450000Y-84100000D03*
X119750000Y-84100000D03*
X113450000Y-87900000D03*
X119750000Y-87900000D03*
%TD*%
D20*
%TO.C,C32*%
X109400000Y-105100000D03*
X109400000Y-107000000D03*
%TD*%
D21*
%TO.C,U7*%
X101775000Y-88537500D03*
X101125000Y-88537500D03*
X100475000Y-88537500D03*
X99825000Y-88537500D03*
X99175000Y-88537500D03*
X98525000Y-88537500D03*
X97875000Y-88537500D03*
X97225000Y-88537500D03*
X97225000Y-94262500D03*
X97875000Y-94262500D03*
X98525000Y-94262500D03*
X99175000Y-94262500D03*
X99825000Y-94262500D03*
X100475000Y-94262500D03*
X101125000Y-94262500D03*
X101775000Y-94262500D03*
%TD*%
D12*
%TO.C,C24*%
X89220000Y-110300000D03*
X90180000Y-110300000D03*
%TD*%
D20*
%TO.C,C34*%
X109400000Y-108700000D03*
X109400000Y-110600000D03*
%TD*%
D22*
%TO.C,FB1*%
X100000000Y-114187500D03*
X100000000Y-112612500D03*
%TD*%
D23*
%TO.C,C26*%
X89700000Y-107680000D03*
X89700000Y-106720000D03*
%TD*%
D24*
%TO.C,R8*%
X88150000Y-107910000D03*
X88150000Y-106890000D03*
%TD*%
D25*
%TO.C,C9*%
X106500000Y-108700000D03*
X106500000Y-109660000D03*
%TD*%
%TO.C,C35*%
X107700000Y-108700000D03*
X107700000Y-109660000D03*
%TD*%
D14*
%TO.C,FB4*%
X112487500Y-101500000D03*
X110912500Y-101500000D03*
%TD*%
D25*
%TO.C,C31*%
X107300000Y-101500000D03*
X107300000Y-102460000D03*
%TD*%
D26*
%TO.C,U3*%
X114400000Y-119400000D03*
X114400000Y-120200000D03*
D27*
X113512500Y-119150000D03*
X113512500Y-119800000D03*
X113512500Y-120450000D03*
X115287500Y-120450000D03*
X115287500Y-119800000D03*
X115287500Y-119150000D03*
%TD*%
D28*
%TO.C,R9*%
X85200000Y-104790000D03*
X85200000Y-105810000D03*
%TD*%
D12*
%TO.C,C23*%
X93520000Y-88000000D03*
X94480000Y-88000000D03*
%TD*%
D28*
%TO.C,R2*%
X101400000Y-122890000D03*
X101400000Y-123910000D03*
%TD*%
D29*
%TO.C,C27*%
X100000000Y-110900000D03*
X101900000Y-110900000D03*
%TD*%
%TO.C,C22*%
X90250000Y-88000000D03*
X92150000Y-88000000D03*
%TD*%
D23*
%TO.C,C39*%
X106200000Y-117880000D03*
X106200000Y-116920000D03*
%TD*%
D12*
%TO.C,C19*%
X101920000Y-95900000D03*
X102880000Y-95900000D03*
%TD*%
D30*
%TO.C,U6*%
X91450000Y-119137500D03*
X92400000Y-119137500D03*
X93350000Y-119137500D03*
X93350000Y-116862500D03*
X92400000Y-116862500D03*
X91450000Y-116862500D03*
%TD*%
D25*
%TO.C,C11*%
X105400000Y-96900000D03*
X105400000Y-97860000D03*
%TD*%
D31*
%TO.C,FB8*%
X94212500Y-98600000D03*
X95787500Y-98600000D03*
%TD*%
D32*
%TO.C,U2*%
X94350000Y-71700000D03*
X94350000Y-72700000D03*
X94350000Y-73700000D03*
X94350000Y-74700000D03*
X94350000Y-75700000D03*
X94350000Y-76700000D03*
X94350000Y-77700000D03*
X94350000Y-78700000D03*
X94350000Y-79700000D03*
X94350000Y-80700000D03*
X94350000Y-81700000D03*
X94350000Y-82700000D03*
X94350000Y-83700000D03*
X94350000Y-84700000D03*
D33*
X96500000Y-85200000D03*
X97500000Y-85200000D03*
X98500000Y-85200000D03*
X99500000Y-85200000D03*
X100500000Y-85200000D03*
X101500000Y-85200000D03*
X102500000Y-85200000D03*
X103500000Y-85200000D03*
D32*
X105650000Y-84700000D03*
X105650000Y-83700000D03*
X105650000Y-82700000D03*
X105650000Y-81700000D03*
X105650000Y-80700000D03*
X105650000Y-79700000D03*
X105650000Y-78700000D03*
X105650000Y-77700000D03*
X105650000Y-76700000D03*
X105650000Y-75700000D03*
X105650000Y-74700000D03*
X105650000Y-73700000D03*
X105650000Y-72700000D03*
X105650000Y-71700000D03*
%TD*%
D34*
%TO.C,R13*%
X105490000Y-88300000D03*
X106510000Y-88300000D03*
%TD*%
D13*
%TO.C,C4*%
X97400000Y-107950000D03*
X97400000Y-106050000D03*
%TD*%
D25*
%TO.C,C33*%
X107700000Y-105100000D03*
X107700000Y-106060000D03*
%TD*%
D12*
%TO.C,C8*%
X100000000Y-109400000D03*
X100960000Y-109400000D03*
%TD*%
D24*
%TO.C,R1*%
X98600000Y-115110000D03*
X98600000Y-114090000D03*
%TD*%
D25*
%TO.C,C10*%
X106500000Y-105100000D03*
X106500000Y-106060000D03*
%TD*%
D24*
%TO.C,R14*%
X95200000Y-96110000D03*
X95200000Y-95090000D03*
%TD*%
D25*
%TO.C,C14*%
X106200000Y-93200000D03*
X106200000Y-94160000D03*
%TD*%
D28*
%TO.C,R7*%
X86950000Y-106890000D03*
X86950000Y-107910000D03*
%TD*%
D12*
%TO.C,C5*%
X100000000Y-107000000D03*
X100960000Y-107000000D03*
%TD*%
D24*
%TO.C,R15*%
X94000000Y-96110000D03*
X94000000Y-95090000D03*
%TD*%
D14*
%TO.C,FB2*%
X111787500Y-96900000D03*
X110212500Y-96900000D03*
%TD*%
D10*
%TO.C,R10*%
X91110000Y-76700000D03*
X90090000Y-76700000D03*
%TD*%
D23*
%TO.C,C3*%
X91000000Y-106480000D03*
X91000000Y-105520000D03*
%TD*%
D25*
%TO.C,C15*%
X106100000Y-101500000D03*
X106100000Y-102460000D03*
%TD*%
D19*
%TO.C,SW1*%
X80250000Y-91100000D03*
X86550000Y-91100000D03*
X80250000Y-94900000D03*
X86550000Y-94900000D03*
%TD*%
D20*
%TO.C,C29*%
X107900000Y-93200000D03*
X107900000Y-95100000D03*
%TD*%
D13*
%TO.C,C1*%
X111600000Y-120750000D03*
X111600000Y-118850000D03*
%TD*%
D25*
%TO.C,C7*%
X104600000Y-99250000D03*
X104600000Y-100210000D03*
%TD*%
D10*
%TO.C,R12*%
X91110000Y-74700000D03*
X90090000Y-74700000D03*
%TD*%
D20*
%TO.C,C30*%
X109000000Y-101500000D03*
X109000000Y-103400000D03*
%TD*%
D25*
%TO.C,C13*%
X105000000Y-93200000D03*
X105000000Y-94160000D03*
%TD*%
D24*
%TO.C,R3*%
X91400000Y-109310000D03*
X91400000Y-108290000D03*
%TD*%
D35*
%TO.C,J1*%
X97220000Y-118240000D03*
X98010000Y-118240000D03*
X98800000Y-118240000D03*
X99590000Y-118240000D03*
X100380000Y-118240000D03*
X101170000Y-118240000D03*
X101960000Y-118240000D03*
X102750000Y-118240000D03*
X102750000Y-119760000D03*
X101960000Y-119760000D03*
X101170000Y-119760000D03*
X100380000Y-119760000D03*
X99590000Y-119760000D03*
X98800000Y-119760000D03*
X98010000Y-119760000D03*
X97220000Y-119760000D03*
D36*
X97600000Y-116850000D03*
X97600000Y-121150000D03*
X102400000Y-116850000D03*
X102400000Y-121150000D03*
%TD*%
D14*
%TO.C,FB3*%
X111387500Y-93200000D03*
X109812500Y-93200000D03*
%TD*%
D20*
%TO.C,C28*%
X108300000Y-96900000D03*
X108300000Y-98800000D03*
%TD*%
D14*
%TO.C,FB5*%
X112887500Y-105100000D03*
X111312500Y-105100000D03*
%TD*%
D25*
%TO.C,C12*%
X106600000Y-96900000D03*
X106600000Y-97860000D03*
%TD*%
D12*
%TO.C,C6*%
X100000000Y-108200000D03*
X100960000Y-108200000D03*
%TD*%
M02*
