%TF.GenerationSoftware,KiCad,Pcbnew,10.0.5*%
%TF.CreationDate,2026-10-08T22:24:26-04:00*%
%TF.ProjectId,radar60,72616461-7236-4302-9e6b-696361645f70,A*%
%TF.SameCoordinates,Original*%
%TF.FileFunction,Copper,L2,Inr*%
%TF.FilePolarity,Positive*%
%FSLAX46Y46*%
G04 Gerber Fmt 4.6, Leading zero omitted, Abs format (unit mm)*
G04 Created by KiCad (PCBNEW 10.0.5) date 2026-10-08 22:24:26*
%MOMM*%
%LPD*%
G01*
G04 APERTURE LIST*
%TA.AperFunction,ComponentPad*%
%ADD10C,1.100000*%
%TD*%
%TA.AperFunction,ViaPad*%
%ADD11C,0.600000*%
%TD*%
%TA.AperFunction,ViaPad*%
%ADD12C,0.550000*%
%TD*%
G04 APERTURE END LIST*
D10*
%TO.N,/GND*%
%TO.C,J1*%
X97600000Y-116850000D03*
X97600000Y-121150000D03*
X102400000Y-116850000D03*
X102400000Y-121150000D03*
%TD*%
D11*
%TO.N,/LED_GK*%
X91592200Y-78080700D03*
D12*
%TO.N,/VBUS*%
X98550000Y-121000000D03*
X92400000Y-115412500D03*
D11*
X90258700Y-105365400D03*
D12*
X101449999Y-117000000D03*
%TO.N,/+3V3*%
X89220000Y-111060000D03*
X87541928Y-108460656D03*
X93197185Y-87220657D03*
X91979232Y-105312326D03*
X114564206Y-93858360D03*
X102491639Y-87635793D03*
X89700000Y-108410000D03*
X112932077Y-118724902D03*
X95734851Y-86664712D03*
X117400000Y-121700000D03*
X89300000Y-88000000D03*
X85472466Y-83144932D03*
X88606801Y-108586801D03*
X113261948Y-102274448D03*
X104876801Y-87686801D03*
X120550000Y-116200000D03*
X87785651Y-109916791D03*
X89468076Y-80370475D03*
X102390000Y-88300000D03*
X100397832Y-87341141D03*
X113355657Y-92283399D03*
X85200000Y-104070000D03*
X101273773Y-87340174D03*
X88414839Y-110169706D03*
X91000000Y-107210000D03*
%TO.N,/GND*%
X109400000Y-111550000D03*
X107700000Y-106790000D03*
X95210000Y-88000000D03*
X104693198Y-88913198D03*
X79020285Y-95641732D03*
X87000000Y-112000000D03*
X106100000Y-103190000D03*
X90910000Y-110300000D03*
X98250000Y-105800000D03*
X120979714Y-88641732D03*
X96700000Y-99200000D03*
X103451474Y-118046138D03*
X106200000Y-94890000D03*
X108300000Y-99750000D03*
X112220285Y-88641732D03*
X92740534Y-72198908D03*
X96508360Y-87635793D03*
X86000000Y-113000000D03*
X122350000Y-100000000D03*
X88150000Y-106170000D03*
X101690000Y-107000000D03*
X107253121Y-73183756D03*
X93353118Y-85793923D03*
X86000000Y-111000000D03*
X114928273Y-121075365D03*
X114400000Y-121500000D03*
X85000000Y-112000000D03*
X101400000Y-124630000D03*
X96244342Y-99883399D03*
X79550000Y-100000000D03*
X96519174Y-119951592D03*
X93080698Y-88930698D03*
X107035793Y-99841639D03*
X115050561Y-118229404D03*
X100400000Y-101800000D03*
X91000000Y-104789999D03*
X91750000Y-107000000D03*
X112700000Y-119800000D03*
X102850000Y-110900000D03*
X105000000Y-94890000D03*
X100400000Y-103200000D03*
X96050000Y-100750000D03*
X108469301Y-107930698D03*
X107700000Y-110390000D03*
X101690000Y-108200000D03*
X112932077Y-120875097D03*
X106600000Y-98590000D03*
X108069301Y-104330698D03*
X111000000Y-100440000D03*
X106500000Y-110390000D03*
X91949629Y-118050209D03*
X117400000Y-117899999D03*
X96519174Y-118048407D03*
X88818198Y-112818198D03*
X107003319Y-103839007D03*
X109133858Y-97902167D03*
X105400000Y-98590000D03*
X106500000Y-106790000D03*
X98600000Y-113370000D03*
X101600000Y-103200000D03*
X101690000Y-109400000D03*
X96050000Y-102500000D03*
X85934347Y-79430217D03*
X97400000Y-105100000D03*
X106688651Y-95601757D03*
X113749438Y-118229404D03*
X90502814Y-108420657D03*
X116167766Y-121567766D03*
X96050000Y-104250000D03*
X106646881Y-85793923D03*
X89700000Y-105990000D03*
X107313694Y-75587692D03*
X114858858Y-95952167D03*
X101600000Y-101800000D03*
X103451474Y-119953861D03*
X92400000Y-120587500D03*
X106200000Y-116190000D03*
X86000000Y-112000000D03*
X99000000Y-101800000D03*
X87779714Y-95641732D03*
X116500000Y-119800000D03*
X111600000Y-117899999D03*
X96508360Y-95164206D03*
X109244342Y-92283399D03*
X107975837Y-72420972D03*
X99000000Y-103200000D03*
X107369024Y-71961429D03*
X107300000Y-103190000D03*
X115810000Y-92600000D03*
X109900000Y-100440000D03*
X106511202Y-99284688D03*
X92369118Y-108691421D03*
X101750000Y-105800000D03*
X103839999Y-100210000D03*
X116230000Y-101200000D03*
X114859825Y-95076226D03*
X103202814Y-95120657D03*
X114564206Y-99841639D03*
D11*
%TO.N,/+1V8_RAD*%
X112900000Y-106900000D03*
D12*
%TO.N,/+1V8_VCO*%
X103950000Y-103100000D03*
D11*
%TO.N,/RADAR_PWR_EN*%
X93969200Y-107950000D03*
X98197500Y-81700000D03*
D12*
%TO.N,/USB_DP*%
X100380000Y-121260000D03*
X99590000Y-117039999D03*
D11*
%TO.N,/VCOM_TX*%
X90391300Y-82700000D03*
X90391300Y-99159400D03*
%TO.N,/VCOM_RX*%
X92427000Y-83700000D03*
X92425400Y-100045200D03*
%TO.N,/+1V8_IO*%
X103315400Y-94262500D03*
X97497500Y-97066200D03*
D12*
%TO.N,/+1V8_PLL*%
X104950000Y-102300000D03*
D11*
%TO.N,/SPI_CS*%
X101259100Y-89795200D03*
%TO.N,/SPI_MOSI*%
X98333000Y-89847400D03*
%TO.N,/SPI_SCLK*%
X96082400Y-88236900D03*
D12*
%TO.N,/RAD_CLK*%
X97750000Y-99250000D03*
%TO.N,/RAD_DI*%
X98750000Y-99250000D03*
%TO.N,/RAD_DIO3*%
X99750000Y-99250000D03*
%TO.N,/RAD_CS_N*%
X100250000Y-98450000D03*
D11*
%TO.N,/RAD_OE_N*%
X108000000Y-91534600D03*
D12*
%TO.N,/+1V8_RF*%
X100000000Y-105800000D03*
X103100000Y-99250000D03*
%TO.N,/+3V3_LF*%
X103950000Y-101500000D03*
%TO.N,/+1V8_A*%
X101450000Y-98450000D03*
D11*
%TO.N,/SWDIO*%
X92277500Y-79700000D03*
X92277500Y-81830300D03*
%TO.N,/SWO*%
X85880900Y-81333600D03*
X83180500Y-80314500D03*
%TO.N,/BTN*%
X87645800Y-73700000D03*
X87645800Y-90223100D03*
%TO.N,/SPI_MISO*%
X111433800Y-86596700D03*
%TO.N,/RAD_IRQ_3V3*%
X112648400Y-89668100D03*
D12*
%TO.N,/+1V8_D*%
X100750000Y-99250000D03*
D11*
%TO.N,/LED_RK*%
X92427000Y-77584000D03*
%TO.N,/LED_BK*%
X89389400Y-74700000D03*
%TD*%
%TA.AperFunction,Conductor*%
%TO.N,/GND*%
G36*
X105634863Y-70844373D02*
G01*
X105637994Y-70844943D01*
X105948386Y-70906684D01*
X105951399Y-70907334D01*
X107566567Y-71283938D01*
X107570204Y-71284861D01*
X107740656Y-71331622D01*
X107853897Y-71362689D01*
X107856389Y-71363408D01*
X109477536Y-71855178D01*
X109481684Y-71856538D01*
X109686451Y-71928776D01*
X109688293Y-71929447D01*
X111333551Y-72548678D01*
X111334880Y-72549190D01*
X111363863Y-72560593D01*
X111367128Y-72561946D01*
X111395645Y-72574359D01*
X111396977Y-72574950D01*
X112998202Y-73300455D01*
X113000032Y-73301308D01*
X113195884Y-73395011D01*
X113199759Y-73396972D01*
X114693864Y-74195588D01*
X114696068Y-74196805D01*
X114876404Y-74299496D01*
X114951679Y-74342361D01*
X114954969Y-74344319D01*
X116363276Y-75220061D01*
X116365998Y-75221816D01*
X116380103Y-75231241D01*
X116629105Y-75397618D01*
X116631682Y-75399402D01*
X117979746Y-76365411D01*
X117982774Y-76367670D01*
X118215084Y-76548134D01*
X118217089Y-76549735D01*
X119519687Y-77618750D01*
X119526646Y-77624461D01*
X119529998Y-77627339D01*
X119691449Y-77772364D01*
X119692968Y-77773757D01*
X120976028Y-78975473D01*
X120977093Y-78976487D01*
X120999444Y-78998053D01*
X121001928Y-79000536D01*
X121015198Y-79014288D01*
X121023510Y-79022903D01*
X121024523Y-79023968D01*
X121369869Y-79392690D01*
X122094518Y-80166390D01*
X122226265Y-80307054D01*
X122227658Y-80308574D01*
X122372647Y-80469988D01*
X122375525Y-80473339D01*
X123450240Y-81782881D01*
X123451894Y-81784952D01*
X123632310Y-82017200D01*
X123634594Y-82020261D01*
X124578186Y-83337043D01*
X124600570Y-83368279D01*
X124602402Y-83370926D01*
X124629583Y-83411605D01*
X124778176Y-83633991D01*
X124779931Y-83636713D01*
X125655671Y-85045017D01*
X125657630Y-85048307D01*
X125803169Y-85303888D01*
X125804449Y-85306209D01*
X126603013Y-86800215D01*
X126605008Y-86804156D01*
X126698671Y-86999925D01*
X126699542Y-87001794D01*
X127425048Y-88603022D01*
X127425645Y-88604367D01*
X127438060Y-88632888D01*
X127439413Y-88636154D01*
X127450776Y-88665034D01*
X127451305Y-88666408D01*
X128070543Y-90311685D01*
X128071249Y-90313622D01*
X128143447Y-90518276D01*
X128144823Y-90522474D01*
X128636590Y-92143613D01*
X128637325Y-92146159D01*
X128715124Y-92429745D01*
X128716066Y-92433457D01*
X129092649Y-94048540D01*
X129093333Y-94051706D01*
X129155045Y-94361952D01*
X129155625Y-94365139D01*
X129425779Y-96001434D01*
X129426329Y-96005223D01*
X129462973Y-96296961D01*
X129463268Y-96299595D01*
X129629319Y-97985531D01*
X129629654Y-97989937D01*
X129641269Y-98206652D01*
X129641358Y-98208711D01*
X129698877Y-99965751D01*
X129698914Y-99967222D01*
X129699468Y-99998231D01*
X129699468Y-100001767D01*
X129698914Y-100032775D01*
X129698877Y-100034246D01*
X129641358Y-101791289D01*
X129641269Y-101793348D01*
X129629654Y-102010059D01*
X129629319Y-102014465D01*
X129463268Y-103700404D01*
X129462973Y-103703038D01*
X129426329Y-103994773D01*
X129425779Y-103998562D01*
X129155628Y-105634845D01*
X129155048Y-105638032D01*
X129093334Y-105948288D01*
X129092650Y-105951455D01*
X128716069Y-107566525D01*
X128715128Y-107570236D01*
X128637314Y-107853881D01*
X128636578Y-107856427D01*
X128144821Y-109477530D01*
X128143445Y-109481728D01*
X128071255Y-109686360D01*
X128070549Y-109688297D01*
X127451305Y-111333590D01*
X127450776Y-111334964D01*
X127439413Y-111363844D01*
X127438060Y-111367110D01*
X127425645Y-111395631D01*
X127425048Y-111396976D01*
X126699539Y-112998210D01*
X126698668Y-113000079D01*
X126605011Y-113195834D01*
X126603016Y-113199775D01*
X125804448Y-114693790D01*
X125803168Y-114696111D01*
X125657628Y-114951694D01*
X125655669Y-114954984D01*
X124779922Y-116363298D01*
X124778167Y-116366020D01*
X124602424Y-116629040D01*
X124600580Y-116631704D01*
X123634602Y-117979726D01*
X123632312Y-117982795D01*
X123451892Y-118215047D01*
X123450238Y-118217118D01*
X122375525Y-119526658D01*
X122372647Y-119530009D01*
X122227663Y-119691417D01*
X122226270Y-119692937D01*
X121024555Y-120975995D01*
X121023543Y-120977059D01*
X121001947Y-120999442D01*
X120999442Y-121001947D01*
X120977059Y-121023543D01*
X120975995Y-121024555D01*
X119692937Y-122226270D01*
X119691417Y-122227663D01*
X119530009Y-122372647D01*
X119526658Y-122375525D01*
X118217118Y-123450238D01*
X118215047Y-123451892D01*
X117982795Y-123632312D01*
X117979726Y-123634602D01*
X116631704Y-124600580D01*
X116629040Y-124602424D01*
X116366020Y-124778167D01*
X116363298Y-124779922D01*
X114954984Y-125655669D01*
X114951694Y-125657628D01*
X114696111Y-125803168D01*
X114693790Y-125804448D01*
X113199775Y-126603016D01*
X113195834Y-126605011D01*
X113000079Y-126698668D01*
X112998210Y-126699539D01*
X111396976Y-127425048D01*
X111395631Y-127425645D01*
X111367110Y-127438060D01*
X111363844Y-127439413D01*
X111334964Y-127450776D01*
X111333590Y-127451305D01*
X109688297Y-128070549D01*
X109686360Y-128071255D01*
X109481728Y-128143445D01*
X109477530Y-128144821D01*
X107856427Y-128636578D01*
X107853881Y-128637314D01*
X107570236Y-128715128D01*
X107566525Y-128716069D01*
X105951455Y-129092650D01*
X105948288Y-129093334D01*
X105638032Y-129155048D01*
X105634845Y-129155628D01*
X103998562Y-129425779D01*
X103994773Y-129426329D01*
X103703038Y-129462973D01*
X103700404Y-129463268D01*
X102014465Y-129629319D01*
X102010059Y-129629654D01*
X101793348Y-129641269D01*
X101791289Y-129641358D01*
X100034246Y-129698877D01*
X100032775Y-129698914D01*
X100001767Y-129699468D01*
X99998231Y-129699468D01*
X99967222Y-129698914D01*
X99965751Y-129698877D01*
X98208711Y-129641358D01*
X98206652Y-129641269D01*
X97989937Y-129629654D01*
X97985531Y-129629319D01*
X96299595Y-129463268D01*
X96296961Y-129462973D01*
X96005223Y-129426329D01*
X96001434Y-129425779D01*
X94365139Y-129155625D01*
X94361952Y-129155045D01*
X94051706Y-129093333D01*
X94048540Y-129092649D01*
X92433457Y-128716066D01*
X92429745Y-128715124D01*
X92146159Y-128637325D01*
X92143613Y-128636590D01*
X90522474Y-128144823D01*
X90518276Y-128143447D01*
X90313622Y-128071249D01*
X90311685Y-128070543D01*
X88666408Y-127451305D01*
X88665034Y-127450776D01*
X88636154Y-127439413D01*
X88632888Y-127438060D01*
X88604367Y-127425645D01*
X88603022Y-127425048D01*
X87001794Y-126699542D01*
X86999925Y-126698671D01*
X86804157Y-126605008D01*
X86800216Y-126603013D01*
X85306195Y-125804441D01*
X85303874Y-125803161D01*
X85048318Y-125657637D01*
X85045028Y-125655678D01*
X83636712Y-124779930D01*
X83633990Y-124778175D01*
X83442231Y-124650047D01*
X83370926Y-124602402D01*
X83368297Y-124600582D01*
X82020261Y-123634594D01*
X82017200Y-123632310D01*
X81784952Y-123451894D01*
X81784949Y-123451892D01*
X81784943Y-123451886D01*
X81782881Y-123450240D01*
X80473339Y-122375525D01*
X80469988Y-122372647D01*
X80308574Y-122227658D01*
X80307076Y-122226285D01*
X79596658Y-121560906D01*
X79023968Y-121024523D01*
X79022902Y-121023509D01*
X79000769Y-121002153D01*
X79000768Y-121002152D01*
X79000632Y-121002021D01*
X78998053Y-120999444D01*
X78976487Y-120977093D01*
X78975473Y-120976028D01*
X78939293Y-120937399D01*
X98074500Y-120937399D01*
X98074500Y-121062601D01*
X98106905Y-121183536D01*
X98169505Y-121291964D01*
X98258036Y-121380495D01*
X98366464Y-121443095D01*
X98487399Y-121475500D01*
X98487401Y-121475500D01*
X98612599Y-121475500D01*
X98612601Y-121475500D01*
X98733536Y-121443095D01*
X98841964Y-121380495D01*
X98930495Y-121291964D01*
X98985091Y-121197399D01*
X99904500Y-121197399D01*
X99904500Y-121322601D01*
X99936905Y-121443536D01*
X99999505Y-121551964D01*
X100088036Y-121640495D01*
X100196464Y-121703095D01*
X100317399Y-121735500D01*
X100317401Y-121735500D01*
X100442599Y-121735500D01*
X100442601Y-121735500D01*
X100563536Y-121703095D01*
X100671964Y-121640495D01*
X100675060Y-121637399D01*
X116924500Y-121637399D01*
X116924500Y-121762601D01*
X116956905Y-121883536D01*
X117019505Y-121991964D01*
X117108036Y-122080495D01*
X117216464Y-122143095D01*
X117337399Y-122175500D01*
X117337401Y-122175500D01*
X117462599Y-122175500D01*
X117462601Y-122175500D01*
X117583536Y-122143095D01*
X117691964Y-122080495D01*
X117780495Y-121991964D01*
X117843095Y-121883536D01*
X117875500Y-121762601D01*
X117875500Y-121637399D01*
X117843095Y-121516464D01*
X117780495Y-121408036D01*
X117691964Y-121319505D01*
X117583536Y-121256905D01*
X117462601Y-121224500D01*
X117337399Y-121224500D01*
X117256775Y-121246103D01*
X117216463Y-121256905D01*
X117108036Y-121319505D01*
X117019505Y-121408036D01*
X116956905Y-121516463D01*
X116956905Y-121516464D01*
X116924500Y-121637399D01*
X100675060Y-121637399D01*
X100760495Y-121551964D01*
X100823095Y-121443536D01*
X100855500Y-121322601D01*
X100855500Y-121197399D01*
X100823095Y-121076464D01*
X100760495Y-120968036D01*
X100671964Y-120879505D01*
X100563536Y-120816905D01*
X100442601Y-120784500D01*
X100317399Y-120784500D01*
X100236775Y-120806103D01*
X100196463Y-120816905D01*
X100088036Y-120879505D01*
X99999505Y-120968036D01*
X99936905Y-121076463D01*
X99936905Y-121076464D01*
X99904500Y-121197399D01*
X98985091Y-121197399D01*
X98993095Y-121183536D01*
X99025500Y-121062601D01*
X99025500Y-120937399D01*
X98993095Y-120816464D01*
X98930495Y-120708036D01*
X98841964Y-120619505D01*
X98733536Y-120556905D01*
X98612601Y-120524500D01*
X98487399Y-120524500D01*
X98406775Y-120546103D01*
X98366463Y-120556905D01*
X98258036Y-120619505D01*
X98169505Y-120708036D01*
X98106905Y-120816463D01*
X98106905Y-120816464D01*
X98074500Y-120937399D01*
X78939293Y-120937399D01*
X77773757Y-119692968D01*
X77772364Y-119691449D01*
X77627339Y-119529998D01*
X77624461Y-119526646D01*
X77540638Y-119424507D01*
X77134936Y-118930158D01*
X95719500Y-118930158D01*
X95719500Y-119069842D01*
X95754483Y-119200402D01*
X95755653Y-119204767D01*
X95755653Y-119204768D01*
X95825492Y-119325732D01*
X95825494Y-119325735D01*
X95924265Y-119424506D01*
X96045235Y-119494348D01*
X96180158Y-119530500D01*
X96180160Y-119530500D01*
X96319840Y-119530500D01*
X96319842Y-119530500D01*
X96454765Y-119494348D01*
X96575735Y-119424506D01*
X96674506Y-119325735D01*
X96744348Y-119204765D01*
X96780500Y-119069842D01*
X96780500Y-118930158D01*
X96778383Y-118922259D01*
X102949500Y-118922259D01*
X102949500Y-119077741D01*
X102989742Y-119227924D01*
X102989743Y-119227926D01*
X102989744Y-119227929D01*
X103067479Y-119362570D01*
X103067481Y-119362572D01*
X103067483Y-119362575D01*
X103177425Y-119472517D01*
X103177427Y-119472518D01*
X103177429Y-119472520D01*
X103312070Y-119550255D01*
X103312071Y-119550255D01*
X103312076Y-119550258D01*
X103462259Y-119590500D01*
X103462261Y-119590500D01*
X104037739Y-119590500D01*
X104037741Y-119590500D01*
X104187924Y-119550258D01*
X104322575Y-119472517D01*
X104432517Y-119362575D01*
X104510258Y-119227924D01*
X104550500Y-119077741D01*
X104550500Y-118922259D01*
X104510258Y-118772076D01*
X104446879Y-118662301D01*
X112456577Y-118662301D01*
X112456577Y-118787503D01*
X112488982Y-118908438D01*
X112551582Y-119016866D01*
X112640113Y-119105397D01*
X112748541Y-119167997D01*
X112869476Y-119200402D01*
X112869478Y-119200402D01*
X112994676Y-119200402D01*
X112994678Y-119200402D01*
X113115613Y-119167997D01*
X113224041Y-119105397D01*
X113312572Y-119016866D01*
X113375172Y-118908438D01*
X113407577Y-118787503D01*
X113407577Y-118662301D01*
X113375172Y-118541366D01*
X113312572Y-118432938D01*
X113224041Y-118344407D01*
X113115613Y-118281807D01*
X112994678Y-118249402D01*
X112869476Y-118249402D01*
X112788852Y-118271005D01*
X112748540Y-118281807D01*
X112640113Y-118344407D01*
X112551582Y-118432938D01*
X112488982Y-118541365D01*
X112488982Y-118541366D01*
X112456577Y-118662301D01*
X104446879Y-118662301D01*
X104432517Y-118637425D01*
X104322575Y-118527483D01*
X104322572Y-118527481D01*
X104322570Y-118527479D01*
X104187929Y-118449744D01*
X104187926Y-118449743D01*
X104187924Y-118449742D01*
X104037741Y-118409500D01*
X103462259Y-118409500D01*
X103312076Y-118449742D01*
X103312074Y-118449742D01*
X103312070Y-118449744D01*
X103177429Y-118527479D01*
X103067479Y-118637429D01*
X102989744Y-118772070D01*
X102989742Y-118772074D01*
X102989742Y-118772076D01*
X102949500Y-118922259D01*
X96778383Y-118922259D01*
X96744348Y-118795235D01*
X96674506Y-118674265D01*
X96575735Y-118575494D01*
X96492577Y-118527483D01*
X96454767Y-118505653D01*
X96454766Y-118505652D01*
X96454765Y-118505652D01*
X96319842Y-118469500D01*
X96180158Y-118469500D01*
X96045235Y-118505652D01*
X96045234Y-118505652D01*
X96045232Y-118505653D01*
X96045231Y-118505653D01*
X95924267Y-118575492D01*
X95825492Y-118674267D01*
X95755653Y-118795231D01*
X95755653Y-118795232D01*
X95755652Y-118795234D01*
X95755652Y-118795235D01*
X95719500Y-118930158D01*
X77134936Y-118930158D01*
X76549735Y-118217089D01*
X76548134Y-118215084D01*
X76367670Y-117982773D01*
X76365396Y-117979726D01*
X75647138Y-116977398D01*
X99114500Y-116977398D01*
X99114500Y-117102600D01*
X99146905Y-117223535D01*
X99209505Y-117331963D01*
X99298036Y-117420494D01*
X99406464Y-117483094D01*
X99527399Y-117515499D01*
X99527401Y-117515499D01*
X99652599Y-117515499D01*
X99652601Y-117515499D01*
X99773536Y-117483094D01*
X99881964Y-117420494D01*
X99970495Y-117331963D01*
X100033095Y-117223535D01*
X100065500Y-117102600D01*
X100065500Y-116977398D01*
X100059909Y-116956532D01*
X100059909Y-116956530D01*
X100054783Y-116937399D01*
X100974499Y-116937399D01*
X100974499Y-117062601D01*
X101006904Y-117183536D01*
X101069504Y-117291964D01*
X101158035Y-117380495D01*
X101266463Y-117443095D01*
X101387398Y-117475500D01*
X101387400Y-117475500D01*
X101512598Y-117475500D01*
X101512600Y-117475500D01*
X101633535Y-117443095D01*
X101741963Y-117380495D01*
X101830494Y-117291964D01*
X101893094Y-117183536D01*
X101925499Y-117062601D01*
X101925499Y-116937399D01*
X101893094Y-116816464D01*
X101830494Y-116708036D01*
X101741963Y-116619505D01*
X101633535Y-116556905D01*
X101512600Y-116524500D01*
X101387398Y-116524500D01*
X101306774Y-116546103D01*
X101266462Y-116556905D01*
X101158035Y-116619505D01*
X101069504Y-116708036D01*
X101006904Y-116816463D01*
X100996186Y-116856462D01*
X100974499Y-116937399D01*
X100054783Y-116937399D01*
X100033096Y-116856466D01*
X100033095Y-116856465D01*
X100033095Y-116856463D01*
X99970495Y-116748035D01*
X99881964Y-116659504D01*
X99773536Y-116596904D01*
X99652601Y-116564499D01*
X99527399Y-116564499D01*
X99446775Y-116586102D01*
X99406463Y-116596904D01*
X99298036Y-116659504D01*
X99209505Y-116748035D01*
X99146905Y-116856462D01*
X99146905Y-116856463D01*
X99114500Y-116977398D01*
X75647138Y-116977398D01*
X75399402Y-116631682D01*
X75397618Y-116629105D01*
X75221816Y-116365998D01*
X75220061Y-116363276D01*
X75108076Y-116183189D01*
X75079602Y-116137399D01*
X120074500Y-116137399D01*
X120074500Y-116262601D01*
X120106905Y-116383536D01*
X120169505Y-116491964D01*
X120258036Y-116580495D01*
X120366464Y-116643095D01*
X120487399Y-116675500D01*
X120487401Y-116675500D01*
X120612599Y-116675500D01*
X120612601Y-116675500D01*
X120733536Y-116643095D01*
X120841964Y-116580495D01*
X120930495Y-116491964D01*
X120993095Y-116383536D01*
X121025500Y-116262601D01*
X121025500Y-116137399D01*
X120993095Y-116016464D01*
X120930495Y-115908036D01*
X120841964Y-115819505D01*
X120733536Y-115756905D01*
X120612601Y-115724500D01*
X120487399Y-115724500D01*
X120406775Y-115746103D01*
X120366463Y-115756905D01*
X120258036Y-115819505D01*
X120169505Y-115908036D01*
X120106905Y-116016463D01*
X120106905Y-116016464D01*
X120074500Y-116137399D01*
X75079602Y-116137399D01*
X74822844Y-115724500D01*
X74589902Y-115349899D01*
X91924500Y-115349899D01*
X91924500Y-115475101D01*
X91956905Y-115596036D01*
X92019505Y-115704464D01*
X92108036Y-115792995D01*
X92216464Y-115855595D01*
X92337399Y-115888000D01*
X92337401Y-115888000D01*
X92462599Y-115888000D01*
X92462601Y-115888000D01*
X92583536Y-115855595D01*
X92691964Y-115792995D01*
X92780495Y-115704464D01*
X92843095Y-115596036D01*
X92875500Y-115475101D01*
X92875500Y-115349899D01*
X92843095Y-115228964D01*
X92780495Y-115120536D01*
X92691964Y-115032005D01*
X92583536Y-114969405D01*
X92462601Y-114937000D01*
X92337399Y-114937000D01*
X92270339Y-114954969D01*
X92216463Y-114969405D01*
X92108036Y-115032005D01*
X92019505Y-115120536D01*
X91956905Y-115228963D01*
X91956905Y-115228964D01*
X91924500Y-115349899D01*
X74589902Y-115349899D01*
X74344319Y-114954969D01*
X74342361Y-114951679D01*
X74334002Y-114937000D01*
X74196805Y-114696068D01*
X74195588Y-114693864D01*
X73396972Y-113199759D01*
X73395011Y-113195884D01*
X73301308Y-113000032D01*
X73300446Y-112998182D01*
X72574956Y-111396991D01*
X72574359Y-111395645D01*
X72561946Y-111367128D01*
X72560593Y-111363863D01*
X72549199Y-111334904D01*
X72548670Y-111333530D01*
X72469281Y-111122598D01*
X72422159Y-110997399D01*
X88744500Y-110997399D01*
X88744500Y-111122601D01*
X88776905Y-111243536D01*
X88839505Y-111351964D01*
X88928036Y-111440495D01*
X89036464Y-111503095D01*
X89157399Y-111535500D01*
X89157401Y-111535500D01*
X89282599Y-111535500D01*
X89282601Y-111535500D01*
X89403536Y-111503095D01*
X89511964Y-111440495D01*
X89600495Y-111351964D01*
X89663095Y-111243536D01*
X89695500Y-111122601D01*
X89695500Y-110997399D01*
X89663095Y-110876464D01*
X89600495Y-110768036D01*
X89511964Y-110679505D01*
X89403536Y-110616905D01*
X89282601Y-110584500D01*
X89157399Y-110584500D01*
X89076775Y-110606103D01*
X89036463Y-110616905D01*
X88928036Y-110679505D01*
X88839505Y-110768036D01*
X88776905Y-110876463D01*
X88776905Y-110876464D01*
X88744500Y-110997399D01*
X72422159Y-110997399D01*
X71991886Y-109854190D01*
X87310151Y-109854190D01*
X87310151Y-109979392D01*
X87342556Y-110100327D01*
X87405156Y-110208755D01*
X87493687Y-110297286D01*
X87602115Y-110359886D01*
X87723050Y-110392291D01*
X87723052Y-110392291D01*
X87848252Y-110392291D01*
X87901346Y-110378064D01*
X87962446Y-110381265D01*
X88009996Y-110419769D01*
X88012691Y-110424166D01*
X88034344Y-110461670D01*
X88122875Y-110550201D01*
X88231303Y-110612801D01*
X88352238Y-110645206D01*
X88352240Y-110645206D01*
X88477438Y-110645206D01*
X88477440Y-110645206D01*
X88598375Y-110612801D01*
X88706803Y-110550201D01*
X88795334Y-110461670D01*
X88857934Y-110353242D01*
X88890339Y-110232307D01*
X88890339Y-110107105D01*
X88857934Y-109986170D01*
X88795334Y-109877742D01*
X88706803Y-109789211D01*
X88598375Y-109726611D01*
X88477440Y-109694206D01*
X88352238Y-109694206D01*
X88352237Y-109694206D01*
X88299142Y-109708432D01*
X88238040Y-109705229D01*
X88190491Y-109666723D01*
X88187792Y-109662319D01*
X88166146Y-109624827D01*
X88077615Y-109536296D01*
X87969187Y-109473696D01*
X87848252Y-109441291D01*
X87723050Y-109441291D01*
X87642426Y-109462894D01*
X87602114Y-109473696D01*
X87493687Y-109536296D01*
X87405156Y-109624827D01*
X87342556Y-109733254D01*
X87342556Y-109733255D01*
X87310151Y-109854190D01*
X71991886Y-109854190D01*
X71929447Y-109688293D01*
X71928776Y-109686451D01*
X71856538Y-109481684D01*
X71855177Y-109477530D01*
X71527721Y-108398055D01*
X87066428Y-108398055D01*
X87066428Y-108523257D01*
X87098833Y-108644192D01*
X87161433Y-108752620D01*
X87249964Y-108841151D01*
X87358392Y-108903751D01*
X87479327Y-108936156D01*
X87479329Y-108936156D01*
X87604527Y-108936156D01*
X87604529Y-108936156D01*
X87725464Y-108903751D01*
X87833892Y-108841151D01*
X87922423Y-108752620D01*
X87964477Y-108679779D01*
X88009944Y-108638840D01*
X88070794Y-108632443D01*
X88123782Y-108663035D01*
X88145838Y-108703656D01*
X88163704Y-108770333D01*
X88163705Y-108770334D01*
X88163706Y-108770337D01*
X88226306Y-108878765D01*
X88314837Y-108967296D01*
X88423265Y-109029896D01*
X88544200Y-109062301D01*
X88544202Y-109062301D01*
X88669400Y-109062301D01*
X88669402Y-109062301D01*
X88790337Y-109029896D01*
X88898765Y-108967296D01*
X88987296Y-108878765D01*
X89049896Y-108770337D01*
X89082301Y-108649402D01*
X89082301Y-108649393D01*
X89082643Y-108646799D01*
X89083453Y-108645100D01*
X89083980Y-108643134D01*
X89084344Y-108643231D01*
X89108980Y-108591572D01*
X89162749Y-108562373D01*
X89223411Y-108570355D01*
X89266533Y-108610213D01*
X89319505Y-108701964D01*
X89408036Y-108790495D01*
X89516464Y-108853095D01*
X89637399Y-108885500D01*
X89637401Y-108885500D01*
X89762599Y-108885500D01*
X89762601Y-108885500D01*
X89883536Y-108853095D01*
X89991964Y-108790495D01*
X90080495Y-108701964D01*
X90143095Y-108593536D01*
X90175500Y-108472601D01*
X90175500Y-108347399D01*
X90143095Y-108226464D01*
X90080495Y-108118036D01*
X89991964Y-108029505D01*
X89883536Y-107966905D01*
X89762601Y-107934500D01*
X89637399Y-107934500D01*
X89556775Y-107956103D01*
X89516463Y-107966905D01*
X89408036Y-108029505D01*
X89319505Y-108118036D01*
X89256905Y-108226463D01*
X89224498Y-108347408D01*
X89224155Y-108350013D01*
X89223345Y-108351710D01*
X89222821Y-108353667D01*
X89222458Y-108353569D01*
X89197812Y-108405237D01*
X89144039Y-108434429D01*
X89083378Y-108426440D01*
X89040267Y-108386587D01*
X88987296Y-108294837D01*
X88898765Y-108206306D01*
X88790337Y-108143706D01*
X88669402Y-108111301D01*
X88544200Y-108111301D01*
X88463576Y-108132904D01*
X88423264Y-108143706D01*
X88314837Y-108206306D01*
X88226304Y-108294839D01*
X88184252Y-108367676D01*
X88138783Y-108408617D01*
X88077933Y-108415013D01*
X88024945Y-108384420D01*
X88002890Y-108343802D01*
X87985023Y-108277120D01*
X87922423Y-108168692D01*
X87833892Y-108080161D01*
X87725464Y-108017561D01*
X87604529Y-107985156D01*
X87479327Y-107985156D01*
X87398703Y-108006759D01*
X87358391Y-108017561D01*
X87249964Y-108080161D01*
X87161433Y-108168692D01*
X87098833Y-108277119D01*
X87098833Y-108277120D01*
X87066428Y-108398055D01*
X71527721Y-108398055D01*
X71371816Y-107884108D01*
X93468700Y-107884108D01*
X93468700Y-108015892D01*
X93472348Y-108029505D01*
X93502809Y-108143190D01*
X93568696Y-108257309D01*
X93568698Y-108257311D01*
X93568700Y-108257314D01*
X93661886Y-108350500D01*
X93661888Y-108350501D01*
X93661890Y-108350503D01*
X93776010Y-108416390D01*
X93776008Y-108416390D01*
X93776012Y-108416391D01*
X93776014Y-108416392D01*
X93903308Y-108450500D01*
X93903310Y-108450500D01*
X94035090Y-108450500D01*
X94035092Y-108450500D01*
X94162386Y-108416392D01*
X94162388Y-108416390D01*
X94162390Y-108416390D01*
X94276509Y-108350503D01*
X94276509Y-108350502D01*
X94276514Y-108350500D01*
X94369700Y-108257314D01*
X94435592Y-108143186D01*
X94469700Y-108015892D01*
X94469700Y-107884108D01*
X94435592Y-107756814D01*
X94435590Y-107756811D01*
X94435590Y-107756809D01*
X94369703Y-107642690D01*
X94369701Y-107642688D01*
X94369700Y-107642686D01*
X94276514Y-107549500D01*
X94276511Y-107549498D01*
X94276509Y-107549496D01*
X94162389Y-107483609D01*
X94162391Y-107483609D01*
X94112999Y-107470375D01*
X94035092Y-107449500D01*
X93903308Y-107449500D01*
X93825400Y-107470375D01*
X93776009Y-107483609D01*
X93661890Y-107549496D01*
X93568696Y-107642690D01*
X93502809Y-107756809D01*
X93502808Y-107756814D01*
X93468700Y-107884108D01*
X71371816Y-107884108D01*
X71363408Y-107856389D01*
X71362689Y-107853897D01*
X71331622Y-107740656D01*
X71284861Y-107570204D01*
X71283935Y-107566555D01*
X71186202Y-107147399D01*
X90524500Y-107147399D01*
X90524500Y-107272601D01*
X90556905Y-107393536D01*
X90619505Y-107501964D01*
X90708036Y-107590495D01*
X90816464Y-107653095D01*
X90937399Y-107685500D01*
X90937401Y-107685500D01*
X91062599Y-107685500D01*
X91062601Y-107685500D01*
X91183536Y-107653095D01*
X91291964Y-107590495D01*
X91380495Y-107501964D01*
X91443095Y-107393536D01*
X91475500Y-107272601D01*
X91475500Y-107147399D01*
X91443095Y-107026464D01*
X91380495Y-106918036D01*
X91296567Y-106834108D01*
X112399500Y-106834108D01*
X112399500Y-106965892D01*
X112415730Y-107026463D01*
X112433609Y-107093190D01*
X112499496Y-107207309D01*
X112499498Y-107207311D01*
X112499500Y-107207314D01*
X112592686Y-107300500D01*
X112592688Y-107300501D01*
X112592690Y-107300503D01*
X112706810Y-107366390D01*
X112706808Y-107366390D01*
X112706812Y-107366391D01*
X112706814Y-107366392D01*
X112834108Y-107400500D01*
X112834110Y-107400500D01*
X112965890Y-107400500D01*
X112965892Y-107400500D01*
X113093186Y-107366392D01*
X113093188Y-107366390D01*
X113093190Y-107366390D01*
X113207309Y-107300503D01*
X113207309Y-107300502D01*
X113207314Y-107300500D01*
X113300500Y-107207314D01*
X113366392Y-107093186D01*
X113400500Y-106965892D01*
X113400500Y-106834108D01*
X113366392Y-106706814D01*
X113366390Y-106706811D01*
X113366390Y-106706809D01*
X113300503Y-106592690D01*
X113300501Y-106592688D01*
X113300500Y-106592686D01*
X113207314Y-106499500D01*
X113207311Y-106499498D01*
X113207309Y-106499496D01*
X113093189Y-106433609D01*
X113093191Y-106433609D01*
X113043799Y-106420375D01*
X112965892Y-106399500D01*
X112834108Y-106399500D01*
X112756200Y-106420375D01*
X112706809Y-106433609D01*
X112592690Y-106499496D01*
X112499496Y-106592690D01*
X112433609Y-106706809D01*
X112417507Y-106766905D01*
X112399500Y-106834108D01*
X91296567Y-106834108D01*
X91291964Y-106829505D01*
X91183536Y-106766905D01*
X91062601Y-106734500D01*
X90937399Y-106734500D01*
X90856775Y-106756103D01*
X90816463Y-106766905D01*
X90708036Y-106829505D01*
X90619505Y-106918036D01*
X90556905Y-107026463D01*
X90556905Y-107026464D01*
X90524500Y-107147399D01*
X71186202Y-107147399D01*
X70907334Y-105951399D01*
X70906684Y-105948386D01*
X70844943Y-105637994D01*
X70844370Y-105634845D01*
X70789006Y-105299508D01*
X89758200Y-105299508D01*
X89758200Y-105431292D01*
X89778763Y-105508036D01*
X89792309Y-105558590D01*
X89858196Y-105672709D01*
X89858198Y-105672711D01*
X89858200Y-105672714D01*
X89951386Y-105765900D01*
X89951388Y-105765901D01*
X89951390Y-105765903D01*
X90065510Y-105831790D01*
X90065508Y-105831790D01*
X90065512Y-105831791D01*
X90065514Y-105831792D01*
X90192808Y-105865900D01*
X90192810Y-105865900D01*
X90324590Y-105865900D01*
X90324592Y-105865900D01*
X90451886Y-105831792D01*
X90451888Y-105831790D01*
X90451890Y-105831790D01*
X90566009Y-105765903D01*
X90566009Y-105765902D01*
X90566014Y-105765900D01*
X90659200Y-105672714D01*
X90659203Y-105672709D01*
X90725090Y-105558590D01*
X90725090Y-105558588D01*
X90725092Y-105558586D01*
X90759200Y-105431292D01*
X90759200Y-105299508D01*
X90745861Y-105249725D01*
X91503732Y-105249725D01*
X91503732Y-105374927D01*
X91536137Y-105495862D01*
X91598737Y-105604290D01*
X91687268Y-105692821D01*
X91795696Y-105755421D01*
X91916631Y-105787826D01*
X91916633Y-105787826D01*
X92041831Y-105787826D01*
X92041833Y-105787826D01*
X92162768Y-105755421D01*
X92193983Y-105737399D01*
X99524500Y-105737399D01*
X99524500Y-105862601D01*
X99556905Y-105983536D01*
X99619505Y-106091964D01*
X99708036Y-106180495D01*
X99816464Y-106243095D01*
X99937399Y-106275500D01*
X99937401Y-106275500D01*
X100062599Y-106275500D01*
X100062601Y-106275500D01*
X100183536Y-106243095D01*
X100291964Y-106180495D01*
X100380495Y-106091964D01*
X100443095Y-105983536D01*
X100475500Y-105862601D01*
X100475500Y-105737399D01*
X100443095Y-105616464D01*
X100380495Y-105508036D01*
X100291964Y-105419505D01*
X100183536Y-105356905D01*
X100062601Y-105324500D01*
X99937399Y-105324500D01*
X99856775Y-105346103D01*
X99816463Y-105356905D01*
X99708036Y-105419505D01*
X99619505Y-105508036D01*
X99556905Y-105616463D01*
X99556905Y-105616464D01*
X99524500Y-105737399D01*
X92193983Y-105737399D01*
X92271196Y-105692821D01*
X92359727Y-105604290D01*
X92422327Y-105495862D01*
X92454732Y-105374927D01*
X92454732Y-105249725D01*
X92422327Y-105128790D01*
X92359727Y-105020362D01*
X92271196Y-104931831D01*
X92162768Y-104869231D01*
X92041833Y-104836826D01*
X91916631Y-104836826D01*
X91836007Y-104858429D01*
X91795695Y-104869231D01*
X91687268Y-104931831D01*
X91598737Y-105020362D01*
X91536137Y-105128789D01*
X91536137Y-105128790D01*
X91503732Y-105249725D01*
X90745861Y-105249725D01*
X90725092Y-105172214D01*
X90725090Y-105172211D01*
X90725090Y-105172209D01*
X90659203Y-105058090D01*
X90659201Y-105058088D01*
X90659200Y-105058086D01*
X90566014Y-104964900D01*
X90566011Y-104964898D01*
X90566009Y-104964896D01*
X90451889Y-104899009D01*
X90451891Y-104899009D01*
X90402499Y-104885775D01*
X90324592Y-104864900D01*
X90192808Y-104864900D01*
X90114900Y-104885775D01*
X90065509Y-104899009D01*
X89951390Y-104964896D01*
X89858196Y-105058090D01*
X89792309Y-105172209D01*
X89792308Y-105172214D01*
X89758200Y-105299508D01*
X70789006Y-105299508D01*
X70575677Y-104007399D01*
X84724500Y-104007399D01*
X84724500Y-104132601D01*
X84756905Y-104253536D01*
X84819505Y-104361964D01*
X84908036Y-104450495D01*
X85016464Y-104513095D01*
X85137399Y-104545500D01*
X85137401Y-104545500D01*
X85262599Y-104545500D01*
X85262601Y-104545500D01*
X85383536Y-104513095D01*
X85491964Y-104450495D01*
X85580495Y-104361964D01*
X85643095Y-104253536D01*
X85675500Y-104132601D01*
X85675500Y-104007399D01*
X85643095Y-103886464D01*
X85580495Y-103778036D01*
X85491964Y-103689505D01*
X85383536Y-103626905D01*
X85262601Y-103594500D01*
X85137399Y-103594500D01*
X85056775Y-103616103D01*
X85016463Y-103626905D01*
X84908036Y-103689505D01*
X84819505Y-103778036D01*
X84756905Y-103886463D01*
X84756905Y-103886464D01*
X84724500Y-104007399D01*
X70575677Y-104007399D01*
X70574214Y-103998537D01*
X70573681Y-103994868D01*
X70537010Y-103702910D01*
X70536736Y-103700464D01*
X70471430Y-103037399D01*
X103474500Y-103037399D01*
X103474500Y-103162601D01*
X103506905Y-103283536D01*
X103569505Y-103391964D01*
X103658036Y-103480495D01*
X103766464Y-103543095D01*
X103887399Y-103575500D01*
X103887401Y-103575500D01*
X104012599Y-103575500D01*
X104012601Y-103575500D01*
X104133536Y-103543095D01*
X104241964Y-103480495D01*
X104330495Y-103391964D01*
X104393095Y-103283536D01*
X104425500Y-103162601D01*
X104425500Y-103037399D01*
X104393095Y-102916464D01*
X104330495Y-102808036D01*
X104241964Y-102719505D01*
X104133536Y-102656905D01*
X104012601Y-102624500D01*
X103887399Y-102624500D01*
X103806775Y-102646103D01*
X103766463Y-102656905D01*
X103658036Y-102719505D01*
X103569505Y-102808036D01*
X103506905Y-102916463D01*
X103506905Y-102916464D01*
X103474500Y-103037399D01*
X70471430Y-103037399D01*
X70392637Y-102237399D01*
X104474500Y-102237399D01*
X104474500Y-102362601D01*
X104506905Y-102483536D01*
X104569505Y-102591964D01*
X104658036Y-102680495D01*
X104766464Y-102743095D01*
X104887399Y-102775500D01*
X104887401Y-102775500D01*
X105012599Y-102775500D01*
X105012601Y-102775500D01*
X105133536Y-102743095D01*
X105241964Y-102680495D01*
X105330495Y-102591964D01*
X105393095Y-102483536D01*
X105425500Y-102362601D01*
X105425500Y-102237399D01*
X105418653Y-102211847D01*
X112786448Y-102211847D01*
X112786448Y-102337049D01*
X112818853Y-102457984D01*
X112881453Y-102566412D01*
X112969984Y-102654943D01*
X113078412Y-102717543D01*
X113199347Y-102749948D01*
X113199349Y-102749948D01*
X113324547Y-102749948D01*
X113324549Y-102749948D01*
X113445484Y-102717543D01*
X113553912Y-102654943D01*
X113642443Y-102566412D01*
X113705043Y-102457984D01*
X113737448Y-102337049D01*
X113737448Y-102211847D01*
X113705043Y-102090912D01*
X113642443Y-101982484D01*
X113553912Y-101893953D01*
X113445484Y-101831353D01*
X113324549Y-101798948D01*
X113199347Y-101798948D01*
X113118723Y-101820551D01*
X113078411Y-101831353D01*
X112969984Y-101893953D01*
X112881453Y-101982484D01*
X112818853Y-102090911D01*
X112812006Y-102116464D01*
X112786448Y-102211847D01*
X105418653Y-102211847D01*
X105393095Y-102116464D01*
X105330495Y-102008036D01*
X105241964Y-101919505D01*
X105133536Y-101856905D01*
X105012601Y-101824500D01*
X104887399Y-101824500D01*
X104806775Y-101846103D01*
X104766463Y-101856905D01*
X104658036Y-101919505D01*
X104569505Y-102008036D01*
X104506905Y-102116463D01*
X104496103Y-102156775D01*
X104474500Y-102237399D01*
X70392637Y-102237399D01*
X70370678Y-102014448D01*
X70370349Y-102010123D01*
X70358720Y-101793177D01*
X70358642Y-101791363D01*
X70347055Y-101437399D01*
X103474500Y-101437399D01*
X103474500Y-101562601D01*
X103506905Y-101683536D01*
X103569505Y-101791964D01*
X103658036Y-101880495D01*
X103766464Y-101943095D01*
X103887399Y-101975500D01*
X103887401Y-101975500D01*
X104012599Y-101975500D01*
X104012601Y-101975500D01*
X104133536Y-101943095D01*
X104241964Y-101880495D01*
X104330495Y-101791964D01*
X104393095Y-101683536D01*
X104425500Y-101562601D01*
X104425500Y-101437399D01*
X104393095Y-101316464D01*
X104330495Y-101208036D01*
X104241964Y-101119505D01*
X104133536Y-101056905D01*
X104012601Y-101024500D01*
X103887399Y-101024500D01*
X103806775Y-101046103D01*
X103766463Y-101056905D01*
X103658036Y-101119505D01*
X103569505Y-101208036D01*
X103506905Y-101316463D01*
X103506905Y-101316464D01*
X103474500Y-101437399D01*
X70347055Y-101437399D01*
X70301120Y-100034231D01*
X70301097Y-100032875D01*
X70301086Y-100032842D01*
X70300531Y-100001736D01*
X70300531Y-99998263D01*
X70300869Y-99979308D01*
X91924900Y-99979308D01*
X91924900Y-100111092D01*
X91954979Y-100223351D01*
X91959009Y-100238390D01*
X92024896Y-100352509D01*
X92024898Y-100352511D01*
X92024900Y-100352514D01*
X92118086Y-100445700D01*
X92118088Y-100445701D01*
X92118090Y-100445703D01*
X92232210Y-100511590D01*
X92232208Y-100511590D01*
X92232212Y-100511591D01*
X92232214Y-100511592D01*
X92359508Y-100545700D01*
X92359510Y-100545700D01*
X92491290Y-100545700D01*
X92491292Y-100545700D01*
X92618586Y-100511592D01*
X92618588Y-100511590D01*
X92618590Y-100511590D01*
X92732709Y-100445703D01*
X92732709Y-100445702D01*
X92732714Y-100445700D01*
X92825900Y-100352514D01*
X92891792Y-100238386D01*
X92925900Y-100111092D01*
X92925900Y-99979308D01*
X92891792Y-99852014D01*
X92891790Y-99852011D01*
X92891790Y-99852009D01*
X92825903Y-99737890D01*
X92825901Y-99737888D01*
X92825900Y-99737886D01*
X92732714Y-99644700D01*
X92732711Y-99644698D01*
X92732709Y-99644696D01*
X92618589Y-99578809D01*
X92618591Y-99578809D01*
X92569199Y-99565575D01*
X92491292Y-99544700D01*
X92359508Y-99544700D01*
X92281600Y-99565575D01*
X92232209Y-99578809D01*
X92118090Y-99644696D01*
X92024896Y-99737890D01*
X91959009Y-99852009D01*
X91959008Y-99852014D01*
X91924900Y-99979308D01*
X70300869Y-99979308D01*
X70301089Y-99967005D01*
X70301117Y-99965853D01*
X70329674Y-99093508D01*
X89890800Y-99093508D01*
X89890800Y-99225292D01*
X89914193Y-99312598D01*
X89924909Y-99352590D01*
X89990796Y-99466709D01*
X89990798Y-99466711D01*
X89990800Y-99466714D01*
X90083986Y-99559900D01*
X90083988Y-99559901D01*
X90083990Y-99559903D01*
X90198110Y-99625790D01*
X90198108Y-99625790D01*
X90198112Y-99625791D01*
X90198114Y-99625792D01*
X90325408Y-99659900D01*
X90325410Y-99659900D01*
X90457190Y-99659900D01*
X90457192Y-99659900D01*
X90584486Y-99625792D01*
X90584488Y-99625790D01*
X90584490Y-99625790D01*
X90698609Y-99559903D01*
X90698609Y-99559902D01*
X90698614Y-99559900D01*
X90791800Y-99466714D01*
X90809454Y-99436136D01*
X90857690Y-99352590D01*
X90857690Y-99352588D01*
X90857692Y-99352586D01*
X90891800Y-99225292D01*
X90891800Y-99187399D01*
X97274500Y-99187399D01*
X97274500Y-99312601D01*
X97306905Y-99433536D01*
X97369505Y-99541964D01*
X97458036Y-99630495D01*
X97566464Y-99693095D01*
X97687399Y-99725500D01*
X97687401Y-99725500D01*
X97812599Y-99725500D01*
X97812601Y-99725500D01*
X97933536Y-99693095D01*
X98041964Y-99630495D01*
X98130495Y-99541964D01*
X98164264Y-99483472D01*
X98209732Y-99442532D01*
X98270582Y-99436136D01*
X98323571Y-99466728D01*
X98335733Y-99483469D01*
X98369505Y-99541964D01*
X98458036Y-99630495D01*
X98566464Y-99693095D01*
X98687399Y-99725500D01*
X98687401Y-99725500D01*
X98812599Y-99725500D01*
X98812601Y-99725500D01*
X98933536Y-99693095D01*
X99041964Y-99630495D01*
X99130495Y-99541964D01*
X99164264Y-99483472D01*
X99209732Y-99442532D01*
X99270582Y-99436136D01*
X99323571Y-99466728D01*
X99335733Y-99483469D01*
X99369505Y-99541964D01*
X99458036Y-99630495D01*
X99566464Y-99693095D01*
X99687399Y-99725500D01*
X99687401Y-99725500D01*
X99812599Y-99725500D01*
X99812601Y-99725500D01*
X99933536Y-99693095D01*
X100041964Y-99630495D01*
X100130495Y-99541964D01*
X100164264Y-99483472D01*
X100209732Y-99442532D01*
X100270582Y-99436136D01*
X100323571Y-99466728D01*
X100335733Y-99483469D01*
X100369505Y-99541964D01*
X100458036Y-99630495D01*
X100566464Y-99693095D01*
X100687399Y-99725500D01*
X100687401Y-99725500D01*
X100812599Y-99725500D01*
X100812601Y-99725500D01*
X100933536Y-99693095D01*
X101041964Y-99630495D01*
X101130495Y-99541964D01*
X101193095Y-99433536D01*
X101225500Y-99312601D01*
X101225500Y-99187399D01*
X102624500Y-99187399D01*
X102624500Y-99312601D01*
X102656905Y-99433536D01*
X102719505Y-99541964D01*
X102808036Y-99630495D01*
X102916464Y-99693095D01*
X103037399Y-99725500D01*
X103037401Y-99725500D01*
X103162599Y-99725500D01*
X103162601Y-99725500D01*
X103283536Y-99693095D01*
X103391964Y-99630495D01*
X103480495Y-99541964D01*
X103543095Y-99433536D01*
X103575500Y-99312601D01*
X103575500Y-99187399D01*
X103543095Y-99066464D01*
X103480495Y-98958036D01*
X103391964Y-98869505D01*
X103283536Y-98806905D01*
X103162601Y-98774500D01*
X103037399Y-98774500D01*
X102956775Y-98796103D01*
X102916463Y-98806905D01*
X102808036Y-98869505D01*
X102719505Y-98958036D01*
X102656905Y-99066463D01*
X102656905Y-99066464D01*
X102624500Y-99187399D01*
X101225500Y-99187399D01*
X101193095Y-99066464D01*
X101175283Y-99035613D01*
X101172014Y-99025168D01*
X101172232Y-99004988D01*
X101168036Y-98985246D01*
X101172555Y-98975094D01*
X101172676Y-98963987D01*
X101184713Y-98947789D01*
X101192923Y-98929351D01*
X101202544Y-98923795D01*
X101209172Y-98914878D01*
X101228432Y-98908849D01*
X101245911Y-98898758D01*
X101259532Y-98899114D01*
X101267564Y-98896601D01*
X101276332Y-98899555D01*
X101292117Y-98899968D01*
X101387396Y-98925499D01*
X101387398Y-98925500D01*
X101387399Y-98925500D01*
X101512599Y-98925500D01*
X101512601Y-98925500D01*
X101633536Y-98893095D01*
X101741964Y-98830495D01*
X101830495Y-98741964D01*
X101893095Y-98633536D01*
X101925500Y-98512601D01*
X101925500Y-98387399D01*
X101893095Y-98266464D01*
X101830495Y-98158036D01*
X101741964Y-98069505D01*
X101633536Y-98006905D01*
X101512601Y-97974500D01*
X101387399Y-97974500D01*
X101306775Y-97996103D01*
X101266463Y-98006905D01*
X101158036Y-98069505D01*
X101069505Y-98158036D01*
X101006905Y-98266463D01*
X101006905Y-98266464D01*
X100974500Y-98387399D01*
X100974500Y-98512601D01*
X101006905Y-98633536D01*
X101006906Y-98633538D01*
X101019242Y-98654905D01*
X101031963Y-98714754D01*
X101007075Y-98770649D01*
X100954087Y-98801241D01*
X100907882Y-98800031D01*
X100812601Y-98774500D01*
X100782870Y-98774500D01*
X100724679Y-98755593D01*
X100688715Y-98706093D01*
X100688715Y-98644907D01*
X100691405Y-98637617D01*
X100693092Y-98633542D01*
X100693092Y-98633540D01*
X100693095Y-98633536D01*
X100725500Y-98512601D01*
X100725500Y-98387399D01*
X100693095Y-98266464D01*
X100630495Y-98158036D01*
X100541964Y-98069505D01*
X100433536Y-98006905D01*
X100312601Y-97974500D01*
X100187399Y-97974500D01*
X100106775Y-97996103D01*
X100066463Y-98006905D01*
X99958036Y-98069505D01*
X99869505Y-98158036D01*
X99806905Y-98266463D01*
X99806905Y-98266464D01*
X99774500Y-98387399D01*
X99774500Y-98512601D01*
X99806905Y-98633536D01*
X99806907Y-98633542D01*
X99808595Y-98637617D01*
X99813394Y-98698614D01*
X99781423Y-98750782D01*
X99724894Y-98774195D01*
X99717130Y-98774500D01*
X99687399Y-98774500D01*
X99606775Y-98796103D01*
X99566463Y-98806905D01*
X99525604Y-98830495D01*
X99458036Y-98869505D01*
X99369505Y-98958036D01*
X99335735Y-99016527D01*
X99290267Y-99057467D01*
X99229417Y-99063863D01*
X99176429Y-99033270D01*
X99164266Y-99016530D01*
X99130495Y-98958036D01*
X99041964Y-98869505D01*
X98933536Y-98806905D01*
X98812601Y-98774500D01*
X98687399Y-98774500D01*
X98606775Y-98796103D01*
X98566463Y-98806905D01*
X98525604Y-98830495D01*
X98458036Y-98869505D01*
X98369505Y-98958036D01*
X98335735Y-99016527D01*
X98290267Y-99057467D01*
X98229417Y-99063863D01*
X98176429Y-99033270D01*
X98164266Y-99016530D01*
X98130495Y-98958036D01*
X98041964Y-98869505D01*
X97933536Y-98806905D01*
X97812601Y-98774500D01*
X97687399Y-98774500D01*
X97606775Y-98796103D01*
X97566463Y-98806905D01*
X97458036Y-98869505D01*
X97369505Y-98958036D01*
X97306905Y-99066463D01*
X97306905Y-99066464D01*
X97274500Y-99187399D01*
X90891800Y-99187399D01*
X90891800Y-99093508D01*
X90857692Y-98966214D01*
X90857690Y-98966211D01*
X90857690Y-98966209D01*
X90791803Y-98852090D01*
X90791801Y-98852088D01*
X90791800Y-98852086D01*
X90698614Y-98758900D01*
X90698611Y-98758898D01*
X90698609Y-98758896D01*
X90584489Y-98693009D01*
X90584491Y-98693009D01*
X90535099Y-98679775D01*
X90457192Y-98658900D01*
X90325408Y-98658900D01*
X90247500Y-98679775D01*
X90198109Y-98693009D01*
X90083990Y-98758896D01*
X89990796Y-98852090D01*
X89924909Y-98966209D01*
X89911427Y-99016526D01*
X89890800Y-99093508D01*
X70329674Y-99093508D01*
X70358642Y-98208635D01*
X70358720Y-98206825D01*
X70370349Y-97989862D01*
X70370677Y-97985561D01*
X70467716Y-97000308D01*
X96997000Y-97000308D01*
X96997000Y-97132092D01*
X97027079Y-97244351D01*
X97031109Y-97259390D01*
X97096996Y-97373509D01*
X97096998Y-97373511D01*
X97097000Y-97373514D01*
X97190186Y-97466700D01*
X97190188Y-97466701D01*
X97190190Y-97466703D01*
X97304310Y-97532590D01*
X97304308Y-97532590D01*
X97304312Y-97532591D01*
X97304314Y-97532592D01*
X97431608Y-97566700D01*
X97431610Y-97566700D01*
X97563390Y-97566700D01*
X97563392Y-97566700D01*
X97690686Y-97532592D01*
X97690688Y-97532590D01*
X97690690Y-97532590D01*
X97804809Y-97466703D01*
X97804809Y-97466702D01*
X97804814Y-97466700D01*
X97898000Y-97373514D01*
X97898003Y-97373509D01*
X97963890Y-97259390D01*
X97963890Y-97259388D01*
X97963892Y-97259386D01*
X97998000Y-97132092D01*
X97998000Y-97000308D01*
X97963892Y-96873014D01*
X97963890Y-96873011D01*
X97963890Y-96873009D01*
X97898003Y-96758890D01*
X97898001Y-96758888D01*
X97898000Y-96758886D01*
X97804814Y-96665700D01*
X97804811Y-96665698D01*
X97804809Y-96665696D01*
X97690689Y-96599809D01*
X97690691Y-96599809D01*
X97641299Y-96586575D01*
X97563392Y-96565700D01*
X97431608Y-96565700D01*
X97353700Y-96586575D01*
X97304309Y-96599809D01*
X97190190Y-96665696D01*
X97096996Y-96758890D01*
X97031109Y-96873009D01*
X97031108Y-96873014D01*
X96997000Y-97000308D01*
X70467716Y-97000308D01*
X70536734Y-96299559D01*
X70537012Y-96297071D01*
X70573680Y-96005138D01*
X70574213Y-96001469D01*
X70844385Y-94365059D01*
X70844929Y-94362072D01*
X70877842Y-94196608D01*
X102814900Y-94196608D01*
X102814900Y-94328392D01*
X102844979Y-94440651D01*
X102849009Y-94455690D01*
X102914896Y-94569809D01*
X102914898Y-94569811D01*
X102914900Y-94569814D01*
X103008086Y-94663000D01*
X103008088Y-94663001D01*
X103008090Y-94663003D01*
X103122210Y-94728890D01*
X103122208Y-94728890D01*
X103122212Y-94728891D01*
X103122214Y-94728892D01*
X103249508Y-94763000D01*
X103249510Y-94763000D01*
X103381290Y-94763000D01*
X103381292Y-94763000D01*
X103508586Y-94728892D01*
X103508588Y-94728890D01*
X103508590Y-94728890D01*
X103622709Y-94663003D01*
X103622709Y-94663002D01*
X103622714Y-94663000D01*
X103715900Y-94569814D01*
X103781792Y-94455686D01*
X103815900Y-94328392D01*
X103815900Y-94196608D01*
X103781792Y-94069314D01*
X103781790Y-94069311D01*
X103781790Y-94069309D01*
X103715903Y-93955190D01*
X103715901Y-93955188D01*
X103715900Y-93955186D01*
X103622714Y-93862000D01*
X103622711Y-93861998D01*
X103622709Y-93861996D01*
X103508589Y-93796109D01*
X103508591Y-93796109D01*
X103507285Y-93795759D01*
X114088706Y-93795759D01*
X114088706Y-93920961D01*
X114121111Y-94041896D01*
X114183711Y-94150324D01*
X114272242Y-94238855D01*
X114380670Y-94301455D01*
X114501605Y-94333860D01*
X114501607Y-94333860D01*
X114626805Y-94333860D01*
X114626807Y-94333860D01*
X114747742Y-94301455D01*
X114856170Y-94238855D01*
X114944701Y-94150324D01*
X115007301Y-94041896D01*
X115039706Y-93920961D01*
X115039706Y-93795759D01*
X115007301Y-93674824D01*
X114944701Y-93566396D01*
X114856170Y-93477865D01*
X114747742Y-93415265D01*
X114626807Y-93382860D01*
X114501605Y-93382860D01*
X114420981Y-93404463D01*
X114380669Y-93415265D01*
X114272242Y-93477865D01*
X114183711Y-93566396D01*
X114121111Y-93674823D01*
X114110309Y-93715135D01*
X114088706Y-93795759D01*
X103507285Y-93795759D01*
X103459199Y-93782875D01*
X103381292Y-93762000D01*
X103249508Y-93762000D01*
X103171600Y-93782875D01*
X103122209Y-93796109D01*
X103008090Y-93861996D01*
X102914896Y-93955190D01*
X102849009Y-94069309D01*
X102849008Y-94069314D01*
X102814900Y-94196608D01*
X70877842Y-94196608D01*
X70906685Y-94051602D01*
X70907326Y-94048636D01*
X71283948Y-92433387D01*
X71284858Y-92429805D01*
X71342196Y-92220798D01*
X112880157Y-92220798D01*
X112880157Y-92346000D01*
X112912562Y-92466935D01*
X112975162Y-92575363D01*
X113063693Y-92663894D01*
X113172121Y-92726494D01*
X113293056Y-92758899D01*
X113293058Y-92758899D01*
X113418256Y-92758899D01*
X113418258Y-92758899D01*
X113539193Y-92726494D01*
X113647621Y-92663894D01*
X113736152Y-92575363D01*
X113798752Y-92466935D01*
X113831157Y-92346000D01*
X113831157Y-92220798D01*
X113798752Y-92099863D01*
X113736152Y-91991435D01*
X113647621Y-91902904D01*
X113539193Y-91840304D01*
X113418258Y-91807899D01*
X113293056Y-91807899D01*
X113212432Y-91829502D01*
X113172120Y-91840304D01*
X113063693Y-91902904D01*
X112975162Y-91991435D01*
X112912562Y-92099862D01*
X112912562Y-92099863D01*
X112880157Y-92220798D01*
X71342196Y-92220798D01*
X71362697Y-92146070D01*
X71363407Y-92143613D01*
X71568138Y-91468708D01*
X107499500Y-91468708D01*
X107499500Y-91600492D01*
X107508126Y-91632684D01*
X107533609Y-91727790D01*
X107599496Y-91841909D01*
X107599498Y-91841911D01*
X107599500Y-91841914D01*
X107692686Y-91935100D01*
X107692688Y-91935101D01*
X107692690Y-91935103D01*
X107806810Y-92000990D01*
X107806808Y-92000990D01*
X107806812Y-92000991D01*
X107806814Y-92000992D01*
X107934108Y-92035100D01*
X107934110Y-92035100D01*
X108065890Y-92035100D01*
X108065892Y-92035100D01*
X108193186Y-92000992D01*
X108193188Y-92000990D01*
X108193190Y-92000990D01*
X108307309Y-91935103D01*
X108307309Y-91935102D01*
X108307314Y-91935100D01*
X108400500Y-91841914D01*
X108466392Y-91727786D01*
X108500500Y-91600492D01*
X108500500Y-91468708D01*
X108466392Y-91341414D01*
X108466390Y-91341411D01*
X108466390Y-91341409D01*
X108400503Y-91227290D01*
X108400501Y-91227288D01*
X108400500Y-91227286D01*
X108307314Y-91134100D01*
X108307311Y-91134098D01*
X108307309Y-91134096D01*
X108193189Y-91068209D01*
X108193191Y-91068209D01*
X108143799Y-91054975D01*
X108065892Y-91034100D01*
X107934108Y-91034100D01*
X107856200Y-91054975D01*
X107806809Y-91068209D01*
X107692690Y-91134096D01*
X107599496Y-91227290D01*
X107533609Y-91341409D01*
X107533608Y-91341414D01*
X107499500Y-91468708D01*
X71568138Y-91468708D01*
X71855194Y-90522411D01*
X71856529Y-90518337D01*
X71928785Y-90313517D01*
X71929413Y-90311795D01*
X71987595Y-90157208D01*
X87145300Y-90157208D01*
X87145300Y-90288992D01*
X87151381Y-90311685D01*
X87179409Y-90416290D01*
X87245296Y-90530409D01*
X87245298Y-90530411D01*
X87245300Y-90530414D01*
X87338486Y-90623600D01*
X87338488Y-90623601D01*
X87338490Y-90623603D01*
X87452610Y-90689490D01*
X87452608Y-90689490D01*
X87452612Y-90689491D01*
X87452614Y-90689492D01*
X87579908Y-90723600D01*
X87579910Y-90723600D01*
X87711690Y-90723600D01*
X87711692Y-90723600D01*
X87838986Y-90689492D01*
X87838988Y-90689490D01*
X87838990Y-90689490D01*
X87953109Y-90623603D01*
X87953109Y-90623602D01*
X87953114Y-90623600D01*
X88046300Y-90530414D01*
X88053308Y-90518276D01*
X88112190Y-90416290D01*
X88112190Y-90416288D01*
X88112192Y-90416286D01*
X88146300Y-90288992D01*
X88146300Y-90157208D01*
X88112192Y-90029914D01*
X88112190Y-90029911D01*
X88112190Y-90029909D01*
X88046303Y-89915790D01*
X88046301Y-89915788D01*
X88046300Y-89915786D01*
X87953114Y-89822600D01*
X87953111Y-89822598D01*
X87953109Y-89822596D01*
X87881942Y-89781508D01*
X97832500Y-89781508D01*
X97832500Y-89913292D01*
X97852621Y-89988386D01*
X97866609Y-90040590D01*
X97932496Y-90154709D01*
X97932498Y-90154711D01*
X97932500Y-90154714D01*
X98025686Y-90247900D01*
X98025688Y-90247901D01*
X98025690Y-90247903D01*
X98139810Y-90313790D01*
X98139808Y-90313790D01*
X98139812Y-90313791D01*
X98139814Y-90313792D01*
X98267108Y-90347900D01*
X98267110Y-90347900D01*
X98398890Y-90347900D01*
X98398892Y-90347900D01*
X98526186Y-90313792D01*
X98526188Y-90313790D01*
X98526190Y-90313790D01*
X98640309Y-90247903D01*
X98640309Y-90247902D01*
X98640314Y-90247900D01*
X98733500Y-90154714D01*
X98745175Y-90134492D01*
X98799390Y-90040590D01*
X98799390Y-90040588D01*
X98799392Y-90040586D01*
X98833500Y-89913292D01*
X98833500Y-89781508D01*
X98819513Y-89729308D01*
X100758600Y-89729308D01*
X100758600Y-89861092D01*
X100772587Y-89913292D01*
X100792709Y-89988390D01*
X100858596Y-90102509D01*
X100858598Y-90102511D01*
X100858600Y-90102514D01*
X100951786Y-90195700D01*
X100951788Y-90195701D01*
X100951790Y-90195703D01*
X101065910Y-90261590D01*
X101065908Y-90261590D01*
X101065912Y-90261591D01*
X101065914Y-90261592D01*
X101193208Y-90295700D01*
X101193210Y-90295700D01*
X101324990Y-90295700D01*
X101324992Y-90295700D01*
X101452286Y-90261592D01*
X101452288Y-90261590D01*
X101452290Y-90261590D01*
X101566409Y-90195703D01*
X101566409Y-90195702D01*
X101566414Y-90195700D01*
X101659600Y-90102514D01*
X101725492Y-89988386D01*
X101759600Y-89861092D01*
X101759600Y-89729308D01*
X101725544Y-89602208D01*
X112147900Y-89602208D01*
X112147900Y-89733992D01*
X112151772Y-89748441D01*
X112182009Y-89861290D01*
X112247896Y-89975409D01*
X112247898Y-89975411D01*
X112247900Y-89975414D01*
X112341086Y-90068600D01*
X112341088Y-90068601D01*
X112341090Y-90068603D01*
X112455210Y-90134490D01*
X112455208Y-90134490D01*
X112455212Y-90134491D01*
X112455214Y-90134492D01*
X112582508Y-90168600D01*
X112582510Y-90168600D01*
X112714290Y-90168600D01*
X112714292Y-90168600D01*
X112841586Y-90134492D01*
X112841588Y-90134490D01*
X112841590Y-90134490D01*
X112955709Y-90068603D01*
X112955709Y-90068602D01*
X112955714Y-90068600D01*
X113048900Y-89975414D01*
X113083324Y-89915790D01*
X113114790Y-89861290D01*
X113114790Y-89861288D01*
X113114792Y-89861286D01*
X113148900Y-89733992D01*
X113148900Y-89602208D01*
X113114792Y-89474914D01*
X113114790Y-89474911D01*
X113114790Y-89474909D01*
X113048903Y-89360790D01*
X113048901Y-89360788D01*
X113048900Y-89360786D01*
X112955714Y-89267600D01*
X112955711Y-89267598D01*
X112955709Y-89267596D01*
X112841589Y-89201709D01*
X112841591Y-89201709D01*
X112792199Y-89188475D01*
X112714292Y-89167600D01*
X112582508Y-89167600D01*
X112504600Y-89188475D01*
X112455209Y-89201709D01*
X112341090Y-89267596D01*
X112247896Y-89360790D01*
X112182009Y-89474909D01*
X112182008Y-89474914D01*
X112147900Y-89602208D01*
X101725544Y-89602208D01*
X101725492Y-89602014D01*
X101725489Y-89602009D01*
X101659603Y-89487890D01*
X101659601Y-89487888D01*
X101659600Y-89487886D01*
X101566414Y-89394700D01*
X101566411Y-89394698D01*
X101566409Y-89394696D01*
X101452289Y-89328809D01*
X101452291Y-89328809D01*
X101402899Y-89315575D01*
X101324992Y-89294700D01*
X101193208Y-89294700D01*
X101115300Y-89315575D01*
X101065909Y-89328809D01*
X100951790Y-89394696D01*
X100858596Y-89487890D01*
X100792709Y-89602009D01*
X100778721Y-89654214D01*
X100758600Y-89729308D01*
X98819513Y-89729308D01*
X98799392Y-89654214D01*
X98799390Y-89654211D01*
X98799390Y-89654209D01*
X98733503Y-89540090D01*
X98733501Y-89540088D01*
X98733500Y-89540086D01*
X98640314Y-89446900D01*
X98640311Y-89446898D01*
X98640309Y-89446896D01*
X98526189Y-89381009D01*
X98526191Y-89381009D01*
X98476799Y-89367775D01*
X98398892Y-89346900D01*
X98267108Y-89346900D01*
X98189200Y-89367775D01*
X98139809Y-89381009D01*
X98025690Y-89446896D01*
X97932496Y-89540090D01*
X97866609Y-89654209D01*
X97866608Y-89654214D01*
X97832500Y-89781508D01*
X87881942Y-89781508D01*
X87838989Y-89756709D01*
X87838991Y-89756709D01*
X87789599Y-89743475D01*
X87711692Y-89722600D01*
X87579908Y-89722600D01*
X87502000Y-89743475D01*
X87452609Y-89756709D01*
X87338490Y-89822596D01*
X87245296Y-89915790D01*
X87179409Y-90029909D01*
X87179408Y-90029914D01*
X87145300Y-90157208D01*
X71987595Y-90157208D01*
X72548765Y-88666216D01*
X72549130Y-88665268D01*
X72560615Y-88636078D01*
X72561919Y-88632930D01*
X72574411Y-88604231D01*
X72574877Y-88603181D01*
X72876539Y-87937399D01*
X88824500Y-87937399D01*
X88824500Y-88062601D01*
X88856905Y-88183536D01*
X88919505Y-88291964D01*
X89008036Y-88380495D01*
X89116464Y-88443095D01*
X89237399Y-88475500D01*
X89237401Y-88475500D01*
X89362599Y-88475500D01*
X89362601Y-88475500D01*
X89483536Y-88443095D01*
X89591964Y-88380495D01*
X89680495Y-88291964D01*
X89743095Y-88183536D01*
X89746452Y-88171008D01*
X95581900Y-88171008D01*
X95581900Y-88302792D01*
X95597925Y-88362598D01*
X95616009Y-88430090D01*
X95681896Y-88544209D01*
X95681898Y-88544211D01*
X95681900Y-88544214D01*
X95775086Y-88637400D01*
X95775088Y-88637401D01*
X95775090Y-88637403D01*
X95889210Y-88703290D01*
X95889208Y-88703290D01*
X95889212Y-88703291D01*
X95889214Y-88703292D01*
X96016508Y-88737400D01*
X96016510Y-88737400D01*
X96148290Y-88737400D01*
X96148292Y-88737400D01*
X96275586Y-88703292D01*
X96275588Y-88703290D01*
X96275590Y-88703290D01*
X96389709Y-88637403D01*
X96389709Y-88637402D01*
X96389714Y-88637400D01*
X96482900Y-88544214D01*
X96522572Y-88475500D01*
X96548790Y-88430090D01*
X96548790Y-88430088D01*
X96548792Y-88430086D01*
X96582900Y-88302792D01*
X96582900Y-88237399D01*
X101914500Y-88237399D01*
X101914500Y-88362601D01*
X101946905Y-88483536D01*
X102009505Y-88591964D01*
X102098036Y-88680495D01*
X102206464Y-88743095D01*
X102327399Y-88775500D01*
X102327401Y-88775500D01*
X102452599Y-88775500D01*
X102452601Y-88775500D01*
X102573536Y-88743095D01*
X102681964Y-88680495D01*
X102770495Y-88591964D01*
X102833095Y-88483536D01*
X102865500Y-88362601D01*
X102865500Y-88237399D01*
X102833095Y-88116464D01*
X102816294Y-88087363D01*
X102803575Y-88027515D01*
X102828462Y-87971619D01*
X102832010Y-87967880D01*
X102872134Y-87927757D01*
X102934734Y-87819329D01*
X102967139Y-87698394D01*
X102967139Y-87624200D01*
X104401301Y-87624200D01*
X104401301Y-87749402D01*
X104433706Y-87870337D01*
X104496306Y-87978765D01*
X104584837Y-88067296D01*
X104693265Y-88129896D01*
X104814200Y-88162301D01*
X104814202Y-88162301D01*
X104939400Y-88162301D01*
X104939402Y-88162301D01*
X105060337Y-88129896D01*
X105168765Y-88067296D01*
X105257296Y-87978765D01*
X105319896Y-87870337D01*
X105352301Y-87749402D01*
X105352301Y-87624200D01*
X105319896Y-87503265D01*
X105257296Y-87394837D01*
X105168765Y-87306306D01*
X105060337Y-87243706D01*
X104939402Y-87211301D01*
X104814200Y-87211301D01*
X104733576Y-87232904D01*
X104693264Y-87243706D01*
X104584837Y-87306306D01*
X104496306Y-87394837D01*
X104433706Y-87503264D01*
X104425720Y-87533069D01*
X104401301Y-87624200D01*
X102967139Y-87624200D01*
X102967139Y-87573192D01*
X102934734Y-87452257D01*
X102872134Y-87343829D01*
X102783603Y-87255298D01*
X102675175Y-87192698D01*
X102554240Y-87160293D01*
X102429038Y-87160293D01*
X102348414Y-87181896D01*
X102308102Y-87192698D01*
X102199675Y-87255298D01*
X102111144Y-87343829D01*
X102048544Y-87452256D01*
X102048544Y-87452257D01*
X102016139Y-87573192D01*
X102016139Y-87698394D01*
X102047824Y-87816641D01*
X102048545Y-87819332D01*
X102065344Y-87848430D01*
X102078063Y-87908278D01*
X102053175Y-87964173D01*
X102049610Y-87967930D01*
X102009507Y-88008033D01*
X102009505Y-88008035D01*
X102009505Y-88008036D01*
X101998259Y-88027515D01*
X101946905Y-88116463D01*
X101936103Y-88156775D01*
X101914500Y-88237399D01*
X96582900Y-88237399D01*
X96582900Y-88171008D01*
X96548792Y-88043714D01*
X96548790Y-88043711D01*
X96548790Y-88043709D01*
X96482903Y-87929590D01*
X96482901Y-87929588D01*
X96482900Y-87929586D01*
X96389714Y-87836400D01*
X96389711Y-87836398D01*
X96389709Y-87836396D01*
X96275589Y-87770509D01*
X96275591Y-87770509D01*
X96226199Y-87757275D01*
X96148292Y-87736400D01*
X96016508Y-87736400D01*
X95938600Y-87757275D01*
X95889209Y-87770509D01*
X95775090Y-87836396D01*
X95681896Y-87929590D01*
X95616009Y-88043709D01*
X95609689Y-88067296D01*
X95581900Y-88171008D01*
X89746452Y-88171008D01*
X89775500Y-88062601D01*
X89775500Y-87937399D01*
X89743095Y-87816464D01*
X89680495Y-87708036D01*
X89591964Y-87619505D01*
X89483536Y-87556905D01*
X89362601Y-87524500D01*
X89237399Y-87524500D01*
X89156775Y-87546103D01*
X89116463Y-87556905D01*
X89008036Y-87619505D01*
X88919505Y-87708036D01*
X88856905Y-87816463D01*
X88851564Y-87836396D01*
X88824500Y-87937399D01*
X72876539Y-87937399D01*
X73229655Y-87158056D01*
X92721685Y-87158056D01*
X92721685Y-87283258D01*
X92754090Y-87404193D01*
X92816690Y-87512621D01*
X92905221Y-87601152D01*
X93013649Y-87663752D01*
X93134584Y-87696157D01*
X93134586Y-87696157D01*
X93259784Y-87696157D01*
X93259786Y-87696157D01*
X93380721Y-87663752D01*
X93489149Y-87601152D01*
X93577680Y-87512621D01*
X93640280Y-87404193D01*
X93672685Y-87283258D01*
X93672685Y-87278540D01*
X99922332Y-87278540D01*
X99922332Y-87403742D01*
X99954737Y-87524677D01*
X100017337Y-87633105D01*
X100105868Y-87721636D01*
X100214296Y-87784236D01*
X100335231Y-87816641D01*
X100335233Y-87816641D01*
X100460431Y-87816641D01*
X100460433Y-87816641D01*
X100581368Y-87784236D01*
X100689796Y-87721636D01*
X100766284Y-87645147D01*
X100820799Y-87617372D01*
X100881231Y-87626943D01*
X100906286Y-87645146D01*
X100981809Y-87720669D01*
X101090237Y-87783269D01*
X101211172Y-87815674D01*
X101211174Y-87815674D01*
X101336372Y-87815674D01*
X101336374Y-87815674D01*
X101457309Y-87783269D01*
X101565737Y-87720669D01*
X101654268Y-87632138D01*
X101716868Y-87523710D01*
X101749273Y-87402775D01*
X101749273Y-87277573D01*
X101716868Y-87156638D01*
X101654268Y-87048210D01*
X101565737Y-86959679D01*
X101457309Y-86897079D01*
X101336374Y-86864674D01*
X101211172Y-86864674D01*
X101130548Y-86886277D01*
X101090236Y-86897079D01*
X101035479Y-86928693D01*
X100981809Y-86959679D01*
X100905320Y-87036167D01*
X100850806Y-87063943D01*
X100790374Y-87054372D01*
X100765318Y-87036168D01*
X100689796Y-86960646D01*
X100581368Y-86898046D01*
X100460433Y-86865641D01*
X100335231Y-86865641D01*
X100254607Y-86887244D01*
X100214295Y-86898046D01*
X100105868Y-86960646D01*
X100017337Y-87049177D01*
X99954737Y-87157604D01*
X99945334Y-87192698D01*
X99922332Y-87278540D01*
X93672685Y-87278540D01*
X93672685Y-87158056D01*
X93640280Y-87037121D01*
X93577680Y-86928693D01*
X93489149Y-86840162D01*
X93380721Y-86777562D01*
X93259786Y-86745157D01*
X93134584Y-86745157D01*
X93053960Y-86766760D01*
X93013648Y-86777562D01*
X92905221Y-86840162D01*
X92816690Y-86928693D01*
X92754090Y-87037120D01*
X92747131Y-87063092D01*
X92721685Y-87158056D01*
X73229655Y-87158056D01*
X73300491Y-87001717D01*
X73301259Y-87000067D01*
X73395010Y-86804114D01*
X73396955Y-86800272D01*
X73502874Y-86602111D01*
X95259351Y-86602111D01*
X95259351Y-86727313D01*
X95291756Y-86848248D01*
X95354356Y-86956676D01*
X95442887Y-87045207D01*
X95551315Y-87107807D01*
X95672250Y-87140212D01*
X95672252Y-87140212D01*
X95797450Y-87140212D01*
X95797452Y-87140212D01*
X95918387Y-87107807D01*
X96026815Y-87045207D01*
X96115346Y-86956676D01*
X96177946Y-86848248D01*
X96210351Y-86727313D01*
X96210351Y-86602111D01*
X96196372Y-86549941D01*
X96196372Y-86549939D01*
X96191246Y-86530808D01*
X110933300Y-86530808D01*
X110933300Y-86662592D01*
X110944929Y-86705992D01*
X110967409Y-86789890D01*
X111033296Y-86904009D01*
X111033298Y-86904011D01*
X111033300Y-86904014D01*
X111126486Y-86997200D01*
X111126488Y-86997201D01*
X111126490Y-86997203D01*
X111240610Y-87063090D01*
X111240608Y-87063090D01*
X111240612Y-87063091D01*
X111240614Y-87063092D01*
X111367908Y-87097200D01*
X111367910Y-87097200D01*
X111499690Y-87097200D01*
X111499692Y-87097200D01*
X111626986Y-87063092D01*
X111626988Y-87063090D01*
X111626990Y-87063090D01*
X111741109Y-86997203D01*
X111741109Y-86997202D01*
X111741114Y-86997200D01*
X111834300Y-86904014D01*
X111900192Y-86789886D01*
X111934300Y-86662592D01*
X111934300Y-86530808D01*
X111900192Y-86403514D01*
X111900190Y-86403511D01*
X111900190Y-86403509D01*
X111834303Y-86289390D01*
X111834301Y-86289388D01*
X111834300Y-86289386D01*
X111741114Y-86196200D01*
X111741111Y-86196198D01*
X111741109Y-86196196D01*
X111626989Y-86130309D01*
X111626991Y-86130309D01*
X111577599Y-86117075D01*
X111499692Y-86096200D01*
X111367908Y-86096200D01*
X111290000Y-86117075D01*
X111240609Y-86130309D01*
X111126490Y-86196196D01*
X111033296Y-86289390D01*
X110967409Y-86403509D01*
X110967408Y-86403514D01*
X110933300Y-86530808D01*
X96191246Y-86530808D01*
X96177947Y-86481179D01*
X96177946Y-86481178D01*
X96177946Y-86481176D01*
X96115346Y-86372748D01*
X96026815Y-86284217D01*
X95918387Y-86221617D01*
X95797452Y-86189212D01*
X95672250Y-86189212D01*
X95591626Y-86210815D01*
X95551314Y-86221617D01*
X95442887Y-86284217D01*
X95354356Y-86372748D01*
X95291756Y-86481175D01*
X95291756Y-86481176D01*
X95259351Y-86602111D01*
X73502874Y-86602111D01*
X74195630Y-85306056D01*
X74196797Y-85303942D01*
X74342372Y-85048298D01*
X74344281Y-85045091D01*
X75220098Y-83636663D01*
X75221795Y-83634030D01*
X75330416Y-83471467D01*
X83704200Y-83471467D01*
X83704200Y-83608532D01*
X83730939Y-83742956D01*
X83730939Y-83742958D01*
X83783387Y-83869580D01*
X83783393Y-83869591D01*
X83799162Y-83893190D01*
X83859537Y-83983547D01*
X83956453Y-84080463D01*
X84024394Y-84125860D01*
X84070408Y-84156606D01*
X84070419Y-84156612D01*
X84117193Y-84175986D01*
X84197043Y-84209061D01*
X84331470Y-84235800D01*
X84331471Y-84235800D01*
X84468529Y-84235800D01*
X84468530Y-84235800D01*
X84602957Y-84209061D01*
X84729585Y-84156610D01*
X84843547Y-84080463D01*
X84940463Y-83983547D01*
X85016610Y-83869585D01*
X85069061Y-83742957D01*
X85090712Y-83634108D01*
X91926500Y-83634108D01*
X91926500Y-83765892D01*
X91954283Y-83869580D01*
X91960609Y-83893190D01*
X92026496Y-84007309D01*
X92026498Y-84007311D01*
X92026500Y-84007314D01*
X92119686Y-84100500D01*
X92119688Y-84100501D01*
X92119690Y-84100503D01*
X92233810Y-84166390D01*
X92233808Y-84166390D01*
X92233812Y-84166391D01*
X92233814Y-84166392D01*
X92361108Y-84200500D01*
X92361110Y-84200500D01*
X92492890Y-84200500D01*
X92492892Y-84200500D01*
X92620186Y-84166392D01*
X92620188Y-84166390D01*
X92620190Y-84166390D01*
X92734309Y-84100503D01*
X92734309Y-84100502D01*
X92734314Y-84100500D01*
X92827500Y-84007314D01*
X92841222Y-83983547D01*
X92893390Y-83893190D01*
X92893390Y-83893188D01*
X92893392Y-83893186D01*
X92927500Y-83765892D01*
X92927500Y-83634108D01*
X92893392Y-83506814D01*
X92893390Y-83506811D01*
X92893390Y-83506809D01*
X92827503Y-83392690D01*
X92827501Y-83392688D01*
X92827500Y-83392686D01*
X92734314Y-83299500D01*
X92734311Y-83299498D01*
X92734309Y-83299496D01*
X92620189Y-83233609D01*
X92620191Y-83233609D01*
X92570799Y-83220375D01*
X92492892Y-83199500D01*
X92361108Y-83199500D01*
X92283200Y-83220375D01*
X92233809Y-83233609D01*
X92119690Y-83299496D01*
X92026496Y-83392690D01*
X91960609Y-83506809D01*
X91949942Y-83546621D01*
X91926500Y-83634108D01*
X85090712Y-83634108D01*
X85092400Y-83625619D01*
X85122297Y-83572237D01*
X85177861Y-83546621D01*
X85237871Y-83558558D01*
X85238998Y-83559199D01*
X85288926Y-83588025D01*
X85288930Y-83588027D01*
X85409865Y-83620432D01*
X85409867Y-83620432D01*
X85535065Y-83620432D01*
X85535067Y-83620432D01*
X85656002Y-83588027D01*
X85764430Y-83525427D01*
X85852961Y-83436896D01*
X85915561Y-83328468D01*
X85947966Y-83207533D01*
X85947966Y-83082331D01*
X85915561Y-82961396D01*
X85852961Y-82852968D01*
X85764430Y-82764437D01*
X85675951Y-82713354D01*
X85656004Y-82701838D01*
X85656003Y-82701837D01*
X85656002Y-82701837D01*
X85535067Y-82669432D01*
X85409865Y-82669432D01*
X85329241Y-82691035D01*
X85288929Y-82701837D01*
X85180502Y-82764437D01*
X85091971Y-82852968D01*
X85051314Y-82923390D01*
X85029370Y-82961398D01*
X85029369Y-82961400D01*
X85026420Y-82972405D01*
X84993094Y-83023718D01*
X84935971Y-83045642D01*
X84876871Y-83029803D01*
X84860791Y-83016781D01*
X84843550Y-82999540D01*
X84843547Y-82999537D01*
X84786465Y-82961396D01*
X84729591Y-82923393D01*
X84729580Y-82923387D01*
X84602957Y-82870939D01*
X84468532Y-82844200D01*
X84468530Y-82844200D01*
X84331470Y-82844200D01*
X84331467Y-82844200D01*
X84197043Y-82870939D01*
X84197041Y-82870939D01*
X84070419Y-82923387D01*
X84070408Y-82923393D01*
X83956453Y-82999537D01*
X83956449Y-82999540D01*
X83859540Y-83096449D01*
X83859537Y-83096453D01*
X83783393Y-83210408D01*
X83783387Y-83210419D01*
X83730939Y-83337041D01*
X83730939Y-83337043D01*
X83704200Y-83471467D01*
X75330416Y-83471467D01*
X75397633Y-83370869D01*
X75399364Y-83368369D01*
X75925528Y-82634108D01*
X89890800Y-82634108D01*
X89890800Y-82765892D01*
X89914132Y-82852968D01*
X89924909Y-82893190D01*
X89990796Y-83007309D01*
X89990798Y-83007311D01*
X89990800Y-83007314D01*
X90083986Y-83100500D01*
X90083988Y-83100501D01*
X90083990Y-83100503D01*
X90198110Y-83166390D01*
X90198108Y-83166390D01*
X90198112Y-83166391D01*
X90198114Y-83166392D01*
X90325408Y-83200500D01*
X90325410Y-83200500D01*
X90457190Y-83200500D01*
X90457192Y-83200500D01*
X90584486Y-83166392D01*
X90584488Y-83166390D01*
X90584490Y-83166390D01*
X90698609Y-83100503D01*
X90698609Y-83100502D01*
X90698614Y-83100500D01*
X90791800Y-83007314D01*
X90818311Y-82961396D01*
X90857690Y-82893190D01*
X90857690Y-82893188D01*
X90857692Y-82893186D01*
X90891800Y-82765892D01*
X90891800Y-82634108D01*
X90857692Y-82506814D01*
X90857690Y-82506811D01*
X90857690Y-82506809D01*
X90791803Y-82392690D01*
X90791801Y-82392688D01*
X90791800Y-82392686D01*
X90698614Y-82299500D01*
X90698611Y-82299498D01*
X90698609Y-82299496D01*
X90584489Y-82233609D01*
X90584491Y-82233609D01*
X90535099Y-82220375D01*
X90457192Y-82199500D01*
X90325408Y-82199500D01*
X90247500Y-82220375D01*
X90198109Y-82233609D01*
X90083990Y-82299496D01*
X89990796Y-82392690D01*
X89924909Y-82506809D01*
X89924908Y-82506814D01*
X89890800Y-82634108D01*
X75925528Y-82634108D01*
X76365465Y-82020176D01*
X76367613Y-82017297D01*
X76548174Y-81784862D01*
X76549690Y-81782964D01*
X76972550Y-81267708D01*
X85380400Y-81267708D01*
X85380400Y-81399492D01*
X85388520Y-81429796D01*
X85414509Y-81526790D01*
X85480396Y-81640909D01*
X85480398Y-81640911D01*
X85480400Y-81640914D01*
X85573586Y-81734100D01*
X85573588Y-81734101D01*
X85573590Y-81734103D01*
X85687710Y-81799990D01*
X85687708Y-81799990D01*
X85687712Y-81799991D01*
X85687714Y-81799992D01*
X85815008Y-81834100D01*
X85815010Y-81834100D01*
X85946790Y-81834100D01*
X85946792Y-81834100D01*
X86074086Y-81799992D01*
X86074088Y-81799990D01*
X86074090Y-81799990D01*
X86135719Y-81764408D01*
X91777000Y-81764408D01*
X91777000Y-81896192D01*
X91806773Y-82007309D01*
X91811109Y-82023490D01*
X91876996Y-82137609D01*
X91876998Y-82137611D01*
X91877000Y-82137614D01*
X91970186Y-82230800D01*
X91970188Y-82230801D01*
X91970190Y-82230803D01*
X92084310Y-82296690D01*
X92084308Y-82296690D01*
X92084312Y-82296691D01*
X92084314Y-82296692D01*
X92211608Y-82330800D01*
X92211610Y-82330800D01*
X92343390Y-82330800D01*
X92343392Y-82330800D01*
X92470686Y-82296692D01*
X92470688Y-82296690D01*
X92470690Y-82296690D01*
X92584809Y-82230803D01*
X92584809Y-82230802D01*
X92584814Y-82230800D01*
X92678000Y-82137614D01*
X92743892Y-82023486D01*
X92778000Y-81896192D01*
X92778000Y-81764408D01*
X92743892Y-81637114D01*
X92743890Y-81637111D01*
X92743890Y-81637109D01*
X92742157Y-81634108D01*
X97697000Y-81634108D01*
X97697000Y-81765892D01*
X97706137Y-81799992D01*
X97731109Y-81893190D01*
X97796996Y-82007309D01*
X97796998Y-82007311D01*
X97797000Y-82007314D01*
X97890186Y-82100500D01*
X97890188Y-82100501D01*
X97890190Y-82100503D01*
X98004310Y-82166390D01*
X98004308Y-82166390D01*
X98004312Y-82166391D01*
X98004314Y-82166392D01*
X98131608Y-82200500D01*
X98131610Y-82200500D01*
X98263390Y-82200500D01*
X98263392Y-82200500D01*
X98390686Y-82166392D01*
X98390688Y-82166390D01*
X98390690Y-82166390D01*
X98504809Y-82100503D01*
X98504809Y-82100502D01*
X98504814Y-82100500D01*
X98598000Y-82007314D01*
X98598003Y-82007309D01*
X98663890Y-81893190D01*
X98663890Y-81893188D01*
X98663892Y-81893186D01*
X98698000Y-81765892D01*
X98698000Y-81634108D01*
X98663892Y-81506814D01*
X98663890Y-81506811D01*
X98663890Y-81506809D01*
X98598003Y-81392690D01*
X98598001Y-81392688D01*
X98598000Y-81392686D01*
X98504814Y-81299500D01*
X98504811Y-81299498D01*
X98504809Y-81299496D01*
X98390689Y-81233609D01*
X98390691Y-81233609D01*
X98341299Y-81220375D01*
X98263392Y-81199500D01*
X98131608Y-81199500D01*
X98053700Y-81220375D01*
X98004309Y-81233609D01*
X97890190Y-81299496D01*
X97796996Y-81392690D01*
X97731109Y-81506809D01*
X97725755Y-81526790D01*
X97697000Y-81634108D01*
X92742157Y-81634108D01*
X92678003Y-81522990D01*
X92678001Y-81522988D01*
X92678000Y-81522986D01*
X92584814Y-81429800D01*
X92584811Y-81429798D01*
X92584809Y-81429796D01*
X92470689Y-81363909D01*
X92470691Y-81363909D01*
X92421299Y-81350675D01*
X92343392Y-81329800D01*
X92211608Y-81329800D01*
X92133700Y-81350675D01*
X92084309Y-81363909D01*
X91970190Y-81429796D01*
X91876996Y-81522990D01*
X91811109Y-81637109D01*
X91797496Y-81687915D01*
X91777000Y-81764408D01*
X86135719Y-81764408D01*
X86188209Y-81734103D01*
X86188209Y-81734102D01*
X86188214Y-81734100D01*
X86281400Y-81640914D01*
X86285329Y-81634109D01*
X86347290Y-81526790D01*
X86347290Y-81526788D01*
X86347292Y-81526786D01*
X86381400Y-81399492D01*
X86381400Y-81267708D01*
X86347292Y-81140414D01*
X86347290Y-81140411D01*
X86347290Y-81140409D01*
X86281403Y-81026290D01*
X86281401Y-81026288D01*
X86281400Y-81026286D01*
X86188214Y-80933100D01*
X86188211Y-80933098D01*
X86188209Y-80933096D01*
X86074089Y-80867209D01*
X86074091Y-80867209D01*
X86024699Y-80853975D01*
X85946792Y-80833100D01*
X85815008Y-80833100D01*
X85737100Y-80853975D01*
X85687709Y-80867209D01*
X85573590Y-80933096D01*
X85480396Y-81026290D01*
X85414509Y-81140409D01*
X85414508Y-81140414D01*
X85380400Y-81267708D01*
X76972550Y-81267708D01*
X77624490Y-80473317D01*
X77627330Y-80470010D01*
X77772426Y-80308478D01*
X77773643Y-80307151D01*
X77828474Y-80248608D01*
X82680000Y-80248608D01*
X82680000Y-80380392D01*
X82694116Y-80433073D01*
X82714109Y-80507690D01*
X82779996Y-80621809D01*
X82779998Y-80621811D01*
X82780000Y-80621814D01*
X82873186Y-80715000D01*
X82873188Y-80715001D01*
X82873190Y-80715003D01*
X82987310Y-80780890D01*
X82987308Y-80780890D01*
X82987312Y-80780891D01*
X82987314Y-80780892D01*
X83114608Y-80815000D01*
X83114610Y-80815000D01*
X83246390Y-80815000D01*
X83246392Y-80815000D01*
X83373686Y-80780892D01*
X83373688Y-80780890D01*
X83373690Y-80780890D01*
X83487809Y-80715003D01*
X83487809Y-80715002D01*
X83487814Y-80715000D01*
X83581000Y-80621814D01*
X83581003Y-80621809D01*
X83646890Y-80507690D01*
X83646890Y-80507688D01*
X83646892Y-80507686D01*
X83681000Y-80380392D01*
X83681000Y-80307874D01*
X88992576Y-80307874D01*
X88992576Y-80433076D01*
X89024981Y-80554011D01*
X89087581Y-80662439D01*
X89176112Y-80750970D01*
X89284540Y-80813570D01*
X89405475Y-80845975D01*
X89405477Y-80845975D01*
X89530675Y-80845975D01*
X89530677Y-80845975D01*
X89651612Y-80813570D01*
X89760040Y-80750970D01*
X89848571Y-80662439D01*
X89911171Y-80554011D01*
X89943576Y-80433076D01*
X89943576Y-80307874D01*
X89911171Y-80186939D01*
X89848571Y-80078511D01*
X89760040Y-79989980D01*
X89651612Y-79927380D01*
X89530677Y-79894975D01*
X89405475Y-79894975D01*
X89334489Y-79913996D01*
X89284539Y-79927380D01*
X89176112Y-79989980D01*
X89087581Y-80078511D01*
X89024981Y-80186938D01*
X89024981Y-80186939D01*
X88992576Y-80307874D01*
X83681000Y-80307874D01*
X83681000Y-80248608D01*
X83646892Y-80121314D01*
X83646890Y-80121311D01*
X83646890Y-80121309D01*
X83581003Y-80007190D01*
X83581001Y-80007188D01*
X83581000Y-80007186D01*
X83487814Y-79914000D01*
X83487811Y-79913998D01*
X83487809Y-79913996D01*
X83373689Y-79848109D01*
X83373691Y-79848109D01*
X83324299Y-79834875D01*
X83246392Y-79814000D01*
X83114608Y-79814000D01*
X83036700Y-79834875D01*
X82987309Y-79848109D01*
X82873190Y-79913996D01*
X82779996Y-80007190D01*
X82714109Y-80121309D01*
X82696524Y-80186938D01*
X82680000Y-80248608D01*
X77828474Y-80248608D01*
X78404016Y-79634108D01*
X91777000Y-79634108D01*
X91777000Y-79765892D01*
X91799030Y-79848108D01*
X91811109Y-79893190D01*
X91876996Y-80007309D01*
X91876998Y-80007311D01*
X91877000Y-80007314D01*
X91970186Y-80100500D01*
X91970188Y-80100501D01*
X91970190Y-80100503D01*
X92084310Y-80166390D01*
X92084308Y-80166390D01*
X92084312Y-80166391D01*
X92084314Y-80166392D01*
X92211608Y-80200500D01*
X92211610Y-80200500D01*
X92343390Y-80200500D01*
X92343392Y-80200500D01*
X92470686Y-80166392D01*
X92470688Y-80166390D01*
X92470690Y-80166390D01*
X92584809Y-80100503D01*
X92584809Y-80100502D01*
X92584814Y-80100500D01*
X92678000Y-80007314D01*
X92731875Y-79914000D01*
X92743890Y-79893190D01*
X92743890Y-79893188D01*
X92743892Y-79893186D01*
X92778000Y-79765892D01*
X92778000Y-79634108D01*
X92743892Y-79506814D01*
X92743890Y-79506811D01*
X92743890Y-79506809D01*
X92678003Y-79392690D01*
X92678001Y-79392688D01*
X92678000Y-79392686D01*
X92584814Y-79299500D01*
X92584811Y-79299498D01*
X92584809Y-79299496D01*
X92470689Y-79233609D01*
X92470691Y-79233609D01*
X92421299Y-79220375D01*
X92343392Y-79199500D01*
X92211608Y-79199500D01*
X92133700Y-79220375D01*
X92084309Y-79233609D01*
X91970190Y-79299496D01*
X91876996Y-79392690D01*
X91811109Y-79506809D01*
X91811108Y-79506814D01*
X91777000Y-79634108D01*
X78404016Y-79634108D01*
X78975601Y-79023833D01*
X78976273Y-79023127D01*
X78998099Y-79000507D01*
X79000507Y-78998099D01*
X79023127Y-78976273D01*
X79023833Y-78975601D01*
X79647507Y-78391467D01*
X82688200Y-78391467D01*
X82688200Y-78528532D01*
X82714939Y-78662956D01*
X82714939Y-78662958D01*
X82767387Y-78789580D01*
X82767393Y-78789591D01*
X82813202Y-78858148D01*
X82843537Y-78903547D01*
X82940453Y-79000463D01*
X82975429Y-79023833D01*
X83054408Y-79076606D01*
X83054419Y-79076612D01*
X83101193Y-79095986D01*
X83181043Y-79129061D01*
X83315470Y-79155800D01*
X83315471Y-79155800D01*
X83452529Y-79155800D01*
X83452530Y-79155800D01*
X83586957Y-79129061D01*
X83713585Y-79076610D01*
X83827547Y-79000463D01*
X83924463Y-78903547D01*
X84000610Y-78789585D01*
X84053061Y-78662957D01*
X84079800Y-78528530D01*
X84079800Y-78391470D01*
X84079799Y-78391467D01*
X84720200Y-78391467D01*
X84720200Y-78528532D01*
X84746939Y-78662956D01*
X84746939Y-78662958D01*
X84799387Y-78789580D01*
X84799393Y-78789591D01*
X84845202Y-78858148D01*
X84875537Y-78903547D01*
X84972453Y-79000463D01*
X85007429Y-79023833D01*
X85086408Y-79076606D01*
X85086419Y-79076612D01*
X85133193Y-79095986D01*
X85213043Y-79129061D01*
X85347470Y-79155800D01*
X85347471Y-79155800D01*
X85484529Y-79155800D01*
X85484530Y-79155800D01*
X85618957Y-79129061D01*
X85745585Y-79076610D01*
X85859547Y-79000463D01*
X85956463Y-78903547D01*
X86032610Y-78789585D01*
X86085061Y-78662957D01*
X86111800Y-78528530D01*
X86111800Y-78391470D01*
X86085061Y-78257043D01*
X86039310Y-78146590D01*
X86032612Y-78130419D01*
X86032606Y-78130408D01*
X85987779Y-78063321D01*
X85979140Y-78050392D01*
X85956463Y-78016453D01*
X85954818Y-78014808D01*
X91091700Y-78014808D01*
X91091700Y-78146592D01*
X91121294Y-78257041D01*
X91125809Y-78273890D01*
X91191696Y-78388009D01*
X91191698Y-78388011D01*
X91191700Y-78388014D01*
X91284886Y-78481200D01*
X91284888Y-78481201D01*
X91284890Y-78481203D01*
X91399010Y-78547090D01*
X91399008Y-78547090D01*
X91399012Y-78547091D01*
X91399014Y-78547092D01*
X91526308Y-78581200D01*
X91526310Y-78581200D01*
X91658090Y-78581200D01*
X91658092Y-78581200D01*
X91785386Y-78547092D01*
X91785388Y-78547090D01*
X91785390Y-78547090D01*
X91899509Y-78481203D01*
X91899509Y-78481202D01*
X91899514Y-78481200D01*
X91992700Y-78388014D01*
X92058592Y-78273886D01*
X92092700Y-78146592D01*
X92092700Y-78140104D01*
X92111607Y-78081913D01*
X92161107Y-78045949D01*
X92222293Y-78045949D01*
X92229589Y-78048641D01*
X92233805Y-78050386D01*
X92233814Y-78050392D01*
X92361108Y-78084500D01*
X92361110Y-78084500D01*
X92492890Y-78084500D01*
X92492892Y-78084500D01*
X92620186Y-78050392D01*
X92620188Y-78050390D01*
X92620190Y-78050390D01*
X92734309Y-77984503D01*
X92734309Y-77984502D01*
X92734314Y-77984500D01*
X92827500Y-77891314D01*
X92893392Y-77777186D01*
X92927500Y-77649892D01*
X92927500Y-77518108D01*
X92893392Y-77390814D01*
X92893390Y-77390811D01*
X92893390Y-77390809D01*
X92827503Y-77276690D01*
X92827501Y-77276688D01*
X92827500Y-77276686D01*
X92734314Y-77183500D01*
X92734311Y-77183498D01*
X92734309Y-77183496D01*
X92620189Y-77117609D01*
X92620191Y-77117609D01*
X92570799Y-77104375D01*
X92492892Y-77083500D01*
X92361108Y-77083500D01*
X92283200Y-77104375D01*
X92233809Y-77117609D01*
X92119690Y-77183496D01*
X92026496Y-77276690D01*
X91960609Y-77390809D01*
X91926500Y-77518109D01*
X91926500Y-77524595D01*
X91907593Y-77582786D01*
X91858093Y-77618750D01*
X91796907Y-77618750D01*
X91789618Y-77616061D01*
X91785387Y-77614308D01*
X91742954Y-77602938D01*
X91658092Y-77580200D01*
X91526308Y-77580200D01*
X91448400Y-77601075D01*
X91399009Y-77614309D01*
X91284890Y-77680196D01*
X91191696Y-77773390D01*
X91125809Y-77887509D01*
X91117227Y-77919540D01*
X91091700Y-78014808D01*
X85954818Y-78014808D01*
X85859547Y-77919537D01*
X85811614Y-77887509D01*
X85745591Y-77843393D01*
X85745580Y-77843387D01*
X85618957Y-77790939D01*
X85484532Y-77764200D01*
X85484530Y-77764200D01*
X85347470Y-77764200D01*
X85347467Y-77764200D01*
X85213043Y-77790939D01*
X85213041Y-77790939D01*
X85086419Y-77843387D01*
X85086408Y-77843393D01*
X84972453Y-77919537D01*
X84972449Y-77919540D01*
X84875540Y-78016449D01*
X84875537Y-78016453D01*
X84799393Y-78130408D01*
X84799387Y-78130419D01*
X84746939Y-78257041D01*
X84746939Y-78257043D01*
X84720200Y-78391467D01*
X84079799Y-78391467D01*
X84053061Y-78257043D01*
X84007310Y-78146590D01*
X84000612Y-78130419D01*
X84000606Y-78130408D01*
X83947140Y-78050392D01*
X83924463Y-78016453D01*
X83827547Y-77919537D01*
X83779614Y-77887509D01*
X83713591Y-77843393D01*
X83713580Y-77843387D01*
X83586957Y-77790939D01*
X83452532Y-77764200D01*
X83452530Y-77764200D01*
X83315470Y-77764200D01*
X83315467Y-77764200D01*
X83181043Y-77790939D01*
X83181041Y-77790939D01*
X83054419Y-77843387D01*
X83054408Y-77843393D01*
X82940453Y-77919537D01*
X82940449Y-77919540D01*
X82843540Y-78016449D01*
X82843537Y-78016453D01*
X82767393Y-78130408D01*
X82767387Y-78130419D01*
X82714939Y-78257041D01*
X82714939Y-78257043D01*
X82688200Y-78391467D01*
X79647507Y-78391467D01*
X80307151Y-77773643D01*
X80308478Y-77772426D01*
X80470010Y-77627330D01*
X80473317Y-77624490D01*
X81782964Y-76549690D01*
X81784862Y-76548174D01*
X82017297Y-76367613D01*
X82020176Y-76365465D01*
X83368335Y-75399389D01*
X83370938Y-75397588D01*
X83634053Y-75221780D01*
X83636627Y-75220120D01*
X84579010Y-74634108D01*
X88888900Y-74634108D01*
X88888900Y-74765892D01*
X88898586Y-74802040D01*
X88923009Y-74893190D01*
X88988896Y-75007309D01*
X88988898Y-75007311D01*
X88988900Y-75007314D01*
X89082086Y-75100500D01*
X89082088Y-75100501D01*
X89082090Y-75100503D01*
X89196210Y-75166390D01*
X89196208Y-75166390D01*
X89196212Y-75166391D01*
X89196214Y-75166392D01*
X89323508Y-75200500D01*
X89323510Y-75200500D01*
X89455290Y-75200500D01*
X89455292Y-75200500D01*
X89582586Y-75166392D01*
X89582588Y-75166390D01*
X89582590Y-75166390D01*
X89696709Y-75100503D01*
X89696709Y-75100502D01*
X89696714Y-75100500D01*
X89789900Y-75007314D01*
X89855792Y-74893186D01*
X89889900Y-74765892D01*
X89889900Y-74634108D01*
X89855792Y-74506814D01*
X89855790Y-74506811D01*
X89855790Y-74506809D01*
X89789903Y-74392690D01*
X89789901Y-74392688D01*
X89789900Y-74392686D01*
X89696714Y-74299500D01*
X89696711Y-74299498D01*
X89696709Y-74299496D01*
X89582589Y-74233609D01*
X89582591Y-74233609D01*
X89521178Y-74217154D01*
X89455292Y-74199500D01*
X89323508Y-74199500D01*
X89257622Y-74217154D01*
X89196209Y-74233609D01*
X89082090Y-74299496D01*
X88988896Y-74392690D01*
X88923009Y-74506809D01*
X88923008Y-74506814D01*
X88888900Y-74634108D01*
X84579010Y-74634108D01*
X85045089Y-74344281D01*
X85048277Y-74342384D01*
X85303956Y-74196789D01*
X85306069Y-74195623D01*
X86800271Y-73396955D01*
X86804113Y-73395010D01*
X87000067Y-73301259D01*
X87001717Y-73300491D01*
X87123572Y-73245279D01*
X87184376Y-73238486D01*
X87237563Y-73268731D01*
X87262815Y-73324462D01*
X87250486Y-73384393D01*
X87247408Y-73389031D01*
X87179409Y-73506809D01*
X87179408Y-73506814D01*
X87145300Y-73634108D01*
X87145300Y-73765892D01*
X87175379Y-73878151D01*
X87179409Y-73893190D01*
X87245296Y-74007309D01*
X87245298Y-74007311D01*
X87245300Y-74007314D01*
X87338486Y-74100500D01*
X87338488Y-74100501D01*
X87338490Y-74100503D01*
X87452610Y-74166390D01*
X87452608Y-74166390D01*
X87452612Y-74166391D01*
X87452614Y-74166392D01*
X87579908Y-74200500D01*
X87579910Y-74200500D01*
X87711690Y-74200500D01*
X87711692Y-74200500D01*
X87838986Y-74166392D01*
X87838988Y-74166390D01*
X87838990Y-74166390D01*
X87953109Y-74100503D01*
X87953109Y-74100502D01*
X87953114Y-74100500D01*
X88046300Y-74007314D01*
X88112192Y-73893186D01*
X88146300Y-73765892D01*
X88146300Y-73634108D01*
X88112192Y-73506814D01*
X88112190Y-73506811D01*
X88112190Y-73506809D01*
X88046303Y-73392690D01*
X88046301Y-73392688D01*
X88046300Y-73392686D01*
X87953114Y-73299500D01*
X87953111Y-73299498D01*
X87953109Y-73299496D01*
X87838989Y-73233609D01*
X87838991Y-73233609D01*
X87789599Y-73220375D01*
X87711692Y-73199500D01*
X87682986Y-73199500D01*
X87624795Y-73180593D01*
X87588831Y-73131093D01*
X87588831Y-73069907D01*
X87624795Y-73020407D01*
X87642119Y-73010329D01*
X88603181Y-72574877D01*
X88604231Y-72574411D01*
X88632930Y-72561919D01*
X88636078Y-72560615D01*
X88665268Y-72549130D01*
X88666216Y-72548765D01*
X90311795Y-71929413D01*
X90313517Y-71928785D01*
X90518337Y-71856529D01*
X90522411Y-71855194D01*
X92143678Y-71363387D01*
X92146067Y-71362697D01*
X92429805Y-71284858D01*
X92433387Y-71283948D01*
X94048636Y-70907326D01*
X94051602Y-70906685D01*
X94362072Y-70844929D01*
X94365059Y-70844385D01*
X95484875Y-70659503D01*
X95545367Y-70668679D01*
X95588914Y-70711660D01*
X95600000Y-70757181D01*
X95600000Y-75800000D01*
X95600001Y-75800000D01*
X104399999Y-75800000D01*
X104400000Y-75800000D01*
X104400000Y-70757181D01*
X104418907Y-70698990D01*
X104468407Y-70663026D01*
X104515123Y-70659503D01*
X105634863Y-70844373D01*
G37*
%TD.AperFunction*%
%TD*%
M02*
