M48
; DRILL file KiCad 10.0.5 date 2026-10-09T07:27:39
; FORMAT={-:-/ absolute / metric / decimal}
; #@! TF.CreationDate,2026-10-09T07:27:39-04:00
; #@! TF.GenerationSoftware,Kicad,Pcbnew,10.0.5
; #@! TF.FileFunction,Plated,1,4,PTH
FMAT,2
METRIC
; #@! TA.AperFunction,Plated,PTH,ViaDrill
T1C0.300
; #@! TA.AperFunction,Plated,PTH,ComponentDrill
T2C0.700
%
G90
G05
T1
X79.02Y-95.642
X79.55Y-100.0
X83.18Y-80.314
X85.0Y-112.0
X85.2Y-104.07
X85.472Y-83.145
X85.881Y-81.334
X85.934Y-79.43
X86.0Y-111.0
X86.0Y-112.0
X86.0Y-113.0
X87.0Y-112.0
X87.542Y-108.461
X87.646Y-73.7
X87.646Y-90.223
X87.78Y-95.642
X87.786Y-109.917
X88.15Y-106.17
X88.415Y-110.17
X88.607Y-108.587
X88.818Y-112.818
X89.22Y-111.06
X89.3Y-88.0
X89.389Y-74.7
X89.468Y-80.37
X89.7Y-105.99
X89.7Y-108.41
X90.259Y-105.365
X90.391Y-82.7
X90.391Y-99.159
X90.503Y-108.421
X90.91Y-110.3
X91.0Y-104.79
X91.0Y-107.21
X91.592Y-78.081
X91.75Y-107.0
X91.95Y-118.05
X91.979Y-105.312
X92.277Y-79.7
X92.277Y-81.83
X92.369Y-108.691
X92.4Y-115.412
X92.4Y-120.587
X92.425Y-100.045
X92.427Y-77.584
X92.427Y-83.7
X92.741Y-72.199
X93.081Y-88.931
X93.197Y-87.221
X93.353Y-85.794
X93.969Y-107.95
X95.21Y-88.0
X95.735Y-86.665
X96.05Y-100.75
X96.05Y-102.5
X96.05Y-104.25
X96.082Y-88.237
X96.244Y-99.883
X96.508Y-87.636
X96.508Y-95.164
X96.519Y-118.048
X96.519Y-119.952
X96.7Y-99.2
X97.4Y-105.1
X97.498Y-97.066
X97.75Y-99.25
X98.197Y-81.7
X98.25Y-105.8
X98.333Y-89.847
X98.55Y-121.0
X98.6Y-113.37
X98.75Y-99.25
X99.0Y-101.8
X99.0Y-103.2
X99.59Y-117.04
X99.75Y-99.25
X100.0Y-105.8
X100.25Y-98.45
X100.38Y-121.26
X100.398Y-87.341
X100.4Y-101.8
X100.4Y-103.2
X100.75Y-99.25
X101.259Y-89.795
X101.274Y-87.34
X101.4Y-124.63
X101.45Y-117.0
X101.45Y-98.45
X101.6Y-101.8
X101.6Y-103.2
X101.69Y-107.0
X101.69Y-108.2
X101.69Y-109.4
X101.75Y-105.8
X102.39Y-88.3
X102.492Y-87.636
X102.85Y-110.9
X103.1Y-99.25
X103.203Y-95.121
X103.315Y-94.262
X103.451Y-118.046
X103.451Y-119.954
X103.84Y-100.21
X103.95Y-101.5
X103.95Y-103.1
X104.693Y-88.913
X104.877Y-87.687
X104.95Y-102.3
X105.0Y-94.89
X105.4Y-98.59
X106.1Y-103.19
X106.2Y-94.89
X106.2Y-116.19
X106.5Y-106.79
X106.5Y-110.39
X106.511Y-99.285
X106.6Y-98.59
X106.647Y-85.794
X106.689Y-95.602
X107.003Y-103.839
X107.036Y-99.842
X107.253Y-73.184
X107.3Y-103.19
X107.314Y-75.588
X107.369Y-71.961
X107.7Y-106.79
X107.7Y-110.39
X107.976Y-72.421
X108.0Y-91.535
X108.069Y-104.331
X108.3Y-99.75
X108.469Y-107.931
X109.134Y-97.902
X109.244Y-92.283
X109.4Y-111.55
X109.9Y-100.44
X111.0Y-100.44
X111.434Y-86.597
X111.6Y-117.9
X112.22Y-88.642
X112.648Y-89.668
X112.7Y-119.8
X112.9Y-106.9
X112.932Y-118.725
X112.932Y-120.875
X113.262Y-102.274
X113.356Y-92.283
X113.749Y-118.229
X114.4Y-121.5
X114.564Y-93.858
X114.564Y-99.842
X114.859Y-95.952
X114.86Y-95.076
X114.928Y-121.075
X115.051Y-118.229
X115.81Y-92.6
X116.168Y-121.568
X116.23Y-101.2
X116.5Y-119.8
X117.4Y-117.9
X117.4Y-121.7
X120.55Y-116.2
X120.98Y-88.642
X122.35Y-100.0
T2
X97.6Y-116.85
X97.6Y-121.15
X102.4Y-116.85
X102.4Y-121.15
M30
