ISO-10303-21;
HEADER;
FILE_DESCRIPTION(('FreeCAD Model'),'2;1');
FILE_NAME('Open CASCADE Shape Model','2026-10-09T07:29:16',('FreeCAD'),(
    'FreeCAD'),'Open CASCADE STEP processor 7.8','FreeCAD','Unknown');
FILE_SCHEMA(('AUTOMOTIVE_DESIGN { 1 0 10303 214 1 1 1 1 }'));
ENDSEC;
DATA;
#1 = APPLICATION_PROTOCOL_DEFINITION('international standard',
  'automotive_design',2000,#2);
#2 = APPLICATION_CONTEXT(
  'core data for automotive mechanical design processes');
#3 = SHAPE_DEFINITION_REPRESENTATION(#4,#10);
#4 = PRODUCT_DEFINITION_SHAPE('','',#5);
#5 = PRODUCT_DEFINITION('design','',#6,#9);
#6 = PRODUCT_DEFINITION_FORMATION('','',#7);
#7 = PRODUCT('Open CASCADE STEP translator 7.8 1',
  'Open CASCADE STEP translator 7.8 1','',(#8));
#8 = PRODUCT_CONTEXT('',#2,'mechanical');
#9 = PRODUCT_DEFINITION_CONTEXT('part definition',#2,'design');
#10 = ADVANCED_BREP_SHAPE_REPRESENTATION('',(#11,#15),#1410);
#11 = AXIS2_PLACEMENT_3D('',#12,#13,#14);
#12 = CARTESIAN_POINT('',(0.,0.,0.));
#13 = DIRECTION('',(0.,0.,1.));
#14 = DIRECTION('',(1.,0.,-0.));
#15 = MANIFOLD_SOLID_BREP('',#16);
#16 = CLOSED_SHELL('',(#17,#266,#291,#311,#343,#367,#391,#409,#441,#465,
    #489,#507,#539,#563,#587,#605,#637,#661,#685,#703,#735,#759,#783,
    #801,#833,#857,#882,#899,#908,#1098,#1129,#1154,#1178,#1242,#1266,
    #1291,#1308,#1332,#1357,#1374,#1386,#1398));
#17 = ADVANCED_FACE('',(#18,#45,#81,#117,#153,#189,#225),#261,.T.);
#18 = FACE_BOUND('',#19,.T.);
#19 = EDGE_LOOP('',(#20,#30,#37,#38));
#20 = ORIENTED_EDGE('',*,*,#21,.T.);
#21 = EDGE_CURVE('',#22,#24,#26,.T.);
#22 = VERTEX_POINT('',#23);
#23 = CARTESIAN_POINT('',(32.4,0.,0.8));
#24 = VERTEX_POINT('',#25);
#25 = CARTESIAN_POINT('',(32.4,-7.935711258475E-15,21.325290242014));
#26 = LINE('',#27,#28);
#27 = CARTESIAN_POINT('',(32.4,-7.935711258475E-15,0.));
#28 = VECTOR('',#29,1.);
#29 = DIRECTION('',(0.,0.,1.));
#30 = ORIENTED_EDGE('',*,*,#31,.F.);
#31 = EDGE_CURVE('',#24,#24,#32,.T.);
#32 = CIRCLE('',#33,32.4);
#33 = AXIS2_PLACEMENT_3D('',#34,#35,#36);
#34 = CARTESIAN_POINT('',(0.,0.,21.325290242014));
#35 = DIRECTION('',(0.,0.,1.));
#36 = DIRECTION('',(1.,0.,-0.));
#37 = ORIENTED_EDGE('',*,*,#21,.F.);
#38 = ORIENTED_EDGE('',*,*,#39,.T.);
#39 = EDGE_CURVE('',#22,#22,#40,.T.);
#40 = CIRCLE('',#41,32.4);
#41 = AXIS2_PLACEMENT_3D('',#42,#43,#44);
#42 = CARTESIAN_POINT('',(0.,0.,0.8));
#43 = DIRECTION('',(0.,0.,1.));
#44 = DIRECTION('',(1.,0.,-0.));
#45 = FACE_BOUND('',#46,.T.);
#46 = EDGE_LOOP('',(#47,#58,#66,#75));
#47 = ORIENTED_EDGE('',*,*,#48,.F.);
#48 = EDGE_CURVE('',#49,#51,#53,.T.);
#49 = VERTEX_POINT('',#50);
#50 = CARTESIAN_POINT('',(28.779136626018,14.883591470508,
    15.325290242014));
#51 = VERTEX_POINT('',#52);
#52 = CARTESIAN_POINT('',(27.279136626018,17.481667681861,
    15.325290242014));
#53 = CIRCLE('',#54,32.4);
#54 = AXIS2_PLACEMENT_3D('',#55,#56,#57);
#55 = CARTESIAN_POINT('',(0.,0.,15.325290242014));
#56 = DIRECTION('',(0.,0.,1.));
#57 = DIRECTION('',(1.,0.,-0.));
#58 = ORIENTED_EDGE('',*,*,#59,.T.);
#59 = EDGE_CURVE('',#49,#60,#62,.T.);
#60 = VERTEX_POINT('',#61);
#61 = CARTESIAN_POINT('',(28.779136626018,14.883591470508,
    19.325290242014));
#62 = LINE('',#63,#64);
#63 = CARTESIAN_POINT('',(28.779136626018,14.883591470508,0.));
#64 = VECTOR('',#65,1.);
#65 = DIRECTION('',(0.,0.,1.));
#66 = ORIENTED_EDGE('',*,*,#67,.T.);
#67 = EDGE_CURVE('',#60,#68,#70,.T.);
#68 = VERTEX_POINT('',#69);
#69 = CARTESIAN_POINT('',(27.279136626018,17.481667681861,
    19.325290242014));
#70 = CIRCLE('',#71,32.4);
#71 = AXIS2_PLACEMENT_3D('',#72,#73,#74);
#72 = CARTESIAN_POINT('',(0.,0.,19.325290242014));
#73 = DIRECTION('',(0.,0.,1.));
#74 = DIRECTION('',(1.,0.,-0.));
#75 = ORIENTED_EDGE('',*,*,#76,.F.);
#76 = EDGE_CURVE('',#51,#68,#77,.T.);
#77 = LINE('',#78,#79);
#78 = CARTESIAN_POINT('',(27.279136626018,17.481667681861,0.));
#79 = VECTOR('',#80,1.);
#80 = DIRECTION('',(0.,0.,1.));
#81 = FACE_BOUND('',#82,.T.);
#82 = EDGE_LOOP('',(#83,#94,#102,#111));
#83 = ORIENTED_EDGE('',*,*,#84,.F.);
#84 = EDGE_CURVE('',#85,#87,#89,.T.);
#85 = VERTEX_POINT('',#86);
#86 = CARTESIAN_POINT('',(1.5,32.365259152369,15.325290242014));
#87 = VERTEX_POINT('',#88);
#88 = CARTESIAN_POINT('',(-1.5,32.365259152369,15.325290242014));
#89 = CIRCLE('',#90,32.4);
#90 = AXIS2_PLACEMENT_3D('',#91,#92,#93);
#91 = CARTESIAN_POINT('',(0.,0.,15.325290242014));
#92 = DIRECTION('',(0.,0.,1.));
#93 = DIRECTION('',(1.,0.,-0.));
#94 = ORIENTED_EDGE('',*,*,#95,.T.);
#95 = EDGE_CURVE('',#85,#96,#98,.T.);
#96 = VERTEX_POINT('',#97);
#97 = CARTESIAN_POINT('',(1.5,32.365259152369,19.325290242014));
#98 = LINE('',#99,#100);
#99 = CARTESIAN_POINT('',(1.5,32.365259152369,0.));
#100 = VECTOR('',#101,1.);
#101 = DIRECTION('',(0.,0.,1.));
#102 = ORIENTED_EDGE('',*,*,#103,.T.);
#103 = EDGE_CURVE('',#96,#104,#106,.T.);
#104 = VERTEX_POINT('',#105);
#105 = CARTESIAN_POINT('',(-1.5,32.365259152369,19.325290242014));
#106 = CIRCLE('',#107,32.4);
#107 = AXIS2_PLACEMENT_3D('',#108,#109,#110);
#108 = CARTESIAN_POINT('',(0.,0.,19.325290242014));
#109 = DIRECTION('',(0.,0.,1.));
#110 = DIRECTION('',(1.,0.,-0.));
#111 = ORIENTED_EDGE('',*,*,#112,.F.);
#112 = EDGE_CURVE('',#87,#104,#113,.T.);
#113 = LINE('',#114,#115);
#114 = CARTESIAN_POINT('',(-1.5,32.365259152369,0.));
#115 = VECTOR('',#116,1.);
#116 = DIRECTION('',(0.,0.,1.));
#117 = FACE_BOUND('',#118,.T.);
#118 = EDGE_LOOP('',(#119,#130,#138,#147));
#119 = ORIENTED_EDGE('',*,*,#120,.F.);
#120 = EDGE_CURVE('',#121,#123,#125,.T.);
#121 = VERTEX_POINT('',#122);
#122 = CARTESIAN_POINT('',(-27.27913662601,17.481667681861,
    15.325290242014));
#123 = VERTEX_POINT('',#124);
#124 = CARTESIAN_POINT('',(-28.77913662601,14.883591470508,
    15.325290242014));
#125 = CIRCLE('',#126,32.4);
#126 = AXIS2_PLACEMENT_3D('',#127,#128,#129);
#127 = CARTESIAN_POINT('',(0.,0.,15.325290242014));
#128 = DIRECTION('',(0.,0.,1.));
#129 = DIRECTION('',(1.,0.,-0.));
#130 = ORIENTED_EDGE('',*,*,#131,.T.);
#131 = EDGE_CURVE('',#121,#132,#134,.T.);
#132 = VERTEX_POINT('',#133);
#133 = CARTESIAN_POINT('',(-27.27913662601,17.481667681861,
    19.325290242014));
#134 = LINE('',#135,#136);
#135 = CARTESIAN_POINT('',(-27.27913662601,17.481667681861,0.));
#136 = VECTOR('',#137,1.);
#137 = DIRECTION('',(0.,0.,1.));
#138 = ORIENTED_EDGE('',*,*,#139,.T.);
#139 = EDGE_CURVE('',#132,#140,#142,.T.);
#140 = VERTEX_POINT('',#141);
#141 = CARTESIAN_POINT('',(-28.77913662601,14.883591470508,
    19.325290242014));
#142 = CIRCLE('',#143,32.4);
#143 = AXIS2_PLACEMENT_3D('',#144,#145,#146);
#144 = CARTESIAN_POINT('',(0.,0.,19.325290242014));
#145 = DIRECTION('',(0.,0.,1.));
#146 = DIRECTION('',(1.,0.,-0.));
#147 = ORIENTED_EDGE('',*,*,#148,.F.);
#148 = EDGE_CURVE('',#123,#140,#149,.T.);
#149 = LINE('',#150,#151);
#150 = CARTESIAN_POINT('',(-28.77913662601,14.883591470508,0.));
#151 = VECTOR('',#152,1.);
#152 = DIRECTION('',(0.,0.,1.));
#153 = FACE_BOUND('',#154,.T.);
#154 = EDGE_LOOP('',(#155,#166,#174,#183));
#155 = ORIENTED_EDGE('',*,*,#156,.F.);
#156 = EDGE_CURVE('',#157,#159,#161,.T.);
#157 = VERTEX_POINT('',#158);
#158 = CARTESIAN_POINT('',(-28.77913662601,-14.8835914705,
    15.325290242014));
#159 = VERTEX_POINT('',#160);
#160 = CARTESIAN_POINT('',(-27.27913662601,-17.48166768186,
    15.325290242014));
#161 = CIRCLE('',#162,32.4);
#162 = AXIS2_PLACEMENT_3D('',#163,#164,#165);
#163 = CARTESIAN_POINT('',(0.,0.,15.325290242014));
#164 = DIRECTION('',(0.,0.,1.));
#165 = DIRECTION('',(1.,0.,-0.));
#166 = ORIENTED_EDGE('',*,*,#167,.T.);
#167 = EDGE_CURVE('',#157,#168,#170,.T.);
#168 = VERTEX_POINT('',#169);
#169 = CARTESIAN_POINT('',(-28.77913662601,-14.8835914705,
    19.325290242014));
#170 = LINE('',#171,#172);
#171 = CARTESIAN_POINT('',(-28.77913662601,-14.8835914705,0.));
#172 = VECTOR('',#173,1.);
#173 = DIRECTION('',(0.,0.,1.));
#174 = ORIENTED_EDGE('',*,*,#175,.T.);
#175 = EDGE_CURVE('',#168,#176,#178,.T.);
#176 = VERTEX_POINT('',#177);
#177 = CARTESIAN_POINT('',(-27.27913662601,-17.48166768186,
    19.325290242014));
#178 = CIRCLE('',#179,32.4);
#179 = AXIS2_PLACEMENT_3D('',#180,#181,#182);
#180 = CARTESIAN_POINT('',(0.,0.,19.325290242014));
#181 = DIRECTION('',(0.,0.,1.));
#182 = DIRECTION('',(1.,0.,-0.));
#183 = ORIENTED_EDGE('',*,*,#184,.F.);
#184 = EDGE_CURVE('',#159,#176,#185,.T.);
#185 = LINE('',#186,#187);
#186 = CARTESIAN_POINT('',(-27.27913662601,-17.48166768186,0.));
#187 = VECTOR('',#188,1.);
#188 = DIRECTION('',(0.,0.,1.));
#189 = FACE_BOUND('',#190,.T.);
#190 = EDGE_LOOP('',(#191,#202,#210,#219));
#191 = ORIENTED_EDGE('',*,*,#192,.F.);
#192 = EDGE_CURVE('',#193,#195,#197,.T.);
#193 = VERTEX_POINT('',#194);
#194 = CARTESIAN_POINT('',(-1.5,-32.36525915236,15.325290242014));
#195 = VERTEX_POINT('',#196);
#196 = CARTESIAN_POINT('',(1.5,-32.36525915236,15.325290242014));
#197 = CIRCLE('',#198,32.4);
#198 = AXIS2_PLACEMENT_3D('',#199,#200,#201);
#199 = CARTESIAN_POINT('',(0.,0.,15.325290242014));
#200 = DIRECTION('',(0.,0.,1.));
#201 = DIRECTION('',(1.,0.,-0.));
#202 = ORIENTED_EDGE('',*,*,#203,.T.);
#203 = EDGE_CURVE('',#193,#204,#206,.T.);
#204 = VERTEX_POINT('',#205);
#205 = CARTESIAN_POINT('',(-1.5,-32.36525915236,19.325290242014));
#206 = LINE('',#207,#208);
#207 = CARTESIAN_POINT('',(-1.5,-32.36525915236,0.));
#208 = VECTOR('',#209,1.);
#209 = DIRECTION('',(0.,0.,1.));
#210 = ORIENTED_EDGE('',*,*,#211,.T.);
#211 = EDGE_CURVE('',#204,#212,#214,.T.);
#212 = VERTEX_POINT('',#213);
#213 = CARTESIAN_POINT('',(1.5,-32.36525915236,19.325290242014));
#214 = CIRCLE('',#215,32.4);
#215 = AXIS2_PLACEMENT_3D('',#216,#217,#218);
#216 = CARTESIAN_POINT('',(0.,0.,19.325290242014));
#217 = DIRECTION('',(0.,0.,1.));
#218 = DIRECTION('',(1.,0.,-0.));
#219 = ORIENTED_EDGE('',*,*,#220,.F.);
#220 = EDGE_CURVE('',#195,#212,#221,.T.);
#221 = LINE('',#222,#223);
#222 = CARTESIAN_POINT('',(1.5,-32.36525915236,0.));
#223 = VECTOR('',#224,1.);
#224 = DIRECTION('',(0.,0.,1.));
#225 = FACE_BOUND('',#226,.T.);
#226 = EDGE_LOOP('',(#227,#238,#246,#255));
#227 = ORIENTED_EDGE('',*,*,#228,.F.);
#228 = EDGE_CURVE('',#229,#231,#233,.T.);
#229 = VERTEX_POINT('',#230);
#230 = CARTESIAN_POINT('',(27.279136626018,-17.48166768186,
    15.325290242014));
#231 = VERTEX_POINT('',#232);
#232 = CARTESIAN_POINT('',(28.779136626018,-14.8835914705,
    15.325290242014));
#233 = CIRCLE('',#234,32.4);
#234 = AXIS2_PLACEMENT_3D('',#235,#236,#237);
#235 = CARTESIAN_POINT('',(0.,0.,15.325290242014));
#236 = DIRECTION('',(0.,0.,1.));
#237 = DIRECTION('',(1.,0.,-0.));
#238 = ORIENTED_EDGE('',*,*,#239,.T.);
#239 = EDGE_CURVE('',#229,#240,#242,.T.);
#240 = VERTEX_POINT('',#241);
#241 = CARTESIAN_POINT('',(27.279136626018,-17.48166768186,
    19.325290242014));
#242 = LINE('',#243,#244);
#243 = CARTESIAN_POINT('',(27.279136626018,-17.48166768186,0.));
#244 = VECTOR('',#245,1.);
#245 = DIRECTION('',(0.,0.,1.));
#246 = ORIENTED_EDGE('',*,*,#247,.T.);
#247 = EDGE_CURVE('',#240,#248,#250,.T.);
#248 = VERTEX_POINT('',#249);
#249 = CARTESIAN_POINT('',(28.779136626018,-14.8835914705,
    19.325290242014));
#250 = CIRCLE('',#251,32.4);
#251 = AXIS2_PLACEMENT_3D('',#252,#253,#254);
#252 = CARTESIAN_POINT('',(0.,0.,19.325290242014));
#253 = DIRECTION('',(0.,0.,1.));
#254 = DIRECTION('',(1.,0.,-0.));
#255 = ORIENTED_EDGE('',*,*,#256,.F.);
#256 = EDGE_CURVE('',#231,#248,#257,.T.);
#257 = LINE('',#258,#259);
#258 = CARTESIAN_POINT('',(28.779136626018,-14.8835914705,0.));
#259 = VECTOR('',#260,1.);
#260 = DIRECTION('',(0.,0.,1.));
#261 = CYLINDRICAL_SURFACE('',#262,32.4);
#262 = AXIS2_PLACEMENT_3D('',#263,#264,#265);
#263 = CARTESIAN_POINT('',(0.,0.,0.));
#264 = DIRECTION('',(0.,0.,1.));
#265 = DIRECTION('',(1.,0.,-0.));
#266 = ADVANCED_FACE('',(#267),#286,.T.);
#267 = FACE_BOUND('',#268,.F.);
#268 = EDGE_LOOP('',(#269,#277,#278,#279));
#269 = ORIENTED_EDGE('',*,*,#270,.F.);
#270 = EDGE_CURVE('',#22,#271,#273,.T.);
#271 = VERTEX_POINT('',#272);
#272 = CARTESIAN_POINT('',(31.6,0.,0.));
#273 = LINE('',#274,#275);
#274 = CARTESIAN_POINT('',(32.4,0.,0.8));
#275 = VECTOR('',#276,1.);
#276 = DIRECTION('',(-0.707106781187,-0.,-0.707106781187));
#277 = ORIENTED_EDGE('',*,*,#39,.T.);
#278 = ORIENTED_EDGE('',*,*,#270,.T.);
#279 = ORIENTED_EDGE('',*,*,#280,.F.);
#280 = EDGE_CURVE('',#271,#271,#281,.T.);
#281 = CIRCLE('',#282,31.6);
#282 = AXIS2_PLACEMENT_3D('',#283,#284,#285);
#283 = CARTESIAN_POINT('',(0.,0.,0.));
#284 = DIRECTION('',(0.,0.,1.));
#285 = DIRECTION('',(1.,0.,-0.));
#286 = CONICAL_SURFACE('',#287,32.4,0.785398163397);
#287 = AXIS2_PLACEMENT_3D('',#288,#289,#290);
#288 = CARTESIAN_POINT('',(0.,0.,0.8));
#289 = DIRECTION('',(0.,0.,1.));
#290 = DIRECTION('',(1.,0.,-0.));
#291 = ADVANCED_FACE('',(#292,#295),#306,.T.);
#292 = FACE_BOUND('',#293,.T.);
#293 = EDGE_LOOP('',(#294));
#294 = ORIENTED_EDGE('',*,*,#31,.T.);
#295 = FACE_BOUND('',#296,.T.);
#296 = EDGE_LOOP('',(#297));
#297 = ORIENTED_EDGE('',*,*,#298,.F.);
#298 = EDGE_CURVE('',#299,#299,#301,.T.);
#299 = VERTEX_POINT('',#300);
#300 = CARTESIAN_POINT('',(30.4,-7.445852538816E-15,21.325290242014));
#301 = CIRCLE('',#302,30.4);
#302 = AXIS2_PLACEMENT_3D('',#303,#304,#305);
#303 = CARTESIAN_POINT('',(0.,0.,21.325290242014));
#304 = DIRECTION('',(0.,0.,1.));
#305 = DIRECTION('',(1.,0.,-0.));
#306 = PLANE('',#307);
#307 = AXIS2_PLACEMENT_3D('',#308,#309,#310);
#308 = CARTESIAN_POINT('',(0.,0.,21.325290242014));
#309 = DIRECTION('',(0.,0.,1.));
#310 = DIRECTION('',(1.,0.,-0.));
#311 = ADVANCED_FACE('',(#312),#338,.T.);
#312 = FACE_BOUND('',#313,.T.);
#313 = EDGE_LOOP('',(#314,#322,#331,#337));
#314 = ORIENTED_EDGE('',*,*,#315,.F.);
#315 = EDGE_CURVE('',#316,#51,#318,.T.);
#316 = VERTEX_POINT('',#317);
#317 = CARTESIAN_POINT('',(25.545104107039,16.480523540245,
    15.325290242014));
#318 = LINE('',#319,#320);
#319 = CARTESIAN_POINT('',(24.711146871262,15.999038105677,
    15.325290242014));
#320 = VECTOR('',#321,1.);
#321 = DIRECTION('',(0.866025403784,0.5,0.));
#322 = ORIENTED_EDGE('',*,*,#323,.F.);
#323 = EDGE_CURVE('',#324,#316,#326,.T.);
#324 = VERTEX_POINT('',#325);
#325 = CARTESIAN_POINT('',(27.045104107039,13.882447328891,
    15.325290242014));
#326 = CIRCLE('',#327,30.4);
#327 = AXIS2_PLACEMENT_3D('',#328,#329,#330);
#328 = CARTESIAN_POINT('',(0.,0.,15.325290242014));
#329 = DIRECTION('',(0.,0.,1.));
#330 = DIRECTION('',(1.,0.,-0.));
#331 = ORIENTED_EDGE('',*,*,#332,.T.);
#332 = EDGE_CURVE('',#324,#49,#333,.T.);
#333 = LINE('',#334,#335);
#334 = CARTESIAN_POINT('',(26.211146871262,13.400961894323,
    15.325290242014));
#335 = VECTOR('',#336,1.);
#336 = DIRECTION('',(0.866025403784,0.5,0.));
#337 = ORIENTED_EDGE('',*,*,#48,.T.);
#338 = PLANE('',#339);
#339 = AXIS2_PLACEMENT_3D('',#340,#341,#342);
#340 = CARTESIAN_POINT('',(26.211146871262,13.400961894323,
    15.325290242014));
#341 = DIRECTION('',(0.,0.,1.));
#342 = DIRECTION('',(0.866025403784,0.5,0.));
#343 = ADVANCED_FACE('',(#344),#362,.T.);
#344 = FACE_BOUND('',#345,.T.);
#345 = EDGE_LOOP('',(#346,#347,#355,#361));
#346 = ORIENTED_EDGE('',*,*,#332,.F.);
#347 = ORIENTED_EDGE('',*,*,#348,.T.);
#348 = EDGE_CURVE('',#324,#349,#351,.T.);
#349 = VERTEX_POINT('',#350);
#350 = CARTESIAN_POINT('',(27.045104107039,13.882447328891,
    19.325290242014));
#351 = LINE('',#352,#353);
#352 = CARTESIAN_POINT('',(27.045104107039,13.882447328891,
    1.478219977988));
#353 = VECTOR('',#354,1.);
#354 = DIRECTION('',(0.,0.,1.));
#355 = ORIENTED_EDGE('',*,*,#356,.T.);
#356 = EDGE_CURVE('',#349,#60,#357,.T.);
#357 = LINE('',#358,#359);
#358 = CARTESIAN_POINT('',(26.211146871262,13.400961894323,
    19.325290242014));
#359 = VECTOR('',#360,1.);
#360 = DIRECTION('',(0.866025403784,0.5,0.));
#361 = ORIENTED_EDGE('',*,*,#59,.F.);
#362 = PLANE('',#363);
#363 = AXIS2_PLACEMENT_3D('',#364,#365,#366);
#364 = CARTESIAN_POINT('',(26.211146871262,13.400961894323,
    15.325290242014));
#365 = DIRECTION('',(-0.5,0.866025403784,0.));
#366 = DIRECTION('',(0.,0.,1.));
#367 = ADVANCED_FACE('',(#368),#386,.F.);
#368 = FACE_BOUND('',#369,.F.);
#369 = EDGE_LOOP('',(#370,#371,#379,#385));
#370 = ORIENTED_EDGE('',*,*,#315,.F.);
#371 = ORIENTED_EDGE('',*,*,#372,.T.);
#372 = EDGE_CURVE('',#316,#373,#375,.T.);
#373 = VERTEX_POINT('',#374);
#374 = CARTESIAN_POINT('',(25.545104107039,16.480523540245,
    19.325290242014));
#375 = LINE('',#376,#377);
#376 = CARTESIAN_POINT('',(25.545104107039,16.480523540245,
    1.478219977988));
#377 = VECTOR('',#378,1.);
#378 = DIRECTION('',(0.,0.,1.));
#379 = ORIENTED_EDGE('',*,*,#380,.T.);
#380 = EDGE_CURVE('',#373,#68,#381,.T.);
#381 = LINE('',#382,#383);
#382 = CARTESIAN_POINT('',(24.711146871262,15.999038105677,
    19.325290242014));
#383 = VECTOR('',#384,1.);
#384 = DIRECTION('',(0.866025403784,0.5,0.));
#385 = ORIENTED_EDGE('',*,*,#76,.F.);
#386 = PLANE('',#387);
#387 = AXIS2_PLACEMENT_3D('',#388,#389,#390);
#388 = CARTESIAN_POINT('',(24.711146871262,15.999038105677,
    15.325290242014));
#389 = DIRECTION('',(-0.5,0.866025403784,0.));
#390 = DIRECTION('',(0.,0.,1.));
#391 = ADVANCED_FACE('',(#392),#404,.F.);
#392 = FACE_BOUND('',#393,.F.);
#393 = EDGE_LOOP('',(#394,#395,#402,#403));
#394 = ORIENTED_EDGE('',*,*,#380,.F.);
#395 = ORIENTED_EDGE('',*,*,#396,.F.);
#396 = EDGE_CURVE('',#349,#373,#397,.T.);
#397 = CIRCLE('',#398,30.4);
#398 = AXIS2_PLACEMENT_3D('',#399,#400,#401);
#399 = CARTESIAN_POINT('',(0.,0.,19.325290242014));
#400 = DIRECTION('',(0.,0.,1.));
#401 = DIRECTION('',(1.,0.,-0.));
#402 = ORIENTED_EDGE('',*,*,#356,.T.);
#403 = ORIENTED_EDGE('',*,*,#67,.T.);
#404 = PLANE('',#405);
#405 = AXIS2_PLACEMENT_3D('',#406,#407,#408);
#406 = CARTESIAN_POINT('',(26.211146871262,13.400961894323,
    19.325290242014));
#407 = DIRECTION('',(0.,0.,1.));
#408 = DIRECTION('',(0.866025403784,0.5,0.));
#409 = ADVANCED_FACE('',(#410),#436,.T.);
#410 = FACE_BOUND('',#411,.T.);
#411 = EDGE_LOOP('',(#412,#420,#429,#435));
#412 = ORIENTED_EDGE('',*,*,#413,.F.);
#413 = EDGE_CURVE('',#414,#87,#416,.T.);
#414 = VERTEX_POINT('',#415);
#415 = CARTESIAN_POINT('',(-1.5,30.362970869136,15.325290242014));
#416 = LINE('',#417,#418);
#417 = CARTESIAN_POINT('',(-1.5,29.4,15.325290242014));
#418 = VECTOR('',#419,1.);
#419 = DIRECTION('',(1.110223024625E-16,1.,0.));
#420 = ORIENTED_EDGE('',*,*,#421,.F.);
#421 = EDGE_CURVE('',#422,#414,#424,.T.);
#422 = VERTEX_POINT('',#423);
#423 = CARTESIAN_POINT('',(1.5,30.362970869136,15.325290242014));
#424 = CIRCLE('',#425,30.4);
#425 = AXIS2_PLACEMENT_3D('',#426,#427,#428);
#426 = CARTESIAN_POINT('',(0.,0.,15.325290242014));
#427 = DIRECTION('',(0.,0.,1.));
#428 = DIRECTION('',(1.,0.,-0.));
#429 = ORIENTED_EDGE('',*,*,#430,.T.);
#430 = EDGE_CURVE('',#422,#85,#431,.T.);
#431 = LINE('',#432,#433);
#432 = CARTESIAN_POINT('',(1.5,29.4,15.325290242014));
#433 = VECTOR('',#434,1.);
#434 = DIRECTION('',(1.110223024625E-16,1.,0.));
#435 = ORIENTED_EDGE('',*,*,#84,.T.);
#436 = PLANE('',#437);
#437 = AXIS2_PLACEMENT_3D('',#438,#439,#440);
#438 = CARTESIAN_POINT('',(1.5,29.4,15.325290242014));
#439 = DIRECTION('',(0.,0.,1.));
#440 = DIRECTION('',(1.110223024625E-16,1.,0.));
#441 = ADVANCED_FACE('',(#442),#460,.T.);
#442 = FACE_BOUND('',#443,.T.);
#443 = EDGE_LOOP('',(#444,#445,#453,#459));
#444 = ORIENTED_EDGE('',*,*,#430,.F.);
#445 = ORIENTED_EDGE('',*,*,#446,.T.);
#446 = EDGE_CURVE('',#422,#447,#449,.T.);
#447 = VERTEX_POINT('',#448);
#448 = CARTESIAN_POINT('',(1.5,30.362970869136,19.325290242014));
#449 = LINE('',#450,#451);
#450 = CARTESIAN_POINT('',(1.5,30.362970869136,1.478219977988));
#451 = VECTOR('',#452,1.);
#452 = DIRECTION('',(0.,0.,1.));
#453 = ORIENTED_EDGE('',*,*,#454,.T.);
#454 = EDGE_CURVE('',#447,#96,#455,.T.);
#455 = LINE('',#456,#457);
#456 = CARTESIAN_POINT('',(1.5,29.4,19.325290242014));
#457 = VECTOR('',#458,1.);
#458 = DIRECTION('',(1.110223024625E-16,1.,0.));
#459 = ORIENTED_EDGE('',*,*,#95,.F.);
#460 = PLANE('',#461);
#461 = AXIS2_PLACEMENT_3D('',#462,#463,#464);
#462 = CARTESIAN_POINT('',(1.5,29.4,15.325290242014));
#463 = DIRECTION('',(-1.,1.110223024625E-16,0.));
#464 = DIRECTION('',(0.,0.,1.));
#465 = ADVANCED_FACE('',(#466),#484,.F.);
#466 = FACE_BOUND('',#467,.F.);
#467 = EDGE_LOOP('',(#468,#469,#477,#483));
#468 = ORIENTED_EDGE('',*,*,#413,.F.);
#469 = ORIENTED_EDGE('',*,*,#470,.T.);
#470 = EDGE_CURVE('',#414,#471,#473,.T.);
#471 = VERTEX_POINT('',#472);
#472 = CARTESIAN_POINT('',(-1.5,30.362970869136,19.325290242014));
#473 = LINE('',#474,#475);
#474 = CARTESIAN_POINT('',(-1.5,30.362970869136,1.478219977988));
#475 = VECTOR('',#476,1.);
#476 = DIRECTION('',(0.,0.,1.));
#477 = ORIENTED_EDGE('',*,*,#478,.T.);
#478 = EDGE_CURVE('',#471,#104,#479,.T.);
#479 = LINE('',#480,#481);
#480 = CARTESIAN_POINT('',(-1.5,29.4,19.325290242014));
#481 = VECTOR('',#482,1.);
#482 = DIRECTION('',(1.110223024625E-16,1.,0.));
#483 = ORIENTED_EDGE('',*,*,#112,.F.);
#484 = PLANE('',#485);
#485 = AXIS2_PLACEMENT_3D('',#486,#487,#488);
#486 = CARTESIAN_POINT('',(-1.5,29.4,15.325290242014));
#487 = DIRECTION('',(-1.,1.110223024625E-16,0.));
#488 = DIRECTION('',(0.,0.,1.));
#489 = ADVANCED_FACE('',(#490),#502,.F.);
#490 = FACE_BOUND('',#491,.F.);
#491 = EDGE_LOOP('',(#492,#493,#500,#501));
#492 = ORIENTED_EDGE('',*,*,#478,.F.);
#493 = ORIENTED_EDGE('',*,*,#494,.F.);
#494 = EDGE_CURVE('',#447,#471,#495,.T.);
#495 = CIRCLE('',#496,30.4);
#496 = AXIS2_PLACEMENT_3D('',#497,#498,#499);
#497 = CARTESIAN_POINT('',(0.,0.,19.325290242014));
#498 = DIRECTION('',(0.,0.,1.));
#499 = DIRECTION('',(1.,0.,-0.));
#500 = ORIENTED_EDGE('',*,*,#454,.T.);
#501 = ORIENTED_EDGE('',*,*,#103,.T.);
#502 = PLANE('',#503);
#503 = AXIS2_PLACEMENT_3D('',#504,#505,#506);
#504 = CARTESIAN_POINT('',(1.5,29.4,19.325290242014));
#505 = DIRECTION('',(0.,0.,1.));
#506 = DIRECTION('',(1.110223024625E-16,1.,0.));
#507 = ADVANCED_FACE('',(#508),#534,.T.);
#508 = FACE_BOUND('',#509,.T.);
#509 = EDGE_LOOP('',(#510,#518,#527,#533));
#510 = ORIENTED_EDGE('',*,*,#511,.F.);
#511 = EDGE_CURVE('',#512,#123,#514,.T.);
#512 = VERTEX_POINT('',#513);
#513 = CARTESIAN_POINT('',(-27.04510410703,13.882447328891,
    15.325290242014));
#514 = LINE('',#515,#516);
#515 = CARTESIAN_POINT('',(-26.21114687126,13.400961894323,
    15.325290242014));
#516 = VECTOR('',#517,1.);
#517 = DIRECTION('',(-0.866025403784,0.5,0.));
#518 = ORIENTED_EDGE('',*,*,#519,.F.);
#519 = EDGE_CURVE('',#520,#512,#522,.T.);
#520 = VERTEX_POINT('',#521);
#521 = CARTESIAN_POINT('',(-25.54510410703,16.480523540245,
    15.325290242014));
#522 = CIRCLE('',#523,30.4);
#523 = AXIS2_PLACEMENT_3D('',#524,#525,#526);
#524 = CARTESIAN_POINT('',(0.,0.,15.325290242014));
#525 = DIRECTION('',(0.,0.,1.));
#526 = DIRECTION('',(1.,0.,-0.));
#527 = ORIENTED_EDGE('',*,*,#528,.T.);
#528 = EDGE_CURVE('',#520,#121,#529,.T.);
#529 = LINE('',#530,#531);
#530 = CARTESIAN_POINT('',(-24.71114687126,15.999038105677,
    15.325290242014));
#531 = VECTOR('',#532,1.);
#532 = DIRECTION('',(-0.866025403784,0.5,0.));
#533 = ORIENTED_EDGE('',*,*,#120,.T.);
#534 = PLANE('',#535);
#535 = AXIS2_PLACEMENT_3D('',#536,#537,#538);
#536 = CARTESIAN_POINT('',(-24.71114687126,15.999038105677,
    15.325290242014));
#537 = DIRECTION('',(0.,0.,1.));
#538 = DIRECTION('',(-0.866025403784,0.5,0.));
#539 = ADVANCED_FACE('',(#540),#558,.T.);
#540 = FACE_BOUND('',#541,.T.);
#541 = EDGE_LOOP('',(#542,#543,#551,#557));
#542 = ORIENTED_EDGE('',*,*,#528,.F.);
#543 = ORIENTED_EDGE('',*,*,#544,.T.);
#544 = EDGE_CURVE('',#520,#545,#547,.T.);
#545 = VERTEX_POINT('',#546);
#546 = CARTESIAN_POINT('',(-25.54510410703,16.480523540245,
    19.325290242014));
#547 = LINE('',#548,#549);
#548 = CARTESIAN_POINT('',(-25.54510410703,16.480523540245,
    1.478219977988));
#549 = VECTOR('',#550,1.);
#550 = DIRECTION('',(0.,0.,1.));
#551 = ORIENTED_EDGE('',*,*,#552,.T.);
#552 = EDGE_CURVE('',#545,#132,#553,.T.);
#553 = LINE('',#554,#555);
#554 = CARTESIAN_POINT('',(-24.71114687126,15.999038105677,
    19.325290242014));
#555 = VECTOR('',#556,1.);
#556 = DIRECTION('',(-0.866025403784,0.5,0.));
#557 = ORIENTED_EDGE('',*,*,#131,.F.);
#558 = PLANE('',#559);
#559 = AXIS2_PLACEMENT_3D('',#560,#561,#562);
#560 = CARTESIAN_POINT('',(-24.71114687126,15.999038105677,
    15.325290242014));
#561 = DIRECTION('',(-0.5,-0.866025403784,0.));
#562 = DIRECTION('',(0.,0.,1.));
#563 = ADVANCED_FACE('',(#564),#582,.F.);
#564 = FACE_BOUND('',#565,.F.);
#565 = EDGE_LOOP('',(#566,#567,#575,#581));
#566 = ORIENTED_EDGE('',*,*,#511,.F.);
#567 = ORIENTED_EDGE('',*,*,#568,.T.);
#568 = EDGE_CURVE('',#512,#569,#571,.T.);
#569 = VERTEX_POINT('',#570);
#570 = CARTESIAN_POINT('',(-27.04510410703,13.882447328891,
    19.325290242014));
#571 = LINE('',#572,#573);
#572 = CARTESIAN_POINT('',(-27.04510410703,13.882447328891,
    1.478219977988));
#573 = VECTOR('',#574,1.);
#574 = DIRECTION('',(0.,0.,1.));
#575 = ORIENTED_EDGE('',*,*,#576,.T.);
#576 = EDGE_CURVE('',#569,#140,#577,.T.);
#577 = LINE('',#578,#579);
#578 = CARTESIAN_POINT('',(-26.21114687126,13.400961894323,
    19.325290242014));
#579 = VECTOR('',#580,1.);
#580 = DIRECTION('',(-0.866025403784,0.5,0.));
#581 = ORIENTED_EDGE('',*,*,#148,.F.);
#582 = PLANE('',#583);
#583 = AXIS2_PLACEMENT_3D('',#584,#585,#586);
#584 = CARTESIAN_POINT('',(-26.21114687126,13.400961894323,
    15.325290242014));
#585 = DIRECTION('',(-0.5,-0.866025403784,0.));
#586 = DIRECTION('',(0.,0.,1.));
#587 = ADVANCED_FACE('',(#588),#600,.F.);
#588 = FACE_BOUND('',#589,.F.);
#589 = EDGE_LOOP('',(#590,#591,#598,#599));
#590 = ORIENTED_EDGE('',*,*,#576,.F.);
#591 = ORIENTED_EDGE('',*,*,#592,.F.);
#592 = EDGE_CURVE('',#545,#569,#593,.T.);
#593 = CIRCLE('',#594,30.4);
#594 = AXIS2_PLACEMENT_3D('',#595,#596,#597);
#595 = CARTESIAN_POINT('',(0.,0.,19.325290242014));
#596 = DIRECTION('',(0.,0.,1.));
#597 = DIRECTION('',(1.,0.,-0.));
#598 = ORIENTED_EDGE('',*,*,#552,.T.);
#599 = ORIENTED_EDGE('',*,*,#139,.T.);
#600 = PLANE('',#601);
#601 = AXIS2_PLACEMENT_3D('',#602,#603,#604);
#602 = CARTESIAN_POINT('',(-24.71114687126,15.999038105677,
    19.325290242014));
#603 = DIRECTION('',(0.,0.,1.));
#604 = DIRECTION('',(-0.866025403784,0.5,0.));
#605 = ADVANCED_FACE('',(#606),#632,.T.);
#606 = FACE_BOUND('',#607,.T.);
#607 = EDGE_LOOP('',(#608,#616,#625,#631));
#608 = ORIENTED_EDGE('',*,*,#609,.F.);
#609 = EDGE_CURVE('',#610,#159,#612,.T.);
#610 = VERTEX_POINT('',#611);
#611 = CARTESIAN_POINT('',(-25.54510410703,-16.48052354024,
    15.325290242014));
#612 = LINE('',#613,#614);
#613 = CARTESIAN_POINT('',(-24.71114687126,-15.99903810567,
    15.325290242014));
#614 = VECTOR('',#615,1.);
#615 = DIRECTION('',(-0.866025403784,-0.5,0.));
#616 = ORIENTED_EDGE('',*,*,#617,.F.);
#617 = EDGE_CURVE('',#618,#610,#620,.T.);
#618 = VERTEX_POINT('',#619);
#619 = CARTESIAN_POINT('',(-27.04510410703,-13.88244732889,
    15.325290242014));
#620 = CIRCLE('',#621,30.4);
#621 = AXIS2_PLACEMENT_3D('',#622,#623,#624);
#622 = CARTESIAN_POINT('',(0.,0.,15.325290242014));
#623 = DIRECTION('',(0.,0.,1.));
#624 = DIRECTION('',(1.,0.,-0.));
#625 = ORIENTED_EDGE('',*,*,#626,.T.);
#626 = EDGE_CURVE('',#618,#157,#627,.T.);
#627 = LINE('',#628,#629);
#628 = CARTESIAN_POINT('',(-26.21114687126,-13.40096189432,
    15.325290242014));
#629 = VECTOR('',#630,1.);
#630 = DIRECTION('',(-0.866025403784,-0.5,0.));
#631 = ORIENTED_EDGE('',*,*,#156,.T.);
#632 = PLANE('',#633);
#633 = AXIS2_PLACEMENT_3D('',#634,#635,#636);
#634 = CARTESIAN_POINT('',(-26.21114687126,-13.40096189432,
    15.325290242014));
#635 = DIRECTION('',(0.,0.,1.));
#636 = DIRECTION('',(-0.866025403784,-0.5,0.));
#637 = ADVANCED_FACE('',(#638),#656,.T.);
#638 = FACE_BOUND('',#639,.T.);
#639 = EDGE_LOOP('',(#640,#641,#649,#655));
#640 = ORIENTED_EDGE('',*,*,#626,.F.);
#641 = ORIENTED_EDGE('',*,*,#642,.T.);
#642 = EDGE_CURVE('',#618,#643,#645,.T.);
#643 = VERTEX_POINT('',#644);
#644 = CARTESIAN_POINT('',(-27.04510410703,-13.88244732889,
    19.325290242014));
#645 = LINE('',#646,#647);
#646 = CARTESIAN_POINT('',(-27.04510410703,-13.88244732889,
    1.478219977988));
#647 = VECTOR('',#648,1.);
#648 = DIRECTION('',(0.,0.,1.));
#649 = ORIENTED_EDGE('',*,*,#650,.T.);
#650 = EDGE_CURVE('',#643,#168,#651,.T.);
#651 = LINE('',#652,#653);
#652 = CARTESIAN_POINT('',(-26.21114687126,-13.40096189432,
    19.325290242014));
#653 = VECTOR('',#654,1.);
#654 = DIRECTION('',(-0.866025403784,-0.5,0.));
#655 = ORIENTED_EDGE('',*,*,#167,.F.);
#656 = PLANE('',#657);
#657 = AXIS2_PLACEMENT_3D('',#658,#659,#660);
#658 = CARTESIAN_POINT('',(-26.21114687126,-13.40096189432,
    15.325290242014));
#659 = DIRECTION('',(0.5,-0.866025403784,0.));
#660 = DIRECTION('',(0.,0.,1.));
#661 = ADVANCED_FACE('',(#662),#680,.F.);
#662 = FACE_BOUND('',#663,.F.);
#663 = EDGE_LOOP('',(#664,#665,#673,#679));
#664 = ORIENTED_EDGE('',*,*,#609,.F.);
#665 = ORIENTED_EDGE('',*,*,#666,.T.);
#666 = EDGE_CURVE('',#610,#667,#669,.T.);
#667 = VERTEX_POINT('',#668);
#668 = CARTESIAN_POINT('',(-25.54510410703,-16.48052354024,
    19.325290242014));
#669 = LINE('',#670,#671);
#670 = CARTESIAN_POINT('',(-25.54510410703,-16.48052354024,
    1.478219977988));
#671 = VECTOR('',#672,1.);
#672 = DIRECTION('',(0.,0.,1.));
#673 = ORIENTED_EDGE('',*,*,#674,.T.);
#674 = EDGE_CURVE('',#667,#176,#675,.T.);
#675 = LINE('',#676,#677);
#676 = CARTESIAN_POINT('',(-24.71114687126,-15.99903810567,
    19.325290242014));
#677 = VECTOR('',#678,1.);
#678 = DIRECTION('',(-0.866025403784,-0.5,0.));
#679 = ORIENTED_EDGE('',*,*,#184,.F.);
#680 = PLANE('',#681);
#681 = AXIS2_PLACEMENT_3D('',#682,#683,#684);
#682 = CARTESIAN_POINT('',(-24.71114687126,-15.99903810567,
    15.325290242014));
#683 = DIRECTION('',(0.5,-0.866025403784,0.));
#684 = DIRECTION('',(0.,0.,1.));
#685 = ADVANCED_FACE('',(#686),#698,.F.);
#686 = FACE_BOUND('',#687,.F.);
#687 = EDGE_LOOP('',(#688,#689,#696,#697));
#688 = ORIENTED_EDGE('',*,*,#674,.F.);
#689 = ORIENTED_EDGE('',*,*,#690,.F.);
#690 = EDGE_CURVE('',#643,#667,#691,.T.);
#691 = CIRCLE('',#692,30.4);
#692 = AXIS2_PLACEMENT_3D('',#693,#694,#695);
#693 = CARTESIAN_POINT('',(0.,0.,19.325290242014));
#694 = DIRECTION('',(0.,0.,1.));
#695 = DIRECTION('',(1.,0.,-0.));
#696 = ORIENTED_EDGE('',*,*,#650,.T.);
#697 = ORIENTED_EDGE('',*,*,#175,.T.);
#698 = PLANE('',#699);
#699 = AXIS2_PLACEMENT_3D('',#700,#701,#702);
#700 = CARTESIAN_POINT('',(-26.21114687126,-13.40096189432,
    19.325290242014));
#701 = DIRECTION('',(0.,0.,1.));
#702 = DIRECTION('',(-0.866025403784,-0.5,0.));
#703 = ADVANCED_FACE('',(#704),#730,.T.);
#704 = FACE_BOUND('',#705,.T.);
#705 = EDGE_LOOP('',(#706,#714,#723,#729));
#706 = ORIENTED_EDGE('',*,*,#707,.F.);
#707 = EDGE_CURVE('',#708,#195,#710,.T.);
#708 = VERTEX_POINT('',#709);
#709 = CARTESIAN_POINT('',(1.5,-30.36297086913,15.325290242014));
#710 = LINE('',#711,#712);
#711 = CARTESIAN_POINT('',(1.5,-29.4,15.325290242014));
#712 = VECTOR('',#713,1.);
#713 = DIRECTION('',(-2.22044604925E-16,-1.,0.));
#714 = ORIENTED_EDGE('',*,*,#715,.F.);
#715 = EDGE_CURVE('',#716,#708,#718,.T.);
#716 = VERTEX_POINT('',#717);
#717 = CARTESIAN_POINT('',(-1.5,-30.36297086913,15.325290242014));
#718 = CIRCLE('',#719,30.4);
#719 = AXIS2_PLACEMENT_3D('',#720,#721,#722);
#720 = CARTESIAN_POINT('',(0.,0.,15.325290242014));
#721 = DIRECTION('',(0.,0.,1.));
#722 = DIRECTION('',(1.,0.,-0.));
#723 = ORIENTED_EDGE('',*,*,#724,.T.);
#724 = EDGE_CURVE('',#716,#193,#725,.T.);
#725 = LINE('',#726,#727);
#726 = CARTESIAN_POINT('',(-1.5,-29.4,15.325290242014));
#727 = VECTOR('',#728,1.);
#728 = DIRECTION('',(-2.22044604925E-16,-1.,0.));
#729 = ORIENTED_EDGE('',*,*,#192,.T.);
#730 = PLANE('',#731);
#731 = AXIS2_PLACEMENT_3D('',#732,#733,#734);
#732 = CARTESIAN_POINT('',(-1.5,-29.4,15.325290242014));
#733 = DIRECTION('',(0.,0.,1.));
#734 = DIRECTION('',(-2.22044604925E-16,-1.,0.));
#735 = ADVANCED_FACE('',(#736),#754,.T.);
#736 = FACE_BOUND('',#737,.T.);
#737 = EDGE_LOOP('',(#738,#739,#747,#753));
#738 = ORIENTED_EDGE('',*,*,#724,.F.);
#739 = ORIENTED_EDGE('',*,*,#740,.T.);
#740 = EDGE_CURVE('',#716,#741,#743,.T.);
#741 = VERTEX_POINT('',#742);
#742 = CARTESIAN_POINT('',(-1.5,-30.36297086913,19.325290242014));
#743 = LINE('',#744,#745);
#744 = CARTESIAN_POINT('',(-1.5,-30.36297086913,1.478219977988));
#745 = VECTOR('',#746,1.);
#746 = DIRECTION('',(0.,0.,1.));
#747 = ORIENTED_EDGE('',*,*,#748,.T.);
#748 = EDGE_CURVE('',#741,#204,#749,.T.);
#749 = LINE('',#750,#751);
#750 = CARTESIAN_POINT('',(-1.5,-29.4,19.325290242014));
#751 = VECTOR('',#752,1.);
#752 = DIRECTION('',(-2.22044604925E-16,-1.,0.));
#753 = ORIENTED_EDGE('',*,*,#203,.F.);
#754 = PLANE('',#755);
#755 = AXIS2_PLACEMENT_3D('',#756,#757,#758);
#756 = CARTESIAN_POINT('',(-1.5,-29.4,15.325290242014));
#757 = DIRECTION('',(1.,-2.22044604925E-16,0.));
#758 = DIRECTION('',(0.,0.,1.));
#759 = ADVANCED_FACE('',(#760),#778,.F.);
#760 = FACE_BOUND('',#761,.F.);
#761 = EDGE_LOOP('',(#762,#763,#771,#777));
#762 = ORIENTED_EDGE('',*,*,#707,.F.);
#763 = ORIENTED_EDGE('',*,*,#764,.T.);
#764 = EDGE_CURVE('',#708,#765,#767,.T.);
#765 = VERTEX_POINT('',#766);
#766 = CARTESIAN_POINT('',(1.5,-30.36297086913,19.325290242014));
#767 = LINE('',#768,#769);
#768 = CARTESIAN_POINT('',(1.5,-30.36297086913,1.478219977988));
#769 = VECTOR('',#770,1.);
#770 = DIRECTION('',(0.,0.,1.));
#771 = ORIENTED_EDGE('',*,*,#772,.T.);
#772 = EDGE_CURVE('',#765,#212,#773,.T.);
#773 = LINE('',#774,#775);
#774 = CARTESIAN_POINT('',(1.5,-29.4,19.325290242014));
#775 = VECTOR('',#776,1.);
#776 = DIRECTION('',(-2.22044604925E-16,-1.,0.));
#777 = ORIENTED_EDGE('',*,*,#220,.F.);
#778 = PLANE('',#779);
#779 = AXIS2_PLACEMENT_3D('',#780,#781,#782);
#780 = CARTESIAN_POINT('',(1.5,-29.4,15.325290242014));
#781 = DIRECTION('',(1.,-2.22044604925E-16,0.));
#782 = DIRECTION('',(0.,0.,1.));
#783 = ADVANCED_FACE('',(#784),#796,.F.);
#784 = FACE_BOUND('',#785,.F.);
#785 = EDGE_LOOP('',(#786,#787,#794,#795));
#786 = ORIENTED_EDGE('',*,*,#772,.F.);
#787 = ORIENTED_EDGE('',*,*,#788,.F.);
#788 = EDGE_CURVE('',#741,#765,#789,.T.);
#789 = CIRCLE('',#790,30.4);
#790 = AXIS2_PLACEMENT_3D('',#791,#792,#793);
#791 = CARTESIAN_POINT('',(0.,0.,19.325290242014));
#792 = DIRECTION('',(0.,0.,1.));
#793 = DIRECTION('',(1.,0.,-0.));
#794 = ORIENTED_EDGE('',*,*,#748,.T.);
#795 = ORIENTED_EDGE('',*,*,#211,.T.);
#796 = PLANE('',#797);
#797 = AXIS2_PLACEMENT_3D('',#798,#799,#800);
#798 = CARTESIAN_POINT('',(-1.5,-29.4,19.325290242014));
#799 = DIRECTION('',(0.,0.,1.));
#800 = DIRECTION('',(-2.22044604925E-16,-1.,0.));
#801 = ADVANCED_FACE('',(#802),#828,.T.);
#802 = FACE_BOUND('',#803,.T.);
#803 = EDGE_LOOP('',(#804,#812,#821,#827));
#804 = ORIENTED_EDGE('',*,*,#805,.F.);
#805 = EDGE_CURVE('',#806,#231,#808,.T.);
#806 = VERTEX_POINT('',#807);
#807 = CARTESIAN_POINT('',(27.045104107039,-13.88244732889,
    15.325290242014));
#808 = LINE('',#809,#810);
#809 = CARTESIAN_POINT('',(26.211146871262,-13.40096189432,
    15.325290242014));
#810 = VECTOR('',#811,1.);
#811 = DIRECTION('',(0.866025403784,-0.5,0.));
#812 = ORIENTED_EDGE('',*,*,#813,.F.);
#813 = EDGE_CURVE('',#814,#806,#816,.T.);
#814 = VERTEX_POINT('',#815);
#815 = CARTESIAN_POINT('',(25.545104107039,-16.48052354024,
    15.325290242014));
#816 = CIRCLE('',#817,30.4);
#817 = AXIS2_PLACEMENT_3D('',#818,#819,#820);
#818 = CARTESIAN_POINT('',(0.,0.,15.325290242014));
#819 = DIRECTION('',(0.,0.,1.));
#820 = DIRECTION('',(1.,0.,-0.));
#821 = ORIENTED_EDGE('',*,*,#822,.T.);
#822 = EDGE_CURVE('',#814,#229,#823,.T.);
#823 = LINE('',#824,#825);
#824 = CARTESIAN_POINT('',(24.711146871262,-15.99903810567,
    15.325290242014));
#825 = VECTOR('',#826,1.);
#826 = DIRECTION('',(0.866025403784,-0.5,0.));
#827 = ORIENTED_EDGE('',*,*,#228,.T.);
#828 = PLANE('',#829);
#829 = AXIS2_PLACEMENT_3D('',#830,#831,#832);
#830 = CARTESIAN_POINT('',(24.711146871262,-15.99903810567,
    15.325290242014));
#831 = DIRECTION('',(0.,0.,1.));
#832 = DIRECTION('',(0.866025403784,-0.5,0.));
#833 = ADVANCED_FACE('',(#834),#852,.F.);
#834 = FACE_BOUND('',#835,.F.);
#835 = EDGE_LOOP('',(#836,#837,#845,#851));
#836 = ORIENTED_EDGE('',*,*,#805,.F.);
#837 = ORIENTED_EDGE('',*,*,#838,.T.);
#838 = EDGE_CURVE('',#806,#839,#841,.T.);
#839 = VERTEX_POINT('',#840);
#840 = CARTESIAN_POINT('',(27.045104107039,-13.88244732889,
    19.325290242014));
#841 = LINE('',#842,#843);
#842 = CARTESIAN_POINT('',(27.045104107039,-13.88244732889,
    1.478219977988));
#843 = VECTOR('',#844,1.);
#844 = DIRECTION('',(0.,0.,1.));
#845 = ORIENTED_EDGE('',*,*,#846,.T.);
#846 = EDGE_CURVE('',#839,#248,#847,.T.);
#847 = LINE('',#848,#849);
#848 = CARTESIAN_POINT('',(26.211146871262,-13.40096189432,
    19.325290242014));
#849 = VECTOR('',#850,1.);
#850 = DIRECTION('',(0.866025403784,-0.5,0.));
#851 = ORIENTED_EDGE('',*,*,#256,.F.);
#852 = PLANE('',#853);
#853 = AXIS2_PLACEMENT_3D('',#854,#855,#856);
#854 = CARTESIAN_POINT('',(26.211146871262,-13.40096189432,
    15.325290242014));
#855 = DIRECTION('',(0.5,0.866025403784,0.));
#856 = DIRECTION('',(0.,0.,1.));
#857 = ADVANCED_FACE('',(#858),#877,.F.);
#858 = FACE_BOUND('',#859,.F.);
#859 = EDGE_LOOP('',(#860,#861,#870,#876));
#860 = ORIENTED_EDGE('',*,*,#846,.F.);
#861 = ORIENTED_EDGE('',*,*,#862,.F.);
#862 = EDGE_CURVE('',#863,#839,#865,.T.);
#863 = VERTEX_POINT('',#864);
#864 = CARTESIAN_POINT('',(25.545104107039,-16.48052354024,
    19.325290242014));
#865 = CIRCLE('',#866,30.4);
#866 = AXIS2_PLACEMENT_3D('',#867,#868,#869);
#867 = CARTESIAN_POINT('',(0.,0.,19.325290242014));
#868 = DIRECTION('',(0.,0.,1.));
#869 = DIRECTION('',(1.,0.,-0.));
#870 = ORIENTED_EDGE('',*,*,#871,.T.);
#871 = EDGE_CURVE('',#863,#240,#872,.T.);
#872 = LINE('',#873,#874);
#873 = CARTESIAN_POINT('',(24.711146871262,-15.99903810567,
    19.325290242014));
#874 = VECTOR('',#875,1.);
#875 = DIRECTION('',(0.866025403784,-0.5,0.));
#876 = ORIENTED_EDGE('',*,*,#247,.T.);
#877 = PLANE('',#878);
#878 = AXIS2_PLACEMENT_3D('',#879,#880,#881);
#879 = CARTESIAN_POINT('',(24.711146871262,-15.99903810567,
    19.325290242014));
#880 = DIRECTION('',(0.,0.,1.));
#881 = DIRECTION('',(0.866025403784,-0.5,0.));
#882 = ADVANCED_FACE('',(#883),#894,.T.);
#883 = FACE_BOUND('',#884,.T.);
#884 = EDGE_LOOP('',(#885,#886,#892,#893));
#885 = ORIENTED_EDGE('',*,*,#822,.F.);
#886 = ORIENTED_EDGE('',*,*,#887,.T.);
#887 = EDGE_CURVE('',#814,#863,#888,.T.);
#888 = LINE('',#889,#890);
#889 = CARTESIAN_POINT('',(25.545104107039,-16.48052354024,
    1.478219977988));
#890 = VECTOR('',#891,1.);
#891 = DIRECTION('',(0.,0.,1.));
#892 = ORIENTED_EDGE('',*,*,#871,.T.);
#893 = ORIENTED_EDGE('',*,*,#239,.F.);
#894 = PLANE('',#895);
#895 = AXIS2_PLACEMENT_3D('',#896,#897,#898);
#896 = CARTESIAN_POINT('',(24.711146871262,-15.99903810567,
    15.325290242014));
#897 = DIRECTION('',(0.5,0.866025403784,0.));
#898 = DIRECTION('',(0.,0.,1.));
#899 = ADVANCED_FACE('',(#900),#903,.F.);
#900 = FACE_BOUND('',#901,.F.);
#901 = EDGE_LOOP('',(#902));
#902 = ORIENTED_EDGE('',*,*,#280,.T.);
#903 = PLANE('',#904);
#904 = AXIS2_PLACEMENT_3D('',#905,#906,#907);
#905 = CARTESIAN_POINT('',(0.,0.,0.));
#906 = DIRECTION('',(0.,0.,1.));
#907 = DIRECTION('',(1.,0.,-0.));
#908 = ADVANCED_FACE('',(#909,#1057,#1063,#1069,#1075,#1081,#1087),#1093
  ,.F.);
#909 = FACE_BOUND('',#910,.F.);
#910 = EDGE_LOOP('',(#911,#921,#930,#938,#947,#956,#964,#973,#979,#980,
    #981,#990,#998,#1007,#1016,#1024,#1033,#1041,#1050));
#911 = ORIENTED_EDGE('',*,*,#912,.F.);
#912 = EDGE_CURVE('',#913,#915,#917,.T.);
#913 = VERTEX_POINT('',#914);
#914 = CARTESIAN_POINT('',(-27.69866408807,12.527729552307,
    1.478219977988));
#915 = VERTEX_POINT('',#916);
#916 = CARTESIAN_POINT('',(-27.69866408807,12.527729552308,
    7.325290242014));
#917 = LINE('',#918,#919);
#918 = CARTESIAN_POINT('',(-27.69866408807,12.527729552308,
    1.478219977988));
#919 = VECTOR('',#920,1.);
#920 = DIRECTION('',(0.,0.,1.));
#921 = ORIENTED_EDGE('',*,*,#922,.T.);
#922 = EDGE_CURVE('',#913,#923,#925,.T.);
#923 = VERTEX_POINT('',#924);
#924 = CARTESIAN_POINT('',(-3.,-30.25161152732,1.478219977988));
#925 = CIRCLE('',#926,30.4);
#926 = AXIS2_PLACEMENT_3D('',#927,#928,#929);
#927 = CARTESIAN_POINT('',(0.,0.,1.478219977988));
#928 = DIRECTION('',(0.,0.,1.));
#929 = DIRECTION('',(1.,0.,-0.));
#930 = ORIENTED_EDGE('',*,*,#931,.T.);
#931 = EDGE_CURVE('',#923,#932,#934,.T.);
#932 = VERTEX_POINT('',#933);
#933 = CARTESIAN_POINT('',(-3.,-30.25161152732,7.325290242014));
#934 = LINE('',#935,#936);
#935 = CARTESIAN_POINT('',(-3.,-30.25161152732,1.478219977988));
#936 = VECTOR('',#937,1.);
#937 = DIRECTION('',(0.,0.,1.));
#938 = ORIENTED_EDGE('',*,*,#939,.T.);
#939 = EDGE_CURVE('',#932,#940,#942,.T.);
#940 = VERTEX_POINT('',#941);
#941 = CARTESIAN_POINT('',(-6.661338147751E-15,-30.4,7.325290242014));
#942 = CIRCLE('',#943,30.4);
#943 = AXIS2_PLACEMENT_3D('',#944,#945,#946);
#944 = CARTESIAN_POINT('',(0.,0.,7.325290242014));
#945 = DIRECTION('',(0.,0.,1.));
#946 = DIRECTION('',(1.,0.,-0.));
#947 = ORIENTED_EDGE('',*,*,#948,.T.);
#948 = EDGE_CURVE('',#940,#949,#951,.T.);
#949 = VERTEX_POINT('',#950);
#950 = CARTESIAN_POINT('',(3.,-30.25161152732,7.325290242014));
#951 = CIRCLE('',#952,30.4);
#952 = AXIS2_PLACEMENT_3D('',#953,#954,#955);
#953 = CARTESIAN_POINT('',(0.,0.,7.325290242014));
#954 = DIRECTION('',(0.,0.,1.));
#955 = DIRECTION('',(1.,0.,-0.));
#956 = ORIENTED_EDGE('',*,*,#957,.F.);
#957 = EDGE_CURVE('',#958,#949,#960,.T.);
#958 = VERTEX_POINT('',#959);
#959 = CARTESIAN_POINT('',(3.,-30.25161152732,1.478219977988));
#960 = LINE('',#961,#962);
#961 = CARTESIAN_POINT('',(3.,-30.25161152732,1.478219977988));
#962 = VECTOR('',#963,1.);
#963 = DIRECTION('',(0.,0.,1.));
#964 = ORIENTED_EDGE('',*,*,#965,.T.);
#965 = EDGE_CURVE('',#958,#966,#968,.T.);
#966 = VERTEX_POINT('',#967);
#967 = CARTESIAN_POINT('',(30.4,-7.445852538816E-15,1.478219977988));
#968 = CIRCLE('',#969,30.4);
#969 = AXIS2_PLACEMENT_3D('',#970,#971,#972);
#970 = CARTESIAN_POINT('',(0.,0.,1.478219977988));
#971 = DIRECTION('',(0.,0.,1.));
#972 = DIRECTION('',(1.,0.,-0.));
#973 = ORIENTED_EDGE('',*,*,#974,.T.);
#974 = EDGE_CURVE('',#966,#299,#975,.T.);
#975 = LINE('',#976,#977);
#976 = CARTESIAN_POINT('',(30.4,-7.445852538816E-15,1.478219977988));
#977 = VECTOR('',#978,1.);
#978 = DIRECTION('',(0.,0.,1.));
#979 = ORIENTED_EDGE('',*,*,#298,.F.);
#980 = ORIENTED_EDGE('',*,*,#974,.F.);
#981 = ORIENTED_EDGE('',*,*,#982,.T.);
#982 = EDGE_CURVE('',#966,#983,#985,.T.);
#983 = VERTEX_POINT('',#984);
#984 = CARTESIAN_POINT('',(27.698664088079,12.527729552307,
    1.478219977988));
#985 = CIRCLE('',#986,30.4);
#986 = AXIS2_PLACEMENT_3D('',#987,#988,#989);
#987 = CARTESIAN_POINT('',(0.,0.,1.478219977988));
#988 = DIRECTION('',(0.,0.,1.));
#989 = DIRECTION('',(1.,0.,-0.));
#990 = ORIENTED_EDGE('',*,*,#991,.T.);
#991 = EDGE_CURVE('',#983,#992,#994,.T.);
#992 = VERTEX_POINT('',#993);
#993 = CARTESIAN_POINT('',(27.698664088079,12.527729552308,
    7.325290242014));
#994 = LINE('',#995,#996);
#995 = CARTESIAN_POINT('',(27.698664088079,12.527729552308,
    1.478219977988));
#996 = VECTOR('',#997,1.);
#997 = DIRECTION('',(0.,0.,1.));
#998 = ORIENTED_EDGE('',*,*,#999,.T.);
#999 = EDGE_CURVE('',#992,#1000,#1002,.T.);
#1000 = VERTEX_POINT('',#1001);
#1001 = CARTESIAN_POINT('',(26.327172275047,15.2,7.325290242014));
#1002 = CIRCLE('',#1003,30.4);
#1003 = AXIS2_PLACEMENT_3D('',#1004,#1005,#1006);
#1004 = CARTESIAN_POINT('',(0.,0.,7.325290242014));
#1005 = DIRECTION('',(0.,0.,1.));
#1006 = DIRECTION('',(1.,0.,-0.));
#1007 = ORIENTED_EDGE('',*,*,#1008,.T.);
#1008 = EDGE_CURVE('',#1000,#1009,#1011,.T.);
#1009 = VERTEX_POINT('',#1010);
#1010 = CARTESIAN_POINT('',(24.698664088079,17.723881975014,
    7.325290242014));
#1011 = CIRCLE('',#1012,30.4);
#1012 = AXIS2_PLACEMENT_3D('',#1013,#1014,#1015);
#1013 = CARTESIAN_POINT('',(0.,0.,7.325290242014));
#1014 = DIRECTION('',(0.,0.,1.));
#1015 = DIRECTION('',(1.,0.,-0.));
#1016 = ORIENTED_EDGE('',*,*,#1017,.F.);
#1017 = EDGE_CURVE('',#1018,#1009,#1020,.T.);
#1018 = VERTEX_POINT('',#1019);
#1019 = CARTESIAN_POINT('',(24.698664088079,17.723881975015,
    1.478219977988));
#1020 = LINE('',#1021,#1022);
#1021 = CARTESIAN_POINT('',(24.698664088079,17.723881975014,
    1.478219977988));
#1022 = VECTOR('',#1023,1.);
#1023 = DIRECTION('',(0.,0.,1.));
#1024 = ORIENTED_EDGE('',*,*,#1025,.T.);
#1025 = EDGE_CURVE('',#1018,#1026,#1028,.T.);
#1026 = VERTEX_POINT('',#1027);
#1027 = CARTESIAN_POINT('',(-24.69866408807,17.723881975015,
    1.478219977988));
#1028 = CIRCLE('',#1029,30.4);
#1029 = AXIS2_PLACEMENT_3D('',#1030,#1031,#1032);
#1030 = CARTESIAN_POINT('',(0.,0.,1.478219977988));
#1031 = DIRECTION('',(0.,0.,1.));
#1032 = DIRECTION('',(1.,0.,-0.));
#1033 = ORIENTED_EDGE('',*,*,#1034,.T.);
#1034 = EDGE_CURVE('',#1026,#1035,#1037,.T.);
#1035 = VERTEX_POINT('',#1036);
#1036 = CARTESIAN_POINT('',(-24.69866408807,17.723881975014,
    7.325290242014));
#1037 = LINE('',#1038,#1039);
#1038 = CARTESIAN_POINT('',(-24.69866408807,17.723881975014,
    1.478219977988));
#1039 = VECTOR('',#1040,1.);
#1040 = DIRECTION('',(0.,0.,1.));
#1041 = ORIENTED_EDGE('',*,*,#1042,.T.);
#1042 = EDGE_CURVE('',#1035,#1043,#1045,.T.);
#1043 = VERTEX_POINT('',#1044);
#1044 = CARTESIAN_POINT('',(-26.32717227504,15.2,7.325290242014));
#1045 = CIRCLE('',#1046,30.4);
#1046 = AXIS2_PLACEMENT_3D('',#1047,#1048,#1049);
#1047 = CARTESIAN_POINT('',(0.,0.,7.325290242014));
#1048 = DIRECTION('',(0.,0.,1.));
#1049 = DIRECTION('',(1.,0.,-0.));
#1050 = ORIENTED_EDGE('',*,*,#1051,.T.);
#1051 = EDGE_CURVE('',#1043,#915,#1052,.T.);
#1052 = CIRCLE('',#1053,30.4);
#1053 = AXIS2_PLACEMENT_3D('',#1054,#1055,#1056);
#1054 = CARTESIAN_POINT('',(0.,0.,7.325290242014));
#1055 = DIRECTION('',(0.,0.,1.));
#1056 = DIRECTION('',(1.,0.,-0.));
#1057 = FACE_BOUND('',#1058,.F.);
#1058 = EDGE_LOOP('',(#1059,#1060,#1061,#1062));
#1059 = ORIENTED_EDGE('',*,*,#323,.F.);
#1060 = ORIENTED_EDGE('',*,*,#348,.T.);
#1061 = ORIENTED_EDGE('',*,*,#396,.T.);
#1062 = ORIENTED_EDGE('',*,*,#372,.F.);
#1063 = FACE_BOUND('',#1064,.F.);
#1064 = EDGE_LOOP('',(#1065,#1066,#1067,#1068));
#1065 = ORIENTED_EDGE('',*,*,#421,.F.);
#1066 = ORIENTED_EDGE('',*,*,#446,.T.);
#1067 = ORIENTED_EDGE('',*,*,#494,.T.);
#1068 = ORIENTED_EDGE('',*,*,#470,.F.);
#1069 = FACE_BOUND('',#1070,.F.);
#1070 = EDGE_LOOP('',(#1071,#1072,#1073,#1074));
#1071 = ORIENTED_EDGE('',*,*,#519,.F.);
#1072 = ORIENTED_EDGE('',*,*,#544,.T.);
#1073 = ORIENTED_EDGE('',*,*,#592,.T.);
#1074 = ORIENTED_EDGE('',*,*,#568,.F.);
#1075 = FACE_BOUND('',#1076,.F.);
#1076 = EDGE_LOOP('',(#1077,#1078,#1079,#1080));
#1077 = ORIENTED_EDGE('',*,*,#617,.F.);
#1078 = ORIENTED_EDGE('',*,*,#642,.T.);
#1079 = ORIENTED_EDGE('',*,*,#690,.T.);
#1080 = ORIENTED_EDGE('',*,*,#666,.F.);
#1081 = FACE_BOUND('',#1082,.F.);
#1082 = EDGE_LOOP('',(#1083,#1084,#1085,#1086));
#1083 = ORIENTED_EDGE('',*,*,#715,.F.);
#1084 = ORIENTED_EDGE('',*,*,#740,.T.);
#1085 = ORIENTED_EDGE('',*,*,#788,.T.);
#1086 = ORIENTED_EDGE('',*,*,#764,.F.);
#1087 = FACE_BOUND('',#1088,.F.);
#1088 = EDGE_LOOP('',(#1089,#1090,#1091,#1092));
#1089 = ORIENTED_EDGE('',*,*,#813,.F.);
#1090 = ORIENTED_EDGE('',*,*,#887,.T.);
#1091 = ORIENTED_EDGE('',*,*,#862,.T.);
#1092 = ORIENTED_EDGE('',*,*,#838,.F.);
#1093 = CYLINDRICAL_SURFACE('',#1094,30.4);
#1094 = AXIS2_PLACEMENT_3D('',#1095,#1096,#1097);
#1095 = CARTESIAN_POINT('',(0.,0.,1.478219977988));
#1096 = DIRECTION('',(0.,0.,1.));
#1097 = DIRECTION('',(1.,0.,-0.));
#1098 = ADVANCED_FACE('',(#1099),#1124,.T.);
#1099 = FACE_BOUND('',#1100,.T.);
#1100 = EDGE_LOOP('',(#1101,#1109,#1117,#1123));
#1101 = ORIENTED_EDGE('',*,*,#1102,.F.);
#1102 = EDGE_CURVE('',#1103,#913,#1105,.T.);
#1103 = VERTEX_POINT('',#1104);
#1104 = CARTESIAN_POINT('',(-25.22909606369,11.101923788647,
    1.478219977988));
#1105 = LINE('',#1106,#1107);
#1106 = CARTESIAN_POINT('',(-25.22909606369,11.101923788647,
    1.478219977988));
#1107 = VECTOR('',#1108,1.);
#1108 = DIRECTION('',(-0.866025403784,0.5,0.));
#1109 = ORIENTED_EDGE('',*,*,#1110,.T.);
#1110 = EDGE_CURVE('',#1103,#1111,#1113,.T.);
#1111 = VERTEX_POINT('',#1112);
#1112 = CARTESIAN_POINT('',(-25.22909606369,11.101923788647,
    7.325290242014));
#1113 = LINE('',#1114,#1115);
#1114 = CARTESIAN_POINT('',(-25.22909606369,11.101923788647,
    1.478219977988));
#1115 = VECTOR('',#1116,1.);
#1116 = DIRECTION('',(0.,0.,1.));
#1117 = ORIENTED_EDGE('',*,*,#1118,.T.);
#1118 = EDGE_CURVE('',#1111,#915,#1119,.T.);
#1119 = LINE('',#1120,#1121);
#1120 = CARTESIAN_POINT('',(-25.22909606369,11.101923788647,
    7.325290242014));
#1121 = VECTOR('',#1122,1.);
#1122 = DIRECTION('',(-0.866025403784,0.5,0.));
#1123 = ORIENTED_EDGE('',*,*,#912,.F.);
#1124 = PLANE('',#1125);
#1125 = AXIS2_PLACEMENT_3D('',#1126,#1127,#1128);
#1126 = CARTESIAN_POINT('',(-25.22909606369,11.101923788647,
    1.478219977988));
#1127 = DIRECTION('',(-0.5,-0.866025403784,0.));
#1128 = DIRECTION('',(0.,0.,1.));
#1129 = ADVANCED_FACE('',(#1130),#1149,.T.);
#1130 = FACE_BOUND('',#1131,.T.);
#1131 = EDGE_LOOP('',(#1132,#1133,#1141,#1147,#1148));
#1132 = ORIENTED_EDGE('',*,*,#1118,.F.);
#1133 = ORIENTED_EDGE('',*,*,#1134,.F.);
#1134 = EDGE_CURVE('',#1135,#1111,#1137,.T.);
#1135 = VERTEX_POINT('',#1136);
#1136 = CARTESIAN_POINT('',(-22.22909606369,16.298076211353,
    7.325290242014));
#1137 = LINE('',#1138,#1139);
#1138 = CARTESIAN_POINT('',(-22.22909606369,16.298076211353,
    7.325290242014));
#1139 = VECTOR('',#1140,1.);
#1140 = DIRECTION('',(-0.5,-0.866025403784,0.));
#1141 = ORIENTED_EDGE('',*,*,#1142,.T.);
#1142 = EDGE_CURVE('',#1135,#1035,#1143,.T.);
#1143 = LINE('',#1144,#1145);
#1144 = CARTESIAN_POINT('',(-22.22909606369,16.298076211353,
    7.325290242014));
#1145 = VECTOR('',#1146,1.);
#1146 = DIRECTION('',(-0.866025403784,0.5,0.));
#1147 = ORIENTED_EDGE('',*,*,#1042,.T.);
#1148 = ORIENTED_EDGE('',*,*,#1051,.T.);
#1149 = PLANE('',#1150);
#1150 = AXIS2_PLACEMENT_3D('',#1151,#1152,#1153);
#1151 = CARTESIAN_POINT('',(-22.22909606369,16.298076211353,
    7.325290242014));
#1152 = DIRECTION('',(0.,0.,1.));
#1153 = DIRECTION('',(-0.866025403784,0.5,0.));
#1154 = ADVANCED_FACE('',(#1155),#1173,.F.);
#1155 = FACE_BOUND('',#1156,.F.);
#1156 = EDGE_LOOP('',(#1157,#1165,#1171,#1172));
#1157 = ORIENTED_EDGE('',*,*,#1158,.F.);
#1158 = EDGE_CURVE('',#1159,#1026,#1161,.T.);
#1159 = VERTEX_POINT('',#1160);
#1160 = CARTESIAN_POINT('',(-22.22909606369,16.298076211353,
    1.478219977988));
#1161 = LINE('',#1162,#1163);
#1162 = CARTESIAN_POINT('',(-22.22909606369,16.298076211353,
    1.478219977988));
#1163 = VECTOR('',#1164,1.);
#1164 = DIRECTION('',(-0.866025403784,0.5,0.));
#1165 = ORIENTED_EDGE('',*,*,#1166,.T.);
#1166 = EDGE_CURVE('',#1159,#1135,#1167,.T.);
#1167 = LINE('',#1168,#1169);
#1168 = CARTESIAN_POINT('',(-22.22909606369,16.298076211353,
    1.478219977988));
#1169 = VECTOR('',#1170,1.);
#1170 = DIRECTION('',(0.,0.,1.));
#1171 = ORIENTED_EDGE('',*,*,#1142,.T.);
#1172 = ORIENTED_EDGE('',*,*,#1034,.F.);
#1173 = PLANE('',#1174);
#1174 = AXIS2_PLACEMENT_3D('',#1175,#1176,#1177);
#1175 = CARTESIAN_POINT('',(-22.22909606369,16.298076211353,
    1.478219977988));
#1176 = DIRECTION('',(-0.5,-0.866025403784,0.));
#1177 = DIRECTION('',(0.,0.,1.));
#1178 = ADVANCED_FACE('',(#1179),#1237,.T.);
#1179 = FACE_BOUND('',#1180,.T.);
#1180 = EDGE_LOOP('',(#1181,#1191,#1197,#1198,#1199,#1205,#1206,#1207,
    #1215,#1223,#1229,#1230,#1231));
#1181 = ORIENTED_EDGE('',*,*,#1182,.T.);
#1182 = EDGE_CURVE('',#1183,#1185,#1187,.T.);
#1183 = VERTEX_POINT('',#1184);
#1184 = CARTESIAN_POINT('',(25.229096063694,11.101923788647,
    1.478219977988));
#1185 = VERTEX_POINT('',#1186);
#1186 = CARTESIAN_POINT('',(22.229096063694,16.298076211353,
    1.478219977988));
#1187 = LINE('',#1188,#1189);
#1188 = CARTESIAN_POINT('',(25.229096063694,11.101923788647,
    1.478219977988));
#1189 = VECTOR('',#1190,1.);
#1190 = DIRECTION('',(-0.5,0.866025403784,0.));
#1191 = ORIENTED_EDGE('',*,*,#1192,.T.);
#1192 = EDGE_CURVE('',#1185,#1018,#1193,.T.);
#1193 = LINE('',#1194,#1195);
#1194 = CARTESIAN_POINT('',(22.229096063694,16.298076211353,
    1.478219977988));
#1195 = VECTOR('',#1196,1.);
#1196 = DIRECTION('',(0.866025403784,0.5,0.));
#1197 = ORIENTED_EDGE('',*,*,#1025,.T.);
#1198 = ORIENTED_EDGE('',*,*,#1158,.F.);
#1199 = ORIENTED_EDGE('',*,*,#1200,.T.);
#1200 = EDGE_CURVE('',#1159,#1103,#1201,.T.);
#1201 = LINE('',#1202,#1203);
#1202 = CARTESIAN_POINT('',(-22.22909606369,16.298076211353,
    1.478219977988));
#1203 = VECTOR('',#1204,1.);
#1204 = DIRECTION('',(-0.5,-0.866025403784,0.));
#1205 = ORIENTED_EDGE('',*,*,#1102,.T.);
#1206 = ORIENTED_EDGE('',*,*,#922,.T.);
#1207 = ORIENTED_EDGE('',*,*,#1208,.F.);
#1208 = EDGE_CURVE('',#1209,#923,#1211,.T.);
#1209 = VERTEX_POINT('',#1210);
#1210 = CARTESIAN_POINT('',(-3.,-27.4,1.478219977988));
#1211 = LINE('',#1212,#1213);
#1212 = CARTESIAN_POINT('',(-3.,-27.4,1.478219977988));
#1213 = VECTOR('',#1214,1.);
#1214 = DIRECTION('',(-2.22044604925E-16,-1.,0.));
#1215 = ORIENTED_EDGE('',*,*,#1216,.T.);
#1216 = EDGE_CURVE('',#1209,#1217,#1219,.T.);
#1217 = VERTEX_POINT('',#1218);
#1218 = CARTESIAN_POINT('',(3.,-27.4,1.478219977988));
#1219 = LINE('',#1220,#1221);
#1220 = CARTESIAN_POINT('',(-3.,-27.4,1.478219977988));
#1221 = VECTOR('',#1222,1.);
#1222 = DIRECTION('',(1.,-2.22044604925E-16,0.));
#1223 = ORIENTED_EDGE('',*,*,#1224,.T.);
#1224 = EDGE_CURVE('',#1217,#958,#1225,.T.);
#1225 = LINE('',#1226,#1227);
#1226 = CARTESIAN_POINT('',(3.,-27.4,1.478219977988));
#1227 = VECTOR('',#1228,1.);
#1228 = DIRECTION('',(-2.22044604925E-16,-1.,0.));
#1229 = ORIENTED_EDGE('',*,*,#965,.T.);
#1230 = ORIENTED_EDGE('',*,*,#982,.T.);
#1231 = ORIENTED_EDGE('',*,*,#1232,.F.);
#1232 = EDGE_CURVE('',#1183,#983,#1233,.T.);
#1233 = LINE('',#1234,#1235);
#1234 = CARTESIAN_POINT('',(25.229096063694,11.101923788647,
    1.478219977988));
#1235 = VECTOR('',#1236,1.);
#1236 = DIRECTION('',(0.866025403784,0.5,0.));
#1237 = PLANE('',#1238);
#1238 = AXIS2_PLACEMENT_3D('',#1239,#1240,#1241);
#1239 = CARTESIAN_POINT('',(0.,0.,1.478219977988));
#1240 = DIRECTION('',(0.,0.,1.));
#1241 = DIRECTION('',(1.,0.,-0.));
#1242 = ADVANCED_FACE('',(#1243),#1261,.T.);
#1243 = FACE_BOUND('',#1244,.T.);
#1244 = EDGE_LOOP('',(#1245,#1246,#1254,#1260));
#1245 = ORIENTED_EDGE('',*,*,#1192,.F.);
#1246 = ORIENTED_EDGE('',*,*,#1247,.T.);
#1247 = EDGE_CURVE('',#1185,#1248,#1250,.T.);
#1248 = VERTEX_POINT('',#1249);
#1249 = CARTESIAN_POINT('',(22.229096063694,16.298076211353,
    7.325290242014));
#1250 = LINE('',#1251,#1252);
#1251 = CARTESIAN_POINT('',(22.229096063694,16.298076211353,
    1.478219977988));
#1252 = VECTOR('',#1253,1.);
#1253 = DIRECTION('',(0.,0.,1.));
#1254 = ORIENTED_EDGE('',*,*,#1255,.T.);
#1255 = EDGE_CURVE('',#1248,#1009,#1256,.T.);
#1256 = LINE('',#1257,#1258);
#1257 = CARTESIAN_POINT('',(22.229096063694,16.298076211353,
    7.325290242014));
#1258 = VECTOR('',#1259,1.);
#1259 = DIRECTION('',(0.866025403784,0.5,0.));
#1260 = ORIENTED_EDGE('',*,*,#1017,.F.);
#1261 = PLANE('',#1262);
#1262 = AXIS2_PLACEMENT_3D('',#1263,#1264,#1265);
#1263 = CARTESIAN_POINT('',(22.229096063694,16.298076211353,
    1.478219977988));
#1264 = DIRECTION('',(-0.5,0.866025403784,0.));
#1265 = DIRECTION('',(0.,0.,1.));
#1266 = ADVANCED_FACE('',(#1267),#1286,.T.);
#1267 = FACE_BOUND('',#1268,.T.);
#1268 = EDGE_LOOP('',(#1269,#1270,#1278,#1284,#1285));
#1269 = ORIENTED_EDGE('',*,*,#1255,.F.);
#1270 = ORIENTED_EDGE('',*,*,#1271,.F.);
#1271 = EDGE_CURVE('',#1272,#1248,#1274,.T.);
#1272 = VERTEX_POINT('',#1273);
#1273 = CARTESIAN_POINT('',(25.229096063694,11.101923788647,
    7.325290242014));
#1274 = LINE('',#1275,#1276);
#1275 = CARTESIAN_POINT('',(25.229096063694,11.101923788647,
    7.325290242014));
#1276 = VECTOR('',#1277,1.);
#1277 = DIRECTION('',(-0.5,0.866025403784,0.));
#1278 = ORIENTED_EDGE('',*,*,#1279,.T.);
#1279 = EDGE_CURVE('',#1272,#992,#1280,.T.);
#1280 = LINE('',#1281,#1282);
#1281 = CARTESIAN_POINT('',(25.229096063694,11.101923788647,
    7.325290242014));
#1282 = VECTOR('',#1283,1.);
#1283 = DIRECTION('',(0.866025403784,0.5,0.));
#1284 = ORIENTED_EDGE('',*,*,#999,.T.);
#1285 = ORIENTED_EDGE('',*,*,#1008,.T.);
#1286 = PLANE('',#1287);
#1287 = AXIS2_PLACEMENT_3D('',#1288,#1289,#1290);
#1288 = CARTESIAN_POINT('',(25.229096063694,11.101923788647,
    7.325290242014));
#1289 = DIRECTION('',(0.,0.,1.));
#1290 = DIRECTION('',(0.866025403784,0.5,0.));
#1291 = ADVANCED_FACE('',(#1292),#1303,.F.);
#1292 = FACE_BOUND('',#1293,.F.);
#1293 = EDGE_LOOP('',(#1294,#1295,#1301,#1302));
#1294 = ORIENTED_EDGE('',*,*,#1232,.F.);
#1295 = ORIENTED_EDGE('',*,*,#1296,.T.);
#1296 = EDGE_CURVE('',#1183,#1272,#1297,.T.);
#1297 = LINE('',#1298,#1299);
#1298 = CARTESIAN_POINT('',(25.229096063694,11.101923788647,
    1.478219977988));
#1299 = VECTOR('',#1300,1.);
#1300 = DIRECTION('',(0.,0.,1.));
#1301 = ORIENTED_EDGE('',*,*,#1279,.T.);
#1302 = ORIENTED_EDGE('',*,*,#991,.F.);
#1303 = PLANE('',#1304);
#1304 = AXIS2_PLACEMENT_3D('',#1305,#1306,#1307);
#1305 = CARTESIAN_POINT('',(25.229096063694,11.101923788647,
    1.478219977988));
#1306 = DIRECTION('',(-0.5,0.866025403784,0.));
#1307 = DIRECTION('',(0.,0.,1.));
#1308 = ADVANCED_FACE('',(#1309),#1327,.T.);
#1309 = FACE_BOUND('',#1310,.T.);
#1310 = EDGE_LOOP('',(#1311,#1312,#1320,#1326));
#1311 = ORIENTED_EDGE('',*,*,#1224,.F.);
#1312 = ORIENTED_EDGE('',*,*,#1313,.T.);
#1313 = EDGE_CURVE('',#1217,#1314,#1316,.T.);
#1314 = VERTEX_POINT('',#1315);
#1315 = CARTESIAN_POINT('',(3.,-27.4,7.325290242014));
#1316 = LINE('',#1317,#1318);
#1317 = CARTESIAN_POINT('',(3.,-27.4,1.478219977988));
#1318 = VECTOR('',#1319,1.);
#1319 = DIRECTION('',(0.,0.,1.));
#1320 = ORIENTED_EDGE('',*,*,#1321,.T.);
#1321 = EDGE_CURVE('',#1314,#949,#1322,.T.);
#1322 = LINE('',#1323,#1324);
#1323 = CARTESIAN_POINT('',(3.,-27.4,7.325290242014));
#1324 = VECTOR('',#1325,1.);
#1325 = DIRECTION('',(-2.22044604925E-16,-1.,0.));
#1326 = ORIENTED_EDGE('',*,*,#957,.F.);
#1327 = PLANE('',#1328);
#1328 = AXIS2_PLACEMENT_3D('',#1329,#1330,#1331);
#1329 = CARTESIAN_POINT('',(3.,-27.4,1.478219977988));
#1330 = DIRECTION('',(1.,-2.22044604925E-16,0.));
#1331 = DIRECTION('',(0.,0.,1.));
#1332 = ADVANCED_FACE('',(#1333),#1352,.T.);
#1333 = FACE_BOUND('',#1334,.T.);
#1334 = EDGE_LOOP('',(#1335,#1336,#1344,#1350,#1351));
#1335 = ORIENTED_EDGE('',*,*,#1321,.F.);
#1336 = ORIENTED_EDGE('',*,*,#1337,.F.);
#1337 = EDGE_CURVE('',#1338,#1314,#1340,.T.);
#1338 = VERTEX_POINT('',#1339);
#1339 = CARTESIAN_POINT('',(-3.,-27.4,7.325290242014));
#1340 = LINE('',#1341,#1342);
#1341 = CARTESIAN_POINT('',(-3.,-27.4,7.325290242014));
#1342 = VECTOR('',#1343,1.);
#1343 = DIRECTION('',(1.,-2.22044604925E-16,0.));
#1344 = ORIENTED_EDGE('',*,*,#1345,.T.);
#1345 = EDGE_CURVE('',#1338,#932,#1346,.T.);
#1346 = LINE('',#1347,#1348);
#1347 = CARTESIAN_POINT('',(-3.,-27.4,7.325290242014));
#1348 = VECTOR('',#1349,1.);
#1349 = DIRECTION('',(-2.22044604925E-16,-1.,0.));
#1350 = ORIENTED_EDGE('',*,*,#939,.T.);
#1351 = ORIENTED_EDGE('',*,*,#948,.T.);
#1352 = PLANE('',#1353);
#1353 = AXIS2_PLACEMENT_3D('',#1354,#1355,#1356);
#1354 = CARTESIAN_POINT('',(-3.,-27.4,7.325290242014));
#1355 = DIRECTION('',(0.,0.,1.));
#1356 = DIRECTION('',(-2.22044604925E-16,-1.,0.));
#1357 = ADVANCED_FACE('',(#1358),#1369,.F.);
#1358 = FACE_BOUND('',#1359,.F.);
#1359 = EDGE_LOOP('',(#1360,#1361,#1367,#1368));
#1360 = ORIENTED_EDGE('',*,*,#1208,.F.);
#1361 = ORIENTED_EDGE('',*,*,#1362,.T.);
#1362 = EDGE_CURVE('',#1209,#1338,#1363,.T.);
#1363 = LINE('',#1364,#1365);
#1364 = CARTESIAN_POINT('',(-3.,-27.4,1.478219977988));
#1365 = VECTOR('',#1366,1.);
#1366 = DIRECTION('',(0.,0.,1.));
#1367 = ORIENTED_EDGE('',*,*,#1345,.T.);
#1368 = ORIENTED_EDGE('',*,*,#931,.F.);
#1369 = PLANE('',#1370);
#1370 = AXIS2_PLACEMENT_3D('',#1371,#1372,#1373);
#1371 = CARTESIAN_POINT('',(-3.,-27.4,1.478219977988));
#1372 = DIRECTION('',(1.,-2.22044604925E-16,0.));
#1373 = DIRECTION('',(0.,0.,1.));
#1374 = ADVANCED_FACE('',(#1375),#1381,.F.);
#1375 = FACE_BOUND('',#1376,.F.);
#1376 = EDGE_LOOP('',(#1377,#1378,#1379,#1380));
#1377 = ORIENTED_EDGE('',*,*,#1166,.F.);
#1378 = ORIENTED_EDGE('',*,*,#1200,.T.);
#1379 = ORIENTED_EDGE('',*,*,#1110,.T.);
#1380 = ORIENTED_EDGE('',*,*,#1134,.F.);
#1381 = PLANE('',#1382);
#1382 = AXIS2_PLACEMENT_3D('',#1383,#1384,#1385);
#1383 = CARTESIAN_POINT('',(-22.22909606369,16.298076211353,
    1.478219977988));
#1384 = DIRECTION('',(-0.866025403784,0.5,0.));
#1385 = DIRECTION('',(0.,0.,1.));
#1386 = ADVANCED_FACE('',(#1387),#1393,.F.);
#1387 = FACE_BOUND('',#1388,.F.);
#1388 = EDGE_LOOP('',(#1389,#1390,#1391,#1392));
#1389 = ORIENTED_EDGE('',*,*,#1296,.F.);
#1390 = ORIENTED_EDGE('',*,*,#1182,.T.);
#1391 = ORIENTED_EDGE('',*,*,#1247,.T.);
#1392 = ORIENTED_EDGE('',*,*,#1271,.F.);
#1393 = PLANE('',#1394);
#1394 = AXIS2_PLACEMENT_3D('',#1395,#1396,#1397);
#1395 = CARTESIAN_POINT('',(25.229096063694,11.101923788647,
    1.478219977988));
#1396 = DIRECTION('',(0.866025403784,0.5,0.));
#1397 = DIRECTION('',(0.,0.,1.));
#1398 = ADVANCED_FACE('',(#1399),#1405,.F.);
#1399 = FACE_BOUND('',#1400,.F.);
#1400 = EDGE_LOOP('',(#1401,#1402,#1403,#1404));
#1401 = ORIENTED_EDGE('',*,*,#1362,.F.);
#1402 = ORIENTED_EDGE('',*,*,#1216,.T.);
#1403 = ORIENTED_EDGE('',*,*,#1313,.T.);
#1404 = ORIENTED_EDGE('',*,*,#1337,.F.);
#1405 = PLANE('',#1406);
#1406 = AXIS2_PLACEMENT_3D('',#1407,#1408,#1409);
#1407 = CARTESIAN_POINT('',(-3.,-27.4,1.478219977988));
#1408 = DIRECTION('',(-2.22044604925E-16,-1.,0.));
#1409 = DIRECTION('',(0.,0.,1.));
#1410 = ( GEOMETRIC_REPRESENTATION_CONTEXT(3) 
GLOBAL_UNCERTAINTY_ASSIGNED_CONTEXT((#1414)) 
GLOBAL_UNIT_ASSIGNED_CONTEXT((#1411,#1412,#1413)) REPRESENTATION_CONTEXT
('Context #1','3D Context with UNIT and UNCERTAINTY') );
#1411 = ( LENGTH_UNIT() NAMED_UNIT(*) SI_UNIT(.MILLI.,.METRE.) );
#1412 = ( NAMED_UNIT(*) PLANE_ANGLE_UNIT() SI_UNIT($,.RADIAN.) );
#1413 = ( NAMED_UNIT(*) SI_UNIT($,.STERADIAN.) SOLID_ANGLE_UNIT() );
#1414 = UNCERTAINTY_MEASURE_WITH_UNIT(LENGTH_MEASURE(1.E-07),#1411,
  'distance_accuracy_value','confusion accuracy');
#1415 = PRODUCT_RELATED_PRODUCT_CATEGORY('part',$,(#7));
ENDSEC;
END-ISO-10303-21;
