ISO-10303-21;
HEADER;
FILE_DESCRIPTION(('FreeCAD Model'),'2;1');
FILE_NAME('Open CASCADE Shape Model','2026-10-09T07:29:16',('FreeCAD'),(
    'FreeCAD'),'Open CASCADE STEP processor 7.8','FreeCAD','Unknown');
FILE_SCHEMA(('AUTOMOTIVE_DESIGN { 1 0 10303 214 1 1 1 1 }'));
ENDSEC;
DATA;
#1 = APPLICATION_PROTOCOL_DEFINITION('international standard',
  'automotive_design',2000,#2);
#2 = APPLICATION_CONTEXT(
  'core data for automotive mechanical design processes');
#3 = SHAPE_DEFINITION_REPRESENTATION(#4,#10);
#4 = PRODUCT_DEFINITION_SHAPE('','',#5);
#5 = PRODUCT_DEFINITION('design','',#6,#9);
#6 = PRODUCT_DEFINITION_FORMATION('','',#7);
#7 = PRODUCT('Open CASCADE STEP translator 7.8 2',
  'Open CASCADE STEP translator 7.8 2','',(#8));
#8 = PRODUCT_CONTEXT('',#2,'mechanical');
#9 = PRODUCT_DEFINITION_CONTEXT('part definition',#2,'design');
#10 = ADVANCED_BREP_SHAPE_REPRESENTATION('',(#11,#15),#1007);
#11 = AXIS2_PLACEMENT_3D('',#12,#13,#14);
#12 = CARTESIAN_POINT('',(0.,0.,0.));
#13 = DIRECTION('',(0.,0.,1.));
#14 = DIRECTION('',(1.,0.,-0.));
#15 = MANIFOLD_SOLID_BREP('',#16);
#16 = CLOSED_SHELL('',(#17,#50,#115,#157,#188,#212,#236,#253,#278,#303,
    #320,#345,#362,#484,#603,#641,#665,#696,#713,#746,#770,#801,#818,
    #851,#875,#906,#923,#940,#957,#969,#981,#993));
#17 = ADVANCED_FACE('',(#18),#45,.T.);
#18 = FACE_BOUND('',#19,.T.);
#19 = EDGE_LOOP('',(#20,#29,#37,#44));
#20 = ORIENTED_EDGE('',*,*,#21,.F.);
#21 = EDGE_CURVE('',#22,#22,#24,.T.);
#22 = VERTEX_POINT('',#23);
#23 = CARTESIAN_POINT('',(38.4,-9.405287417452E-15,2.4));
#24 = CIRCLE('',#25,38.4);
#25 = AXIS2_PLACEMENT_3D('',#26,#27,#28);
#26 = CARTESIAN_POINT('',(0.,0.,2.4));
#27 = DIRECTION('',(0.,0.,1.));
#28 = DIRECTION('',(1.,0.,-0.));
#29 = ORIENTED_EDGE('',*,*,#30,.F.);
#30 = EDGE_CURVE('',#31,#22,#33,.T.);
#31 = VERTEX_POINT('',#32);
#32 = CARTESIAN_POINT('',(38.4,-9.405287417452E-15,0.));
#33 = LINE('',#34,#35);
#34 = CARTESIAN_POINT('',(38.4,-9.405287417452E-15,0.));
#35 = VECTOR('',#36,1.);
#36 = DIRECTION('',(0.,0.,1.));
#37 = ORIENTED_EDGE('',*,*,#38,.T.);
#38 = EDGE_CURVE('',#31,#31,#39,.T.);
#39 = CIRCLE('',#40,38.4);
#40 = AXIS2_PLACEMENT_3D('',#41,#42,#43);
#41 = CARTESIAN_POINT('',(0.,0.,0.));
#42 = DIRECTION('',(0.,0.,1.));
#43 = DIRECTION('',(1.,0.,-0.));
#44 = ORIENTED_EDGE('',*,*,#30,.T.);
#45 = CYLINDRICAL_SURFACE('',#46,38.4);
#46 = AXIS2_PLACEMENT_3D('',#47,#48,#49);
#47 = CARTESIAN_POINT('',(0.,0.,0.));
#48 = DIRECTION('',(0.,0.,1.));
#49 = DIRECTION('',(1.,0.,-0.));
#50 = ADVANCED_FACE('',(#51,#54,#88,#99),#110,.T.);
#51 = FACE_BOUND('',#52,.T.);
#52 = EDGE_LOOP('',(#53));
#53 = ORIENTED_EDGE('',*,*,#21,.T.);
#54 = FACE_BOUND('',#55,.T.);
#55 = EDGE_LOOP('',(#56,#66,#74,#82));
#56 = ORIENTED_EDGE('',*,*,#57,.T.);
#57 = EDGE_CURVE('',#58,#60,#62,.T.);
#58 = VERTEX_POINT('',#59);
#59 = CARTESIAN_POINT('',(7.,-23.5,2.4));
#60 = VERTEX_POINT('',#61);
#61 = CARTESIAN_POINT('',(-7.,-23.5,2.4));
#62 = LINE('',#63,#64);
#63 = CARTESIAN_POINT('',(-3.5,-23.5,2.4));
#64 = VECTOR('',#65,1.);
#65 = DIRECTION('',(-1.,-0.,0.));
#66 = ORIENTED_EDGE('',*,*,#67,.T.);
#67 = EDGE_CURVE('',#60,#68,#70,.T.);
#68 = VERTEX_POINT('',#69);
#69 = CARTESIAN_POINT('',(-7.,-14.5,2.4));
#70 = LINE('',#71,#72);
#71 = CARTESIAN_POINT('',(-7.,-11.75,2.4));
#72 = VECTOR('',#73,1.);
#73 = DIRECTION('',(-0.,1.,0.));
#74 = ORIENTED_EDGE('',*,*,#75,.F.);
#75 = EDGE_CURVE('',#76,#68,#78,.T.);
#76 = VERTEX_POINT('',#77);
#77 = CARTESIAN_POINT('',(7.,-14.5,2.4));
#78 = LINE('',#79,#80);
#79 = CARTESIAN_POINT('',(-3.5,-14.5,2.4));
#80 = VECTOR('',#81,1.);
#81 = DIRECTION('',(-1.,-0.,0.));
#82 = ORIENTED_EDGE('',*,*,#83,.F.);
#83 = EDGE_CURVE('',#58,#76,#84,.T.);
#84 = LINE('',#85,#86);
#85 = CARTESIAN_POINT('',(7.,-11.75,2.4));
#86 = VECTOR('',#87,1.);
#87 = DIRECTION('',(-0.,1.,0.));
#88 = FACE_BOUND('',#89,.T.);
#89 = EDGE_LOOP('',(#90));
#90 = ORIENTED_EDGE('',*,*,#91,.F.);
#91 = EDGE_CURVE('',#92,#92,#94,.T.);
#92 = VERTEX_POINT('',#93);
#93 = CARTESIAN_POINT('',(-29.7,-1.028703311284E-15,2.4));
#94 = CIRCLE('',#95,4.2);
#95 = AXIS2_PLACEMENT_3D('',#96,#97,#98);
#96 = CARTESIAN_POINT('',(-33.9,0.,2.4));
#97 = DIRECTION('',(0.,0.,1.));
#98 = DIRECTION('',(1.,0.,-0.));
#99 = FACE_BOUND('',#100,.T.);
#100 = EDGE_LOOP('',(#101));
#101 = ORIENTED_EDGE('',*,*,#102,.F.);
#102 = EDGE_CURVE('',#103,#103,#105,.T.);
#103 = VERTEX_POINT('',#104);
#104 = CARTESIAN_POINT('',(38.1,-1.028703311284E-15,2.4));
#105 = CIRCLE('',#106,4.2);
#106 = AXIS2_PLACEMENT_3D('',#107,#108,#109);
#107 = CARTESIAN_POINT('',(33.9,0.,2.4));
#108 = DIRECTION('',(0.,0.,1.));
#109 = DIRECTION('',(1.,0.,-0.));
#110 = PLANE('',#111);
#111 = AXIS2_PLACEMENT_3D('',#112,#113,#114);
#112 = CARTESIAN_POINT('',(0.,0.,2.4));
#113 = DIRECTION('',(0.,0.,1.));
#114 = DIRECTION('',(1.,0.,-0.));
#115 = ADVANCED_FACE('',(#116,#119,#130,#141),#152,.F.);
#116 = FACE_BOUND('',#117,.F.);
#117 = EDGE_LOOP('',(#118));
#118 = ORIENTED_EDGE('',*,*,#38,.T.);
#119 = FACE_BOUND('',#120,.F.);
#120 = EDGE_LOOP('',(#121));
#121 = ORIENTED_EDGE('',*,*,#122,.F.);
#122 = EDGE_CURVE('',#123,#123,#125,.T.);
#123 = VERTEX_POINT('',#124);
#124 = CARTESIAN_POINT('',(-31.8,-5.143516556419E-16,0.));
#125 = CIRCLE('',#126,2.1);
#126 = AXIS2_PLACEMENT_3D('',#127,#128,#129);
#127 = CARTESIAN_POINT('',(-33.9,0.,0.));
#128 = DIRECTION('',(0.,0.,1.));
#129 = DIRECTION('',(1.,0.,-0.));
#130 = FACE_BOUND('',#131,.F.);
#131 = EDGE_LOOP('',(#132));
#132 = ORIENTED_EDGE('',*,*,#133,.F.);
#133 = EDGE_CURVE('',#134,#134,#136,.T.);
#134 = VERTEX_POINT('',#135);
#135 = CARTESIAN_POINT('',(30.2,-7.39686666685E-15,0.));
#136 = CIRCLE('',#137,30.2);
#137 = AXIS2_PLACEMENT_3D('',#138,#139,#140);
#138 = CARTESIAN_POINT('',(0.,0.,0.));
#139 = DIRECTION('',(0.,0.,1.));
#140 = DIRECTION('',(1.,0.,-0.));
#141 = FACE_BOUND('',#142,.F.);
#142 = EDGE_LOOP('',(#143));
#143 = ORIENTED_EDGE('',*,*,#144,.F.);
#144 = EDGE_CURVE('',#145,#145,#147,.T.);
#145 = VERTEX_POINT('',#146);
#146 = CARTESIAN_POINT('',(36.,-5.143516556419E-16,0.));
#147 = CIRCLE('',#148,2.1);
#148 = AXIS2_PLACEMENT_3D('',#149,#150,#151);
#149 = CARTESIAN_POINT('',(33.9,0.,0.));
#150 = DIRECTION('',(0.,0.,1.));
#151 = DIRECTION('',(1.,0.,-0.));
#152 = PLANE('',#153);
#153 = AXIS2_PLACEMENT_3D('',#154,#155,#156);
#154 = CARTESIAN_POINT('',(0.,0.,0.));
#155 = DIRECTION('',(0.,0.,1.));
#156 = DIRECTION('',(1.,0.,-0.));
#157 = ADVANCED_FACE('',(#158),#183,.T.);
#158 = FACE_BOUND('',#159,.T.);
#159 = EDGE_LOOP('',(#160,#168,#176,#182));
#160 = ORIENTED_EDGE('',*,*,#161,.F.);
#161 = EDGE_CURVE('',#162,#58,#164,.T.);
#162 = VERTEX_POINT('',#163);
#163 = CARTESIAN_POINT('',(7.,-23.5,0.));
#164 = LINE('',#165,#166);
#165 = CARTESIAN_POINT('',(7.,-23.5,-1.));
#166 = VECTOR('',#167,1.);
#167 = DIRECTION('',(0.,0.,1.));
#168 = ORIENTED_EDGE('',*,*,#169,.T.);
#169 = EDGE_CURVE('',#162,#170,#172,.T.);
#170 = VERTEX_POINT('',#171);
#171 = CARTESIAN_POINT('',(-7.,-23.5,0.));
#172 = LINE('',#173,#174);
#173 = CARTESIAN_POINT('',(-3.5,-23.5,0.));
#174 = VECTOR('',#175,1.);
#175 = DIRECTION('',(-1.,-0.,0.));
#176 = ORIENTED_EDGE('',*,*,#177,.T.);
#177 = EDGE_CURVE('',#170,#60,#178,.T.);
#178 = LINE('',#179,#180);
#179 = CARTESIAN_POINT('',(-7.,-23.5,-1.));
#180 = VECTOR('',#181,1.);
#181 = DIRECTION('',(0.,0.,1.));
#182 = ORIENTED_EDGE('',*,*,#57,.F.);
#183 = PLANE('',#184);
#184 = AXIS2_PLACEMENT_3D('',#185,#186,#187);
#185 = CARTESIAN_POINT('',(-7.,-23.5,-1.));
#186 = DIRECTION('',(-0.,1.,0.));
#187 = DIRECTION('',(0.,0.,1.));
#188 = ADVANCED_FACE('',(#189),#207,.F.);
#189 = FACE_BOUND('',#190,.F.);
#190 = EDGE_LOOP('',(#191,#192,#200,#206));
#191 = ORIENTED_EDGE('',*,*,#161,.F.);
#192 = ORIENTED_EDGE('',*,*,#193,.T.);
#193 = EDGE_CURVE('',#162,#194,#196,.T.);
#194 = VERTEX_POINT('',#195);
#195 = CARTESIAN_POINT('',(7.,-14.5,0.));
#196 = LINE('',#197,#198);
#197 = CARTESIAN_POINT('',(7.,-11.75,0.));
#198 = VECTOR('',#199,1.);
#199 = DIRECTION('',(-0.,1.,0.));
#200 = ORIENTED_EDGE('',*,*,#201,.T.);
#201 = EDGE_CURVE('',#194,#76,#202,.T.);
#202 = LINE('',#203,#204);
#203 = CARTESIAN_POINT('',(7.,-14.5,-1.));
#204 = VECTOR('',#205,1.);
#205 = DIRECTION('',(0.,0.,1.));
#206 = ORIENTED_EDGE('',*,*,#83,.F.);
#207 = PLANE('',#208);
#208 = AXIS2_PLACEMENT_3D('',#209,#210,#211);
#209 = CARTESIAN_POINT('',(7.,-23.5,-1.));
#210 = DIRECTION('',(1.,0.,-0.));
#211 = DIRECTION('',(0.,0.,1.));
#212 = ADVANCED_FACE('',(#213),#231,.T.);
#213 = FACE_BOUND('',#214,.T.);
#214 = EDGE_LOOP('',(#215,#216,#224,#230));
#215 = ORIENTED_EDGE('',*,*,#177,.F.);
#216 = ORIENTED_EDGE('',*,*,#217,.T.);
#217 = EDGE_CURVE('',#170,#218,#220,.T.);
#218 = VERTEX_POINT('',#219);
#219 = CARTESIAN_POINT('',(-7.,-14.5,0.));
#220 = LINE('',#221,#222);
#221 = CARTESIAN_POINT('',(-7.,-11.75,0.));
#222 = VECTOR('',#223,1.);
#223 = DIRECTION('',(-0.,1.,0.));
#224 = ORIENTED_EDGE('',*,*,#225,.T.);
#225 = EDGE_CURVE('',#218,#68,#226,.T.);
#226 = LINE('',#227,#228);
#227 = CARTESIAN_POINT('',(-7.,-14.5,-1.));
#228 = VECTOR('',#229,1.);
#229 = DIRECTION('',(0.,0.,1.));
#230 = ORIENTED_EDGE('',*,*,#67,.F.);
#231 = PLANE('',#232);
#232 = AXIS2_PLACEMENT_3D('',#233,#234,#235);
#233 = CARTESIAN_POINT('',(-7.,-23.5,-1.));
#234 = DIRECTION('',(1.,0.,-0.));
#235 = DIRECTION('',(0.,0.,1.));
#236 = ADVANCED_FACE('',(#237),#248,.F.);
#237 = FACE_BOUND('',#238,.F.);
#238 = EDGE_LOOP('',(#239,#240,#246,#247));
#239 = ORIENTED_EDGE('',*,*,#201,.F.);
#240 = ORIENTED_EDGE('',*,*,#241,.T.);
#241 = EDGE_CURVE('',#194,#218,#242,.T.);
#242 = LINE('',#243,#244);
#243 = CARTESIAN_POINT('',(-3.5,-14.5,0.));
#244 = VECTOR('',#245,1.);
#245 = DIRECTION('',(-1.,-0.,0.));
#246 = ORIENTED_EDGE('',*,*,#225,.T.);
#247 = ORIENTED_EDGE('',*,*,#75,.F.);
#248 = PLANE('',#249);
#249 = AXIS2_PLACEMENT_3D('',#250,#251,#252);
#250 = CARTESIAN_POINT('',(-7.,-14.5,-1.));
#251 = DIRECTION('',(-0.,1.,0.));
#252 = DIRECTION('',(0.,0.,1.));
#253 = ADVANCED_FACE('',(#254),#273,.F.);
#254 = FACE_BOUND('',#255,.F.);
#255 = EDGE_LOOP('',(#256,#257,#265,#272));
#256 = ORIENTED_EDGE('',*,*,#91,.F.);
#257 = ORIENTED_EDGE('',*,*,#258,.F.);
#258 = EDGE_CURVE('',#259,#92,#261,.T.);
#259 = VERTEX_POINT('',#260);
#260 = CARTESIAN_POINT('',(-31.8,-5.143516556419E-16,1.2));
#261 = LINE('',#262,#263);
#262 = CARTESIAN_POINT('',(-31.8,-5.143516556419E-16,1.2));
#263 = VECTOR('',#264,1.);
#264 = DIRECTION('',(0.868243142124,-2.126582369769E-16,0.496138938357)
  );
#265 = ORIENTED_EDGE('',*,*,#266,.T.);
#266 = EDGE_CURVE('',#259,#259,#267,.T.);
#267 = CIRCLE('',#268,2.1);
#268 = AXIS2_PLACEMENT_3D('',#269,#270,#271);
#269 = CARTESIAN_POINT('',(-33.9,0.,1.2));
#270 = DIRECTION('',(0.,0.,1.));
#271 = DIRECTION('',(1.,0.,-0.));
#272 = ORIENTED_EDGE('',*,*,#258,.T.);
#273 = CONICAL_SURFACE('',#274,2.1,1.051650212548);
#274 = AXIS2_PLACEMENT_3D('',#275,#276,#277);
#275 = CARTESIAN_POINT('',(-33.9,0.,1.2));
#276 = DIRECTION('',(0.,0.,1.));
#277 = DIRECTION('',(1.,0.,-0.));
#278 = ADVANCED_FACE('',(#279),#298,.F.);
#279 = FACE_BOUND('',#280,.F.);
#280 = EDGE_LOOP('',(#281,#282,#290,#297));
#281 = ORIENTED_EDGE('',*,*,#102,.F.);
#282 = ORIENTED_EDGE('',*,*,#283,.F.);
#283 = EDGE_CURVE('',#284,#103,#286,.T.);
#284 = VERTEX_POINT('',#285);
#285 = CARTESIAN_POINT('',(36.,-5.143516556419E-16,1.2));
#286 = LINE('',#287,#288);
#287 = CARTESIAN_POINT('',(36.,-5.143516556419E-16,1.2));
#288 = VECTOR('',#289,1.);
#289 = DIRECTION('',(0.868243142124,-2.126582369769E-16,0.496138938357)
  );
#290 = ORIENTED_EDGE('',*,*,#291,.T.);
#291 = EDGE_CURVE('',#284,#284,#292,.T.);
#292 = CIRCLE('',#293,2.1);
#293 = AXIS2_PLACEMENT_3D('',#294,#295,#296);
#294 = CARTESIAN_POINT('',(33.9,0.,1.2));
#295 = DIRECTION('',(0.,0.,1.));
#296 = DIRECTION('',(1.,0.,-0.));
#297 = ORIENTED_EDGE('',*,*,#283,.T.);
#298 = CONICAL_SURFACE('',#299,2.1,1.051650212548);
#299 = AXIS2_PLACEMENT_3D('',#300,#301,#302);
#300 = CARTESIAN_POINT('',(33.9,0.,1.2));
#301 = DIRECTION('',(0.,0.,1.));
#302 = DIRECTION('',(1.,0.,-0.));
#303 = ADVANCED_FACE('',(#304),#315,.F.);
#304 = FACE_BOUND('',#305,.F.);
#305 = EDGE_LOOP('',(#306,#307,#313,#314));
#306 = ORIENTED_EDGE('',*,*,#266,.F.);
#307 = ORIENTED_EDGE('',*,*,#308,.F.);
#308 = EDGE_CURVE('',#123,#259,#309,.T.);
#309 = LINE('',#310,#311);
#310 = CARTESIAN_POINT('',(-31.8,-5.143516556419E-16,-1.));
#311 = VECTOR('',#312,1.);
#312 = DIRECTION('',(0.,0.,1.));
#313 = ORIENTED_EDGE('',*,*,#122,.T.);
#314 = ORIENTED_EDGE('',*,*,#308,.T.);
#315 = CYLINDRICAL_SURFACE('',#316,2.1);
#316 = AXIS2_PLACEMENT_3D('',#317,#318,#319);
#317 = CARTESIAN_POINT('',(-33.9,0.,-1.));
#318 = DIRECTION('',(0.,0.,1.));
#319 = DIRECTION('',(1.,0.,-0.));
#320 = ADVANCED_FACE('',(#321),#340,.T.);
#321 = FACE_BOUND('',#322,.T.);
#322 = EDGE_LOOP('',(#323,#324,#332,#339));
#323 = ORIENTED_EDGE('',*,*,#133,.F.);
#324 = ORIENTED_EDGE('',*,*,#325,.F.);
#325 = EDGE_CURVE('',#326,#134,#328,.T.);
#326 = VERTEX_POINT('',#327);
#327 = CARTESIAN_POINT('',(30.2,-7.39686666685E-15,-4.));
#328 = LINE('',#329,#330);
#329 = CARTESIAN_POINT('',(30.2,-7.39686666685E-15,-4.));
#330 = VECTOR('',#331,1.);
#331 = DIRECTION('',(0.,0.,1.));
#332 = ORIENTED_EDGE('',*,*,#333,.T.);
#333 = EDGE_CURVE('',#326,#326,#334,.T.);
#334 = CIRCLE('',#335,30.2);
#335 = AXIS2_PLACEMENT_3D('',#336,#337,#338);
#336 = CARTESIAN_POINT('',(0.,0.,-4.));
#337 = DIRECTION('',(0.,0.,1.));
#338 = DIRECTION('',(1.,0.,-0.));
#339 = ORIENTED_EDGE('',*,*,#325,.T.);
#340 = CYLINDRICAL_SURFACE('',#341,30.2);
#341 = AXIS2_PLACEMENT_3D('',#342,#343,#344);
#342 = CARTESIAN_POINT('',(0.,0.,-4.));
#343 = DIRECTION('',(0.,0.,1.));
#344 = DIRECTION('',(1.,0.,-0.));
#345 = ADVANCED_FACE('',(#346),#357,.F.);
#346 = FACE_BOUND('',#347,.F.);
#347 = EDGE_LOOP('',(#348,#349,#355,#356));
#348 = ORIENTED_EDGE('',*,*,#291,.F.);
#349 = ORIENTED_EDGE('',*,*,#350,.F.);
#350 = EDGE_CURVE('',#145,#284,#351,.T.);
#351 = LINE('',#352,#353);
#352 = CARTESIAN_POINT('',(36.,-5.143516556419E-16,-1.));
#353 = VECTOR('',#354,1.);
#354 = DIRECTION('',(0.,0.,1.));
#355 = ORIENTED_EDGE('',*,*,#144,.T.);
#356 = ORIENTED_EDGE('',*,*,#350,.T.);
#357 = CYLINDRICAL_SURFACE('',#358,2.1);
#358 = AXIS2_PLACEMENT_3D('',#359,#360,#361);
#359 = CARTESIAN_POINT('',(33.9,0.,-1.));
#360 = DIRECTION('',(0.,0.,1.));
#361 = DIRECTION('',(1.,0.,-0.));
#362 = ADVANCED_FACE('',(#363,#473),#479,.F.);
#363 = FACE_BOUND('',#364,.F.);
#364 = EDGE_LOOP('',(#365,#376,#385,#393,#401,#409,#418,#426,#434,#442,
    #451,#459,#467));
#365 = ORIENTED_EDGE('',*,*,#366,.T.);
#366 = EDGE_CURVE('',#367,#369,#371,.T.);
#367 = VERTEX_POINT('',#368);
#368 = CARTESIAN_POINT('',(2.,-28.93095228297,0.));
#369 = VERTEX_POINT('',#370);
#370 = CARTESIAN_POINT('',(29.,-7.102951435055E-15,0.));
#371 = CIRCLE('',#372,29.);
#372 = AXIS2_PLACEMENT_3D('',#373,#374,#375);
#373 = CARTESIAN_POINT('',(0.,0.,0.));
#374 = DIRECTION('',(0.,0.,1.));
#375 = DIRECTION('',(1.,0.,-0.));
#376 = ORIENTED_EDGE('',*,*,#377,.T.);
#377 = EDGE_CURVE('',#369,#378,#380,.T.);
#378 = VERTEX_POINT('',#379);
#379 = CARTESIAN_POINT('',(26.054939632735,12.73342533392,0.));
#380 = CIRCLE('',#381,29.);
#381 = AXIS2_PLACEMENT_3D('',#382,#383,#384);
#382 = CARTESIAN_POINT('',(0.,0.,0.));
#383 = DIRECTION('',(0.,0.,1.));
#384 = DIRECTION('',(1.,0.,-0.));
#385 = ORIENTED_EDGE('',*,*,#386,.F.);
#386 = EDGE_CURVE('',#387,#378,#389,.T.);
#387 = VERTEX_POINT('',#388);
#388 = CARTESIAN_POINT('',(24.555890982937,11.867949192431,0.));
#389 = LINE('',#390,#391);
#390 = CARTESIAN_POINT('',(24.555890982937,11.867949192431,0.));
#391 = VECTOR('',#392,1.);
#392 = DIRECTION('',(0.866025403784,0.5,0.));
#393 = ORIENTED_EDGE('',*,*,#394,.T.);
#394 = EDGE_CURVE('',#387,#395,#397,.T.);
#395 = VERTEX_POINT('',#396);
#396 = CARTESIAN_POINT('',(22.555890982937,15.332050807569,0.));
#397 = LINE('',#398,#399);
#398 = CARTESIAN_POINT('',(24.555890982937,11.867949192431,0.));
#399 = VECTOR('',#400,1.);
#400 = DIRECTION('',(-0.5,0.866025403784,0.));
#401 = ORIENTED_EDGE('',*,*,#402,.T.);
#402 = EDGE_CURVE('',#395,#403,#405,.T.);
#403 = VERTEX_POINT('',#404);
#404 = CARTESIAN_POINT('',(24.054939632735,16.197526949058,0.));
#405 = LINE('',#406,#407);
#406 = CARTESIAN_POINT('',(22.555890982937,15.332050807569,0.));
#407 = VECTOR('',#408,1.);
#408 = DIRECTION('',(0.866025403784,0.5,0.));
#409 = ORIENTED_EDGE('',*,*,#410,.T.);
#410 = EDGE_CURVE('',#403,#411,#413,.T.);
#411 = VERTEX_POINT('',#412);
#412 = CARTESIAN_POINT('',(-24.05493963273,16.197526949058,0.));
#413 = CIRCLE('',#414,29.);
#414 = AXIS2_PLACEMENT_3D('',#415,#416,#417);
#415 = CARTESIAN_POINT('',(0.,0.,0.));
#416 = DIRECTION('',(0.,0.,1.));
#417 = DIRECTION('',(1.,0.,-0.));
#418 = ORIENTED_EDGE('',*,*,#419,.F.);
#419 = EDGE_CURVE('',#420,#411,#422,.T.);
#420 = VERTEX_POINT('',#421);
#421 = CARTESIAN_POINT('',(-22.55589098293,15.332050807569,0.));
#422 = LINE('',#423,#424);
#423 = CARTESIAN_POINT('',(-22.55589098293,15.332050807569,0.));
#424 = VECTOR('',#425,1.);
#425 = DIRECTION('',(-0.866025403784,0.5,0.));
#426 = ORIENTED_EDGE('',*,*,#427,.T.);
#427 = EDGE_CURVE('',#420,#428,#430,.T.);
#428 = VERTEX_POINT('',#429);
#429 = CARTESIAN_POINT('',(-24.55589098293,11.867949192431,0.));
#430 = LINE('',#431,#432);
#431 = CARTESIAN_POINT('',(-22.55589098293,15.332050807569,0.));
#432 = VECTOR('',#433,1.);
#433 = DIRECTION('',(-0.5,-0.866025403784,0.));
#434 = ORIENTED_EDGE('',*,*,#435,.T.);
#435 = EDGE_CURVE('',#428,#436,#438,.T.);
#436 = VERTEX_POINT('',#437);
#437 = CARTESIAN_POINT('',(-26.05493963273,12.73342533392,0.));
#438 = LINE('',#439,#440);
#439 = CARTESIAN_POINT('',(-24.55589098293,11.867949192431,0.));
#440 = VECTOR('',#441,1.);
#441 = DIRECTION('',(-0.866025403784,0.5,0.));
#442 = ORIENTED_EDGE('',*,*,#443,.T.);
#443 = EDGE_CURVE('',#436,#444,#446,.T.);
#444 = VERTEX_POINT('',#445);
#445 = CARTESIAN_POINT('',(-2.,-28.93095228297,0.));
#446 = CIRCLE('',#447,29.);
#447 = AXIS2_PLACEMENT_3D('',#448,#449,#450);
#448 = CARTESIAN_POINT('',(0.,0.,0.));
#449 = DIRECTION('',(0.,0.,1.));
#450 = DIRECTION('',(1.,0.,-0.));
#451 = ORIENTED_EDGE('',*,*,#452,.F.);
#452 = EDGE_CURVE('',#453,#444,#455,.T.);
#453 = VERTEX_POINT('',#454);
#454 = CARTESIAN_POINT('',(-2.,-27.2,0.));
#455 = LINE('',#456,#457);
#456 = CARTESIAN_POINT('',(-2.,-27.2,0.));
#457 = VECTOR('',#458,1.);
#458 = DIRECTION('',(-2.22044604925E-16,-1.,0.));
#459 = ORIENTED_EDGE('',*,*,#460,.T.);
#460 = EDGE_CURVE('',#453,#461,#463,.T.);
#461 = VERTEX_POINT('',#462);
#462 = CARTESIAN_POINT('',(2.,-27.2,0.));
#463 = LINE('',#464,#465);
#464 = CARTESIAN_POINT('',(-2.,-27.2,0.));
#465 = VECTOR('',#466,1.);
#466 = DIRECTION('',(1.,-2.22044604925E-16,0.));
#467 = ORIENTED_EDGE('',*,*,#468,.T.);
#468 = EDGE_CURVE('',#461,#367,#469,.T.);
#469 = LINE('',#470,#471);
#470 = CARTESIAN_POINT('',(2.,-27.2,0.));
#471 = VECTOR('',#472,1.);
#472 = DIRECTION('',(-2.22044604925E-16,-1.,0.));
#473 = FACE_BOUND('',#474,.F.);
#474 = EDGE_LOOP('',(#475,#476,#477,#478));
#475 = ORIENTED_EDGE('',*,*,#169,.T.);
#476 = ORIENTED_EDGE('',*,*,#217,.T.);
#477 = ORIENTED_EDGE('',*,*,#241,.F.);
#478 = ORIENTED_EDGE('',*,*,#193,.F.);
#479 = PLANE('',#480);
#480 = AXIS2_PLACEMENT_3D('',#481,#482,#483);
#481 = CARTESIAN_POINT('',(0.,0.,0.));
#482 = DIRECTION('',(0.,0.,1.));
#483 = DIRECTION('',(1.,0.,-0.));
#484 = ADVANCED_FACE('',(#485,#488),#598,.F.);
#485 = FACE_BOUND('',#486,.F.);
#486 = EDGE_LOOP('',(#487));
#487 = ORIENTED_EDGE('',*,*,#333,.T.);
#488 = FACE_BOUND('',#489,.F.);
#489 = EDGE_LOOP('',(#490,#501,#510,#518,#526,#534,#543,#551,#559,#567,
    #576,#584,#592));
#490 = ORIENTED_EDGE('',*,*,#491,.F.);
#491 = EDGE_CURVE('',#492,#494,#496,.T.);
#492 = VERTEX_POINT('',#493);
#493 = CARTESIAN_POINT('',(29.,-7.102951435055E-15,-4.));
#494 = VERTEX_POINT('',#495);
#495 = CARTESIAN_POINT('',(26.054939632735,12.733425333921,-4.));
#496 = CIRCLE('',#497,29.);
#497 = AXIS2_PLACEMENT_3D('',#498,#499,#500);
#498 = CARTESIAN_POINT('',(0.,0.,-4.));
#499 = DIRECTION('',(0.,0.,1.));
#500 = DIRECTION('',(1.,0.,-0.));
#501 = ORIENTED_EDGE('',*,*,#502,.F.);
#502 = EDGE_CURVE('',#503,#492,#505,.T.);
#503 = VERTEX_POINT('',#504);
#504 = CARTESIAN_POINT('',(2.,-28.93095228297,-4.));
#505 = CIRCLE('',#506,29.);
#506 = AXIS2_PLACEMENT_3D('',#507,#508,#509);
#507 = CARTESIAN_POINT('',(0.,0.,-4.));
#508 = DIRECTION('',(0.,0.,1.));
#509 = DIRECTION('',(1.,0.,-0.));
#510 = ORIENTED_EDGE('',*,*,#511,.F.);
#511 = EDGE_CURVE('',#512,#503,#514,.T.);
#512 = VERTEX_POINT('',#513);
#513 = CARTESIAN_POINT('',(2.,-29.6,-4.));
#514 = LINE('',#515,#516);
#515 = CARTESIAN_POINT('',(2.,-13.6,-4.));
#516 = VECTOR('',#517,1.);
#517 = DIRECTION('',(2.22044604925E-16,1.,-0.));
#518 = ORIENTED_EDGE('',*,*,#519,.F.);
#519 = EDGE_CURVE('',#520,#512,#522,.T.);
#520 = VERTEX_POINT('',#521);
#521 = CARTESIAN_POINT('',(-2.,-29.6,-4.));
#522 = LINE('',#523,#524);
#523 = CARTESIAN_POINT('',(-1.,-29.6,-4.));
#524 = VECTOR('',#525,1.);
#525 = DIRECTION('',(1.,-2.22044604925E-16,0.));
#526 = ORIENTED_EDGE('',*,*,#527,.T.);
#527 = EDGE_CURVE('',#520,#528,#530,.T.);
#528 = VERTEX_POINT('',#529);
#529 = CARTESIAN_POINT('',(-2.,-28.93095228297,-4.));
#530 = LINE('',#531,#532);
#531 = CARTESIAN_POINT('',(-2.,-13.6,-4.));
#532 = VECTOR('',#533,1.);
#533 = DIRECTION('',(2.22044604925E-16,1.,-0.));
#534 = ORIENTED_EDGE('',*,*,#535,.F.);
#535 = EDGE_CURVE('',#536,#528,#538,.T.);
#536 = VERTEX_POINT('',#537);
#537 = CARTESIAN_POINT('',(-26.05493963273,12.733425333921,-4.));
#538 = CIRCLE('',#539,29.);
#539 = AXIS2_PLACEMENT_3D('',#540,#541,#542);
#540 = CARTESIAN_POINT('',(0.,0.,-4.));
#541 = DIRECTION('',(0.,0.,1.));
#542 = DIRECTION('',(1.,0.,-0.));
#543 = ORIENTED_EDGE('',*,*,#544,.F.);
#544 = EDGE_CURVE('',#545,#536,#547,.T.);
#545 = VERTEX_POINT('',#546);
#546 = CARTESIAN_POINT('',(-26.63435195201,13.067949192431,-4.));
#547 = LINE('',#548,#549);
#548 = CARTESIAN_POINT('',(-12.77794549146,5.067949192431,-4.));
#549 = VECTOR('',#550,1.);
#550 = DIRECTION('',(0.866025403784,-0.5,0.));
#551 = ORIENTED_EDGE('',*,*,#552,.F.);
#552 = EDGE_CURVE('',#553,#545,#555,.T.);
#553 = VERTEX_POINT('',#554);
#554 = CARTESIAN_POINT('',(-24.63435195201,16.532050807569,-4.));
#555 = LINE('',#556,#557);
#556 = CARTESIAN_POINT('',(-25.13435195201,15.666025403784,-4.));
#557 = VECTOR('',#558,1.);
#558 = DIRECTION('',(-0.5,-0.866025403784,0.));
#559 = ORIENTED_EDGE('',*,*,#560,.T.);
#560 = EDGE_CURVE('',#553,#561,#563,.T.);
#561 = VERTEX_POINT('',#562);
#562 = CARTESIAN_POINT('',(-24.05493963273,16.197526949058,-4.));
#563 = LINE('',#564,#565);
#564 = CARTESIAN_POINT('',(-10.77794549146,8.532050807569,-4.));
#565 = VECTOR('',#566,1.);
#566 = DIRECTION('',(0.866025403784,-0.5,0.));
#567 = ORIENTED_EDGE('',*,*,#568,.F.);
#568 = EDGE_CURVE('',#569,#561,#571,.T.);
#569 = VERTEX_POINT('',#570);
#570 = CARTESIAN_POINT('',(24.054939632735,16.197526949058,-4.));
#571 = CIRCLE('',#572,29.);
#572 = AXIS2_PLACEMENT_3D('',#573,#574,#575);
#573 = CARTESIAN_POINT('',(0.,0.,-4.));
#574 = DIRECTION('',(0.,0.,1.));
#575 = DIRECTION('',(1.,0.,-0.));
#576 = ORIENTED_EDGE('',*,*,#577,.F.);
#577 = EDGE_CURVE('',#578,#569,#580,.T.);
#578 = VERTEX_POINT('',#579);
#579 = CARTESIAN_POINT('',(24.634351952019,16.532050807569,-4.));
#580 = LINE('',#581,#582);
#581 = CARTESIAN_POINT('',(10.777945491468,8.532050807569,-4.));
#582 = VECTOR('',#583,1.);
#583 = DIRECTION('',(-0.866025403784,-0.5,0.));
#584 = ORIENTED_EDGE('',*,*,#585,.F.);
#585 = EDGE_CURVE('',#586,#578,#588,.T.);
#586 = VERTEX_POINT('',#587);
#587 = CARTESIAN_POINT('',(26.634351952019,13.067949192431,-4.));
#588 = LINE('',#589,#590);
#589 = CARTESIAN_POINT('',(26.134351952019,13.933974596216,-4.));
#590 = VECTOR('',#591,1.);
#591 = DIRECTION('',(-0.5,0.866025403784,0.));
#592 = ORIENTED_EDGE('',*,*,#593,.T.);
#593 = EDGE_CURVE('',#586,#494,#594,.T.);
#594 = LINE('',#595,#596);
#595 = CARTESIAN_POINT('',(12.777945491468,5.067949192431,-4.));
#596 = VECTOR('',#597,1.);
#597 = DIRECTION('',(-0.866025403784,-0.5,0.));
#598 = PLANE('',#599);
#599 = AXIS2_PLACEMENT_3D('',#600,#601,#602);
#600 = CARTESIAN_POINT('',(0.,0.,-4.));
#601 = DIRECTION('',(0.,0.,1.));
#602 = DIRECTION('',(1.,0.,-0.));
#603 = ADVANCED_FACE('',(#604),#636,.T.);
#604 = FACE_BOUND('',#605,.T.);
#605 = EDGE_LOOP('',(#606,#614,#622,#628,#629,#635));
#606 = ORIENTED_EDGE('',*,*,#607,.F.);
#607 = EDGE_CURVE('',#608,#512,#610,.T.);
#608 = VERTEX_POINT('',#609);
#609 = CARTESIAN_POINT('',(2.,-29.6,-12.2));
#610 = LINE('',#611,#612);
#611 = CARTESIAN_POINT('',(2.,-29.6,-12.2));
#612 = VECTOR('',#613,1.);
#613 = DIRECTION('',(0.,0.,1.));
#614 = ORIENTED_EDGE('',*,*,#615,.F.);
#615 = EDGE_CURVE('',#616,#608,#618,.T.);
#616 = VERTEX_POINT('',#617);
#617 = CARTESIAN_POINT('',(2.,-27.2,-12.2));
#618 = LINE('',#619,#620);
#619 = CARTESIAN_POINT('',(2.,-27.2,-12.2));
#620 = VECTOR('',#621,1.);
#621 = DIRECTION('',(-2.22044604925E-16,-1.,0.));
#622 = ORIENTED_EDGE('',*,*,#623,.T.);
#623 = EDGE_CURVE('',#616,#461,#624,.T.);
#624 = LINE('',#625,#626);
#625 = CARTESIAN_POINT('',(2.,-27.2,-12.2));
#626 = VECTOR('',#627,1.);
#627 = DIRECTION('',(0.,0.,1.));
#628 = ORIENTED_EDGE('',*,*,#468,.T.);
#629 = ORIENTED_EDGE('',*,*,#630,.F.);
#630 = EDGE_CURVE('',#503,#367,#631,.T.);
#631 = LINE('',#632,#633);
#632 = CARTESIAN_POINT('',(2.,-28.93095228297,-4.5));
#633 = VECTOR('',#634,1.);
#634 = DIRECTION('',(0.,0.,1.));
#635 = ORIENTED_EDGE('',*,*,#511,.F.);
#636 = PLANE('',#637);
#637 = AXIS2_PLACEMENT_3D('',#638,#639,#640);
#638 = CARTESIAN_POINT('',(2.,-27.2,-12.2));
#639 = DIRECTION('',(1.,-2.22044604925E-16,0.));
#640 = DIRECTION('',(0.,0.,1.));
#641 = ADVANCED_FACE('',(#642),#660,.F.);
#642 = FACE_BOUND('',#643,.F.);
#643 = EDGE_LOOP('',(#644,#652,#658,#659));
#644 = ORIENTED_EDGE('',*,*,#645,.F.);
#645 = EDGE_CURVE('',#646,#453,#648,.T.);
#646 = VERTEX_POINT('',#647);
#647 = CARTESIAN_POINT('',(-2.,-27.2,-12.2));
#648 = LINE('',#649,#650);
#649 = CARTESIAN_POINT('',(-2.,-27.2,-12.2));
#650 = VECTOR('',#651,1.);
#651 = DIRECTION('',(0.,0.,1.));
#652 = ORIENTED_EDGE('',*,*,#653,.T.);
#653 = EDGE_CURVE('',#646,#616,#654,.T.);
#654 = LINE('',#655,#656);
#655 = CARTESIAN_POINT('',(-2.,-27.2,-12.2));
#656 = VECTOR('',#657,1.);
#657 = DIRECTION('',(1.,-2.22044604925E-16,0.));
#658 = ORIENTED_EDGE('',*,*,#623,.T.);
#659 = ORIENTED_EDGE('',*,*,#460,.F.);
#660 = PLANE('',#661);
#661 = AXIS2_PLACEMENT_3D('',#662,#663,#664);
#662 = CARTESIAN_POINT('',(-2.,-27.2,-12.2));
#663 = DIRECTION('',(-2.22044604925E-16,-1.,0.));
#664 = DIRECTION('',(0.,0.,1.));
#665 = ADVANCED_FACE('',(#666),#691,.F.);
#666 = FACE_BOUND('',#667,.F.);
#667 = EDGE_LOOP('',(#668,#676,#682,#683,#684,#690));
#668 = ORIENTED_EDGE('',*,*,#669,.F.);
#669 = EDGE_CURVE('',#670,#520,#672,.T.);
#670 = VERTEX_POINT('',#671);
#671 = CARTESIAN_POINT('',(-2.,-29.6,-12.2));
#672 = LINE('',#673,#674);
#673 = CARTESIAN_POINT('',(-2.,-29.6,-12.2));
#674 = VECTOR('',#675,1.);
#675 = DIRECTION('',(0.,0.,1.));
#676 = ORIENTED_EDGE('',*,*,#677,.F.);
#677 = EDGE_CURVE('',#646,#670,#678,.T.);
#678 = LINE('',#679,#680);
#679 = CARTESIAN_POINT('',(-2.,-27.2,-12.2));
#680 = VECTOR('',#681,1.);
#681 = DIRECTION('',(-2.22044604925E-16,-1.,0.));
#682 = ORIENTED_EDGE('',*,*,#645,.T.);
#683 = ORIENTED_EDGE('',*,*,#452,.T.);
#684 = ORIENTED_EDGE('',*,*,#685,.F.);
#685 = EDGE_CURVE('',#528,#444,#686,.T.);
#686 = LINE('',#687,#688);
#687 = CARTESIAN_POINT('',(-2.,-28.93095228297,-4.5));
#688 = VECTOR('',#689,1.);
#689 = DIRECTION('',(0.,0.,1.));
#690 = ORIENTED_EDGE('',*,*,#527,.F.);
#691 = PLANE('',#692);
#692 = AXIS2_PLACEMENT_3D('',#693,#694,#695);
#693 = CARTESIAN_POINT('',(-2.,-27.2,-12.2));
#694 = DIRECTION('',(1.,-2.22044604925E-16,0.));
#695 = DIRECTION('',(0.,0.,1.));
#696 = ADVANCED_FACE('',(#697),#708,.F.);
#697 = FACE_BOUND('',#698,.F.);
#698 = EDGE_LOOP('',(#699,#705,#706,#707));
#699 = ORIENTED_EDGE('',*,*,#700,.F.);
#700 = EDGE_CURVE('',#536,#436,#701,.T.);
#701 = LINE('',#702,#703);
#702 = CARTESIAN_POINT('',(-26.05493963273,12.733425333921,-4.5));
#703 = VECTOR('',#704,1.);
#704 = DIRECTION('',(0.,0.,1.));
#705 = ORIENTED_EDGE('',*,*,#535,.T.);
#706 = ORIENTED_EDGE('',*,*,#685,.T.);
#707 = ORIENTED_EDGE('',*,*,#443,.F.);
#708 = CYLINDRICAL_SURFACE('',#709,29.);
#709 = AXIS2_PLACEMENT_3D('',#710,#711,#712);
#710 = CARTESIAN_POINT('',(0.,0.,-4.5));
#711 = DIRECTION('',(0.,0.,1.));
#712 = DIRECTION('',(1.,0.,-0.));
#713 = ADVANCED_FACE('',(#714),#741,.T.);
#714 = FACE_BOUND('',#715,.T.);
#715 = EDGE_LOOP('',(#716,#724,#732,#738,#739,#740));
#716 = ORIENTED_EDGE('',*,*,#717,.F.);
#717 = EDGE_CURVE('',#718,#545,#720,.T.);
#718 = VERTEX_POINT('',#719);
#719 = CARTESIAN_POINT('',(-26.63435195201,13.067949192431,-12.2));
#720 = LINE('',#721,#722);
#721 = CARTESIAN_POINT('',(-26.63435195201,13.067949192431,-12.2));
#722 = VECTOR('',#723,1.);
#723 = DIRECTION('',(0.,0.,1.));
#724 = ORIENTED_EDGE('',*,*,#725,.F.);
#725 = EDGE_CURVE('',#726,#718,#728,.T.);
#726 = VERTEX_POINT('',#727);
#727 = CARTESIAN_POINT('',(-24.55589098293,11.867949192431,-12.2));
#728 = LINE('',#729,#730);
#729 = CARTESIAN_POINT('',(-24.55589098293,11.867949192431,-12.2));
#730 = VECTOR('',#731,1.);
#731 = DIRECTION('',(-0.866025403784,0.5,0.));
#732 = ORIENTED_EDGE('',*,*,#733,.T.);
#733 = EDGE_CURVE('',#726,#428,#734,.T.);
#734 = LINE('',#735,#736);
#735 = CARTESIAN_POINT('',(-24.55589098293,11.867949192431,-12.2));
#736 = VECTOR('',#737,1.);
#737 = DIRECTION('',(0.,0.,1.));
#738 = ORIENTED_EDGE('',*,*,#435,.T.);
#739 = ORIENTED_EDGE('',*,*,#700,.F.);
#740 = ORIENTED_EDGE('',*,*,#544,.F.);
#741 = PLANE('',#742);
#742 = AXIS2_PLACEMENT_3D('',#743,#744,#745);
#743 = CARTESIAN_POINT('',(-24.55589098293,11.867949192431,-12.2));
#744 = DIRECTION('',(-0.5,-0.866025403784,0.));
#745 = DIRECTION('',(0.,0.,1.));
#746 = ADVANCED_FACE('',(#747),#765,.F.);
#747 = FACE_BOUND('',#748,.F.);
#748 = EDGE_LOOP('',(#749,#757,#763,#764));
#749 = ORIENTED_EDGE('',*,*,#750,.F.);
#750 = EDGE_CURVE('',#751,#420,#753,.T.);
#751 = VERTEX_POINT('',#752);
#752 = CARTESIAN_POINT('',(-22.55589098293,15.332050807569,-12.2));
#753 = LINE('',#754,#755);
#754 = CARTESIAN_POINT('',(-22.55589098293,15.332050807569,-12.2));
#755 = VECTOR('',#756,1.);
#756 = DIRECTION('',(0.,0.,1.));
#757 = ORIENTED_EDGE('',*,*,#758,.T.);
#758 = EDGE_CURVE('',#751,#726,#759,.T.);
#759 = LINE('',#760,#761);
#760 = CARTESIAN_POINT('',(-22.55589098293,15.332050807569,-12.2));
#761 = VECTOR('',#762,1.);
#762 = DIRECTION('',(-0.5,-0.866025403784,0.));
#763 = ORIENTED_EDGE('',*,*,#733,.T.);
#764 = ORIENTED_EDGE('',*,*,#427,.F.);
#765 = PLANE('',#766);
#766 = AXIS2_PLACEMENT_3D('',#767,#768,#769);
#767 = CARTESIAN_POINT('',(-22.55589098293,15.332050807569,-12.2));
#768 = DIRECTION('',(-0.866025403784,0.5,0.));
#769 = DIRECTION('',(0.,0.,1.));
#770 = ADVANCED_FACE('',(#771),#796,.F.);
#771 = FACE_BOUND('',#772,.F.);
#772 = EDGE_LOOP('',(#773,#781,#787,#788,#789,#795));
#773 = ORIENTED_EDGE('',*,*,#774,.F.);
#774 = EDGE_CURVE('',#775,#553,#777,.T.);
#775 = VERTEX_POINT('',#776);
#776 = CARTESIAN_POINT('',(-24.63435195201,16.532050807569,-12.2));
#777 = LINE('',#778,#779);
#778 = CARTESIAN_POINT('',(-24.63435195201,16.532050807569,-12.2));
#779 = VECTOR('',#780,1.);
#780 = DIRECTION('',(0.,0.,1.));
#781 = ORIENTED_EDGE('',*,*,#782,.F.);
#782 = EDGE_CURVE('',#751,#775,#783,.T.);
#783 = LINE('',#784,#785);
#784 = CARTESIAN_POINT('',(-22.55589098293,15.332050807569,-12.2));
#785 = VECTOR('',#786,1.);
#786 = DIRECTION('',(-0.866025403784,0.5,0.));
#787 = ORIENTED_EDGE('',*,*,#750,.T.);
#788 = ORIENTED_EDGE('',*,*,#419,.T.);
#789 = ORIENTED_EDGE('',*,*,#790,.F.);
#790 = EDGE_CURVE('',#561,#411,#791,.T.);
#791 = LINE('',#792,#793);
#792 = CARTESIAN_POINT('',(-24.05493963273,16.197526949058,-4.5));
#793 = VECTOR('',#794,1.);
#794 = DIRECTION('',(0.,0.,1.));
#795 = ORIENTED_EDGE('',*,*,#560,.F.);
#796 = PLANE('',#797);
#797 = AXIS2_PLACEMENT_3D('',#798,#799,#800);
#798 = CARTESIAN_POINT('',(-22.55589098293,15.332050807569,-12.2));
#799 = DIRECTION('',(-0.5,-0.866025403784,0.));
#800 = DIRECTION('',(0.,0.,1.));
#801 = ADVANCED_FACE('',(#802),#813,.F.);
#802 = FACE_BOUND('',#803,.F.);
#803 = EDGE_LOOP('',(#804,#805,#806,#807));
#804 = ORIENTED_EDGE('',*,*,#568,.T.);
#805 = ORIENTED_EDGE('',*,*,#790,.T.);
#806 = ORIENTED_EDGE('',*,*,#410,.F.);
#807 = ORIENTED_EDGE('',*,*,#808,.F.);
#808 = EDGE_CURVE('',#569,#403,#809,.T.);
#809 = LINE('',#810,#811);
#810 = CARTESIAN_POINT('',(24.054939632735,16.197526949058,-4.5));
#811 = VECTOR('',#812,1.);
#812 = DIRECTION('',(0.,0.,1.));
#813 = CYLINDRICAL_SURFACE('',#814,29.);
#814 = AXIS2_PLACEMENT_3D('',#815,#816,#817);
#815 = CARTESIAN_POINT('',(0.,0.,-4.5));
#816 = DIRECTION('',(0.,0.,1.));
#817 = DIRECTION('',(1.,0.,-0.));
#818 = ADVANCED_FACE('',(#819),#846,.T.);
#819 = FACE_BOUND('',#820,.T.);
#820 = EDGE_LOOP('',(#821,#829,#837,#843,#844,#845));
#821 = ORIENTED_EDGE('',*,*,#822,.F.);
#822 = EDGE_CURVE('',#823,#578,#825,.T.);
#823 = VERTEX_POINT('',#824);
#824 = CARTESIAN_POINT('',(24.634351952019,16.532050807569,-12.2));
#825 = LINE('',#826,#827);
#826 = CARTESIAN_POINT('',(24.634351952019,16.532050807569,-12.2));
#827 = VECTOR('',#828,1.);
#828 = DIRECTION('',(0.,0.,1.));
#829 = ORIENTED_EDGE('',*,*,#830,.F.);
#830 = EDGE_CURVE('',#831,#823,#833,.T.);
#831 = VERTEX_POINT('',#832);
#832 = CARTESIAN_POINT('',(22.555890982937,15.332050807569,-12.2));
#833 = LINE('',#834,#835);
#834 = CARTESIAN_POINT('',(22.555890982937,15.332050807569,-12.2));
#835 = VECTOR('',#836,1.);
#836 = DIRECTION('',(0.866025403784,0.5,0.));
#837 = ORIENTED_EDGE('',*,*,#838,.T.);
#838 = EDGE_CURVE('',#831,#395,#839,.T.);
#839 = LINE('',#840,#841);
#840 = CARTESIAN_POINT('',(22.555890982937,15.332050807569,-12.2));
#841 = VECTOR('',#842,1.);
#842 = DIRECTION('',(0.,0.,1.));
#843 = ORIENTED_EDGE('',*,*,#402,.T.);
#844 = ORIENTED_EDGE('',*,*,#808,.F.);
#845 = ORIENTED_EDGE('',*,*,#577,.F.);
#846 = PLANE('',#847);
#847 = AXIS2_PLACEMENT_3D('',#848,#849,#850);
#848 = CARTESIAN_POINT('',(22.555890982937,15.332050807569,-12.2));
#849 = DIRECTION('',(-0.5,0.866025403784,0.));
#850 = DIRECTION('',(0.,0.,1.));
#851 = ADVANCED_FACE('',(#852),#870,.F.);
#852 = FACE_BOUND('',#853,.F.);
#853 = EDGE_LOOP('',(#854,#862,#868,#869));
#854 = ORIENTED_EDGE('',*,*,#855,.F.);
#855 = EDGE_CURVE('',#856,#387,#858,.T.);
#856 = VERTEX_POINT('',#857);
#857 = CARTESIAN_POINT('',(24.555890982937,11.867949192431,-12.2));
#858 = LINE('',#859,#860);
#859 = CARTESIAN_POINT('',(24.555890982937,11.867949192431,-12.2));
#860 = VECTOR('',#861,1.);
#861 = DIRECTION('',(0.,0.,1.));
#862 = ORIENTED_EDGE('',*,*,#863,.T.);
#863 = EDGE_CURVE('',#856,#831,#864,.T.);
#864 = LINE('',#865,#866);
#865 = CARTESIAN_POINT('',(24.555890982937,11.867949192431,-12.2));
#866 = VECTOR('',#867,1.);
#867 = DIRECTION('',(-0.5,0.866025403784,0.));
#868 = ORIENTED_EDGE('',*,*,#838,.T.);
#869 = ORIENTED_EDGE('',*,*,#394,.F.);
#870 = PLANE('',#871);
#871 = AXIS2_PLACEMENT_3D('',#872,#873,#874);
#872 = CARTESIAN_POINT('',(24.555890982937,11.867949192431,-12.2));
#873 = DIRECTION('',(0.866025403784,0.5,0.));
#874 = DIRECTION('',(0.,0.,1.));
#875 = ADVANCED_FACE('',(#876),#901,.F.);
#876 = FACE_BOUND('',#877,.F.);
#877 = EDGE_LOOP('',(#878,#886,#892,#893,#894,#900));
#878 = ORIENTED_EDGE('',*,*,#879,.F.);
#879 = EDGE_CURVE('',#880,#586,#882,.T.);
#880 = VERTEX_POINT('',#881);
#881 = CARTESIAN_POINT('',(26.634351952019,13.067949192431,-12.2));
#882 = LINE('',#883,#884);
#883 = CARTESIAN_POINT('',(26.634351952019,13.067949192431,-12.2));
#884 = VECTOR('',#885,1.);
#885 = DIRECTION('',(0.,0.,1.));
#886 = ORIENTED_EDGE('',*,*,#887,.F.);
#887 = EDGE_CURVE('',#856,#880,#888,.T.);
#888 = LINE('',#889,#890);
#889 = CARTESIAN_POINT('',(24.555890982937,11.867949192431,-12.2));
#890 = VECTOR('',#891,1.);
#891 = DIRECTION('',(0.866025403784,0.5,0.));
#892 = ORIENTED_EDGE('',*,*,#855,.T.);
#893 = ORIENTED_EDGE('',*,*,#386,.T.);
#894 = ORIENTED_EDGE('',*,*,#895,.F.);
#895 = EDGE_CURVE('',#494,#378,#896,.T.);
#896 = LINE('',#897,#898);
#897 = CARTESIAN_POINT('',(26.054939632735,12.733425333921,-4.5));
#898 = VECTOR('',#899,1.);
#899 = DIRECTION('',(0.,0.,1.));
#900 = ORIENTED_EDGE('',*,*,#593,.F.);
#901 = PLANE('',#902);
#902 = AXIS2_PLACEMENT_3D('',#903,#904,#905);
#903 = CARTESIAN_POINT('',(24.555890982937,11.867949192431,-12.2));
#904 = DIRECTION('',(-0.5,0.866025403784,0.));
#905 = DIRECTION('',(0.,0.,1.));
#906 = ADVANCED_FACE('',(#907),#918,.T.);
#907 = FACE_BOUND('',#908,.T.);
#908 = EDGE_LOOP('',(#909,#910,#916,#917));
#909 = ORIENTED_EDGE('',*,*,#879,.F.);
#910 = ORIENTED_EDGE('',*,*,#911,.T.);
#911 = EDGE_CURVE('',#880,#823,#912,.T.);
#912 = LINE('',#913,#914);
#913 = CARTESIAN_POINT('',(26.634351952019,13.067949192431,-12.2));
#914 = VECTOR('',#915,1.);
#915 = DIRECTION('',(-0.5,0.866025403784,0.));
#916 = ORIENTED_EDGE('',*,*,#822,.T.);
#917 = ORIENTED_EDGE('',*,*,#585,.F.);
#918 = PLANE('',#919);
#919 = AXIS2_PLACEMENT_3D('',#920,#921,#922);
#920 = CARTESIAN_POINT('',(26.634351952019,13.067949192431,-12.2));
#921 = DIRECTION('',(0.866025403784,0.5,0.));
#922 = DIRECTION('',(0.,0.,1.));
#923 = ADVANCED_FACE('',(#924),#935,.T.);
#924 = FACE_BOUND('',#925,.T.);
#925 = EDGE_LOOP('',(#926,#927,#933,#934));
#926 = ORIENTED_EDGE('',*,*,#774,.F.);
#927 = ORIENTED_EDGE('',*,*,#928,.T.);
#928 = EDGE_CURVE('',#775,#718,#929,.T.);
#929 = LINE('',#930,#931);
#930 = CARTESIAN_POINT('',(-24.63435195201,16.532050807569,-12.2));
#931 = VECTOR('',#932,1.);
#932 = DIRECTION('',(-0.5,-0.866025403784,0.));
#933 = ORIENTED_EDGE('',*,*,#717,.T.);
#934 = ORIENTED_EDGE('',*,*,#552,.F.);
#935 = PLANE('',#936);
#936 = AXIS2_PLACEMENT_3D('',#937,#938,#939);
#937 = CARTESIAN_POINT('',(-24.63435195201,16.532050807569,-12.2));
#938 = DIRECTION('',(-0.866025403784,0.5,0.));
#939 = DIRECTION('',(0.,0.,1.));
#940 = ADVANCED_FACE('',(#941),#952,.T.);
#941 = FACE_BOUND('',#942,.T.);
#942 = EDGE_LOOP('',(#943,#944,#950,#951));
#943 = ORIENTED_EDGE('',*,*,#669,.F.);
#944 = ORIENTED_EDGE('',*,*,#945,.T.);
#945 = EDGE_CURVE('',#670,#608,#946,.T.);
#946 = LINE('',#947,#948);
#947 = CARTESIAN_POINT('',(-2.,-29.6,-12.2));
#948 = VECTOR('',#949,1.);
#949 = DIRECTION('',(1.,-2.22044604925E-16,0.));
#950 = ORIENTED_EDGE('',*,*,#607,.T.);
#951 = ORIENTED_EDGE('',*,*,#519,.F.);
#952 = PLANE('',#953);
#953 = AXIS2_PLACEMENT_3D('',#954,#955,#956);
#954 = CARTESIAN_POINT('',(-2.,-29.6,-12.2));
#955 = DIRECTION('',(-2.22044604925E-16,-1.,0.));
#956 = DIRECTION('',(0.,0.,1.));
#957 = ADVANCED_FACE('',(#958),#964,.F.);
#958 = FACE_BOUND('',#959,.F.);
#959 = EDGE_LOOP('',(#960,#961,#962,#963));
#960 = ORIENTED_EDGE('',*,*,#653,.F.);
#961 = ORIENTED_EDGE('',*,*,#677,.T.);
#962 = ORIENTED_EDGE('',*,*,#945,.T.);
#963 = ORIENTED_EDGE('',*,*,#615,.F.);
#964 = PLANE('',#965);
#965 = AXIS2_PLACEMENT_3D('',#966,#967,#968);
#966 = CARTESIAN_POINT('',(-2.,-27.2,-12.2));
#967 = DIRECTION('',(0.,0.,1.));
#968 = DIRECTION('',(-2.22044604925E-16,-1.,0.));
#969 = ADVANCED_FACE('',(#970),#976,.F.);
#970 = FACE_BOUND('',#971,.F.);
#971 = EDGE_LOOP('',(#972,#973,#974,#975));
#972 = ORIENTED_EDGE('',*,*,#758,.F.);
#973 = ORIENTED_EDGE('',*,*,#782,.T.);
#974 = ORIENTED_EDGE('',*,*,#928,.T.);
#975 = ORIENTED_EDGE('',*,*,#725,.F.);
#976 = PLANE('',#977);
#977 = AXIS2_PLACEMENT_3D('',#978,#979,#980);
#978 = CARTESIAN_POINT('',(-22.55589098293,15.332050807569,-12.2));
#979 = DIRECTION('',(0.,0.,1.));
#980 = DIRECTION('',(-0.866025403784,0.5,0.));
#981 = ADVANCED_FACE('',(#982),#988,.F.);
#982 = FACE_BOUND('',#983,.F.);
#983 = EDGE_LOOP('',(#984,#985,#986,#987));
#984 = ORIENTED_EDGE('',*,*,#863,.F.);
#985 = ORIENTED_EDGE('',*,*,#887,.T.);
#986 = ORIENTED_EDGE('',*,*,#911,.T.);
#987 = ORIENTED_EDGE('',*,*,#830,.F.);
#988 = PLANE('',#989);
#989 = AXIS2_PLACEMENT_3D('',#990,#991,#992);
#990 = CARTESIAN_POINT('',(24.555890982937,11.867949192431,-12.2));
#991 = DIRECTION('',(0.,0.,1.));
#992 = DIRECTION('',(0.866025403784,0.5,0.));
#993 = ADVANCED_FACE('',(#994),#1002,.F.);
#994 = FACE_BOUND('',#995,.F.);
#995 = EDGE_LOOP('',(#996,#997,#998,#999,#1000,#1001));
#996 = ORIENTED_EDGE('',*,*,#895,.T.);
#997 = ORIENTED_EDGE('',*,*,#377,.F.);
#998 = ORIENTED_EDGE('',*,*,#366,.F.);
#999 = ORIENTED_EDGE('',*,*,#630,.F.);
#1000 = ORIENTED_EDGE('',*,*,#502,.T.);
#1001 = ORIENTED_EDGE('',*,*,#491,.T.);
#1002 = CYLINDRICAL_SURFACE('',#1003,29.);
#1003 = AXIS2_PLACEMENT_3D('',#1004,#1005,#1006);
#1004 = CARTESIAN_POINT('',(0.,0.,-4.5));
#1005 = DIRECTION('',(0.,0.,1.));
#1006 = DIRECTION('',(1.,0.,-0.));
#1007 = ( GEOMETRIC_REPRESENTATION_CONTEXT(3) 
GLOBAL_UNCERTAINTY_ASSIGNED_CONTEXT((#1011)) 
GLOBAL_UNIT_ASSIGNED_CONTEXT((#1008,#1009,#1010)) REPRESENTATION_CONTEXT
('Context #1','3D Context with UNIT and UNCERTAINTY') );
#1008 = ( LENGTH_UNIT() NAMED_UNIT(*) SI_UNIT(.MILLI.,.METRE.) );
#1009 = ( NAMED_UNIT(*) PLANE_ANGLE_UNIT() SI_UNIT($,.RADIAN.) );
#1010 = ( NAMED_UNIT(*) SI_UNIT($,.STERADIAN.) SOLID_ANGLE_UNIT() );
#1011 = UNCERTAINTY_MEASURE_WITH_UNIT(LENGTH_MEASURE(1.E-07),#1008,
  'distance_accuracy_value','confusion accuracy');
#1012 = PRODUCT_RELATED_PRODUCT_CATEGORY('part',$,(#7));
ENDSEC;
END-ISO-10303-21;
