#VRML V2.0 utf8
# USB_C_GT-USB-7051A - generated by tools/gen_3d_models.py
Shape { appearance Appearance { material Material { diffuseColor 0.780 0.780 0.800 specularColor 0.2 0.2 0.2 shininess 0.3 } }
  geometry IndexedFaceSet { solid TRUE coord Coordinate { point [ -1.75984 -0.62205 0.00000, -1.64173 -0.62205 0.00000, -1.64173 0.62205 0.00000, -1.75984 0.62205 0.00000, -1.75984 -0.62205 2.95276, -1.64173 -0.62205 2.95276, -1.64173 0.62205 2.95276, -1.75984 0.62205 2.95276 ] } coordIndex [ 0 3 2 1 -1, 4 5 6 7 -1, 0 1 5 4 -1, 1 2 6 5 -1, 2 3 7 6 -1, 3 0 4 7 -1 ] } }
Shape { appearance Appearance { material Material { diffuseColor 0.780 0.780 0.800 specularColor 0.2 0.2 0.2 shininess 0.3 } }
  geometry IndexedFaceSet { solid TRUE coord Coordinate { point [ 1.64173 -0.62205 0.00000, 1.75984 -0.62205 0.00000, 1.75984 0.62205 0.00000, 1.64173 0.62205 0.00000, 1.64173 -0.62205 2.95276, 1.75984 -0.62205 2.95276, 1.75984 0.62205 2.95276, 1.64173 0.62205 2.95276 ] } coordIndex [ 0 3 2 1 -1, 4 5 6 7 -1, 0 1 5 4 -1, 1 2 6 5 -1, 2 3 7 6 -1, 3 0 4 7 -1 ] } }
Shape { appearance Appearance { material Material { diffuseColor 0.780 0.780 0.800 specularColor 0.2 0.2 0.2 shininess 0.3 } }
  geometry IndexedFaceSet { solid TRUE coord Coordinate { point [ -1.64173 -0.62205 0.00000, 1.64173 -0.62205 0.00000, 1.64173 -0.50394 0.00000, -1.64173 -0.50394 0.00000, -1.64173 -0.62205 2.95276, 1.64173 -0.62205 2.95276, 1.64173 -0.50394 2.95276, -1.64173 -0.50394 2.95276 ] } coordIndex [ 0 3 2 1 -1, 4 5 6 7 -1, 0 1 5 4 -1, 1 2 6 5 -1, 2 3 7 6 -1, 3 0 4 7 -1 ] } }
Shape { appearance Appearance { material Material { diffuseColor 0.780 0.780 0.800 specularColor 0.2 0.2 0.2 shininess 0.3 } }
  geometry IndexedFaceSet { solid TRUE coord Coordinate { point [ -1.64173 0.50394 0.00000, 1.64173 0.50394 0.00000, 1.64173 0.62205 0.00000, -1.64173 0.62205 0.00000, -1.64173 0.50394 2.95276, 1.64173 0.50394 2.95276, 1.64173 0.62205 2.95276, -1.64173 0.62205 2.95276 ] } coordIndex [ 0 3 2 1 -1, 4 5 6 7 -1, 0 1 5 4 -1, 1 2 6 5 -1, 2 3 7 6 -1, 3 0 4 7 -1 ] } }
Shape { appearance Appearance { material Material { diffuseColor 0.080 0.080 0.090 specularColor 0.2 0.2 0.2 shininess 0.3 } }
  geometry IndexedFaceSet { solid TRUE coord Coordinate { point [ -1.64173 -0.50394 0.00000, 1.64173 -0.50394 0.00000, 1.64173 0.50394 0.00000, -1.64173 0.50394 0.00000, -1.64173 -0.50394 0.31496, 1.64173 -0.50394 0.31496, 1.64173 0.50394 0.31496, -1.64173 0.50394 0.31496 ] } coordIndex [ 0 3 2 1 -1, 4 5 6 7 -1, 0 1 5 4 -1, 1 2 6 5 -1, 2 3 7 6 -1, 3 0 4 7 -1 ] } }
Shape { appearance Appearance { material Material { diffuseColor 0.080 0.080 0.090 specularColor 0.2 0.2 0.2 shininess 0.3 } }
  geometry IndexedFaceSet { solid TRUE coord Coordinate { point [ -1.29921 -0.13780 0.31496, 1.29921 -0.13780 0.31496, 1.29921 0.13780 0.31496, -1.29921 0.13780 0.31496, -1.29921 -0.13780 2.71654, 1.29921 -0.13780 2.71654, 1.29921 0.13780 2.71654, -1.29921 0.13780 2.71654 ] } coordIndex [ 0 3 2 1 -1, 4 5 6 7 -1, 0 1 5 4 -1, 1 2 6 5 -1, 2 3 7 6 -1, 3 0 4 7 -1 ] } }
Shape { appearance Appearance { material Material { diffuseColor 0.780 0.780 0.800 specularColor 0.2 0.2 0.2 shininess 0.3 } }
  geometry IndexedFaceSet { solid TRUE coord Coordinate { point [ -2.04724 -1.02362 0.00000, -1.75984 -1.02362 0.00000, -1.75984 -0.74803 0.00000, -2.04724 -0.74803 0.00000, -2.04724 -1.02362 0.11811, -1.75984 -1.02362 0.11811, -1.75984 -0.74803 0.11811, -2.04724 -0.74803 0.11811 ] } coordIndex [ 0 3 2 1 -1, 4 5 6 7 -1, 0 1 5 4 -1, 1 2 6 5 -1, 2 3 7 6 -1, 3 0 4 7 -1 ] } }
Shape { appearance Appearance { material Material { diffuseColor 0.780 0.780 0.800 specularColor 0.2 0.2 0.2 shininess 0.3 } }
  geometry IndexedFaceSet { solid TRUE coord Coordinate { point [ 1.75984 -1.02362 0.00000, 2.04724 -1.02362 0.00000, 2.04724 -0.74803 0.00000, 1.75984 -0.74803 0.00000, 1.75984 -1.02362 0.11811, 2.04724 -1.02362 0.11811, 2.04724 -0.74803 0.11811, 1.75984 -0.74803 0.11811 ] } coordIndex [ 0 3 2 1 -1, 4 5 6 7 -1, 0 1 5 4 -1, 1 2 6 5 -1, 2 3 7 6 -1, 3 0 4 7 -1 ] } }
Shape { appearance Appearance { material Material { diffuseColor 0.780 0.780 0.800 specularColor 0.2 0.2 0.2 shininess 0.3 } }
  geometry IndexedFaceSet { solid TRUE coord Coordinate { point [ -2.04724 0.74803 0.00000, -1.75984 0.74803 0.00000, -1.75984 1.02362 0.00000, -2.04724 1.02362 0.00000, -2.04724 0.74803 0.11811, -1.75984 0.74803 0.11811, -1.75984 1.02362 0.11811, -2.04724 1.02362 0.11811 ] } coordIndex [ 0 3 2 1 -1, 4 5 6 7 -1, 0 1 5 4 -1, 1 2 6 5 -1, 2 3 7 6 -1, 3 0 4 7 -1 ] } }
Shape { appearance Appearance { material Material { diffuseColor 0.780 0.780 0.800 specularColor 0.2 0.2 0.2 shininess 0.3 } }
  geometry IndexedFaceSet { solid TRUE coord Coordinate { point [ 1.75984 0.74803 0.00000, 2.04724 0.74803 0.00000, 2.04724 1.02362 0.00000, 1.75984 1.02362 0.00000, 1.75984 0.74803 0.11811, 2.04724 0.74803 0.11811, 2.04724 1.02362 0.11811, 1.75984 1.02362 0.11811 ] } coordIndex [ 0 3 2 1 -1, 4 5 6 7 -1, 0 1 5 4 -1, 1 2 6 5 -1, 2 3 7 6 -1, 3 0 4 7 -1 ] } }
